M48
;Layer_Color=9474304
;FILE_FORMAT=2:4
INCH,TZ
;TYPE=PLATED
T1F00S00C0.0039
;TYPE=NON_PLATED
%
T01
X7080Y1790
X7280Y2170
X7480Y2220
X8060Y2150
X7740Y1700
X6930Y2490
X6380Y2674
X7170Y3090
X6920Y3360
X6780Y4250
X6390Y4140
X7530Y4060
X7890Y4292
X8690Y3960
X8440Y3140
X8830Y5640
X7440Y5900
X7260Y5360
X6490Y5510
X5430Y5780
X5168Y5139
X5000Y5140
X4830Y5150
X4660
X4266Y5220
X4089Y5259
M30
