M48
;Layer_Color=9474304
;FILE_FORMAT=2:4
INCH,TZ
;TYPE=PLATED
T2F00S00C0.0118
T3F00S00C0.0120
T4F00S00C0.0354
;TYPE=NON_PLATED
T5F00S00C0.0390
%
T02
X2130Y960
X2710Y900
X3230Y240
X4300Y250
X4790Y180
X4760Y750
X5010Y900
X4990Y1150
X5080Y1390
X5670Y630
X5600Y220
X5850Y250
X6280Y610
X7220Y1400
X7480Y1390
X7493Y1137
X7750Y1410
X8180Y1420
X8750
X8690Y910
X8350Y440
Y140
X9040Y320
X9390Y170
X9730Y390
X10130Y520
X10100Y200
X10080Y890
X10100Y1420
X11020Y1370
X10990Y1870
X11440Y2020
X11410Y2490
Y2960
X11450Y3220
X11440Y3880
Y4350
X11590Y5270
X10850Y5020
X10410Y4600
X10120Y4520
X10140Y4790
X10270Y4270
X9230Y3970
Y3610
X9499Y3550
X9480Y3110
X9010Y3150
X9040Y2850
X9070Y2600
X9130Y2360
X9430Y2170
X9730Y1730
X10130Y2030
X9720Y2750
X8385Y2835
X8070Y3150
X7755
X7754Y2834
X7440Y2520
X6818Y2835
X6495Y3150
X6504Y3456
X6490Y3780
X6180Y3780
X6180Y3470
X5349Y3494
X4876
Y3021
X4404
Y3494
X3931
Y3021
Y3966
X4404
X4876
Y4439
X5349
X5818Y4784
X5960Y5210
X5770Y5370
X5910Y5930
X6250Y6040
X6670Y5900
X6920Y5770
Y5280
X6915Y5024
X6790Y4780
X7190Y4810
X7420Y4900
X7850Y4830
X8079Y4393
X7755Y4095
Y3780
X7440Y3780
Y3465
X7125
X8389Y3781
X9015Y4115
X9040Y4790
X8740Y4840
X9300Y5610
X9550Y6080
X10470Y5760
X8180Y5640
X7140Y6130
X5370Y6100
X5040Y6020
X5020Y5460
X4610Y5366
X4400Y6076
X4040Y6020
X3450Y6010
X3100Y6090
X2750Y5890
Y5250
X3931Y4439
X4404
X4798Y2280
X4890Y2050
X4830Y1580
X5890Y1530
X6610Y1480
X6494Y1889
Y2204
X5700Y2660
X3631Y2080
X3630Y1800
X3350Y1500
X8385Y2205
X12060Y2310
Y3090
X12754Y2716
X12750Y3500
X12851Y4899
X2440Y5250
X2190Y5700
X2090Y6052
X2420Y6060
X1620Y5920
X1356Y6160
X2110Y2990
T03
X14736Y1244
Y2290
X13050Y1770
T04
X8750Y0
X9750
X12250Y1490
Y4800
X6750Y6300
X5750
X4750
X3750
X2750
X1750
T05
X10500Y1650
X11300
X10900Y4650
M30
