G04 Layer_Color=65535*
%FSLAX25Y25*%
%MOIN*%
G70*
G01*
G75*
%ADD22C,0.00600*%
%ADD30C,0.00500*%
G36*
X53205Y15676D02*
X49268Y19613D01*
X53205D01*
Y15676D01*
D02*
G37*
D22*
X-52001Y2001D02*
X-51501Y2500D01*
Y3500D01*
X-52001Y4000D01*
X-52501D01*
X-53000Y3500D01*
Y2500D01*
X-53500Y2001D01*
X-54000D01*
X-54500Y2500D01*
Y3500D01*
X-54000Y4000D01*
X-51501Y1001D02*
X-54500D01*
X-53500Y1D01*
X-54500Y-998D01*
X-51501D01*
X-54500Y-3997D02*
Y-1998D01*
X-52501Y-3997D01*
X-52001D01*
X-51501Y-3498D01*
Y-2498D01*
X-52001Y-1998D01*
X6999Y-26500D02*
X4000D01*
Y-27999D01*
X4500Y-28499D01*
X6499D01*
X6999Y-27999D01*
Y-26500D01*
X4000Y-31498D02*
Y-29499D01*
X5999Y-31498D01*
X6499D01*
X6999Y-30999D01*
Y-29999D01*
X6499Y-29499D01*
X-12500Y-26500D02*
X-9501D01*
Y-27999D01*
X-10001Y-28499D01*
X-11000D01*
X-11500Y-27999D01*
Y-26500D01*
Y-27500D02*
X-12500Y-28499D01*
Y-31498D02*
Y-29499D01*
X-10501Y-31498D01*
X-10001D01*
X-9501Y-30999D01*
Y-29999D01*
X-10001Y-29499D01*
X-42500Y9499D02*
Y7000D01*
X-42000Y6500D01*
X-41001D01*
X-40501Y7000D01*
Y9499D01*
X-39501Y6500D02*
X-38501D01*
X-39001D01*
Y9499D01*
X-39501Y8999D01*
X-18001Y19001D02*
X-17501Y19500D01*
Y20500D01*
X-18001Y21000D01*
X-18501D01*
X-19001Y20500D01*
Y19500D01*
X-19500Y19001D01*
X-20000D01*
X-20500Y19500D01*
Y20500D01*
X-20000Y21000D01*
X-17501Y18001D02*
X-20500D01*
X-19500Y17001D01*
X-20500Y16002D01*
X-17501D01*
X-20500Y15002D02*
Y14002D01*
Y14502D01*
X-17501D01*
X-18001Y15002D01*
X-17000Y31000D02*
Y33999D01*
X-15500D01*
X-15001Y33499D01*
Y32500D01*
X-15500Y32000D01*
X-17000D01*
X-16000D02*
X-15001Y31000D01*
X-14001D02*
X-13001D01*
X-13501D01*
Y33999D01*
X-14001Y33499D01*
X-22601Y27499D02*
X-23100Y27999D01*
X-24100D01*
X-24600Y27499D01*
Y25500D01*
X-24100Y25000D01*
X-23100D01*
X-22601Y25500D01*
X-21601Y25000D02*
X-20601D01*
X-21101D01*
Y27999D01*
X-21601Y27499D01*
X8500Y-21501D02*
Y-24500D01*
X10000D01*
X10499Y-24000D01*
Y-23500D01*
X10000Y-23000D01*
X8500D01*
X10000D01*
X10499Y-22501D01*
Y-22001D01*
X10000Y-21501D01*
X8500D01*
X11499D02*
Y-24500D01*
X13498D01*
X16497Y-21501D02*
X14498D01*
Y-24500D01*
X16497D01*
X14498Y-23000D02*
X15498D01*
X-38501Y-5192D02*
X-38001Y-4692D01*
Y-3693D01*
X-38501Y-3193D01*
X-40500D01*
X-41000Y-3693D01*
Y-4692D01*
X-40500Y-5192D01*
X-41000Y-7692D02*
X-38001D01*
X-39500Y-6192D01*
Y-8191D01*
X18647Y-27819D02*
X17940Y-27819D01*
X17233Y-28526D01*
Y-29233D01*
X17586Y-29586D01*
X18293Y-29586D01*
X19000Y-28879D01*
X19707Y-28879D01*
X20060Y-29233D01*
X20060Y-29940D01*
X19353Y-30647D01*
X18647D01*
X19000Y-26759D02*
X21121Y-28879D01*
Y-27466D01*
X22534Y-27466D01*
X20414Y-25345D01*
X21121Y-24638D02*
X23241Y-26759D01*
X24302Y-25698D01*
X24302Y-24992D01*
X22888Y-23578D01*
X22181D01*
X21121Y-24638D01*
X25499Y28000D02*
X22500Y26001D01*
X25499D02*
X22500Y28000D01*
Y25001D02*
Y24001D01*
Y24501D01*
X25499D01*
X24999Y25001D01*
D30*
X-2602Y-19658D02*
X53303D01*
Y19712D01*
X49260Y19582D02*
X53197Y15645D01*
X-2602Y-19658D02*
Y19712D01*
X53303D01*
X999Y39000D02*
X-1500D01*
Y37750D01*
X-1084Y37334D01*
X583D01*
X999Y37750D01*
Y39000D01*
X-1500Y36501D02*
Y35668D01*
Y36084D01*
X999D01*
X583Y36501D01*
X17783Y38034D02*
X18199Y38450D01*
Y39283D01*
X17783Y39700D01*
X16116D01*
X15700Y39283D01*
Y38450D01*
X16116Y38034D01*
X15700Y35535D02*
Y37201D01*
X17366Y35535D01*
X17783D01*
X18199Y35951D01*
Y36784D01*
X17783Y37201D01*
X13783Y38034D02*
X14199Y38450D01*
Y39283D01*
X13783Y39700D01*
X12116D01*
X11700Y39283D01*
Y38450D01*
X12116Y38034D01*
X13783Y37201D02*
X14199Y36784D01*
Y35951D01*
X13783Y35535D01*
X13366D01*
X12950Y35951D01*
Y36368D01*
Y35951D01*
X12533Y35535D01*
X12116D01*
X11700Y35951D01*
Y36784D01*
X12116Y37201D01*
M02*
