G04 Layer_Color=8421504*
%FSLAX25Y25*%
%MOIN*%
G70*
G01*
G75*
%ADD10R,0.03150X0.03543*%
%ADD11R,0.02362X0.01969*%
%ADD12R,0.02165X0.02362*%
%ADD13R,0.02362X0.02165*%
%ADD14R,0.05118X0.08268*%
%ADD15R,0.01969X0.02362*%
%ADD16R,0.03937X0.07087*%
%ADD17R,0.03150X0.02559*%
%ADD18R,0.04488X0.04016*%
%ADD19R,0.04488X0.01181*%
%ADD20R,0.01476X0.01969*%
%ADD21R,0.01929X0.01929*%
D10*
X-12559Y26500D02*
D03*
X-7441Y26500D02*
D03*
D11*
X-20200Y-17232D02*
D03*
Y-21169D02*
D03*
X-39500Y7032D02*
D03*
Y10968D02*
D03*
X-35000Y-2468D02*
D03*
Y1469D02*
D03*
D12*
X-15700Y-17527D02*
D03*
Y-20873D02*
D03*
X-6500Y-30673D02*
D03*
Y-27327D02*
D03*
X-35000Y-7327D02*
D03*
X-35000Y-10673D02*
D03*
D13*
X-6827Y32500D02*
D03*
X-10173Y32500D02*
D03*
D14*
X-9535Y-17913D02*
D03*
Y17913D02*
D03*
X-26465Y-17913D02*
D03*
Y17913D02*
D03*
D15*
X16032Y33000D02*
D03*
X19969Y33000D02*
D03*
X10968D02*
D03*
X7032D02*
D03*
D16*
X8658Y26000D02*
D03*
X18500D02*
D03*
D17*
X0Y33648D02*
D03*
Y24258D02*
D03*
Y-33648D02*
D03*
Y-24258D02*
D03*
D18*
Y27506D02*
D03*
Y-27506D02*
D03*
D19*
Y31876D02*
D03*
Y-31876D02*
D03*
D20*
X-44500Y3500D02*
D03*
X-46468D02*
D03*
X-48437D02*
D03*
X-44500Y-3193D02*
D03*
X-48437Y-3193D02*
D03*
D21*
X8618Y17350D02*
D03*
X-43D02*
D03*
X4287D02*
D03*
X12949D02*
D03*
X-43Y13019D02*
D03*
X10784Y13806D02*
D03*
X3500Y10853D02*
D03*
X6453Y13806D02*
D03*
X21610Y17350D02*
D03*
X25941D02*
D03*
X15114Y13806D02*
D03*
X17279Y17350D02*
D03*
X30272D02*
D03*
X34602D02*
D03*
X28106Y13806D02*
D03*
X32437D02*
D03*
X19445D02*
D03*
X23776D02*
D03*
X-43Y4358D02*
D03*
Y8688D02*
D03*
X-43Y27D02*
D03*
X-43Y-4304D02*
D03*
X3500Y2192D02*
D03*
Y6523D02*
D03*
Y-6469D02*
D03*
Y-2139D02*
D03*
X-43Y-8635D02*
D03*
X3500Y-10800D02*
D03*
X-43Y-17296D02*
D03*
X-43Y-12965D02*
D03*
X4287Y-17296D02*
D03*
X15114Y-13753D02*
D03*
X19445D02*
D03*
X6453D02*
D03*
X10784D02*
D03*
X34602Y-6469D02*
D03*
Y6523D02*
D03*
X23776Y-13753D02*
D03*
X28106D02*
D03*
X8618Y-17296D02*
D03*
X12949Y-17296D02*
D03*
X17279D02*
D03*
X21610D02*
D03*
X25941Y-17296D02*
D03*
X32437Y-13753D02*
D03*
X30272Y-17296D02*
D03*
X34602D02*
D03*
M02*
