G04 Layer_Color=8388736*
%FSLAX25Y25*%
%MOIN*%
G70*
G01*
G75*
%ADD31R,0.03950X0.04343*%
%ADD32R,0.03162X0.02769*%
%ADD33R,0.02965X0.03162*%
%ADD34R,0.03162X0.02965*%
%ADD35R,0.05918X0.09068*%
%ADD36R,0.02769X0.03162*%
%ADD37R,0.04737X0.07887*%
%ADD38R,0.03950X0.03359*%
%ADD39R,0.05288X0.04816*%
%ADD40R,0.05288X0.01981*%
%ADD41R,0.02276X0.02769*%
%ADD42R,0.02729X0.02729*%
%ADD43C,0.04761*%
G04:AMPARAMS|DCode=44|XSize=47.59mil|YSize=47.61mil|CornerRadius=0mil|HoleSize=0mil|Usage=FLASHONLY|Rotation=45.000|XOffset=0mil|YOffset=0mil|HoleType=Round|Shape=Rectangle|*
%AMROTATEDRECTD44*
4,1,4,0.00001,-0.03366,-0.03366,0.00001,-0.00001,0.03366,0.03366,-0.00001,0.00001,-0.03366,0.0*
%
%ADD44ROTATEDRECTD44*%

%ADD45R,0.04761X0.04759*%
%ADD46C,0.09855*%
%ADD47C,0.03500*%
D31*
X-12559Y26500D02*
D03*
X-7441Y26500D02*
D03*
D32*
X-20200Y-17232D02*
D03*
Y-21169D02*
D03*
X-39500Y7032D02*
D03*
Y10968D02*
D03*
X-35000Y-2468D02*
D03*
Y1469D02*
D03*
D33*
X-15700Y-17527D02*
D03*
Y-20873D02*
D03*
X-6500Y-30673D02*
D03*
Y-27327D02*
D03*
X-35000Y-7327D02*
D03*
X-35000Y-10673D02*
D03*
D34*
X-6827Y32500D02*
D03*
X-10173Y32500D02*
D03*
D35*
X-9535Y-17913D02*
D03*
Y17913D02*
D03*
X-26465Y-17913D02*
D03*
Y17913D02*
D03*
D36*
X16032Y33000D02*
D03*
X19969Y33000D02*
D03*
X10968D02*
D03*
X7032D02*
D03*
D37*
X8658Y26000D02*
D03*
X18500D02*
D03*
D38*
X0Y33648D02*
D03*
Y24258D02*
D03*
Y-33648D02*
D03*
Y-24258D02*
D03*
D39*
Y27506D02*
D03*
Y-27506D02*
D03*
D40*
Y31876D02*
D03*
Y-31876D02*
D03*
D41*
X-44500Y3500D02*
D03*
X-46468D02*
D03*
X-48437D02*
D03*
X-44500Y-3193D02*
D03*
X-48437Y-3193D02*
D03*
D42*
X8618Y17350D02*
D03*
X-43D02*
D03*
X4287D02*
D03*
X12949D02*
D03*
X-43Y13019D02*
D03*
X10784Y13806D02*
D03*
X3500Y10853D02*
D03*
X6453Y13806D02*
D03*
X21610Y17350D02*
D03*
X25941D02*
D03*
X15114Y13806D02*
D03*
X17279Y17350D02*
D03*
X30272D02*
D03*
X34602D02*
D03*
X28106Y13806D02*
D03*
X32437D02*
D03*
X19445D02*
D03*
X23776D02*
D03*
X-43Y4358D02*
D03*
Y8688D02*
D03*
X-43Y27D02*
D03*
X-43Y-4304D02*
D03*
X3500Y2192D02*
D03*
Y6523D02*
D03*
Y-6469D02*
D03*
Y-2139D02*
D03*
X-43Y-8635D02*
D03*
X3500Y-10800D02*
D03*
X-43Y-17296D02*
D03*
X-43Y-12965D02*
D03*
X4287Y-17296D02*
D03*
X15114Y-13753D02*
D03*
X19445D02*
D03*
X6453D02*
D03*
X10784D02*
D03*
X34602Y-6469D02*
D03*
Y6523D02*
D03*
X23776Y-13753D02*
D03*
X28106D02*
D03*
X8618Y-17296D02*
D03*
X12949Y-17296D02*
D03*
X17279D02*
D03*
X21610D02*
D03*
X25941Y-17296D02*
D03*
X32437Y-13753D02*
D03*
X30272Y-17296D02*
D03*
X34602D02*
D03*
D43*
X26071Y-28929D02*
D03*
X29607Y-25393D02*
D03*
X22535Y-32465D02*
D03*
X-58815Y3500D02*
D03*
D44*
X19000Y-36000D02*
D03*
D45*
X-58815Y-3500D02*
D03*
D46*
X-6299Y40945D02*
D03*
X5906D02*
D03*
X-6299Y-40945D02*
D03*
X5906D02*
D03*
D47*
X-9500Y-9500D02*
D03*
X-20200D02*
D03*
X10000Y7500D02*
D03*
X28000D02*
D03*
X-18000Y26500D02*
D03*
X-20063Y1500D02*
D03*
M02*
