G04 Layer_Color=8388736*
%FSLAX25Y25*%
%MOIN*%
G70*
G01*
G75*
%ADD31R,0.03162X0.02965*%
%ADD32R,0.02965X0.03162*%
%ADD33R,0.02729X0.02729*%
%ADD34R,0.05288X0.01981*%
%ADD35R,0.03950X0.03359*%
%ADD36R,0.05288X0.04816*%
%ADD37R,0.02769X0.03162*%
%ADD38R,0.03162X0.02769*%
%ADD39R,0.04737X0.07887*%
%ADD40R,0.05918X0.09068*%
%ADD41R,0.03950X0.04343*%
%ADD42R,0.02276X0.02769*%
%ADD43C,0.09855*%
%ADD44C,0.04761*%
G04:AMPARAMS|DCode=45|XSize=47.59mil|YSize=47.61mil|CornerRadius=0mil|HoleSize=0mil|Usage=FLASHONLY|Rotation=45.000|XOffset=0mil|YOffset=0mil|HoleType=Round|Shape=Rectangle|*
%AMROTATEDRECTD45*
4,1,4,0.00001,-0.03366,-0.03366,0.00001,-0.00001,0.03366,0.03366,-0.00001,0.00001,-0.03366,0.0*
%
%ADD45ROTATEDRECTD45*%

%ADD46R,0.04761X0.04759*%
%ADD47C,0.03500*%
D31*
X-37673Y-11000D02*
D03*
X-34327D02*
D03*
Y-6500D02*
D03*
X-37673Y-6500D02*
D03*
X-10173Y32500D02*
D03*
X-6827Y32500D02*
D03*
D32*
X-12500Y-27327D02*
D03*
Y-30673D02*
D03*
X-6500Y-27327D02*
D03*
Y-30673D02*
D03*
X-15700Y-20873D02*
D03*
Y-17527D02*
D03*
D33*
X34602Y-17296D02*
D03*
X30272D02*
D03*
X32437Y-13753D02*
D03*
X25941Y-17296D02*
D03*
X21610Y-17296D02*
D03*
X17279D02*
D03*
X12949D02*
D03*
X8618Y-17296D02*
D03*
X28106Y-13753D02*
D03*
X23776D02*
D03*
X34602Y6523D02*
D03*
Y-6469D02*
D03*
X10784Y-13753D02*
D03*
X6453D02*
D03*
X19445D02*
D03*
X15114D02*
D03*
X4287Y-17296D02*
D03*
X-43Y-12965D02*
D03*
X-43Y-17296D02*
D03*
X3500Y-10800D02*
D03*
X-43Y-8635D02*
D03*
X3500Y-2139D02*
D03*
Y-6469D02*
D03*
Y6523D02*
D03*
Y2192D02*
D03*
X-43Y-4304D02*
D03*
X-43Y27D02*
D03*
X-43Y8688D02*
D03*
Y4358D02*
D03*
X23776Y13806D02*
D03*
X19445D02*
D03*
X32437D02*
D03*
X28106D02*
D03*
X34602Y17350D02*
D03*
X30272D02*
D03*
X17279D02*
D03*
X15114Y13806D02*
D03*
X25941Y17350D02*
D03*
X21610D02*
D03*
X6453Y13806D02*
D03*
X3500Y10853D02*
D03*
X10784Y13806D02*
D03*
X-43Y13019D02*
D03*
X12949Y17350D02*
D03*
X4287D02*
D03*
X-43D02*
D03*
X8618D02*
D03*
D34*
X0Y-31876D02*
D03*
Y31876D02*
D03*
D35*
Y-24258D02*
D03*
Y-33648D02*
D03*
Y24258D02*
D03*
Y33648D02*
D03*
D36*
Y-27506D02*
D03*
Y27506D02*
D03*
D37*
X-34032Y-2000D02*
D03*
X-37969D02*
D03*
X7032Y33000D02*
D03*
X10968D02*
D03*
X19969D02*
D03*
X16032Y33000D02*
D03*
D38*
X-39500Y10968D02*
D03*
Y7032D02*
D03*
X-20200Y-21169D02*
D03*
Y-17232D02*
D03*
D39*
X18500Y26000D02*
D03*
X8658D02*
D03*
D40*
X-26465Y17913D02*
D03*
Y-17913D02*
D03*
X-9535Y17913D02*
D03*
Y-17913D02*
D03*
D41*
X-7441Y26500D02*
D03*
X-12559Y26500D02*
D03*
D42*
X-44500Y3500D02*
D03*
X-46468D02*
D03*
X-48437D02*
D03*
X-44500Y-3193D02*
D03*
X-48437D02*
D03*
D43*
X5906Y-40945D02*
D03*
X-6299D02*
D03*
X5906Y40945D02*
D03*
X-6299D02*
D03*
D44*
X22535Y-32465D02*
D03*
X29607Y-25393D02*
D03*
X26071Y-28929D02*
D03*
X-58815Y3500D02*
D03*
D45*
X19000Y-36000D02*
D03*
D46*
X-58815Y-3500D02*
D03*
D47*
X-20200Y0D02*
D03*
X-18000Y26500D02*
D03*
X28000Y7500D02*
D03*
X10000D02*
D03*
X-20200Y-9500D02*
D03*
X-9500D02*
D03*
M02*
