G04 Layer_Color=32896*
%FSLAX25Y25*%
%MOIN*%
G70*
G01*
G75*
%ADD22C,0.00600*%
G36*
X45978Y-6531D02*
X46066Y-6531D01*
Y-6618D01*
X47119D01*
Y-6531D01*
X47207D01*
Y-6092D01*
X47558D01*
Y-6531D01*
X47646D01*
Y-6618D01*
X48173D01*
Y-7233D01*
X47558D01*
X47558Y-7584D01*
X47207D01*
Y-7233D01*
X47119Y-7233D01*
X46593D01*
X46505Y-7233D01*
X46417Y-7233D01*
X46329Y-7233D01*
X46241Y-7233D01*
X45978D01*
Y-7057D01*
X45802D01*
Y-6970D01*
X45715D01*
Y-6882D01*
X45627D01*
Y-6970D01*
X45539D01*
Y-6882D01*
X45363D01*
Y-6794D01*
X45012D01*
Y-6706D01*
X44749D01*
Y-6618D01*
X44573D01*
Y-6531D01*
X44310D01*
Y-6443D01*
X44047D01*
Y-6355D01*
X43959D01*
X43871Y-6355D01*
Y-6267D01*
X43608D01*
Y-6179D01*
X43432D01*
Y-5477D01*
X43520D01*
Y-5565D01*
X43608D01*
Y-5653D01*
X43695D01*
X43783Y-5652D01*
Y-5740D01*
X43959D01*
X43959Y-5828D01*
X44222D01*
X44222Y-5916D01*
X44924D01*
X44924Y-5828D01*
X45276D01*
X45276Y-5740D01*
X45451D01*
Y-5653D01*
X45539D01*
Y-5565D01*
X45627D01*
Y-5477D01*
X45715Y-5477D01*
Y-5389D01*
X45802Y-5389D01*
Y-5301D01*
X45890D01*
Y-5214D01*
X45978D01*
Y-6531D01*
D02*
G37*
G36*
X46066Y-4423D02*
X46241D01*
X46329Y-4423D01*
X46417Y-4423D01*
X46505Y-4423D01*
X46593Y-4423D01*
X47119D01*
X47207Y-4423D01*
X47295Y-4423D01*
X47383Y-4423D01*
X47470Y-4423D01*
X47558D01*
X47558Y-5038D01*
X47470D01*
Y-5126D01*
X46154D01*
Y-5038D01*
X45978D01*
Y-4336D01*
X46066D01*
Y-4423D01*
D02*
G37*
G36*
X49314Y-4950D02*
X49841D01*
Y-5565D01*
X49226D01*
Y-4950D01*
X49314Y-4950D01*
D02*
G37*
G36*
X44398Y-7145D02*
X44573D01*
X44661Y-7145D01*
Y-7233D01*
X44749Y-7233D01*
X44837Y-7233D01*
X44924D01*
Y-7321D01*
X45188D01*
Y-7496D01*
X45100Y-7496D01*
X45012D01*
Y-7584D01*
X44837D01*
Y-7672D01*
X44573D01*
Y-7760D01*
X44310D01*
X44222Y-7760D01*
Y-7145D01*
X44310Y-7145D01*
X44310Y-7057D01*
X44398D01*
Y-7145D01*
D02*
G37*
G36*
X51772Y-6531D02*
X52036D01*
Y-7584D01*
X51772D01*
X51684Y-7584D01*
X51597Y-7584D01*
X50982D01*
X50982Y-6531D01*
X51070Y-6531D01*
X51597D01*
X51684Y-6531D01*
X51772Y-6531D01*
D02*
G37*
G36*
X44398Y-2141D02*
X43432D01*
Y-1000D01*
X44398D01*
Y-2141D01*
D02*
G37*
G36*
X45978Y-1175D02*
X46241D01*
X46329Y-1175D01*
X46417Y-1175D01*
X46505Y-1175D01*
X46593Y-1175D01*
X46680Y-1175D01*
X46768Y-1175D01*
X46856D01*
X46944Y-1175D01*
X47032Y-1175D01*
X47119D01*
X47207Y-1175D01*
X47295Y-1175D01*
X47383Y-1175D01*
X47470Y-1175D01*
X47558D01*
X47558Y-1877D01*
X46944D01*
X46856Y-1877D01*
X46768Y-1877D01*
X45978D01*
X45978Y-2141D01*
X44924D01*
X44924Y-1000D01*
X45978D01*
X45978Y-1175D01*
D02*
G37*
G36*
X50455Y-2404D02*
Y-3985D01*
X50368Y-3985D01*
X49665D01*
X49577Y-3985D01*
X49490Y-3985D01*
X49051D01*
Y-3897D01*
X48963Y-3897D01*
Y-2492D01*
X49051D01*
Y-2404D01*
X49490D01*
X49577Y-2404D01*
X49665Y-2404D01*
X50368D01*
X50455Y-2404D01*
D02*
G37*
G36*
X42203Y-5126D02*
X42115D01*
Y-5214D01*
X41061D01*
Y-5038D01*
X40974D01*
X40974Y-4072D01*
X41061D01*
Y-3985D01*
X41588D01*
X41676Y-3985D01*
X41764Y-3985D01*
X42203D01*
Y-5126D01*
D02*
G37*
G36*
X45978Y-2755D02*
Y-2931D01*
X46066Y-2931D01*
X46154Y-2931D01*
X46241Y-2931D01*
X46768D01*
X46856Y-2931D01*
X46944Y-2931D01*
X47032Y-2931D01*
X47119Y-2931D01*
X47207D01*
X47295Y-2931D01*
X47383Y-2931D01*
X47558D01*
X47558Y-3545D01*
X47470D01*
X47383Y-3545D01*
X47295Y-3545D01*
X47207Y-3545D01*
X47119Y-3545D01*
X47032D01*
X46944Y-3545D01*
X46856Y-3545D01*
X46593D01*
X46505Y-3545D01*
X46417Y-3545D01*
X46329Y-3545D01*
Y-3633D01*
X46241D01*
X46154Y-3633D01*
X46066Y-3633D01*
Y-3721D01*
X45978D01*
Y-3809D01*
X45890D01*
Y-3721D01*
X45802D01*
Y-3545D01*
X45715D01*
X45627Y-3545D01*
Y-3458D01*
X45539D01*
Y-3370D01*
X45363D01*
Y-3282D01*
X45100D01*
Y-3897D01*
X45188Y-3897D01*
X45276Y-3897D01*
Y-3985D01*
X45363D01*
Y-4072D01*
X45451D01*
Y-4160D01*
X45539Y-4160D01*
Y-4862D01*
X45451D01*
X45451Y-4950D01*
X45363D01*
Y-5038D01*
X45276D01*
Y-5126D01*
X45188D01*
Y-5214D01*
X44837D01*
Y-5301D01*
X44749Y-5301D01*
X44661Y-5301D01*
X44310D01*
X44310Y-5214D01*
X44047D01*
Y-5126D01*
X43871D01*
Y-5038D01*
X43783D01*
Y-4862D01*
X43695D01*
X43695Y-4687D01*
X43608D01*
Y-4248D01*
X43695D01*
Y-4072D01*
X43783Y-4072D01*
Y-3985D01*
X43871D01*
X43871Y-3897D01*
X43959Y-3897D01*
X44047Y-3897D01*
X44134D01*
Y-3809D01*
X44222D01*
X44222Y-3194D01*
X44134D01*
Y-3282D01*
X43959D01*
X43871Y-3282D01*
Y-3370D01*
X43695D01*
Y-3458D01*
X43520D01*
Y-3545D01*
X43432Y-3545D01*
Y-2755D01*
X43695D01*
X43783Y-2755D01*
X43871Y-2755D01*
X45188D01*
X45276Y-2755D01*
X45363Y-2755D01*
X45890D01*
X45978Y-2755D01*
D02*
G37*
G36*
Y-7760D02*
Y-8286D01*
X47207D01*
Y-8374D01*
X47295Y-8374D01*
X47383Y-8374D01*
Y-8462D01*
X47470D01*
Y-8550D01*
X47558D01*
X47558Y-8813D01*
X47646D01*
Y-9340D01*
X47558D01*
Y-9603D01*
X47470D01*
Y-9691D01*
X47383D01*
Y-9779D01*
X47558D01*
Y-10393D01*
X45978D01*
Y-11271D01*
X45890D01*
Y-11184D01*
X45715D01*
X45627Y-11184D01*
Y-11096D01*
X45363D01*
Y-11008D01*
X45100D01*
Y-10920D01*
X44837D01*
Y-10832D01*
X44749D01*
X44661Y-10832D01*
X44573Y-10832D01*
Y-10745D01*
X44310D01*
Y-10657D01*
X44134D01*
Y-10569D01*
X44222D01*
Y-10481D01*
X44310Y-10481D01*
X44485D01*
Y-10393D01*
X44837D01*
Y-10306D01*
X45276D01*
Y-10218D01*
X45363D01*
Y-10130D01*
X45539D01*
X45627Y-10130D01*
Y-10042D01*
X45890D01*
Y-9954D01*
X45978Y-9954D01*
Y-9779D01*
X46066Y-9779D01*
X46768D01*
X46856Y-9779D01*
Y-9691D01*
X46944D01*
Y-9603D01*
X47032Y-9603D01*
X47119Y-9603D01*
Y-9076D01*
X47032D01*
Y-8989D01*
X46944Y-8989D01*
X46856Y-8989D01*
Y-8901D01*
X46768Y-8901D01*
X46241D01*
X46154Y-8901D01*
X46066Y-8901D01*
X45978Y-8901D01*
Y-9076D01*
X43432D01*
Y-8725D01*
X43608D01*
Y-8637D01*
X43783D01*
Y-8550D01*
X44047D01*
Y-8462D01*
X44222D01*
X44222Y-8374D01*
X44310Y-8374D01*
X44398Y-8374D01*
X44485D01*
Y-8286D01*
X44749D01*
Y-8199D01*
X44924D01*
Y-8111D01*
X45188D01*
X45188Y-8023D01*
X45276Y-8023D01*
X45363Y-8023D01*
Y-7935D01*
X45539D01*
X45627Y-7935D01*
Y-7847D01*
X45890D01*
Y-7760D01*
X45978Y-7760D01*
D02*
G37*
G36*
X46066Y-11535D02*
X46768D01*
X46856Y-11535D01*
X46944Y-11535D01*
X47558D01*
Y-12149D01*
X45978D01*
Y-11447D01*
X46066D01*
Y-11535D01*
D02*
G37*
G36*
X48348Y-12149D02*
X47909D01*
X47909Y-11535D01*
X48348D01*
Y-12149D01*
D02*
G37*
G36*
X48524Y-12676D02*
X48612D01*
Y-13466D01*
X47822D01*
Y-12588D01*
X47909Y-12588D01*
X47997Y-12588D01*
X48085D01*
X48173Y-12588D01*
X48261Y-12588D01*
X48524D01*
Y-12676D01*
D02*
G37*
G36*
X45188Y-12852D02*
X45276Y-12852D01*
Y-14081D01*
X44837D01*
X44749Y-14081D01*
X44661Y-14081D01*
X43959D01*
Y-12764D01*
X45188D01*
Y-12852D01*
D02*
G37*
G36*
X41939Y-12764D02*
X40974D01*
Y-12676D01*
X40886D01*
Y-11710D01*
X40974D01*
X40974Y-11622D01*
X41939D01*
Y-12764D01*
D02*
G37*
G36*
X41413Y-8199D02*
X41500D01*
Y-9954D01*
X41237D01*
X41149Y-9954D01*
X41061Y-9954D01*
X40359D01*
X40271Y-9954D01*
X40184Y-9954D01*
X39832D01*
X39832Y-8199D01*
X39920D01*
Y-8111D01*
X40008Y-8111D01*
X40096D01*
X40184Y-8111D01*
X40271Y-8111D01*
X40535D01*
X40623Y-8111D01*
X40710Y-8111D01*
X40798Y-8111D01*
X40886Y-8111D01*
X41413D01*
Y-8199D01*
D02*
G37*
G36*
X43695Y-6882D02*
X43783Y-6882D01*
Y-8023D01*
X43695Y-8023D01*
X43608D01*
Y-8111D01*
X43520D01*
X43432Y-8111D01*
Y-6794D01*
X43695D01*
Y-6882D01*
D02*
G37*
G36*
X44749Y-9603D02*
X44924D01*
X44924Y-9691D01*
X45012D01*
Y-9779D01*
X44749D01*
Y-9867D01*
X44485D01*
Y-9954D01*
X44222D01*
X44222Y-10042D01*
X44047D01*
Y-10130D01*
X43959D01*
X43871Y-10130D01*
X43783Y-10130D01*
Y-10218D01*
X43520D01*
Y-10306D01*
X43432D01*
X43432Y-9691D01*
X43520D01*
Y-9603D01*
X43695D01*
X43783Y-9603D01*
X43871Y-9603D01*
X44134D01*
X44222Y-9603D01*
X44310Y-9603D01*
X44573D01*
X44661Y-9603D01*
X44749Y-9603D01*
D02*
G37*
G36*
X43695Y-11096D02*
X43783Y-11096D01*
X43871Y-11096D01*
X43959Y-11096D01*
Y-11184D01*
X44222D01*
Y-11271D01*
X44485D01*
Y-11359D01*
X44573Y-11359D01*
X44661Y-11359D01*
X44749Y-11359D01*
Y-11447D01*
X44924D01*
X44924Y-11535D01*
X45012D01*
Y-11622D01*
X43432D01*
X43432Y-11008D01*
X43695D01*
X43695Y-11096D01*
D02*
G37*
G36*
X50894Y-10920D02*
X49665D01*
Y-9779D01*
X49753D01*
Y-9691D01*
X50894D01*
Y-10920D01*
D02*
G37*
G36*
X48348Y-1175D02*
Y-1877D01*
X47909D01*
X47909Y-1175D01*
X48173D01*
X48261Y-1175D01*
X48348Y-1175D01*
D02*
G37*
G36*
X41325Y4883D02*
X41237Y4883D01*
X41149Y4883D01*
X41061Y4883D01*
X40798D01*
X40710Y4883D01*
X40623Y4883D01*
X40359D01*
X40271Y4883D01*
X40184Y4883D01*
X40008D01*
Y6199D01*
X41325D01*
X41325Y4883D01*
D02*
G37*
G36*
X47558Y5322D02*
X47383D01*
Y5234D01*
X47295Y5234D01*
X47207Y5234D01*
X47119Y5234D01*
Y5146D01*
X47032Y5146D01*
X46944Y5146D01*
X46856Y5146D01*
X46768Y5146D01*
X46680D01*
Y5058D01*
X46593D01*
Y4970D01*
X46329D01*
Y4883D01*
X46241D01*
Y4795D01*
X46329Y4795D01*
X46417Y4795D01*
X46505Y4795D01*
X46593Y4795D01*
Y4707D01*
X46680D01*
Y4619D01*
X46768D01*
Y4707D01*
X46856D01*
Y4619D01*
X47119D01*
Y4532D01*
X47207Y4532D01*
X47295Y4532D01*
X47383Y4532D01*
Y4444D01*
X47558D01*
Y3741D01*
X47383D01*
Y3917D01*
X47295Y3917D01*
X47295Y3829D01*
X47207D01*
Y3917D01*
X47119Y3917D01*
X46944D01*
X46944Y4005D01*
X46856Y4005D01*
X46768Y4005D01*
X46680D01*
Y4092D01*
X46505D01*
Y4180D01*
X46241D01*
Y4268D01*
X46154Y4268D01*
X46066Y4268D01*
X45978Y4268D01*
X45978Y3829D01*
X43432D01*
Y4444D01*
X45188D01*
X45276Y4444D01*
X45363Y4444D01*
X45890D01*
X45978Y4444D01*
X45978Y5322D01*
X46066D01*
Y5497D01*
X46241D01*
X46329Y5497D01*
Y5585D01*
X46593D01*
Y5673D01*
X46856D01*
Y5761D01*
X46944Y5760D01*
X47032Y5761D01*
X47119Y5760D01*
Y5848D01*
X47295D01*
Y5936D01*
X47558D01*
Y5322D01*
D02*
G37*
G36*
X45978Y2600D02*
X47558D01*
Y1898D01*
X47470D01*
X47383Y1898D01*
X47295Y1898D01*
X47207Y1898D01*
X47119Y1898D01*
X46593D01*
X46505Y1898D01*
X46417Y1898D01*
X46329Y1898D01*
X46241Y1898D01*
X45978D01*
Y2073D01*
X45890Y2073D01*
Y2161D01*
X45802D01*
X45802Y2249D01*
X45627D01*
Y2337D01*
X45539D01*
Y2424D01*
X45363D01*
Y2512D01*
X45188D01*
X45188Y2600D01*
X45100D01*
Y2688D01*
X44924D01*
Y2776D01*
X44837D01*
Y2863D01*
X44661D01*
X44661Y2951D01*
X44485D01*
Y3039D01*
X44398D01*
Y3127D01*
X44222D01*
X44222Y3302D01*
X44310Y3302D01*
X44573D01*
X44661Y3302D01*
X44749Y3302D01*
X44837D01*
X44924Y3302D01*
X45012Y3302D01*
X45100Y3302D01*
X45188Y3302D01*
X45276Y3302D01*
X45363Y3302D01*
X45715D01*
X45802Y3302D01*
X45890Y3302D01*
X45978Y3302D01*
Y2600D01*
D02*
G37*
G36*
X40886Y3653D02*
Y3127D01*
X40359D01*
X40359Y3653D01*
X40535D01*
X40623Y3653D01*
X40710Y3653D01*
X40798Y3653D01*
X40886Y3653D01*
D02*
G37*
G36*
X42993Y6726D02*
X42642D01*
X42554Y6726D01*
X42466Y6726D01*
X42378Y6726D01*
X42291Y6726D01*
X41939D01*
Y7780D01*
X42027Y7780D01*
X42115Y7780D01*
X42817D01*
X42905Y7780D01*
X42993Y7780D01*
Y6726D01*
D02*
G37*
G36*
X47646Y14891D02*
X47997D01*
Y14803D01*
X48085D01*
X48173Y14803D01*
X48261Y14803D01*
Y14716D01*
X48436D01*
Y14628D01*
X48612D01*
Y14452D01*
X48700Y14452D01*
X48787Y14452D01*
Y14364D01*
X49314D01*
Y14277D01*
X49665D01*
Y14189D01*
X49929D01*
X49929Y14101D01*
X50016D01*
X50104Y14101D01*
X50192Y14101D01*
Y14013D01*
X50368D01*
Y13925D01*
X50543D01*
Y13837D01*
X50719D01*
Y13750D01*
X50806D01*
Y13662D01*
X50894Y13662D01*
X50982Y13662D01*
Y13574D01*
X51070D01*
Y13486D01*
X51158D01*
Y13399D01*
X51245D01*
Y13311D01*
X51333Y13311D01*
Y13223D01*
X51421D01*
Y13135D01*
X51509D01*
X51509Y13047D01*
X51597D01*
Y12960D01*
X51684Y12960D01*
Y12784D01*
X51772Y12784D01*
Y12696D01*
X51860Y12696D01*
Y12521D01*
X51948D01*
Y12257D01*
X52036D01*
Y12082D01*
X52123D01*
X52123Y11643D01*
X52211D01*
Y10940D01*
X52299D01*
Y10501D01*
X52211Y10501D01*
Y9887D01*
X52123D01*
X52123Y9711D01*
X52036D01*
Y9623D01*
X51948D01*
Y9448D01*
X51860D01*
Y9360D01*
X51772Y9360D01*
X51772Y9184D01*
X51684D01*
Y9097D01*
X51597Y9097D01*
Y8921D01*
X51509D01*
Y8833D01*
X51421D01*
Y8658D01*
X51333D01*
Y8570D01*
X50894D01*
Y8394D01*
X50806Y8394D01*
X50719Y8394D01*
X50543D01*
Y8043D01*
X49402D01*
X49402Y8307D01*
X48612D01*
Y8570D01*
X47383D01*
Y8394D01*
X47470D01*
Y8307D01*
X47558D01*
X47558Y8131D01*
X47646D01*
Y7253D01*
X47558D01*
Y7078D01*
X47470D01*
Y6990D01*
X47383D01*
Y6814D01*
X47295D01*
Y6726D01*
X47207Y6726D01*
X47119Y6726D01*
Y6639D01*
X46944D01*
X46944Y6551D01*
X46593D01*
X46505Y6551D01*
X46417Y6551D01*
X46154D01*
Y6639D01*
X45978D01*
Y6551D01*
X45715D01*
X45627Y6551D01*
X45539Y6551D01*
Y5146D01*
X45451D01*
Y5058D01*
X44924D01*
X44924Y5146D01*
X44837D01*
Y6463D01*
X44398D01*
Y5058D01*
X43695D01*
X43695Y6551D01*
X43608D01*
Y6639D01*
X43432D01*
Y7078D01*
X43608D01*
Y6990D01*
X43783D01*
Y6902D01*
X43871Y6902D01*
X44047D01*
Y6990D01*
X44134D01*
Y7429D01*
X44047D01*
Y7516D01*
X43871D01*
Y7604D01*
X43783Y7604D01*
X43695D01*
X43695Y7780D01*
X43608D01*
Y8482D01*
X43695D01*
X43695Y8658D01*
X44134D01*
Y8570D01*
X44222D01*
X44222Y8394D01*
X44310D01*
Y8043D01*
X44398D01*
Y7692D01*
X44485D01*
Y7516D01*
X44573D01*
Y7341D01*
X44661D01*
Y7165D01*
X44749D01*
Y7078D01*
X44924D01*
X44924Y6990D01*
X45539D01*
Y7078D01*
X45715D01*
Y7165D01*
X45802D01*
X45802Y7253D01*
X45890D01*
Y7341D01*
X46066D01*
Y7253D01*
X46154Y7253D01*
X46241Y7253D01*
Y7165D01*
X46417D01*
Y8570D01*
X46154D01*
Y8131D01*
X46066Y8131D01*
X45978Y8131D01*
Y8745D01*
X45890D01*
Y8921D01*
X45802D01*
Y9009D01*
X45715D01*
Y9097D01*
X45539D01*
Y9184D01*
X45188D01*
X45188Y8570D01*
X45451D01*
Y8482D01*
X45539Y8482D01*
Y8394D01*
X45451D01*
X45451Y8307D01*
X45539D01*
X45627Y8307D01*
Y7780D01*
X45539D01*
Y7692D01*
X45451D01*
X45451Y7604D01*
X45100D01*
Y7692D01*
X45012D01*
Y7955D01*
X44924D01*
X44924Y8307D01*
X44837D01*
Y8658D01*
X44749D01*
Y8833D01*
X44661Y8833D01*
Y9097D01*
X44573Y9097D01*
X44485D01*
Y9184D01*
X44310D01*
X44310Y9272D01*
X43871D01*
X43783Y9272D01*
X43695Y9272D01*
X43695Y9184D01*
X43520D01*
Y9097D01*
X43432D01*
Y8658D01*
X42642D01*
Y8745D01*
X42554Y8745D01*
Y9009D01*
X42115D01*
Y9097D01*
X42027Y9097D01*
X41939Y9097D01*
X41852Y9097D01*
X41764Y9097D01*
X41676D01*
X41588Y9097D01*
X41500Y9097D01*
X41413D01*
Y9009D01*
X41325D01*
Y8921D01*
X41237D01*
Y9009D01*
X40535D01*
Y9360D01*
X40359D01*
X40359Y9448D01*
X40096D01*
Y9623D01*
X40008D01*
Y9536D01*
X39920D01*
Y9623D01*
X39832Y9623D01*
X39657D01*
Y9711D01*
X39481D01*
X39481Y10677D01*
X39569D01*
Y11292D01*
X39657D01*
Y11731D01*
X39745D01*
Y12082D01*
X39832Y12082D01*
Y12345D01*
X39920Y12345D01*
Y12608D01*
X40008D01*
Y12784D01*
X40096D01*
X40096Y13047D01*
X40184D01*
Y13223D01*
X40271Y13223D01*
Y13399D01*
X40359D01*
X40359Y13574D01*
X40447D01*
Y13662D01*
X40535D01*
Y13837D01*
X40623D01*
Y13925D01*
X44924D01*
Y14013D01*
X45276D01*
Y14101D01*
X45363Y14101D01*
Y14277D01*
X45451D01*
Y14364D01*
X45627D01*
Y14452D01*
X45715Y14452D01*
Y14540D01*
X45890D01*
Y14628D01*
X46066D01*
Y14716D01*
X46241D01*
Y14803D01*
X46505D01*
Y14891D01*
X46944D01*
Y14979D01*
X47646D01*
Y14891D01*
D02*
G37*
G36*
X51421Y6814D02*
X51333D01*
Y6726D01*
X51245Y6726D01*
X50631D01*
X50631Y6814D01*
X50543D01*
Y7516D01*
X51421D01*
Y6814D01*
D02*
G37*
G36*
X49314Y7253D02*
X49490D01*
Y7165D01*
X49577D01*
Y6199D01*
X49490D01*
Y6112D01*
X48524D01*
Y6199D01*
X48436D01*
Y7165D01*
X48524D01*
Y7253D01*
X48612Y7253D01*
X48700Y7253D01*
X48963D01*
X49051Y7253D01*
X49139Y7253D01*
X49226Y7253D01*
X49314Y7253D01*
D02*
G37*
G36*
X42642Y2249D02*
X42115D01*
X42027Y2249D01*
X41939Y2249D01*
Y2337D01*
X41852D01*
Y3039D01*
X42291D01*
X42378Y3039D01*
X42466Y3039D01*
X42554Y3039D01*
X42642Y3039D01*
Y2249D01*
D02*
G37*
G36*
X41588Y669D02*
X41500Y668D01*
X41413Y669D01*
X40886D01*
X40798Y668D01*
X40710Y669D01*
X40623Y668D01*
Y1546D01*
X40710Y1546D01*
Y1634D01*
X41588D01*
Y669D01*
D02*
G37*
G36*
X47558D02*
X47734D01*
X47822Y668D01*
X47909Y669D01*
X48173D01*
Y54D01*
X48085Y54D01*
X47997D01*
X47909Y54D01*
X47822Y54D01*
X47734Y54D01*
X47646Y54D01*
X47558D01*
Y-385D01*
X47207D01*
Y-34D01*
X47119Y-34D01*
Y54D01*
X47032Y54D01*
X46944Y54D01*
X46856Y54D01*
X46768Y54D01*
X46241D01*
X46154Y54D01*
X46066Y54D01*
X45978Y54D01*
Y-297D01*
X45890D01*
Y-385D01*
X43520D01*
Y-297D01*
X43432Y-297D01*
Y230D01*
X45978D01*
Y669D01*
X46241D01*
X46329Y668D01*
X46417Y669D01*
X46505Y668D01*
X46593Y669D01*
X46680Y668D01*
X46768Y669D01*
X46856D01*
X46944Y668D01*
X47032Y669D01*
X47119D01*
Y756D01*
X47207D01*
Y1108D01*
X47558D01*
X47558Y669D01*
D02*
G37*
G36*
X40886Y-1175D02*
X41413D01*
Y-2492D01*
X40184D01*
Y-1175D01*
X40271Y-1175D01*
X40535D01*
X40623Y-1175D01*
X40710Y-1175D01*
X40798Y-1175D01*
X40886Y-1175D01*
D02*
G37*
G36*
X50894Y-209D02*
X49665D01*
Y1020D01*
X50894D01*
Y-209D01*
D02*
G37*
G36*
X43608Y2951D02*
X43695D01*
Y2863D01*
X43871D01*
Y2688D01*
X44134D01*
Y2600D01*
X44222D01*
Y2512D01*
X44398D01*
Y2424D01*
X44573D01*
X44573Y2337D01*
X44661D01*
X44661Y2249D01*
X44837D01*
Y2161D01*
X44924D01*
X44924Y2073D01*
X45012D01*
Y1986D01*
X43432D01*
Y3039D01*
X43520Y3039D01*
X43608D01*
Y2951D01*
D02*
G37*
G36*
X51509Y4532D02*
X51597Y4532D01*
Y2951D01*
X51509D01*
Y2863D01*
X49929D01*
X49929Y2951D01*
X49841D01*
Y4532D01*
X49929D01*
Y4619D01*
X51509D01*
Y4532D01*
D02*
G37*
G36*
X48348Y1898D02*
X47909D01*
Y2600D01*
X48348D01*
Y1898D01*
D02*
G37*
G36*
X45978Y844D02*
X45715D01*
X45627Y844D01*
X45539Y844D01*
X44837D01*
X44749Y844D01*
X44661Y844D01*
X43432D01*
X43432Y1459D01*
X45978D01*
Y844D01*
D02*
G37*
%LPC*%
G36*
X47470Y14452D02*
X47383D01*
X47295D01*
X47207D01*
X47119D01*
Y14364D01*
X47032D01*
X46944D01*
X46680D01*
Y14277D01*
X46417D01*
Y14189D01*
X46241D01*
X46154D01*
Y14101D01*
X46066D01*
Y14013D01*
X45890D01*
Y13925D01*
X45802D01*
Y13837D01*
X45715D01*
Y13662D01*
X45627D01*
Y13574D01*
X45539D01*
Y13486D01*
X45100D01*
Y13399D01*
X42730D01*
Y13311D01*
X42378D01*
X42291D01*
X42203D01*
X41500D01*
X41413D01*
X41325D01*
X41061D01*
Y13135D01*
X40974D01*
Y12960D01*
X40886D01*
Y12784D01*
X40798D01*
Y12608D01*
X40710D01*
Y12433D01*
X40623D01*
Y12257D01*
X40535D01*
Y11994D01*
X40447D01*
Y11818D01*
X40359D01*
Y11555D01*
X40271D01*
Y11204D01*
X40184D01*
Y11028D01*
X40271D01*
Y10853D01*
X40535D01*
Y10765D01*
X40623D01*
Y10414D01*
X40710D01*
Y10326D01*
X41676D01*
Y10414D01*
X41764D01*
Y10940D01*
X41852D01*
Y11028D01*
X42115D01*
Y11116D01*
X42291D01*
Y11292D01*
X42378D01*
Y11379D01*
X42466D01*
Y11555D01*
X42554D01*
Y11643D01*
X42642D01*
Y11731D01*
X42730D01*
Y11906D01*
X42817D01*
Y11994D01*
X42905D01*
Y12082D01*
X43081D01*
Y12169D01*
X43169D01*
Y12257D01*
X43256D01*
Y12345D01*
X43432D01*
Y12433D01*
X43608D01*
Y12345D01*
X43520D01*
Y12169D01*
X43432D01*
Y11994D01*
X43344D01*
Y11818D01*
X43256D01*
Y11555D01*
X43169D01*
Y11379D01*
X43081D01*
Y11204D01*
X42993D01*
Y10940D01*
X42905D01*
Y10677D01*
X42817D01*
Y10150D01*
X42905D01*
X43081D01*
Y9799D01*
X43783D01*
Y10062D01*
X43871D01*
Y10150D01*
X44134D01*
X44222D01*
Y10853D01*
X44310D01*
Y11028D01*
X44398D01*
Y11116D01*
X44573D01*
Y10150D01*
X44661D01*
X44749D01*
X44837D01*
X45012D01*
X45100D01*
X45188D01*
X45363D01*
Y10589D01*
X45451D01*
Y10677D01*
X45539D01*
Y10589D01*
X45627D01*
Y10326D01*
X45715D01*
Y10150D01*
X46066D01*
Y10062D01*
X46154D01*
Y9711D01*
X46241D01*
Y9623D01*
X46944D01*
X47032D01*
X47119D01*
Y10062D01*
X47207D01*
Y10150D01*
X47470D01*
X47558D01*
Y10414D01*
X47646D01*
Y10501D01*
X48348D01*
X48436D01*
X48524D01*
X48963D01*
Y10150D01*
X49051D01*
X49226D01*
X49314D01*
X49402D01*
X49665D01*
X49753D01*
X49841D01*
X49929D01*
X50016D01*
Y9360D01*
X51158D01*
Y9623D01*
X51245D01*
X51333D01*
X51421D01*
Y9975D01*
X51509D01*
Y10062D01*
X51772D01*
Y10853D01*
X51684D01*
Y11555D01*
X51597D01*
Y11906D01*
X51509D01*
Y12169D01*
X51421D01*
Y12345D01*
X51333D01*
Y12521D01*
X51245D01*
Y12608D01*
X51158D01*
Y12784D01*
X51070D01*
Y12872D01*
X50982D01*
Y12960D01*
X50894D01*
Y13047D01*
X50806D01*
Y13135D01*
X50631D01*
Y13223D01*
X50543D01*
Y13311D01*
X50368D01*
Y13399D01*
X50192D01*
Y13486D01*
X50016D01*
Y13662D01*
X49929D01*
Y13574D01*
X49841D01*
Y13662D01*
X49577D01*
Y13750D01*
X49139D01*
Y13837D01*
X48612D01*
Y13925D01*
X48348D01*
Y14101D01*
X48261D01*
Y14189D01*
X48085D01*
Y14277D01*
X47909D01*
Y14364D01*
X47822D01*
X47646D01*
X47558D01*
X47470D01*
Y14452D01*
D02*
G37*
G36*
X47032Y8131D02*
X46768D01*
Y7253D01*
X46856D01*
Y7165D01*
X46944D01*
Y7253D01*
X47032D01*
Y7341D01*
X47119D01*
Y7429D01*
X47207D01*
Y7955D01*
X47119D01*
Y8043D01*
X47032D01*
Y8131D01*
D02*
G37*
%LPD*%
G36*
X47646Y13925D02*
X47207D01*
Y13837D01*
X46944D01*
Y13925D01*
X46856D01*
Y13837D01*
X46593D01*
Y13925D01*
X46680D01*
Y14013D01*
X46944D01*
Y14101D01*
X47646D01*
Y13925D01*
D02*
G37*
G36*
X47997Y12082D02*
X48173D01*
X48173Y11994D01*
X48261D01*
Y11731D01*
X48348D01*
Y11204D01*
X48261D01*
Y10940D01*
X48173D01*
Y10765D01*
X47822D01*
Y11028D01*
X47734D01*
X47734Y11818D01*
X47822D01*
Y11994D01*
X47909D01*
Y12082D01*
X47997Y12082D01*
D02*
G37*
D22*
X-52834Y-4500D02*
X-54500Y-3667D01*
X-52834Y-2834D01*
X-52417Y-2001D02*
X-52001Y-1584D01*
Y-751D01*
X-52417Y-335D01*
X-54084D01*
X-54500Y-751D01*
Y-1584D01*
X-54084Y-2001D01*
X-52417D01*
X-54917Y498D02*
Y2165D01*
X-54500Y2998D02*
Y3831D01*
Y3414D01*
X-52001D01*
X-52417Y2998D01*
X-43501Y-7600D02*
X-45500D01*
X-44500D01*
X-44001Y-7100D01*
X-43501Y-6600D01*
Y-6101D01*
X-45500Y-3101D02*
Y-4101D01*
X-45000Y-4601D01*
X-44001D01*
X-43501Y-4101D01*
Y-3101D01*
X-44001Y-2602D01*
X-44500D01*
Y-4601D01*
X-43501Y397D02*
Y-1102D01*
X-44001Y-1602D01*
X-45000D01*
X-45500Y-1102D01*
Y397D01*
X-43501Y1897D02*
Y2897D01*
X-44001Y3396D01*
X-45500D01*
Y1897D01*
X-45000Y1397D01*
X-44500Y1897D01*
Y3396D01*
X-45500Y4396D02*
Y5396D01*
Y4896D01*
X-42501D01*
Y4396D01*
X-45500Y6895D02*
Y7895D01*
Y7395D01*
X-42501D01*
Y6895D01*
X-51000Y-7500D02*
Y-5501D01*
X-47501Y-4501D02*
X-50500D01*
Y-3001D01*
X-50000Y-2502D01*
X-49500D01*
X-49000Y-3001D01*
Y-4501D01*
Y-3001D01*
X-48501Y-2502D01*
X-48001D01*
X-47501Y-3001D01*
Y-4501D01*
Y-1502D02*
X-50500D01*
Y497D01*
X-47501Y3496D02*
Y1497D01*
X-50500D01*
Y3496D01*
X-49000Y1497D02*
Y2497D01*
X-50500Y4496D02*
X-48501D01*
Y4996D01*
X-49000Y5496D01*
X-50500D01*
X-49000D01*
X-48501Y5996D01*
X-49000Y6496D01*
X-50500D01*
M02*
