G04 Layer_Color=65535*
%FSLAX25Y25*%
%MOIN*%
G70*
G01*
G75*
%ADD22C,0.00600*%
%ADD30C,0.00500*%
G36*
X53205Y15676D02*
X49268Y19613D01*
X53205D01*
Y15676D01*
D02*
G37*
D22*
X18647Y-27819D02*
X17940Y-27819D01*
X17233Y-28526D01*
Y-29233D01*
X17586Y-29586D01*
X18293Y-29586D01*
X19000Y-28879D01*
X19707Y-28879D01*
X20060Y-29233D01*
X20060Y-29940D01*
X19353Y-30647D01*
X18647D01*
X19000Y-26759D02*
X21121Y-28879D01*
Y-27466D01*
X22534Y-27466D01*
X20414Y-25345D01*
X21121Y-24638D02*
X23241Y-26759D01*
X24302Y-25698D01*
X24302Y-24992D01*
X22888Y-23578D01*
X22181D01*
X21121Y-24638D01*
X-41000Y-6500D02*
X-38001D01*
Y-7999D01*
X-38501Y-8499D01*
X-39500D01*
X-40000Y-7999D01*
Y-6500D01*
Y-7500D02*
X-41000Y-8499D01*
Y-10999D02*
X-38001D01*
X-39500Y-9499D01*
Y-11498D01*
X-38501Y1D02*
X-38001Y501D01*
Y1500D01*
X-38501Y2000D01*
X-40500D01*
X-41000Y1500D01*
Y501D01*
X-40500Y1D01*
X-38001Y-2998D02*
X-38501Y-1999D01*
X-39500Y-999D01*
X-40500D01*
X-41000Y-1499D01*
Y-2499D01*
X-40500Y-2998D01*
X-40000D01*
X-39500Y-2499D01*
Y-999D01*
X-34001Y9501D02*
X-33501Y10001D01*
Y11000D01*
X-34001Y11500D01*
X-36000D01*
X-36500Y11000D01*
Y10001D01*
X-36000Y9501D01*
X-36500Y7001D02*
X-33501D01*
X-35001Y8501D01*
Y6502D01*
X8500Y-21501D02*
Y-24500D01*
X10000D01*
X10499Y-24000D01*
Y-23500D01*
X10000Y-23000D01*
X8500D01*
X10000D01*
X10499Y-22501D01*
Y-22001D01*
X10000Y-21501D01*
X8500D01*
X11499D02*
Y-24500D01*
X13498D01*
X16497Y-21501D02*
X14498D01*
Y-24500D01*
X16497D01*
X14498Y-23000D02*
X15498D01*
X-22601Y27499D02*
X-23100Y27999D01*
X-24100D01*
X-24600Y27499D01*
Y25500D01*
X-24100Y25000D01*
X-23100D01*
X-22601Y25500D01*
X-21601Y25000D02*
X-20601D01*
X-21101D01*
Y27999D01*
X-21601Y27499D01*
X-19201Y-26199D02*
X-18701Y-25699D01*
Y-24700D01*
X-19201Y-24200D01*
X-21200D01*
X-21700Y-24700D01*
Y-25699D01*
X-21200Y-26199D01*
X-18701Y-29198D02*
Y-27199D01*
X-20200D01*
X-19701Y-28199D01*
Y-28699D01*
X-20200Y-29198D01*
X-21200D01*
X-21700Y-28699D01*
Y-27699D01*
X-21200Y-27199D01*
X-17200Y-24200D02*
X-14201D01*
Y-25699D01*
X-14701Y-26199D01*
X-15700D01*
X-16200Y-25699D01*
Y-24200D01*
Y-25200D02*
X-17200Y-26199D01*
X-14701Y-27199D02*
X-14201Y-27699D01*
Y-28699D01*
X-14701Y-29198D01*
X-15201D01*
X-15700Y-28699D01*
Y-28199D01*
Y-28699D01*
X-16200Y-29198D01*
X-16700D01*
X-17200Y-28699D01*
Y-27699D01*
X-16700Y-27199D01*
X-17000Y31000D02*
Y33999D01*
X-15500D01*
X-15001Y33499D01*
Y32500D01*
X-15500Y32000D01*
X-17000D01*
X-16000D02*
X-15001Y31000D01*
X-14001D02*
X-13001D01*
X-13501D01*
Y33999D01*
X-14001Y33499D01*
X-17001Y19001D02*
X-16501Y19500D01*
Y20500D01*
X-17001Y21000D01*
X-17501D01*
X-18000Y20500D01*
Y19500D01*
X-18500Y19001D01*
X-19000D01*
X-19500Y19500D01*
Y20500D01*
X-19000Y21000D01*
X-16501Y18001D02*
X-19500D01*
X-18500Y17001D01*
X-19500Y16002D01*
X-16501D01*
X-19500Y15002D02*
Y14002D01*
Y14502D01*
X-16501D01*
X-17001Y15002D01*
X-51001Y7500D02*
X-53500D01*
X-54000Y7000D01*
Y6001D01*
X-53500Y5501D01*
X-51001D01*
X-54000Y4501D02*
Y3501D01*
Y4001D01*
X-51001D01*
X-51501Y4501D01*
X-12500Y-26500D02*
X-9501D01*
Y-27999D01*
X-10001Y-28499D01*
X-11000D01*
X-11500Y-27999D01*
Y-26500D01*
Y-27500D02*
X-12500Y-28499D01*
Y-31498D02*
Y-29499D01*
X-10501Y-31498D01*
X-10001D01*
X-9501Y-30999D01*
Y-29999D01*
X-10001Y-29499D01*
X6999Y-26500D02*
X4000D01*
Y-27999D01*
X4500Y-28499D01*
X6499D01*
X6999Y-27999D01*
Y-26500D01*
X4000Y-31498D02*
Y-29499D01*
X5999Y-31498D01*
X6499D01*
X6999Y-30999D01*
Y-29999D01*
X6499Y-29499D01*
X-52501Y-1899D02*
X-52001Y-1400D01*
Y-400D01*
X-52501Y100D01*
X-53001D01*
X-53500Y-400D01*
Y-1400D01*
X-54000Y-1899D01*
X-54500D01*
X-55000Y-1400D01*
Y-400D01*
X-54500Y100D01*
X-52001Y-2899D02*
X-55000D01*
X-54000Y-3899D01*
X-55000Y-4898D01*
X-52001D01*
X-55000Y-7897D02*
Y-5898D01*
X-53001Y-7897D01*
X-52501D01*
X-52001Y-7398D01*
Y-6398D01*
X-52501Y-5898D01*
D30*
X-2602Y19712D02*
X53303D01*
X-2602Y-19658D02*
Y19712D01*
X49260Y19582D02*
X53197Y15645D01*
X53303Y-19658D02*
Y19712D01*
X-2602Y-19658D02*
X53303D01*
X25399Y31300D02*
X22900Y29634D01*
X25399D02*
X22900Y31300D01*
X25399Y28801D02*
Y27135D01*
Y27968D01*
X22900D01*
Y26302D02*
X24566D01*
X25399Y25469D01*
X24566Y24635D01*
X22900D01*
X24150D01*
Y26302D01*
X25399Y23802D02*
X22900D01*
Y22136D01*
X13783Y38034D02*
X14199Y38450D01*
Y39283D01*
X13783Y39700D01*
X12116D01*
X11700Y39283D01*
Y38450D01*
X12116Y38034D01*
X13783Y37201D02*
X14199Y36784D01*
Y35951D01*
X13783Y35535D01*
X13366D01*
X12950Y35951D01*
Y36368D01*
Y35951D01*
X12533Y35535D01*
X12116D01*
X11700Y35951D01*
Y36784D01*
X12116Y37201D01*
X17783Y38034D02*
X18199Y38450D01*
Y39283D01*
X17783Y39700D01*
X16116D01*
X15700Y39283D01*
Y38450D01*
X16116Y38034D01*
X15700Y35535D02*
Y37201D01*
X17366Y35535D01*
X17783D01*
X18199Y35951D01*
Y36784D01*
X17783Y37201D01*
X999Y39000D02*
X-1500D01*
Y37750D01*
X-1084Y37334D01*
X583D01*
X999Y37750D01*
Y39000D01*
X-1500Y36501D02*
Y35668D01*
Y36084D01*
X999D01*
X583Y36501D01*
M02*
