G04 Layer_Physical_Order=2*
G04 Layer_Color=16711680*
%FSLAX25Y25*%
%MOIN*%
G70*
G01*
G75*
%ADD24C,0.03961*%
G04:AMPARAMS|DCode=25|XSize=39.59mil|YSize=39.61mil|CornerRadius=0mil|HoleSize=0mil|Usage=FLASHONLY|Rotation=45.000|XOffset=0mil|YOffset=0mil|HoleType=Round|Shape=Rectangle|*
%AMROTATEDRECTD25*
4,1,4,0.00001,-0.02800,-0.02800,0.00001,-0.00001,0.02800,0.02800,-0.00001,0.00001,-0.02800,0.0*
%
%ADD25ROTATEDRECTD25*%

%ADD26R,0.03961X0.03959*%
%ADD27C,0.09055*%
%ADD28C,0.02700*%
%ADD29C,0.70079*%
G36*
X2729Y44971D02*
X2248Y44602D01*
X1427Y43531D01*
X910Y42283D01*
X734Y40945D01*
X910Y39606D01*
X1427Y38359D01*
X2248Y37288D01*
X3320Y36466D01*
X3444Y36414D01*
X3333Y35919D01*
X500Y36058D01*
Y0D01*
Y-36058D01*
X3333Y-35919D01*
X3444Y-36414D01*
X3320Y-36466D01*
X2248Y-37288D01*
X1427Y-38359D01*
X910Y-39606D01*
X734Y-40945D01*
X910Y-42283D01*
X1427Y-43531D01*
X2248Y-44602D01*
X2729Y-44971D01*
X2559Y-45471D01*
X-2953D01*
X-3123Y-44971D01*
X-2642Y-44602D01*
X-1820Y-43531D01*
X-1304Y-42283D01*
X-1127Y-40945D01*
X-1304Y-39606D01*
X-1820Y-38359D01*
X-2642Y-37288D01*
X-3713Y-36466D01*
X-4005Y-36345D01*
X-3871Y-35860D01*
X-3537Y-35909D01*
X-500Y-36058D01*
Y-500D01*
X-36058D01*
X-35909Y-3537D01*
X-35390Y-7039D01*
X-34529Y-10474D01*
X-33336Y-13808D01*
X-31822Y-17009D01*
X-30002Y-20046D01*
X-27892Y-22891D01*
X-25514Y-25514D01*
X-22891Y-27892D01*
X-20046Y-30002D01*
X-17009Y-31822D01*
X-13808Y-33336D01*
X-10474Y-34529D01*
X-7039Y-35390D01*
X-7118Y-35881D01*
X-7638Y-35949D01*
X-8885Y-36466D01*
X-9956Y-37288D01*
X-10778Y-38359D01*
X-11295Y-39606D01*
X-11471Y-40945D01*
X-11363Y-41767D01*
X-11836Y-42001D01*
X-44919Y-8919D01*
X-45415Y-8587D01*
X-46000Y-8471D01*
X-57842D01*
X-58512Y-8337D01*
X-59144Y-8076D01*
X-59712Y-7696D01*
X-60196Y-7212D01*
X-60576Y-6644D01*
X-60637Y-6495D01*
X-60360Y-6080D01*
X-56235D01*
Y-920D01*
X-60971D01*
Y767D01*
X-60471Y1014D01*
X-60318Y897D01*
X-59593Y596D01*
X-59315Y560D01*
Y3500D01*
Y6440D01*
X-59593Y6404D01*
X-59909Y6273D01*
X-60472Y6561D01*
X-60516Y6734D01*
X-60196Y7212D01*
X-59712Y7696D01*
X-59144Y8076D01*
X-58512Y8337D01*
X-57842Y8471D01*
X-46000D01*
X-45415Y8587D01*
X-44919Y8919D01*
X-11836Y42001D01*
X-11363Y41767D01*
X-11471Y40945D01*
X-11295Y39606D01*
X-10778Y38359D01*
X-9956Y37288D01*
X-8885Y36466D01*
X-7638Y35949D01*
X-7118Y35881D01*
X-7039Y35390D01*
X-10474Y34529D01*
X-13808Y33336D01*
X-17009Y31822D01*
X-20046Y30002D01*
X-22891Y27892D01*
X-25514Y25514D01*
X-27892Y22891D01*
X-30002Y20046D01*
X-31822Y17009D01*
X-33336Y13808D01*
X-34529Y10474D01*
X-35390Y7039D01*
X-35909Y3537D01*
X-36058Y500D01*
X-500D01*
Y36058D01*
X-3537Y35909D01*
X-3871Y35860D01*
X-4005Y36345D01*
X-3713Y36466D01*
X-2642Y37288D01*
X-1820Y38359D01*
X-1304Y39606D01*
X-1127Y40945D01*
X-1304Y42283D01*
X-1820Y43531D01*
X-2642Y44602D01*
X-3123Y44971D01*
X-2953Y45471D01*
X2559D01*
X2729Y44971D01*
D02*
G37*
G36*
X35587Y-8310D02*
Y-19264D01*
X35587Y-19264D01*
X35587D01*
X35181Y-19554D01*
X35130Y-19588D01*
X34688Y-20030D01*
X34357Y-20526D01*
X34118Y-21103D01*
X34074Y-21323D01*
X34009Y-21538D01*
X33978Y-21850D01*
X33985Y-21926D01*
X33971Y-22000D01*
Y-24366D01*
X33097Y-25240D01*
X32569Y-25061D01*
X32510Y-24615D01*
X32210Y-23890D01*
X32039Y-23668D01*
X29960Y-25747D01*
X29253Y-25040D01*
X31332Y-22961D01*
X31110Y-22790D01*
X30385Y-22490D01*
X29607Y-22387D01*
X28829Y-22490D01*
X28805Y-22500D01*
X28486Y-22091D01*
X30002Y-20046D01*
X31822Y-17009D01*
X33336Y-13808D01*
X34529Y-10474D01*
X35087Y-8249D01*
X35587Y-8310D01*
D02*
G37*
%LPC*%
G36*
X-58315Y6440D02*
Y4000D01*
X-55875D01*
X-55911Y4278D01*
X-56212Y5003D01*
X-56689Y5626D01*
X-57312Y6103D01*
X-58037Y6404D01*
X-58315Y6440D01*
D02*
G37*
G36*
X-55875Y3000D02*
X-58315D01*
Y560D01*
X-58037Y596D01*
X-57312Y897D01*
X-56689Y1374D01*
X-56212Y1997D01*
X-55911Y2722D01*
X-55875Y3000D01*
D02*
G37*
%LPD*%
D24*
X26071Y-28929D02*
D03*
X29607Y-25393D02*
D03*
X22535Y-32465D02*
D03*
X-58815Y3500D02*
D03*
D25*
X19000Y-36000D02*
D03*
D26*
X-58815Y-3500D02*
D03*
D27*
X-6299Y40945D02*
D03*
X5906D02*
D03*
X-6299Y-40945D02*
D03*
X5906D02*
D03*
D28*
X-9500Y-9500D02*
D03*
X-20200D02*
D03*
X10000Y7500D02*
D03*
X28000D02*
D03*
X-18000Y26500D02*
D03*
X-20063Y1500D02*
D03*
D29*
X0Y0D02*
D03*
M02*
