G04 Layer_Physical_Order=2*
G04 Layer_Color=16711680*
%FSLAX25Y25*%
%MOIN*%
G70*
G01*
G75*
%ADD28C,0.00600*%
%ADD37C,0.09055*%
%ADD38C,0.03961*%
G04:AMPARAMS|DCode=39|XSize=39.59mil|YSize=39.61mil|CornerRadius=0mil|HoleSize=0mil|Usage=FLASHONLY|Rotation=45.000|XOffset=0mil|YOffset=0mil|HoleType=Round|Shape=Rectangle|*
%AMROTATEDRECTD39*
4,1,4,0.00001,-0.02800,-0.02800,0.00001,-0.00001,0.02800,0.02800,-0.00001,0.00001,-0.02800,0.0*
%
%ADD39ROTATEDRECTD39*%

%ADD40R,0.03961X0.03959*%
%ADD41C,0.02700*%
%ADD42C,0.70079*%
G36*
X23419Y34919D02*
X34419Y23919D01*
X34915Y23587D01*
X35500Y23471D01*
Y20500D01*
X38900D01*
Y-20400D01*
X35600D01*
X35500Y-20500D01*
Y-23471D01*
X34915Y-23587D01*
X34419Y-23919D01*
X29008Y-29329D01*
X28631Y-28999D01*
X28710Y-28896D01*
X29010Y-28171D01*
X29113Y-27393D01*
X29010Y-26615D01*
X28710Y-25890D01*
X28539Y-25668D01*
X26460Y-27747D01*
X25753Y-27040D01*
X27832Y-24961D01*
X27610Y-24790D01*
X27054Y-24560D01*
X26862Y-24028D01*
X27892Y-22891D01*
X30002Y-20046D01*
X31822Y-17009D01*
X33336Y-13808D01*
X34500Y-10556D01*
Y-8000D01*
X35000D01*
Y-7500D01*
X37297D01*
X37214Y-7083D01*
X36694Y-6306D01*
X36312Y-6051D01*
Y-5449D01*
X36694Y-5194D01*
X37214Y-4417D01*
X37297Y-4000D01*
X35000D01*
Y-3000D01*
X37297D01*
X37214Y-2583D01*
X36694Y-1806D01*
X36016Y-1353D01*
X36058Y-500D01*
X500D01*
Y-36058D01*
X3333Y-35919D01*
X3444Y-36414D01*
X3320Y-36466D01*
X2248Y-37288D01*
X1427Y-38359D01*
X910Y-39606D01*
X734Y-40945D01*
X910Y-42283D01*
X1427Y-43531D01*
X2248Y-44602D01*
X2729Y-44971D01*
X2559Y-45471D01*
X-2953D01*
X-3123Y-44971D01*
X-2642Y-44602D01*
X-1820Y-43531D01*
X-1304Y-42283D01*
X-1127Y-40945D01*
X-1304Y-39606D01*
X-1820Y-38359D01*
X-2642Y-37288D01*
X-3713Y-36466D01*
X-4005Y-36345D01*
X-3871Y-35860D01*
X-3537Y-35909D01*
X-500Y-36058D01*
Y-500D01*
X-36058D01*
X-35909Y-3537D01*
X-35390Y-7039D01*
X-34529Y-10474D01*
X-33336Y-13808D01*
X-31822Y-17009D01*
X-30002Y-20046D01*
X-27892Y-22891D01*
X-25514Y-25514D01*
X-22891Y-27892D01*
X-20046Y-30002D01*
X-17009Y-31822D01*
X-13808Y-33336D01*
X-10474Y-34529D01*
X-7039Y-35390D01*
X-7118Y-35881D01*
X-7638Y-35949D01*
X-8885Y-36466D01*
X-9956Y-37288D01*
X-10778Y-38359D01*
X-11295Y-39606D01*
X-11471Y-40945D01*
X-11363Y-41767D01*
X-11836Y-42001D01*
X-44919Y-8919D01*
X-45415Y-8587D01*
X-46000Y-8471D01*
X-57842D01*
X-58512Y-8337D01*
X-59144Y-8076D01*
X-59712Y-7696D01*
X-60196Y-7212D01*
X-60576Y-6644D01*
X-60637Y-6495D01*
X-60360Y-6080D01*
X-56235D01*
Y-920D01*
X-60971D01*
Y767D01*
X-60471Y1014D01*
X-60318Y897D01*
X-59593Y596D01*
X-59315Y560D01*
Y3500D01*
Y6440D01*
X-59593Y6404D01*
X-59909Y6273D01*
X-60472Y6561D01*
X-60516Y6734D01*
X-60196Y7212D01*
X-59712Y7696D01*
X-59144Y8076D01*
X-58512Y8337D01*
X-57842Y8471D01*
X-46000D01*
X-45415Y8587D01*
X-44919Y8919D01*
X-11836Y42001D01*
X-11363Y41767D01*
X-11471Y40945D01*
X-11295Y39606D01*
X-10778Y38359D01*
X-9956Y37288D01*
X-8885Y36466D01*
X-7638Y35949D01*
X-7118Y35881D01*
X-7039Y35390D01*
X-10474Y34529D01*
X-13808Y33336D01*
X-17009Y31822D01*
X-20046Y30002D01*
X-22891Y27892D01*
X-25514Y25514D01*
X-27892Y22891D01*
X-30002Y20046D01*
X-31822Y17009D01*
X-33336Y13808D01*
X-34529Y10474D01*
X-35390Y7039D01*
X-35909Y3537D01*
X-36058Y500D01*
X0D01*
X36058D01*
X35930Y3119D01*
X36000Y3604D01*
X36917Y3786D01*
X37694Y4306D01*
X38214Y5083D01*
X38297Y5500D01*
X36000D01*
Y6000D01*
X35500D01*
Y8297D01*
X35095Y8216D01*
X34792Y9425D01*
X35224Y9758D01*
X35500Y9703D01*
Y12000D01*
X36000D01*
Y12500D01*
X38297D01*
X38214Y12917D01*
X37694Y13694D01*
X36917Y14214D01*
X36161Y14364D01*
X36054Y14878D01*
X36694Y15306D01*
X37214Y16083D01*
X37297Y16500D01*
X32703D01*
X32767Y16182D01*
X32288Y16024D01*
X31822Y17009D01*
X30002Y20046D01*
X27892Y22891D01*
X25514Y25514D01*
X22891Y27892D01*
X22464Y28209D01*
X22714Y28583D01*
X22797Y29000D01*
X20500D01*
Y29500D01*
X20000D01*
Y31797D01*
X19583Y31714D01*
X18806Y31194D01*
X18592Y30874D01*
X17009Y31822D01*
X13808Y33336D01*
X10474Y34529D01*
X7039Y35390D01*
X6938Y35405D01*
X6942Y35910D01*
X7244Y35949D01*
X8491Y36466D01*
X9562Y37288D01*
X10384Y38359D01*
X10901Y39606D01*
X11077Y40945D01*
X10901Y42283D01*
X10384Y43531D01*
X9562Y44602D01*
X9082Y44971D01*
X9252Y45471D01*
X12867D01*
X23419Y34919D01*
D02*
G37*
G36*
X2729Y44971D02*
X2248Y44602D01*
X1427Y43531D01*
X910Y42283D01*
X734Y40945D01*
X910Y39606D01*
X1427Y38359D01*
X2248Y37288D01*
X3320Y36466D01*
X3444Y36414D01*
X3333Y35919D01*
X2174Y35976D01*
X1694Y36694D01*
X917Y37214D01*
X500Y37297D01*
Y35000D01*
X-500D01*
Y37297D01*
X-917Y37214D01*
X-1694Y36694D01*
X-2174Y35976D01*
X-3537Y35909D01*
X-3871Y35860D01*
X-4005Y36345D01*
X-3713Y36466D01*
X-2642Y37288D01*
X-1820Y38359D01*
X-1304Y39606D01*
X-1127Y40945D01*
X-1304Y42283D01*
X-1820Y43531D01*
X-2642Y44602D01*
X-3123Y44971D01*
X-2953Y45471D01*
X2559D01*
X2729Y44971D01*
D02*
G37*
%LPC*%
G36*
X36500Y8297D02*
Y6500D01*
X38297D01*
X38214Y6917D01*
X37694Y7694D01*
X36917Y8214D01*
X36500Y8297D01*
D02*
G37*
G36*
X-58315Y6440D02*
Y4000D01*
X-55875D01*
X-55911Y4278D01*
X-56212Y5003D01*
X-56689Y5626D01*
X-57312Y6103D01*
X-58037Y6404D01*
X-58315Y6440D01*
D02*
G37*
G36*
X37297Y-8500D02*
X35500D01*
Y-10297D01*
X35917Y-10214D01*
X36694Y-9694D01*
X37214Y-8917D01*
X37297Y-8500D01*
D02*
G37*
G36*
X-55875Y3000D02*
X-58315D01*
Y560D01*
X-58037Y596D01*
X-57312Y897D01*
X-56689Y1374D01*
X-56212Y1997D01*
X-55911Y2722D01*
X-55875Y3000D01*
D02*
G37*
G36*
X35500Y19297D02*
Y17500D01*
X37297D01*
X37214Y17917D01*
X36694Y18694D01*
X35917Y19214D01*
X35500Y19297D01*
D02*
G37*
G36*
X21000Y31797D02*
Y30000D01*
X22797D01*
X22714Y30417D01*
X22194Y31194D01*
X21417Y31714D01*
X21000Y31797D01*
D02*
G37*
G36*
X38297Y11500D02*
X36500D01*
Y9703D01*
X36917Y9786D01*
X37694Y10306D01*
X38214Y11083D01*
X38297Y11500D01*
D02*
G37*
G36*
X34500Y19297D02*
X34083Y19214D01*
X33306Y18694D01*
X32786Y17917D01*
X32703Y17500D01*
X34500D01*
Y19297D01*
D02*
G37*
%LPD*%
D28*
X27000Y2500D02*
X28000Y1500D01*
D37*
X5906Y-40945D02*
D03*
X-6299D02*
D03*
X5906Y40945D02*
D03*
X-6299D02*
D03*
D38*
X22571Y-30929D02*
D03*
X26107Y-27393D02*
D03*
X19036Y-34464D02*
D03*
X-58815Y3500D02*
D03*
D39*
X15500Y-38000D02*
D03*
D40*
X-58815Y-3500D02*
D03*
D41*
X27000Y2500D02*
D03*
X8500Y-30000D02*
D03*
X20500Y29500D02*
D03*
X-33000Y-500D02*
D03*
X-10500Y10500D02*
D03*
X-27500D02*
D03*
X-1000Y17000D02*
D03*
X35000D02*
D03*
X36000Y12000D02*
D03*
Y6000D02*
D03*
X35000Y-3500D02*
D03*
Y-8000D02*
D03*
X1913Y-1413D02*
D03*
X6638D02*
D03*
X11362D02*
D03*
X16087D02*
D03*
X1913Y-6138D02*
D03*
X6638Y-6138D02*
D03*
X11362D02*
D03*
X16087Y-6138D02*
D03*
X1913Y-10862D02*
D03*
X6638D02*
D03*
X11362D02*
D03*
X16087D02*
D03*
X1913Y-15587D02*
D03*
X6638D02*
D03*
X11362D02*
D03*
X16087D02*
D03*
X22000Y21000D02*
D03*
X0Y35000D02*
D03*
D42*
Y0D02*
D03*
M02*
