M48
;Layer_Color=9474304
;FILE_FORMAT=2:4
INCH
;TYPE=PLATED
T1F00S00C0.0130
T2F00S00C0.0256
T3F00S00C0.0394
%
T01
X000850Y-003000
X000664Y-001559
X001136
Y-001086
Y-000614
Y-000141
X000664
X000191
Y-000614
Y-001086
X000664
Y-000614
X001609Y-000614
Y-001086
Y-001559
Y-000141
X002700Y000250
X003600Y000600
Y001200
X003500Y001700
X002200Y002100
X002050Y002950
X000000Y003500
X-000100Y001700
X-001050Y001050
X-002750
X000191Y-001559
X003500Y-000800
Y-000350
X-003300Y-000050
T02
X001550Y-003800
X001904Y-003446
X002257Y-003093
X002611Y-002739
X-005882Y-000350
Y000350
T03
X-000630Y-004094
X000591
Y004094
X-000630
M30
