G04 Layer_Physical_Order=1*
G04 Layer_Color=255*
%FSLAX25Y25*%
%MOIN*%
G70*
G01*
G75*
%ADD10R,0.02756X0.02953*%
%ADD11R,0.01969X0.02559*%
%ADD12R,0.03150X0.02953*%
%ADD13R,0.02559X0.01969*%
%ADD14R,0.01969X0.02362*%
%ADD15R,0.03543X0.03150*%
%ADD16R,0.02362X0.01969*%
%ADD17O,0.02559X0.00787*%
%ADD18O,0.00787X0.02559*%
%ADD19R,0.18504X0.18504*%
%ADD20R,0.03937X0.07087*%
%ADD21R,0.02165X0.02362*%
%ADD22R,0.05118X0.08268*%
%ADD23R,0.02559X0.03150*%
%ADD24R,0.04016X0.04488*%
%ADD25R,0.01181X0.04488*%
%ADD26R,0.01575X0.02126*%
%ADD27R,0.01476X0.01969*%
%ADD28C,0.00600*%
%ADD29C,0.01000*%
%ADD30C,0.00900*%
%ADD31R,0.01575X0.25984*%
%ADD32R,0.01575X0.36614*%
%ADD33R,0.06299X0.01969*%
%ADD34R,0.06299X0.01575*%
%ADD35R,0.01575X0.11417*%
%ADD36R,0.06693X0.01575*%
%ADD37C,0.09055*%
%ADD38C,0.03961*%
G04:AMPARAMS|DCode=39|XSize=39.59mil|YSize=39.61mil|CornerRadius=0mil|HoleSize=0mil|Usage=FLASHONLY|Rotation=45.000|XOffset=0mil|YOffset=0mil|HoleType=Round|Shape=Rectangle|*
%AMROTATEDRECTD39*
4,1,4,0.00001,-0.02800,-0.02800,0.00001,-0.00001,0.02800,0.02800,-0.00001,0.00001,-0.02800,0.0*
%
%ADD39ROTATEDRECTD39*%

%ADD40R,0.03961X0.03959*%
%ADD41C,0.02700*%
D10*
X31468Y6842D02*
D03*
Y12157D02*
D03*
X27531D02*
D03*
Y6842D02*
D03*
D11*
X15000Y12630D02*
D03*
Y16370D02*
D03*
D12*
X10000Y10842D02*
D03*
Y16158D02*
D03*
D13*
X27161Y-17500D02*
D03*
X30902D02*
D03*
D14*
X27063Y-22000D02*
D03*
X31000D02*
D03*
X30968Y21500D02*
D03*
X27031D02*
D03*
Y-3500D02*
D03*
X30968D02*
D03*
X27031Y-8000D02*
D03*
X30968D02*
D03*
X31000Y-13000D02*
D03*
X27063D02*
D03*
X27031Y17000D02*
D03*
X30968D02*
D03*
X31532Y1500D02*
D03*
X35469D02*
D03*
X8468Y32000D02*
D03*
X4532D02*
D03*
X12531Y32000D02*
D03*
X16468Y32000D02*
D03*
D15*
X20000Y16059D02*
D03*
X20000Y10941D02*
D03*
X4000Y16059D02*
D03*
X4000Y10941D02*
D03*
D16*
Y-29969D02*
D03*
Y-26032D02*
D03*
X-1000Y12968D02*
D03*
Y9031D02*
D03*
X-39500Y3469D02*
D03*
Y-469D02*
D03*
D17*
X-2909Y161D02*
D03*
Y-1413D02*
D03*
Y-2988D02*
D03*
Y-4563D02*
D03*
Y-6138D02*
D03*
Y-7713D02*
D03*
Y-9287D02*
D03*
Y-10862D02*
D03*
Y-12437D02*
D03*
Y-14012D02*
D03*
Y-15587D02*
D03*
Y-17161D02*
D03*
X20910D02*
D03*
Y-15587D02*
D03*
Y-14012D02*
D03*
Y-12437D02*
D03*
Y-10862D02*
D03*
Y-9287D02*
D03*
Y-7713D02*
D03*
Y-6138D02*
D03*
Y-4563D02*
D03*
Y-2988D02*
D03*
Y-1413D02*
D03*
Y161D02*
D03*
D18*
X339Y-20410D02*
D03*
X1913D02*
D03*
X3488D02*
D03*
X5063D02*
D03*
X6638D02*
D03*
X8213D02*
D03*
X9787D02*
D03*
X11362D02*
D03*
X12937D02*
D03*
X14512D02*
D03*
X16087D02*
D03*
X17661D02*
D03*
Y3409D02*
D03*
X16087D02*
D03*
X14512D02*
D03*
X12937D02*
D03*
X11362D02*
D03*
X9787D02*
D03*
X8213D02*
D03*
X6638D02*
D03*
X5063D02*
D03*
X3488D02*
D03*
X1913D02*
D03*
X339D02*
D03*
D19*
X9000Y-8500D02*
D03*
D20*
X5658Y25500D02*
D03*
X15500D02*
D03*
D21*
X-16000Y30173D02*
D03*
X-16000Y26827D02*
D03*
X-16000Y-30173D02*
D03*
Y-26827D02*
D03*
D22*
X-10535Y-17913D02*
D03*
Y17913D02*
D03*
X-27465Y-17913D02*
D03*
Y17913D02*
D03*
D23*
X-10648Y30000D02*
D03*
X-1258D02*
D03*
X-10648Y-30000D02*
D03*
X-1258D02*
D03*
D24*
X-4506Y30000D02*
D03*
Y-30000D02*
D03*
D25*
X-8876Y30000D02*
D03*
Y-30000D02*
D03*
D26*
X38900Y-11200D02*
D03*
D27*
X-44000Y3500D02*
D03*
X-45968D02*
D03*
X-47937D02*
D03*
X-44000Y-3193D02*
D03*
X-47937D02*
D03*
D28*
X27031Y12559D02*
X27482Y12108D01*
X27031Y12559D02*
Y17000D01*
X35842Y12157D02*
X36000Y12000D01*
X31468Y12157D02*
X35842D01*
X27482Y11285D02*
Y12108D01*
X23500Y7303D02*
X27482Y11285D01*
X27000Y2500D02*
X27531Y3032D01*
Y6842D01*
X32032Y5913D02*
X32264Y6146D01*
X31468Y6842D02*
X31532Y6780D01*
Y1500D02*
Y6780D01*
X35469Y5469D02*
X36000Y6000D01*
X35469Y1500D02*
Y5469D01*
X29032Y-1000D02*
X31532Y1500D01*
X25000Y-1000D02*
X29032D01*
X23500Y-500D02*
Y7303D01*
X22587Y-1413D02*
X23500Y-500D01*
X-44000Y-3193D02*
X-36807D01*
X-37000Y-6500D02*
X-32000Y-11500D01*
X-7799Y37701D02*
X-6299D01*
X-11500Y34000D02*
X-7799Y37701D01*
X-17000Y34000D02*
X-11500D01*
X-19000Y32000D02*
X-17000Y34000D01*
X-19000Y28500D02*
Y32000D01*
Y28500D02*
X-17327Y26827D01*
X-16000D01*
X12555Y-40945D02*
X15500Y-38000D01*
X-6299Y-40945D02*
X12555D01*
X-19000Y23827D02*
X-16000Y26827D01*
X-19000Y12968D02*
Y23827D01*
X-16000Y-26827D02*
X-13827D01*
X-12744Y-34500D02*
X-6299Y-40945D01*
X-17827Y-26827D02*
X-16000D01*
X-19500Y-28500D02*
X-17827Y-26827D01*
X-19500Y-32000D02*
Y-28500D01*
Y-32000D02*
X-17000Y-34500D01*
X-12744D01*
X-16000Y-30173D02*
X-15827Y-30000D01*
X-10648D01*
X-28500Y3469D02*
X-19000Y12968D01*
X-50500Y-6500D02*
X-37000D01*
X-58815Y-3500D02*
X-53500D01*
X-50500Y-6500D01*
X-6299Y37701D02*
Y40945D01*
X-44000Y3500D02*
X-39531D01*
X-39500Y3469D01*
X-45213Y-469D02*
X-39500D01*
X-47937Y-3193D02*
X-45213Y-469D01*
X-39500Y3469D02*
X-28500D01*
X-27465Y-17913D02*
X-10535D01*
X-39500Y-469D02*
X-33031D01*
X-33000Y-500D01*
X-27465Y10535D02*
Y17913D01*
X-10535Y10535D02*
Y17913D01*
X-4506Y26994D02*
Y30000D01*
X-6500Y25000D02*
X-4506Y26994D01*
X-13000Y25000D02*
X-6500D01*
X-16000Y22000D02*
X-13000Y25000D01*
X-16000Y-500D02*
Y22000D01*
Y-500D02*
X-11937Y-4563D01*
X-7200Y-1800D02*
Y11300D01*
X-5500Y13000D01*
Y20500D01*
X-6000Y-500D02*
Y10803D01*
X-4300Y12503D01*
X-13827Y-26827D02*
X-12000Y-25000D01*
X-4300Y12503D02*
Y17700D01*
X-1000Y12968D02*
Y17000D01*
X-559Y16559D01*
X3488Y3409D02*
Y5488D01*
X4500Y6500D01*
X1913Y3409D02*
Y5610D01*
X4003Y7700D01*
X339Y3409D02*
Y5839D01*
X4000Y9500D01*
Y10941D01*
X20910Y-15587D02*
X22587D01*
X24000Y-17000D01*
Y-23500D02*
Y-17000D01*
X22571Y-24929D02*
X24000Y-23500D01*
X22571Y-30929D02*
Y-24929D01*
X20910Y-25591D02*
Y-17161D01*
X19036Y-27465D02*
X20910Y-25591D01*
X19036Y-34464D02*
Y-27465D01*
X-1258Y-30000D02*
X2242Y-33500D01*
X9500D01*
X12000Y-31000D01*
Y-29000D01*
X5063Y-22063D02*
X12000Y-29000D01*
X5063Y-22063D02*
Y-20410D01*
X4000Y-29969D02*
X8468D01*
X8500Y-30000D01*
X2968Y-25000D02*
X4000Y-26032D01*
X339Y-24839D02*
Y-20410D01*
Y-24839D02*
X500Y-25000D01*
X-12000D02*
X500D01*
X2968D01*
X-10535Y-17913D02*
X-3661D01*
X-2909Y-17161D01*
X-5413Y-15587D02*
X-2909D01*
X-6000Y-15000D02*
X-5413Y-15587D01*
X-6000Y-15000D02*
Y-13000D01*
X-7500Y-11500D02*
X-6000Y-13000D01*
X-32000Y-11500D02*
X-7500D01*
X-36807Y-3193D02*
X-30713Y-9287D01*
X-2909D01*
X-11937Y-4563D02*
X-2909D01*
X-7200Y-1800D02*
X-6012Y-2988D01*
X-2909D01*
X-6000Y-500D02*
X-5087Y-1413D01*
X-2909D01*
Y161D02*
Y7122D01*
X-1000Y9031D01*
X4003Y7700D02*
X6858D01*
X10000Y10842D01*
X4500Y6500D02*
X7355D01*
X8855Y8000D01*
X13000D01*
X15000Y10000D01*
Y12630D01*
Y10000D02*
X19059D01*
X20000Y10941D01*
X10213Y16370D02*
X15000D01*
X10000Y16158D02*
X10213Y16370D01*
X20910Y161D02*
Y6409D01*
Y-1413D02*
X22587D01*
X30968Y17000D02*
Y21500D01*
Y17000D02*
X35000D01*
X30968Y-3500D02*
X35000D01*
X30968Y-8000D02*
X35000D01*
X27063Y-17402D02*
Y-13000D01*
Y-17402D02*
X27161Y-17500D01*
X30902Y-21902D02*
Y-17500D01*
Y-21902D02*
X31000Y-22000D01*
X20910Y-2988D02*
X23012D01*
X25000Y-1000D01*
X20910Y-4563D02*
X23437D01*
X24500Y-3500D01*
X27031D01*
X20910Y-6138D02*
X23638D01*
X25500Y-8000D01*
X27031D01*
X-559Y16559D02*
X4000D01*
X-6299Y40945D02*
X13555D01*
X27031Y27468D01*
X20910Y6409D02*
X24000Y9500D01*
Y18469D01*
X27031Y21500D01*
X4000Y10941D02*
X5441D01*
X7000Y12500D01*
Y18300D01*
X27031Y21500D02*
Y25000D01*
Y27468D01*
X-5500Y20500D02*
X-500Y25500D01*
X5658D01*
X13500D02*
X15500D01*
X-4300Y17700D02*
X-1500Y20500D01*
X8500D01*
X13500Y25500D01*
X7000Y18300D02*
X7700Y19000D01*
X20000Y16059D02*
Y19000D01*
X22000Y21000D01*
X7700Y19000D02*
X9500D01*
X10500Y20000D01*
X18000D01*
X19000Y21000D01*
Y22500D01*
X21500Y25000D01*
X27031D01*
X0Y35969D02*
X32Y36000D01*
X0Y35000D02*
Y35969D01*
X8468Y28311D02*
Y32000D01*
X5658Y25500D02*
X8468Y28311D01*
X12531Y28468D02*
Y32000D01*
Y28468D02*
X15500Y25500D01*
X3000Y32000D02*
X4532D01*
X0Y35000D02*
X3000Y32000D01*
X16468D02*
X18000D01*
X20500Y29500D01*
X20910Y-7713D02*
X22713D01*
X25500Y-10500D01*
X28500D01*
X31000Y-13000D01*
X20910Y-9287D02*
X22590D01*
X26303Y-13000D01*
X27063D01*
Y-26437D02*
Y-22000D01*
X26107Y-27393D02*
X27063Y-26437D01*
X30902Y-17500D02*
X32600D01*
X38900Y-11200D01*
D29*
X-10821Y30173D02*
X-10648Y30000D01*
X-16000Y30173D02*
X-10821D01*
D30*
X9000Y-8500D02*
X9787Y-7713D01*
X5063Y-4563D02*
Y3409D01*
Y-4563D02*
X6638Y-6138D01*
X9000Y-8500D01*
X9787Y-7713D02*
X20910D01*
D31*
X62916Y1792D02*
D03*
D32*
X58191Y-3523D02*
D03*
X53467D02*
D03*
X48742D02*
D03*
D33*
X60553Y13800D02*
D03*
D34*
X55829Y-21043D02*
D03*
X51105Y13997D02*
D03*
X46380Y-21043D02*
D03*
D35*
X44018Y-16121D02*
D03*
D36*
X41459Y-11200D02*
D03*
D37*
X5906Y-40945D02*
D03*
X-6299D02*
D03*
X5906Y40945D02*
D03*
X-6299D02*
D03*
D38*
X22571Y-30929D02*
D03*
X26107Y-27393D02*
D03*
X19036Y-34464D02*
D03*
X-58815Y3500D02*
D03*
D39*
X15500Y-38000D02*
D03*
D40*
X-58815Y-3500D02*
D03*
D41*
X27000Y2500D02*
D03*
X8500Y-30000D02*
D03*
X20500Y29500D02*
D03*
X-33000Y-500D02*
D03*
X-10500Y10500D02*
D03*
X-27500D02*
D03*
X-1000Y17000D02*
D03*
X35000D02*
D03*
X36000Y12000D02*
D03*
Y6000D02*
D03*
X35000Y-3500D02*
D03*
Y-8000D02*
D03*
X1913Y-1413D02*
D03*
X6638D02*
D03*
X11362D02*
D03*
X16087D02*
D03*
X1913Y-6138D02*
D03*
X6638Y-6138D02*
D03*
X11362D02*
D03*
X16087Y-6138D02*
D03*
X1913Y-10862D02*
D03*
X6638D02*
D03*
X11362D02*
D03*
X16087D02*
D03*
X1913Y-15587D02*
D03*
X6638D02*
D03*
X11362D02*
D03*
X16087D02*
D03*
X22000Y21000D02*
D03*
X0Y35000D02*
D03*
M02*
