G04 Layer_Color=16711935*
%FSLAX25Y25*%
%MOIN*%
G70*
G01*
G75*
%ADD94C,0.00100*%
D94*
X0Y0D02*
Y300000D01*
X270000D01*
Y0D02*
Y300000D01*
X0Y0D02*
X270000D01*
X61000Y238000D02*
G03*
X62500Y239500I0J1500D01*
G01*
X73000Y145000D02*
G03*
X78000Y140000I5000J0D01*
G01*
X88000D02*
G03*
X93000Y145000I0J5000D01*
G01*
X103500Y239500D02*
G03*
X105000Y238000I1500J0D01*
G01*
X61000D02*
X60500D01*
X62500Y239500D02*
Y256600D01*
X60500Y238000D02*
X58000D01*
X108000D02*
X105000D01*
X103500Y239500D02*
Y244500D01*
X80000Y140000D02*
X78000D01*
X73000Y145000D02*
Y147000D01*
X88000Y140000D02*
X86000D01*
X93000Y145000D02*
Y147500D01*
Y156500D01*
X86000Y140000D02*
X80000D01*
X73000Y147000D02*
Y156500D01*
X93000D02*
X130000Y193500D01*
X103500Y244500D02*
Y256600D01*
X62500D01*
X36000Y216000D02*
X58000Y238000D01*
X73000Y156500D02*
X36000Y193500D01*
Y216000D01*
X130000Y193500D02*
Y216000D01*
X108000Y238000D01*
X190000Y130000D02*
G03*
X190000Y130000I0J-50000D01*
G01*
X80000D02*
G03*
X80000Y130000I0J-50000D01*
G01*
X183000Y145000D02*
G03*
X188000Y140000I5000J0D01*
G01*
X198000D02*
G03*
X203000Y145000I0J5000D01*
G01*
X218000Y263000D02*
G03*
X213000Y268000I-5000J0D01*
G01*
X173000D02*
G03*
X168000Y263000I0J-5000D01*
G01*
X146000Y216000D02*
X157000Y227000D01*
X190000Y140000D02*
X188000D01*
X183000Y145000D02*
Y147000D01*
X198000Y140000D02*
X196000D01*
X203000Y145000D02*
Y147500D01*
Y156500D01*
X196000Y140000D02*
X190000D01*
X183000Y147000D02*
Y156500D01*
X203000D02*
X240000Y193500D01*
X183000Y156500D02*
X146000Y193500D01*
Y216000D01*
X240000Y193500D02*
Y216000D01*
X157000Y227000D02*
X168000Y238000D01*
X240000Y216000D02*
X218000Y238000D01*
Y256600D01*
X168000Y238000D02*
Y256600D01*
X213000Y268000D02*
X173000D01*
X218000Y256600D02*
Y263000D01*
X168000Y256600D02*
Y263000D01*
M02*
