M48
;Layer_Color=9474304
;FILE_FORMAT=2:4
INCH
;TYPE=PLATED
T1F00S00C0.0130
T2F00S00C0.0256
T3F00S00C0.0394
%
T01
X021850Y005700
Y006500
Y006950
X020950Y011200
X020450
X009950
X010250Y008100
X010800Y005400
X011350
X008350Y016950
X009250Y019300
X007550Y021250
Y023050
X005650Y018450
X015800Y020250
X017600Y020150
X018250Y019200
Y017500
X019350Y016950
X019441Y020441
Y020914
Y021386
X019914
Y020914
X019914Y020441
X020386
Y020914
Y021386
Y021859
X019914
X019441
X020859
Y021386
Y020914
Y020441
X022300Y021100
X020100Y023750
X019650
X018700Y023850
X018100
X017600Y023750
X017200Y022450
X016350Y022300
X019050Y022950
T02
X022446Y010754
X022800Y010400
X022093Y011107
X021739Y011461
X021386Y011814
X010386
X010739Y011461
X011093Y011107
X011446Y010754
X011800Y010400
X008650Y014368
X007950
X010839Y023211
X011193Y022857
X011546Y022504
X011900Y022150
X022039Y022861
X022393Y022507
X022746Y022154
X023100Y021800
X019650Y014368
X018950
T03
X017409Y003906
X018630
Y012094
X017409
X007630
X006409
Y003906
X007630
X004206Y019620
Y020841
X012394
Y019620
X015206
Y020841
X023394
Y019620
M30
