G04 Layer_Color=65535*
%FSLAX25Y25*%
%MOIN*%
G70*
G01*
G75*
%ADD28C,0.00600*%
%ADD43C,0.00984*%
%ADD44C,0.00787*%
%ADD45C,0.00500*%
G36*
X61913Y-8279D02*
X62331D01*
Y-8314D01*
X62505D01*
Y-8349D01*
X62575D01*
Y-8384D01*
X62714D01*
Y-8419D01*
X62818D01*
Y-8454D01*
X62888D01*
Y-8488D01*
X62958D01*
Y-8523D01*
X63028D01*
Y-8558D01*
X63062D01*
Y-8593D01*
X63132D01*
Y-8628D01*
X63167D01*
Y-8663D01*
X63202D01*
Y-8697D01*
X63237D01*
Y-8732D01*
X63306D01*
Y-8767D01*
X63341D01*
Y-8802D01*
Y-8837D01*
X63306D01*
Y-8872D01*
Y-8907D01*
Y-8941D01*
X63271D01*
Y-8976D01*
Y-9011D01*
X63237D01*
Y-9046D01*
Y-9081D01*
X63202D01*
Y-9116D01*
Y-9150D01*
X63167D01*
Y-9185D01*
Y-9220D01*
X63132D01*
Y-9255D01*
Y-9290D01*
X63097D01*
Y-9255D01*
X63062D01*
Y-9290D01*
X63097D01*
Y-9325D01*
Y-9359D01*
X63062D01*
Y-9394D01*
Y-9429D01*
X63028D01*
Y-9464D01*
Y-9499D01*
X62993D01*
Y-9534D01*
Y-9568D01*
X62958D01*
Y-9603D01*
Y-9638D01*
X62923D01*
Y-9603D01*
X62888D01*
Y-9638D01*
X62923D01*
Y-9673D01*
Y-9708D01*
X62888D01*
Y-9743D01*
Y-9777D01*
X62853D01*
Y-9812D01*
Y-9847D01*
X62818D01*
Y-9812D01*
X62784D01*
Y-9847D01*
X62818D01*
Y-9882D01*
Y-9917D01*
X62784D01*
Y-9952D01*
Y-9986D01*
X62749D01*
Y-10021D01*
Y-10056D01*
X62714D01*
Y-10091D01*
Y-10126D01*
X62679D01*
Y-10161D01*
Y-10196D01*
X62644D01*
Y-10161D01*
X62609D01*
Y-10196D01*
X62644D01*
Y-10230D01*
Y-10265D01*
X62609D01*
Y-10300D01*
Y-10335D01*
X62575D01*
Y-10370D01*
Y-10405D01*
Y-10440D01*
X62540D01*
Y-10474D01*
Y-10509D01*
X62505D01*
Y-10544D01*
Y-10579D01*
X62470D01*
Y-10614D01*
Y-10649D01*
X62435D01*
Y-10683D01*
Y-10718D01*
X62400D01*
Y-10753D01*
Y-10788D01*
X62366D01*
Y-10823D01*
Y-10858D01*
X62331D01*
Y-10892D01*
Y-10927D01*
X62296D01*
Y-10962D01*
Y-10997D01*
X62261D01*
Y-11032D01*
Y-11067D01*
X62226D01*
Y-11101D01*
Y-11136D01*
X62191D01*
Y-11171D01*
Y-11206D01*
X62156D01*
Y-11241D01*
Y-11276D01*
X62122D01*
Y-11310D01*
Y-11345D01*
X62087D01*
Y-11380D01*
Y-11415D01*
X62052D01*
Y-11450D01*
Y-11485D01*
X62017D01*
Y-11519D01*
Y-11554D01*
X61982D01*
Y-11589D01*
Y-11624D01*
X61947D01*
Y-11659D01*
Y-11694D01*
X61913D01*
Y-11729D01*
Y-11763D01*
X61878D01*
Y-11798D01*
Y-11833D01*
X61843D01*
Y-11868D01*
X61808D01*
Y-11903D01*
Y-11938D01*
Y-11972D01*
X61773D01*
Y-12007D01*
Y-12042D01*
X61738D01*
Y-12007D01*
X61703D01*
Y-12042D01*
X61738D01*
Y-12077D01*
Y-12112D01*
Y-12147D01*
X61703D01*
Y-12182D01*
Y-12216D01*
X61669D01*
Y-12251D01*
Y-12286D01*
X61634D01*
Y-12321D01*
Y-12356D01*
X61599D01*
Y-12391D01*
Y-12425D01*
X61564D01*
Y-12460D01*
Y-12495D01*
X61529D01*
Y-12530D01*
Y-12565D01*
X61494D01*
Y-12600D01*
Y-12634D01*
X61460D01*
Y-12669D01*
Y-12704D01*
X61425D01*
Y-12739D01*
Y-12774D01*
X61390D01*
Y-12809D01*
Y-12844D01*
X61355D01*
Y-12878D01*
Y-12913D01*
X61320D01*
Y-12948D01*
Y-12983D01*
X61286D01*
Y-13018D01*
Y-13052D01*
X61251D01*
Y-13087D01*
Y-13122D01*
X61216D01*
Y-13157D01*
Y-13192D01*
X61181D01*
Y-13227D01*
Y-13262D01*
X61146D01*
Y-13296D01*
Y-13331D01*
X61111D01*
Y-13366D01*
Y-13401D01*
X61076D01*
Y-13436D01*
Y-13471D01*
X61042D01*
Y-13506D01*
Y-13540D01*
X61007D01*
Y-13575D01*
Y-13610D01*
X60972D01*
Y-13645D01*
Y-13680D01*
Y-13714D01*
X60937D01*
Y-13749D01*
Y-13784D01*
X60902D01*
Y-13819D01*
Y-13854D01*
X60833D01*
Y-13889D01*
X60867D01*
Y-13924D01*
X60833D01*
Y-13958D01*
Y-13993D01*
X60798D01*
Y-14028D01*
Y-14063D01*
X60763D01*
Y-14098D01*
Y-14133D01*
X60728D01*
Y-14167D01*
Y-14202D01*
X60693D01*
Y-14237D01*
Y-14272D01*
X60658D01*
Y-14307D01*
Y-14342D01*
X60624D01*
Y-14377D01*
Y-14411D01*
X60554D01*
Y-14446D01*
X60589D01*
Y-14481D01*
X60554D01*
Y-14516D01*
Y-14551D01*
X60519D01*
Y-14586D01*
Y-14620D01*
X60484D01*
Y-14655D01*
Y-14690D01*
X60449D01*
Y-14725D01*
Y-14760D01*
X60414D01*
Y-14795D01*
Y-14829D01*
X60380D01*
Y-14864D01*
Y-14899D01*
X60345D01*
Y-14934D01*
Y-14969D01*
X60275D01*
Y-15004D01*
X60310D01*
Y-15039D01*
X60275D01*
Y-15073D01*
Y-15108D01*
X60240D01*
Y-15143D01*
Y-15178D01*
X60205D01*
Y-15213D01*
Y-15248D01*
X60171D01*
Y-15282D01*
Y-15317D01*
Y-15352D01*
X60136D01*
Y-15387D01*
Y-15422D01*
X60101D01*
Y-15457D01*
Y-15491D01*
X60066D01*
Y-15526D01*
Y-15561D01*
X60031D01*
Y-15596D01*
Y-15631D01*
X59996D01*
Y-15666D01*
Y-15700D01*
X59961D01*
Y-15735D01*
Y-15770D01*
X59927D01*
Y-15805D01*
Y-15840D01*
X59892D01*
Y-15875D01*
Y-15910D01*
X59857D01*
Y-15944D01*
Y-15979D01*
X59822D01*
Y-16014D01*
Y-16049D01*
X59787D01*
Y-16084D01*
Y-16119D01*
X59752D01*
Y-16153D01*
Y-16188D01*
X59718D01*
Y-16223D01*
Y-16258D01*
X59683D01*
Y-16293D01*
Y-16328D01*
X59648D01*
Y-16363D01*
Y-16397D01*
X59613D01*
Y-16432D01*
Y-16467D01*
X59578D01*
Y-16502D01*
Y-16537D01*
X59543D01*
Y-16571D01*
Y-16606D01*
X59509D01*
Y-16641D01*
Y-16676D01*
X59474D01*
Y-16711D01*
Y-16746D01*
X59439D01*
Y-16781D01*
Y-16815D01*
X59404D01*
Y-16850D01*
Y-16885D01*
X59369D01*
Y-16920D01*
Y-16955D01*
Y-16990D01*
X59334D01*
Y-17024D01*
X59299D01*
Y-17059D01*
Y-17094D01*
Y-17129D01*
X59265D01*
Y-17164D01*
Y-17199D01*
X59230D01*
Y-17233D01*
Y-17268D01*
X59195D01*
Y-17303D01*
Y-17338D01*
X59160D01*
Y-17373D01*
Y-17408D01*
X59125D01*
Y-17443D01*
Y-17477D01*
X59091D01*
Y-17512D01*
Y-17547D01*
X59056D01*
Y-17582D01*
Y-17617D01*
X59021D01*
Y-17652D01*
Y-17686D01*
X58986D01*
Y-17721D01*
Y-17756D01*
X58951D01*
Y-17791D01*
Y-17826D01*
X58916D01*
Y-17861D01*
Y-17896D01*
X58881D01*
Y-17930D01*
Y-17965D01*
X58847D01*
Y-18000D01*
Y-18035D01*
X58812D01*
Y-18070D01*
Y-18104D01*
X58777D01*
Y-18139D01*
Y-18174D01*
X58742D01*
Y-18209D01*
Y-18244D01*
X58707D01*
Y-18279D01*
Y-18314D01*
X58672D01*
Y-18348D01*
Y-18383D01*
X58637D01*
Y-18418D01*
Y-18453D01*
X58603D01*
Y-18488D01*
Y-18523D01*
X58568D01*
Y-18557D01*
Y-18592D01*
Y-18627D01*
X58533D01*
Y-18662D01*
Y-18697D01*
X58498D01*
Y-18732D01*
Y-18767D01*
X58463D01*
Y-18801D01*
Y-18836D01*
X58429D01*
Y-18871D01*
Y-18906D01*
X58394D01*
Y-18941D01*
Y-18975D01*
X58359D01*
Y-19010D01*
Y-19045D01*
X58324D01*
Y-19080D01*
Y-19115D01*
X58289D01*
Y-19150D01*
Y-19185D01*
X58254D01*
Y-19219D01*
Y-19254D01*
X58219D01*
Y-19289D01*
Y-19324D01*
X58185D01*
Y-19359D01*
Y-19394D01*
X58150D01*
Y-19429D01*
Y-19463D01*
X58115D01*
Y-19498D01*
Y-19533D01*
X58080D01*
Y-19568D01*
Y-19603D01*
X58045D01*
Y-19637D01*
Y-19672D01*
X58010D01*
Y-19707D01*
Y-19742D01*
X57976D01*
Y-19777D01*
Y-19812D01*
X57941D01*
Y-19847D01*
Y-19881D01*
X57906D01*
Y-19916D01*
Y-19951D01*
X57871D01*
Y-19986D01*
Y-20021D01*
X52087D01*
Y-19986D01*
X52052D01*
Y-19951D01*
X52018D01*
Y-19916D01*
X51983D01*
Y-19881D01*
X51948D01*
Y-19847D01*
X51913D01*
Y-19812D01*
X51878D01*
Y-19777D01*
X51844D01*
Y-19742D01*
X51809D01*
Y-19707D01*
X51774D01*
Y-19672D01*
X51739D01*
Y-19637D01*
X51704D01*
Y-19603D01*
X51669D01*
Y-19568D01*
X51635D01*
Y-19533D01*
Y-19498D01*
X51600D01*
Y-19463D01*
X51565D01*
Y-19429D01*
X51530D01*
Y-19394D01*
Y-19359D01*
X51495D01*
Y-19324D01*
X51460D01*
Y-19289D01*
Y-19254D01*
X51425D01*
Y-19219D01*
Y-19185D01*
X51391D01*
Y-19150D01*
Y-19115D01*
X51356D01*
Y-19080D01*
Y-19045D01*
Y-19010D01*
X51321D01*
Y-18975D01*
Y-18941D01*
X51286D01*
Y-18906D01*
Y-18871D01*
Y-18836D01*
Y-18801D01*
X51251D01*
Y-18767D01*
Y-18732D01*
Y-18697D01*
Y-18662D01*
Y-18627D01*
X51216D01*
Y-18592D01*
Y-18557D01*
Y-18523D01*
Y-18488D01*
Y-18453D01*
Y-18418D01*
Y-18383D01*
Y-18348D01*
Y-18314D01*
Y-18279D01*
Y-18244D01*
Y-18209D01*
Y-18174D01*
X51251D01*
Y-18139D01*
X51286D01*
Y-18104D01*
X51251D01*
Y-18070D01*
Y-18035D01*
Y-18000D01*
X51286D01*
Y-17965D01*
Y-17930D01*
Y-17896D01*
Y-17861D01*
X51321D01*
Y-17826D01*
Y-17791D01*
Y-17756D01*
X51356D01*
Y-17721D01*
Y-17686D01*
X51391D01*
Y-17652D01*
Y-17617D01*
X51425D01*
Y-17582D01*
Y-17547D01*
X51460D01*
Y-17512D01*
X51495D01*
Y-17477D01*
X51530D01*
Y-17443D01*
X51565D01*
Y-17408D01*
X51600D01*
Y-17373D01*
X51635D01*
Y-17338D01*
X51669D01*
Y-17303D01*
X51704D01*
Y-17268D01*
X51774D01*
Y-17233D01*
X51844D01*
Y-17199D01*
X51878D01*
Y-17164D01*
X51948D01*
Y-17129D01*
X52052D01*
Y-17094D01*
X52122D01*
Y-17059D01*
X52227D01*
Y-17024D01*
X52331D01*
Y-16990D01*
X52436D01*
Y-16955D01*
X52575D01*
Y-16920D01*
X52715D01*
Y-16885D01*
X52924D01*
Y-16850D01*
X53028D01*
Y-16885D01*
X53063D01*
Y-16850D01*
X53202D01*
Y-16815D01*
X54282D01*
Y-16850D01*
X54561D01*
Y-16885D01*
X54805D01*
Y-16920D01*
X54979D01*
Y-16955D01*
X55119D01*
Y-16990D01*
X55258D01*
Y-17024D01*
X55362D01*
Y-17059D01*
X55502D01*
Y-17094D01*
X55572D01*
Y-17129D01*
Y-17164D01*
X55606D01*
Y-17129D01*
X55676D01*
Y-17164D01*
X55781D01*
Y-17199D01*
X55850D01*
Y-17233D01*
X55920D01*
Y-17268D01*
X55990D01*
Y-17303D01*
X56059D01*
Y-17338D01*
X56129D01*
Y-17373D01*
X56199D01*
Y-17408D01*
X56268D01*
Y-17443D01*
X56303D01*
Y-17477D01*
X56373D01*
Y-17512D01*
X56442D01*
Y-17547D01*
X56477D01*
Y-17582D01*
X56512D01*
Y-17617D01*
X56582D01*
Y-17652D01*
X56617D01*
Y-17686D01*
X56652D01*
Y-17721D01*
X56686D01*
Y-17756D01*
X56721D01*
Y-17791D01*
X56791D01*
Y-17826D01*
X56826D01*
Y-17861D01*
Y-17896D01*
X56861D01*
Y-17861D01*
Y-17826D01*
X56826D01*
Y-17791D01*
Y-17756D01*
Y-17721D01*
X56791D01*
Y-17686D01*
Y-17652D01*
Y-17617D01*
X56756D01*
Y-17582D01*
Y-17547D01*
Y-17512D01*
X56721D01*
Y-17477D01*
Y-17443D01*
Y-17408D01*
Y-17373D01*
X56686D01*
Y-17338D01*
Y-17303D01*
Y-17268D01*
Y-17233D01*
Y-17199D01*
Y-17164D01*
X56652D01*
Y-17129D01*
Y-17094D01*
Y-17059D01*
Y-17024D01*
Y-16990D01*
Y-16955D01*
Y-16920D01*
Y-16885D01*
Y-16850D01*
Y-16815D01*
Y-16781D01*
Y-16746D01*
Y-16711D01*
Y-16676D01*
Y-16641D01*
Y-16606D01*
Y-16571D01*
Y-16537D01*
Y-16502D01*
Y-16467D01*
X56686D01*
Y-16432D01*
Y-16397D01*
Y-16363D01*
Y-16328D01*
Y-16293D01*
Y-16258D01*
X56721D01*
Y-16223D01*
Y-16188D01*
Y-16153D01*
Y-16119D01*
Y-16084D01*
X56756D01*
Y-16049D01*
Y-16014D01*
Y-15979D01*
X56791D01*
Y-15944D01*
Y-15910D01*
Y-15875D01*
X56826D01*
Y-15840D01*
Y-15805D01*
Y-15770D01*
X56861D01*
Y-15735D01*
Y-15700D01*
Y-15666D01*
X56896D01*
Y-15631D01*
Y-15596D01*
X56930D01*
Y-15561D01*
Y-15526D01*
Y-15491D01*
X56965D01*
Y-15457D01*
Y-15422D01*
X57000D01*
Y-15387D01*
Y-15352D01*
X57035D01*
Y-15317D01*
Y-15282D01*
X57070D01*
Y-15248D01*
Y-15213D01*
X57104D01*
Y-15178D01*
Y-15143D01*
X57139D01*
Y-15108D01*
Y-15073D01*
X57174D01*
Y-15039D01*
X57209D01*
Y-15004D01*
Y-14969D01*
X57244D01*
Y-14934D01*
Y-14899D01*
X57279D01*
Y-14864D01*
X57314D01*
Y-14829D01*
Y-14795D01*
X57348D01*
Y-14760D01*
Y-14725D01*
X57383D01*
Y-14690D01*
X57418D01*
Y-14655D01*
X57453D01*
Y-14620D01*
X57488D01*
Y-14586D01*
Y-14551D01*
X57523D01*
Y-14586D01*
X57557D01*
Y-14551D01*
X57523D01*
Y-14516D01*
Y-14481D01*
X57557D01*
Y-14446D01*
X57592D01*
Y-14411D01*
X57627D01*
Y-14377D01*
Y-14342D01*
X57662D01*
Y-14307D01*
X57697D01*
Y-14272D01*
X57732D01*
Y-14237D01*
X57766D01*
Y-14202D01*
X57801D01*
Y-14167D01*
X57836D01*
Y-14133D01*
Y-14098D01*
X57871D01*
Y-14063D01*
X57906D01*
Y-14028D01*
X57941D01*
Y-13993D01*
X57976D01*
Y-13958D01*
X58010D01*
Y-13924D01*
X58045D01*
Y-13889D01*
X58080D01*
Y-13854D01*
X58115D01*
Y-13819D01*
X58150D01*
Y-13784D01*
X58185D01*
Y-13749D01*
X58219D01*
Y-13714D01*
X58254D01*
Y-13680D01*
X58289D01*
Y-13645D01*
X58359D01*
Y-13610D01*
X58394D01*
Y-13575D01*
X58429D01*
Y-13540D01*
X58463D01*
Y-13506D01*
X58498D01*
Y-13471D01*
X58568D01*
Y-13436D01*
X58603D01*
Y-13401D01*
X58637D01*
Y-13366D01*
X58672D01*
Y-13401D01*
X58707D01*
Y-13366D01*
X58672D01*
Y-13331D01*
X58742D01*
Y-13296D01*
X58777D01*
Y-13262D01*
X58847D01*
Y-13227D01*
X58881D01*
Y-13192D01*
X58951D01*
Y-13157D01*
X58986D01*
Y-13122D01*
X59056D01*
Y-13087D01*
X59091D01*
Y-13052D01*
X59160D01*
Y-13018D01*
X59230D01*
Y-12983D01*
X59265D01*
Y-12948D01*
X59334D01*
Y-12913D01*
X59404D01*
Y-12878D01*
X59474D01*
Y-12844D01*
X59543D01*
Y-12809D01*
X59613D01*
Y-12774D01*
X59683D01*
Y-12739D01*
X59752D01*
Y-12704D01*
X59822D01*
Y-12669D01*
Y-12634D01*
X59787D01*
Y-12600D01*
Y-12565D01*
Y-12530D01*
X59752D01*
Y-12495D01*
Y-12460D01*
X59718D01*
Y-12425D01*
Y-12391D01*
Y-12356D01*
X59683D01*
Y-12321D01*
Y-12286D01*
Y-12251D01*
X59648D01*
Y-12216D01*
Y-12182D01*
Y-12147D01*
X59613D01*
Y-12112D01*
Y-12077D01*
Y-12042D01*
X59578D01*
Y-12007D01*
Y-11972D01*
Y-11938D01*
X59543D01*
Y-11903D01*
Y-11868D01*
Y-11833D01*
Y-11798D01*
X59509D01*
Y-11763D01*
Y-11729D01*
Y-11694D01*
Y-11659D01*
X59474D01*
Y-11624D01*
Y-11589D01*
Y-11554D01*
Y-11519D01*
X59439D01*
Y-11485D01*
Y-11450D01*
Y-11415D01*
Y-11380D01*
Y-11345D01*
X59404D01*
Y-11310D01*
Y-11276D01*
Y-11241D01*
Y-11206D01*
Y-11171D01*
Y-11136D01*
X59369D01*
Y-11101D01*
Y-11067D01*
Y-11032D01*
Y-10997D01*
Y-10962D01*
Y-10927D01*
Y-10892D01*
Y-10858D01*
Y-10823D01*
Y-10788D01*
Y-10753D01*
Y-10718D01*
Y-10683D01*
Y-10649D01*
Y-10614D01*
Y-10579D01*
Y-10544D01*
Y-10509D01*
Y-10474D01*
Y-10440D01*
Y-10405D01*
Y-10370D01*
Y-10335D01*
Y-10300D01*
Y-10265D01*
Y-10230D01*
Y-10196D01*
X59404D01*
Y-10161D01*
Y-10126D01*
Y-10091D01*
Y-10056D01*
Y-10021D01*
X59439D01*
Y-9986D01*
Y-9952D01*
Y-9917D01*
Y-9882D01*
X59474D01*
Y-9847D01*
Y-9812D01*
Y-9777D01*
X59509D01*
Y-9743D01*
Y-9708D01*
Y-9673D01*
X59543D01*
Y-9638D01*
Y-9603D01*
X59578D01*
Y-9568D01*
X59613D01*
Y-9534D01*
Y-9499D01*
Y-9464D01*
X59648D01*
Y-9429D01*
X59683D01*
Y-9394D01*
Y-9359D01*
X59718D01*
Y-9325D01*
Y-9290D01*
X59752D01*
Y-9255D01*
X59787D01*
Y-9220D01*
X59822D01*
Y-9185D01*
X59857D01*
Y-9150D01*
Y-9116D01*
X59892D01*
Y-9081D01*
X59927D01*
Y-9046D01*
X59961D01*
Y-9011D01*
X59996D01*
Y-8976D01*
X60031D01*
Y-8941D01*
X60066D01*
Y-8907D01*
X60101D01*
Y-8941D01*
X60136D01*
Y-8907D01*
X60101D01*
Y-8872D01*
X60171D01*
Y-8837D01*
X60205D01*
Y-8802D01*
X60240D01*
Y-8767D01*
X60310D01*
Y-8732D01*
X60345D01*
Y-8697D01*
X60414D01*
Y-8663D01*
X60449D01*
Y-8628D01*
X60519D01*
Y-8593D01*
X60589D01*
Y-8558D01*
X60658D01*
Y-8523D01*
X60728D01*
Y-8488D01*
X60833D01*
Y-8454D01*
X60902D01*
Y-8419D01*
X61007D01*
Y-8384D01*
X61111D01*
Y-8349D01*
X61251D01*
Y-8314D01*
X61460D01*
Y-8279D01*
X61878D01*
Y-8245D01*
X61913D01*
Y-8279D01*
D02*
G37*
G36*
X51216Y-11972D02*
X51356D01*
Y-12007D01*
X51460D01*
Y-12042D01*
X51530D01*
Y-12077D01*
X51635D01*
Y-12112D01*
X51704D01*
Y-12147D01*
X51809D01*
Y-12182D01*
X51913D01*
Y-12216D01*
X51983D01*
Y-12251D01*
X52052D01*
Y-12286D01*
X52122D01*
Y-12321D01*
X52157D01*
Y-12356D01*
X52192D01*
Y-12391D01*
X52227D01*
Y-12425D01*
Y-12460D01*
X52262D01*
Y-12495D01*
Y-12530D01*
Y-12565D01*
X52297D01*
Y-12600D01*
Y-12634D01*
Y-12669D01*
Y-12704D01*
Y-12739D01*
Y-12774D01*
Y-12809D01*
X52262D01*
Y-12844D01*
Y-12878D01*
Y-12913D01*
X52227D01*
Y-12948D01*
Y-12983D01*
X52192D01*
Y-13018D01*
X52122D01*
Y-12983D01*
X51669D01*
Y-13018D01*
X51565D01*
Y-13052D01*
X51495D01*
Y-13087D01*
X51425D01*
Y-13122D01*
X51356D01*
Y-13157D01*
X51321D01*
Y-13192D01*
X51286D01*
Y-13227D01*
X51251D01*
Y-13262D01*
X51216D01*
Y-13296D01*
X51182D01*
Y-13331D01*
X51147D01*
Y-13366D01*
Y-13401D01*
X51112D01*
Y-13436D01*
X51077D01*
Y-13471D01*
Y-13506D01*
X51042D01*
Y-13540D01*
Y-13575D01*
Y-13610D01*
X51007D01*
Y-13645D01*
Y-13680D01*
Y-13714D01*
X50972D01*
Y-13749D01*
Y-13784D01*
X50938D01*
Y-13819D01*
X50972D01*
Y-13854D01*
Y-13889D01*
Y-13924D01*
Y-13958D01*
Y-13993D01*
Y-14028D01*
Y-14063D01*
X51007D01*
Y-14098D01*
Y-14133D01*
Y-14167D01*
Y-14202D01*
X51042D01*
Y-14237D01*
Y-14272D01*
X51077D01*
Y-14307D01*
Y-14342D01*
X51112D01*
Y-14377D01*
Y-14411D01*
X51147D01*
Y-14446D01*
X51182D01*
Y-14481D01*
Y-14516D01*
X51216D01*
Y-14551D01*
X51251D01*
Y-14586D01*
X51286D01*
Y-14620D01*
X51356D01*
Y-14655D01*
X51391D01*
Y-14690D01*
X51460D01*
Y-14725D01*
X51530D01*
Y-14760D01*
Y-14795D01*
X51495D01*
Y-14829D01*
Y-14864D01*
Y-14899D01*
X51425D01*
Y-14934D01*
X51460D01*
Y-14969D01*
X51425D01*
Y-15004D01*
Y-15039D01*
X51391D01*
Y-15073D01*
Y-15108D01*
X51356D01*
Y-15143D01*
X51321D01*
Y-15178D01*
X51286D01*
Y-15213D01*
X51216D01*
Y-15248D01*
X51147D01*
Y-15282D01*
X50868D01*
Y-15248D01*
X50763D01*
Y-15213D01*
X50659D01*
Y-15178D01*
X50589D01*
Y-15143D01*
X50485D01*
Y-15108D01*
X50415D01*
Y-15073D01*
X50310D01*
Y-15039D01*
X50206D01*
Y-15004D01*
X50136D01*
Y-14969D01*
X50067D01*
Y-14934D01*
X50032D01*
Y-14899D01*
X49997D01*
Y-14864D01*
X49962D01*
Y-14829D01*
X49927D01*
Y-14795D01*
Y-14760D01*
X49892D01*
Y-14725D01*
Y-14690D01*
Y-14655D01*
Y-14620D01*
X49858D01*
Y-14586D01*
Y-14551D01*
Y-14516D01*
Y-14481D01*
X49892D01*
Y-14446D01*
Y-14411D01*
Y-14377D01*
X49927D01*
Y-14342D01*
Y-14307D01*
Y-14272D01*
X49962D01*
Y-14237D01*
Y-14202D01*
X49997D01*
Y-14167D01*
Y-14133D01*
Y-14098D01*
X50032D01*
Y-14063D01*
Y-14028D01*
Y-13993D01*
X50067D01*
Y-13958D01*
Y-13924D01*
X50102D01*
Y-13958D01*
X50136D01*
Y-13924D01*
X50102D01*
Y-13889D01*
Y-13854D01*
Y-13819D01*
X50136D01*
Y-13784D01*
Y-13749D01*
X50171D01*
Y-13714D01*
Y-13680D01*
Y-13645D01*
X50206D01*
Y-13610D01*
Y-13575D01*
Y-13540D01*
X50241D01*
Y-13506D01*
Y-13471D01*
X50276D01*
Y-13436D01*
Y-13401D01*
Y-13366D01*
X50310D01*
Y-13331D01*
Y-13296D01*
X50345D01*
Y-13262D01*
Y-13227D01*
Y-13192D01*
X50380D01*
Y-13157D01*
Y-13122D01*
Y-13087D01*
X50415D01*
Y-13052D01*
Y-13018D01*
X50450D01*
Y-12983D01*
Y-12948D01*
Y-12913D01*
X50520D01*
Y-12878D01*
X50485D01*
Y-12844D01*
X50520D01*
Y-12809D01*
Y-12774D01*
Y-12739D01*
X50554D01*
Y-12704D01*
Y-12669D01*
Y-12634D01*
X50589D01*
Y-12600D01*
Y-12565D01*
X50624D01*
Y-12530D01*
Y-12495D01*
Y-12460D01*
X50659D01*
Y-12425D01*
Y-12391D01*
X50694D01*
Y-12356D01*
Y-12321D01*
Y-12286D01*
X50729D01*
Y-12251D01*
Y-12216D01*
X50763D01*
Y-12182D01*
Y-12147D01*
X50798D01*
Y-12112D01*
X50833D01*
Y-12077D01*
X50868D01*
Y-12042D01*
X50903D01*
Y-12007D01*
X50972D01*
Y-11972D01*
X51112D01*
Y-11938D01*
X51216D01*
Y-11972D01*
D02*
G37*
G36*
X52192Y-10649D02*
X52262D01*
Y-10683D01*
X52331D01*
Y-10718D01*
X52366D01*
Y-10753D01*
X52401D01*
Y-10788D01*
Y-10823D01*
X52436D01*
Y-10858D01*
Y-10892D01*
Y-10927D01*
X52401D01*
Y-10962D01*
X52436D01*
Y-10997D01*
Y-11032D01*
Y-11067D01*
Y-11101D01*
Y-11136D01*
Y-11171D01*
X52401D01*
Y-11206D01*
Y-11241D01*
Y-11276D01*
Y-11310D01*
Y-11345D01*
Y-11380D01*
Y-11415D01*
Y-11450D01*
Y-11485D01*
X52436D01*
Y-11519D01*
Y-11554D01*
X52471D01*
Y-11589D01*
Y-11624D01*
Y-11659D01*
X52505D01*
Y-11694D01*
Y-11729D01*
Y-11763D01*
X52471D01*
Y-11798D01*
Y-11833D01*
Y-11868D01*
X52436D01*
Y-11903D01*
Y-11938D01*
X52401D01*
Y-11972D01*
Y-12007D01*
X52436D01*
Y-12042D01*
Y-12077D01*
X52471D01*
Y-12112D01*
Y-12147D01*
Y-12182D01*
Y-12216D01*
X52436D01*
Y-12251D01*
X52401D01*
Y-12286D01*
X52262D01*
Y-12251D01*
X52157D01*
Y-12216D01*
X52087D01*
Y-12182D01*
X51983D01*
Y-12147D01*
X51913D01*
Y-12112D01*
X51809D01*
Y-12077D01*
X51704D01*
Y-12042D01*
X51635D01*
Y-12007D01*
X51530D01*
Y-11972D01*
X51460D01*
Y-11938D01*
X51356D01*
Y-11903D01*
X51251D01*
Y-11868D01*
X51182D01*
Y-11833D01*
X51077D01*
Y-11798D01*
X51042D01*
Y-11763D01*
X51007D01*
Y-11729D01*
Y-11694D01*
Y-11659D01*
Y-11624D01*
X51042D01*
Y-11589D01*
X51077D01*
Y-11554D01*
X51216D01*
Y-11519D01*
Y-11485D01*
Y-11450D01*
Y-11415D01*
X51251D01*
Y-11380D01*
Y-11345D01*
X51286D01*
Y-11310D01*
Y-11276D01*
X51321D01*
Y-11241D01*
X51356D01*
Y-11206D01*
X51391D01*
Y-11171D01*
X51495D01*
Y-11136D01*
X51565D01*
Y-11101D01*
X51600D01*
Y-11067D01*
X51635D01*
Y-11032D01*
X51669D01*
Y-10997D01*
X51739D01*
Y-10962D01*
X51704D01*
Y-10927D01*
X51739D01*
Y-10892D01*
X51774D01*
Y-10858D01*
Y-10823D01*
X51809D01*
Y-10788D01*
X51844D01*
Y-10753D01*
Y-10718D01*
X51878D01*
Y-10683D01*
X51948D01*
Y-10718D01*
X51983D01*
Y-10683D01*
X51948D01*
Y-10649D01*
X51983D01*
Y-10614D01*
X52192D01*
Y-10649D01*
D02*
G37*
G36*
X62888Y-10230D02*
X62923D01*
Y-10265D01*
Y-10300D01*
Y-10335D01*
X62958D01*
Y-10370D01*
Y-10405D01*
X62993D01*
Y-10440D01*
Y-10474D01*
X62958D01*
Y-10509D01*
X62993D01*
Y-10544D01*
X63028D01*
Y-10579D01*
Y-10614D01*
Y-10649D01*
Y-10683D01*
X63062D01*
Y-10718D01*
Y-10753D01*
Y-10788D01*
Y-10823D01*
Y-10858D01*
Y-10892D01*
X63097D01*
Y-10927D01*
Y-10962D01*
Y-10997D01*
Y-11032D01*
Y-11067D01*
Y-11101D01*
Y-11136D01*
Y-11171D01*
Y-11206D01*
Y-11241D01*
Y-11276D01*
Y-11310D01*
Y-11345D01*
Y-11380D01*
Y-11415D01*
X63028D01*
Y-11450D01*
X63062D01*
Y-11485D01*
Y-11519D01*
Y-11554D01*
Y-11589D01*
Y-11624D01*
X63028D01*
Y-11659D01*
Y-11694D01*
Y-11729D01*
Y-11763D01*
X62993D01*
Y-11798D01*
Y-11833D01*
Y-11868D01*
X62958D01*
Y-11903D01*
Y-11938D01*
X62923D01*
Y-11972D01*
Y-12007D01*
X62888D01*
Y-12042D01*
Y-12077D01*
X62853D01*
Y-12112D01*
Y-12147D01*
X62818D01*
Y-12182D01*
Y-12216D01*
X62784D01*
Y-12251D01*
Y-12286D01*
X62749D01*
Y-12321D01*
Y-12356D01*
X62714D01*
Y-12391D01*
Y-12425D01*
X62679D01*
Y-12460D01*
Y-12495D01*
X62644D01*
Y-12530D01*
Y-12565D01*
X62609D01*
Y-12600D01*
Y-12634D01*
X62575D01*
Y-12669D01*
Y-12704D01*
X62540D01*
Y-12739D01*
Y-12774D01*
X62505D01*
Y-12809D01*
Y-12844D01*
X62470D01*
Y-12878D01*
Y-12913D01*
Y-12948D01*
X62400D01*
Y-12983D01*
X62435D01*
Y-13018D01*
X62400D01*
Y-13052D01*
Y-13087D01*
X62366D01*
Y-13122D01*
Y-13157D01*
X62331D01*
Y-13192D01*
Y-13227D01*
X62296D01*
Y-13262D01*
Y-13296D01*
X62226D01*
Y-13331D01*
X62261D01*
Y-13366D01*
X62226D01*
Y-13401D01*
Y-13436D01*
X62191D01*
Y-13471D01*
Y-13506D01*
X62156D01*
Y-13540D01*
Y-13575D01*
X62122D01*
Y-13610D01*
Y-13645D01*
X62087D01*
Y-13680D01*
Y-13714D01*
X62052D01*
Y-13749D01*
Y-13784D01*
X62017D01*
Y-13819D01*
Y-13854D01*
X61947D01*
Y-13889D01*
X61982D01*
Y-13924D01*
X61947D01*
Y-13958D01*
Y-13993D01*
X61913D01*
Y-14028D01*
Y-14063D01*
X61878D01*
Y-14098D01*
Y-14133D01*
X61843D01*
Y-14167D01*
Y-14202D01*
X61808D01*
Y-14237D01*
Y-14272D01*
X61773D01*
Y-14307D01*
Y-14342D01*
X61738D01*
Y-14377D01*
Y-14411D01*
Y-14446D01*
X61703D01*
Y-14481D01*
Y-14516D01*
X61669D01*
Y-14551D01*
Y-14586D01*
X61634D01*
Y-14620D01*
Y-14655D01*
X61599D01*
Y-14690D01*
Y-14725D01*
X61564D01*
Y-14760D01*
Y-14795D01*
X61529D01*
Y-14829D01*
Y-14864D01*
X61494D01*
Y-14899D01*
Y-14934D01*
X61460D01*
Y-14969D01*
Y-15004D01*
X61425D01*
Y-15039D01*
Y-15073D01*
X61390D01*
Y-15108D01*
Y-15143D01*
X61355D01*
Y-15178D01*
Y-15213D01*
X61320D01*
Y-15248D01*
Y-15282D01*
X61286D01*
Y-15317D01*
Y-15352D01*
X61251D01*
Y-15387D01*
Y-15422D01*
X61216D01*
Y-15457D01*
Y-15491D01*
X61181D01*
Y-15526D01*
Y-15561D01*
X61146D01*
Y-15596D01*
X61111D01*
Y-15631D01*
X61146D01*
Y-15666D01*
X61111D01*
Y-15700D01*
Y-15735D01*
X61076D01*
Y-15770D01*
Y-15805D01*
X61042D01*
Y-15840D01*
Y-15875D01*
X61007D01*
Y-15910D01*
Y-15944D01*
X60972D01*
Y-15979D01*
Y-16014D01*
X60937D01*
Y-16049D01*
Y-16084D01*
X60902D01*
Y-16119D01*
Y-16153D01*
X60867D01*
Y-16188D01*
Y-16223D01*
X60833D01*
Y-16258D01*
Y-16293D01*
X60798D01*
Y-16328D01*
Y-16363D01*
X60763D01*
Y-16397D01*
Y-16432D01*
X60728D01*
Y-16467D01*
Y-16502D01*
X60693D01*
Y-16537D01*
Y-16571D01*
X60658D01*
Y-16606D01*
Y-16641D01*
Y-16676D01*
X60624D01*
Y-16711D01*
Y-16746D01*
X60589D01*
Y-16781D01*
Y-16815D01*
X60554D01*
Y-16850D01*
Y-16885D01*
X60519D01*
Y-16920D01*
Y-16955D01*
X60484D01*
Y-16990D01*
Y-17024D01*
X60449D01*
Y-17059D01*
Y-17094D01*
X60414D01*
Y-17129D01*
Y-17164D01*
X60380D01*
Y-17199D01*
Y-17233D01*
X60345D01*
Y-17268D01*
Y-17303D01*
X60310D01*
Y-17338D01*
Y-17373D01*
X60275D01*
Y-17408D01*
Y-17443D01*
X60240D01*
Y-17477D01*
Y-17512D01*
X60205D01*
Y-17547D01*
Y-17582D01*
Y-17617D01*
X60171D01*
Y-17652D01*
Y-17686D01*
X60136D01*
Y-17721D01*
Y-17756D01*
X60101D01*
Y-17791D01*
Y-17826D01*
X60066D01*
Y-17861D01*
Y-17896D01*
X60031D01*
Y-17930D01*
Y-17965D01*
X59996D01*
Y-18000D01*
Y-18035D01*
X59961D01*
Y-18070D01*
Y-18104D01*
X59927D01*
Y-18139D01*
Y-18174D01*
X59892D01*
Y-18209D01*
Y-18244D01*
X59857D01*
Y-18279D01*
Y-18314D01*
X59822D01*
Y-18348D01*
Y-18383D01*
X59787D01*
Y-18418D01*
Y-18453D01*
Y-18488D01*
X59752D01*
Y-18523D01*
Y-18557D01*
X59718D01*
Y-18592D01*
Y-18627D01*
X59683D01*
Y-18662D01*
Y-18697D01*
X59648D01*
Y-18732D01*
Y-18767D01*
X59613D01*
Y-18801D01*
Y-18836D01*
X59578D01*
Y-18801D01*
X59543D01*
Y-18836D01*
X59578D01*
Y-18871D01*
Y-18906D01*
X59543D01*
Y-18941D01*
Y-18975D01*
X59509D01*
Y-19010D01*
Y-19045D01*
X59474D01*
Y-19010D01*
X59439D01*
Y-19045D01*
X59474D01*
Y-19080D01*
Y-19115D01*
X59439D01*
Y-19150D01*
Y-19185D01*
Y-19219D01*
X59404D01*
Y-19254D01*
Y-19289D01*
X59369D01*
Y-19254D01*
X59334D01*
Y-19289D01*
X59369D01*
Y-19324D01*
Y-19359D01*
X59299D01*
Y-19394D01*
X59334D01*
Y-19429D01*
X59265D01*
Y-19463D01*
X59299D01*
Y-19498D01*
X59265D01*
Y-19533D01*
Y-19568D01*
X59230D01*
Y-19603D01*
Y-19637D01*
X59195D01*
Y-19672D01*
Y-19707D01*
X59160D01*
Y-19742D01*
Y-19777D01*
Y-19812D01*
X59125D01*
Y-19847D01*
Y-19881D01*
X59091D01*
Y-19916D01*
Y-19951D01*
X59056D01*
Y-19986D01*
Y-20021D01*
X59021D01*
Y-20056D01*
Y-20090D01*
Y-20125D01*
Y-20160D01*
Y-20195D01*
Y-20230D01*
Y-20265D01*
Y-20300D01*
Y-20334D01*
Y-20369D01*
Y-20404D01*
Y-20439D01*
Y-20474D01*
Y-20508D01*
Y-20543D01*
X59056D01*
Y-20578D01*
Y-20613D01*
Y-20648D01*
Y-20683D01*
Y-20718D01*
Y-20752D01*
X59091D01*
Y-20787D01*
Y-20822D01*
Y-20857D01*
Y-20892D01*
Y-20927D01*
X59125D01*
Y-20962D01*
Y-20996D01*
Y-21031D01*
Y-21066D01*
Y-21101D01*
X59160D01*
Y-21136D01*
Y-21170D01*
Y-21205D01*
Y-21240D01*
X59195D01*
Y-21275D01*
Y-21310D01*
Y-21345D01*
Y-21380D01*
X59230D01*
Y-21414D01*
Y-21449D01*
Y-21484D01*
Y-21519D01*
X59265D01*
Y-21554D01*
X59230D01*
Y-21519D01*
X59195D01*
Y-21554D01*
X59230D01*
Y-21589D01*
X59265D01*
Y-21623D01*
Y-21658D01*
X59299D01*
Y-21693D01*
Y-21728D01*
Y-21763D01*
X59334D01*
Y-21798D01*
Y-21833D01*
Y-21867D01*
Y-21902D01*
X59369D01*
Y-21937D01*
X58010D01*
Y-21902D01*
X57976D01*
Y-21867D01*
X57941D01*
Y-21833D01*
X57871D01*
Y-21798D01*
X57836D01*
Y-21763D01*
X57801D01*
Y-21728D01*
X57732D01*
Y-21693D01*
X57697D01*
Y-21658D01*
X57662D01*
Y-21623D01*
X57627D01*
Y-21589D01*
X57557D01*
Y-21554D01*
X57523D01*
Y-21519D01*
X57488D01*
Y-21484D01*
X57418D01*
Y-21449D01*
X57383D01*
Y-21414D01*
X57314D01*
Y-21380D01*
X57279D01*
Y-21345D01*
X57244D01*
Y-21310D01*
X57174D01*
Y-21275D01*
X57139D01*
Y-21240D01*
X57070D01*
Y-21205D01*
X57035D01*
Y-21170D01*
X56965D01*
Y-21136D01*
X56930D01*
Y-21101D01*
X56861D01*
Y-21066D01*
X56826D01*
Y-21031D01*
X56756D01*
Y-20996D01*
X56686D01*
Y-20962D01*
Y-20927D01*
X56582D01*
Y-20892D01*
X56512D01*
Y-20857D01*
X56442D01*
Y-20822D01*
Y-20787D01*
X56408D01*
Y-20822D01*
X56373D01*
Y-20787D01*
X56303D01*
Y-20752D01*
X56234D01*
Y-20718D01*
X56164D01*
Y-20683D01*
X56094D01*
Y-20648D01*
X55990D01*
Y-20613D01*
X55850D01*
Y-20578D01*
X55467D01*
Y-20613D01*
X55328D01*
Y-20648D01*
X55223D01*
Y-20683D01*
X55153D01*
Y-20718D01*
X55049D01*
Y-20752D01*
X54979D01*
Y-20787D01*
X54909D01*
Y-20822D01*
X54875D01*
Y-20787D01*
X54840D01*
Y-20822D01*
Y-20857D01*
X54770D01*
Y-20892D01*
X54700D01*
Y-20927D01*
X54596D01*
Y-20962D01*
Y-20996D01*
X54526D01*
Y-21031D01*
X54457D01*
Y-21066D01*
X54422D01*
Y-21101D01*
X54352D01*
Y-21136D01*
X54282D01*
Y-21170D01*
X54248D01*
Y-21205D01*
X54178D01*
Y-21240D01*
X54143D01*
Y-21275D01*
X54073D01*
Y-21310D01*
X54039D01*
Y-21345D01*
X53969D01*
Y-21380D01*
X53934D01*
Y-21414D01*
X53829D01*
Y-21449D01*
Y-21484D01*
X53760D01*
Y-21519D01*
X53725D01*
Y-21554D01*
X53655D01*
Y-21589D01*
X53620D01*
Y-21623D01*
X53586D01*
Y-21658D01*
X53516D01*
Y-21693D01*
X53481D01*
Y-21728D01*
X53411D01*
Y-21763D01*
X53377D01*
Y-21798D01*
X53342D01*
Y-21833D01*
X53272D01*
Y-21867D01*
X53237D01*
Y-21902D01*
X53202D01*
Y-21937D01*
X51216D01*
Y-21902D01*
X51182D01*
Y-21867D01*
Y-21833D01*
Y-21798D01*
Y-21763D01*
X51216D01*
Y-21728D01*
Y-21693D01*
Y-21658D01*
Y-21623D01*
Y-21589D01*
X51251D01*
Y-21554D01*
Y-21519D01*
Y-21484D01*
Y-21449D01*
X51286D01*
Y-21414D01*
Y-21380D01*
Y-21345D01*
X51321D01*
Y-21380D01*
X51356D01*
Y-21345D01*
X51321D01*
Y-21310D01*
Y-21275D01*
Y-21240D01*
Y-21205D01*
X51356D01*
Y-21170D01*
Y-21136D01*
Y-21101D01*
X51391D01*
Y-21066D01*
Y-21031D01*
Y-20996D01*
X51425D01*
Y-20962D01*
Y-20927D01*
Y-20892D01*
X51460D01*
Y-20857D01*
Y-20822D01*
Y-20787D01*
X51495D01*
Y-20752D01*
Y-20718D01*
Y-20683D01*
X51600D01*
Y-20648D01*
X51530D01*
Y-20613D01*
Y-20578D01*
X51565D01*
Y-20543D01*
Y-20508D01*
Y-20474D01*
X51600D01*
Y-20439D01*
Y-20404D01*
X51635D01*
Y-20369D01*
Y-20334D01*
Y-20300D01*
X51669D01*
Y-20265D01*
Y-20230D01*
Y-20195D01*
X51704D01*
Y-20160D01*
Y-20125D01*
Y-20090D01*
X51739D01*
Y-20056D01*
Y-20021D01*
X51774D01*
Y-19986D01*
X51809D01*
Y-20021D01*
X51878D01*
Y-20056D01*
X51913D01*
Y-20090D01*
X51948D01*
Y-20125D01*
X51983D01*
Y-20160D01*
X52052D01*
Y-20195D01*
X52157D01*
Y-20230D01*
X57871D01*
Y-20195D01*
X57976D01*
Y-20160D01*
X58010D01*
Y-20125D01*
Y-20090D01*
X58045D01*
Y-20125D01*
X58080D01*
Y-20090D01*
X58045D01*
Y-20056D01*
Y-20021D01*
X58080D01*
Y-19986D01*
Y-19951D01*
X58115D01*
Y-19916D01*
Y-19881D01*
X58150D01*
Y-19847D01*
Y-19812D01*
X58185D01*
Y-19777D01*
Y-19742D01*
X58219D01*
Y-19777D01*
X58254D01*
Y-19742D01*
X58219D01*
Y-19707D01*
Y-19672D01*
X58254D01*
Y-19637D01*
Y-19603D01*
X58289D01*
Y-19568D01*
Y-19533D01*
X58324D01*
Y-19498D01*
Y-19463D01*
X58359D01*
Y-19429D01*
Y-19394D01*
Y-19359D01*
X58394D01*
Y-19324D01*
Y-19289D01*
X58429D01*
Y-19254D01*
Y-19219D01*
X58463D01*
Y-19185D01*
Y-19150D01*
X58498D01*
Y-19115D01*
Y-19080D01*
X58533D01*
Y-19045D01*
Y-19010D01*
X58568D01*
Y-18975D01*
Y-18941D01*
X58603D01*
Y-18906D01*
Y-18871D01*
X58637D01*
Y-18836D01*
Y-18801D01*
X58672D01*
Y-18767D01*
Y-18732D01*
X58707D01*
Y-18697D01*
Y-18662D01*
X58742D01*
Y-18627D01*
Y-18592D01*
X58777D01*
Y-18557D01*
Y-18523D01*
X58812D01*
Y-18488D01*
Y-18453D01*
X58847D01*
Y-18418D01*
Y-18383D01*
X58881D01*
Y-18348D01*
Y-18314D01*
X58916D01*
Y-18279D01*
X58951D01*
Y-18244D01*
Y-18209D01*
Y-18174D01*
X58986D01*
Y-18139D01*
Y-18104D01*
X59021D01*
Y-18070D01*
Y-18035D01*
X59056D01*
Y-18000D01*
Y-17965D01*
X59091D01*
Y-17930D01*
Y-17896D01*
X59125D01*
Y-17930D01*
X59160D01*
Y-17896D01*
X59125D01*
Y-17861D01*
Y-17826D01*
Y-17791D01*
X59160D01*
Y-17756D01*
Y-17721D01*
X59195D01*
Y-17686D01*
Y-17652D01*
X59230D01*
Y-17617D01*
Y-17582D01*
X59265D01*
Y-17547D01*
Y-17512D01*
X59299D01*
Y-17477D01*
Y-17443D01*
X59334D01*
Y-17408D01*
Y-17373D01*
X59369D01*
Y-17338D01*
Y-17303D01*
X59404D01*
Y-17268D01*
Y-17233D01*
X59439D01*
Y-17199D01*
Y-17164D01*
X59474D01*
Y-17129D01*
Y-17094D01*
X59509D01*
Y-17059D01*
Y-17024D01*
X59543D01*
Y-16990D01*
Y-16955D01*
X59578D01*
Y-16920D01*
Y-16885D01*
X59613D01*
Y-16850D01*
Y-16815D01*
X59648D01*
Y-16781D01*
Y-16746D01*
X59683D01*
Y-16711D01*
Y-16676D01*
X59718D01*
Y-16641D01*
Y-16606D01*
X59752D01*
Y-16571D01*
Y-16537D01*
X59787D01*
Y-16502D01*
Y-16467D01*
X59822D01*
Y-16432D01*
Y-16397D01*
X59857D01*
Y-16363D01*
Y-16328D01*
X59892D01*
Y-16293D01*
Y-16258D01*
X59927D01*
Y-16223D01*
Y-16188D01*
Y-16153D01*
X59961D01*
Y-16119D01*
Y-16084D01*
X59996D01*
Y-16049D01*
Y-16014D01*
X60031D01*
Y-15979D01*
Y-15944D01*
X60066D01*
Y-15910D01*
Y-15875D01*
X60101D01*
Y-15840D01*
Y-15805D01*
X60136D01*
Y-15770D01*
Y-15735D01*
X60205D01*
Y-15700D01*
X60171D01*
Y-15666D01*
X60205D01*
Y-15631D01*
Y-15596D01*
X60240D01*
Y-15561D01*
Y-15526D01*
X60275D01*
Y-15491D01*
Y-15457D01*
X60345D01*
Y-15422D01*
X60310D01*
Y-15387D01*
X60345D01*
Y-15422D01*
X60380D01*
Y-15387D01*
X60345D01*
Y-15352D01*
Y-15317D01*
X60380D01*
Y-15282D01*
Y-15248D01*
X60414D01*
Y-15213D01*
Y-15178D01*
X60484D01*
Y-15143D01*
X60449D01*
Y-15108D01*
X60484D01*
Y-15073D01*
Y-15039D01*
X60519D01*
Y-15004D01*
Y-14969D01*
X60554D01*
Y-14934D01*
Y-14899D01*
X60589D01*
Y-14864D01*
Y-14829D01*
X60624D01*
Y-14795D01*
Y-14760D01*
X60658D01*
Y-14725D01*
Y-14690D01*
X60693D01*
Y-14655D01*
Y-14620D01*
Y-14586D01*
X60728D01*
Y-14551D01*
Y-14516D01*
X60763D01*
Y-14481D01*
Y-14446D01*
X60798D01*
Y-14411D01*
Y-14377D01*
X60833D01*
Y-14342D01*
Y-14307D01*
X60867D01*
Y-14272D01*
Y-14237D01*
X60902D01*
Y-14202D01*
Y-14167D01*
X60937D01*
Y-14133D01*
Y-14098D01*
X60972D01*
Y-14063D01*
Y-14028D01*
X61007D01*
Y-13993D01*
Y-13958D01*
X61042D01*
Y-13924D01*
Y-13889D01*
X61076D01*
Y-13854D01*
Y-13819D01*
X61111D01*
Y-13784D01*
Y-13749D01*
X61146D01*
Y-13714D01*
Y-13680D01*
X61181D01*
Y-13645D01*
Y-13610D01*
X61216D01*
Y-13575D01*
Y-13540D01*
X61251D01*
Y-13506D01*
Y-13471D01*
X61286D01*
Y-13436D01*
Y-13401D01*
X61320D01*
Y-13366D01*
Y-13331D01*
X61355D01*
Y-13296D01*
Y-13262D01*
X61390D01*
Y-13227D01*
Y-13192D01*
X61425D01*
Y-13157D01*
Y-13122D01*
X61460D01*
Y-13087D01*
Y-13052D01*
X61494D01*
Y-13018D01*
Y-12983D01*
Y-12948D01*
X61529D01*
Y-12913D01*
Y-12878D01*
X61564D01*
Y-12844D01*
Y-12809D01*
X61599D01*
Y-12774D01*
Y-12739D01*
X61634D01*
Y-12704D01*
Y-12669D01*
X61669D01*
Y-12634D01*
Y-12600D01*
X61703D01*
Y-12565D01*
Y-12530D01*
X61738D01*
Y-12495D01*
Y-12460D01*
X61773D01*
Y-12425D01*
Y-12391D01*
X61808D01*
Y-12356D01*
Y-12321D01*
X61843D01*
Y-12286D01*
Y-12251D01*
X61878D01*
Y-12216D01*
Y-12182D01*
X61913D01*
Y-12147D01*
Y-12112D01*
X61947D01*
Y-12077D01*
Y-12042D01*
X61982D01*
Y-12007D01*
Y-11972D01*
X62017D01*
Y-11938D01*
Y-11903D01*
X62052D01*
Y-11868D01*
Y-11833D01*
X62087D01*
Y-11798D01*
Y-11763D01*
X62122D01*
Y-11729D01*
Y-11694D01*
X62156D01*
Y-11659D01*
Y-11624D01*
X62191D01*
Y-11589D01*
Y-11554D01*
X62226D01*
Y-11519D01*
Y-11485D01*
X62261D01*
Y-11450D01*
Y-11415D01*
X62296D01*
Y-11380D01*
X62331D01*
Y-11345D01*
X62296D01*
Y-11310D01*
X62331D01*
Y-11276D01*
Y-11241D01*
X62366D01*
Y-11206D01*
Y-11171D01*
X62400D01*
Y-11136D01*
Y-11101D01*
X62435D01*
Y-11067D01*
Y-11032D01*
X62470D01*
Y-10997D01*
Y-10962D01*
X62505D01*
Y-10927D01*
Y-10892D01*
X62540D01*
Y-10858D01*
Y-10823D01*
X62575D01*
Y-10788D01*
Y-10753D01*
X62609D01*
Y-10718D01*
Y-10683D01*
X62644D01*
Y-10649D01*
Y-10614D01*
X62679D01*
Y-10579D01*
Y-10544D01*
X62714D01*
Y-10509D01*
Y-10474D01*
X62749D01*
Y-10440D01*
Y-10405D01*
X62784D01*
Y-10370D01*
Y-10335D01*
X62818D01*
Y-10300D01*
Y-10265D01*
X62853D01*
Y-10230D01*
Y-10196D01*
X62888D01*
Y-10230D01*
D02*
G37*
G36*
X57209Y-13854D02*
X57453D01*
Y-13889D01*
X57592D01*
Y-13924D01*
X57697D01*
Y-13958D01*
X57732D01*
Y-13993D01*
X57697D01*
Y-14028D01*
X57662D01*
Y-14063D01*
X57627D01*
Y-14098D01*
Y-14133D01*
X57592D01*
Y-14167D01*
X57557D01*
Y-14202D01*
X57523D01*
Y-14237D01*
X57488D01*
Y-14272D01*
X57453D01*
Y-14307D01*
Y-14342D01*
X57418D01*
Y-14377D01*
X57383D01*
Y-14411D01*
X57348D01*
Y-14446D01*
Y-14481D01*
X57314D01*
Y-14516D01*
X57279D01*
Y-14551D01*
Y-14586D01*
X57244D01*
Y-14620D01*
X57209D01*
Y-14655D01*
Y-14690D01*
X57174D01*
Y-14725D01*
X57139D01*
Y-14760D01*
Y-14795D01*
X57104D01*
Y-14829D01*
X57070D01*
Y-14864D01*
Y-14899D01*
X57035D01*
Y-14934D01*
Y-14969D01*
X57000D01*
Y-15004D01*
Y-15039D01*
X56965D01*
Y-15073D01*
Y-15108D01*
X56930D01*
Y-15143D01*
Y-15178D01*
X56896D01*
Y-15213D01*
Y-15248D01*
X56861D01*
Y-15282D01*
Y-15317D01*
X56826D01*
Y-15352D01*
Y-15387D01*
X56791D01*
Y-15422D01*
Y-15457D01*
X56756D01*
Y-15491D01*
Y-15526D01*
X56721D01*
Y-15561D01*
Y-15596D01*
Y-15631D01*
X56686D01*
Y-15666D01*
Y-15700D01*
Y-15735D01*
X56652D01*
Y-15770D01*
X56617D01*
Y-15805D01*
Y-15840D01*
Y-15875D01*
Y-15910D01*
Y-15944D01*
X56582D01*
Y-15979D01*
X56547D01*
Y-16014D01*
X56582D01*
Y-16049D01*
X56547D01*
Y-16084D01*
Y-16119D01*
Y-16153D01*
Y-16188D01*
Y-16223D01*
X56477D01*
Y-16258D01*
X56512D01*
Y-16293D01*
Y-16328D01*
Y-16363D01*
Y-16397D01*
Y-16432D01*
X56477D01*
Y-16467D01*
Y-16502D01*
Y-16537D01*
Y-16571D01*
Y-16606D01*
Y-16641D01*
Y-16676D01*
Y-16711D01*
Y-16746D01*
Y-16781D01*
Y-16815D01*
Y-16850D01*
Y-16885D01*
Y-16920D01*
Y-16955D01*
Y-16990D01*
Y-17024D01*
Y-17059D01*
Y-17094D01*
Y-17129D01*
Y-17164D01*
Y-17199D01*
X56512D01*
Y-17233D01*
Y-17268D01*
Y-17303D01*
X56477D01*
Y-17338D01*
X56512D01*
Y-17373D01*
X56477D01*
Y-17338D01*
X56442D01*
Y-17303D01*
X56373D01*
Y-17268D01*
X56303D01*
Y-17233D01*
X56268D01*
Y-17199D01*
X56199D01*
Y-17164D01*
X56129D01*
Y-17129D01*
X56059D01*
Y-17094D01*
X55990D01*
Y-17059D01*
X55885D01*
Y-17024D01*
X55815D01*
Y-16990D01*
X55711D01*
Y-16955D01*
X55641D01*
Y-16920D01*
X55537D01*
Y-16885D01*
X55432D01*
Y-16850D01*
X55293D01*
Y-16815D01*
X55153D01*
Y-16781D01*
X55014D01*
Y-16746D01*
X54840D01*
Y-16711D01*
X54631D01*
Y-16676D01*
X54317D01*
Y-16641D01*
X54178D01*
Y-16606D01*
X54143D01*
Y-16641D01*
X54039D01*
Y-16606D01*
Y-16571D01*
X54073D01*
Y-16537D01*
Y-16502D01*
Y-16467D01*
Y-16432D01*
Y-16397D01*
X54004D01*
Y-16363D01*
X53969D01*
Y-16328D01*
X53899D01*
Y-16293D01*
X53829D01*
Y-16258D01*
X53760D01*
Y-16223D01*
X53725D01*
Y-16188D01*
X53655D01*
Y-16153D01*
X53586D01*
Y-16119D01*
X53551D01*
Y-16084D01*
X53481D01*
Y-16049D01*
X53411D01*
Y-16014D01*
X53377D01*
Y-15979D01*
X53307D01*
Y-15944D01*
X53272D01*
Y-15910D01*
X53202D01*
Y-15875D01*
X53133D01*
Y-15840D01*
X53098D01*
Y-15805D01*
Y-15770D01*
X53063D01*
Y-15805D01*
X53028D01*
Y-15770D01*
X52993D01*
Y-15735D01*
X52924D01*
Y-15700D01*
X52889D01*
Y-15666D01*
X52819D01*
Y-15631D01*
X52784D01*
Y-15596D01*
X52715D01*
Y-15561D01*
X52680D01*
Y-15526D01*
X52610D01*
Y-15491D01*
X52575D01*
Y-15457D01*
X52505D01*
Y-15422D01*
X52471D01*
Y-15387D01*
X52401D01*
Y-15352D01*
X52366D01*
Y-15317D01*
X52331D01*
Y-15282D01*
X52262D01*
Y-15248D01*
Y-15213D01*
Y-15178D01*
Y-15143D01*
Y-15108D01*
Y-15073D01*
Y-15039D01*
X52297D01*
Y-15004D01*
Y-14969D01*
Y-14934D01*
Y-14899D01*
X52331D01*
Y-14864D01*
Y-14829D01*
X52366D01*
Y-14795D01*
Y-14760D01*
X52401D01*
Y-14725D01*
Y-14690D01*
X52436D01*
Y-14655D01*
Y-14620D01*
X52471D01*
Y-14586D01*
Y-14551D01*
X52505D01*
Y-14516D01*
X52540D01*
Y-14481D01*
X52575D01*
Y-14446D01*
X52610D01*
Y-14411D01*
Y-14377D01*
X52645D01*
Y-14342D01*
X52680D01*
Y-14307D01*
X52715D01*
Y-14272D01*
X52749D01*
Y-14237D01*
X52784D01*
Y-14202D01*
X52854D01*
Y-14167D01*
X52889D01*
Y-14133D01*
X52924D01*
Y-14098D01*
X52958D01*
Y-14063D01*
X53028D01*
Y-14028D01*
X53063D01*
Y-13993D01*
X53133D01*
Y-13958D01*
X53237D01*
Y-13993D01*
X53307D01*
Y-14028D01*
X53342D01*
Y-14063D01*
X53411D01*
Y-14098D01*
X53446D01*
Y-14133D01*
X53516D01*
Y-14167D01*
X53586D01*
Y-14202D01*
X53620D01*
Y-14237D01*
X53690D01*
Y-14272D01*
X53760D01*
Y-14307D01*
X53795D01*
Y-14342D01*
X53864D01*
Y-14377D01*
X53934D01*
Y-14411D01*
X53969D01*
Y-14446D01*
X54039D01*
Y-14481D01*
X54108D01*
Y-14516D01*
X54143D01*
Y-14551D01*
X54213D01*
Y-14586D01*
X54248D01*
Y-14620D01*
X54317D01*
Y-14655D01*
X54387D01*
Y-14690D01*
X54422D01*
Y-14725D01*
X54491D01*
Y-14760D01*
X54561D01*
Y-14795D01*
X54596D01*
Y-14829D01*
X54666D01*
Y-14864D01*
X54700D01*
Y-14899D01*
X54770D01*
Y-14934D01*
X54840D01*
Y-14969D01*
X54909D01*
Y-15004D01*
Y-15039D01*
X54944D01*
Y-15004D01*
X54979D01*
Y-14969D01*
Y-14934D01*
X55014D01*
Y-14899D01*
Y-14864D01*
X55049D01*
Y-14829D01*
X55084D01*
Y-14795D01*
Y-14760D01*
X55119D01*
Y-14725D01*
X55153D01*
Y-14690D01*
Y-14655D01*
X55188D01*
Y-14620D01*
X55223D01*
Y-14586D01*
X55258D01*
Y-14551D01*
X55293D01*
Y-14516D01*
X55328D01*
Y-14481D01*
X55362D01*
Y-14446D01*
X55397D01*
Y-14411D01*
X55432D01*
Y-14377D01*
X55467D01*
Y-14342D01*
X55537D01*
Y-14307D01*
X55572D01*
Y-14272D01*
X55606D01*
Y-14237D01*
X55676D01*
Y-14202D01*
X55711D01*
Y-14167D01*
X55781D01*
Y-14133D01*
X55850D01*
Y-14098D01*
X55920D01*
Y-14063D01*
X55990D01*
Y-14028D01*
X56059D01*
Y-13993D01*
X56164D01*
Y-13958D01*
X56268D01*
Y-13924D01*
X56408D01*
Y-13889D01*
X56582D01*
Y-13854D01*
X56896D01*
Y-13819D01*
X57209D01*
Y-13854D01*
D02*
G37*
G36*
X56721Y-8279D02*
X56791D01*
Y-8314D01*
X56686D01*
Y-8349D01*
X56617D01*
Y-8384D01*
X56547D01*
Y-8419D01*
X56512D01*
Y-8454D01*
X56477D01*
Y-8488D01*
Y-8523D01*
X56442D01*
Y-8558D01*
Y-8593D01*
X56408D01*
Y-8628D01*
Y-8663D01*
Y-8697D01*
Y-8732D01*
Y-8767D01*
X56442D01*
Y-8802D01*
Y-8837D01*
X56477D01*
Y-8872D01*
Y-8907D01*
X56512D01*
Y-8941D01*
X56547D01*
Y-8976D01*
X56582D01*
Y-9011D01*
X56652D01*
Y-9046D01*
X57209D01*
Y-9081D01*
X57383D01*
Y-9116D01*
X57523D01*
Y-9150D01*
X57627D01*
Y-9185D01*
X57732D01*
Y-9220D01*
X57801D01*
Y-9255D01*
X57871D01*
Y-9290D01*
X57941D01*
Y-9325D01*
X58010D01*
Y-9359D01*
X58080D01*
Y-9394D01*
X58115D01*
Y-9429D01*
X58185D01*
Y-9464D01*
X58219D01*
Y-9499D01*
X58254D01*
Y-9534D01*
X58324D01*
Y-9568D01*
X58359D01*
Y-9603D01*
X58394D01*
Y-9638D01*
X58429D01*
Y-9673D01*
X58463D01*
Y-9708D01*
X58498D01*
Y-9743D01*
X58533D01*
Y-9777D01*
X58568D01*
Y-9812D01*
X58603D01*
Y-9847D01*
X58637D01*
Y-9882D01*
X58672D01*
Y-9917D01*
Y-9952D01*
X58707D01*
Y-9986D01*
X58742D01*
Y-10021D01*
X58777D01*
Y-10056D01*
Y-10091D01*
X58812D01*
Y-10126D01*
X58847D01*
Y-10161D01*
Y-10196D01*
X58881D01*
Y-10230D01*
Y-10265D01*
X58916D01*
Y-10300D01*
Y-10335D01*
X58951D01*
Y-10370D01*
Y-10405D01*
X58986D01*
Y-10440D01*
Y-10474D01*
X59021D01*
Y-10509D01*
Y-10544D01*
Y-10579D01*
X59056D01*
Y-10614D01*
Y-10649D01*
Y-10683D01*
X59091D01*
Y-10718D01*
X59056D01*
Y-10753D01*
X59091D01*
Y-10788D01*
Y-10823D01*
X59125D01*
Y-10858D01*
X59091D01*
Y-10892D01*
X59125D01*
Y-10927D01*
X59091D01*
Y-10962D01*
X59125D01*
Y-10997D01*
X59160D01*
Y-11032D01*
Y-11067D01*
Y-11101D01*
Y-11136D01*
Y-11171D01*
Y-11206D01*
Y-11241D01*
Y-11276D01*
Y-11310D01*
Y-11345D01*
Y-11380D01*
Y-11415D01*
Y-11450D01*
Y-11485D01*
Y-11519D01*
Y-11554D01*
Y-11589D01*
Y-11624D01*
Y-11659D01*
Y-11694D01*
X59125D01*
Y-11729D01*
Y-11763D01*
Y-11798D01*
Y-11833D01*
Y-11868D01*
X59091D01*
Y-11903D01*
Y-11938D01*
Y-11972D01*
Y-12007D01*
X59056D01*
Y-12042D01*
Y-12077D01*
Y-12112D01*
X59021D01*
Y-12147D01*
Y-12182D01*
X58986D01*
Y-12147D01*
X58951D01*
Y-12182D01*
X58986D01*
Y-12216D01*
Y-12251D01*
Y-12286D01*
X58951D01*
Y-12321D01*
Y-12356D01*
X58916D01*
Y-12321D01*
X58881D01*
Y-12356D01*
X58916D01*
Y-12391D01*
Y-12425D01*
X58881D01*
Y-12460D01*
Y-12495D01*
X58847D01*
Y-12530D01*
X58812D01*
Y-12565D01*
Y-12600D01*
X58777D01*
Y-12634D01*
X58742D01*
Y-12669D01*
Y-12704D01*
X58707D01*
Y-12739D01*
X58672D01*
Y-12774D01*
X58637D01*
Y-12809D01*
Y-12844D01*
X58603D01*
Y-12878D01*
X58568D01*
Y-12913D01*
X58533D01*
Y-12948D01*
X58498D01*
Y-12983D01*
X58463D01*
Y-13018D01*
X58429D01*
Y-13052D01*
X58394D01*
Y-13087D01*
X58359D01*
Y-13122D01*
X58289D01*
Y-13157D01*
X58254D01*
Y-13192D01*
X58219D01*
Y-13227D01*
X58150D01*
Y-13262D01*
X58115D01*
Y-13296D01*
X58045D01*
Y-13331D01*
X57976D01*
Y-13366D01*
X57906D01*
Y-13401D01*
X57836D01*
Y-13436D01*
X57766D01*
Y-13471D01*
X57697D01*
Y-13506D01*
X57592D01*
Y-13540D01*
X57488D01*
Y-13575D01*
X57314D01*
Y-13610D01*
X57104D01*
Y-13645D01*
X56652D01*
Y-13610D01*
X56408D01*
Y-13575D01*
X56268D01*
Y-13540D01*
X56129D01*
Y-13506D01*
X56059D01*
Y-13471D01*
X55955D01*
Y-13436D01*
X55885D01*
Y-13401D01*
X55815D01*
Y-13366D01*
X55746D01*
Y-13331D01*
X55676D01*
Y-13296D01*
X55641D01*
Y-13262D01*
X55572D01*
Y-13227D01*
X55537D01*
Y-13192D01*
X55502D01*
Y-13157D01*
X55432D01*
Y-13122D01*
X55397D01*
Y-13087D01*
X55362D01*
Y-13052D01*
X55328D01*
Y-13018D01*
X55293D01*
Y-12983D01*
X55258D01*
Y-12948D01*
X55223D01*
Y-12913D01*
X55188D01*
Y-12878D01*
X55153D01*
Y-12844D01*
X55119D01*
Y-12809D01*
X55084D01*
Y-12774D01*
X55049D01*
Y-12739D01*
Y-12704D01*
X55014D01*
Y-12669D01*
X54979D01*
Y-12634D01*
X54944D01*
Y-12600D01*
Y-12565D01*
X54909D01*
Y-12530D01*
X54875D01*
Y-12495D01*
Y-12460D01*
X54840D01*
Y-12425D01*
Y-12391D01*
X54805D01*
Y-12356D01*
Y-12321D01*
X54770D01*
Y-12286D01*
Y-12251D01*
X54735D01*
Y-12216D01*
Y-12182D01*
Y-12147D01*
X54700D01*
Y-12112D01*
X54735D01*
Y-12077D01*
X54700D01*
Y-12042D01*
X54666D01*
Y-12007D01*
Y-11972D01*
Y-11938D01*
Y-11903D01*
Y-11868D01*
X54631D01*
Y-11833D01*
Y-11798D01*
X54596D01*
Y-11763D01*
Y-11729D01*
Y-11694D01*
X54631D01*
Y-11659D01*
X54596D01*
Y-11624D01*
Y-11589D01*
Y-11554D01*
X54561D01*
Y-11519D01*
Y-11485D01*
Y-11450D01*
Y-11415D01*
Y-11380D01*
X54596D01*
Y-11345D01*
X54561D01*
Y-11310D01*
Y-11276D01*
Y-11241D01*
Y-11206D01*
Y-11171D01*
Y-11136D01*
X54596D01*
Y-11101D01*
Y-11067D01*
Y-11032D01*
Y-10997D01*
Y-10962D01*
Y-10927D01*
Y-10892D01*
X54631D01*
Y-10858D01*
Y-10823D01*
Y-10788D01*
Y-10753D01*
X54666D01*
Y-10718D01*
Y-10683D01*
Y-10649D01*
Y-10614D01*
X54700D01*
Y-10579D01*
Y-10544D01*
X54735D01*
Y-10579D01*
X54770D01*
Y-10544D01*
X54735D01*
Y-10509D01*
Y-10474D01*
Y-10440D01*
X54805D01*
Y-10405D01*
X54770D01*
Y-10370D01*
X54805D01*
Y-10335D01*
Y-10300D01*
X54840D01*
Y-10265D01*
Y-10230D01*
X54875D01*
Y-10196D01*
Y-10161D01*
X54909D01*
Y-10126D01*
X54944D01*
Y-10091D01*
Y-10056D01*
X54979D01*
Y-10021D01*
X55014D01*
Y-9986D01*
Y-9952D01*
X55049D01*
Y-9917D01*
X55084D01*
Y-9882D01*
X55119D01*
Y-9847D01*
X55153D01*
Y-9812D01*
Y-9777D01*
X55188D01*
Y-9743D01*
X55223D01*
Y-9708D01*
X55258D01*
Y-9673D01*
X55293D01*
Y-9638D01*
X55328D01*
Y-9603D01*
X55397D01*
Y-9568D01*
X55432D01*
Y-9534D01*
X55467D01*
Y-9499D01*
X55502D01*
Y-9464D01*
X55572D01*
Y-9429D01*
X55606D01*
Y-9394D01*
X55676D01*
Y-9359D01*
X55746D01*
Y-9325D01*
X55781D01*
Y-9290D01*
X55850D01*
Y-9255D01*
X55955D01*
Y-9220D01*
Y-9185D01*
X55920D01*
Y-9150D01*
Y-9116D01*
X55885D01*
Y-9081D01*
X55850D01*
Y-9046D01*
Y-9011D01*
X55815D01*
Y-8976D01*
Y-8941D01*
Y-8907D01*
Y-8872D01*
Y-8837D01*
Y-8802D01*
Y-8767D01*
Y-8732D01*
Y-8697D01*
Y-8663D01*
Y-8628D01*
X55850D01*
Y-8593D01*
Y-8558D01*
X55885D01*
Y-8523D01*
Y-8488D01*
X55920D01*
Y-8454D01*
X55955D01*
Y-8419D01*
X55990D01*
Y-8384D01*
X56059D01*
Y-8349D01*
X56094D01*
Y-8314D01*
X56164D01*
Y-8279D01*
X56268D01*
Y-8245D01*
X56721D01*
Y-8279D01*
D02*
G37*
G36*
X51878Y-16641D02*
X52192D01*
Y-16676D01*
X52366D01*
Y-16711D01*
X52505D01*
Y-16746D01*
X52540D01*
Y-16781D01*
X52401D01*
Y-16815D01*
X52262D01*
Y-16850D01*
X52227D01*
Y-16815D01*
X52192D01*
Y-16850D01*
X52157D01*
Y-16885D01*
X52087D01*
Y-16920D01*
X51983D01*
Y-16955D01*
X51913D01*
Y-16990D01*
X51844D01*
Y-17024D01*
X51774D01*
Y-17059D01*
X51704D01*
Y-17094D01*
X51669D01*
Y-17129D01*
X51600D01*
Y-17164D01*
X51565D01*
Y-17199D01*
X51495D01*
Y-17233D01*
X51460D01*
Y-17268D01*
X51425D01*
Y-17303D01*
X51391D01*
Y-17338D01*
X51356D01*
Y-17373D01*
Y-17408D01*
X51321D01*
Y-17443D01*
X51286D01*
Y-17477D01*
X51251D01*
Y-17512D01*
Y-17547D01*
X51216D01*
Y-17582D01*
Y-17617D01*
X51182D01*
Y-17652D01*
Y-17686D01*
Y-17721D01*
X51147D01*
Y-17756D01*
Y-17791D01*
Y-17826D01*
X51042D01*
Y-17861D01*
X51112D01*
Y-17896D01*
Y-17930D01*
X51077D01*
Y-17965D01*
Y-18000D01*
Y-18035D01*
Y-18070D01*
Y-18104D01*
Y-18139D01*
X51042D01*
Y-18174D01*
Y-18209D01*
Y-18244D01*
Y-18279D01*
Y-18314D01*
Y-18348D01*
Y-18383D01*
Y-18418D01*
Y-18453D01*
Y-18488D01*
Y-18523D01*
Y-18557D01*
Y-18592D01*
Y-18627D01*
Y-18662D01*
X51077D01*
Y-18697D01*
Y-18732D01*
Y-18767D01*
Y-18801D01*
Y-18836D01*
X51112D01*
Y-18871D01*
Y-18906D01*
Y-18941D01*
Y-18975D01*
X51147D01*
Y-19010D01*
Y-19045D01*
Y-19080D01*
X51182D01*
Y-19115D01*
Y-19150D01*
X51216D01*
Y-19185D01*
Y-19219D01*
Y-19254D01*
Y-19289D01*
X51182D01*
Y-19324D01*
Y-19359D01*
Y-19394D01*
Y-19429D01*
X51147D01*
Y-19463D01*
Y-19498D01*
Y-19533D01*
Y-19568D01*
Y-19603D01*
Y-19637D01*
Y-19672D01*
X51112D01*
Y-19707D01*
Y-19742D01*
Y-19777D01*
Y-19812D01*
Y-19847D01*
Y-19881D01*
Y-19916D01*
Y-19951D01*
Y-19986D01*
Y-20021D01*
Y-20056D01*
Y-20090D01*
Y-20125D01*
Y-20160D01*
Y-20195D01*
Y-20230D01*
Y-20265D01*
Y-20300D01*
Y-20334D01*
Y-20369D01*
Y-20404D01*
Y-20439D01*
Y-20474D01*
Y-20508D01*
Y-20543D01*
Y-20578D01*
Y-20613D01*
Y-20648D01*
Y-20683D01*
Y-20718D01*
Y-20752D01*
Y-20787D01*
X51147D01*
Y-20822D01*
Y-20857D01*
X51112D01*
Y-20892D01*
X51007D01*
Y-20927D01*
X50903D01*
Y-20892D01*
X50868D01*
Y-20927D01*
X50833D01*
Y-20892D01*
X50798D01*
Y-20927D01*
X50833D01*
Y-20962D01*
X50206D01*
Y-20927D01*
X49927D01*
Y-20892D01*
X49788D01*
Y-20857D01*
X49753D01*
Y-20892D01*
X49718D01*
Y-20857D01*
X49544D01*
Y-20822D01*
X49405D01*
Y-20787D01*
X49265D01*
Y-20752D01*
X49230D01*
Y-20718D01*
X49196D01*
Y-20752D01*
X49161D01*
Y-20718D01*
X49056D01*
Y-20683D01*
X48952D01*
Y-20648D01*
X48882D01*
Y-20613D01*
X48777D01*
Y-20578D01*
X48708D01*
Y-20543D01*
X48638D01*
Y-20508D01*
X48568D01*
Y-20474D01*
X48499D01*
Y-20439D01*
X48464D01*
Y-20404D01*
X48394D01*
Y-20369D01*
X48359D01*
Y-20334D01*
X48290D01*
Y-20300D01*
X48255D01*
Y-20265D01*
X48220D01*
Y-20230D01*
X48185D01*
Y-20195D01*
X48150D01*
Y-20160D01*
X48116D01*
Y-20125D01*
Y-20090D01*
Y-20056D01*
X48150D01*
Y-20021D01*
Y-19986D01*
X48185D01*
Y-19951D01*
Y-19916D01*
X48220D01*
Y-19881D01*
Y-19847D01*
X48255D01*
Y-19812D01*
X48290D01*
Y-19777D01*
X48324D01*
Y-19742D01*
X48359D01*
Y-19707D01*
X48429D01*
Y-19672D01*
X48464D01*
Y-19637D01*
X48534D01*
Y-19603D01*
X48603D01*
Y-19568D01*
X48708D01*
Y-19533D01*
X48812D01*
Y-19498D01*
X48952D01*
Y-19463D01*
X49126D01*
Y-19498D01*
X49161D01*
Y-19463D01*
X49196D01*
Y-19429D01*
X49439D01*
Y-19394D01*
Y-19359D01*
Y-19324D01*
Y-19289D01*
Y-19254D01*
Y-19219D01*
Y-19185D01*
X49474D01*
Y-19150D01*
Y-19115D01*
Y-19080D01*
Y-19045D01*
Y-19010D01*
Y-18975D01*
Y-18941D01*
Y-18906D01*
Y-18871D01*
X49509D01*
Y-18836D01*
Y-18801D01*
Y-18767D01*
Y-18732D01*
Y-18697D01*
X49544D01*
Y-18662D01*
Y-18627D01*
Y-18592D01*
Y-18557D01*
X49579D01*
Y-18523D01*
Y-18488D01*
Y-18453D01*
Y-18418D01*
X49614D01*
Y-18383D01*
Y-18348D01*
Y-18314D01*
X49648D01*
Y-18279D01*
Y-18244D01*
Y-18209D01*
X49683D01*
Y-18174D01*
Y-18139D01*
X49718D01*
Y-18104D01*
Y-18070D01*
Y-18035D01*
X49753D01*
Y-18000D01*
Y-17965D01*
X49788D01*
Y-17930D01*
Y-17896D01*
X49823D01*
Y-17861D01*
X49858D01*
Y-17826D01*
Y-17791D01*
X49892D01*
Y-17756D01*
Y-17721D01*
X49927D01*
Y-17686D01*
X49962D01*
Y-17652D01*
Y-17617D01*
X49997D01*
Y-17582D01*
X50032D01*
Y-17547D01*
Y-17512D01*
X50067D01*
Y-17477D01*
X50102D01*
Y-17443D01*
X50136D01*
Y-17408D01*
X50171D01*
Y-17373D01*
X50206D01*
Y-17338D01*
Y-17303D01*
X50241D01*
Y-17268D01*
X50276D01*
Y-17233D01*
X50310D01*
Y-17199D01*
X50380D01*
Y-17164D01*
X50415D01*
Y-17129D01*
X50450D01*
Y-17094D01*
X50485D01*
Y-17059D01*
X50520D01*
Y-17024D01*
X50554D01*
Y-17059D01*
X50589D01*
Y-17024D01*
Y-16990D01*
X50624D01*
Y-17024D01*
X50659D01*
Y-16990D01*
X50624D01*
Y-16955D01*
X50694D01*
Y-16920D01*
X50729D01*
Y-16885D01*
X50798D01*
Y-16850D01*
X50833D01*
Y-16885D01*
X50868D01*
Y-16850D01*
Y-16815D01*
X50938D01*
Y-16781D01*
X51007D01*
Y-16746D01*
X51077D01*
Y-16711D01*
X51182D01*
Y-16676D01*
X51286D01*
Y-16711D01*
X51321D01*
Y-16676D01*
X51356D01*
Y-16641D01*
X51600D01*
Y-16606D01*
X51878D01*
Y-16641D01*
D02*
G37*
G36*
X52052Y-13157D02*
X52192D01*
Y-13192D01*
X52262D01*
Y-13227D01*
X52331D01*
Y-13262D01*
X52366D01*
Y-13296D01*
X52401D01*
Y-13331D01*
X52436D01*
Y-13366D01*
X52471D01*
Y-13401D01*
X52505D01*
Y-13436D01*
X52540D01*
Y-13471D01*
Y-13506D01*
X52575D01*
Y-13540D01*
X52610D01*
Y-13575D01*
Y-13610D01*
Y-13645D01*
X52645D01*
Y-13680D01*
Y-13714D01*
Y-13749D01*
X52680D01*
Y-13784D01*
X52645D01*
Y-13819D01*
X52680D01*
Y-13854D01*
Y-13889D01*
Y-13924D01*
Y-13958D01*
Y-13993D01*
Y-14028D01*
X52645D01*
Y-14063D01*
Y-14098D01*
Y-14133D01*
Y-14167D01*
X52610D01*
Y-14202D01*
Y-14237D01*
X52575D01*
Y-14272D01*
Y-14307D01*
X52540D01*
Y-14342D01*
X52505D01*
Y-14377D01*
Y-14411D01*
X52471D01*
Y-14446D01*
X52436D01*
Y-14481D01*
X52401D01*
Y-14516D01*
X52331D01*
Y-14551D01*
X52297D01*
Y-14586D01*
X52227D01*
Y-14620D01*
X52122D01*
Y-14655D01*
X51948D01*
Y-14690D01*
X51844D01*
Y-14655D01*
X51669D01*
Y-14620D01*
X51565D01*
Y-14586D01*
X51495D01*
Y-14551D01*
X51460D01*
Y-14516D01*
X51391D01*
Y-14481D01*
X51356D01*
Y-14446D01*
X51321D01*
Y-14411D01*
X51286D01*
Y-14377D01*
Y-14342D01*
X51251D01*
Y-14307D01*
X51216D01*
Y-14272D01*
Y-14237D01*
X51182D01*
Y-14202D01*
Y-14167D01*
X51147D01*
Y-14133D01*
Y-14098D01*
Y-14063D01*
Y-14028D01*
X51112D01*
Y-13993D01*
Y-13958D01*
Y-13924D01*
Y-13889D01*
Y-13854D01*
Y-13819D01*
Y-13784D01*
X51147D01*
Y-13749D01*
Y-13714D01*
Y-13680D01*
Y-13645D01*
X51182D01*
Y-13610D01*
Y-13575D01*
Y-13540D01*
X51216D01*
Y-13506D01*
X51251D01*
Y-13471D01*
Y-13436D01*
X51286D01*
Y-13401D01*
X51321D01*
Y-13366D01*
X51356D01*
Y-13331D01*
X51391D01*
Y-13296D01*
X51425D01*
Y-13262D01*
X51495D01*
Y-13227D01*
X51530D01*
Y-13192D01*
X51600D01*
Y-13157D01*
X51739D01*
Y-13122D01*
X52052D01*
Y-13157D01*
D02*
G37*
%LPC*%
G36*
X52645Y-16990D02*
X52610D01*
Y-17024D01*
X52645D01*
Y-16990D01*
D02*
G37*
G36*
X54073Y-16850D02*
X54039D01*
Y-16885D01*
X54073D01*
Y-16850D01*
D02*
G37*
G36*
X54004D02*
X53969D01*
Y-16885D01*
X54004D01*
Y-16850D01*
D02*
G37*
G36*
X54875Y-16955D02*
X54840D01*
Y-16990D01*
X54875D01*
Y-16955D01*
D02*
G37*
G36*
X51844Y-17408D02*
X51809D01*
Y-17443D01*
X51844D01*
Y-17408D01*
D02*
G37*
G36*
X55955Y-17303D02*
X55920D01*
Y-17338D01*
X55955D01*
Y-17303D01*
D02*
G37*
G36*
X55781Y-17268D02*
X55746D01*
Y-17303D01*
X55781D01*
Y-17268D01*
D02*
G37*
G36*
X56234Y-17477D02*
X56199D01*
Y-17512D01*
X56234D01*
Y-17477D01*
D02*
G37*
G36*
X51739D02*
X51704D01*
Y-17512D01*
X51739D01*
Y-17477D01*
D02*
G37*
G36*
X56930D02*
X56896D01*
Y-17512D01*
X56930D01*
Y-17477D01*
D02*
G37*
G36*
X56861Y-17443D02*
X56826D01*
Y-17477D01*
X56861D01*
Y-17443D01*
D02*
G37*
G36*
X54979Y-17024D02*
X54944D01*
Y-17059D01*
Y-17094D01*
X54979D01*
Y-17059D01*
Y-17024D01*
D02*
G37*
G36*
X54840Y-17059D02*
X54805D01*
Y-17094D01*
X54840D01*
Y-17059D01*
D02*
G37*
G36*
X55328D02*
X55293D01*
Y-17094D01*
X55328D01*
Y-17129D01*
X55362D01*
Y-17094D01*
X55328D01*
Y-17059D01*
D02*
G37*
G36*
X54840Y-17129D02*
X54805D01*
Y-17164D01*
X54840D01*
Y-17129D01*
D02*
G37*
G36*
X55676Y-17164D02*
X55641D01*
Y-17199D01*
X55676D01*
Y-17164D01*
D02*
G37*
G36*
X55258Y-17129D02*
X55223D01*
Y-17164D01*
X55258D01*
Y-17129D01*
D02*
G37*
G36*
X57139Y-15317D02*
X57104D01*
Y-15352D01*
X57139D01*
Y-15317D01*
D02*
G37*
G36*
X57314Y-15213D02*
X57279D01*
Y-15248D01*
X57314D01*
Y-15213D01*
D02*
G37*
G36*
X57557Y-14655D02*
X57523D01*
Y-14690D01*
X57557D01*
Y-14655D01*
D02*
G37*
G36*
X57453Y-14829D02*
X57418D01*
Y-14864D01*
X57453D01*
Y-14829D01*
D02*
G37*
G36*
X60136Y-14760D02*
X60101D01*
Y-14795D01*
X60136D01*
Y-14760D01*
D02*
G37*
G36*
X57139Y-15387D02*
X57104D01*
Y-15422D01*
X57139D01*
Y-15387D01*
D02*
G37*
G36*
X57070D02*
X57035D01*
Y-15422D01*
X57070D01*
Y-15387D01*
D02*
G37*
G36*
X57035Y-16014D02*
X57000D01*
Y-16049D01*
X57035D01*
Y-16014D01*
D02*
G37*
G36*
X57906Y-19533D02*
X57871D01*
Y-19568D01*
X57906D01*
Y-19533D01*
D02*
G37*
G36*
X57941Y-19707D02*
X57906D01*
Y-19742D01*
X57941D01*
Y-19707D01*
D02*
G37*
G36*
X51425Y-17756D02*
X51391D01*
Y-17791D01*
X51425D01*
Y-17756D01*
D02*
G37*
G36*
X56512D02*
X56477D01*
Y-17791D01*
X56512D01*
Y-17756D01*
D02*
G37*
G36*
X56617Y-17791D02*
X56582D01*
Y-17826D01*
X56617D01*
Y-17791D01*
D02*
G37*
G36*
X57035Y-17965D02*
X57000D01*
Y-18000D01*
X57035D01*
Y-17965D01*
D02*
G37*
G36*
X56686Y-17861D02*
X56652D01*
Y-17896D01*
X56686D01*
Y-17861D01*
D02*
G37*
G36*
X51530Y-17686D02*
X51495D01*
Y-17721D01*
X51530D01*
Y-17686D01*
D02*
G37*
G36*
X56826Y-17582D02*
X56791D01*
Y-17617D01*
X56826D01*
Y-17582D01*
D02*
G37*
G36*
X51565D02*
X51530D01*
Y-17617D01*
X51565D01*
Y-17582D01*
D02*
G37*
G36*
X56896D02*
X56861D01*
Y-17617D01*
X56896D01*
Y-17582D01*
D02*
G37*
G36*
X51635Y-17512D02*
X51600D01*
Y-17547D01*
X51635D01*
Y-17512D01*
D02*
G37*
G36*
X57035Y-17652D02*
X57000D01*
Y-17686D01*
X57035D01*
Y-17652D01*
D02*
G37*
G36*
X56512Y-17617D02*
X56477D01*
Y-17652D01*
X56512D01*
Y-17617D01*
D02*
G37*
G36*
X51530Y-19115D02*
X51495D01*
Y-19150D01*
X51530D01*
Y-19115D01*
D02*
G37*
G36*
X58185Y-19150D02*
X58150D01*
Y-19185D01*
X58185D01*
Y-19150D01*
D02*
G37*
G36*
Y-18975D02*
X58150D01*
Y-19010D01*
X58185D01*
Y-18975D01*
D02*
G37*
G36*
X51565Y-19219D02*
X51530D01*
Y-19254D01*
X51565D01*
Y-19219D01*
D02*
G37*
G36*
X51704Y-19429D02*
X51669D01*
Y-19463D01*
Y-19498D01*
X51704D01*
Y-19463D01*
Y-19429D01*
D02*
G37*
G36*
X51635Y-19289D02*
X51600D01*
Y-19324D01*
X51635D01*
Y-19289D01*
D02*
G37*
G36*
X51739Y-19324D02*
X51704D01*
Y-19359D01*
X51739D01*
Y-19324D01*
D02*
G37*
G36*
X58463Y-18592D02*
X58429D01*
Y-18627D01*
X58463D01*
Y-18592D01*
D02*
G37*
G36*
X56721Y-17965D02*
X56686D01*
Y-18000D01*
X56721D01*
Y-17965D01*
D02*
G37*
G36*
X51391Y-18104D02*
X51356D01*
Y-18139D01*
X51391D01*
Y-18104D01*
D02*
G37*
G36*
X51321Y-18732D02*
X51286D01*
Y-18767D01*
X51321D01*
Y-18732D01*
D02*
G37*
G36*
X61703Y-11868D02*
X61669D01*
Y-11903D01*
X61703D01*
Y-11868D01*
D02*
G37*
G36*
X59822D02*
X59787D01*
Y-11903D01*
X59822D01*
Y-11868D01*
D02*
G37*
G36*
X61634Y-11903D02*
X61599D01*
Y-11938D01*
X61634D01*
Y-11903D01*
D02*
G37*
G36*
X59509Y-11276D02*
X59474D01*
Y-11310D01*
X59509D01*
Y-11276D01*
D02*
G37*
G36*
X59543Y-11624D02*
X59509D01*
Y-11659D01*
X59543D01*
Y-11624D01*
D02*
G37*
G36*
X61251Y-12600D02*
X61216D01*
Y-12634D01*
X61251D01*
Y-12600D01*
D02*
G37*
G36*
X61669Y-12007D02*
X61634D01*
Y-12042D01*
X61669D01*
Y-12007D01*
D02*
G37*
G36*
X61529Y-12077D02*
X61494D01*
Y-12112D01*
X61529D01*
Y-12077D01*
D02*
G37*
G36*
X63167Y-9081D02*
X63132D01*
Y-9116D01*
X63167D01*
Y-9081D01*
D02*
G37*
G36*
X60171Y-9011D02*
X60136D01*
Y-9046D01*
X60171D01*
Y-9011D01*
D02*
G37*
G36*
X63097Y-8767D02*
X63062D01*
Y-8802D01*
X63097D01*
Y-8767D01*
D02*
G37*
G36*
X63062Y-9185D02*
X63028D01*
Y-9220D01*
X63062D01*
Y-9185D01*
D02*
G37*
G36*
X59787Y-9464D02*
X59752D01*
Y-9499D01*
X59787D01*
Y-9464D01*
D02*
G37*
G36*
X61320Y-8349D02*
X61286D01*
Y-8384D01*
X61320D01*
Y-8349D01*
D02*
G37*
G36*
X61843Y-8384D02*
X61808D01*
Y-8419D01*
X61843D01*
Y-8384D01*
D02*
G37*
G36*
X62366Y-8349D02*
X62331D01*
Y-8384D01*
X62366D01*
Y-8349D01*
D02*
G37*
G36*
X61808Y-8314D02*
X61773D01*
Y-8349D01*
X61808D01*
Y-8314D01*
D02*
G37*
G36*
X60624Y-8628D02*
X60589D01*
Y-8663D01*
X60624D01*
Y-8628D01*
D02*
G37*
G36*
X62505Y-8488D02*
X62470D01*
Y-8523D01*
X62505D01*
Y-8488D01*
D02*
G37*
G36*
X61320D02*
X61286D01*
Y-8523D01*
X61320D01*
Y-8488D01*
D02*
G37*
G36*
X62505Y-10265D02*
X62470D01*
Y-10300D01*
X62505D01*
Y-10265D01*
D02*
G37*
G36*
X59683Y-9568D02*
X59648D01*
Y-9603D01*
X59683D01*
Y-9568D01*
D02*
G37*
G36*
X62888Y-9638D02*
X62853D01*
Y-9673D01*
X62888D01*
Y-9638D01*
D02*
G37*
G36*
X59509Y-10161D02*
X59474D01*
Y-10196D01*
X59509D01*
Y-10161D01*
D02*
G37*
G36*
X62784Y-9743D02*
X62749D01*
Y-9777D01*
X62784D01*
Y-9743D01*
D02*
G37*
G36*
X61251Y-12669D02*
X61216D01*
Y-12704D01*
X61251D01*
Y-12669D01*
D02*
G37*
G36*
X60414Y-14202D02*
X60380D01*
Y-14237D01*
X60414D01*
Y-14202D01*
D02*
G37*
G36*
X57801Y-14307D02*
X57766D01*
Y-14342D01*
X57801D01*
Y-14307D01*
D02*
G37*
G36*
X57871Y-14516D02*
X57836D01*
Y-14551D01*
X57871D01*
Y-14516D01*
D02*
G37*
G36*
X59230Y-13087D02*
X59195D01*
Y-13122D01*
X59230D01*
Y-13087D01*
D02*
G37*
G36*
X60972Y-13227D02*
X60937D01*
Y-13262D01*
X60972D01*
Y-13227D01*
D02*
G37*
G36*
Y-13157D02*
X60937D01*
Y-13192D01*
X60972D01*
Y-13157D01*
D02*
G37*
G36*
X59474Y-12948D02*
X59439D01*
Y-12983D01*
X59474D01*
Y-12948D01*
D02*
G37*
G36*
X60693Y-13645D02*
X60658D01*
Y-13680D01*
X60693D01*
Y-13645D01*
D02*
G37*
G36*
X58881Y-13331D02*
X58847D01*
Y-13366D01*
X58881D01*
Y-13331D01*
D02*
G37*
G36*
X58986Y-13296D02*
X58951D01*
Y-13331D01*
X58986D01*
Y-13296D01*
D02*
G37*
G36*
X58812Y-13401D02*
X58777D01*
Y-13436D01*
X58812D01*
Y-13401D01*
D02*
G37*
G36*
X58777Y-13506D02*
X58742D01*
Y-13540D01*
X58777D01*
Y-13506D01*
D02*
G37*
G36*
X50380Y-14934D02*
X50345D01*
Y-14969D01*
X50380D01*
Y-15004D01*
X50415D01*
Y-14969D01*
X50380D01*
Y-14934D01*
D02*
G37*
G36*
X51391Y-14899D02*
X51356D01*
Y-14934D01*
X51391D01*
Y-14899D01*
D02*
G37*
G36*
X50520Y-14969D02*
X50485D01*
Y-15004D01*
X50520D01*
Y-14969D01*
D02*
G37*
G36*
X51321Y-15004D02*
X51286D01*
Y-15039D01*
Y-15073D01*
X51321D01*
Y-15039D01*
Y-15004D01*
D02*
G37*
G36*
X50903Y-15039D02*
X50868D01*
Y-15073D01*
X50903D01*
Y-15039D01*
D02*
G37*
G36*
X49997Y-14655D02*
X49962D01*
Y-14690D01*
X49997D01*
Y-14655D01*
D02*
G37*
G36*
X51147Y-14620D02*
X51112D01*
Y-14655D01*
X51147D01*
Y-14620D01*
D02*
G37*
G36*
X50067Y-14725D02*
X50032D01*
Y-14760D01*
X50067D01*
Y-14725D01*
D02*
G37*
G36*
X51844Y-12286D02*
X51809D01*
Y-12321D01*
X51844D01*
Y-12286D01*
D02*
G37*
G36*
X50868D02*
X50833D01*
Y-12321D01*
X50868D01*
Y-12286D01*
D02*
G37*
G36*
X52192Y-12600D02*
X52157D01*
Y-12634D01*
X52192D01*
Y-12600D01*
D02*
G37*
G36*
X50903Y-12565D02*
X50868D01*
Y-12600D01*
X50903D01*
Y-12565D01*
D02*
G37*
G36*
X50868Y-12182D02*
X50833D01*
Y-12216D01*
X50868D01*
Y-12182D01*
D02*
G37*
G36*
X51147Y-12007D02*
X51112D01*
Y-12042D01*
X51147D01*
Y-12007D01*
D02*
G37*
G36*
X51042D02*
X51007D01*
Y-12042D01*
Y-12077D01*
X51042D01*
Y-12042D01*
Y-12007D01*
D02*
G37*
G36*
X50903Y-12147D02*
X50868D01*
Y-12182D01*
X50903D01*
Y-12147D01*
D02*
G37*
G36*
X51182Y-12112D02*
X51147D01*
Y-12147D01*
X51182D01*
Y-12112D01*
D02*
G37*
G36*
X50972Y-14202D02*
X50938D01*
Y-14237D01*
X50972D01*
Y-14202D01*
D02*
G37*
G36*
X50241Y-14028D02*
X50206D01*
Y-14063D01*
X50241D01*
Y-14028D01*
D02*
G37*
G36*
X50171Y-14063D02*
X50136D01*
Y-14098D01*
X50171D01*
Y-14063D01*
D02*
G37*
G36*
X51042Y-14446D02*
X51007D01*
Y-14481D01*
X51042D01*
Y-14446D01*
D02*
G37*
G36*
X50032D02*
X49997D01*
Y-14481D01*
X50032D01*
Y-14446D01*
D02*
G37*
G36*
X51112Y-14516D02*
X51077D01*
Y-14551D01*
X51112D01*
Y-14516D01*
D02*
G37*
G36*
X50938Y-14411D02*
X50903D01*
Y-14446D01*
X50938D01*
Y-14411D01*
D02*
G37*
G36*
X50624Y-13018D02*
X50589D01*
Y-13052D01*
X50624D01*
Y-13018D01*
D02*
G37*
G36*
X51286Y-13052D02*
X51251D01*
Y-13087D01*
X51286D01*
Y-13052D01*
D02*
G37*
G36*
X50520Y-13122D02*
X50485D01*
Y-13157D01*
X50520D01*
Y-13122D01*
D02*
G37*
G36*
X50554Y-13192D02*
X50520D01*
Y-13227D01*
X50554D01*
Y-13192D01*
D02*
G37*
G36*
X51216D02*
X51182D01*
Y-13227D01*
X51216D01*
Y-13192D01*
D02*
G37*
G36*
X51425Y-13018D02*
X51391D01*
Y-13052D01*
X51425D01*
Y-13018D01*
D02*
G37*
G36*
X50624Y-12669D02*
X50589D01*
Y-12704D01*
X50624D01*
Y-12669D01*
D02*
G37*
G36*
X52052Y-12878D02*
X52018D01*
Y-12913D01*
X52052D01*
Y-12878D01*
D02*
G37*
G36*
Y-12809D02*
X52018D01*
Y-12844D01*
X52052D01*
Y-12809D01*
D02*
G37*
G36*
X50345Y-13854D02*
X50310D01*
Y-13889D01*
X50345D01*
Y-13854D01*
D02*
G37*
G36*
X50310Y-13784D02*
X50276D01*
Y-13819D01*
X50310D01*
Y-13784D01*
D02*
G37*
G36*
X50206Y-13924D02*
X50171D01*
Y-13958D01*
X50206D01*
Y-13924D01*
D02*
G37*
G36*
X51007Y-13296D02*
X50972D01*
Y-13331D01*
X51007D01*
Y-13296D01*
D02*
G37*
G36*
X50938Y-13471D02*
X50903D01*
Y-13506D01*
X50938D01*
Y-13471D01*
D02*
G37*
G36*
X51913Y-11868D02*
X51878D01*
Y-11903D01*
X51913D01*
Y-11868D01*
D02*
G37*
G36*
X51600D02*
X51565D01*
Y-11903D01*
X51600D01*
Y-11868D01*
D02*
G37*
G36*
X51844D02*
X51809D01*
Y-11903D01*
X51844D01*
Y-11868D01*
D02*
G37*
G36*
X51704D02*
X51669D01*
Y-11903D01*
X51704D01*
Y-11868D01*
D02*
G37*
G36*
X51077Y-11729D02*
X51042D01*
Y-11763D01*
X51077D01*
Y-11729D01*
D02*
G37*
G36*
X51739Y-11241D02*
X51704D01*
Y-11276D01*
X51739D01*
Y-11241D01*
D02*
G37*
G36*
X51182Y-11589D02*
X51147D01*
Y-11624D01*
X51182D01*
Y-11589D01*
D02*
G37*
G36*
X51321Y-11450D02*
X51286D01*
Y-11485D01*
X51321D01*
Y-11450D01*
D02*
G37*
G36*
X51460Y-11519D02*
X51425D01*
Y-11554D01*
X51460D01*
Y-11519D01*
D02*
G37*
G36*
X52297Y-12216D02*
X52262D01*
Y-12251D01*
X52297D01*
Y-12216D01*
D02*
G37*
G36*
X51809Y-11903D02*
X51774D01*
Y-11938D01*
X51809D01*
Y-11903D01*
D02*
G37*
G36*
X52122Y-12147D02*
X52087D01*
Y-12182D01*
X52122D01*
Y-12147D01*
D02*
G37*
G36*
X52192Y-10718D02*
X52157D01*
Y-10753D01*
X52192D01*
Y-10718D01*
D02*
G37*
G36*
X51983Y-10753D02*
X51948D01*
Y-10788D01*
X51983D01*
Y-10753D01*
D02*
G37*
G36*
X51878Y-10927D02*
X51844D01*
Y-10962D01*
X51878D01*
Y-10927D01*
D02*
G37*
G36*
X59822Y-16885D02*
X59787D01*
Y-16920D01*
X59822D01*
Y-16885D01*
D02*
G37*
G36*
X59648Y-16990D02*
X59613D01*
Y-17024D01*
X59648D01*
Y-16990D01*
D02*
G37*
G36*
X60414Y-16955D02*
X60380D01*
Y-16990D01*
X60414D01*
Y-16955D01*
D02*
G37*
G36*
Y-16746D02*
X60380D01*
Y-16781D01*
X60414D01*
Y-16746D01*
D02*
G37*
G36*
X60136Y-17303D02*
X60101D01*
Y-17338D01*
X60136D01*
Y-17303D01*
D02*
G37*
G36*
X59543Y-17443D02*
X59509D01*
Y-17477D01*
X59543D01*
Y-17443D01*
D02*
G37*
G36*
X59578Y-17059D02*
X59543D01*
Y-17094D01*
X59578D01*
Y-17059D01*
D02*
G37*
G36*
X59648D02*
X59613D01*
Y-17094D01*
X59648D01*
Y-17059D01*
D02*
G37*
G36*
X61251Y-15248D02*
X61216D01*
Y-15282D01*
X61251D01*
Y-15248D01*
D02*
G37*
G36*
X61529Y-14690D02*
X61494D01*
Y-14725D01*
X61529D01*
Y-14690D01*
D02*
G37*
G36*
X60937Y-14795D02*
X60902D01*
Y-14829D01*
X60937D01*
Y-14795D01*
D02*
G37*
G36*
X60658Y-15352D02*
X60624D01*
Y-15387D01*
X60658D01*
Y-15352D01*
D02*
G37*
G36*
X60101Y-16328D02*
X60066D01*
Y-16363D01*
X60101D01*
Y-16328D01*
D02*
G37*
G36*
Y-16223D02*
X60066D01*
Y-16258D01*
X60101D01*
Y-16223D01*
D02*
G37*
G36*
X59927Y-16432D02*
X59892D01*
Y-16467D01*
X59927D01*
Y-16432D01*
D02*
G37*
G36*
Y-16502D02*
X59892D01*
Y-16537D01*
X59927D01*
Y-16502D01*
D02*
G37*
G36*
X59857D02*
X59822D01*
Y-16537D01*
X59857D01*
Y-16502D01*
D02*
G37*
G36*
X61076Y-15666D02*
X61042D01*
Y-15700D01*
X61076D01*
Y-15666D01*
D02*
G37*
G36*
X60380Y-15910D02*
X60345D01*
Y-15944D01*
X60380D01*
Y-15910D01*
D02*
G37*
G36*
X55119Y-20648D02*
X55084D01*
Y-20683D01*
X55119D01*
Y-20648D01*
D02*
G37*
G36*
X56129Y-20613D02*
X56094D01*
Y-20648D01*
X56129D01*
Y-20613D01*
D02*
G37*
G36*
X55119Y-20508D02*
X55084D01*
Y-20543D01*
X55119D01*
Y-20578D01*
X55153D01*
Y-20543D01*
X55119D01*
Y-20508D01*
D02*
G37*
G36*
X51913Y-20090D02*
X51878D01*
Y-20125D01*
X51913D01*
Y-20090D01*
D02*
G37*
G36*
X58185Y-19916D02*
X58150D01*
Y-19951D01*
X58185D01*
Y-19916D01*
D02*
G37*
G36*
X51844Y-20056D02*
X51774D01*
Y-20090D01*
X51844D01*
Y-20056D01*
D02*
G37*
G36*
X58289Y-19812D02*
X58254D01*
Y-19847D01*
X58289D01*
Y-19812D01*
D02*
G37*
G36*
X53620Y-21449D02*
X53586D01*
Y-21484D01*
X53620D01*
Y-21449D01*
D02*
G37*
G36*
X51356D02*
X51321D01*
Y-21484D01*
X51356D01*
Y-21449D01*
D02*
G37*
G36*
X57871D02*
X57836D01*
Y-21484D01*
X57871D01*
Y-21449D01*
D02*
G37*
G36*
X57279Y-21136D02*
X57244D01*
Y-21170D01*
X57279D01*
Y-21136D01*
D02*
G37*
G36*
X53655Y-21345D02*
X53620D01*
Y-21380D01*
X53655D01*
Y-21345D01*
D02*
G37*
G36*
X53551Y-21519D02*
X53516D01*
Y-21554D01*
X53551D01*
Y-21519D01*
D02*
G37*
G36*
X53167Y-21658D02*
X53133D01*
Y-21693D01*
X53167D01*
Y-21658D01*
D02*
G37*
G36*
X57906Y-21763D02*
X57871D01*
Y-21798D01*
X57906D01*
Y-21763D01*
D02*
G37*
G36*
X57941Y-21658D02*
X57906D01*
Y-21693D01*
X57941D01*
Y-21658D01*
D02*
G37*
G36*
X53446Y-21554D02*
X53411D01*
Y-21589D01*
X53446D01*
Y-21554D01*
D02*
G37*
G36*
X51356Y-21589D02*
X51321D01*
Y-21623D01*
X51356D01*
Y-21589D01*
D02*
G37*
G36*
X54004Y-21066D02*
X53969D01*
Y-21101D01*
X54004D01*
Y-21066D01*
D02*
G37*
G36*
X56791Y-20787D02*
X56756D01*
Y-20822D01*
X56791D01*
Y-20787D01*
D02*
G37*
G36*
X54526D02*
X54491D01*
Y-20822D01*
X54526D01*
Y-20787D01*
D02*
G37*
G36*
X56861D02*
X56826D01*
Y-20822D01*
X56861D01*
Y-20787D01*
D02*
G37*
G36*
X51739Y-20683D02*
X51704D01*
Y-20718D01*
X51739D01*
Y-20683D01*
D02*
G37*
G36*
X51704Y-20752D02*
X51669D01*
Y-20787D01*
X51704D01*
Y-20752D01*
D02*
G37*
G36*
X54457Y-20787D02*
X54422D01*
Y-20822D01*
X54457D01*
Y-20787D01*
D02*
G37*
G36*
X57070Y-21066D02*
X57035D01*
Y-21101D01*
X57070D01*
Y-21066D01*
D02*
G37*
G36*
X54561Y-20857D02*
X54526D01*
Y-20892D01*
X54561D01*
Y-20857D01*
D02*
G37*
G36*
X54596Y-20822D02*
X54561D01*
Y-20857D01*
X54596D01*
Y-20822D01*
D02*
G37*
G36*
X56721D02*
X56686D01*
Y-20857D01*
X56721D01*
Y-20892D01*
X56756D01*
Y-20857D01*
X56721D01*
Y-20822D01*
D02*
G37*
G36*
X60031Y-17791D02*
X59996D01*
Y-17826D01*
X60031D01*
Y-17791D01*
D02*
G37*
G36*
X59927Y-17965D02*
X59892D01*
Y-18000D01*
X59927D01*
Y-17965D01*
D02*
G37*
G36*
X59369Y-17547D02*
X59334D01*
Y-17582D01*
X59369D01*
Y-17547D01*
D02*
G37*
G36*
Y-17617D02*
X59334D01*
Y-17652D01*
X59369D01*
Y-17617D01*
D02*
G37*
G36*
X59299D02*
X59265D01*
Y-17652D01*
X59299D01*
Y-17617D01*
D02*
G37*
G36*
X59439Y-18941D02*
X59404D01*
Y-18975D01*
X59439D01*
Y-18941D01*
D02*
G37*
G36*
X59578Y-18453D02*
X59543D01*
Y-18488D01*
X59578D01*
Y-18453D01*
D02*
G37*
G36*
Y-18383D02*
X59543D01*
Y-18418D01*
X59578D01*
Y-18383D01*
D02*
G37*
G36*
X59543Y-18836D02*
X59509D01*
Y-18871D01*
X59543D01*
Y-18836D01*
D02*
G37*
G36*
X62923Y-11868D02*
X62888D01*
Y-11903D01*
X62923D01*
Y-11868D01*
D02*
G37*
G36*
X62958Y-11450D02*
X62923D01*
Y-11485D01*
X62958D01*
Y-11450D01*
D02*
G37*
G36*
X62993Y-11694D02*
X62958D01*
Y-11729D01*
X62993D01*
Y-11694D01*
D02*
G37*
G36*
X62644Y-12425D02*
X62609D01*
Y-12460D01*
X62644D01*
Y-12425D01*
D02*
G37*
G36*
X62366Y-12600D02*
X62331D01*
Y-12634D01*
X62366D01*
Y-12600D01*
D02*
G37*
G36*
X62644Y-12042D02*
X62609D01*
Y-12077D01*
X62644D01*
Y-12042D01*
D02*
G37*
G36*
Y-12112D02*
X62609D01*
Y-12147D01*
X62644D01*
Y-12112D01*
D02*
G37*
G36*
X62888Y-10579D02*
X62853D01*
Y-10614D01*
X62888D01*
Y-10579D01*
D02*
G37*
G36*
X62853Y-10405D02*
X62818D01*
Y-10440D01*
X62853D01*
Y-10405D01*
D02*
G37*
G36*
X62609Y-11136D02*
X62575D01*
Y-11171D01*
X62609D01*
Y-11136D01*
D02*
G37*
G36*
Y-10962D02*
X62575D01*
Y-10997D01*
X62609D01*
Y-10962D01*
D02*
G37*
G36*
X61529Y-14202D02*
X61494D01*
Y-14237D01*
X61529D01*
Y-14202D01*
D02*
G37*
G36*
X62087Y-13087D02*
X62052D01*
Y-13122D01*
X62087D01*
Y-13087D01*
D02*
G37*
G36*
X62366Y-12669D02*
X62331D01*
Y-12704D01*
Y-12739D01*
X62366D01*
Y-12774D01*
X62400D01*
Y-12739D01*
X62366D01*
Y-12704D01*
Y-12669D01*
D02*
G37*
G36*
X61216Y-13714D02*
X61181D01*
Y-13749D01*
X61216D01*
Y-13714D01*
D02*
G37*
G36*
X61808Y-13645D02*
X61773D01*
Y-13680D01*
X61808D01*
Y-13645D01*
D02*
G37*
G36*
X55084Y-16606D02*
X55049D01*
Y-16641D01*
X55084D01*
Y-16606D01*
D02*
G37*
G36*
X54387D02*
X54352D01*
Y-16641D01*
X54387D01*
Y-16606D01*
D02*
G37*
G36*
X55223Y-16676D02*
X55188D01*
Y-16711D01*
X55223D01*
Y-16676D01*
D02*
G37*
G36*
X54944D02*
X54909D01*
Y-16711D01*
X54944D01*
Y-16676D01*
D02*
G37*
G36*
X55362Y-16781D02*
X55328D01*
Y-16815D01*
X55362D01*
Y-16781D01*
D02*
G37*
G36*
X55084Y-15004D02*
X55049D01*
Y-15039D01*
X55084D01*
Y-15004D01*
D02*
G37*
G36*
X54909Y-15039D02*
X54875D01*
Y-15073D01*
X54909D01*
Y-15039D01*
D02*
G37*
G36*
X52575Y-15213D02*
X52540D01*
Y-15248D01*
X52575D01*
Y-15213D01*
D02*
G37*
G36*
X54039Y-14620D02*
X54004D01*
Y-14655D01*
X54039D01*
Y-14620D01*
D02*
G37*
G36*
X54631Y-14864D02*
X54596D01*
Y-14899D01*
X54631D01*
Y-14864D01*
D02*
G37*
G36*
X54457Y-14899D02*
X54422D01*
Y-14934D01*
X54457D01*
Y-14899D01*
D02*
G37*
G36*
X54143Y-16363D02*
X54108D01*
Y-16397D01*
X54143D01*
Y-16363D01*
D02*
G37*
G36*
X53969Y-16084D02*
X53934D01*
Y-16119D01*
X53969D01*
Y-16084D01*
D02*
G37*
G36*
X53655D02*
X53620D01*
Y-16119D01*
X53655D01*
Y-16084D01*
D02*
G37*
G36*
X55467Y-16606D02*
X55432D01*
Y-16641D01*
X55467D01*
Y-16606D01*
D02*
G37*
G36*
X55397D02*
X55362D01*
Y-16641D01*
X55397D01*
Y-16606D01*
D02*
G37*
G36*
X54213Y-16502D02*
X54178D01*
Y-16537D01*
X54213D01*
Y-16502D01*
D02*
G37*
G36*
X52889Y-15526D02*
X52854D01*
Y-15561D01*
X52889D01*
Y-15526D01*
D02*
G37*
G36*
X52854Y-15561D02*
X52819D01*
Y-15596D01*
X52854D01*
Y-15561D01*
D02*
G37*
G36*
X56512Y-15526D02*
X56477D01*
Y-15561D01*
X56512D01*
Y-15526D01*
D02*
G37*
G36*
Y-15840D02*
X56477D01*
Y-15875D01*
X56512D01*
Y-15840D01*
D02*
G37*
G36*
X56582Y-15666D02*
X56547D01*
Y-15700D01*
X56582D01*
Y-15666D01*
D02*
G37*
G36*
X53098Y-15700D02*
X53063D01*
Y-15735D01*
X53098D01*
Y-15700D01*
D02*
G37*
G36*
X55432Y-14620D02*
X55397D01*
Y-14655D01*
X55432D01*
Y-14620D01*
D02*
G37*
G36*
X53481Y-14202D02*
X53446D01*
Y-14237D01*
X53481D01*
Y-14202D01*
D02*
G37*
G36*
X57383Y-14307D02*
X57348D01*
Y-14342D01*
X57383D01*
Y-14307D01*
D02*
G37*
G36*
X55920D02*
X55885D01*
Y-14342D01*
X55920D01*
Y-14307D01*
D02*
G37*
G36*
X52958Y-14237D02*
X52924D01*
Y-14272D01*
X52958D01*
Y-14237D01*
D02*
G37*
G36*
X53028Y-14167D02*
X52993D01*
Y-14202D01*
X53028D01*
Y-14167D01*
D02*
G37*
G36*
X56756Y-14063D02*
X56721D01*
Y-14098D01*
X56756D01*
Y-14063D01*
D02*
G37*
G36*
X56338Y-13958D02*
X56303D01*
Y-13993D01*
Y-14028D01*
X56338D01*
Y-13993D01*
Y-13958D01*
D02*
G37*
G36*
X56756Y-13993D02*
X56721D01*
Y-14028D01*
X56756D01*
Y-13993D01*
D02*
G37*
G36*
X56617Y-13958D02*
X56582D01*
Y-13993D01*
Y-14028D01*
X56617D01*
Y-13993D01*
Y-13958D01*
D02*
G37*
G36*
X56477Y-14063D02*
X56442D01*
Y-14098D01*
X56477D01*
Y-14063D01*
D02*
G37*
G36*
X57453Y-14133D02*
X57418D01*
Y-14167D01*
X57453D01*
Y-14133D01*
D02*
G37*
G36*
X53133D02*
X53098D01*
Y-14167D01*
X53133D01*
Y-14133D01*
D02*
G37*
G36*
X53167Y-14028D02*
X53133D01*
Y-14063D01*
Y-14098D01*
X53167D01*
Y-14063D01*
Y-14028D01*
D02*
G37*
G36*
X55467Y-14516D02*
X55432D01*
Y-14551D01*
X55467D01*
Y-14516D01*
D02*
G37*
G36*
X52680Y-14481D02*
X52645D01*
Y-14516D01*
X52680D01*
Y-14481D01*
D02*
G37*
G36*
X53725Y-14516D02*
X53690D01*
Y-14551D01*
X53725D01*
Y-14516D01*
D02*
G37*
G36*
X52610Y-14551D02*
X52575D01*
Y-14586D01*
X52610D01*
Y-14551D01*
D02*
G37*
G36*
X57104Y-14620D02*
X57070D01*
Y-14655D01*
X57104D01*
Y-14620D01*
D02*
G37*
G36*
X52680Y-14551D02*
X52645D01*
Y-14586D01*
X52680D01*
Y-14551D01*
D02*
G37*
G36*
X52854Y-14377D02*
X52819D01*
Y-14411D01*
X52854D01*
Y-14377D01*
D02*
G37*
G36*
X52924Y-14342D02*
X52889D01*
Y-14377D01*
X52924D01*
Y-14342D01*
D02*
G37*
G36*
X55537Y-14446D02*
X55502D01*
Y-14481D01*
X55537D01*
Y-14446D01*
D02*
G37*
G36*
X57209D02*
X57174D01*
Y-14481D01*
X57209D01*
Y-14446D01*
D02*
G37*
G36*
X55641Y-14411D02*
X55606D01*
Y-14446D01*
X55641D01*
Y-14411D01*
D02*
G37*
G36*
X56721Y-13889D02*
X56686D01*
Y-13924D01*
X56721D01*
Y-13889D01*
D02*
G37*
G36*
X57209Y-13854D02*
X57174D01*
Y-13889D01*
X57209D01*
Y-13854D01*
D02*
G37*
G36*
Y-13924D02*
X57174D01*
Y-13958D01*
X57209D01*
Y-13924D01*
D02*
G37*
G36*
X57279Y-13958D02*
X57244D01*
Y-13993D01*
X57279D01*
Y-13958D01*
D02*
G37*
G36*
X56442D02*
X56408D01*
Y-13993D01*
X56442D01*
Y-13958D01*
D02*
G37*
G36*
X57070Y-13924D02*
X57035D01*
Y-13958D01*
X57070D01*
Y-13924D01*
D02*
G37*
G36*
X56826D02*
X56791D01*
Y-13958D01*
X56826D01*
Y-13924D01*
D02*
G37*
G36*
X59056Y-11833D02*
X59021D01*
Y-11868D01*
X59056D01*
Y-11833D01*
D02*
G37*
G36*
X54735D02*
X54700D01*
Y-11868D01*
X54735D01*
Y-11833D01*
D02*
G37*
G36*
X59021Y-11903D02*
X58986D01*
Y-11938D01*
X59021D01*
Y-11903D01*
D02*
G37*
G36*
X54805Y-11276D02*
X54770D01*
Y-11310D01*
X54805D01*
Y-11276D01*
D02*
G37*
G36*
X54770Y-11415D02*
X54735D01*
Y-11450D01*
X54770D01*
Y-11415D01*
D02*
G37*
G36*
X54631Y-11241D02*
X54596D01*
Y-11276D01*
X54631D01*
Y-11241D01*
D02*
G37*
G36*
X55084Y-12251D02*
X55049D01*
Y-12286D01*
X55084D01*
Y-12251D01*
D02*
G37*
G36*
X58881D02*
X58847D01*
Y-12286D01*
X58881D01*
Y-12251D01*
D02*
G37*
G36*
X55084Y-12425D02*
X55049D01*
Y-12460D01*
Y-12495D01*
X55084D01*
Y-12460D01*
Y-12425D01*
D02*
G37*
G36*
X54805Y-11938D02*
X54770D01*
Y-11972D01*
X54805D01*
Y-11938D01*
D02*
G37*
G36*
X56547Y-9046D02*
X56512D01*
Y-9081D01*
X56547D01*
Y-9046D01*
D02*
G37*
G36*
X56234Y-8941D02*
X56199D01*
Y-8976D01*
X56234D01*
Y-8941D01*
D02*
G37*
G36*
X58010Y-9429D02*
X57976D01*
Y-9464D01*
X58010D01*
Y-9429D01*
D02*
G37*
G36*
X57906Y-9394D02*
X57871D01*
Y-9429D01*
X57906D01*
Y-9394D01*
D02*
G37*
G36*
X57488Y-9220D02*
X57453D01*
Y-9255D01*
X57488D01*
Y-9220D01*
D02*
G37*
G36*
X57348Y-9325D02*
X57314D01*
Y-9359D01*
X57348D01*
Y-9325D01*
D02*
G37*
G36*
X56234Y-8663D02*
X56199D01*
Y-8697D01*
X56234D01*
Y-8663D01*
D02*
G37*
G36*
X56547Y-8279D02*
X56512D01*
Y-8314D01*
X56547D01*
Y-8279D01*
D02*
G37*
G36*
X56129Y-8384D02*
X56094D01*
Y-8419D01*
X56129D01*
Y-8384D01*
D02*
G37*
G36*
X56199Y-8454D02*
X56164D01*
Y-8488D01*
X56199D01*
Y-8523D01*
X56234D01*
Y-8488D01*
X56199D01*
Y-8454D01*
D02*
G37*
G36*
X56303Y-8488D02*
X56268D01*
Y-8523D01*
X56303D01*
Y-8488D01*
D02*
G37*
G36*
X58742Y-10300D02*
X58707D01*
Y-10335D01*
X58742D01*
Y-10300D01*
D02*
G37*
G36*
X54735Y-11136D02*
X54666D01*
Y-11171D01*
X54735D01*
Y-11136D01*
D02*
G37*
G36*
X54666Y-11206D02*
X54631D01*
Y-11241D01*
X54666D01*
Y-11206D01*
D02*
G37*
G36*
X59056Y-10962D02*
X59021D01*
Y-10997D01*
X59056D01*
Y-10962D01*
D02*
G37*
G36*
X58254Y-9568D02*
X58219D01*
Y-9603D01*
X58254D01*
Y-9568D01*
D02*
G37*
G36*
X58115Y-9603D02*
X58080D01*
Y-9638D01*
X58115D01*
Y-9603D01*
D02*
G37*
G36*
X58080Y-9499D02*
X58045D01*
Y-9534D01*
X58080D01*
Y-9499D01*
D02*
G37*
G36*
X55920D02*
X55885D01*
Y-9534D01*
X55920D01*
Y-9499D01*
D02*
G37*
G36*
X58463Y-10056D02*
X58429D01*
Y-10091D01*
X58463D01*
Y-10056D01*
D02*
G37*
G36*
X55293Y-9847D02*
X55258D01*
Y-9882D01*
X55293D01*
Y-9847D01*
D02*
G37*
G36*
X55362D02*
X55328D01*
Y-9882D01*
X55362D01*
Y-9847D01*
D02*
G37*
G36*
X58219Y-13087D02*
X58150D01*
Y-13122D01*
X58219D01*
Y-13087D01*
D02*
G37*
G36*
X55572Y-13157D02*
X55537D01*
Y-13192D01*
X55572D01*
Y-13157D01*
D02*
G37*
G36*
X58463Y-12739D02*
X58429D01*
Y-12774D01*
X58463D01*
Y-12739D01*
D02*
G37*
G36*
X55119D02*
X55084D01*
Y-12774D01*
X55119D01*
Y-12739D01*
D02*
G37*
G36*
X58533D02*
X58498D01*
Y-12774D01*
X58533D01*
Y-12739D01*
D02*
G37*
G36*
X55188Y-12774D02*
X55153D01*
Y-12809D01*
X55188D01*
Y-12774D01*
D02*
G37*
G36*
X58219Y-12983D02*
X58185D01*
Y-13018D01*
X58219D01*
Y-12983D01*
D02*
G37*
G36*
X55362Y-12809D02*
X55328D01*
Y-12844D01*
X55362D01*
Y-12809D01*
D02*
G37*
G36*
X55955Y-13331D02*
X55920D01*
Y-13366D01*
Y-13401D01*
X55955D01*
Y-13366D01*
Y-13331D01*
D02*
G37*
G36*
X56024Y-13262D02*
X55990D01*
Y-13296D01*
Y-13331D01*
X56024D01*
Y-13296D01*
Y-13262D01*
D02*
G37*
G36*
X56442Y-13540D02*
X56408D01*
Y-13575D01*
X56442D01*
Y-13540D01*
D02*
G37*
G36*
X51913Y-16885D02*
X51878D01*
Y-16920D01*
X51913D01*
Y-16885D01*
D02*
G37*
G36*
X51739Y-16920D02*
X51704D01*
Y-16955D01*
X51739D01*
Y-16920D01*
D02*
G37*
G36*
X51460Y-16746D02*
X51425D01*
Y-16781D01*
X51460D01*
Y-16746D01*
D02*
G37*
G36*
X51530Y-16711D02*
X51495D01*
Y-16746D01*
X51530D01*
Y-16711D01*
D02*
G37*
G36*
X52087D02*
X52052D01*
Y-16746D01*
X52087D01*
Y-16711D01*
D02*
G37*
G36*
X51983D02*
X51948D01*
Y-16746D01*
X51983D01*
Y-16711D01*
D02*
G37*
G36*
X51321Y-16781D02*
X51251D01*
Y-16815D01*
X51321D01*
Y-16781D01*
D02*
G37*
G36*
X50624Y-17303D02*
X50589D01*
Y-17338D01*
X50624D01*
Y-17303D01*
D02*
G37*
G36*
X50310Y-17408D02*
X50276D01*
Y-17443D01*
X50310D01*
Y-17408D01*
D02*
G37*
G36*
X51251Y-17164D02*
X51216D01*
Y-17199D01*
X51251D01*
Y-17164D01*
D02*
G37*
G36*
X51565Y-17024D02*
X51530D01*
Y-17059D01*
X51565D01*
Y-17024D01*
D02*
G37*
G36*
X51530Y-17094D02*
X51495D01*
Y-17129D01*
X51530D01*
Y-17094D01*
D02*
G37*
G36*
X50694D02*
X50659D01*
Y-17129D01*
X50694D01*
Y-17094D01*
D02*
G37*
G36*
X48324Y-20265D02*
X48290D01*
Y-20300D01*
X48324D01*
Y-20265D01*
D02*
G37*
G36*
X48673Y-20474D02*
X48638D01*
Y-20508D01*
X48673D01*
Y-20474D01*
D02*
G37*
G36*
X48534Y-20230D02*
X48499D01*
Y-20265D01*
X48534D01*
Y-20230D01*
D02*
G37*
G36*
X48394Y-20160D02*
X48359D01*
Y-20195D01*
X48394D01*
Y-20160D01*
D02*
G37*
G36*
X48603Y-20230D02*
X48568D01*
Y-20265D01*
X48603D01*
Y-20230D01*
D02*
G37*
G36*
X48777Y-20508D02*
X48743D01*
Y-20543D01*
X48777D01*
Y-20508D01*
D02*
G37*
G36*
X49509Y-20613D02*
X49474D01*
Y-20648D01*
X49509D01*
Y-20613D01*
D02*
G37*
G36*
X49230Y-20543D02*
X49196D01*
Y-20578D01*
X49230D01*
Y-20543D01*
D02*
G37*
G36*
X49091Y-19637D02*
X49056D01*
Y-19672D01*
X49091D01*
Y-19637D01*
D02*
G37*
G36*
X48638D02*
X48603D01*
Y-19672D01*
X48638D01*
Y-19637D01*
D02*
G37*
G36*
X51112Y-19498D02*
X51077D01*
Y-19533D01*
Y-19568D01*
X51112D01*
Y-19533D01*
Y-19498D01*
D02*
G37*
G36*
X49021D02*
X48987D01*
Y-19533D01*
X49021D01*
Y-19498D01*
D02*
G37*
G36*
X48324Y-19881D02*
X48255D01*
Y-19916D01*
X48324D01*
Y-19881D01*
D02*
G37*
G36*
X48673Y-19812D02*
X48638D01*
Y-19847D01*
X48673D01*
Y-19812D01*
D02*
G37*
G36*
X50972Y-20857D02*
X50938D01*
Y-20892D01*
X50972D01*
Y-20857D01*
D02*
G37*
G36*
X50938Y-19498D02*
X50903D01*
Y-19533D01*
X50938D01*
Y-19498D01*
D02*
G37*
G36*
X50972Y-17721D02*
X50938D01*
Y-17756D01*
X50972D01*
Y-17721D01*
D02*
G37*
G36*
X50067D02*
X49997D01*
Y-17756D01*
X50067D01*
Y-17721D01*
D02*
G37*
G36*
X49927Y-17930D02*
X49892D01*
Y-17965D01*
X49927D01*
Y-17930D01*
D02*
G37*
G36*
X50938Y-17791D02*
X50903D01*
Y-17826D01*
X50938D01*
Y-17791D01*
D02*
G37*
G36*
X50345Y-17582D02*
X50310D01*
Y-17617D01*
X50345D01*
Y-17582D01*
D02*
G37*
G36*
X50032Y-17652D02*
X49997D01*
Y-17686D01*
X50032D01*
Y-17652D01*
D02*
G37*
G36*
X50972Y-19045D02*
X50938D01*
Y-19080D01*
X50972D01*
Y-19045D01*
D02*
G37*
G36*
X51042Y-19463D02*
X51007D01*
Y-19498D01*
X51042D01*
Y-19463D01*
D02*
G37*
G36*
X49370D02*
X49335D01*
Y-19498D01*
X49370D01*
Y-19463D01*
D02*
G37*
G36*
X51042Y-18906D02*
X51007D01*
Y-18941D01*
X51042D01*
Y-18906D01*
D02*
G37*
G36*
X50972Y-18592D02*
X50938D01*
Y-18627D01*
X50972D01*
Y-18592D01*
D02*
G37*
G36*
X50938Y-18871D02*
X50903D01*
Y-18906D01*
X50938D01*
Y-18871D01*
D02*
G37*
G36*
X51007Y-18662D02*
X50972D01*
Y-18697D01*
X51007D01*
Y-18662D01*
D02*
G37*
G36*
X50938D02*
X50903D01*
Y-18697D01*
X50938D01*
Y-18662D01*
D02*
G37*
G36*
X52505Y-14202D02*
X52471D01*
Y-14237D01*
X52505D01*
Y-14202D01*
D02*
G37*
G36*
X51321Y-14167D02*
X51286D01*
Y-14202D01*
X51321D01*
Y-14167D01*
D02*
G37*
G36*
X52436Y-14272D02*
X52401D01*
Y-14307D01*
X52436D01*
Y-14272D01*
D02*
G37*
G36*
X52540Y-14098D02*
X52505D01*
Y-14133D01*
X52540D01*
Y-14098D01*
D02*
G37*
G36*
X51635Y-14481D02*
X51600D01*
Y-14516D01*
Y-14551D01*
X51635D01*
Y-14516D01*
Y-14481D01*
D02*
G37*
G36*
X51391Y-14377D02*
X51356D01*
Y-14411D01*
X51391D01*
Y-14446D01*
X51425D01*
Y-14481D01*
X51460D01*
Y-14446D01*
X51425D01*
Y-14411D01*
X51391D01*
Y-14377D01*
D02*
G37*
G36*
X52227D02*
X52192D01*
Y-14411D01*
X52227D01*
Y-14377D01*
D02*
G37*
G36*
X51425Y-14342D02*
X51391D01*
Y-14377D01*
X51425D01*
Y-14342D01*
D02*
G37*
G36*
X52331Y-14307D02*
X52297D01*
Y-14342D01*
X52331D01*
Y-14307D01*
D02*
G37*
G36*
X52157Y-14377D02*
X52122D01*
Y-14411D01*
X52157D01*
Y-14377D01*
D02*
G37*
G36*
X51704Y-14446D02*
X51669D01*
Y-14481D01*
X51704D01*
Y-14446D01*
D02*
G37*
G36*
X52436Y-13506D02*
X52401D01*
Y-13540D01*
X52436D01*
Y-13506D01*
D02*
G37*
%LPD*%
D28*
X-41441Y3598D02*
Y3015D01*
X-42024D01*
Y3598D01*
X-41441D01*
D43*
X-5862Y161D02*
G03*
X-5862Y161I-492J0D01*
G01*
D44*
X-2811Y1343D02*
X-843Y3311D01*
X18843D02*
X20811D01*
Y1343D02*
Y3311D01*
Y-20311D02*
Y-18342D01*
X18843Y-20311D02*
X20811D01*
X-2811D02*
X-843D01*
X-2811D02*
Y-18342D01*
D45*
X38500Y10499D02*
X40166Y8000D01*
Y10499D02*
X38500Y8000D01*
X40999D02*
X41832D01*
X41416D01*
Y10499D01*
X40999Y10083D01*
X16499Y10000D02*
X14000D01*
Y8334D01*
X16083Y7501D02*
X16499Y7084D01*
Y6251D01*
X16083Y5835D01*
X15666D01*
X15250Y6251D01*
Y6668D01*
Y6251D01*
X14833Y5835D01*
X14416D01*
X14000Y6251D01*
Y7084D01*
X14416Y7501D01*
X8000Y8499D02*
Y6000D01*
X9666D01*
X12165D02*
X10499D01*
X12165Y7666D01*
Y8083D01*
X11749Y8499D01*
X10916D01*
X10499Y8083D01*
X34000Y-16001D02*
Y-18500D01*
X35666D01*
X36499D02*
X37332D01*
X36916D01*
Y-16001D01*
X36499Y-16417D01*
X35666Y-20917D02*
X35250Y-20501D01*
X34416D01*
X34000Y-20917D01*
Y-22583D01*
X34416Y-23000D01*
X35250D01*
X35666Y-22583D01*
X36499Y-23000D02*
X37332D01*
X36916D01*
Y-20501D01*
X36499Y-20917D01*
X38582D02*
X38998Y-20501D01*
X39832D01*
X40248Y-20917D01*
Y-21334D01*
X39832Y-21750D01*
X39415D01*
X39832D01*
X40248Y-22167D01*
Y-22583D01*
X39832Y-23000D01*
X38998D01*
X38582Y-22583D01*
X24583Y14834D02*
X24999Y15250D01*
Y16083D01*
X24583Y16500D01*
X22917D01*
X22500Y16083D01*
Y15250D01*
X22917Y14834D01*
X22500Y14001D02*
Y13168D01*
Y13584D01*
X24999D01*
X24583Y14001D01*
Y11918D02*
X24999Y11502D01*
Y10669D01*
X24583Y10252D01*
X22917D01*
X22500Y10669D01*
Y11502D01*
X22917Y11918D01*
X24583D01*
X35166Y22083D02*
X34750Y22499D01*
X33917D01*
X33500Y22083D01*
Y20416D01*
X33917Y20000D01*
X34750D01*
X35166Y20416D01*
X35999Y22083D02*
X36416Y22499D01*
X37249D01*
X37665Y22083D01*
Y21666D01*
X37249Y21250D01*
X37665Y20833D01*
Y20416D01*
X37249Y20000D01*
X36416D01*
X35999Y20416D01*
Y20833D01*
X36416Y21250D01*
X35999Y21666D01*
Y22083D01*
X36416Y21250D02*
X37249D01*
X39666Y-2417D02*
X39250Y-2001D01*
X38416D01*
X38000Y-2417D01*
Y-4084D01*
X38416Y-4500D01*
X39250D01*
X39666Y-4084D01*
X40499Y-2001D02*
X42165D01*
Y-2417D01*
X40499Y-4084D01*
Y-4500D01*
X39666Y-6917D02*
X39250Y-6501D01*
X38416D01*
X38000Y-6917D01*
Y-8584D01*
X38416Y-9000D01*
X39250D01*
X39666Y-8584D01*
X42165Y-6501D02*
X41332Y-6917D01*
X40499Y-7750D01*
Y-8584D01*
X40916Y-9000D01*
X41749D01*
X42165Y-8584D01*
Y-8167D01*
X41749Y-7750D01*
X40499D01*
X8666Y-24917D02*
X8250Y-24501D01*
X7417D01*
X7000Y-24917D01*
Y-26583D01*
X7417Y-27000D01*
X8250D01*
X8666Y-26583D01*
X11165Y-24501D02*
X9499D01*
Y-25750D01*
X10332Y-25334D01*
X10749D01*
X11165Y-25750D01*
Y-26583D01*
X10749Y-27000D01*
X9916D01*
X9499Y-26583D01*
X-3917Y11334D02*
X-3501Y11750D01*
Y12584D01*
X-3917Y13000D01*
X-5584D01*
X-6000Y12584D01*
Y11750D01*
X-5584Y11334D01*
X-6000Y9251D02*
X-3501D01*
X-4750Y10501D01*
Y8835D01*
X36183Y-12366D02*
X36599Y-11950D01*
Y-11117D01*
X36183Y-10700D01*
X34517D01*
X34100Y-11117D01*
Y-11950D01*
X34517Y-12366D01*
X36183Y-13199D02*
X36599Y-13616D01*
Y-14449D01*
X36183Y-14865D01*
X35766D01*
X35350Y-14449D01*
Y-14032D01*
Y-14449D01*
X34933Y-14865D01*
X34517D01*
X34100Y-14449D01*
Y-13616D01*
X34517Y-13199D01*
X39666Y17583D02*
X39250Y17999D01*
X38416D01*
X38000Y17583D01*
Y15916D01*
X38416Y15500D01*
X39250D01*
X39666Y15916D01*
X42165Y15500D02*
X40499D01*
X42165Y17166D01*
Y17583D01*
X41749Y17999D01*
X40916D01*
X40499Y17583D01*
X40166Y2583D02*
X39750Y2999D01*
X38917D01*
X38500Y2583D01*
Y917D01*
X38917Y500D01*
X39750D01*
X40166Y917D01*
X40999Y500D02*
X41832D01*
X41416D01*
Y2999D01*
X40999Y2583D01*
X15000Y-24001D02*
Y-26500D01*
X16250D01*
X16666Y-26083D01*
Y-25667D01*
X16250Y-25250D01*
X15000D01*
X16250D01*
X16666Y-24834D01*
Y-24417D01*
X16250Y-24001D01*
X15000D01*
X17499D02*
Y-26500D01*
X19165D01*
X21665Y-24001D02*
X19998D01*
Y-26500D01*
X21665D01*
X19998Y-25250D02*
X20831D01*
X1999Y27500D02*
X-500Y25834D01*
X1999D02*
X-500Y27500D01*
Y23335D02*
Y25001D01*
X1166Y23335D01*
X1583D01*
X1999Y23751D01*
Y24584D01*
X1583Y25001D01*
X11206Y-33849D02*
X10616D01*
X10027Y-34438D01*
Y-35027D01*
X10322Y-35322D01*
X10911D01*
X11500Y-34733D01*
X12089Y-34733D01*
X12384Y-35027D01*
Y-35616D01*
X11795Y-36206D01*
X11206D01*
X11500Y-32966D02*
X13267Y-34733D01*
Y-33555D01*
X14445Y-33555D01*
X12678Y-31787D01*
X13267Y-31198D02*
X15034Y-32966D01*
X15918Y-32082D01*
Y-31493D01*
X14740Y-30315D01*
X14151D01*
X13267Y-31198D01*
X-38417Y-4859D02*
X-38001Y-4442D01*
Y-3609D01*
X-38417Y-3193D01*
X-40084D01*
X-40500Y-3609D01*
Y-4442D01*
X-40084Y-4859D01*
X-40500Y-5692D02*
Y-6525D01*
Y-6109D01*
X-38001D01*
X-38417Y-5692D01*
X-40500Y-9024D02*
X-38001D01*
X-39250Y-7775D01*
Y-9441D01*
X14083Y39334D02*
X14499Y39750D01*
Y40584D01*
X14083Y41000D01*
X12416D01*
X12000Y40584D01*
Y39750D01*
X12416Y39334D01*
X12000Y38501D02*
Y37668D01*
Y38084D01*
X14499D01*
X14083Y38501D01*
X12000Y34752D02*
Y36418D01*
X13666Y34752D01*
X14083D01*
X14499Y35168D01*
Y36002D01*
X14083Y36418D01*
X17783Y39334D02*
X18199Y39750D01*
Y40584D01*
X17783Y41000D01*
X16116D01*
X15700Y40584D01*
Y39750D01*
X16116Y39334D01*
X15700Y38501D02*
Y37668D01*
Y38084D01*
X18199D01*
X17783Y38501D01*
X15700Y36418D02*
Y35585D01*
Y36002D01*
X18199D01*
X17783Y36418D01*
X3666Y8083D02*
X3250Y8499D01*
X2417D01*
X2000Y8083D01*
Y6417D01*
X2417Y6000D01*
X3250D01*
X3666Y6417D01*
X4499D02*
X4916Y6000D01*
X5749D01*
X6165Y6417D01*
Y8083D01*
X5749Y8499D01*
X4916D01*
X4499Y8083D01*
Y7666D01*
X4916Y7250D01*
X6165D01*
X-21500Y30000D02*
X-19001D01*
Y28750D01*
X-19417Y28334D01*
X-20250D01*
X-20667Y28750D01*
Y30000D01*
Y29167D02*
X-21500Y28334D01*
Y27501D02*
Y26668D01*
Y27084D01*
X-19001D01*
X-19417Y27501D01*
X-18417Y19334D02*
X-18001Y19750D01*
Y20583D01*
X-18417Y21000D01*
X-18834D01*
X-19250Y20583D01*
Y19750D01*
X-19667Y19334D01*
X-20084D01*
X-20500Y19750D01*
Y20583D01*
X-20084Y21000D01*
X-18001Y18501D02*
X-20500D01*
X-19667Y17668D01*
X-20500Y16835D01*
X-18001D01*
X-20500Y16002D02*
Y15169D01*
Y15585D01*
X-18001D01*
X-18417Y16002D01*
X-43500Y8999D02*
Y6916D01*
X-43084Y6500D01*
X-42250D01*
X-41834Y6916D01*
Y8999D01*
X-41001Y6500D02*
X-40168D01*
X-40584D01*
Y8999D01*
X-41001Y8583D01*
X-21500Y-25500D02*
X-19001D01*
Y-26750D01*
X-19417Y-27166D01*
X-20250D01*
X-20667Y-26750D01*
Y-25500D01*
Y-26333D02*
X-21500Y-27166D01*
Y-29665D02*
Y-27999D01*
X-19834Y-29665D01*
X-19417D01*
X-19001Y-29249D01*
Y-28416D01*
X-19417Y-27999D01*
X-3501Y25500D02*
X-6000D01*
Y24250D01*
X-5584Y23834D01*
X-3917D01*
X-3501Y24250D01*
Y25500D01*
X-6000Y23001D02*
Y22168D01*
Y22584D01*
X-3501D01*
X-3917Y23001D01*
X-6000Y-23501D02*
Y-26000D01*
X-4750D01*
X-4334Y-25583D01*
Y-23917D01*
X-4750Y-23501D01*
X-6000D01*
X-1835Y-26000D02*
X-3501D01*
X-1835Y-24334D01*
Y-23917D01*
X-2251Y-23501D01*
X-3084D01*
X-3501Y-23917D01*
X-52917Y1334D02*
X-52501Y1750D01*
Y2583D01*
X-52917Y3000D01*
X-53334D01*
X-53750Y2583D01*
Y1750D01*
X-54167Y1334D01*
X-54584D01*
X-55000Y1750D01*
Y2583D01*
X-54584Y3000D01*
X-52501Y501D02*
X-55000D01*
X-54167Y-332D01*
X-55000Y-1165D01*
X-52501D01*
X-55000Y-3664D02*
Y-1998D01*
X-53334Y-3664D01*
X-52917D01*
X-52501Y-3248D01*
Y-2415D01*
X-52917Y-1998D01*
X43000Y-13000D02*
X44666D01*
X45499Y-13833D01*
X44666Y-14666D01*
X43000D01*
X44250D01*
Y-13000D01*
X43000Y-15499D02*
X45499D01*
X43000Y-17165D01*
X45499D01*
Y-17998D02*
Y-19665D01*
Y-18831D01*
X43000D01*
M02*
