G04 Layer_Color=16711935*
%FSLAX25Y25*%
%MOIN*%
G70*
G01*
G75*
%ADD30C,0.04761*%
G04:AMPARAMS|DCode=31|XSize=47.59mil|YSize=47.61mil|CornerRadius=0mil|HoleSize=0mil|Usage=FLASHONLY|Rotation=315.000|XOffset=0mil|YOffset=0mil|HoleType=Round|Shape=Rectangle|*
%AMROTATEDRECTD31*
4,1,4,-0.03366,-0.00001,0.00001,0.03366,0.03366,0.00001,-0.00001,-0.03366,-0.03366,-0.00001,0.0*
%
%ADD31ROTATEDRECTD31*%

%ADD32C,0.09855*%
%ADD33C,0.03500*%
%ADD34R,0.03162X0.02965*%
%ADD35R,0.05131X0.03162*%
%ADD36R,0.02965X0.03162*%
%ADD37R,0.02769X0.03162*%
%ADD38C,0.70879*%
D30*
X27536Y34464D02*
D03*
X38142Y23858D02*
D03*
X31071Y30929D02*
D03*
X34607Y27393D02*
D03*
D31*
X24000Y38000D02*
D03*
D32*
X-40945Y-3701D02*
D03*
Y-15905D02*
D03*
X40945Y-3701D02*
D03*
Y-15905D02*
D03*
D33*
X-15000Y28500D02*
D03*
X-10500D02*
D03*
X32000Y14500D02*
D03*
Y19500D02*
D03*
X-23000Y28500D02*
D03*
D34*
X-8653Y38000D02*
D03*
X-12000D02*
D03*
X-8653Y33500D02*
D03*
X-12000D02*
D03*
X-22673Y38000D02*
D03*
X-19327D02*
D03*
D35*
X-2012Y33760D02*
D03*
Y41240D02*
D03*
Y37500D02*
D03*
X9012D02*
D03*
Y33760D02*
D03*
Y41240D02*
D03*
D36*
X41000Y13327D02*
D03*
Y16673D02*
D03*
X17000Y41173D02*
D03*
Y37827D02*
D03*
D37*
X-22968Y33500D02*
D03*
X-19031D02*
D03*
X-12295Y42500D02*
D03*
X-8358D02*
D03*
D38*
X0Y-10000D02*
D03*
M02*
