G04 Layer_Color=8388736*
%FSLAX25Y25*%
%MOIN*%
G70*
G01*
G75*
%ADD26R,0.03359X0.03950*%
%ADD27R,0.04816X0.05288*%
%ADD28R,0.01981X0.05288*%
%ADD29R,0.09068X0.05918*%
%ADD30C,0.04761*%
G04:AMPARAMS|DCode=31|XSize=47.59mil|YSize=47.61mil|CornerRadius=0mil|HoleSize=0mil|Usage=FLASHONLY|Rotation=315.000|XOffset=0mil|YOffset=0mil|HoleType=Round|Shape=Rectangle|*
%AMROTATEDRECTD31*
4,1,4,-0.03366,-0.00001,0.00001,0.03366,0.03366,0.00001,-0.00001,-0.03366,-0.03366,-0.00001,0.0*
%
%ADD31ROTATEDRECTD31*%

%ADD32C,0.09855*%
%ADD33C,0.03500*%
D26*
X-4648Y22500D02*
D03*
X4742D02*
D03*
X-4648Y-22500D02*
D03*
X4742D02*
D03*
D27*
X1494Y22500D02*
D03*
Y-22500D02*
D03*
D28*
X-2876Y22500D02*
D03*
Y-22500D02*
D03*
D29*
X17913Y8465D02*
D03*
X-17913D02*
D03*
X17913Y-8465D02*
D03*
X-17913D02*
D03*
D30*
X27536Y34464D02*
D03*
X38142Y23858D02*
D03*
X31071Y30929D02*
D03*
X34607Y27393D02*
D03*
D31*
X24000Y38000D02*
D03*
D32*
X-40945Y-3701D02*
D03*
Y-15905D02*
D03*
X40945Y-3701D02*
D03*
Y-15905D02*
D03*
D33*
X-15000Y28500D02*
D03*
X-10500D02*
D03*
X32000Y14500D02*
D03*
Y19500D02*
D03*
X-23000Y28500D02*
D03*
M02*
