G04 Layer_Physical_Order=2*
G04 Layer_Color=16711680*
%FSLAX25Y25*%
%MOIN*%
G70*
G01*
G75*
%ADD14C,0.01000*%
%ADD15C,0.00600*%
%ADD16C,0.03961*%
G04:AMPARAMS|DCode=17|XSize=39.59mil|YSize=39.61mil|CornerRadius=0mil|HoleSize=0mil|Usage=FLASHONLY|Rotation=315.000|XOffset=0mil|YOffset=0mil|HoleType=Round|Shape=Rectangle|*
%AMROTATEDRECTD17*
4,1,4,-0.02800,-0.00001,0.00001,0.02800,0.02800,0.00001,-0.00001,-0.02800,-0.02800,-0.00001,0.0*
%
%ADD17ROTATEDRECTD17*%

%ADD18C,0.09055*%
%ADD19C,0.02700*%
%ADD20R,0.02362X0.02165*%
%ADD21R,0.04331X0.02362*%
%ADD22R,0.02165X0.02362*%
%ADD23R,0.01969X0.02362*%
%ADD24C,0.70079*%
%ADD25C,0.01575*%
G36*
X-14603Y45694D02*
X-19976Y40322D01*
X-20175Y40024D01*
X-20243Y39683D01*
X-24454D01*
Y36317D01*
X-23886D01*
Y35281D01*
X-24553D01*
Y31719D01*
X-23886D01*
Y30253D01*
X-24406Y29906D01*
X-24837Y29261D01*
X-24988Y28500D01*
X-24837Y27739D01*
X-24406Y27094D01*
X-23761Y26663D01*
X-23000Y26512D01*
X-22239Y26663D01*
X-21594Y27094D01*
X-21163Y27739D01*
X-21012Y28500D01*
X-21163Y29261D01*
X-21594Y29906D01*
X-22051Y30211D01*
Y31365D01*
X-21697Y31719D01*
X-21384Y31719D01*
X-21016Y31401D01*
Y31319D01*
X-19532D01*
Y33500D01*
Y35681D01*
X-21016D01*
Y35599D01*
X-21384Y35281D01*
X-21516Y35281D01*
X-22051D01*
Y36317D01*
X-17546D01*
Y39683D01*
X-17546D01*
X-17684Y40018D01*
X-14741Y42961D01*
X-14279Y42770D01*
Y40319D01*
X-12795D01*
Y42500D01*
X-11795D01*
Y40319D01*
X-10311D01*
Y40401D01*
X-9943Y40719D01*
X-9811Y40719D01*
X-6918D01*
Y39683D01*
X-13781D01*
Y39122D01*
X-14000D01*
X-14429Y39036D01*
X-14793Y38793D01*
X-14793Y38793D01*
X-15793Y37793D01*
X-16036Y37429D01*
X-16122Y37000D01*
X-16122Y37000D01*
Y30096D01*
X-16406Y29906D01*
X-16837Y29261D01*
X-16988Y28500D01*
X-16837Y27739D01*
X-16406Y27094D01*
X-15761Y26663D01*
X-15000Y26512D01*
X-14239Y26663D01*
X-13594Y27094D01*
X-13163Y27739D01*
X-13049Y28313D01*
X-12603Y28543D01*
X-12531Y28550D01*
X-12485Y28517D01*
X-12488Y28500D01*
X-12337Y27739D01*
X-11906Y27094D01*
X-11261Y26663D01*
X-10500Y26512D01*
X-9739Y26663D01*
X-9094Y27094D01*
X-8663Y27739D01*
X-8512Y28500D01*
X-8663Y29261D01*
X-9094Y29906D01*
X-9739Y30337D01*
X-10500Y30488D01*
X-10878Y30923D01*
Y31817D01*
X-6872D01*
Y32638D01*
X-4777D01*
Y31979D01*
X753D01*
Y34487D01*
X1254Y34754D01*
X1378Y34671D01*
Y31500D01*
X1378Y31500D01*
X1464Y31071D01*
X1707Y30707D01*
X5207Y27207D01*
X5207Y27207D01*
X5571Y26964D01*
X6000Y26878D01*
X6000Y26878D01*
X14035D01*
X19707Y21207D01*
X19707Y21207D01*
X20071Y20964D01*
X20500Y20878D01*
X20500Y20878D01*
X29035D01*
X30079Y19835D01*
X30012Y19500D01*
X30163Y18739D01*
X30594Y18094D01*
X31239Y17663D01*
X32000Y17512D01*
X32249Y17561D01*
X32478Y17311D01*
X32222Y16852D01*
X32000Y16896D01*
X31083Y16714D01*
X30306Y16194D01*
X29786Y15417D01*
X29703Y15000D01*
X34297D01*
X34262Y15172D01*
X34657Y15586D01*
X34827Y15552D01*
X34827Y15552D01*
X39317D01*
Y11546D01*
X39878D01*
Y1331D01*
X39606Y1295D01*
X38359Y778D01*
X37288Y-44D01*
X36466Y-1115D01*
X35949Y-2362D01*
X35881Y-2882D01*
X35390Y-2961D01*
X34529Y474D01*
X33336Y3808D01*
X31822Y7009D01*
X30002Y10047D01*
X27892Y12891D01*
X25514Y15514D01*
X22891Y17892D01*
X20046Y20002D01*
X17009Y21822D01*
X13808Y23336D01*
X10474Y24529D01*
X7039Y25390D01*
X3537Y25909D01*
X500Y26058D01*
Y-9500D01*
X36058D01*
X35909Y-6463D01*
X35860Y-6129D01*
X36345Y-5995D01*
X36466Y-6287D01*
X37288Y-7358D01*
X38359Y-8180D01*
X39606Y-8696D01*
X40945Y-8873D01*
X42283Y-8696D01*
X43531Y-8180D01*
X44602Y-7358D01*
X45424Y-6287D01*
X45941Y-5039D01*
X46117Y-3701D01*
X45941Y-2362D01*
X45424Y-1115D01*
X44602Y-44D01*
X43531Y778D01*
X42283Y1295D01*
X42122Y1316D01*
Y11546D01*
X42683D01*
Y14892D01*
Y18454D01*
X39317D01*
Y17795D01*
X35291D01*
X33922Y19165D01*
X33988Y19500D01*
X33837Y20261D01*
X33406Y20906D01*
X32761Y21337D01*
X32000Y21488D01*
X31665Y21421D01*
X30293Y22793D01*
X29929Y23036D01*
X29500Y23122D01*
X29500Y23122D01*
X20965D01*
X15293Y28793D01*
X14929Y29036D01*
X14500Y29122D01*
X14500Y29122D01*
X6465D01*
X3621Y31965D01*
Y35500D01*
X3622Y35500D01*
X3536Y35929D01*
X3293Y36293D01*
X3293Y36293D01*
X1293Y38293D01*
X929Y38536D01*
X753Y38571D01*
X753Y39281D01*
X753Y39781D01*
Y42708D01*
X2128Y44082D01*
X12793D01*
X15317Y41558D01*
Y39392D01*
Y36046D01*
X17483D01*
X21678Y31851D01*
X21976Y31652D01*
X22327Y31582D01*
X25571D01*
X25922Y31652D01*
X26220Y31851D01*
X26478Y32109D01*
X26862Y31951D01*
X27536Y31862D01*
X27705Y31884D01*
X27761Y31863D01*
X28132Y31436D01*
X28065Y30929D01*
X28168Y30151D01*
X28468Y29426D01*
X28940Y28811D01*
X28935Y28774D01*
X28766Y28311D01*
X21184D01*
X13918Y35577D01*
Y39500D01*
X13848Y39851D01*
X13649Y40149D01*
X11909Y41889D01*
X11777Y41977D01*
Y43021D01*
X6247D01*
Y39681D01*
X5847D01*
Y38000D01*
X9012D01*
Y37000D01*
X5847D01*
Y35319D01*
X6247D01*
Y31979D01*
X11777D01*
Y32382D01*
X12820D01*
X19658Y25545D01*
X19955Y25346D01*
X20307Y25276D01*
X28927D01*
X30993Y23209D01*
X31291Y23010D01*
X31642Y22940D01*
X35729D01*
X35888Y22557D01*
X36302Y22018D01*
X36841Y21604D01*
X37468Y21344D01*
X38142Y21255D01*
X38816Y21344D01*
X39443Y21604D01*
X39983Y22018D01*
X40396Y22557D01*
X40656Y23184D01*
X40745Y23858D01*
X40656Y24532D01*
X40396Y25159D01*
X39983Y25698D01*
X39443Y26112D01*
X38816Y26372D01*
X38142Y26460D01*
X37520Y26379D01*
X37300Y26551D01*
X37127Y26772D01*
X37209Y27393D01*
X37121Y28067D01*
X36860Y28695D01*
X36447Y29234D01*
X35908Y29647D01*
X35280Y29907D01*
X34607Y29996D01*
X34437Y29974D01*
X34381Y29995D01*
X34010Y30422D01*
X34077Y30929D01*
X33975Y31707D01*
X33674Y32432D01*
X33504Y32654D01*
X31425Y30575D01*
X30718Y31282D01*
X32797Y33362D01*
X32574Y33532D01*
X31849Y33832D01*
X31071Y33935D01*
X30564Y33868D01*
X30137Y34239D01*
X30116Y34295D01*
X30138Y34464D01*
X30049Y35138D01*
X29789Y35766D01*
X29376Y36305D01*
X28837Y36718D01*
X28209Y36978D01*
X27536Y37067D01*
X27405Y37050D01*
X27171Y37523D01*
X27649Y38001D01*
X24245Y41404D01*
X24557Y41799D01*
X26950Y40333D01*
X30031Y38094D01*
X32927Y35620D01*
X35621Y32927D01*
X38094Y30031D01*
X40333Y26950D01*
X42323Y23702D01*
X44052Y20308D01*
X45510Y16790D01*
X46687Y13167D01*
X47576Y9464D01*
X48172Y5702D01*
X48471Y1904D01*
Y-1904D01*
X48172Y-5702D01*
X47576Y-9464D01*
X46687Y-13167D01*
X46342Y-14229D01*
X45809Y-14250D01*
X45424Y-13320D01*
X44602Y-12248D01*
X43531Y-11427D01*
X42283Y-10910D01*
X40945Y-10734D01*
X39606Y-10910D01*
X38359Y-11427D01*
X37288Y-12248D01*
X36466Y-13320D01*
X36414Y-13444D01*
X35919Y-13333D01*
X36058Y-10500D01*
X500D01*
Y-46058D01*
X3537Y-45909D01*
X7039Y-45390D01*
X10474Y-44529D01*
X13808Y-43336D01*
X17009Y-41822D01*
X20046Y-40002D01*
X22891Y-37892D01*
X25514Y-35514D01*
X27892Y-32891D01*
X30002Y-30047D01*
X31822Y-27009D01*
X33336Y-23808D01*
X34529Y-20474D01*
X35390Y-17039D01*
X35405Y-16938D01*
X35910Y-16942D01*
X35949Y-17244D01*
X36466Y-18491D01*
X37288Y-19563D01*
X38359Y-20384D01*
X39606Y-20901D01*
X40945Y-21077D01*
X42283Y-20901D01*
X43431Y-20426D01*
X43696Y-20626D01*
X43808Y-20788D01*
X42323Y-23702D01*
X40333Y-26950D01*
X38094Y-30031D01*
X35620Y-32927D01*
X32927Y-35621D01*
X30031Y-38094D01*
X26950Y-40333D01*
X23702Y-42323D01*
X20308Y-44052D01*
X16790Y-45510D01*
X13167Y-46687D01*
X9464Y-47576D01*
X5702Y-48172D01*
X1904Y-48471D01*
X-1904D01*
X-5702Y-48172D01*
X-9464Y-47576D01*
X-13167Y-46687D01*
X-16790Y-45510D01*
X-20308Y-44052D01*
X-23702Y-42323D01*
X-26950Y-40333D01*
X-30031Y-38094D01*
X-32927Y-35620D01*
X-35621Y-32927D01*
X-38094Y-30031D01*
X-40333Y-26950D01*
X-42323Y-23702D01*
X-43808Y-20788D01*
X-43696Y-20626D01*
X-43431Y-20426D01*
X-42283Y-20901D01*
X-40945Y-21077D01*
X-39606Y-20901D01*
X-38359Y-20384D01*
X-37288Y-19563D01*
X-36466Y-18491D01*
X-35949Y-17244D01*
X-35910Y-16942D01*
X-35405Y-16938D01*
X-35390Y-17039D01*
X-34529Y-20474D01*
X-33336Y-23808D01*
X-31822Y-27009D01*
X-30002Y-30047D01*
X-27892Y-32891D01*
X-25514Y-35514D01*
X-22891Y-37892D01*
X-20046Y-40002D01*
X-17009Y-41822D01*
X-13808Y-43336D01*
X-10474Y-44529D01*
X-7039Y-45390D01*
X-3537Y-45909D01*
X-500Y-46058D01*
Y-10500D01*
X-36058D01*
X-35919Y-13333D01*
X-36414Y-13444D01*
X-36466Y-13320D01*
X-37288Y-12248D01*
X-38359Y-11427D01*
X-39606Y-10910D01*
X-40945Y-10734D01*
X-42283Y-10910D01*
X-43531Y-11427D01*
X-44602Y-12248D01*
X-45424Y-13320D01*
X-45809Y-14250D01*
X-46342Y-14229D01*
X-46687Y-13167D01*
X-47576Y-9464D01*
X-48172Y-5702D01*
X-48471Y-1904D01*
Y1904D01*
X-48172Y5702D01*
X-47576Y9464D01*
X-46687Y13167D01*
X-45510Y16790D01*
X-44052Y20308D01*
X-42323Y23702D01*
X-40333Y26950D01*
X-38094Y30031D01*
X-35620Y32927D01*
X-32927Y35621D01*
X-30031Y38094D01*
X-26950Y40333D01*
X-23702Y42323D01*
X-20308Y44052D01*
X-16790Y45510D01*
X-14872Y46133D01*
X-14603Y45694D01*
D02*
G37*
%LPC*%
G36*
X31500Y14000D02*
X29703D01*
X29786Y13583D01*
X30306Y12806D01*
X31083Y12286D01*
X31500Y12203D01*
Y14000D01*
D02*
G37*
G36*
X-500Y26058D02*
X-3537Y25909D01*
X-7039Y25390D01*
X-10474Y24529D01*
X-13808Y23336D01*
X-17009Y21822D01*
X-20046Y20002D01*
X-22891Y17892D01*
X-25514Y15514D01*
X-27892Y12891D01*
X-30002Y10047D01*
X-31822Y7009D01*
X-33336Y3808D01*
X-34529Y474D01*
X-35390Y-2961D01*
X-35881Y-2882D01*
X-35949Y-2362D01*
X-36466Y-1115D01*
X-37288Y-44D01*
X-38359Y778D01*
X-39606Y1295D01*
X-40945Y1471D01*
X-42283Y1295D01*
X-43531Y778D01*
X-44602Y-44D01*
X-45424Y-1115D01*
X-45941Y-2362D01*
X-46117Y-3701D01*
X-45941Y-5039D01*
X-45424Y-6287D01*
X-44602Y-7358D01*
X-43531Y-8180D01*
X-42283Y-8696D01*
X-40945Y-8873D01*
X-39606Y-8696D01*
X-38359Y-8180D01*
X-37288Y-7358D01*
X-36466Y-6287D01*
X-36345Y-5995D01*
X-35860Y-6129D01*
X-35909Y-6463D01*
X-36058Y-9500D01*
X-500D01*
Y26058D01*
D02*
G37*
G36*
X34297Y14000D02*
X32500D01*
Y12203D01*
X32917Y12286D01*
X33694Y12806D01*
X34214Y13583D01*
X34297Y14000D01*
D02*
G37*
G36*
X-17047Y33000D02*
X-18531D01*
Y31319D01*
X-17047D01*
Y33000D01*
D02*
G37*
G36*
Y35681D02*
X-18531D01*
Y34000D01*
X-17047D01*
Y35681D01*
D02*
G37*
%LPD*%
D14*
X-15000Y28500D02*
Y37000D01*
X-14000Y38000D01*
X-12000D01*
Y30000D02*
X-10500Y28500D01*
X-12000Y30000D02*
Y33500D01*
X-8653D02*
X-8394Y33760D01*
X-2012D01*
X-8653Y33500D02*
Y38000D01*
X41000Y-5646D02*
Y13327D01*
X32000Y19500D02*
X34827Y16673D01*
X41000D01*
X2500Y31500D02*
X6000Y28000D01*
X2500Y31500D02*
Y35500D01*
X500Y37500D02*
X2500Y35500D01*
X-2012Y37500D02*
X500D01*
X30142Y30000D02*
X31071Y30929D01*
X6000Y28000D02*
X14500D01*
X29500Y22000D02*
X32000Y19500D01*
X20500Y22000D02*
X29500D01*
X14500Y28000D02*
X20500Y22000D01*
D15*
X-23000Y28500D02*
X-22968Y28532D01*
Y33500D01*
X-19327Y38000D02*
Y39673D01*
X-13500Y45500D01*
X-6272D01*
X-2012Y41240D01*
X-8358Y42500D02*
X-7000D01*
X-6000Y41500D01*
Y38500D02*
Y41500D01*
Y38500D02*
X-5000Y37500D01*
X-2012D01*
Y41240D02*
X1748Y45000D01*
X35000Y28500D02*
X35107Y28393D01*
X-22968Y33500D02*
Y37705D01*
X-22673Y38000D01*
X11260Y41240D02*
X13000Y39500D01*
X9012Y41240D02*
X11260D01*
X9012Y33760D02*
X9472Y33300D01*
X20827Y41173D02*
X24000Y38000D01*
X17000Y41173D02*
X20827D01*
X1748Y45000D02*
X13173D01*
X17000Y41173D01*
Y37827D02*
X22327Y32500D01*
X25571D01*
X27536Y34464D01*
X29307Y26193D02*
X31642Y23858D01*
X38142D01*
X13000Y35197D02*
Y39500D01*
X9472Y33300D02*
X13200D01*
X20307Y26193D01*
X29307D01*
X13000Y35197D02*
X20804Y27393D01*
X34607D01*
X31071Y30929D02*
X31571Y31429D01*
D16*
X27536Y34464D02*
D03*
X38142Y23858D02*
D03*
X31071Y30929D02*
D03*
X34607Y27393D02*
D03*
D17*
X24000Y38000D02*
D03*
D18*
X-40945Y-3701D02*
D03*
Y-15905D02*
D03*
X40945Y-3701D02*
D03*
Y-15905D02*
D03*
D19*
X-15000Y28500D02*
D03*
X-10500D02*
D03*
X32000Y14500D02*
D03*
Y19500D02*
D03*
X-23000Y28500D02*
D03*
D20*
X-8653Y38000D02*
D03*
X-12000D02*
D03*
X-8653Y33500D02*
D03*
X-12000D02*
D03*
X-22673Y38000D02*
D03*
X-19327D02*
D03*
D21*
X-2012Y33760D02*
D03*
Y41240D02*
D03*
Y37500D02*
D03*
X9012D02*
D03*
Y33760D02*
D03*
Y41240D02*
D03*
D22*
X41000Y13327D02*
D03*
Y16673D02*
D03*
X17000Y41173D02*
D03*
Y37827D02*
D03*
D23*
X-22968Y33500D02*
D03*
X-19031D02*
D03*
X-12295Y42500D02*
D03*
X-8358D02*
D03*
D24*
X0Y-10000D02*
D03*
D25*
X12500Y-12000D02*
X24383Y-117D01*
M02*
