G04 Layer_Physical_Order=1*
G04 Layer_Color=255*
%FSLAX25Y25*%
%MOIN*%
G70*
G01*
G75*
%ADD10R,0.02559X0.03150*%
%ADD11R,0.04016X0.04488*%
%ADD12R,0.01181X0.04488*%
%ADD13R,0.08268X0.05118*%
%ADD14C,0.01000*%
%ADD15C,0.00600*%
%ADD16C,0.03961*%
G04:AMPARAMS|DCode=17|XSize=39.59mil|YSize=39.61mil|CornerRadius=0mil|HoleSize=0mil|Usage=FLASHONLY|Rotation=315.000|XOffset=0mil|YOffset=0mil|HoleType=Round|Shape=Rectangle|*
%AMROTATEDRECTD17*
4,1,4,-0.02800,-0.00001,0.00001,0.02800,0.02800,0.00001,-0.00001,-0.02800,-0.02800,-0.00001,0.0*
%
%ADD17ROTATEDRECTD17*%

%ADD18C,0.09055*%
%ADD19C,0.02700*%
D10*
X-4648Y22500D02*
D03*
X4742D02*
D03*
X-4648Y-22500D02*
D03*
X4742D02*
D03*
D11*
X1494Y22500D02*
D03*
Y-22500D02*
D03*
D12*
X-2876Y22500D02*
D03*
Y-22500D02*
D03*
D13*
X17913Y8465D02*
D03*
X-17913D02*
D03*
X17913Y-8465D02*
D03*
X-17913D02*
D03*
D14*
X4742Y-22500D02*
X6000D01*
X4742Y22500D02*
X6000D01*
X-2876Y-22500D02*
Y15376D01*
X-15000Y27500D02*
X-2876Y15376D01*
X-15000Y27500D02*
Y28500D01*
X1494Y-22500D02*
X4742D01*
X17913Y-10587D02*
Y-8465D01*
X6000Y-22500D02*
X17913Y-10587D01*
Y8465D02*
Y10587D01*
X6000Y22500D02*
X17913Y10587D01*
X-10500Y28500D02*
X-4500Y22500D01*
X-2876D01*
X27850Y-29000D02*
X40945Y-15905D01*
X-27850Y-29000D02*
X27850D01*
X-40945Y-15905D02*
X-27850Y-29000D01*
X25965Y8465D02*
X32000Y14500D01*
X17913Y8465D02*
X25965D01*
X17913Y-8465D02*
Y8465D01*
X-40945Y-15905D02*
Y-3701D01*
X40945Y-15905D02*
Y-3701D01*
X26500Y25000D02*
X32000Y19500D01*
X26500Y25000D02*
Y33429D01*
X27536Y34464D01*
D15*
X-23000Y28500D02*
X-17913Y23413D01*
Y8465D02*
Y23413D01*
Y-8465D02*
Y8465D01*
D16*
X27536Y34464D02*
D03*
X38142Y23858D02*
D03*
X31071Y30929D02*
D03*
X34607Y27393D02*
D03*
D17*
X24000Y38000D02*
D03*
D18*
X-40945Y-3701D02*
D03*
Y-15905D02*
D03*
X40945Y-3701D02*
D03*
Y-15905D02*
D03*
D19*
X-15000Y28500D02*
D03*
X-10500D02*
D03*
X32000Y14500D02*
D03*
Y19500D02*
D03*
X-23000Y28500D02*
D03*
M02*
