G04 Layer_Color=65535*
%FSLAX25Y25*%
%MOIN*%
G70*
G01*
G75*
%ADD14C,0.01000*%
%ADD15C,0.00600*%
G36*
X1684Y38252D02*
X1785D01*
Y38151D01*
X1886D01*
Y38050D01*
Y37949D01*
X1987D01*
Y37848D01*
X2087D01*
Y37747D01*
Y37647D01*
X2188D01*
Y37546D01*
Y37445D01*
X2289D01*
Y37344D01*
X2390D01*
Y37243D01*
Y37142D01*
Y37042D01*
X2592D01*
Y36941D01*
Y36840D01*
X2692D01*
Y36739D01*
X2390D01*
Y36638D01*
X1583D01*
Y36739D01*
Y36840D01*
Y36941D01*
Y37042D01*
Y37142D01*
Y37243D01*
Y37344D01*
Y37445D01*
Y37546D01*
Y37647D01*
Y37747D01*
Y37848D01*
Y37949D01*
Y38050D01*
Y38151D01*
Y38252D01*
Y38353D01*
X1684D01*
Y38252D01*
D02*
G37*
G36*
X4407Y39260D02*
Y39159D01*
Y39059D01*
Y38958D01*
Y38857D01*
Y38756D01*
Y38655D01*
Y38554D01*
Y38453D01*
Y38353D01*
Y38252D01*
Y38151D01*
Y38050D01*
Y37949D01*
Y37848D01*
Y37747D01*
Y37647D01*
Y37546D01*
Y37445D01*
Y37344D01*
Y37243D01*
Y37142D01*
Y37042D01*
Y36941D01*
Y36840D01*
Y36739D01*
Y36638D01*
X3701D01*
Y36739D01*
Y36840D01*
Y36941D01*
Y37042D01*
Y37142D01*
Y37243D01*
Y37344D01*
Y37445D01*
Y37546D01*
Y37647D01*
Y37747D01*
Y37848D01*
Y37949D01*
Y38050D01*
Y38151D01*
Y38252D01*
Y38353D01*
Y38453D01*
Y38554D01*
Y38655D01*
Y38756D01*
Y38857D01*
Y38958D01*
Y39059D01*
Y39159D01*
Y39260D01*
Y39361D01*
X4407D01*
Y39260D01*
D02*
G37*
G36*
X-535D02*
X-434D01*
Y39159D01*
Y39059D01*
Y38958D01*
Y38857D01*
Y38756D01*
Y38655D01*
Y38554D01*
Y38453D01*
Y38353D01*
Y38252D01*
Y38151D01*
Y38050D01*
Y37949D01*
Y37848D01*
Y37747D01*
Y37647D01*
Y37546D01*
Y37445D01*
Y37344D01*
Y37243D01*
Y37142D01*
Y37042D01*
Y36941D01*
Y36840D01*
Y36739D01*
X-1039D01*
Y36638D01*
X-1140D01*
Y36739D01*
Y36840D01*
Y36941D01*
Y37042D01*
Y37142D01*
Y37243D01*
Y37344D01*
Y37445D01*
Y37546D01*
Y37647D01*
Y37747D01*
Y37848D01*
Y37949D01*
Y38050D01*
Y38151D01*
Y38252D01*
Y38353D01*
Y38453D01*
Y38554D01*
Y38655D01*
Y38756D01*
Y38857D01*
Y38958D01*
Y39059D01*
Y39159D01*
Y39260D01*
Y39361D01*
X-535D01*
Y39260D01*
D02*
G37*
G36*
X-10821Y41176D02*
X-10619D01*
Y41076D01*
X-10518D01*
Y40975D01*
X-10418D01*
Y40874D01*
Y40773D01*
Y40672D01*
X-10317D01*
Y40571D01*
Y40470D01*
Y40369D01*
Y40269D01*
Y40168D01*
Y40067D01*
Y39966D01*
Y39865D01*
Y39764D01*
Y39664D01*
Y39563D01*
Y39462D01*
Y39361D01*
X-9712D01*
Y39260D01*
Y39159D01*
Y39059D01*
X-9813D01*
Y38958D01*
Y38857D01*
Y38756D01*
X-9913D01*
Y38655D01*
Y38554D01*
X-10014D01*
Y38453D01*
Y38353D01*
Y38252D01*
X-10115D01*
Y38151D01*
Y38050D01*
X-10216D01*
Y37949D01*
Y37848D01*
Y37747D01*
X-10317D01*
Y37647D01*
Y37546D01*
Y37445D01*
X-10418D01*
Y37344D01*
Y37243D01*
X-10518D01*
Y37142D01*
Y37042D01*
Y36941D01*
X-10619D01*
Y36840D01*
Y36739D01*
X-10720D01*
Y36638D01*
X-10821D01*
Y36739D01*
X-11124D01*
Y36840D01*
Y36941D01*
Y37042D01*
Y37142D01*
Y37243D01*
Y37344D01*
Y37445D01*
Y37546D01*
Y37647D01*
Y37747D01*
Y37848D01*
Y37949D01*
Y38050D01*
Y38151D01*
Y38252D01*
Y38353D01*
Y38453D01*
Y38554D01*
Y38655D01*
Y38756D01*
Y38857D01*
Y38958D01*
Y39059D01*
Y39159D01*
Y39260D01*
Y39361D01*
X-10821D01*
Y39462D01*
Y39563D01*
Y39664D01*
Y39764D01*
Y39865D01*
Y39966D01*
Y40067D01*
Y40168D01*
Y40269D01*
Y40369D01*
Y40470D01*
Y40571D01*
Y40672D01*
X-10922D01*
Y40773D01*
X-11023D01*
Y40874D01*
X-11124D01*
Y40975D01*
X-11729D01*
Y41076D01*
X-11628D01*
Y41176D01*
X-11426D01*
Y41277D01*
X-10821D01*
Y41176D01*
D02*
G37*
G36*
X-8401Y41781D02*
Y41680D01*
Y41580D01*
Y41479D01*
Y41378D01*
Y41277D01*
Y41176D01*
X-7896D01*
Y41076D01*
Y40975D01*
X-8300D01*
Y40874D01*
Y40773D01*
X-8401D01*
Y40672D01*
Y40571D01*
X-8300D01*
Y40470D01*
Y40369D01*
X-8401D01*
Y40269D01*
Y40168D01*
Y40067D01*
Y39966D01*
Y39865D01*
Y39764D01*
Y39664D01*
Y39563D01*
Y39462D01*
X-8300D01*
Y39361D01*
X-6787D01*
Y39260D01*
X-6888D01*
Y39159D01*
X-6989D01*
Y39059D01*
X-7090D01*
Y38958D01*
X-7191D01*
Y38857D01*
X-7291D01*
Y38756D01*
Y38655D01*
X-7392D01*
Y38554D01*
Y38453D01*
Y38353D01*
Y38252D01*
X-7493D01*
Y38151D01*
Y38050D01*
Y37949D01*
Y37848D01*
Y37747D01*
Y37647D01*
Y37546D01*
Y37445D01*
X-7392D01*
Y37344D01*
Y37243D01*
Y37142D01*
X-7291D01*
Y37042D01*
Y36941D01*
X-7191D01*
Y36840D01*
Y36739D01*
X-7392D01*
Y36638D01*
X-7594D01*
Y36739D01*
X-7896D01*
Y36840D01*
Y36941D01*
Y37042D01*
X-7997D01*
Y37142D01*
Y37243D01*
X-8098D01*
Y37344D01*
Y37445D01*
Y37546D01*
X-8199D01*
Y37647D01*
Y37747D01*
Y37848D01*
X-8300D01*
Y37949D01*
Y38050D01*
X-8401D01*
Y38151D01*
Y38252D01*
Y38353D01*
X-8501D01*
Y38453D01*
Y38554D01*
Y38655D01*
Y38756D01*
X-8602D01*
Y38857D01*
Y38958D01*
X-8703D01*
Y39059D01*
Y39159D01*
Y39260D01*
X-8804D01*
Y39361D01*
Y39462D01*
Y39563D01*
Y39664D01*
Y39764D01*
X-8905D01*
Y39865D01*
Y39966D01*
Y40067D01*
Y40168D01*
Y40269D01*
Y40369D01*
Y40470D01*
Y40571D01*
Y40672D01*
Y40773D01*
Y40874D01*
Y40975D01*
X-9308D01*
Y41076D01*
Y41176D01*
X-8905D01*
Y41277D01*
X-8804D01*
Y41378D01*
Y41479D01*
Y41580D01*
Y41680D01*
Y41781D01*
Y41882D01*
X-8401D01*
Y41781D01*
D02*
G37*
G36*
X-8602Y36840D02*
Y36739D01*
X-9913D01*
Y36840D01*
Y36941D01*
X-8602D01*
Y36840D01*
D02*
G37*
G36*
X-9107Y38453D02*
Y38353D01*
Y38252D01*
X-9006D01*
Y38151D01*
Y38050D01*
Y37949D01*
X-8905D01*
Y37848D01*
Y37747D01*
Y37647D01*
X-8804D01*
Y37546D01*
X-8905D01*
Y37445D01*
X-9611D01*
Y37546D01*
Y37647D01*
Y37747D01*
Y37848D01*
X-9510D01*
Y37949D01*
Y38050D01*
Y38151D01*
X-9409D01*
Y38252D01*
Y38353D01*
X-9308D01*
Y38453D01*
Y38554D01*
X-9107D01*
Y38453D01*
D02*
G37*
G36*
X2188Y41076D02*
Y40975D01*
Y40874D01*
Y40773D01*
Y40672D01*
Y40571D01*
Y40470D01*
Y40369D01*
Y40269D01*
Y40168D01*
Y40067D01*
Y39966D01*
Y39865D01*
Y39764D01*
Y39664D01*
Y39563D01*
Y39462D01*
Y39361D01*
Y39260D01*
X2289D01*
Y39361D01*
X3096D01*
Y39260D01*
Y39159D01*
Y39059D01*
Y38958D01*
Y38857D01*
Y38756D01*
Y38655D01*
Y38554D01*
Y38453D01*
Y38353D01*
Y38252D01*
Y38151D01*
Y38050D01*
Y37949D01*
Y37848D01*
Y37747D01*
Y37647D01*
Y37546D01*
Y37445D01*
X2894D01*
Y37546D01*
Y37647D01*
X2793D01*
Y37747D01*
X2692D01*
Y37848D01*
Y37949D01*
X2592D01*
Y38050D01*
Y38151D01*
X2491D01*
Y38252D01*
X2390D01*
Y38353D01*
Y38453D01*
X2289D01*
Y38554D01*
X2188D01*
Y38655D01*
Y38756D01*
X2087D01*
Y38857D01*
Y38958D01*
X1987D01*
Y39059D01*
X1886D01*
Y39159D01*
Y39260D01*
X1785D01*
Y39361D01*
X1684D01*
Y39462D01*
Y39563D01*
Y39664D01*
Y39764D01*
Y39865D01*
Y39966D01*
Y40067D01*
Y40168D01*
Y40269D01*
Y40369D01*
Y40470D01*
Y40571D01*
Y40672D01*
Y40773D01*
Y40874D01*
Y40975D01*
Y41076D01*
Y41176D01*
X2188D01*
Y41076D01*
D02*
G37*
G36*
X-15964Y38453D02*
X-15460D01*
Y38353D01*
Y38252D01*
Y38151D01*
Y38050D01*
Y37949D01*
Y37848D01*
Y37747D01*
Y37647D01*
Y37546D01*
Y37445D01*
Y37344D01*
X-16468D01*
Y37243D01*
X-16670D01*
Y37344D01*
X-16872D01*
Y37445D01*
Y37546D01*
Y37647D01*
Y37747D01*
Y37848D01*
Y37949D01*
Y38050D01*
Y38151D01*
Y38252D01*
Y38353D01*
Y38453D01*
X-16468D01*
Y38554D01*
X-15964D01*
Y38453D01*
D02*
G37*
G36*
X-1846Y37546D02*
Y37445D01*
Y37344D01*
Y37243D01*
Y37142D01*
Y37042D01*
Y36941D01*
Y36840D01*
Y36739D01*
X-3157D01*
Y36840D01*
Y36941D01*
Y37042D01*
Y37142D01*
Y37243D01*
Y37344D01*
Y37445D01*
Y37546D01*
Y37647D01*
X-1846D01*
Y37546D01*
D02*
G37*
G36*
X978Y39260D02*
Y39159D01*
Y39059D01*
Y38958D01*
Y38857D01*
Y38756D01*
Y38655D01*
Y38554D01*
Y38453D01*
Y38353D01*
Y38252D01*
Y38151D01*
Y38050D01*
Y37949D01*
Y37848D01*
Y37747D01*
Y37647D01*
Y37546D01*
Y37445D01*
Y37344D01*
Y37243D01*
Y37142D01*
Y37042D01*
Y36941D01*
Y36840D01*
Y36739D01*
X272D01*
Y36840D01*
Y36941D01*
Y37042D01*
Y37142D01*
Y37243D01*
Y37344D01*
Y37445D01*
Y37546D01*
Y37647D01*
Y37747D01*
Y37848D01*
Y37949D01*
Y38050D01*
Y38151D01*
Y38252D01*
Y38353D01*
Y38453D01*
Y38554D01*
Y38655D01*
Y38756D01*
Y38857D01*
Y38958D01*
Y39059D01*
Y39159D01*
Y39260D01*
Y39361D01*
X978D01*
Y39260D01*
D02*
G37*
G36*
X3398Y33310D02*
Y33209D01*
Y33109D01*
X2995D01*
Y33209D01*
Y33310D01*
Y33411D01*
X3398D01*
Y33310D01*
D02*
G37*
G36*
X1079Y34218D02*
Y34117D01*
Y34016D01*
Y33915D01*
Y33814D01*
Y33714D01*
Y33613D01*
Y33512D01*
Y33411D01*
X171D01*
Y33512D01*
Y33613D01*
Y33714D01*
Y33814D01*
Y33915D01*
Y34016D01*
Y34117D01*
Y34218D01*
Y34319D01*
X1079D01*
Y34218D01*
D02*
G37*
G36*
X-2148Y34016D02*
Y33915D01*
Y33814D01*
Y33714D01*
Y33613D01*
Y33512D01*
Y33411D01*
Y33310D01*
Y33209D01*
Y33109D01*
Y33008D01*
Y32907D01*
X-3459D01*
Y33008D01*
Y33109D01*
Y33209D01*
Y33310D01*
Y33411D01*
Y33512D01*
Y33613D01*
Y33714D01*
Y33814D01*
Y33915D01*
Y34016D01*
X-3358D01*
Y34117D01*
X-2148D01*
Y34016D01*
D02*
G37*
G36*
X-10216Y34117D02*
Y34016D01*
Y33915D01*
Y33814D01*
Y33714D01*
Y33613D01*
Y33512D01*
Y33411D01*
Y33310D01*
Y33209D01*
Y33109D01*
Y33008D01*
Y32907D01*
Y32806D01*
Y32705D01*
Y32604D01*
Y32504D01*
X-10418D01*
Y32403D01*
X-11729D01*
Y32504D01*
X-12031D01*
Y32604D01*
Y32705D01*
Y32806D01*
Y32907D01*
Y33008D01*
Y33109D01*
Y33209D01*
Y33310D01*
Y33411D01*
Y33512D01*
Y33613D01*
Y33714D01*
Y33814D01*
Y33915D01*
Y34016D01*
Y34117D01*
Y34218D01*
X-10216D01*
Y34117D01*
D02*
G37*
G36*
X6323Y33814D02*
Y33714D01*
Y33613D01*
Y33512D01*
Y33411D01*
Y33310D01*
Y33209D01*
Y33109D01*
Y33008D01*
Y32907D01*
Y32806D01*
Y32705D01*
X5012D01*
Y32806D01*
Y32907D01*
Y33008D01*
Y33109D01*
Y33209D01*
Y33310D01*
Y33411D01*
Y33512D01*
Y33613D01*
Y33714D01*
Y33814D01*
Y33915D01*
X6323D01*
Y33814D01*
D02*
G37*
G36*
X-14149Y34621D02*
Y34520D01*
Y34420D01*
Y34319D01*
Y34218D01*
Y34117D01*
Y34016D01*
Y33915D01*
Y33814D01*
Y33714D01*
X-15157D01*
Y33814D01*
Y33915D01*
Y34016D01*
Y34117D01*
Y34218D01*
Y34319D01*
Y34420D01*
Y34520D01*
Y34621D01*
Y34722D01*
X-14149D01*
Y34621D01*
D02*
G37*
G36*
X-13947Y38252D02*
X-13846D01*
Y38151D01*
Y38050D01*
X-13746D01*
Y37949D01*
Y37848D01*
Y37747D01*
X-13645D01*
Y37647D01*
Y37546D01*
Y37445D01*
X-13544D01*
Y37344D01*
Y37243D01*
Y37142D01*
X-13443D01*
Y37042D01*
Y36941D01*
Y36840D01*
X-13342D01*
Y36739D01*
X-13544D01*
Y36638D01*
X-13846D01*
Y36739D01*
X-14048D01*
Y36840D01*
Y36941D01*
Y37042D01*
Y37142D01*
Y37243D01*
Y37344D01*
Y37445D01*
Y37546D01*
Y37647D01*
Y37747D01*
Y37848D01*
Y37949D01*
Y38050D01*
Y38151D01*
Y38252D01*
Y38353D01*
X-13947D01*
Y38252D01*
D02*
G37*
G36*
X-11829D02*
X-11729D01*
Y38151D01*
Y38050D01*
Y37949D01*
Y37848D01*
Y37747D01*
Y37647D01*
Y37546D01*
Y37445D01*
Y37344D01*
Y37243D01*
Y37142D01*
Y37042D01*
Y36941D01*
Y36840D01*
Y36739D01*
Y36638D01*
X-12031D01*
Y36739D01*
X-12434D01*
Y36840D01*
Y36941D01*
X-12334D01*
Y37042D01*
Y37142D01*
Y37243D01*
X-12233D01*
Y37344D01*
Y37445D01*
X-12132D01*
Y37546D01*
Y37647D01*
Y37747D01*
X-12031D01*
Y37848D01*
Y37949D01*
Y38050D01*
X-11930D01*
Y38151D01*
Y38252D01*
Y38353D01*
X-11829D01*
Y38252D01*
D02*
G37*
G36*
X8138Y35831D02*
Y35731D01*
Y35630D01*
Y35529D01*
Y35428D01*
Y35327D01*
Y35226D01*
Y35125D01*
Y35025D01*
Y34924D01*
X7130D01*
Y35025D01*
Y35125D01*
Y35226D01*
Y35327D01*
Y35428D01*
Y35529D01*
Y35630D01*
Y35731D01*
Y35831D01*
Y35932D01*
X8138D01*
Y35831D01*
D02*
G37*
G36*
X-5375Y34823D02*
Y34722D01*
Y34621D01*
Y34520D01*
Y34420D01*
Y34319D01*
Y34218D01*
Y34117D01*
Y34016D01*
Y33915D01*
X-6485D01*
Y34016D01*
Y34117D01*
Y34218D01*
Y34319D01*
Y34420D01*
Y34520D01*
Y34621D01*
Y34722D01*
Y34823D01*
Y34924D01*
X-5375D01*
Y34823D01*
D02*
G37*
G36*
X2692Y35428D02*
Y35327D01*
Y35226D01*
Y35125D01*
Y35025D01*
Y34924D01*
Y34823D01*
X2087D01*
Y34924D01*
X1987D01*
Y35025D01*
Y35125D01*
Y35226D01*
X2087D01*
Y35327D01*
Y35428D01*
Y35529D01*
X2692D01*
Y35428D01*
D02*
G37*
G36*
X-2350Y41176D02*
X-2148D01*
Y41076D01*
Y40975D01*
Y40874D01*
Y40773D01*
Y40672D01*
Y40571D01*
Y40470D01*
Y40369D01*
Y40269D01*
Y40168D01*
Y40067D01*
Y39966D01*
Y39865D01*
Y39764D01*
Y39664D01*
Y39563D01*
Y39462D01*
Y39361D01*
X-1846D01*
Y39260D01*
Y39159D01*
Y39059D01*
Y38958D01*
Y38857D01*
Y38756D01*
Y38655D01*
Y38554D01*
Y38453D01*
Y38353D01*
Y38252D01*
X-3157D01*
Y38353D01*
Y38453D01*
Y38554D01*
Y38655D01*
Y38756D01*
Y38857D01*
Y38958D01*
Y39059D01*
Y39159D01*
Y39260D01*
Y39361D01*
X-2652D01*
Y39462D01*
Y39563D01*
Y39664D01*
Y39764D01*
Y39865D01*
Y39966D01*
Y40067D01*
Y40168D01*
Y40269D01*
Y40369D01*
Y40470D01*
Y40571D01*
Y40672D01*
Y40773D01*
Y40874D01*
Y40975D01*
X-2753D01*
Y41076D01*
X-2652D01*
Y41176D01*
X-2551D01*
Y41277D01*
X-2350D01*
Y41176D01*
D02*
G37*
G36*
X7533Y43395D02*
Y43294D01*
Y43193D01*
Y43092D01*
Y42992D01*
Y42891D01*
Y42790D01*
Y42689D01*
Y42588D01*
X7432D01*
Y42487D01*
X7231D01*
Y42386D01*
X6626D01*
Y42487D01*
X6525D01*
Y42588D01*
Y42689D01*
Y42790D01*
Y42891D01*
Y42992D01*
Y43092D01*
Y43193D01*
Y43294D01*
Y43395D01*
Y43496D01*
X7533D01*
Y43395D01*
D02*
G37*
G36*
X-3560Y44504D02*
X-3661D01*
Y44403D01*
Y44302D01*
Y44202D01*
Y44101D01*
Y44000D01*
Y43899D01*
X-3560D01*
Y43798D01*
Y43698D01*
Y43597D01*
Y43496D01*
Y43395D01*
Y43294D01*
Y43193D01*
Y43092D01*
X-3762D01*
Y42992D01*
X-3863D01*
Y43092D01*
X-5073D01*
Y43193D01*
Y43294D01*
Y43395D01*
Y43496D01*
X-5174D01*
Y43597D01*
Y43698D01*
Y43798D01*
Y43899D01*
Y44000D01*
Y44101D01*
Y44202D01*
Y44302D01*
Y44403D01*
Y44504D01*
Y44605D01*
X-3560D01*
Y44504D01*
D02*
G37*
G36*
X2188Y41983D02*
Y41882D01*
Y41781D01*
X1684D01*
Y41882D01*
Y41983D01*
Y42084D01*
X2188D01*
Y41983D01*
D02*
G37*
G36*
X-14048D02*
Y41882D01*
Y41781D01*
X-14149D01*
Y41680D01*
X-14351D01*
Y41781D01*
X-14552D01*
Y41882D01*
X-14451D01*
Y41983D01*
X-14552D01*
Y42084D01*
X-14048D01*
Y41983D01*
D02*
G37*
G36*
X-2148D02*
Y41882D01*
Y41781D01*
X-2652D01*
Y41882D01*
Y41983D01*
Y42084D01*
X-2148D01*
Y41983D01*
D02*
G37*
G36*
X-6485Y43798D02*
Y43698D01*
Y43597D01*
X-6384D01*
Y43496D01*
Y43395D01*
X-6485D01*
Y43294D01*
X-6989D01*
Y43395D01*
Y43496D01*
Y43597D01*
Y43698D01*
Y43798D01*
Y43899D01*
X-6485D01*
Y43798D01*
D02*
G37*
G36*
X7836Y45412D02*
Y45311D01*
Y45210D01*
Y45109D01*
Y45009D01*
Y44908D01*
X7937D01*
Y44807D01*
X7231D01*
Y44908D01*
Y45009D01*
Y45109D01*
Y45210D01*
Y45311D01*
Y45412D01*
Y45513D01*
X7836D01*
Y45412D01*
D02*
G37*
G36*
X-8300Y46219D02*
X-8199D01*
Y46118D01*
X-8300D01*
Y46017D01*
Y45916D01*
Y45815D01*
Y45714D01*
Y45614D01*
Y45513D01*
Y45412D01*
Y45311D01*
X-9308D01*
Y45412D01*
Y45513D01*
Y45614D01*
Y45714D01*
Y45815D01*
Y45916D01*
Y46017D01*
Y46118D01*
Y46219D01*
Y46319D01*
X-8300D01*
Y46219D01*
D02*
G37*
G36*
X3600Y45714D02*
X4508D01*
Y45614D01*
Y45513D01*
Y45412D01*
Y45311D01*
Y45210D01*
Y45109D01*
Y45009D01*
Y44908D01*
Y44807D01*
Y44706D01*
Y44605D01*
Y44504D01*
Y44403D01*
Y44302D01*
Y44202D01*
Y44101D01*
Y44000D01*
X2793D01*
Y44101D01*
Y44202D01*
Y44302D01*
Y44403D01*
Y44504D01*
Y44605D01*
Y44706D01*
Y44807D01*
Y44908D01*
Y45009D01*
Y45109D01*
Y45210D01*
X2692D01*
Y45311D01*
X2793D01*
Y45412D01*
Y45513D01*
Y45614D01*
Y45714D01*
X2995D01*
Y45815D01*
X3600D01*
Y45714D01*
D02*
G37*
G36*
X-11930Y44908D02*
X-12031D01*
Y44807D01*
Y44706D01*
Y44605D01*
Y44504D01*
Y44403D01*
Y44302D01*
X-11930D01*
Y44202D01*
Y44101D01*
Y44000D01*
Y43899D01*
Y43798D01*
X-13140D01*
Y43899D01*
Y44000D01*
Y44101D01*
Y44202D01*
Y44302D01*
Y44403D01*
Y44504D01*
Y44605D01*
Y44706D01*
Y44807D01*
Y44908D01*
Y45009D01*
X-11930D01*
Y44908D01*
D02*
G37*
G36*
X373D02*
Y44807D01*
Y44706D01*
Y44605D01*
Y44504D01*
Y44403D01*
Y44302D01*
Y44202D01*
Y44101D01*
Y44000D01*
Y43899D01*
Y43798D01*
X-837D01*
Y43899D01*
X-736D01*
Y44000D01*
Y44101D01*
Y44202D01*
Y44302D01*
Y44403D01*
Y44504D01*
Y44605D01*
Y44706D01*
Y44807D01*
Y44908D01*
X-837D01*
Y45009D01*
X373D01*
Y44908D01*
D02*
G37*
G36*
X-14048Y41076D02*
Y40975D01*
Y40874D01*
Y40773D01*
Y40672D01*
Y40571D01*
Y40470D01*
Y40369D01*
Y40269D01*
Y40168D01*
Y40067D01*
Y39966D01*
Y39865D01*
Y39764D01*
Y39664D01*
X-14149D01*
Y39563D01*
Y39462D01*
X-14552D01*
Y39563D01*
Y39664D01*
Y39764D01*
Y39865D01*
Y39966D01*
Y40067D01*
Y40168D01*
Y40269D01*
Y40369D01*
Y40470D01*
Y40571D01*
Y40672D01*
Y40773D01*
Y40874D01*
Y40975D01*
Y41076D01*
Y41176D01*
X-14048D01*
Y41076D01*
D02*
G37*
G36*
X-30Y41781D02*
Y41680D01*
Y41580D01*
Y41479D01*
Y41378D01*
Y41277D01*
Y41176D01*
X474D01*
Y41076D01*
Y40975D01*
X171D01*
Y40874D01*
X71D01*
Y40975D01*
Y41076D01*
X-30D01*
Y40975D01*
Y40874D01*
Y40773D01*
Y40672D01*
Y40571D01*
Y40470D01*
Y40369D01*
Y40269D01*
Y40168D01*
Y40067D01*
Y39966D01*
Y39865D01*
Y39764D01*
Y39664D01*
Y39563D01*
Y39462D01*
X-434D01*
Y39563D01*
X-535D01*
Y39664D01*
Y39764D01*
Y39865D01*
Y39966D01*
Y40067D01*
Y40168D01*
Y40269D01*
Y40369D01*
Y40470D01*
Y40571D01*
Y40672D01*
Y40773D01*
Y40874D01*
Y40975D01*
Y41076D01*
X-636D01*
Y40975D01*
X-837D01*
Y41076D01*
X-938D01*
Y41176D01*
X-535D01*
Y41277D01*
Y41378D01*
X-434D01*
Y41479D01*
Y41580D01*
Y41680D01*
Y41781D01*
Y41882D01*
X-30D01*
Y41781D01*
D02*
G37*
G36*
X6020Y41076D02*
X5920D01*
Y40975D01*
Y40874D01*
Y40773D01*
X5819D01*
Y40672D01*
Y40571D01*
Y40470D01*
X5718D01*
Y40369D01*
Y40269D01*
X5617D01*
Y40168D01*
Y40067D01*
Y39966D01*
X5516D01*
Y39865D01*
Y39764D01*
Y39664D01*
X5415D01*
Y39563D01*
Y39462D01*
X4407D01*
Y39563D01*
Y39664D01*
X4306D01*
Y39764D01*
Y39865D01*
Y39966D01*
X4205D01*
Y40067D01*
Y40168D01*
X4104D01*
Y40269D01*
Y40369D01*
Y40470D01*
Y40571D01*
X4003D01*
Y40672D01*
Y40773D01*
X3903D01*
Y40874D01*
Y40975D01*
Y41076D01*
X3802D01*
Y41176D01*
X4306D01*
Y41076D01*
Y40975D01*
X4407D01*
Y40874D01*
Y40773D01*
Y40672D01*
X4508D01*
Y40571D01*
Y40470D01*
Y40369D01*
X4609D01*
Y40269D01*
Y40168D01*
Y40067D01*
X4709D01*
Y39966D01*
Y39865D01*
Y39764D01*
Y39664D01*
X4810D01*
Y39563D01*
X5012D01*
Y39664D01*
X5113D01*
Y39764D01*
Y39865D01*
X5214D01*
Y39966D01*
Y40067D01*
X5314D01*
Y40168D01*
Y40269D01*
Y40369D01*
Y40470D01*
X5415D01*
Y40571D01*
X5516D01*
Y40672D01*
X5415D01*
Y40773D01*
Y40874D01*
X5516D01*
Y40975D01*
Y41076D01*
X5617D01*
Y41176D01*
X6020D01*
Y41076D01*
D02*
G37*
G36*
X-5880D02*
Y40975D01*
Y40874D01*
Y40773D01*
Y40672D01*
Y40571D01*
Y40470D01*
Y40369D01*
Y40269D01*
Y40168D01*
Y40067D01*
Y39966D01*
Y39865D01*
Y39764D01*
Y39664D01*
Y39563D01*
Y39462D01*
X-6384D01*
Y39563D01*
Y39664D01*
Y39764D01*
Y39865D01*
Y39966D01*
Y40067D01*
Y40168D01*
Y40269D01*
Y40369D01*
Y40470D01*
Y40571D01*
Y40672D01*
Y40773D01*
Y40874D01*
Y40975D01*
Y41076D01*
Y41176D01*
X-5880D01*
Y41076D01*
D02*
G37*
G36*
X-4165D02*
Y40975D01*
Y40874D01*
Y40773D01*
Y40672D01*
Y40571D01*
Y40470D01*
Y40369D01*
Y40269D01*
Y40168D01*
Y40067D01*
Y39966D01*
Y39865D01*
Y39764D01*
Y39664D01*
Y39563D01*
Y39462D01*
Y39361D01*
X-3863D01*
Y39260D01*
Y39159D01*
Y39059D01*
Y38958D01*
Y38857D01*
Y38756D01*
Y38655D01*
Y38554D01*
Y38453D01*
Y38353D01*
Y38252D01*
Y38151D01*
Y38050D01*
Y37949D01*
Y37848D01*
Y37747D01*
Y37647D01*
Y37546D01*
Y37445D01*
Y37344D01*
Y37243D01*
Y37142D01*
Y37042D01*
Y36941D01*
Y36840D01*
Y36739D01*
Y36638D01*
X-4367D01*
Y36739D01*
X-4669D01*
Y36840D01*
X-4569D01*
Y36941D01*
Y37042D01*
X-4468D01*
Y37142D01*
Y37243D01*
Y37344D01*
X-4367D01*
Y37445D01*
X-5073D01*
Y37344D01*
X-5174D01*
Y37243D01*
Y37142D01*
Y37042D01*
X-5274D01*
Y36941D01*
X-5375D01*
Y36840D01*
X-5577D01*
Y36739D01*
X-6081D01*
Y36840D01*
X-6283D01*
Y36941D01*
X-6485D01*
Y37042D01*
X-6585D01*
Y37142D01*
Y37243D01*
X-6686D01*
Y37344D01*
Y37445D01*
X-6585D01*
Y37546D01*
X-6787D01*
Y37647D01*
Y37747D01*
Y37848D01*
Y37949D01*
Y38050D01*
Y38151D01*
X-6686D01*
Y38252D01*
Y38353D01*
Y38453D01*
Y38554D01*
X-6585D01*
Y38655D01*
X-6485D01*
Y38756D01*
X-6384D01*
Y38857D01*
X-6283D01*
Y38958D01*
X-5476D01*
Y38857D01*
X-5375D01*
Y38756D01*
X-5274D01*
Y38655D01*
X-5174D01*
Y38554D01*
Y38453D01*
X-4468D01*
Y38554D01*
Y38655D01*
Y38756D01*
Y38857D01*
X-4569D01*
Y38958D01*
X-4669D01*
Y39059D01*
X-4770D01*
Y39159D01*
Y39260D01*
X-4972D01*
Y39361D01*
X-4770D01*
Y39462D01*
Y39563D01*
X-4669D01*
Y39664D01*
Y39764D01*
Y39865D01*
Y39966D01*
Y40067D01*
Y40168D01*
Y40269D01*
Y40369D01*
Y40470D01*
Y40571D01*
Y40672D01*
Y40773D01*
Y40874D01*
Y40975D01*
Y41076D01*
Y41176D01*
X-4165D01*
Y41076D01*
D02*
G37*
G36*
X-15359Y42286D02*
Y42185D01*
Y42084D01*
Y41983D01*
Y41882D01*
Y41781D01*
Y41680D01*
X-15561D01*
Y41580D01*
X-15863D01*
Y41680D01*
X-15964D01*
Y41781D01*
Y41882D01*
Y41983D01*
Y42084D01*
Y42185D01*
Y42286D01*
Y42386D01*
X-15359D01*
Y42286D01*
D02*
G37*
G36*
X11668Y46521D02*
X12273D01*
Y46420D01*
X13181D01*
Y46319D01*
X13382D01*
Y46219D01*
X13483D01*
Y46118D01*
X13685D01*
Y46017D01*
X13886D01*
Y45916D01*
X14088D01*
Y45815D01*
X14189D01*
Y45714D01*
X14290D01*
Y45614D01*
X14391D01*
Y45513D01*
X14491D01*
Y45412D01*
X14592D01*
Y45311D01*
X14693D01*
Y45210D01*
X14794D01*
Y45109D01*
X14895D01*
Y45009D01*
X14996D01*
Y44908D01*
X15097D01*
Y44807D01*
Y44706D01*
X15198D01*
Y44605D01*
Y44504D01*
X15298D01*
Y44403D01*
Y44302D01*
X15399D01*
Y44202D01*
Y44101D01*
Y44000D01*
X15500D01*
Y43899D01*
Y43798D01*
Y43698D01*
X15601D01*
Y43597D01*
Y43496D01*
Y43395D01*
Y43294D01*
X15702D01*
Y43193D01*
Y43092D01*
Y42992D01*
Y42891D01*
Y42790D01*
Y42689D01*
Y42588D01*
X15802D01*
Y42487D01*
X15903D01*
Y42386D01*
X16004D01*
Y42286D01*
X16105D01*
Y42185D01*
Y42084D01*
X16206D01*
Y41983D01*
Y41882D01*
Y41781D01*
X16307D01*
Y41680D01*
Y41580D01*
Y41479D01*
Y41378D01*
X16408D01*
Y41277D01*
Y41176D01*
Y41076D01*
Y40975D01*
Y40874D01*
Y40773D01*
Y40672D01*
Y40571D01*
Y40470D01*
Y40369D01*
Y40269D01*
X16307D01*
Y40168D01*
X16206D01*
Y40067D01*
Y39966D01*
Y39865D01*
Y39764D01*
X16105D01*
Y39664D01*
X16004D01*
Y39563D01*
Y39462D01*
X15903D01*
Y39361D01*
Y39260D01*
X15802D01*
Y39159D01*
Y39059D01*
X15702D01*
Y38958D01*
X15601D01*
Y38857D01*
X15298D01*
Y38756D01*
Y38655D01*
Y38554D01*
Y38453D01*
Y38353D01*
Y38252D01*
X15198D01*
Y38151D01*
Y38050D01*
Y37949D01*
Y37848D01*
Y37747D01*
Y37647D01*
Y37546D01*
Y37445D01*
Y37344D01*
Y37243D01*
Y37142D01*
Y37042D01*
Y36941D01*
Y36840D01*
Y36739D01*
Y36638D01*
Y36537D01*
Y36437D01*
Y36336D01*
Y36235D01*
Y36134D01*
Y36033D01*
Y35932D01*
Y35831D01*
Y35731D01*
Y35630D01*
Y35529D01*
Y35428D01*
Y35327D01*
Y35226D01*
Y35125D01*
Y35025D01*
Y34924D01*
Y34823D01*
Y34722D01*
Y34621D01*
Y34520D01*
Y34420D01*
Y34319D01*
Y34218D01*
Y34117D01*
Y34016D01*
Y33915D01*
Y33814D01*
Y33714D01*
Y33613D01*
Y33512D01*
Y33411D01*
X15097D01*
Y33310D01*
X14996D01*
Y33209D01*
X14794D01*
Y33109D01*
X14592D01*
Y33008D01*
X14391D01*
Y32907D01*
X14189D01*
Y32806D01*
X13987D01*
Y32705D01*
X13786D01*
Y32604D01*
X13483D01*
Y32504D01*
X13382D01*
Y32403D01*
X12777D01*
Y32302D01*
X12273D01*
Y32201D01*
X11567D01*
Y32100D01*
X10962D01*
Y31999D01*
X10659D01*
Y32100D01*
Y32201D01*
X10559D01*
Y32302D01*
Y32403D01*
X10458D01*
Y32504D01*
Y32604D01*
X10357D01*
Y32705D01*
Y32806D01*
X10256D01*
Y32907D01*
Y33008D01*
Y33109D01*
Y33209D01*
X10155D01*
Y33310D01*
X9752D01*
Y33411D01*
Y33512D01*
Y33613D01*
X9651D01*
Y33714D01*
Y33814D01*
X9752D01*
Y33915D01*
Y34016D01*
Y34117D01*
X9953D01*
Y34218D01*
Y34319D01*
X9853D01*
Y34420D01*
Y34520D01*
Y34621D01*
X9953D01*
Y34722D01*
Y34823D01*
Y34924D01*
Y35025D01*
X9853D01*
Y35125D01*
Y35226D01*
Y35327D01*
Y35428D01*
Y35529D01*
Y35630D01*
X9449D01*
Y35731D01*
X9348D01*
Y35831D01*
Y35932D01*
Y36033D01*
Y36134D01*
Y36235D01*
Y36336D01*
X9449D01*
Y36437D01*
Y36537D01*
X9651D01*
Y36437D01*
X9853D01*
Y36537D01*
Y36638D01*
Y36739D01*
Y36840D01*
X9953D01*
Y36941D01*
Y37042D01*
Y37142D01*
Y37243D01*
Y37344D01*
Y37445D01*
Y37546D01*
X9853D01*
Y37647D01*
Y37747D01*
X9752D01*
Y37848D01*
Y37949D01*
X9449D01*
Y38050D01*
X9247D01*
Y38151D01*
Y38252D01*
X9147D01*
Y38151D01*
X8844D01*
Y38252D01*
X8441D01*
Y38353D01*
X8138D01*
Y38453D01*
X8037D01*
Y38554D01*
Y38655D01*
Y38756D01*
Y38857D01*
X8138D01*
Y38958D01*
X8239D01*
Y39059D01*
X8844D01*
Y38958D01*
Y38857D01*
X8945D01*
Y38958D01*
X9046D01*
Y38857D01*
X9147D01*
Y38756D01*
Y38655D01*
Y38554D01*
X9853D01*
Y38655D01*
Y38756D01*
Y38857D01*
Y38958D01*
X9752D01*
Y39059D01*
Y39159D01*
X9651D01*
Y39260D01*
X9550D01*
Y39361D01*
X9348D01*
Y39462D01*
X8844D01*
Y39563D01*
X9247D01*
Y39664D01*
X9348D01*
Y39764D01*
Y39865D01*
X9247D01*
Y39966D01*
Y40067D01*
X9147D01*
Y40168D01*
X7533D01*
Y40067D01*
X7432D01*
Y39966D01*
Y39865D01*
Y39764D01*
Y39664D01*
X7533D01*
Y39563D01*
Y39462D01*
X7634D01*
Y39361D01*
Y39260D01*
X7533D01*
Y39159D01*
X7432D01*
Y39059D01*
Y38958D01*
X7331D01*
Y38857D01*
Y38756D01*
Y38655D01*
Y38554D01*
Y38453D01*
Y38353D01*
Y38252D01*
X7432D01*
Y38151D01*
Y38050D01*
X7533D01*
Y37949D01*
X7735D01*
Y37848D01*
X7937D01*
Y37747D01*
X8138D01*
Y37647D01*
X8542D01*
Y37546D01*
X8945D01*
Y37445D01*
X9147D01*
Y37344D01*
X9247D01*
Y37243D01*
Y37142D01*
Y37042D01*
Y36941D01*
Y36840D01*
X9046D01*
Y36739D01*
X8239D01*
Y36840D01*
X8037D01*
Y36941D01*
Y37042D01*
X7937D01*
Y37142D01*
Y37243D01*
X7836D01*
Y37344D01*
X7331D01*
Y37243D01*
X7231D01*
Y37142D01*
Y37042D01*
Y36941D01*
X7331D01*
Y36840D01*
Y36739D01*
X6827D01*
Y36840D01*
X5113D01*
Y36941D01*
Y37042D01*
Y37142D01*
Y37243D01*
Y37344D01*
Y37445D01*
Y37546D01*
Y37647D01*
X6726D01*
Y37747D01*
Y37848D01*
Y37949D01*
Y38050D01*
Y38151D01*
X5214D01*
Y38252D01*
X5113D01*
Y38353D01*
Y38453D01*
Y38554D01*
Y38655D01*
Y38756D01*
Y38857D01*
X5214D01*
Y38958D01*
X6827D01*
Y39059D01*
Y39159D01*
Y39260D01*
Y39361D01*
X7130D01*
Y39462D01*
Y39563D01*
X7029D01*
Y39664D01*
Y39764D01*
Y39865D01*
Y39966D01*
X6928D01*
Y40067D01*
Y40168D01*
Y40269D01*
Y40369D01*
Y40470D01*
Y40571D01*
X7029D01*
Y40672D01*
Y40773D01*
X7130D01*
Y40874D01*
X7231D01*
Y40975D01*
X7331D01*
Y41076D01*
X7533D01*
Y41176D01*
X7735D01*
Y41277D01*
X7836D01*
Y41176D01*
X7937D01*
Y41277D01*
X8340D01*
Y41176D01*
X8441D01*
Y41277D01*
X8642D01*
Y41176D01*
X8743D01*
Y41076D01*
X8945D01*
Y40975D01*
X9046D01*
Y40874D01*
X9247D01*
Y40975D01*
Y41076D01*
Y41176D01*
Y41277D01*
X9348D01*
Y41378D01*
Y41479D01*
Y41580D01*
Y41680D01*
Y41781D01*
Y41882D01*
Y41983D01*
Y42084D01*
Y42185D01*
Y42286D01*
Y42386D01*
Y42487D01*
X9046D01*
Y42588D01*
X8945D01*
Y42689D01*
Y42790D01*
Y42891D01*
X8844D01*
Y42992D01*
Y43092D01*
Y43193D01*
X8945D01*
Y43294D01*
Y43395D01*
X8844D01*
Y43496D01*
X8642D01*
Y43597D01*
Y43698D01*
Y43798D01*
Y43899D01*
Y44000D01*
Y44101D01*
Y44202D01*
Y44302D01*
Y44403D01*
Y44504D01*
Y44605D01*
X9046D01*
Y44706D01*
X9147D01*
Y44807D01*
Y44908D01*
Y45009D01*
X9348D01*
Y45109D01*
Y45210D01*
Y45311D01*
Y45412D01*
Y45513D01*
Y45614D01*
X9550D01*
Y45714D01*
X9651D01*
Y45815D01*
X9853D01*
Y45916D01*
X9953D01*
Y46017D01*
X10155D01*
Y46118D01*
X10256D01*
Y46219D01*
X10458D01*
Y46319D01*
X10559D01*
Y46420D01*
X10962D01*
Y46521D01*
X11466D01*
Y46622D01*
X11668D01*
Y46521D01*
D02*
G37*
G36*
X-12132Y41076D02*
Y40975D01*
X-12031D01*
Y40874D01*
X-11930D01*
Y40773D01*
Y40672D01*
X-12031D01*
Y40571D01*
Y40470D01*
Y40369D01*
Y40269D01*
Y40168D01*
Y40067D01*
Y39966D01*
Y39865D01*
Y39764D01*
Y39664D01*
Y39563D01*
Y39462D01*
X-12132D01*
Y39361D01*
X-12233D01*
Y39260D01*
Y39159D01*
Y39059D01*
X-12334D01*
Y38958D01*
Y38857D01*
Y38756D01*
X-12434D01*
Y38655D01*
X-12535D01*
Y38554D01*
Y38453D01*
Y38353D01*
Y38252D01*
Y38151D01*
X-12636D01*
Y38050D01*
Y37949D01*
Y37848D01*
Y37747D01*
X-12737D01*
Y37647D01*
Y37546D01*
Y37445D01*
X-12838D01*
Y37344D01*
X-12939D01*
Y37445D01*
Y37546D01*
X-13040D01*
Y37647D01*
Y37747D01*
Y37848D01*
X-13140D01*
Y37949D01*
Y38050D01*
Y38151D01*
X-13241D01*
Y38252D01*
Y38353D01*
Y38453D01*
X-13342D01*
Y38554D01*
Y38655D01*
Y38756D01*
X-13443D01*
Y38857D01*
X-13342D01*
Y38958D01*
Y39059D01*
X-13544D01*
Y39159D01*
Y39260D01*
Y39361D01*
X-12535D01*
Y39462D01*
Y39563D01*
Y39664D01*
Y39764D01*
Y39865D01*
Y39966D01*
Y40067D01*
Y40168D01*
Y40269D01*
Y40369D01*
Y40470D01*
Y40571D01*
Y40672D01*
Y40773D01*
Y40874D01*
Y40975D01*
Y41076D01*
Y41176D01*
X-12334D01*
Y41076D01*
X-12233D01*
Y41176D01*
X-12132D01*
Y41076D01*
D02*
G37*
%LPC*%
G36*
X11769Y46118D02*
X10861D01*
Y46017D01*
Y45916D01*
Y45815D01*
X10760D01*
Y45714D01*
X10357D01*
Y45614D01*
Y45513D01*
Y45412D01*
X10054D01*
Y45311D01*
Y45210D01*
Y45109D01*
Y45009D01*
Y44908D01*
Y44807D01*
Y44706D01*
Y44605D01*
Y44504D01*
Y44403D01*
Y44302D01*
Y44202D01*
Y44101D01*
X10962D01*
Y44000D01*
Y43899D01*
Y43798D01*
Y43698D01*
Y43597D01*
Y43496D01*
Y43395D01*
Y43294D01*
Y43193D01*
Y43092D01*
Y42992D01*
Y42891D01*
X11365D01*
Y42790D01*
Y42689D01*
Y42588D01*
Y42487D01*
Y42386D01*
Y42286D01*
Y42185D01*
Y42084D01*
Y41983D01*
Y41882D01*
Y41781D01*
Y41680D01*
Y41580D01*
Y41479D01*
Y41378D01*
X11264D01*
Y41277D01*
X10962D01*
Y41176D01*
Y41076D01*
Y40975D01*
Y40874D01*
X10861D01*
Y40773D01*
X10357D01*
Y40672D01*
Y40571D01*
Y40470D01*
Y40369D01*
Y40269D01*
Y40168D01*
Y40067D01*
Y39966D01*
Y39865D01*
Y39764D01*
X10458D01*
Y39664D01*
X10861D01*
Y39563D01*
X10962D01*
Y39462D01*
Y39361D01*
Y39260D01*
Y39159D01*
X11164D01*
Y39059D01*
X11466D01*
Y38958D01*
X11567D01*
Y38857D01*
X11466D01*
Y38756D01*
X10962D01*
Y38655D01*
Y38554D01*
Y38453D01*
Y38353D01*
Y38252D01*
Y38151D01*
Y38050D01*
Y37949D01*
Y37848D01*
X11668D01*
Y37747D01*
X11769D01*
Y37848D01*
X11869D01*
Y37747D01*
X11970D01*
Y37848D01*
X12071D01*
Y37747D01*
Y37647D01*
X11970D01*
Y37546D01*
X11769D01*
Y37445D01*
X10962D01*
Y37344D01*
Y37243D01*
Y37142D01*
Y37042D01*
X10861D01*
Y36941D01*
X10559D01*
Y36840D01*
Y36739D01*
Y36638D01*
Y36537D01*
Y36437D01*
Y36336D01*
Y36235D01*
Y36134D01*
X10962D01*
Y36033D01*
Y35932D01*
Y35831D01*
X11567D01*
Y35932D01*
X11869D01*
Y36033D01*
X12172D01*
Y36134D01*
X12374D01*
Y36033D01*
X12475D01*
Y36134D01*
X12374D01*
Y36235D01*
X12575D01*
Y36336D01*
X12878D01*
Y36437D01*
X13080D01*
Y36537D01*
X13281D01*
Y36638D01*
X13483D01*
Y36739D01*
X13584D01*
Y36638D01*
Y36537D01*
X13483D01*
Y36437D01*
Y36336D01*
X13382D01*
Y36235D01*
X13281D01*
Y36134D01*
X13181D01*
Y36033D01*
Y35932D01*
X13080D01*
Y35831D01*
X12979D01*
Y35731D01*
X12777D01*
Y35630D01*
X12676D01*
Y35529D01*
X12575D01*
Y35428D01*
X12374D01*
Y35327D01*
X12273D01*
Y35226D01*
X12071D01*
Y35125D01*
Y35025D01*
X11970D01*
Y34924D01*
Y34823D01*
Y34722D01*
X11869D01*
Y34621D01*
X11264D01*
Y34520D01*
X11164D01*
Y34420D01*
Y34319D01*
Y34218D01*
Y34117D01*
Y34016D01*
Y33915D01*
Y33814D01*
Y33714D01*
Y33613D01*
Y33512D01*
Y33411D01*
X11264D01*
Y33310D01*
X11668D01*
Y33209D01*
X11769D01*
Y33109D01*
Y33008D01*
Y32907D01*
X11970D01*
Y32806D01*
X12172D01*
Y32907D01*
X12575D01*
Y33008D01*
X12878D01*
Y32907D01*
X12979D01*
Y33008D01*
X12878D01*
Y33109D01*
X13080D01*
Y33209D01*
X13382D01*
Y33310D01*
X13584D01*
Y33411D01*
X13786D01*
Y33512D01*
X13987D01*
Y33613D01*
X14189D01*
Y33714D01*
X14391D01*
Y33814D01*
X14592D01*
Y33915D01*
Y34016D01*
Y34117D01*
Y34218D01*
Y34319D01*
Y34420D01*
Y34520D01*
Y34621D01*
Y34722D01*
Y34823D01*
Y34924D01*
Y35025D01*
Y35125D01*
Y35226D01*
Y35327D01*
Y35428D01*
Y35529D01*
Y35630D01*
Y35731D01*
X14693D01*
Y35831D01*
Y35932D01*
Y36033D01*
Y36134D01*
Y36235D01*
Y36336D01*
Y36437D01*
Y36537D01*
Y36638D01*
Y36739D01*
Y36840D01*
Y36941D01*
Y37042D01*
Y37142D01*
Y37243D01*
Y37344D01*
Y37445D01*
Y37546D01*
Y37647D01*
Y37747D01*
Y37848D01*
Y37949D01*
Y38050D01*
Y38151D01*
Y38252D01*
Y38353D01*
Y38453D01*
X14794D01*
Y38554D01*
Y38655D01*
Y38756D01*
Y38857D01*
Y38958D01*
X14895D01*
Y39059D01*
X14996D01*
Y39159D01*
X15198D01*
Y39260D01*
X15298D01*
Y39361D01*
X15399D01*
Y39462D01*
Y39563D01*
X15500D01*
Y39664D01*
X15601D01*
Y39764D01*
Y39865D01*
Y39966D01*
X15702D01*
Y40067D01*
Y40168D01*
Y40269D01*
X15802D01*
Y40369D01*
Y40470D01*
Y40571D01*
Y40672D01*
Y40773D01*
X15903D01*
Y40874D01*
Y40975D01*
Y41076D01*
Y41176D01*
X15802D01*
Y41277D01*
Y41378D01*
Y41479D01*
Y41580D01*
Y41680D01*
X15702D01*
Y41781D01*
Y41882D01*
X15601D01*
Y41983D01*
Y42084D01*
Y42185D01*
Y42286D01*
X15399D01*
Y42185D01*
X15298D01*
Y42286D01*
Y42386D01*
Y42487D01*
X15198D01*
Y42588D01*
Y42689D01*
Y42790D01*
Y42891D01*
Y42992D01*
Y43092D01*
X15097D01*
Y43193D01*
Y43294D01*
Y43395D01*
Y43496D01*
Y43597D01*
X14996D01*
Y43698D01*
Y43798D01*
Y43899D01*
X14895D01*
Y44000D01*
X14996D01*
Y44101D01*
X14794D01*
Y44202D01*
Y44302D01*
X14693D01*
Y44403D01*
Y44504D01*
X14592D01*
Y44605D01*
Y44706D01*
X14491D01*
Y44807D01*
X14391D01*
Y44908D01*
X14491D01*
Y45009D01*
X14290D01*
Y45109D01*
X14189D01*
Y45210D01*
X14088D01*
Y45311D01*
X13987D01*
Y45412D01*
X13786D01*
Y45513D01*
X13685D01*
Y45614D01*
X13483D01*
Y45714D01*
X13281D01*
Y45815D01*
X12979D01*
Y45916D01*
X12575D01*
Y46017D01*
X11769D01*
Y46118D01*
D02*
G37*
G36*
X8340Y41076D02*
X7836D01*
Y40975D01*
X7735D01*
Y40874D01*
X7634D01*
Y40773D01*
X7533D01*
Y40672D01*
Y40571D01*
X7432D01*
Y40470D01*
Y40369D01*
Y40269D01*
X8945D01*
Y40369D01*
X8844D01*
Y40470D01*
Y40571D01*
Y40672D01*
X8743D01*
Y40773D01*
X8542D01*
Y40874D01*
Y40975D01*
X8340D01*
Y41076D01*
D02*
G37*
%LPD*%
G36*
X12777Y42084D02*
X13080D01*
Y41983D01*
X13181D01*
Y41882D01*
Y41781D01*
Y41680D01*
X13080D01*
Y41580D01*
X12878D01*
Y41479D01*
X11970D01*
Y41580D01*
X11668D01*
Y41680D01*
Y41781D01*
Y41882D01*
Y41983D01*
X11869D01*
Y42084D01*
X12172D01*
Y42185D01*
X12777D01*
Y42084D01*
D02*
G37*
G36*
X15500Y41277D02*
Y41176D01*
Y41076D01*
Y40975D01*
Y40874D01*
Y40773D01*
Y40672D01*
Y40571D01*
X15399D01*
Y40470D01*
Y40369D01*
Y40269D01*
X15298D01*
Y40168D01*
X15198D01*
Y40269D01*
Y40369D01*
Y40470D01*
X15298D01*
Y40571D01*
X15198D01*
Y40672D01*
Y40773D01*
Y40874D01*
X15298D01*
Y40975D01*
Y41076D01*
Y41176D01*
Y41277D01*
Y41378D01*
X15500D01*
Y41277D01*
D02*
G37*
D14*
X-6500Y-42334D02*
X-5167Y-45000D01*
X-3834Y-42334D01*
X-2501Y-41668D02*
X-1835Y-41001D01*
X-502D01*
X164Y-41668D01*
Y-44334D01*
X-502Y-45000D01*
X-1835D01*
X-2501Y-44334D01*
Y-41668D01*
X1497Y-45666D02*
X4163D01*
X8162Y-45000D02*
X5496D01*
X8162Y-42334D01*
Y-41668D01*
X7496Y-41001D01*
X6163D01*
X5496Y-41668D01*
X-18500Y-34834D02*
Y-37500D01*
Y-36167D01*
X-17833Y-35501D01*
X-17167Y-34834D01*
X-16501D01*
X-12502Y-37500D02*
X-13835D01*
X-14501Y-36834D01*
Y-35501D01*
X-13835Y-34834D01*
X-12502D01*
X-11835Y-35501D01*
Y-36167D01*
X-14501D01*
X-7837Y-34834D02*
X-9836D01*
X-10503Y-35501D01*
Y-36834D01*
X-9836Y-37500D01*
X-7837D01*
X-5837Y-34834D02*
X-4504D01*
X-3838Y-35501D01*
Y-37500D01*
X-5837D01*
X-6504Y-36834D01*
X-5837Y-36167D01*
X-3838D01*
X-2505Y-37500D02*
X-1172D01*
X-1839D01*
Y-33501D01*
X-2505D01*
X827Y-37500D02*
X2160D01*
X1493D01*
Y-33501D01*
X827D01*
X4159Y-38166D02*
X6825D01*
X8158Y-37500D02*
Y-34834D01*
X8824D01*
X9491Y-35501D01*
Y-37500D01*
Y-35501D01*
X10157Y-34834D01*
X10824Y-35501D01*
Y-37500D01*
X14823Y-34834D02*
X12823D01*
X12157Y-35501D01*
Y-36834D01*
X12823Y-37500D01*
X14823D01*
X16156Y-34834D02*
Y-36834D01*
X16822Y-37500D01*
X18821D01*
Y-34834D01*
D15*
X-2000Y17999D02*
Y15000D01*
X-501D01*
X-1Y15500D01*
Y17499D01*
X-501Y17999D01*
X-2000D01*
X999Y15000D02*
X1999D01*
X1499D01*
Y17999D01*
X999Y17499D01*
X-2500Y-15001D02*
Y-18000D01*
X-1001D01*
X-501Y-17500D01*
Y-15501D01*
X-1001Y-15001D01*
X-2500D01*
X2498Y-18000D02*
X499D01*
X2498Y-16001D01*
Y-15501D01*
X1998Y-15001D01*
X999D01*
X499Y-15501D01*
X16999Y999D02*
X16499Y1499D01*
X15500D01*
X15000Y999D01*
Y499D01*
X15500Y-0D01*
X16499D01*
X16999Y-500D01*
Y-1000D01*
X16499Y-1500D01*
X15500D01*
X15000Y-1000D01*
X17999Y1499D02*
Y-1500D01*
X18999Y-500D01*
X19998Y-1500D01*
Y1499D01*
M02*
