G04 Layer_Color=32896*
%FSLAX25Y25*%
%MOIN*%
G70*
G01*
G75*
%ADD15C,0.00600*%
%ADD39C,0.00787*%
D15*
X-27000Y23000D02*
Y25999D01*
X-28499D01*
X-28999Y25499D01*
Y24499D01*
X-28499Y24000D01*
X-27000D01*
X-28000D02*
X-28999Y23000D01*
X-31499D02*
Y25999D01*
X-29999Y24499D01*
X-31998D01*
X5500Y47499D02*
Y45000D01*
X5000Y44500D01*
X4000D01*
X3501Y45000D01*
Y47499D01*
X2501Y44500D02*
X1501D01*
X2001D01*
Y47499D01*
X2501Y46999D01*
X35500Y11000D02*
X38499D01*
Y12500D01*
X37999Y12999D01*
X36999D01*
X36500Y12500D01*
Y11000D01*
Y12000D02*
X35500Y12999D01*
Y13999D02*
Y15499D01*
X36000Y15998D01*
X36500Y15499D01*
Y14499D01*
X36999Y13999D01*
X37499Y14499D01*
Y15998D01*
X38499Y16998D02*
X35500D01*
X36999D01*
X37499Y17498D01*
Y18498D01*
X36999Y18997D01*
X35500D01*
X-27000Y18500D02*
Y21499D01*
X-28499D01*
X-28999Y20999D01*
Y19999D01*
X-28499Y19500D01*
X-27000D01*
X-28000D02*
X-28999Y18500D01*
X-29999Y20999D02*
X-30499Y21499D01*
X-31499D01*
X-31998Y20999D01*
Y20499D01*
X-31499Y19999D01*
X-30999D01*
X-31499D01*
X-31998Y19500D01*
Y19000D01*
X-31499Y18500D01*
X-30499D01*
X-29999Y19000D01*
X-34500Y23000D02*
Y25999D01*
X-36000D01*
X-36499Y25499D01*
Y24499D01*
X-36000Y24000D01*
X-34500D01*
X-35500D02*
X-36499Y23000D01*
X-39498D02*
X-37499D01*
X-39498Y24999D01*
Y25499D01*
X-38999Y25999D01*
X-37999D01*
X-37499Y25499D01*
X15500Y31000D02*
X18499D01*
Y32500D01*
X17999Y32999D01*
X16999D01*
X16500Y32500D01*
Y31000D01*
Y32000D02*
X15500Y32999D01*
Y33999D02*
Y34999D01*
Y34499D01*
X18499D01*
X17999Y33999D01*
X32121Y24621D02*
X31414Y25328D01*
X31767Y24974D01*
X29647Y22853D01*
X30000Y22500D01*
X29293Y23207D01*
X28586Y27448D02*
X29293Y27448D01*
X30000Y26741D01*
Y26034D01*
X28586Y24621D01*
X27879D01*
X27172Y25328D01*
Y26034D01*
X26466Y29569D02*
X27172D01*
X27879Y28862D01*
Y28155D01*
X27526Y27802D01*
X26819Y27802D01*
X26112Y28508D01*
X25405Y28508D01*
X25052Y28155D01*
X25052Y27448D01*
X25759Y26741D01*
X26466D01*
X23991Y28508D02*
X26112Y30629D01*
X25052Y31689D01*
X24345Y31689D01*
X23638Y30983D01*
Y30276D01*
X24698Y29215D01*
X-36499Y20999D02*
X-36000Y21499D01*
X-35000D01*
X-34500Y20999D01*
Y19000D01*
X-35000Y18500D01*
X-36000D01*
X-36499Y19000D01*
X-39498Y18500D02*
X-37499D01*
X-39498Y20499D01*
Y20999D01*
X-38999Y21499D01*
X-37999D01*
X-37499Y20999D01*
X-29499Y29999D02*
X-29000Y30499D01*
X-28000D01*
X-27500Y29999D01*
Y28000D01*
X-28000Y27500D01*
X-29000D01*
X-29499Y28000D01*
X-30499Y27500D02*
X-31499D01*
X-30999D01*
Y30499D01*
X-30499Y29999D01*
X-37000Y8499D02*
Y5500D01*
X-38500D01*
X-38999Y6000D01*
Y6500D01*
X-38500Y7000D01*
X-37000D01*
X-38500D01*
X-38999Y7499D01*
Y7999D01*
X-38500Y8499D01*
X-37000D01*
X-39999Y5500D02*
Y7499D01*
X-40999Y8499D01*
X-41998Y7499D01*
Y5500D01*
Y7000D01*
X-39999D01*
X-42998Y8499D02*
X-44997D01*
X-43998D01*
Y5500D01*
D39*
X9504Y44587D02*
G03*
X9504Y44587I-492J0D01*
G01*
M02*
