%FSLAX24Y24*%
%MOIN*%
G70*
G01*
G75*
G04 Layer_Physical_Order=2*
G04 Layer_Color=36540*
%ADD10R,0.0197X0.0236*%
%ADD11R,0.0217X0.0236*%
%ADD12R,0.0394X0.0335*%
%ADD13R,0.0236X0.0335*%
%ADD14R,0.0236X0.0217*%
%ADD15R,0.0315X0.0295*%
%ADD16R,0.0335X0.0256*%
%ADD17R,0.0236X0.0197*%
%ADD18R,0.0709X0.0394*%
%ADD19R,0.0177X0.0177*%
G04:AMPARAMS|DCode=20|XSize=47.2mil|YSize=43.3mil|CornerRadius=0mil|HoleSize=0mil|Usage=FLASHONLY|Rotation=45.000|XOffset=0mil|YOffset=0mil|HoleType=Round|Shape=Rectangle|*
%AMROTATEDRECTD20*
4,1,4,-0.0014,-0.0320,-0.0320,-0.0014,0.0014,0.0320,0.0320,0.0014,-0.0014,-0.0320,0.0*
%
%ADD20ROTATEDRECTD20*%

%ADD21R,0.0256X0.0197*%
%ADD22R,0.0197X0.0256*%
%ADD23O,0.0256X0.0079*%
%ADD24O,0.0079X0.0256*%
%ADD25R,0.1850X0.1850*%
%ADD26R,0.0571X0.0217*%
%ADD27R,0.0571X0.0217*%
%ADD28R,0.2560X0.0400*%
%ADD29R,0.2960X0.0600*%
G04:AMPARAMS|DCode=30|XSize=19.7mil|YSize=23.6mil|CornerRadius=0mil|HoleSize=0mil|Usage=FLASHONLY|Rotation=225.000|XOffset=0mil|YOffset=0mil|HoleType=Round|Shape=Rectangle|*
%AMROTATEDRECTD30*
4,1,4,-0.0014,0.0153,0.0153,-0.0014,0.0014,-0.0153,-0.0153,0.0014,-0.0014,0.0153,0.0*
%
%ADD30ROTATEDRECTD30*%

%ADD31C,0.0394*%
%ADD32R,0.0157X0.0197*%
%ADD33C,0.0150*%
%ADD34C,0.0060*%
%ADD35C,0.0050*%
%ADD36C,0.0100*%
%ADD37C,0.0080*%
%ADD38C,0.0070*%
%ADD39C,0.0090*%
%ADD40C,0.0200*%
%ADD41R,0.0680X0.0410*%
%ADD42C,0.0390*%
%ADD43C,0.0197*%
%ADD44C,0.0118*%
%ADD45C,0.0591*%
%ADD46C,0.0709*%
%ADD47C,0.0240*%
G36*
X6809Y4278D02*
X6824Y4265D01*
X6842Y4254D01*
X6861Y4246D01*
X6881Y4241D01*
X6901Y4240D01*
X7572D01*
X7594Y4220D01*
X7608Y4196D01*
X7600Y4184D01*
X7590Y4163D01*
X7582Y4141D01*
X7578Y4118D01*
X7576Y4095D01*
X7578Y4072D01*
X7582Y4049D01*
X7590Y4026D01*
X7600Y4005D01*
X7613Y3986D01*
X7629Y3968D01*
X7646Y3953D01*
X7666Y3940D01*
X7687Y3930D01*
X7709Y3922D01*
X7732Y3918D01*
X7755Y3916D01*
X7778Y3918D01*
X7801Y3922D01*
X7823Y3930D01*
X7824Y3930D01*
X7866Y3904D01*
Y3771D01*
X7704Y3608D01*
X7595Y3554D01*
X7582Y3574D01*
X7566Y3591D01*
X7560Y3597D01*
Y3647D01*
X7566Y3653D01*
X7582Y3671D01*
X7595Y3691D01*
X7605Y3711D01*
X7613Y3734D01*
X7617Y3757D01*
X7619Y3780D01*
X7617Y3803D01*
X7613Y3826D01*
X7605Y3848D01*
X7595Y3869D01*
X7582Y3889D01*
X7566Y3906D01*
X7549Y3922D01*
X7529Y3935D01*
X7508Y3945D01*
X7486Y3953D01*
X7463Y3957D01*
X7440Y3959D01*
X7417Y3957D01*
X7394Y3953D01*
X7372Y3945D01*
X7351Y3935D01*
X7331Y3922D01*
X7314Y3906D01*
X7298Y3889D01*
X7285Y3869D01*
X7275Y3848D01*
X7267Y3826D01*
X7263Y3803D01*
X7261Y3780D01*
X7263Y3757D01*
X7267Y3734D01*
X7275Y3711D01*
X7285Y3691D01*
X7298Y3671D01*
X7314Y3653D01*
X7320Y3647D01*
Y3620D01*
X7285Y3585D01*
X7258D01*
X7251Y3591D01*
X7234Y3607D01*
X7214Y3620D01*
X7193Y3630D01*
X7171Y3638D01*
X7148Y3642D01*
X7125Y3644D01*
X7102Y3642D01*
X7079Y3638D01*
X7071Y3635D01*
X7045Y3654D01*
X7030Y3683D01*
Y3765D01*
X7029Y3785D01*
X7026Y3799D01*
Y3885D01*
X7024Y3905D01*
X7019Y3925D01*
X7015Y3936D01*
X7011Y3944D01*
X7001Y3962D01*
X6987Y3977D01*
X6500Y4464D01*
Y4521D01*
X6547Y4540D01*
X6809Y4278D01*
D02*
G37*
G36*
X4890Y4855D02*
Y4770D01*
X4891Y4753D01*
X4895Y4736D01*
X4902Y4720D01*
X4911Y4705D01*
X4922Y4692D01*
X4990Y4624D01*
Y4444D01*
X4959Y4315D01*
X4953Y4309D01*
X4940Y4310D01*
X4846D01*
X4770Y4386D01*
Y4855D01*
X4805Y4999D01*
X4855D01*
X4890Y4855D01*
D02*
G37*
G36*
X10300Y4741D02*
X10284Y4726D01*
X10268Y4709D01*
X10255Y4689D01*
X10245Y4668D01*
X10237Y4646D01*
X10233Y4623D01*
X10231Y4600D01*
X10233Y4577D01*
X10237Y4554D01*
X10245Y4532D01*
X10255Y4511D01*
X10268Y4491D01*
X10270Y4449D01*
X10270Y4449D01*
Y4449D01*
X10247Y4447D01*
X10224Y4443D01*
X10202Y4435D01*
X10181Y4425D01*
X10161Y4412D01*
X10144Y4396D01*
X10128Y4379D01*
X10115Y4359D01*
X10105Y4338D01*
X10097Y4316D01*
X10096Y4312D01*
X10049Y4297D01*
X9681Y4665D01*
X9668Y4676D01*
X9653Y4686D01*
X9637Y4692D01*
X9620Y4696D01*
X9603Y4698D01*
X9018D01*
X8914Y4802D01*
X8917Y4817D01*
X8919Y4840D01*
X8917Y4863D01*
X8915Y4877D01*
X8926Y4891D01*
X8999Y4916D01*
X10300D01*
Y4741D01*
D02*
G37*
G36*
X16516Y890D02*
X10944D01*
X10934Y890D01*
X10917Y889D01*
X10900Y885D01*
X10884Y878D01*
X10869Y869D01*
X10856Y858D01*
X10319Y321D01*
X10276Y300D01*
X10260Y301D01*
X10229Y340D01*
X10234Y375D01*
X10239Y378D01*
X10256Y394D01*
X10272Y411D01*
X10285Y431D01*
X10295Y452D01*
X10303Y474D01*
X10307Y497D01*
X10309Y520D01*
X10307Y543D01*
X10303Y566D01*
X10295Y588D01*
X10285Y609D01*
X10272Y629D01*
X10256Y646D01*
X10239Y662D01*
X10219Y675D01*
X10198Y685D01*
X10183Y690D01*
X10177Y740D01*
X10189Y748D01*
X10206Y764D01*
X10222Y781D01*
X10235Y801D01*
X10245Y822D01*
X10253Y844D01*
X10256Y861D01*
X10890Y1494D01*
X10901Y1507D01*
X10910Y1522D01*
X10917Y1538D01*
X10921Y1555D01*
X10922Y1572D01*
Y1662D01*
X10961Y1694D01*
X10967Y1693D01*
X10990Y1691D01*
X11026Y1681D01*
X11026Y1681D01*
Y1681D01*
X11025Y1650D01*
X11026Y1619D01*
X11031Y1588D01*
X11040Y1559D01*
X11052Y1530D01*
X11067Y1503D01*
X11085Y1478D01*
X11105Y1455D01*
X11128Y1434D01*
X11153Y1416D01*
X11180Y1402D01*
X11209Y1390D01*
X11239Y1381D01*
X11269Y1376D01*
X11300Y1374D01*
X11331Y1376D01*
X11361Y1381D01*
X11391Y1390D01*
X11420Y1402D01*
X11447Y1416D01*
X11472Y1434D01*
X11495Y1455D01*
X11515Y1478D01*
X11533Y1503D01*
X11548Y1530D01*
X11560Y1559D01*
X11569Y1588D01*
X11574Y1619D01*
X11575Y1650D01*
X11574Y1681D01*
X11569Y1711D01*
X11560Y1741D01*
X11548Y1769D01*
X11533Y1796D01*
X11515Y1821D01*
Y1821D01*
X11515D01*
X11529Y1865D01*
X11549Y1878D01*
X11562Y1890D01*
X12620D01*
X12640Y1891D01*
X12660Y1896D01*
X12671Y1901D01*
X12679Y1904D01*
X12697Y1914D01*
X12712Y1928D01*
X13122Y2338D01*
X13135Y2353D01*
X13146Y2371D01*
X13154Y2390D01*
X13159Y2410D01*
X13160Y2430D01*
Y4720D01*
X13159Y4740D01*
X13154Y4760D01*
X13149Y4771D01*
X13146Y4779D01*
X13135Y4797D01*
X13122Y4812D01*
X13030Y4905D01*
X13028Y4922D01*
X13024Y4945D01*
X13016Y4967D01*
X13006Y4988D01*
X12993Y5008D01*
X12978Y5025D01*
X12960Y5041D01*
X12941Y5054D01*
X12920Y5064D01*
X12897Y5072D01*
X12875Y5076D01*
X12851Y5078D01*
X12828Y5076D01*
X12805Y5072D01*
X12783Y5064D01*
X12762Y5054D01*
X12742Y5041D01*
X12725Y5025D01*
X12709Y5008D01*
X12696Y4988D01*
X12686Y4967D01*
X12678Y4945D01*
X12674Y4922D01*
X12672Y4899D01*
X12674Y4875D01*
X12678Y4853D01*
X12686Y4830D01*
X12696Y4809D01*
X12709Y4790D01*
X12725Y4772D01*
X12742Y4757D01*
X12762Y4744D01*
X12783Y4734D01*
X12805Y4726D01*
X12828Y4722D01*
X12845Y4720D01*
X12900Y4666D01*
Y3688D01*
X12866Y3649D01*
X12855Y3644D01*
X12839Y3655D01*
X12818Y3665D01*
X12796Y3673D01*
X12773Y3677D01*
X12750Y3679D01*
X12727Y3677D01*
X12704Y3673D01*
X12682Y3665D01*
X12661Y3655D01*
X12641Y3642D01*
X12624Y3626D01*
X12608Y3609D01*
X12595Y3589D01*
X12585Y3568D01*
X12577Y3546D01*
X12573Y3523D01*
X12571Y3500D01*
X12573Y3477D01*
X12577Y3454D01*
X12585Y3432D01*
X12595Y3411D01*
X12608Y3391D01*
X12624Y3374D01*
X12641Y3358D01*
X12661Y3345D01*
X12682Y3335D01*
X12704Y3327D01*
X12727Y3323D01*
X12750Y3321D01*
X12773Y3323D01*
X12796Y3327D01*
X12818Y3335D01*
X12839Y3345D01*
X12855Y3356D01*
X12866Y3351D01*
X12900Y3312D01*
Y2901D01*
X12876Y2874D01*
X12855Y2863D01*
X12843Y2871D01*
X12822Y2882D01*
X12800Y2889D01*
X12777Y2894D01*
X12754Y2895D01*
X12730Y2894D01*
X12707Y2889D01*
X12685Y2882D01*
X12664Y2871D01*
X12645Y2858D01*
X12627Y2843D01*
X12612Y2825D01*
X12599Y2806D01*
X12588Y2785D01*
X12581Y2763D01*
X12576Y2740D01*
X12575Y2716D01*
X12576Y2693D01*
X12581Y2670D01*
X12588Y2648D01*
X12599Y2627D01*
X12612Y2608D01*
X12627Y2590D01*
X12645Y2575D01*
X12664Y2562D01*
X12685Y2551D01*
X12707Y2544D01*
X12730Y2539D01*
X12754Y2538D01*
X12777Y2539D01*
X12800Y2544D01*
X12822Y2551D01*
X12843Y2562D01*
X12855Y2570D01*
X12876Y2559D01*
X12900Y2532D01*
Y2484D01*
X12566Y2150D01*
X11717D01*
X11698Y2197D01*
X11798Y2296D01*
X11809Y2310D01*
X11818Y2324D01*
X11825Y2340D01*
X11829Y2357D01*
X11830Y2374D01*
Y3240D01*
X11829Y3257D01*
X11825Y3274D01*
X11818Y3290D01*
X11809Y3305D01*
X11798Y3318D01*
X10758Y4358D01*
X10786Y4399D01*
X10809Y4390D01*
X10839Y4381D01*
X10869Y4376D01*
X10900Y4374D01*
X10931Y4376D01*
X10961Y4381D01*
X10991Y4390D01*
X11020Y4402D01*
X11047Y4416D01*
X11072Y4434D01*
X11095Y4455D01*
X11115Y4478D01*
X11133Y4503D01*
X11148Y4530D01*
X11160Y4559D01*
X11169Y4588D01*
X11174Y4619D01*
X11175Y4650D01*
X11174Y4681D01*
X11169Y4711D01*
X11160Y4741D01*
X11148Y4769D01*
X11133Y4796D01*
X11115Y4821D01*
X11095Y4844D01*
X11072Y4865D01*
X11047Y4883D01*
X11020Y4898D01*
X11010Y4922D01*
X11032Y4967D01*
X11069Y4977D01*
X11082Y4966D01*
X11099Y4955D01*
X11107Y4952D01*
X11118Y4948D01*
X11138Y4943D01*
X11158Y4941D01*
X11858D01*
X11889Y4902D01*
X11881Y4873D01*
X11876Y4837D01*
X11874Y4800D01*
X11876Y4763D01*
X11881Y4727D01*
X11890Y4691D01*
X11903Y4656D01*
X11919Y4623D01*
X11938Y4591D01*
X11960Y4562D01*
X11984Y4534D01*
X12012Y4510D01*
X12029Y4497D01*
X12027Y4447D01*
X12017Y4440D01*
X11984Y4415D01*
X11953Y4387D01*
X11925Y4356D01*
X11900Y4323D01*
X11878Y4288D01*
X11858Y4251D01*
X11843Y4213D01*
X11830Y4173D01*
X11821Y4133D01*
X11816Y4092D01*
X11814Y4050D01*
X11816Y4008D01*
X11821Y3967D01*
X11830Y3927D01*
X11843Y3887D01*
X11858Y3849D01*
X11878Y3812D01*
X11900Y3777D01*
X11925Y3744D01*
X11953Y3713D01*
X11984Y3685D01*
X12017Y3660D01*
X12052Y3638D01*
X12089Y3618D01*
X12127Y3603D01*
X12167Y3590D01*
X12207Y3581D01*
X12249Y3576D01*
X12290Y3574D01*
X12332Y3576D01*
X12373Y3581D01*
X12413Y3590D01*
X12453Y3603D01*
X12491Y3618D01*
X12528Y3638D01*
X12563Y3660D01*
X12596Y3685D01*
X12627Y3713D01*
X12655Y3744D01*
X12680Y3777D01*
X12702Y3812D01*
X12722Y3849D01*
X12737Y3887D01*
X12750Y3927D01*
X12759Y3967D01*
X12764Y4008D01*
X12766Y4050D01*
X12764Y4092D01*
X12759Y4133D01*
X12750Y4173D01*
X12737Y4213D01*
X12722Y4251D01*
X12702Y4288D01*
X12680Y4323D01*
X12655Y4356D01*
X12627Y4387D01*
X12596Y4415D01*
X12563Y4440D01*
X12528Y4462D01*
X12509Y4472D01*
X12502Y4522D01*
X12516Y4534D01*
X12540Y4562D01*
X12562Y4591D01*
X12581Y4623D01*
X12597Y4656D01*
X12610Y4691D01*
X12619Y4727D01*
X12624Y4763D01*
X12626Y4800D01*
X12624Y4837D01*
X12619Y4873D01*
X12610Y4909D01*
X12597Y4944D01*
X12581Y4977D01*
X12562Y5009D01*
X12540Y5038D01*
X12516Y5066D01*
X12488Y5090D01*
X12459Y5112D01*
X12427Y5131D01*
X12394Y5147D01*
X12359Y5160D01*
X12323Y5169D01*
X12287Y5174D01*
X12250Y5176D01*
X12213Y5174D01*
X12177Y5169D01*
X12141Y5160D01*
X12106Y5147D01*
X12093Y5141D01*
X12071Y5164D01*
X12055Y5177D01*
X12038Y5188D01*
X12030Y5191D01*
X12019Y5196D01*
X11999Y5200D01*
X11978Y5202D01*
X11798D01*
X11766Y5241D01*
X11767Y5247D01*
X11769Y5270D01*
X11767Y5293D01*
X11763Y5316D01*
X11755Y5338D01*
X11745Y5359D01*
X11809Y5402D01*
X16516D01*
Y890D01*
D02*
G37*
G36*
X11324Y3094D02*
X11341Y3078D01*
X11361Y3065D01*
X11382Y3055D01*
X11404Y3047D01*
X11427Y3043D01*
X11450Y3041D01*
X11463Y3042D01*
X11500Y3008D01*
Y2752D01*
X11453Y2733D01*
X11123Y3063D01*
X11142Y3110D01*
X11309D01*
X11324Y3094D01*
D02*
G37*
G36*
X10030Y3689D02*
Y2178D01*
X10021Y2172D01*
X10004Y2156D01*
X9988Y2139D01*
X9975Y2119D01*
X9965Y2098D01*
X9957Y2076D01*
X9953Y2053D01*
X9951Y2030D01*
X9953Y2007D01*
X9957Y1984D01*
X9965Y1962D01*
X9975Y1941D01*
X9988Y1921D01*
X10004Y1904D01*
X10021Y1888D01*
X10041Y1875D01*
X10048Y1872D01*
X10053Y1840D01*
X10042Y1809D01*
X10022Y1788D01*
X10011Y1775D01*
X10002Y1760D01*
X9995Y1744D01*
X9991Y1727D01*
X9990Y1710D01*
Y1561D01*
X9974Y1546D01*
X9958Y1529D01*
X9945Y1509D01*
X9935Y1488D01*
X9927Y1466D01*
X9923Y1443D01*
X9921Y1420D01*
X9923Y1397D01*
X9927Y1374D01*
X9935Y1352D01*
X9945Y1331D01*
X9958Y1311D01*
X9974Y1294D01*
X9991Y1278D01*
X10011Y1265D01*
X10032Y1255D01*
X10054Y1247D01*
X10077Y1243D01*
X10100Y1241D01*
X10123Y1243D01*
X10146Y1247D01*
X10168Y1255D01*
X10189Y1265D01*
X10209Y1278D01*
X10226Y1294D01*
X10242Y1311D01*
X10255Y1331D01*
X10265Y1352D01*
X10273Y1374D01*
X10277Y1397D01*
X10279Y1418D01*
X10325Y1437D01*
X10328Y1434D01*
X10353Y1416D01*
X10380Y1402D01*
X10409Y1390D01*
X10411Y1389D01*
X10424Y1341D01*
X10141Y1058D01*
X10126Y1063D01*
X10103Y1067D01*
X10080Y1069D01*
X10057Y1067D01*
X10034Y1063D01*
X10012Y1055D01*
X9991Y1045D01*
X9971Y1032D01*
X9954Y1016D01*
X9938Y999D01*
X9925Y979D01*
X9915Y958D01*
X9907Y936D01*
X9903Y913D01*
X9901Y890D01*
X9903Y867D01*
X9907Y844D01*
X9915Y822D01*
X9925Y801D01*
X9938Y781D01*
X9954Y764D01*
X9971Y748D01*
X9991Y735D01*
X10012Y725D01*
X10027Y720D01*
X10033Y670D01*
X10021Y662D01*
X10004Y646D01*
X9988Y629D01*
X9976Y610D01*
X9420D01*
X9404Y609D01*
X9389Y604D01*
X9375Y597D01*
X9363Y587D01*
X9353Y575D01*
X9346Y561D01*
X9341Y546D01*
X9340Y530D01*
Y341D01*
X9322Y335D01*
X9301Y325D01*
X9281Y312D01*
X9264Y296D01*
X9248Y279D01*
X9235Y259D01*
X9225Y238D01*
X9217Y216D01*
X9213Y193D01*
X9211Y170D01*
X9212Y151D01*
X9208Y146D01*
X9050Y114D01*
X5841Y114D01*
X5771Y149D01*
X5766Y155D01*
X5773Y174D01*
X5777Y197D01*
X5779Y220D01*
X5777Y243D01*
X5773Y266D01*
X5765Y288D01*
X5755Y309D01*
X5742Y329D01*
X5726Y346D01*
X5709Y362D01*
X5689Y375D01*
X5668Y385D01*
X5646Y393D01*
X5623Y397D01*
X5600Y399D01*
X5577Y397D01*
X5554Y393D01*
X5532Y385D01*
X5511Y375D01*
X5491Y362D01*
X5474Y346D01*
X5458Y329D01*
X5445Y309D01*
X5435Y288D01*
X5427Y266D01*
X5423Y243D01*
X5421Y220D01*
X5423Y197D01*
X5427Y174D01*
X5434Y155D01*
X5429Y149D01*
X5359Y114D01*
X4998D01*
X4967Y153D01*
X4967Y157D01*
X4969Y180D01*
X4967Y203D01*
X4963Y226D01*
X4960Y235D01*
X5478Y754D01*
X5517Y722D01*
X5515Y719D01*
X5505Y698D01*
X5497Y676D01*
X5493Y653D01*
X5491Y630D01*
X5493Y607D01*
X5497Y584D01*
X5505Y562D01*
X5515Y541D01*
X5528Y521D01*
X5544Y504D01*
X5561Y488D01*
X5581Y475D01*
X5602Y465D01*
X5624Y457D01*
X5647Y453D01*
X5670Y451D01*
X5693Y453D01*
X5716Y457D01*
X5738Y465D01*
X5759Y475D01*
X5779Y488D01*
X5796Y504D01*
X5812Y521D01*
X5825Y541D01*
X5835Y562D01*
X5843Y584D01*
X5847Y607D01*
X5849Y630D01*
X5847Y653D01*
X5843Y676D01*
X5835Y698D01*
X5825Y719D01*
X5812Y739D01*
X5796Y756D01*
X5779Y772D01*
X5759Y785D01*
X5738Y795D01*
X5716Y803D01*
X5693Y807D01*
X5670Y809D01*
X5647Y807D01*
X5624Y803D01*
X5602Y795D01*
X5581Y785D01*
X5578Y783D01*
X5546Y822D01*
X5612Y888D01*
X5626Y903D01*
X5636Y921D01*
X5644Y940D01*
X5645Y944D01*
X5649Y960D01*
X5650Y980D01*
Y1736D01*
X6234Y2320D01*
X6440D01*
X6460Y2321D01*
X6480Y2326D01*
X6491Y2331D01*
X6499Y2334D01*
X6517Y2344D01*
X6532Y2358D01*
X6570Y2396D01*
X7158Y1808D01*
X7162Y1804D01*
X7381Y1585D01*
X7378Y1558D01*
X7332Y1539D01*
X7329Y1542D01*
X7309Y1555D01*
X7288Y1565D01*
X7266Y1573D01*
X7243Y1577D01*
X7220Y1579D01*
X7197Y1577D01*
X7174Y1573D01*
X7152Y1565D01*
X7131Y1555D01*
X7111Y1542D01*
X7094Y1526D01*
X7078Y1509D01*
X7065Y1489D01*
X7055Y1468D01*
X7047Y1446D01*
X7043Y1423D01*
X7041Y1400D01*
X7043Y1377D01*
X7047Y1354D01*
X7055Y1332D01*
X7065Y1311D01*
X7078Y1291D01*
X7094Y1274D01*
X7111Y1258D01*
X7131Y1245D01*
X7152Y1235D01*
X7174Y1227D01*
X7197Y1223D01*
X7220Y1221D01*
X7243Y1223D01*
X7266Y1227D01*
X7288Y1235D01*
X7289Y1235D01*
X7327Y1202D01*
X7320Y1183D01*
X7316Y1160D01*
X7314Y1137D01*
X7316Y1114D01*
X7320Y1091D01*
X7328Y1068D01*
X7338Y1047D01*
X7351Y1028D01*
X7367Y1010D01*
X7384Y995D01*
X7404Y982D01*
X7425Y972D01*
X7447Y964D01*
X7470Y960D01*
X7493Y958D01*
X7516Y960D01*
X7539Y964D01*
X7562Y972D01*
X7583Y982D01*
X7602Y995D01*
X7620Y1010D01*
X7635Y1028D01*
X7648Y1047D01*
X7658Y1068D01*
X7666Y1091D01*
X7670Y1114D01*
X7671Y1116D01*
X7791Y1236D01*
X7796Y1237D01*
X7818Y1245D01*
X7839Y1255D01*
X7859Y1268D01*
X7876Y1284D01*
X7892Y1301D01*
X7905Y1321D01*
X7915Y1342D01*
X7923Y1364D01*
X7927Y1387D01*
X7929Y1410D01*
X7927Y1433D01*
X7923Y1456D01*
X7915Y1478D01*
X7905Y1499D01*
X7892Y1519D01*
X7876Y1536D01*
X7859Y1552D01*
X7839Y1565D01*
X7818Y1575D01*
X7796Y1583D01*
X7773Y1587D01*
X7750Y1589D01*
X7746Y1589D01*
X7612Y1723D01*
X7631Y1770D01*
X7996D01*
X8420Y1346D01*
Y1050D01*
X8421Y1030D01*
X8426Y1010D01*
X8431Y999D01*
X8434Y991D01*
X8444Y973D01*
X8458Y958D01*
X8512Y904D01*
X8513Y887D01*
X8517Y864D01*
X8525Y842D01*
X8535Y821D01*
X8548Y801D01*
X8564Y784D01*
X8581Y768D01*
X8601Y755D01*
X8622Y745D01*
X8644Y737D01*
X8667Y733D01*
X8690Y731D01*
X8713Y733D01*
X8736Y737D01*
X8758Y745D01*
X8779Y755D01*
X8799Y768D01*
X8816Y784D01*
X8832Y801D01*
X8845Y821D01*
X8855Y842D01*
X8863Y864D01*
X8867Y887D01*
X8869Y910D01*
X8867Y933D01*
X8863Y956D01*
X8855Y978D01*
X8845Y999D01*
X8832Y1019D01*
X8816Y1036D01*
X8799Y1052D01*
X8779Y1065D01*
X8758Y1075D01*
X8736Y1083D01*
X8713Y1087D01*
X8696Y1088D01*
X8680Y1104D01*
Y1179D01*
X8696Y1226D01*
X8719Y1244D01*
X8727Y1243D01*
X8750Y1241D01*
X8773Y1243D01*
X8796Y1247D01*
X8818Y1255D01*
X8839Y1265D01*
X8859Y1278D01*
X8876Y1294D01*
X8892Y1311D01*
X8905Y1331D01*
X8915Y1352D01*
X8923Y1374D01*
X8927Y1397D01*
X8929Y1420D01*
X8927Y1443D01*
X8923Y1466D01*
X8915Y1488D01*
X8905Y1509D01*
X8892Y1529D01*
X8876Y1546D01*
X8859Y1562D01*
X8839Y1575D01*
X8818Y1585D01*
X8796Y1593D01*
X8773Y1597D01*
X8750Y1599D01*
X8727Y1597D01*
X8704Y1593D01*
X8682Y1585D01*
X8661Y1575D01*
X8641Y1562D01*
X8624Y1546D01*
X8334Y1800D01*
X8168Y1967D01*
X8176Y1981D01*
X8184Y2000D01*
X8185Y2004D01*
X8189Y2020D01*
X8190Y2040D01*
Y2089D01*
X8238Y2103D01*
X8243Y2096D01*
X8258Y2079D01*
X8276Y2063D01*
X8295Y2050D01*
X8316Y2040D01*
X8339Y2032D01*
X8362Y2028D01*
X8385Y2026D01*
X8408Y2028D01*
X8431Y2032D01*
X8453Y2040D01*
X8474Y2050D01*
X8494Y2063D01*
X8511Y2079D01*
X8527Y2096D01*
X8540Y2116D01*
X8550Y2137D01*
X8558Y2159D01*
X8562Y2182D01*
X8564Y2205D01*
X8562Y2228D01*
X8558Y2251D01*
X8550Y2274D01*
X8540Y2295D01*
X8527Y2314D01*
X8511Y2332D01*
X8494Y2347D01*
X8474Y2360D01*
X8453Y2370D01*
X8431Y2378D01*
X8408Y2382D01*
X8385Y2384D01*
X8362Y2382D01*
X8339Y2378D01*
X8316Y2370D01*
X8295Y2360D01*
X8276Y2347D01*
X8258Y2332D01*
X8243Y2314D01*
X8230Y2295D01*
X8220Y2274D01*
X8213Y2252D01*
X8163Y2243D01*
X8159Y2249D01*
X8142Y2263D01*
X8123Y2274D01*
X8103Y2283D01*
X8082Y2288D01*
X8060Y2289D01*
X8038Y2288D01*
X8017Y2283D01*
X7997Y2274D01*
X7978Y2263D01*
X7961Y2249D01*
X7947Y2232D01*
X7936Y2213D01*
X7927Y2193D01*
X7922Y2172D01*
X7921Y2150D01*
X7922Y2128D01*
X7927Y2107D01*
X7930Y2101D01*
Y2094D01*
X7866Y2030D01*
X7304D01*
X6721Y2613D01*
X6727Y2663D01*
X6743Y2673D01*
X6749Y2670D01*
X6771Y2662D01*
X6794Y2658D01*
X6818Y2656D01*
X6841Y2658D01*
X6864Y2662D01*
X6886Y2670D01*
X6907Y2680D01*
X6927Y2693D01*
X6944Y2709D01*
X6960Y2726D01*
X6973Y2746D01*
X6983Y2767D01*
X6990Y2789D01*
X6995Y2812D01*
X6997Y2835D01*
X6995Y2858D01*
X6990Y2881D01*
X6983Y2903D01*
X6973Y2924D01*
X6960Y2944D01*
X6944Y2961D01*
X6927Y2977D01*
X6907Y2990D01*
X6886Y3000D01*
X6878Y3003D01*
X6870Y3037D01*
X6874Y3060D01*
X6992Y3178D01*
X7006Y3193D01*
X7016Y3211D01*
X7019Y3219D01*
X7024Y3230D01*
X7029Y3250D01*
X7030Y3267D01*
X7072Y3295D01*
X7079Y3292D01*
X7102Y3288D01*
X7125Y3286D01*
X7148Y3288D01*
X7171Y3292D01*
X7193Y3300D01*
X7214Y3310D01*
X7234Y3323D01*
X7251Y3339D01*
X7258Y3345D01*
X7308D01*
X7314Y3339D01*
X7331Y3323D01*
X7351Y3310D01*
D01*
X7351D01*
X7351D01*
X7351Y3310D01*
X7351D01*
X7376Y3280D01*
X7376D01*
X7316Y3220D01*
X7219D01*
X7213Y3223D01*
X7192Y3228D01*
X7170Y3229D01*
X7148Y3228D01*
X7127Y3223D01*
X7107Y3214D01*
X7088Y3203D01*
X7071Y3189D01*
X7057Y3172D01*
X7046Y3153D01*
X7037Y3133D01*
X7032Y3112D01*
X7031Y3090D01*
X7032Y3068D01*
X7037Y3047D01*
X7046Y3027D01*
X7057Y3008D01*
X7071Y2991D01*
X7088Y2977D01*
X7107Y2966D01*
X7127Y2957D01*
X7148Y2952D01*
X7170Y2951D01*
X7192Y2952D01*
X7213Y2957D01*
X7219Y2960D01*
X7370D01*
X7390Y2961D01*
X7410Y2966D01*
X7421Y2971D01*
X7429Y2974D01*
X7447Y2984D01*
X7462Y2998D01*
X7523Y3059D01*
X7573Y3076D01*
X7594Y3072D01*
X7600Y3061D01*
X7613Y3041D01*
X7629Y3024D01*
X7646Y3008D01*
X7666Y2995D01*
X7687Y2985D01*
X7709Y2977D01*
X7732Y2973D01*
X7755Y2971D01*
X7778Y2973D01*
X7801Y2977D01*
X7823Y2985D01*
X7844Y2995D01*
X7864Y3008D01*
X7881Y3024D01*
X7887Y3031D01*
X7937D01*
X7944Y3024D01*
X7961Y3008D01*
X7981Y2995D01*
X8002Y2985D01*
X8024Y2977D01*
X8036Y2960D01*
X8036D01*
X8036Y2960D01*
X8031Y2940D01*
X8030Y2920D01*
Y2794D01*
X7632Y2396D01*
X7593Y2428D01*
X7595Y2431D01*
X7605Y2452D01*
X7613Y2474D01*
X7617Y2497D01*
X7619Y2520D01*
X7617Y2543D01*
X7613Y2566D01*
X7605Y2588D01*
X7595Y2609D01*
X7582Y2629D01*
X7566Y2646D01*
X7549Y2662D01*
X7529Y2675D01*
X7508Y2685D01*
X7486Y2693D01*
X7463Y2697D01*
X7440Y2699D01*
X7417Y2697D01*
X7394Y2693D01*
X7372Y2685D01*
X7351Y2675D01*
X7331Y2662D01*
X7314Y2646D01*
X7298Y2629D01*
X7285Y2609D01*
X7275Y2588D01*
X7267Y2566D01*
X7263Y2543D01*
X7261Y2520D01*
X7263Y2497D01*
X7267Y2474D01*
X7275Y2452D01*
X7285Y2431D01*
X7298Y2411D01*
X7314Y2394D01*
X7331Y2378D01*
X7351Y2365D01*
X7364Y2359D01*
X7374Y2310D01*
X7367Y2302D01*
X7356Y2283D01*
X7347Y2263D01*
X7342Y2242D01*
X7341Y2220D01*
X7342Y2198D01*
X7347Y2177D01*
X7356Y2157D01*
X7367Y2138D01*
X7381Y2121D01*
X7398Y2107D01*
X7417Y2096D01*
X7437Y2087D01*
X7458Y2082D01*
X7480Y2081D01*
X7502Y2082D01*
X7523Y2087D01*
X7529Y2090D01*
X7640D01*
X7660Y2091D01*
X7680Y2096D01*
X7691Y2101D01*
X7699Y2104D01*
X7717Y2114D01*
X7732Y2128D01*
X8252Y2648D01*
X8266Y2663D01*
X8276Y2681D01*
X8276Y2681D01*
X8295Y2680D01*
X8316Y2670D01*
X8339Y2662D01*
X8362Y2658D01*
X8385Y2656D01*
X8408Y2658D01*
X8431Y2662D01*
X8453Y2670D01*
X8457Y2672D01*
X8496Y2647D01*
X8500Y2642D01*
Y2510D01*
X8501Y2490D01*
X8506Y2470D01*
X8511Y2459D01*
X8514Y2451D01*
X8525Y2433D01*
X8538Y2418D01*
X8886Y2069D01*
X8902Y2056D01*
X8919Y2045D01*
X8927Y2042D01*
X8938Y2038D01*
X8958Y2033D01*
X8978Y2031D01*
X9318D01*
X9321Y2028D01*
X9341Y2015D01*
X9362Y2005D01*
X9384Y1997D01*
X9407Y1993D01*
X9430Y1991D01*
X9453Y1993D01*
X9476Y1997D01*
X9498Y2005D01*
X9519Y2015D01*
X9539Y2028D01*
X9556Y2044D01*
X9572Y2061D01*
X9585Y2081D01*
X9595Y2102D01*
X9603Y2124D01*
X9607Y2147D01*
X9609Y2170D01*
X9607Y2193D01*
X9603Y2216D01*
X9595Y2238D01*
X9585Y2259D01*
X9572Y2279D01*
X9556Y2296D01*
X9539Y2312D01*
X9519Y2325D01*
X9498Y2335D01*
X9476Y2343D01*
X9453Y2347D01*
X9430Y2349D01*
X9407Y2347D01*
X9384Y2343D01*
X9362Y2335D01*
X9341Y2325D01*
X9321Y2312D01*
X9304Y2296D01*
X9300Y2292D01*
X9032D01*
X8760Y2564D01*
Y2950D01*
X8759Y2970D01*
X8754Y2990D01*
X8746Y3009D01*
X8735Y3027D01*
X8722Y3042D01*
X8570Y3194D01*
Y3274D01*
X8569Y3294D01*
X8564Y3314D01*
X8559Y3325D01*
X8556Y3333D01*
X8546Y3350D01*
X8532Y3366D01*
X8127Y3771D01*
Y4064D01*
X8401D01*
X8563Y3902D01*
X8566Y3897D01*
X8577Y3878D01*
X8591Y3861D01*
X8608Y3847D01*
X8627Y3836D01*
X8647Y3827D01*
X8668Y3822D01*
X8690Y3821D01*
X8712Y3822D01*
X8733Y3827D01*
X8753Y3836D01*
X8772Y3847D01*
X8789Y3861D01*
X8803Y3878D01*
X8814Y3897D01*
X8823Y3917D01*
X8828Y3938D01*
X8829Y3960D01*
X8828Y3982D01*
X8827Y3987D01*
X8872Y4007D01*
X8873Y4006D01*
X8888Y3988D01*
X8906Y3973D01*
X8925Y3960D01*
X8946Y3950D01*
X8969Y3942D01*
X8991Y3938D01*
X9015Y3936D01*
X9038Y3938D01*
X9054Y3941D01*
X9057Y3924D01*
X9065Y3902D01*
X9075Y3881D01*
X9088Y3861D01*
X9104Y3844D01*
X9121Y3828D01*
X9141Y3815D01*
X9141Y3815D01*
Y3765D01*
X9141Y3765D01*
X9121Y3752D01*
X9104Y3736D01*
X9088Y3719D01*
X9075Y3699D01*
X9065Y3678D01*
X9057Y3656D01*
X9053Y3633D01*
X9051Y3610D01*
X9053Y3587D01*
X9057Y3564D01*
X9065Y3542D01*
X9075Y3521D01*
X9088Y3501D01*
X9104Y3484D01*
X9121Y3468D01*
X9141Y3455D01*
X9162Y3445D01*
X9184Y3437D01*
X9207Y3433D01*
X9230Y3431D01*
X9253Y3433D01*
X9276Y3437D01*
X9298Y3445D01*
X9319Y3455D01*
X9344Y3461D01*
D01*
Y3461D01*
X9344Y3461D01*
Y3461D01*
Y3461D01*
D01*
X9357Y3441D01*
X9372Y3424D01*
X9390Y3408D01*
X9409Y3395D01*
X9430Y3385D01*
X9452Y3377D01*
X9475Y3373D01*
X9499Y3371D01*
X9522Y3373D01*
X9545Y3377D01*
X9567Y3385D01*
X9588Y3395D01*
X9608Y3408D01*
X9625Y3424D01*
X9641Y3441D01*
X9654Y3461D01*
X9664Y3482D01*
X9671Y3504D01*
X9676Y3527D01*
X9678Y3550D01*
X9676Y3573D01*
X9671Y3596D01*
X9664Y3618D01*
X9654Y3639D01*
X9641Y3659D01*
X9625Y3676D01*
X9608Y3692D01*
X9588Y3705D01*
X9567Y3715D01*
X9545Y3723D01*
X9522Y3727D01*
X9499Y3729D01*
X9475Y3727D01*
X9452Y3723D01*
X9430Y3715D01*
X9409Y3705D01*
X9397Y3697D01*
X9385Y3699D01*
Y3699D01*
X9385Y3699D01*
D01*
X9372Y3719D01*
X9356Y3736D01*
X9339Y3752D01*
X9319Y3765D01*
X9319Y3765D01*
Y3815D01*
X9319Y3815D01*
X9339Y3828D01*
X9356Y3844D01*
X9372Y3861D01*
X9385Y3881D01*
X9395Y3902D01*
X9403Y3924D01*
X9407Y3947D01*
X9409Y3970D01*
X9407Y3993D01*
X9403Y4016D01*
X9395Y4038D01*
X9385Y4059D01*
X9372Y4079D01*
X9356Y4096D01*
X9339Y4112D01*
X9319Y4125D01*
X9298Y4135D01*
X9276Y4143D01*
X9253Y4147D01*
X9230Y4149D01*
X9207Y4147D01*
X9191Y4144D01*
X9188Y4161D01*
X9180Y4183D01*
X9170Y4204D01*
X9164Y4213D01*
X9181Y4245D01*
X9194Y4257D01*
X9462D01*
X10030Y3689D01*
D02*
G37*
G36*
X6341Y6151D02*
X6356Y6116D01*
X6374Y6083D01*
X6394Y6051D01*
X6417Y6021D01*
X6443Y5993D01*
X6471Y5967D01*
X6497Y5946D01*
X6497Y5946D01*
X6493Y5923D01*
X6491Y5900D01*
X6493Y5877D01*
X6497Y5854D01*
X6502Y5840D01*
X6491Y5825D01*
X6440Y5799D01*
X6126D01*
X6067Y5839D01*
X6065Y5842D01*
X6075Y5862D01*
X6083Y5884D01*
X6087Y5907D01*
X6089Y5930D01*
X6087Y5953D01*
X6083Y5976D01*
X6075Y5998D01*
X6071Y6007D01*
X6083Y6021D01*
X6106Y6051D01*
X6126Y6083D01*
X6144Y6116D01*
X6159Y6151D01*
X6169Y6186D01*
X6331D01*
X6341Y6151D01*
D02*
G37*
G36*
X3279Y5958D02*
X3285Y5942D01*
X3295Y5921D01*
X3308Y5901D01*
X3324Y5884D01*
X3341Y5868D01*
X3361Y5855D01*
X3382Y5845D01*
X3404Y5837D01*
X3427Y5833D01*
X3450Y5831D01*
X3473Y5833D01*
X3496Y5837D01*
X3518Y5845D01*
X3539Y5855D01*
X3559Y5868D01*
X3576Y5884D01*
X3588Y5897D01*
X3601Y5891D01*
X3637Y5880D01*
X3675Y5872D01*
X3712Y5867D01*
X3750Y5865D01*
X3788Y5867D01*
X3825Y5872D01*
X3863Y5880D01*
X3899Y5891D01*
X3911Y5897D01*
X3914Y5894D01*
X3931Y5878D01*
X3951Y5865D01*
X3972Y5855D01*
X3994Y5847D01*
X4017Y5843D01*
X4040Y5841D01*
X4063Y5843D01*
X4086Y5847D01*
X4108Y5855D01*
X4129Y5865D01*
X4149Y5878D01*
X4166Y5894D01*
X4182Y5911D01*
X4195Y5931D01*
X4205Y5952D01*
X4208Y5961D01*
X4258Y5967D01*
X4258Y5967D01*
X4274Y5949D01*
X4291Y5934D01*
X4311Y5921D01*
X4332Y5910D01*
X4354Y5903D01*
X4377Y5898D01*
X4400Y5897D01*
X4423Y5898D01*
X4446Y5903D01*
X4468Y5910D01*
X4489Y5921D01*
X4493Y5923D01*
X4541Y5909D01*
X4546Y5896D01*
X4547Y5867D01*
X4535Y5859D01*
X4522Y5848D01*
X4071Y5397D01*
X4067Y5397D01*
X4046Y5391D01*
X4025Y5383D01*
X4007Y5372D01*
X3990Y5357D01*
X3976Y5341D01*
X3965Y5322D01*
X3956Y5302D01*
X3951Y5281D01*
X3949Y5259D01*
X3951Y5237D01*
X3956Y5216D01*
X3965Y5195D01*
X3976Y5177D01*
X3990Y5160D01*
X4007Y5146D01*
X4025Y5135D01*
X4046Y5126D01*
X4067Y5121D01*
X4089Y5119D01*
X4111Y5121D01*
X4132Y5126D01*
X4152Y5135D01*
X4155Y5136D01*
X4168Y5121D01*
X4184Y5107D01*
X4203Y5096D01*
X4223Y5087D01*
X4244Y5082D01*
X4266Y5081D01*
X4288Y5082D01*
X4309Y5087D01*
X4330Y5096D01*
X4348Y5107D01*
X4365Y5121D01*
X4379Y5138D01*
X4391Y5157D01*
X4399Y5177D01*
X4404Y5198D01*
X4406Y5220D01*
X4404Y5242D01*
X4400Y5258D01*
X4691Y5550D01*
X4812D01*
X4823Y5544D01*
X4848Y5509D01*
X4847Y5506D01*
X4843Y5483D01*
X4841Y5460D01*
X4843Y5437D01*
X4847Y5414D01*
X4855Y5392D01*
X4855Y5391D01*
X4850Y5378D01*
X4835Y5369D01*
X4822Y5358D01*
X4752Y5288D01*
X4741Y5275D01*
X4736Y5267D01*
X4723Y5274D01*
X4703Y5283D01*
X4682Y5288D01*
X4660Y5289D01*
X4638Y5288D01*
X4617Y5283D01*
X4597Y5274D01*
X4578Y5263D01*
X4561Y5249D01*
X4547Y5232D01*
X4536Y5213D01*
X4527Y5193D01*
X4522Y5172D01*
X4521Y5150D01*
X4522Y5128D01*
X4527Y5107D01*
X4536Y5087D01*
X4547Y5068D01*
X4550Y5065D01*
Y4340D01*
X4551Y4323D01*
X4555Y4306D01*
X4562Y4290D01*
X4571Y4275D01*
X4582Y4262D01*
X4722Y4122D01*
X4735Y4111D01*
X4750Y4102D01*
X4766Y4095D01*
X4783Y4091D01*
X4800Y4090D01*
X4894D01*
X5912Y3072D01*
X5925Y3061D01*
X5940Y3052D01*
X5956Y3045D01*
X5973Y3041D01*
X5990Y3040D01*
X6210D01*
X6229Y2993D01*
X6078Y2842D01*
X5186Y1950D01*
X5118D01*
X5071Y1974D01*
X5058Y1991D01*
X5063Y2004D01*
X5067Y2027D01*
X5069Y2050D01*
X5067Y2073D01*
X5063Y2096D01*
X5055Y2118D01*
X5045Y2139D01*
X5032Y2159D01*
X5016Y2176D01*
X4999Y2192D01*
X4979Y2205D01*
X4963Y2213D01*
X4970Y2234D01*
X4975Y2257D01*
X4976Y2280D01*
X4975Y2303D01*
X4970Y2326D01*
X4963Y2348D01*
X4952Y2369D01*
X4939Y2389D01*
X4924Y2406D01*
X4906Y2422D01*
X4887Y2435D01*
X4866Y2445D01*
X4844Y2453D01*
X4821Y2457D01*
X4798Y2459D01*
X4774Y2457D01*
X4751Y2453D01*
X4729Y2445D01*
X4708Y2435D01*
X4689Y2422D01*
X4671Y2406D01*
X4656Y2389D01*
X4643Y2369D01*
X4632Y2348D01*
X4625Y2326D01*
X4620Y2303D01*
X4619Y2280D01*
X4620Y2257D01*
X4625Y2234D01*
X4632Y2212D01*
X4643Y2191D01*
X4656Y2171D01*
X4671Y2154D01*
X4689Y2138D01*
X4708Y2125D01*
X4724Y2117D01*
X4717Y2096D01*
X4713Y2073D01*
X4711Y2050D01*
X4713Y2027D01*
X4717Y2004D01*
X4722Y1991D01*
X4709Y1974D01*
X4662Y1950D01*
X3945D01*
X3809Y2086D01*
X3808Y2103D01*
X3803Y2126D01*
X3796Y2148D01*
X3785Y2169D01*
X3772Y2189D01*
X3757Y2206D01*
X3739Y2222D01*
X3720Y2235D01*
X3699Y2245D01*
X3677Y2253D01*
X3654Y2257D01*
X3631Y2259D01*
X3607Y2257D01*
X3584Y2253D01*
X3562Y2245D01*
X3541Y2235D01*
X3522Y2222D01*
X3504Y2206D01*
X3489Y2189D01*
X3476Y2169D01*
X3465Y2148D01*
X3458Y2126D01*
X3453Y2103D01*
X3452Y2080D01*
X3453Y2057D01*
X3458Y2034D01*
X3465Y2012D01*
X3476Y1991D01*
X3489Y1971D01*
X3504Y1954D01*
X3522Y1938D01*
X3541Y1925D01*
X3562Y1915D01*
X3584Y1907D01*
X3607Y1903D01*
X3625Y1902D01*
X3798Y1728D01*
X3814Y1715D01*
X3831Y1704D01*
X3850Y1696D01*
X3870Y1691D01*
X3891Y1690D01*
X5240D01*
X5260Y1691D01*
X5280Y1696D01*
X5291Y1701D01*
X5299Y1704D01*
X5317Y1715D01*
X5332Y1728D01*
X5343Y1739D01*
X5390Y1720D01*
Y1034D01*
X5234Y879D01*
X5189Y899D01*
X5189Y900D01*
X5187Y923D01*
X5183Y946D01*
X5175Y968D01*
X5165Y989D01*
X5152Y1009D01*
X5136Y1026D01*
X5119Y1042D01*
X5099Y1055D01*
X5078Y1065D01*
X5056Y1073D01*
X5033Y1077D01*
X5010Y1079D01*
X4987Y1077D01*
X4964Y1073D01*
X4942Y1065D01*
X4921Y1055D01*
X4901Y1042D01*
X4884Y1026D01*
X4868Y1009D01*
X4855Y989D01*
X4845Y968D01*
X4837Y946D01*
X4833Y923D01*
X4831Y900D01*
X4833Y877D01*
X4837Y854D01*
X4845Y832D01*
X4855Y811D01*
X4868Y791D01*
X4884Y774D01*
X4901Y758D01*
X4921Y745D01*
X4942Y735D01*
X4964Y727D01*
X4987Y723D01*
X5010Y721D01*
X5011Y721D01*
X5031Y676D01*
X4698Y342D01*
X4685Y327D01*
X4682Y322D01*
X4681Y322D01*
X4664Y306D01*
X4648Y289D01*
X4635Y269D01*
X4625Y248D01*
X4617Y226D01*
X4613Y203D01*
X4611Y180D01*
X4613Y157D01*
X4613Y153D01*
X4582Y114D01*
X2751D01*
X2731Y160D01*
X2735Y164D01*
X2760Y197D01*
X2782Y232D01*
X2802Y269D01*
X2817Y307D01*
X2830Y347D01*
X2839Y387D01*
X2844Y428D01*
X2846Y470D01*
X2844Y512D01*
X2839Y553D01*
X2830Y593D01*
X2817Y633D01*
X2802Y671D01*
X2782Y708D01*
X2760Y743D01*
X2735Y776D01*
X2707Y807D01*
X2676Y835D01*
X2643Y860D01*
X2608Y882D01*
X2571Y902D01*
X2533Y917D01*
X2493Y930D01*
X2453Y939D01*
X2412Y944D01*
X2370Y946D01*
X2329Y944D01*
X2287Y939D01*
X2247Y930D01*
X2207Y917D01*
X2169Y902D01*
X2132Y882D01*
X2097Y860D01*
X2075Y843D01*
X2041Y860D01*
X2030Y872D01*
Y5691D01*
X2067Y5875D01*
X2090Y5874D01*
X2113Y5875D01*
X2136Y5880D01*
X2158Y5887D01*
X2179Y5897D01*
X2199Y5910D01*
X2216Y5926D01*
X2232Y5943D01*
X2232Y5944D01*
X2282Y5947D01*
X2294Y5934D01*
X2311Y5918D01*
X2331Y5905D01*
X2352Y5895D01*
X2374Y5887D01*
X2397Y5883D01*
X2420Y5881D01*
X2443Y5883D01*
X2466Y5887D01*
X2488Y5895D01*
X2509Y5905D01*
X2528Y5918D01*
X2571Y5893D01*
X2571Y5890D01*
X2573Y5867D01*
X2577Y5844D01*
X2585Y5822D01*
X2595Y5801D01*
X2608Y5781D01*
X2624Y5764D01*
X2641Y5748D01*
X2661Y5735D01*
X2682Y5725D01*
X2704Y5717D01*
X2727Y5713D01*
X2750Y5711D01*
X2773Y5713D01*
X2796Y5717D01*
X2818Y5725D01*
X2839Y5735D01*
X2859Y5748D01*
X2876Y5764D01*
X2892Y5781D01*
X2905Y5801D01*
X2915Y5822D01*
X2923Y5844D01*
X2927Y5867D01*
X2929Y5890D01*
X2928Y5904D01*
X2934Y5906D01*
X2967Y5924D01*
X2998Y5943D01*
X3011Y5935D01*
X3032Y5925D01*
X3054Y5917D01*
X3077Y5913D01*
X3100Y5911D01*
X3123Y5913D01*
X3146Y5917D01*
X3168Y5925D01*
X3189Y5935D01*
X3209Y5948D01*
X3226Y5964D01*
X3230Y5968D01*
X3279Y5958D01*
D02*
G37*
G36*
X10350Y5978D02*
X10370Y5936D01*
X10367Y5906D01*
X10361Y5902D01*
X10344Y5886D01*
X10328Y5869D01*
X10315Y5849D01*
X10305Y5828D01*
X10297Y5806D01*
X10293Y5783D01*
X10291Y5760D01*
X10293Y5737D01*
X10297Y5714D01*
X10305Y5692D01*
X10315Y5671D01*
X10328Y5651D01*
X10344Y5634D01*
X10361Y5618D01*
X10381Y5605D01*
X10402Y5595D01*
X10417Y5590D01*
X10408Y5540D01*
X7260D01*
X7236Y5539D01*
X7213Y5534D01*
X7191Y5527D01*
X7170Y5516D01*
X7150Y5503D01*
X7132Y5488D01*
X7117Y5470D01*
X7104Y5450D01*
X7093Y5429D01*
X7086Y5407D01*
X7081Y5384D01*
X7080Y5360D01*
X7081Y5336D01*
X7086Y5313D01*
X7093Y5291D01*
X7104Y5270D01*
X7117Y5250D01*
X7132Y5232D01*
X7150Y5217D01*
X7170Y5204D01*
X7191Y5193D01*
X7196Y5192D01*
X7206Y5148D01*
X7204Y5140D01*
X7145Y5082D01*
X7110Y5075D01*
X7084Y5081D01*
X7080Y5092D01*
X7070Y5113D01*
X7057Y5133D01*
X7042Y5150D01*
X7024Y5166D01*
X7005Y5179D01*
X6984Y5189D01*
X6962Y5197D01*
X6939Y5201D01*
X6915Y5203D01*
X6892Y5201D01*
X6869Y5197D01*
X6847Y5189D01*
X6826Y5179D01*
X6806Y5166D01*
X6789Y5150D01*
X6782Y5142D01*
X6737Y5157D01*
X6734Y5159D01*
X6720Y5331D01*
X6741Y5352D01*
X6755Y5367D01*
X6765Y5385D01*
X6768Y5393D01*
X6773Y5404D01*
X6778Y5424D01*
X6779Y5444D01*
Y5583D01*
X6778Y5604D01*
X6773Y5623D01*
X6765Y5642D01*
X6755Y5660D01*
X6741Y5675D01*
X6731Y5686D01*
X6739Y5735D01*
X6759Y5745D01*
X6779Y5758D01*
X6796Y5774D01*
X6812Y5791D01*
X6825Y5811D01*
X6835Y5832D01*
X6843Y5854D01*
X6847Y5877D01*
X6847Y5877D01*
X6863Y5880D01*
X6899Y5891D01*
X6934Y5906D01*
X6967Y5924D01*
X6999Y5944D01*
X7029Y5967D01*
X7044Y5980D01*
X7051Y5975D01*
X7072Y5965D01*
X7094Y5957D01*
X7117Y5953D01*
X7140Y5951D01*
X7163Y5953D01*
X7186Y5957D01*
X7208Y5965D01*
X7229Y5975D01*
X7249Y5988D01*
X7266Y6004D01*
X7282Y6021D01*
X7295Y6041D01*
X7305Y6062D01*
X7313Y6084D01*
X7317Y6107D01*
X7319Y6130D01*
X7318Y6149D01*
X7322Y6154D01*
X7480Y6186D01*
X10142D01*
X10350Y5978D01*
D02*
G37*
G36*
X8554Y4891D02*
X8565Y4877D01*
X8563Y4863D01*
X8561Y4840D01*
X8563Y4817D01*
X8567Y4794D01*
X8575Y4772D01*
X8585Y4751D01*
X8598Y4731D01*
X8614Y4714D01*
X8631Y4698D01*
X8651Y4685D01*
X8672Y4675D01*
X8694Y4667D01*
X8717Y4663D01*
X8738Y4661D01*
X8764Y4619D01*
X8751Y4588D01*
X8514D01*
X8334Y4768D01*
X8320Y4779D01*
X8306Y4788D01*
X8290Y4795D01*
X8273Y4799D01*
X8256Y4800D01*
X7968D01*
X7951Y4799D01*
X7934Y4795D01*
X7918Y4788D01*
X7903Y4779D01*
X7890Y4768D01*
X7852Y4730D01*
X7584D01*
X7553Y4766D01*
X7548Y4776D01*
X7562Y4791D01*
X7575Y4811D01*
X7585Y4832D01*
X7593Y4854D01*
X7597Y4877D01*
X7599Y4900D01*
X7613Y4916D01*
X8481D01*
X8554Y4891D01*
D02*
G37*
G36*
X5890Y4971D02*
Y4602D01*
X5843Y4583D01*
X5740Y4686D01*
Y4900D01*
X5739Y4917D01*
X5735Y4934D01*
X5731Y4943D01*
X5729Y4948D01*
X5732Y4952D01*
X5793Y4990D01*
X5870D01*
X5890Y4971D01*
D02*
G37*
G36*
X5410Y4809D02*
Y4592D01*
X5411Y4575D01*
X5415Y4558D01*
X5422Y4542D01*
X5431Y4527D01*
X5442Y4514D01*
X5855Y4101D01*
Y3685D01*
X5856Y3667D01*
X5858Y3662D01*
X5814Y3638D01*
X5210Y4241D01*
Y4670D01*
X5209Y4687D01*
X5205Y4704D01*
X5201Y4713D01*
X5198Y4720D01*
X5189Y4735D01*
X5178Y4748D01*
X5110Y4816D01*
Y4852D01*
X5146Y5001D01*
X5147Y5002D01*
X5168Y5000D01*
X5190Y5002D01*
X5211Y5007D01*
X5211Y5007D01*
X5410Y4809D01*
D02*
G37*
%LPC*%
G36*
X5080Y1569D02*
X5057Y1567D01*
X5034Y1563D01*
X5012Y1555D01*
X4991Y1545D01*
X4971Y1532D01*
X4954Y1516D01*
X4938Y1499D01*
X4925Y1479D01*
X4915Y1458D01*
X4907Y1436D01*
X4903Y1413D01*
X4901Y1390D01*
X4903Y1367D01*
X4907Y1344D01*
X4915Y1322D01*
X4925Y1301D01*
X4938Y1281D01*
X4954Y1264D01*
X4971Y1248D01*
X4991Y1235D01*
X5012Y1225D01*
X5034Y1217D01*
X5057Y1213D01*
X5080Y1211D01*
X5103Y1213D01*
X5126Y1217D01*
X5148Y1225D01*
X5169Y1235D01*
X5189Y1248D01*
X5206Y1264D01*
X5222Y1281D01*
X5235Y1301D01*
X5245Y1322D01*
X5253Y1344D01*
X5257Y1367D01*
X5259Y1390D01*
X5257Y1413D01*
X5253Y1436D01*
X5245Y1458D01*
X5235Y1479D01*
X5222Y1499D01*
X5206Y1516D01*
X5189Y1532D01*
X5169Y1545D01*
X5148Y1555D01*
X5126Y1563D01*
X5103Y1567D01*
X5080Y1569D01*
D02*
G37*
G36*
X8350Y619D02*
X8327Y617D01*
X8304Y613D01*
X8282Y605D01*
X8261Y595D01*
X8241Y582D01*
X8224Y566D01*
X8208Y549D01*
X8195Y529D01*
X8185Y508D01*
X8177Y486D01*
X8173Y463D01*
X8171Y440D01*
X8173Y417D01*
X8177Y394D01*
X8185Y372D01*
X8195Y351D01*
X8208Y331D01*
X8224Y314D01*
X8241Y298D01*
X8261Y285D01*
X8282Y275D01*
X8304Y267D01*
X8327Y263D01*
X8350Y261D01*
X8373Y263D01*
X8396Y267D01*
X8418Y275D01*
X8439Y285D01*
X8459Y298D01*
X8476Y314D01*
X8492Y331D01*
X8505Y351D01*
X8515Y372D01*
X8523Y394D01*
X8527Y417D01*
X8529Y440D01*
X8527Y463D01*
X8523Y486D01*
X8515Y508D01*
X8505Y529D01*
X8492Y549D01*
X8476Y566D01*
X8459Y582D01*
X8439Y595D01*
X8418Y605D01*
X8396Y613D01*
X8373Y617D01*
X8350Y619D01*
D02*
G37*
G36*
X3230Y4800D02*
X2210D01*
Y1360D01*
X3230D01*
Y4800D01*
D02*
G37*
G36*
X9480Y3289D02*
X9457Y3287D01*
X9434Y3283D01*
X9412Y3275D01*
X9391Y3265D01*
X9371Y3252D01*
X9354Y3236D01*
X9338Y3219D01*
X9325Y3199D01*
X9315Y3178D01*
X9307Y3156D01*
X9303Y3133D01*
X9301Y3110D01*
X9303Y3087D01*
X9307Y3064D01*
X9315Y3042D01*
X9325Y3021D01*
X9338Y3001D01*
X9354Y2984D01*
X9371Y2968D01*
X9391Y2955D01*
X9412Y2945D01*
X9434Y2937D01*
X9457Y2933D01*
X9480Y2931D01*
X9503Y2933D01*
X9526Y2937D01*
X9548Y2945D01*
X9569Y2955D01*
X9589Y2968D01*
X9606Y2984D01*
X9622Y3001D01*
X9635Y3021D01*
X9645Y3042D01*
X9653Y3064D01*
X9657Y3087D01*
X9659Y3110D01*
X9657Y3133D01*
X9653Y3156D01*
X9645Y3178D01*
X9635Y3199D01*
X9622Y3219D01*
X9606Y3236D01*
X9589Y3252D01*
X9569Y3265D01*
X9548Y3275D01*
X9526Y3283D01*
X9503Y3287D01*
X9480Y3289D01*
D02*
G37*
G36*
X9040Y3029D02*
X9017Y3027D01*
X8994Y3023D01*
X8972Y3015D01*
X8951Y3005D01*
X8931Y2992D01*
X8914Y2976D01*
X8898Y2959D01*
X8885Y2939D01*
X8875Y2918D01*
X8867Y2896D01*
X8863Y2873D01*
X8861Y2850D01*
X8863Y2827D01*
X8867Y2804D01*
X8875Y2782D01*
X8885Y2761D01*
X8898Y2741D01*
X8914Y2724D01*
X8929Y2710D01*
X8928Y2709D01*
X8915Y2689D01*
X8905Y2668D01*
X8897Y2646D01*
X8893Y2623D01*
X8891Y2600D01*
X8893Y2577D01*
X8897Y2554D01*
X8905Y2532D01*
X8915Y2511D01*
X8928Y2491D01*
X8944Y2474D01*
X8961Y2458D01*
X8981Y2445D01*
X9002Y2435D01*
X9024Y2427D01*
X9047Y2423D01*
X9070Y2421D01*
X9093Y2423D01*
X9116Y2427D01*
X9138Y2435D01*
X9159Y2445D01*
X9179Y2458D01*
X9196Y2474D01*
X9212Y2491D01*
X9225Y2511D01*
X9235Y2532D01*
X9243Y2554D01*
X9247Y2577D01*
X9249Y2600D01*
X9247Y2623D01*
X9243Y2646D01*
X9235Y2668D01*
X9225Y2689D01*
X9212Y2709D01*
X9196Y2726D01*
X9181Y2740D01*
X9182Y2741D01*
X9195Y2761D01*
X9205Y2782D01*
X9213Y2804D01*
X9217Y2827D01*
X9219Y2850D01*
X9217Y2873D01*
X9213Y2896D01*
X9205Y2918D01*
X9195Y2939D01*
X9182Y2959D01*
X9166Y2976D01*
X9149Y2992D01*
X9129Y3005D01*
X9108Y3015D01*
X9086Y3023D01*
X9063Y3027D01*
X9040Y3029D01*
D02*
G37*
%LPD*%
D34*
X7190Y4970D02*
X7356Y5136D01*
X4660Y4340D02*
Y5150D01*
X5250Y5280D02*
X5630Y4900D01*
X4830Y5210D02*
X4900Y5280D01*
X5630Y4640D02*
Y4900D01*
Y4640D02*
X6180Y4090D01*
Y3780D02*
Y4090D01*
X6307Y3260D02*
X6504Y3456D01*
X6036Y3260D02*
X6307D01*
X6968Y4706D02*
X7055Y4620D01*
X6968Y4706D02*
Y4971D01*
X6915Y5024D02*
X6968Y4971D01*
X7898Y4620D02*
X7968Y4690D01*
X7944Y4510D02*
X8005Y4572D01*
X7055Y4620D02*
X7898D01*
X6960Y4510D02*
X7944D01*
X6790Y4680D02*
X6960Y4510D01*
X5520Y4592D02*
Y4854D01*
X5224Y5150D02*
X5520Y4854D01*
X5965Y3685D02*
X6180Y3470D01*
X5965Y3685D02*
Y4147D01*
X7190Y4810D02*
Y4970D01*
X10140Y2030D02*
Y3734D01*
X6790Y4680D02*
Y4780D01*
X5990Y3150D02*
X6495D01*
X4940Y4200D02*
X5990Y3150D01*
X5520Y4592D02*
X5965Y4147D01*
X5100Y4196D02*
X6036Y3260D01*
X5168Y5148D02*
X5170Y5150D01*
X5224D01*
X5000Y4770D02*
Y5150D01*
Y4770D02*
X5100Y4670D01*
Y4196D02*
Y4670D01*
X4660Y4340D02*
X4800Y4200D01*
X4940D01*
X5168Y5139D02*
Y5148D01*
X4900Y5280D02*
X5250D01*
X4830Y5150D02*
Y5210D01*
X4089Y5259D02*
X4600Y5770D01*
X5220D01*
X5750Y6300D01*
X5310Y5660D02*
X5430Y5780D01*
X4646Y5660D02*
X5310D01*
X4266Y5281D02*
X4646Y5660D01*
X4266Y5220D02*
Y5281D01*
X7356Y5136D02*
X10420D01*
X10588Y4968D01*
Y4372D02*
Y4968D01*
X10375Y5026D02*
X10410Y4991D01*
Y4600D02*
Y4991D01*
X8005Y4572D02*
X8218D01*
X8423Y4367D01*
X9507D01*
X10140Y3734D01*
X7968Y4690D02*
X8256D01*
X8468Y4477D01*
X9553D01*
X10100Y1420D02*
Y1710D01*
X10870Y2480D01*
X10080Y890D02*
X10129D01*
X10812Y1572D02*
Y2072D01*
X10129Y890D02*
X10812Y1572D01*
X11410Y2490D02*
Y2620D01*
X10870Y2480D02*
X11400D01*
X11410Y2490D01*
X11052Y2312D02*
X11502D01*
X11610Y2420D01*
X10812Y2072D02*
X11052Y2312D01*
X10990Y1870D02*
Y2094D01*
X11097Y2202D01*
X11547D01*
X11720Y2374D01*
X9553Y4477D02*
X11410Y2620D01*
X11450Y3220D02*
X11610Y3060D01*
Y2420D02*
Y3060D01*
X11720Y2374D02*
Y3240D01*
X10588Y4372D02*
X11720Y3240D01*
X10970Y3220D02*
X11450D01*
X8740Y4820D02*
Y4840D01*
Y4820D02*
X8973Y4587D01*
X9603D01*
X10970Y3220D01*
X7420Y4900D02*
X7546Y5026D01*
X10375D01*
D36*
X6020Y4530D02*
Y5150D01*
X5960Y5210D02*
X6020Y5150D01*
X5968Y5318D02*
X6160Y5510D01*
X5968Y5218D02*
Y5318D01*
X5960Y5210D02*
X5968Y5218D01*
X5870Y5120D02*
X5960Y5210D01*
X5670Y5120D02*
X5870D01*
X7822Y4370D02*
X7997Y4195D01*
X6901Y4370D02*
X7822D01*
X5770Y5370D02*
Y5490D01*
X8978Y2162D02*
X9422D01*
X8630Y2510D02*
X8978Y2162D01*
X8380Y3140D02*
X8440D01*
X8160Y2920D02*
X8380Y3140D01*
X8160Y2740D02*
Y2920D01*
X7640Y2220D02*
X8160Y2740D01*
X8440Y3140D02*
X8630Y2950D01*
Y2510D02*
Y2950D01*
X5020Y5460D02*
X5330D01*
X5670Y5120D01*
X6900Y3270D02*
Y3765D01*
X6570Y2940D02*
X6900Y3270D01*
X6180Y2450D02*
X6440D01*
X5520Y1790D02*
X6180Y2450D01*
X5240Y1820D02*
X6170Y2750D01*
X6570Y2580D02*
X7250Y1900D01*
X6590Y4681D02*
X6901Y4370D01*
X7997Y4195D02*
X8455D01*
X6510Y3760D02*
X6895D01*
X8690Y910D02*
X8718Y938D01*
X6895Y3760D02*
Y3885D01*
X6020Y4530D02*
X6390Y4160D01*
X6360Y2940D02*
X6570D01*
X6170Y2750D02*
X6360Y2940D01*
X7507Y1137D02*
X7750Y1379D01*
X7370Y3090D02*
X7997Y3717D01*
X8440Y3274D01*
Y3140D02*
Y3274D01*
X7997Y3717D02*
Y4195D01*
X8455D02*
X8690Y3960D01*
X7251Y1900D02*
X7920D01*
X7250D02*
X7251D01*
X4790Y250D02*
X5520Y980D01*
X4790Y180D02*
Y250D01*
X9422Y2162D02*
X9430Y2170D01*
X8550Y1050D02*
Y1400D01*
X7920Y1900D02*
X8050D01*
X8060Y2040D02*
Y2150D01*
X7920Y1900D02*
X8060Y2040D01*
X7740Y1410D02*
X7750D01*
X8050Y1900D02*
X8550Y1400D01*
X6390Y4140D02*
Y4160D01*
X6304Y2750D02*
X6380Y2674D01*
X3620Y2080D02*
X3631D01*
X6170Y2750D02*
X6304D01*
X8550Y1400D02*
X8730D01*
X8750Y1420D01*
X6570Y2580D02*
Y2940D01*
X7170Y3090D02*
X7370D01*
X7480Y2220D02*
X7640D01*
X3631Y2080D02*
X3891Y1820D01*
X5240D01*
X7678Y1472D02*
Y1472D01*
Y1472D02*
X7740Y1410D01*
X7251Y1900D02*
X7678Y1472D01*
X8550Y1050D02*
X8690Y910D01*
X7750Y1379D02*
Y1410D01*
X7493Y1137D02*
X7507D01*
X5520Y980D02*
Y1790D01*
X6440Y2450D02*
X6570Y2580D01*
X6370Y4410D02*
X6895Y3885D01*
X5950Y5669D02*
X6563D01*
X5770Y5490D02*
X5950Y5669D01*
X6160Y5510D02*
X6490D01*
X6370Y5390D02*
X6490Y5510D01*
X6370Y4410D02*
Y5390D01*
X6590Y4681D02*
Y5385D01*
X6649Y5444D01*
Y5583D01*
X6563Y5669D02*
X6649Y5583D01*
X11440Y2020D02*
X12620D01*
X13030Y2430D01*
Y4720D01*
X12851Y4899D02*
X13030Y4720D01*
X11978Y5072D02*
X12250Y4800D01*
X11158Y5072D02*
X11978D01*
X10470Y5760D02*
X11158Y5072D01*
D40*
X10800Y5020D02*
X10850D01*
X7260Y5360D02*
X10460D01*
X10800Y5020D01*
D41*
X9760Y325D02*
D03*
D43*
X9550Y6080D02*
D03*
X12060Y3090D02*
D03*
Y2310D02*
D03*
X11440Y3880D02*
D03*
Y4350D02*
D03*
X4876Y3021D02*
D03*
X4404D02*
D03*
X3931D02*
D03*
X5349Y3494D02*
D03*
X4876D02*
D03*
X4404D02*
D03*
X3931D02*
D03*
X4876Y3966D02*
D03*
X4404D02*
D03*
X3931D02*
D03*
X5349Y4439D02*
D03*
X4876D02*
D03*
X4404D02*
D03*
X3931D02*
D03*
X5890Y1530D02*
D03*
X10120Y4520D02*
D03*
X10410Y4600D02*
D03*
X10140Y4790D02*
D03*
X12851Y4899D02*
D03*
X8740Y4840D02*
D03*
X9040Y320D02*
D03*
X7140Y6130D02*
D03*
X4400Y6076D02*
D03*
X3450Y6010D02*
D03*
X2750Y5890D02*
D03*
X2090Y6052D02*
D03*
X9010Y3150D02*
D03*
X9130Y2360D02*
D03*
X9720Y2750D02*
D03*
X8180Y5640D02*
D03*
X6490Y3780D02*
D03*
X6504Y3456D02*
D03*
X6495Y3150D02*
D03*
X6180Y3470D02*
D03*
X6494Y2204D02*
D03*
Y1889D02*
D03*
X6180Y3780D02*
D03*
X6790Y4780D02*
D03*
X7190Y4810D02*
D03*
X7420Y4900D02*
D03*
X7850Y4830D02*
D03*
X5818Y4784D02*
D03*
X5770Y5370D02*
D03*
X5960Y5210D02*
D03*
X11410Y2490D02*
D03*
X10130Y520D02*
D03*
X5700Y2660D02*
D03*
X6610Y1480D02*
D03*
X7493Y1137D02*
D03*
X7755Y3780D02*
D03*
X7754Y2834D02*
D03*
X10850Y5020D02*
D03*
X8389Y3781D02*
D03*
X3631Y2080D02*
D03*
X3630Y1800D02*
D03*
X4790Y180D02*
D03*
X2110Y2990D02*
D03*
X9430Y2170D02*
D03*
X2750Y5250D02*
D03*
X2440D02*
D03*
X8690Y910D02*
D03*
X7750Y1410D02*
D03*
X3350Y1500D02*
D03*
X2130Y960D02*
D03*
X2710Y900D02*
D03*
X3230Y240D02*
D03*
X4300Y250D02*
D03*
X4990Y1150D02*
D03*
X4760Y750D02*
D03*
X4830Y1580D02*
D03*
X5850Y250D02*
D03*
X6280Y610D02*
D03*
X11020Y1370D02*
D03*
X9730Y1730D02*
D03*
X9040Y4790D02*
D03*
X2190Y5700D02*
D03*
X8180Y1420D02*
D03*
X8750D02*
D03*
X8350Y140D02*
D03*
X5020Y5460D02*
D03*
X6250Y6040D02*
D03*
X4610Y5366D02*
D03*
X6920Y5280D02*
D03*
X6915Y5024D02*
D03*
X6670Y5900D02*
D03*
X5910Y5930D02*
D03*
X5370Y6100D02*
D03*
X5040Y6020D02*
D03*
X4040D02*
D03*
X3100Y6090D02*
D03*
X2420Y6060D02*
D03*
X1620Y5920D02*
D03*
X1356Y6160D02*
D03*
X6920Y5770D02*
D03*
X10100Y200D02*
D03*
X9730Y390D02*
D03*
X9390Y170D02*
D03*
X10100Y1420D02*
D03*
X10080Y890D02*
D03*
X10130Y2030D02*
D03*
X10990Y1870D02*
D03*
X11440Y2020D02*
D03*
X11410Y2960D02*
D03*
X11450Y3220D02*
D03*
X10470Y5760D02*
D03*
X9300Y5610D02*
D03*
D44*
X4660Y5150D02*
D03*
X6780Y4250D02*
D03*
X7440Y5900D02*
D03*
X8830Y5640D02*
D03*
X6930Y2490D02*
D03*
X7260Y5360D02*
D03*
X7080Y1790D02*
D03*
X7170Y3090D02*
D03*
X7530Y4060D02*
D03*
X7480Y2220D02*
D03*
X8060Y2150D02*
D03*
X6920Y3360D02*
D03*
X6390Y4140D02*
D03*
X6380Y2674D02*
D03*
X6490Y5510D02*
D03*
X8440Y3140D02*
D03*
X8690Y3960D02*
D03*
X7280Y2170D02*
D03*
X7740Y1700D02*
D03*
X5168Y5139D02*
D03*
X5000Y5140D02*
D03*
X5430Y5780D02*
D03*
X4089Y5259D02*
D03*
X4830Y5150D02*
D03*
X4266Y5220D02*
D03*
X7890Y4292D02*
D03*
D45*
X12250Y1490D02*
D03*
Y4800D02*
D03*
D46*
X9750Y0D02*
D03*
X8750D02*
D03*
X1750Y6300D02*
D03*
X2750D02*
D03*
X3750D02*
D03*
X6750D02*
D03*
X4750D02*
D03*
X5750D02*
D03*
D47*
X14736Y1244D02*
D03*
Y2290D02*
D03*
X13050Y1770D02*
D03*
M02*
