%FSLAX24Y24*%
%MOIN*%
G70*
G01*
G75*
G04 Layer_Physical_Order=3*
G04 Layer_Color=16440176*
%ADD10R,0.0197X0.0236*%
%ADD11R,0.0217X0.0236*%
%ADD12R,0.0394X0.0335*%
%ADD13R,0.0236X0.0335*%
%ADD14R,0.0236X0.0217*%
%ADD15R,0.0315X0.0295*%
%ADD16R,0.0335X0.0256*%
%ADD17R,0.0236X0.0197*%
%ADD18R,0.0709X0.0394*%
%ADD19R,0.0177X0.0177*%
G04:AMPARAMS|DCode=20|XSize=47.2mil|YSize=43.3mil|CornerRadius=0mil|HoleSize=0mil|Usage=FLASHONLY|Rotation=45.000|XOffset=0mil|YOffset=0mil|HoleType=Round|Shape=Rectangle|*
%AMROTATEDRECTD20*
4,1,4,-0.0014,-0.0320,-0.0320,-0.0014,0.0014,0.0320,0.0320,0.0014,-0.0014,-0.0320,0.0*
%
%ADD20ROTATEDRECTD20*%

%ADD21R,0.0256X0.0197*%
%ADD22R,0.0197X0.0256*%
%ADD23O,0.0256X0.0079*%
%ADD24O,0.0079X0.0256*%
%ADD25R,0.1850X0.1850*%
%ADD26R,0.0571X0.0217*%
%ADD27R,0.0571X0.0217*%
%ADD28R,0.2560X0.0400*%
%ADD29R,0.2960X0.0600*%
G04:AMPARAMS|DCode=30|XSize=19.7mil|YSize=23.6mil|CornerRadius=0mil|HoleSize=0mil|Usage=FLASHONLY|Rotation=225.000|XOffset=0mil|YOffset=0mil|HoleType=Round|Shape=Rectangle|*
%AMROTATEDRECTD30*
4,1,4,-0.0014,0.0153,0.0153,-0.0014,0.0014,-0.0153,-0.0153,0.0014,-0.0014,0.0153,0.0*
%
%ADD30ROTATEDRECTD30*%

%ADD31C,0.0394*%
%ADD32R,0.0157X0.0197*%
%ADD33C,0.0150*%
%ADD34C,0.0060*%
%ADD35C,0.0050*%
%ADD36C,0.0100*%
%ADD37C,0.0080*%
%ADD38C,0.0070*%
%ADD39C,0.0090*%
%ADD40C,0.0200*%
%ADD41R,0.0680X0.0410*%
%ADD42C,0.0390*%
%ADD43C,0.0197*%
%ADD44C,0.0118*%
%ADD45C,0.0591*%
%ADD46C,0.0709*%
%ADD47C,0.0240*%
G36*
X10350Y5978D02*
X10370Y5936D01*
X10367Y5906D01*
X10361Y5902D01*
X10344Y5886D01*
X10328Y5869D01*
X10315Y5849D01*
X10305Y5828D01*
X10297Y5806D01*
X10293Y5783D01*
X10291Y5760D01*
X10293Y5737D01*
X10297Y5714D01*
X10305Y5692D01*
X10315Y5671D01*
X10328Y5651D01*
X10344Y5634D01*
X10361Y5618D01*
X10381Y5605D01*
X10402Y5595D01*
X10424Y5587D01*
X10447Y5583D01*
X10470Y5581D01*
X10493Y5583D01*
X10516Y5587D01*
X10538Y5595D01*
X10559Y5605D01*
X10579Y5618D01*
X10596Y5634D01*
X10612Y5651D01*
X10616Y5657D01*
X10646Y5660D01*
X10688Y5640D01*
X10895Y5432D01*
X10908Y5421D01*
X10923Y5412D01*
X10939Y5405D01*
X10956Y5401D01*
X10973Y5400D01*
X10991Y5401D01*
X10995Y5402D01*
X11371D01*
X11435Y5359D01*
X11425Y5338D01*
X11417Y5316D01*
X11413Y5293D01*
X11411Y5270D01*
X11413Y5247D01*
X11417Y5224D01*
X11425Y5202D01*
X11435Y5181D01*
X11448Y5161D01*
X11464Y5144D01*
X11481Y5128D01*
X11501Y5115D01*
X11522Y5105D01*
X11544Y5097D01*
X11567Y5093D01*
X11590Y5091D01*
X11613Y5093D01*
X11636Y5097D01*
X11658Y5105D01*
X11679Y5115D01*
X11699Y5128D01*
X11716Y5144D01*
X11732Y5161D01*
X11745Y5181D01*
X11755Y5202D01*
X11763Y5224D01*
X11767Y5247D01*
X11769Y5270D01*
X11767Y5293D01*
X11763Y5316D01*
X11755Y5338D01*
X11745Y5359D01*
X11809Y5402D01*
X16516D01*
Y890D01*
X10944D01*
X10934Y890D01*
X10917Y889D01*
X10900Y885D01*
X10884Y878D01*
X10869Y869D01*
X10856Y858D01*
X10319Y321D01*
X10276Y300D01*
X10260Y301D01*
X10229Y340D01*
X10234Y375D01*
X10239Y378D01*
X10256Y394D01*
X10272Y411D01*
X10285Y431D01*
X10295Y452D01*
X10303Y474D01*
X10307Y497D01*
X10309Y520D01*
X10307Y543D01*
X10303Y566D01*
X10295Y588D01*
X10285Y609D01*
X10272Y629D01*
X10256Y646D01*
X10239Y662D01*
X10219Y675D01*
X10198Y685D01*
X10183Y690D01*
X10177Y740D01*
X10189Y748D01*
X10206Y764D01*
X10222Y781D01*
X10235Y801D01*
X10245Y822D01*
X10253Y844D01*
X10257Y867D01*
X10259Y890D01*
X10257Y913D01*
X10253Y936D01*
X10245Y958D01*
X10235Y979D01*
X10222Y999D01*
X10206Y1016D01*
X10189Y1032D01*
X10169Y1045D01*
X10148Y1055D01*
X10126Y1063D01*
X10103Y1067D01*
X10080Y1069D01*
X10057Y1067D01*
X10034Y1063D01*
X10012Y1055D01*
X9991Y1045D01*
X9971Y1032D01*
X9954Y1016D01*
X9938Y999D01*
X9925Y979D01*
X9915Y958D01*
X9907Y936D01*
X9903Y913D01*
X9901Y890D01*
X9903Y867D01*
X9907Y844D01*
X9915Y822D01*
X9925Y801D01*
X9938Y781D01*
X9954Y764D01*
X9971Y748D01*
X9991Y735D01*
X10012Y725D01*
X10027Y720D01*
X10033Y670D01*
X10021Y662D01*
X10004Y646D01*
X9988Y629D01*
X9976Y610D01*
X9420D01*
X9404Y609D01*
X9389Y604D01*
X9375Y597D01*
X9363Y587D01*
X9353Y575D01*
X9346Y561D01*
X9341Y546D01*
X9340Y530D01*
Y341D01*
X9322Y335D01*
X9301Y325D01*
X9281Y312D01*
X9264Y296D01*
X9248Y279D01*
X9235Y259D01*
X9225Y238D01*
X9217Y216D01*
X9213Y193D01*
X9211Y170D01*
X9212Y151D01*
X9208Y146D01*
X9050Y114D01*
X5841Y114D01*
X5771Y149D01*
X5766Y155D01*
X5773Y174D01*
X5777Y197D01*
X5779Y220D01*
X5777Y243D01*
X5773Y266D01*
X5765Y288D01*
X5755Y309D01*
X5742Y329D01*
X5726Y346D01*
X5709Y362D01*
X5689Y375D01*
X5668Y385D01*
X5646Y393D01*
X5623Y397D01*
X5600Y399D01*
X5577Y397D01*
X5554Y393D01*
X5532Y385D01*
X5511Y375D01*
X5491Y362D01*
X5474Y346D01*
X5458Y329D01*
X5445Y309D01*
X5435Y288D01*
X5427Y266D01*
X5423Y243D01*
X5421Y220D01*
X5423Y197D01*
X5427Y174D01*
X5434Y155D01*
X5429Y149D01*
X5359Y114D01*
X4998D01*
X4967Y153D01*
X4967Y157D01*
X4969Y180D01*
X4967Y203D01*
X4963Y226D01*
X4955Y248D01*
X4945Y269D01*
X4932Y289D01*
X4916Y306D01*
X4899Y322D01*
X4879Y335D01*
X4858Y345D01*
X4836Y353D01*
X4813Y357D01*
X4790Y359D01*
X4767Y357D01*
X4744Y353D01*
X4722Y345D01*
X4701Y335D01*
X4681Y322D01*
X4664Y306D01*
X4648Y289D01*
X4635Y269D01*
X4625Y248D01*
X4617Y226D01*
X4613Y203D01*
X4611Y180D01*
X4613Y157D01*
X4613Y153D01*
X4582Y114D01*
X2751D01*
X2731Y160D01*
X2735Y164D01*
X2760Y197D01*
X2782Y232D01*
X2802Y269D01*
X2817Y307D01*
X2830Y347D01*
X2839Y387D01*
X2844Y428D01*
X2846Y470D01*
X2844Y512D01*
X2839Y553D01*
X2830Y593D01*
X2817Y633D01*
X2802Y671D01*
X2782Y708D01*
X2760Y743D01*
X2735Y776D01*
X2707Y807D01*
X2676Y835D01*
X2643Y860D01*
X2608Y882D01*
X2571Y902D01*
X2533Y917D01*
X2493Y930D01*
X2453Y939D01*
X2412Y944D01*
X2370Y946D01*
X2329Y944D01*
X2287Y939D01*
X2247Y930D01*
X2207Y917D01*
X2169Y902D01*
X2132Y882D01*
X2097Y860D01*
X2075Y843D01*
X2041Y860D01*
X2030Y872D01*
Y5691D01*
X2067Y5875D01*
X2090Y5874D01*
X2113Y5875D01*
X2136Y5880D01*
X2158Y5887D01*
X2179Y5897D01*
X2199Y5910D01*
X2216Y5926D01*
X2232Y5943D01*
X2232Y5944D01*
X2282Y5947D01*
X2294Y5934D01*
X2311Y5918D01*
X2331Y5905D01*
X2352Y5895D01*
X2374Y5887D01*
X2397Y5883D01*
X2420Y5881D01*
X2443Y5883D01*
X2466Y5887D01*
X2488Y5895D01*
X2509Y5905D01*
X2528Y5918D01*
X2571Y5893D01*
X2571Y5890D01*
X2573Y5867D01*
X2577Y5844D01*
X2585Y5822D01*
X2595Y5801D01*
X2608Y5781D01*
X2624Y5764D01*
X2641Y5748D01*
X2661Y5735D01*
X2682Y5725D01*
X2704Y5717D01*
X2727Y5713D01*
X2750Y5711D01*
X2773Y5713D01*
X2796Y5717D01*
X2818Y5725D01*
X2839Y5735D01*
X2859Y5748D01*
X2876Y5764D01*
X2892Y5781D01*
X2905Y5801D01*
X2915Y5822D01*
X2923Y5844D01*
X2927Y5867D01*
X2929Y5890D01*
X2928Y5904D01*
X2934Y5906D01*
X2967Y5924D01*
X2998Y5943D01*
X3011Y5935D01*
X3032Y5925D01*
X3054Y5917D01*
X3077Y5913D01*
X3100Y5911D01*
X3123Y5913D01*
X3146Y5917D01*
X3168Y5925D01*
X3189Y5935D01*
X3209Y5948D01*
X3226Y5964D01*
X3230Y5968D01*
X3279Y5958D01*
X3285Y5942D01*
X3295Y5921D01*
X3308Y5901D01*
X3324Y5884D01*
X3341Y5868D01*
X3361Y5855D01*
X3382Y5845D01*
X3404Y5837D01*
X3427Y5833D01*
X3450Y5831D01*
X3473Y5833D01*
X3496Y5837D01*
X3518Y5845D01*
X3539Y5855D01*
X3559Y5868D01*
X3576Y5884D01*
X3588Y5897D01*
X3601Y5891D01*
X3637Y5880D01*
X3675Y5872D01*
X3712Y5867D01*
X3750Y5865D01*
X3788Y5867D01*
X3825Y5872D01*
X3863Y5880D01*
X3899Y5891D01*
X3911Y5897D01*
X3914Y5894D01*
X3931Y5878D01*
X3951Y5865D01*
X3972Y5855D01*
X3994Y5847D01*
X4017Y5843D01*
X4040Y5841D01*
X4063Y5843D01*
X4086Y5847D01*
X4108Y5855D01*
X4129Y5865D01*
X4149Y5878D01*
X4166Y5894D01*
X4182Y5911D01*
X4195Y5931D01*
X4205Y5952D01*
X4208Y5961D01*
X4258Y5967D01*
X4258Y5967D01*
X4274Y5949D01*
X4291Y5934D01*
X4311Y5921D01*
X4332Y5910D01*
X4354Y5903D01*
X4377Y5898D01*
X4400Y5897D01*
X4423Y5898D01*
X4446Y5903D01*
X4468Y5910D01*
X4489Y5921D01*
X4509Y5934D01*
X4512Y5937D01*
X4533Y5924D01*
X4566Y5906D01*
X4601Y5891D01*
X4637Y5880D01*
X4675Y5872D01*
X4712Y5867D01*
X4750Y5865D01*
X4788Y5867D01*
X4825Y5872D01*
X4863Y5880D01*
X4899Y5891D01*
X4911Y5897D01*
X4914Y5894D01*
X4931Y5878D01*
X4951Y5865D01*
X4972Y5855D01*
X4994Y5847D01*
X5017Y5843D01*
X5040Y5841D01*
X5063Y5843D01*
X5086Y5847D01*
X5108Y5855D01*
X5129Y5865D01*
X5149Y5878D01*
X5166Y5894D01*
X5182Y5911D01*
X5195Y5931D01*
X5205Y5952D01*
X5205Y5952D01*
X5254Y5965D01*
X5261Y5958D01*
X5281Y5945D01*
X5302Y5935D01*
X5324Y5927D01*
X5347Y5923D01*
X5370Y5921D01*
X5393Y5923D01*
X5416Y5927D01*
X5438Y5935D01*
X5459Y5945D01*
X5479Y5958D01*
X5480Y5959D01*
X5501Y5944D01*
X5533Y5924D01*
X5566Y5906D01*
X5601Y5891D01*
X5637Y5880D01*
X5675Y5872D01*
X5712Y5867D01*
X5743Y5866D01*
X5745Y5862D01*
X5755Y5841D01*
X5768Y5821D01*
X5784Y5804D01*
X5801Y5788D01*
X5821Y5775D01*
X5842Y5765D01*
X5864Y5757D01*
X5887Y5753D01*
X5910Y5751D01*
X5933Y5753D01*
X5956Y5757D01*
X5978Y5765D01*
X5999Y5775D01*
X6019Y5788D01*
X6036Y5804D01*
X6052Y5821D01*
X6065Y5841D01*
X6075Y5862D01*
X6083Y5884D01*
X6087Y5907D01*
X6089Y5930D01*
X6087Y5953D01*
X6083Y5976D01*
X6075Y5998D01*
X6071Y6007D01*
X6083Y6021D01*
X6106Y6051D01*
X6126Y6083D01*
X6144Y6116D01*
X6159Y6151D01*
X6169Y6186D01*
X6331D01*
X6341Y6151D01*
X6356Y6116D01*
X6374Y6083D01*
X6394Y6051D01*
X6417Y6021D01*
X6443Y5993D01*
X6471Y5967D01*
X6497Y5946D01*
X6497Y5946D01*
X6493Y5923D01*
X6491Y5900D01*
X6493Y5877D01*
X6497Y5854D01*
X6505Y5832D01*
X6515Y5811D01*
X6528Y5791D01*
X6544Y5774D01*
X6561Y5758D01*
X6581Y5745D01*
X6602Y5735D01*
X6624Y5727D01*
X6647Y5723D01*
X6670Y5721D01*
X6693Y5723D01*
X6716Y5727D01*
X6738Y5735D01*
X6759Y5745D01*
X6779Y5758D01*
X6796Y5774D01*
X6812Y5791D01*
X6825Y5811D01*
X6835Y5832D01*
X6843Y5854D01*
X6847Y5877D01*
X6847Y5877D01*
X6863Y5880D01*
X6899Y5891D01*
X6934Y5906D01*
X6967Y5924D01*
X6999Y5944D01*
X7029Y5967D01*
X7044Y5980D01*
X7051Y5975D01*
X7072Y5965D01*
X7094Y5957D01*
X7117Y5953D01*
X7140Y5951D01*
X7163Y5953D01*
X7186Y5957D01*
X7208Y5965D01*
X7229Y5975D01*
X7249Y5988D01*
X7266Y6004D01*
X7282Y6021D01*
X7295Y6041D01*
X7305Y6062D01*
X7313Y6084D01*
X7317Y6107D01*
X7319Y6130D01*
X7318Y6149D01*
X7322Y6154D01*
X7480Y6186D01*
X10142D01*
X10350Y5978D01*
D02*
G37*
%LPC*%
G36*
X3631Y2259D02*
X3607Y2257D01*
X3584Y2253D01*
X3562Y2245D01*
X3541Y2235D01*
X3522Y2222D01*
X3504Y2206D01*
X3489Y2189D01*
X3476Y2169D01*
X3465Y2148D01*
X3458Y2126D01*
X3453Y2103D01*
X3452Y2080D01*
X3453Y2057D01*
X3458Y2034D01*
X3465Y2012D01*
X3476Y1991D01*
X3489Y1971D01*
X3504Y1954D01*
X3522Y1938D01*
X3541Y1925D01*
X3562Y1915D01*
X3584Y1907D01*
X3607Y1903D01*
X3631Y1901D01*
X3654Y1903D01*
X3677Y1907D01*
X3699Y1915D01*
X3720Y1925D01*
X3739Y1938D01*
X3757Y1954D01*
X3772Y1971D01*
X3785Y1991D01*
X3796Y2012D01*
X3803Y2034D01*
X3808Y2057D01*
X3809Y2080D01*
X3808Y2103D01*
X3803Y2126D01*
X3796Y2148D01*
X3785Y2169D01*
X3772Y2189D01*
X3757Y2206D01*
X3739Y2222D01*
X3720Y2235D01*
X3699Y2245D01*
X3677Y2253D01*
X3654Y2257D01*
X3631Y2259D01*
D02*
G37*
G36*
X11440Y2199D02*
X11417Y2197D01*
X11394Y2193D01*
X11372Y2185D01*
X11351Y2175D01*
X11331Y2162D01*
X11314Y2146D01*
X11298Y2129D01*
X11285Y2109D01*
X11275Y2088D01*
X11267Y2066D01*
X11263Y2043D01*
X11261Y2020D01*
X11263Y1997D01*
X11267Y1974D01*
X11271Y1962D01*
X11246Y1919D01*
X11239Y1918D01*
X11209Y1910D01*
X11204Y1908D01*
X11159Y1928D01*
X11155Y1938D01*
X11145Y1959D01*
X11132Y1979D01*
X11116Y1996D01*
X11099Y2012D01*
X11079Y2025D01*
X11058Y2035D01*
X11036Y2043D01*
X11013Y2047D01*
X10990Y2049D01*
X10967Y2047D01*
X10944Y2043D01*
X10922Y2035D01*
X10901Y2025D01*
X10881Y2012D01*
X10864Y1996D01*
X10848Y1979D01*
X10835Y1959D01*
X10825Y1938D01*
X10817Y1916D01*
X10813Y1893D01*
X10811Y1870D01*
X10813Y1847D01*
X10817Y1824D01*
X10825Y1802D01*
X10835Y1781D01*
X10848Y1761D01*
X10864Y1744D01*
X10881Y1728D01*
X10901Y1715D01*
X10922Y1705D01*
X10944Y1697D01*
X10967Y1693D01*
X10990Y1691D01*
X11026Y1681D01*
X11026Y1681D01*
Y1681D01*
X11025Y1650D01*
X11026Y1619D01*
X11031Y1588D01*
X11040Y1559D01*
X11052Y1530D01*
X11067Y1503D01*
X11085Y1478D01*
X11105Y1455D01*
X11128Y1434D01*
X11153Y1416D01*
X11180Y1402D01*
X11209Y1390D01*
X11239Y1381D01*
X11269Y1376D01*
X11300Y1374D01*
X11331Y1376D01*
X11361Y1381D01*
X11391Y1390D01*
X11420Y1402D01*
X11447Y1416D01*
X11472Y1434D01*
X11495Y1455D01*
X11515Y1478D01*
X11533Y1503D01*
X11548Y1530D01*
X11560Y1559D01*
X11569Y1588D01*
X11574Y1619D01*
X11575Y1650D01*
X11574Y1681D01*
X11569Y1711D01*
X11560Y1741D01*
X11548Y1769D01*
X11533Y1796D01*
X11515Y1821D01*
Y1821D01*
X11515D01*
X11529Y1865D01*
X11549Y1878D01*
X11566Y1894D01*
X11582Y1911D01*
X11595Y1931D01*
X11605Y1952D01*
X11613Y1974D01*
X11617Y1997D01*
X11619Y2020D01*
X11617Y2043D01*
X11613Y2066D01*
X11605Y2088D01*
X11595Y2109D01*
X11582Y2129D01*
X11566Y2146D01*
X11549Y2162D01*
X11529Y2175D01*
X11508Y2185D01*
X11486Y2193D01*
X11463Y2197D01*
X11440Y2199D01*
D02*
G37*
G36*
X10130Y2209D02*
X10107Y2207D01*
X10084Y2203D01*
X10062Y2195D01*
X10041Y2185D01*
X10021Y2172D01*
X10004Y2156D01*
X9988Y2139D01*
X9975Y2119D01*
X9965Y2098D01*
X9957Y2076D01*
X9953Y2053D01*
X9951Y2030D01*
X9953Y2007D01*
X9957Y1984D01*
X9965Y1962D01*
X9975Y1941D01*
X9988Y1921D01*
X10004Y1904D01*
X10021Y1888D01*
X10041Y1875D01*
X10062Y1865D01*
X10084Y1857D01*
X10107Y1853D01*
X10130Y1851D01*
X10153Y1853D01*
X10176Y1857D01*
X10198Y1865D01*
X10219Y1875D01*
X10239Y1888D01*
X10256Y1904D01*
X10272Y1921D01*
X10285Y1941D01*
X10295Y1962D01*
X10303Y1984D01*
X10307Y2007D01*
X10309Y2030D01*
X10307Y2053D01*
X10303Y2076D01*
X10295Y2098D01*
X10285Y2119D01*
X10272Y2139D01*
X10256Y2156D01*
X10239Y2172D01*
X10219Y2185D01*
X10198Y2195D01*
X10176Y2203D01*
X10153Y2207D01*
X10130Y2209D01*
D02*
G37*
G36*
X4798Y2459D02*
X4774Y2457D01*
X4751Y2453D01*
X4729Y2445D01*
X4708Y2435D01*
X4689Y2422D01*
X4671Y2406D01*
X4656Y2389D01*
X4643Y2369D01*
X4632Y2348D01*
X4625Y2326D01*
X4620Y2303D01*
X4619Y2280D01*
X4620Y2257D01*
X4625Y2234D01*
X4632Y2212D01*
X4643Y2191D01*
X4656Y2171D01*
X4671Y2154D01*
X4689Y2138D01*
X4708Y2125D01*
X4724Y2117D01*
X4717Y2096D01*
X4713Y2073D01*
X4711Y2050D01*
X4713Y2027D01*
X4717Y2004D01*
X4725Y1982D01*
X4735Y1961D01*
X4748Y1941D01*
X4764Y1924D01*
X4781Y1908D01*
X4801Y1895D01*
X4822Y1885D01*
X4844Y1877D01*
X4867Y1873D01*
X4890Y1871D01*
X4913Y1873D01*
X4936Y1877D01*
X4958Y1885D01*
X4979Y1895D01*
X4999Y1908D01*
X5016Y1924D01*
X5032Y1941D01*
X5045Y1961D01*
X5055Y1982D01*
X5063Y2004D01*
X5067Y2027D01*
X5069Y2050D01*
X5067Y2073D01*
X5063Y2096D01*
X5055Y2118D01*
X5045Y2139D01*
X5032Y2159D01*
X5016Y2176D01*
X4999Y2192D01*
X4979Y2205D01*
X4963Y2213D01*
X4970Y2234D01*
X4975Y2257D01*
X4976Y2280D01*
X4975Y2303D01*
X4970Y2326D01*
X4963Y2348D01*
X4952Y2369D01*
X4939Y2389D01*
X4924Y2406D01*
X4906Y2422D01*
X4887Y2435D01*
X4866Y2445D01*
X4844Y2453D01*
X4821Y2457D01*
X4798Y2459D01*
D02*
G37*
G36*
X9430Y2349D02*
X9407Y2347D01*
X9384Y2343D01*
X9362Y2335D01*
X9341Y2325D01*
X9321Y2312D01*
X9304Y2296D01*
X9288Y2279D01*
X9275Y2259D01*
X9265Y2238D01*
X9257Y2216D01*
X9253Y2193D01*
X9251Y2170D01*
X9253Y2147D01*
X9257Y2124D01*
X9265Y2102D01*
X9275Y2081D01*
X9288Y2061D01*
X9304Y2044D01*
X9321Y2028D01*
X9341Y2015D01*
X9362Y2005D01*
X9384Y1997D01*
X9407Y1993D01*
X9430Y1991D01*
X9453Y1993D01*
X9476Y1997D01*
X9498Y2005D01*
X9519Y2015D01*
X9539Y2028D01*
X9556Y2044D01*
X9572Y2061D01*
X9585Y2081D01*
X9595Y2102D01*
X9603Y2124D01*
X9607Y2147D01*
X9609Y2170D01*
X9607Y2193D01*
X9603Y2216D01*
X9595Y2238D01*
X9585Y2259D01*
X9572Y2279D01*
X9556Y2296D01*
X9539Y2312D01*
X9519Y2325D01*
X9498Y2335D01*
X9476Y2343D01*
X9453Y2347D01*
X9430Y2349D01*
D02*
G37*
G36*
X7440Y2699D02*
X7417Y2697D01*
X7394Y2693D01*
X7372Y2685D01*
X7351Y2675D01*
X7331Y2662D01*
X7314Y2646D01*
X7298Y2629D01*
X7285Y2609D01*
X7275Y2588D01*
X7267Y2566D01*
X7263Y2543D01*
X7261Y2520D01*
X7263Y2497D01*
X7267Y2474D01*
X7275Y2452D01*
X7285Y2431D01*
X7298Y2411D01*
X7314Y2394D01*
X7331Y2378D01*
X7351Y2365D01*
X7372Y2355D01*
X7394Y2347D01*
X7417Y2343D01*
X7440Y2341D01*
X7463Y2343D01*
X7486Y2347D01*
X7508Y2355D01*
X7529Y2365D01*
X7549Y2378D01*
X7566Y2394D01*
X7582Y2411D01*
X7595Y2431D01*
X7605Y2452D01*
X7613Y2474D01*
X7617Y2497D01*
X7619Y2520D01*
X7617Y2543D01*
X7613Y2566D01*
X7605Y2588D01*
X7595Y2609D01*
X7582Y2629D01*
X7566Y2646D01*
X7549Y2662D01*
X7529Y2675D01*
X7508Y2685D01*
X7486Y2693D01*
X7463Y2697D01*
X7440Y2699D01*
D02*
G37*
G36*
X9040Y3029D02*
X9017Y3027D01*
X8994Y3023D01*
X8972Y3015D01*
X8951Y3005D01*
X8931Y2992D01*
X8914Y2976D01*
X8898Y2959D01*
X8885Y2939D01*
X8875Y2918D01*
X8867Y2896D01*
X8863Y2873D01*
X8861Y2850D01*
X8863Y2827D01*
X8867Y2804D01*
X8875Y2782D01*
X8885Y2761D01*
X8898Y2741D01*
X8914Y2724D01*
X8929Y2710D01*
X8928Y2709D01*
X8915Y2689D01*
X8905Y2668D01*
X8897Y2646D01*
X8893Y2623D01*
X8891Y2600D01*
X8893Y2577D01*
X8897Y2554D01*
X8905Y2532D01*
X8915Y2511D01*
X8928Y2491D01*
X8944Y2474D01*
X8961Y2458D01*
X8981Y2445D01*
X9002Y2435D01*
X9024Y2427D01*
X9047Y2423D01*
X9070Y2421D01*
X9093Y2423D01*
X9116Y2427D01*
X9138Y2435D01*
X9159Y2445D01*
X9179Y2458D01*
X9196Y2474D01*
X9212Y2491D01*
X9225Y2511D01*
X9235Y2532D01*
X9243Y2554D01*
X9247Y2577D01*
X9249Y2600D01*
X9247Y2623D01*
X9243Y2646D01*
X9235Y2668D01*
X9225Y2689D01*
X9212Y2709D01*
X9196Y2726D01*
X9181Y2740D01*
X9182Y2741D01*
X9195Y2761D01*
X9205Y2782D01*
X9213Y2804D01*
X9217Y2827D01*
X9219Y2850D01*
X9217Y2873D01*
X9213Y2896D01*
X9205Y2918D01*
X9195Y2939D01*
X9182Y2959D01*
X9166Y2976D01*
X9149Y2992D01*
X9129Y3005D01*
X9108Y3015D01*
X9086Y3023D01*
X9063Y3027D01*
X9040Y3029D01*
D02*
G37*
G36*
X8385Y2384D02*
X8362Y2382D01*
X8339Y2378D01*
X8316Y2370D01*
X8295Y2360D01*
X8276Y2347D01*
X8258Y2332D01*
X8243Y2314D01*
X8230Y2295D01*
X8220Y2274D01*
X8212Y2251D01*
X8208Y2228D01*
X8206Y2205D01*
X8208Y2182D01*
X8212Y2159D01*
X8220Y2137D01*
X8230Y2116D01*
X8243Y2096D01*
X8258Y2079D01*
X8276Y2063D01*
X8295Y2050D01*
X8316Y2040D01*
X8339Y2032D01*
X8362Y2028D01*
X8385Y2026D01*
X8408Y2028D01*
X8431Y2032D01*
X8453Y2040D01*
X8474Y2050D01*
X8494Y2063D01*
X8511Y2079D01*
X8527Y2096D01*
X8540Y2116D01*
X8550Y2137D01*
X8558Y2159D01*
X8562Y2182D01*
X8564Y2205D01*
X8562Y2228D01*
X8558Y2251D01*
X8550Y2274D01*
X8540Y2295D01*
X8527Y2314D01*
X8511Y2332D01*
X8494Y2347D01*
X8474Y2360D01*
X8453Y2370D01*
X8431Y2378D01*
X8408Y2382D01*
X8385Y2384D01*
D02*
G37*
G36*
X11410Y2669D02*
X11387Y2667D01*
X11364Y2663D01*
X11342Y2655D01*
X11321Y2645D01*
X11301Y2632D01*
X11284Y2616D01*
X11268Y2599D01*
X11255Y2579D01*
X11245Y2558D01*
X11237Y2536D01*
X11233Y2513D01*
X11231Y2490D01*
X11233Y2467D01*
X11237Y2444D01*
X11245Y2422D01*
X11255Y2401D01*
X11268Y2381D01*
X11284Y2364D01*
X11301Y2348D01*
X11321Y2335D01*
X11342Y2325D01*
X11364Y2317D01*
X11387Y2313D01*
X11410Y2311D01*
X11433Y2313D01*
X11456Y2317D01*
X11478Y2325D01*
X11499Y2335D01*
X11519Y2348D01*
X11536Y2364D01*
X11552Y2381D01*
X11565Y2401D01*
X11575Y2422D01*
X11583Y2444D01*
X11587Y2467D01*
X11589Y2490D01*
X11587Y2513D01*
X11583Y2536D01*
X11575Y2558D01*
X11565Y2579D01*
X11552Y2599D01*
X11536Y2616D01*
X11519Y2632D01*
X11499Y2645D01*
X11478Y2655D01*
X11456Y2663D01*
X11433Y2667D01*
X11410Y2669D01*
D02*
G37*
G36*
X5010Y1079D02*
X4987Y1077D01*
X4964Y1073D01*
X4942Y1065D01*
X4921Y1055D01*
X4901Y1042D01*
X4884Y1026D01*
X4868Y1009D01*
X4855Y989D01*
X4845Y968D01*
X4837Y946D01*
X4833Y923D01*
X4831Y900D01*
X4833Y877D01*
X4837Y854D01*
X4845Y832D01*
X4855Y811D01*
X4868Y791D01*
X4884Y774D01*
X4901Y758D01*
X4921Y745D01*
X4942Y735D01*
X4964Y727D01*
X4987Y723D01*
X5010Y721D01*
X5033Y723D01*
X5056Y727D01*
X5078Y735D01*
X5099Y745D01*
X5119Y758D01*
X5136Y774D01*
X5152Y791D01*
X5165Y811D01*
X5175Y832D01*
X5183Y854D01*
X5187Y877D01*
X5189Y900D01*
X5187Y923D01*
X5183Y946D01*
X5175Y968D01*
X5165Y989D01*
X5152Y1009D01*
X5136Y1026D01*
X5119Y1042D01*
X5099Y1055D01*
X5078Y1065D01*
X5056Y1073D01*
X5033Y1077D01*
X5010Y1079D01*
D02*
G37*
G36*
X8690Y1089D02*
X8667Y1087D01*
X8644Y1083D01*
X8622Y1075D01*
X8601Y1065D01*
X8581Y1052D01*
X8564Y1036D01*
X8548Y1019D01*
X8535Y999D01*
X8525Y978D01*
X8517Y956D01*
X8513Y933D01*
X8511Y910D01*
X8513Y887D01*
X8517Y864D01*
X8525Y842D01*
X8535Y821D01*
X8548Y801D01*
X8564Y784D01*
X8581Y768D01*
X8601Y755D01*
X8622Y745D01*
X8644Y737D01*
X8667Y733D01*
X8690Y731D01*
X8713Y733D01*
X8736Y737D01*
X8758Y745D01*
X8779Y755D01*
X8799Y768D01*
X8816Y784D01*
X8832Y801D01*
X8845Y821D01*
X8855Y842D01*
X8863Y864D01*
X8867Y887D01*
X8869Y910D01*
X8867Y933D01*
X8863Y956D01*
X8855Y978D01*
X8845Y999D01*
X8832Y1019D01*
X8816Y1036D01*
X8799Y1052D01*
X8779Y1065D01*
X8758Y1075D01*
X8736Y1083D01*
X8713Y1087D01*
X8690Y1089D01*
D02*
G37*
G36*
X8350Y619D02*
X8327Y617D01*
X8304Y613D01*
X8282Y605D01*
X8261Y595D01*
X8241Y582D01*
X8224Y566D01*
X8208Y549D01*
X8195Y529D01*
X8185Y508D01*
X8177Y486D01*
X8173Y463D01*
X8171Y440D01*
X8173Y417D01*
X8177Y394D01*
X8185Y372D01*
X8195Y351D01*
X8208Y331D01*
X8224Y314D01*
X8241Y298D01*
X8261Y285D01*
X8282Y275D01*
X8304Y267D01*
X8327Y263D01*
X8350Y261D01*
X8373Y263D01*
X8396Y267D01*
X8418Y275D01*
X8439Y285D01*
X8459Y298D01*
X8476Y314D01*
X8492Y331D01*
X8505Y351D01*
X8515Y372D01*
X8523Y394D01*
X8527Y417D01*
X8529Y440D01*
X8527Y463D01*
X8523Y486D01*
X8515Y508D01*
X8505Y529D01*
X8492Y549D01*
X8476Y566D01*
X8459Y582D01*
X8439Y595D01*
X8418Y605D01*
X8396Y613D01*
X8373Y617D01*
X8350Y619D01*
D02*
G37*
G36*
X5670Y809D02*
X5647Y807D01*
X5624Y803D01*
X5602Y795D01*
X5581Y785D01*
X5561Y772D01*
X5544Y756D01*
X5528Y739D01*
X5515Y719D01*
X5505Y698D01*
X5497Y676D01*
X5493Y653D01*
X5491Y630D01*
X5493Y607D01*
X5497Y584D01*
X5505Y562D01*
X5515Y541D01*
X5528Y521D01*
X5544Y504D01*
X5561Y488D01*
X5581Y475D01*
X5602Y465D01*
X5624Y457D01*
X5647Y453D01*
X5670Y451D01*
X5693Y453D01*
X5716Y457D01*
X5738Y465D01*
X5759Y475D01*
X5779Y488D01*
X5796Y504D01*
X5812Y521D01*
X5825Y541D01*
X5835Y562D01*
X5843Y584D01*
X5847Y607D01*
X5849Y630D01*
X5847Y653D01*
X5843Y676D01*
X5835Y698D01*
X5825Y719D01*
X5812Y739D01*
X5796Y756D01*
X5779Y772D01*
X5759Y785D01*
X5738Y795D01*
X5716Y803D01*
X5693Y807D01*
X5670Y809D01*
D02*
G37*
G36*
X5080Y1569D02*
X5057Y1567D01*
X5034Y1563D01*
X5012Y1555D01*
X4991Y1545D01*
X4971Y1532D01*
X4954Y1516D01*
X4938Y1499D01*
X4925Y1479D01*
X4915Y1458D01*
X4907Y1436D01*
X4903Y1413D01*
X4901Y1390D01*
X4903Y1367D01*
X4907Y1344D01*
X4915Y1322D01*
X4925Y1301D01*
X4938Y1281D01*
X4954Y1264D01*
X4971Y1248D01*
X4991Y1235D01*
X5012Y1225D01*
X5034Y1217D01*
X5057Y1213D01*
X5080Y1211D01*
X5103Y1213D01*
X5126Y1217D01*
X5148Y1225D01*
X5169Y1235D01*
X5189Y1248D01*
X5206Y1264D01*
X5222Y1281D01*
X5235Y1301D01*
X5245Y1322D01*
X5253Y1344D01*
X5257Y1367D01*
X5259Y1390D01*
X5257Y1413D01*
X5253Y1436D01*
X5245Y1458D01*
X5235Y1479D01*
X5222Y1499D01*
X5206Y1516D01*
X5189Y1532D01*
X5169Y1545D01*
X5148Y1555D01*
X5126Y1563D01*
X5103Y1567D01*
X5080Y1569D01*
D02*
G37*
G36*
X7750Y1589D02*
X7727Y1587D01*
X7704Y1583D01*
X7682Y1575D01*
X7661Y1565D01*
X7641Y1552D01*
X7624Y1536D01*
X7608Y1519D01*
X7589Y1532D01*
X7589Y1532D01*
Y1532D01*
X7569Y1545D01*
X7548Y1555D01*
X7526Y1563D01*
X7503Y1567D01*
X7480Y1569D01*
X7457Y1567D01*
X7434Y1563D01*
X7412Y1555D01*
X7391Y1545D01*
X7371Y1532D01*
X7364Y1525D01*
X7346Y1526D01*
X7329Y1542D01*
X7309Y1555D01*
X7288Y1565D01*
X7266Y1573D01*
X7243Y1577D01*
X7220Y1579D01*
X7197Y1577D01*
X7174Y1573D01*
X7152Y1565D01*
X7131Y1555D01*
X7111Y1542D01*
X7094Y1526D01*
X7078Y1509D01*
X7065Y1489D01*
X7055Y1468D01*
X7047Y1446D01*
X7043Y1423D01*
X7041Y1400D01*
X7043Y1377D01*
X7047Y1354D01*
X7055Y1332D01*
X7065Y1311D01*
X7078Y1291D01*
X7094Y1274D01*
X7111Y1258D01*
X7131Y1245D01*
X7152Y1235D01*
X7174Y1227D01*
X7197Y1223D01*
X7220Y1221D01*
X7243Y1223D01*
X7266Y1227D01*
X7288Y1235D01*
X7289Y1235D01*
X7327Y1202D01*
X7320Y1183D01*
X7316Y1160D01*
X7314Y1137D01*
X7316Y1114D01*
X7320Y1091D01*
X7328Y1068D01*
X7338Y1047D01*
X7351Y1028D01*
X7367Y1010D01*
X7384Y995D01*
X7404Y982D01*
X7425Y972D01*
X7447Y964D01*
X7470Y960D01*
X7493Y958D01*
X7516Y960D01*
X7539Y964D01*
X7562Y972D01*
X7583Y982D01*
X7602Y995D01*
X7620Y1010D01*
X7635Y1028D01*
X7648Y1047D01*
X7658Y1068D01*
X7666Y1091D01*
X7670Y1114D01*
X7672Y1137D01*
X7670Y1160D01*
X7666Y1183D01*
X7658Y1205D01*
Y1205D01*
X7658D01*
X7694Y1241D01*
X7704Y1237D01*
X7727Y1233D01*
X7750Y1231D01*
X7773Y1233D01*
X7796Y1237D01*
X7818Y1245D01*
X7839Y1255D01*
X7859Y1268D01*
X7876Y1284D01*
X7892Y1301D01*
X7905Y1321D01*
X7915Y1342D01*
X7923Y1364D01*
X7927Y1387D01*
X7929Y1410D01*
X7927Y1433D01*
X7923Y1456D01*
X7915Y1478D01*
X7905Y1499D01*
X7892Y1519D01*
X7876Y1536D01*
X7859Y1552D01*
X7839Y1565D01*
X7818Y1575D01*
X7796Y1583D01*
X7773Y1587D01*
X7750Y1589D01*
D02*
G37*
G36*
X10500Y1925D02*
X10469Y1923D01*
X10439Y1918D01*
X10409Y1910D01*
X10380Y1898D01*
X10353Y1883D01*
X10328Y1865D01*
X10305Y1844D01*
X10285Y1821D01*
X10267Y1796D01*
X10252Y1769D01*
X10240Y1741D01*
X10231Y1711D01*
X10226Y1681D01*
X10225Y1650D01*
X10226Y1619D01*
X10229Y1605D01*
X10189Y1575D01*
X10168Y1585D01*
X10146Y1593D01*
X10123Y1597D01*
X10100Y1599D01*
X10077Y1597D01*
X10054Y1593D01*
X10032Y1585D01*
X10011Y1575D01*
X9991Y1562D01*
X9974Y1546D01*
X9958Y1529D01*
X9945Y1509D01*
X9935Y1488D01*
X9927Y1466D01*
X9923Y1443D01*
X9921Y1420D01*
X9923Y1397D01*
X9927Y1374D01*
X9935Y1352D01*
X9945Y1331D01*
X9958Y1311D01*
X9974Y1294D01*
X9991Y1278D01*
X10011Y1265D01*
X10032Y1255D01*
X10054Y1247D01*
X10077Y1243D01*
X10100Y1241D01*
X10123Y1243D01*
X10146Y1247D01*
X10168Y1255D01*
X10189Y1265D01*
X10209Y1278D01*
X10226Y1294D01*
X10242Y1311D01*
X10255Y1331D01*
X10265Y1352D01*
X10273Y1374D01*
X10277Y1397D01*
X10279Y1418D01*
X10325Y1437D01*
X10328Y1434D01*
X10353Y1416D01*
X10380Y1402D01*
X10409Y1390D01*
X10439Y1381D01*
X10469Y1376D01*
X10500Y1374D01*
X10531Y1376D01*
X10561Y1381D01*
X10591Y1390D01*
X10620Y1402D01*
X10647Y1416D01*
X10672Y1434D01*
X10695Y1455D01*
X10715Y1478D01*
X10733Y1503D01*
X10748Y1530D01*
X10760Y1559D01*
X10769Y1588D01*
X10774Y1619D01*
X10775Y1650D01*
X10774Y1681D01*
X10769Y1711D01*
X10760Y1741D01*
X10748Y1769D01*
X10733Y1796D01*
X10715Y1821D01*
X10695Y1844D01*
X10672Y1865D01*
X10647Y1883D01*
X10620Y1898D01*
X10591Y1910D01*
X10561Y1918D01*
X10531Y1923D01*
X10500Y1925D01*
D02*
G37*
G36*
X8750Y1599D02*
X8727Y1597D01*
X8704Y1593D01*
X8682Y1585D01*
X8661Y1575D01*
X8641Y1562D01*
X8624Y1546D01*
X8608Y1529D01*
X8595Y1509D01*
X8585Y1488D01*
X8577Y1466D01*
X8573Y1443D01*
X8571Y1420D01*
X8573Y1397D01*
X8577Y1374D01*
X8585Y1352D01*
X8595Y1331D01*
X8608Y1311D01*
X8624Y1294D01*
X8641Y1278D01*
X8661Y1265D01*
X8682Y1255D01*
X8704Y1247D01*
X8727Y1243D01*
X8750Y1241D01*
X8773Y1243D01*
X8796Y1247D01*
X8818Y1255D01*
X8839Y1265D01*
X8859Y1278D01*
X8876Y1294D01*
X8892Y1311D01*
X8905Y1331D01*
X8915Y1352D01*
X8923Y1374D01*
X8927Y1397D01*
X8929Y1420D01*
X8927Y1443D01*
X8923Y1466D01*
X8915Y1488D01*
X8905Y1509D01*
X8892Y1529D01*
X8876Y1546D01*
X8859Y1562D01*
X8839Y1575D01*
X8818Y1585D01*
X8796Y1593D01*
X8773Y1597D01*
X8750Y1599D01*
D02*
G37*
G36*
X3230Y4800D02*
X2210D01*
Y1360D01*
X3230D01*
Y4800D01*
D02*
G37*
G36*
X7755Y4274D02*
X7732Y4272D01*
X7709Y4268D01*
X7687Y4260D01*
X7666Y4250D01*
X7646Y4237D01*
X7629Y4221D01*
X7613Y4204D01*
X7600Y4184D01*
X7590Y4163D01*
X7582Y4141D01*
X7578Y4118D01*
X7576Y4095D01*
X7578Y4072D01*
X7582Y4049D01*
X7590Y4026D01*
X7600Y4005D01*
X7613Y3986D01*
X7629Y3968D01*
X7646Y3953D01*
X7666Y3940D01*
X7687Y3930D01*
X7709Y3922D01*
X7732Y3918D01*
X7755Y3916D01*
X7778Y3918D01*
X7801Y3922D01*
X7823Y3930D01*
X7844Y3940D01*
X7864Y3953D01*
X7881Y3968D01*
X7897Y3986D01*
X7910Y4005D01*
X7920Y4026D01*
X7928Y4049D01*
X7932Y4072D01*
X7934Y4095D01*
X7932Y4118D01*
X7928Y4141D01*
X7920Y4163D01*
X7910Y4184D01*
X7897Y4204D01*
X7881Y4221D01*
X7864Y4237D01*
X7844Y4250D01*
X7823Y4260D01*
X7801Y4268D01*
X7778Y4272D01*
X7755Y4274D01*
D02*
G37*
G36*
X8079Y4572D02*
X8056Y4570D01*
X8033Y4566D01*
X8011Y4558D01*
X7990Y4548D01*
X7970Y4535D01*
X7953Y4520D01*
X7937Y4502D01*
X7924Y4483D01*
X7914Y4462D01*
X7906Y4439D01*
X7902Y4416D01*
X7900Y4393D01*
X7902Y4370D01*
X7906Y4347D01*
X7914Y4325D01*
X7924Y4304D01*
X7937Y4284D01*
X7953Y4267D01*
X7970Y4251D01*
X7990Y4238D01*
X8011Y4228D01*
X8033Y4220D01*
X8056Y4216D01*
X8079Y4214D01*
X8102Y4216D01*
X8125Y4220D01*
X8147Y4228D01*
X8168Y4238D01*
X8188Y4251D01*
X8205Y4267D01*
X8221Y4284D01*
X8234Y4304D01*
X8244Y4325D01*
X8252Y4347D01*
X8256Y4370D01*
X8258Y4393D01*
X8256Y4416D01*
X8252Y4439D01*
X8244Y4462D01*
X8234Y4483D01*
X8221Y4502D01*
X8205Y4520D01*
X8188Y4535D01*
X8168Y4548D01*
X8147Y4558D01*
X8125Y4566D01*
X8102Y4570D01*
X8079Y4572D01*
D02*
G37*
G36*
X7440Y3959D02*
X7417Y3957D01*
X7394Y3953D01*
X7372Y3945D01*
X7351Y3935D01*
X7331Y3922D01*
X7314Y3906D01*
X7298Y3889D01*
X7285Y3869D01*
X7275Y3848D01*
X7267Y3826D01*
X7263Y3803D01*
X7261Y3780D01*
X7263Y3757D01*
X7267Y3734D01*
X7275Y3711D01*
X7285Y3691D01*
X7298Y3671D01*
X7314Y3653D01*
X7320Y3647D01*
Y3620D01*
X7285Y3585D01*
X7258D01*
X7251Y3591D01*
X7234Y3607D01*
X7214Y3620D01*
X7193Y3630D01*
X7171Y3638D01*
X7148Y3642D01*
X7125Y3644D01*
X7102Y3642D01*
X7079Y3638D01*
X7057Y3630D01*
X7036Y3620D01*
X7016Y3607D01*
X6999Y3591D01*
X6983Y3574D01*
X6970Y3554D01*
X6960Y3533D01*
X6952Y3511D01*
X6948Y3488D01*
X6946Y3465D01*
X6948Y3442D01*
X6952Y3419D01*
X6960Y3397D01*
X6970Y3376D01*
X6983Y3356D01*
X6999Y3339D01*
X7016Y3323D01*
X7036Y3310D01*
X7057Y3300D01*
X7079Y3292D01*
X7102Y3288D01*
X7125Y3286D01*
X7148Y3288D01*
X7171Y3292D01*
X7193Y3300D01*
X7214Y3310D01*
X7234Y3323D01*
X7251Y3339D01*
X7258Y3345D01*
X7308D01*
X7314Y3339D01*
X7331Y3323D01*
X7351Y3310D01*
X7372Y3300D01*
X7394Y3292D01*
X7417Y3288D01*
X7440Y3286D01*
X7463Y3288D01*
X7486Y3292D01*
X7508Y3300D01*
X7529Y3310D01*
X7549Y3323D01*
X7566Y3339D01*
X7582Y3356D01*
X7595Y3376D01*
X7605Y3397D01*
X7613Y3419D01*
X7617Y3442D01*
X7619Y3465D01*
X7617Y3488D01*
X7613Y3511D01*
X7605Y3533D01*
X7595Y3554D01*
X7582Y3574D01*
X7566Y3591D01*
X7560Y3597D01*
Y3647D01*
X7566Y3653D01*
X7582Y3671D01*
X7595Y3691D01*
X7605Y3711D01*
X7613Y3734D01*
X7617Y3757D01*
X7619Y3780D01*
X7617Y3803D01*
X7613Y3826D01*
X7605Y3848D01*
X7595Y3869D01*
X7582Y3889D01*
X7566Y3906D01*
X7549Y3922D01*
X7529Y3935D01*
X7508Y3945D01*
X7486Y3953D01*
X7463Y3957D01*
X7440Y3959D01*
D02*
G37*
G36*
X6490Y3959D02*
X6467Y3957D01*
X6444Y3953D01*
X6422Y3945D01*
X6401Y3935D01*
X6381Y3922D01*
X6364Y3907D01*
X6360Y3902D01*
X6310D01*
X6307Y3906D01*
X6289Y3922D01*
X6270Y3935D01*
X6249Y3945D01*
X6226Y3953D01*
X6204Y3957D01*
X6180Y3959D01*
X6157Y3957D01*
X6134Y3953D01*
X6112Y3945D01*
X6091Y3935D01*
X6071Y3922D01*
X6054Y3906D01*
X6038Y3889D01*
X6025Y3869D01*
X6015Y3848D01*
X6007Y3826D01*
X6003Y3803D01*
X6001Y3780D01*
X6003Y3757D01*
X6007Y3734D01*
X6015Y3711D01*
X6025Y3691D01*
X6038Y3671D01*
X6054Y3653D01*
X6058Y3650D01*
Y3600D01*
X6054Y3596D01*
X6038Y3579D01*
X6025Y3559D01*
X6015Y3538D01*
X6007Y3516D01*
X6003Y3493D01*
X6001Y3470D01*
X6003Y3447D01*
X6007Y3424D01*
X6015Y3402D01*
X6025Y3381D01*
X6038Y3361D01*
X6054Y3344D01*
X6071Y3328D01*
X6091Y3315D01*
X6112Y3305D01*
X6134Y3297D01*
X6157Y3293D01*
X6180Y3291D01*
X6203Y3293D01*
X6226Y3297D01*
X6248Y3305D01*
X6269Y3315D01*
X6289Y3328D01*
X6306Y3344D01*
X6322Y3361D01*
D01*
X6322Y3361D01*
X6362Y3348D01*
X6377Y3331D01*
X6373Y3281D01*
X6369Y3276D01*
X6353Y3259D01*
X6340Y3239D01*
X6330Y3218D01*
X6322Y3196D01*
X6318Y3173D01*
X6316Y3150D01*
X6318Y3127D01*
X6322Y3104D01*
X6330Y3082D01*
X6340Y3061D01*
X6353Y3041D01*
X6369Y3024D01*
X6386Y3008D01*
X6406Y2995D01*
X6427Y2985D01*
X6449Y2977D01*
X6472Y2973D01*
X6495Y2971D01*
X6518Y2973D01*
X6541Y2977D01*
X6564Y2985D01*
X6585Y2995D01*
X6604Y3008D01*
X6622Y3024D01*
X6637Y3041D01*
X6650Y3061D01*
X6660Y3082D01*
X6668Y3104D01*
X6672Y3127D01*
X6674Y3150D01*
X6672Y3173D01*
X6668Y3196D01*
X6660Y3218D01*
X6650Y3239D01*
X6637Y3259D01*
X6622Y3276D01*
X6625Y3326D01*
X6630Y3330D01*
X6646Y3348D01*
X6659Y3367D01*
X6669Y3388D01*
X6676Y3410D01*
X6681Y3433D01*
X6683Y3456D01*
X6681Y3480D01*
X6676Y3503D01*
X6669Y3525D01*
X6659Y3546D01*
X6646Y3565D01*
X6630Y3583D01*
X6613Y3598D01*
X6599Y3638D01*
D01*
X6617Y3654D01*
X6632Y3671D01*
X6645Y3691D01*
X6655Y3712D01*
X6663Y3734D01*
X6667Y3757D01*
X6669Y3780D01*
X6667Y3803D01*
X6663Y3826D01*
X6655Y3849D01*
X6645Y3869D01*
X6632Y3889D01*
X6617Y3907D01*
X6599Y3922D01*
X6580Y3935D01*
X6559Y3945D01*
X6536Y3953D01*
X6514Y3957D01*
X6490Y3959D01*
D02*
G37*
G36*
X6915Y5203D02*
X6892Y5201D01*
X6869Y5197D01*
X6847Y5189D01*
X6826Y5179D01*
X6806Y5166D01*
X6789Y5150D01*
X6773Y5133D01*
X6760Y5113D01*
X6750Y5092D01*
X6743Y5070D01*
X6738Y5047D01*
X6736Y5024D01*
X6738Y5000D01*
X6743Y4978D01*
X6750Y4955D01*
Y4955D01*
X6744Y4953D01*
X6744D01*
X6744Y4953D01*
X6722Y4945D01*
X6701Y4935D01*
X6681Y4922D01*
X6664Y4906D01*
X6648Y4889D01*
X6635Y4869D01*
X6625Y4848D01*
X6617Y4826D01*
X6613Y4803D01*
X6611Y4780D01*
X6613Y4757D01*
X6617Y4734D01*
X6625Y4712D01*
X6635Y4691D01*
X6648Y4671D01*
X6664Y4654D01*
X6681Y4638D01*
X6701Y4625D01*
X6722Y4615D01*
X6744Y4607D01*
X6767Y4603D01*
X6790Y4601D01*
X6813Y4603D01*
X6836Y4607D01*
X6858Y4615D01*
X6879Y4625D01*
X6899Y4638D01*
X6916Y4654D01*
X6932Y4671D01*
X6945Y4691D01*
X6955Y4712D01*
X6963Y4734D01*
X6964Y4742D01*
X7008Y4767D01*
X7017Y4764D01*
X7025Y4742D01*
X7035Y4721D01*
X7048Y4701D01*
X7064Y4684D01*
X7081Y4668D01*
X7101Y4655D01*
X7122Y4645D01*
X7144Y4637D01*
X7167Y4633D01*
X7190Y4631D01*
X7213Y4633D01*
X7236Y4637D01*
X7258Y4645D01*
X7279Y4655D01*
X7299Y4668D01*
X7316Y4684D01*
X7332Y4701D01*
X7345Y4721D01*
X7352Y4735D01*
X7374Y4727D01*
X7397Y4723D01*
X7420Y4721D01*
X7443Y4723D01*
X7466Y4727D01*
X7488Y4735D01*
X7509Y4745D01*
X7529Y4758D01*
X7546Y4774D01*
X7562Y4791D01*
X7575Y4811D01*
X7576Y4812D01*
X7587Y4807D01*
X7608Y4802D01*
X7630Y4801D01*
X7652Y4802D01*
X7673Y4807D01*
X7693Y4816D01*
X7712Y4827D01*
X7729Y4841D01*
X7743Y4858D01*
X7754Y4877D01*
X7763Y4897D01*
X7768Y4918D01*
X7768Y4922D01*
X7816Y4970D01*
X8494D01*
X8570Y4894D01*
X8567Y4886D01*
X8563Y4863D01*
X8561Y4840D01*
X8563Y4817D01*
X8567Y4794D01*
X8575Y4772D01*
X8585Y4751D01*
X8598Y4731D01*
X8614Y4714D01*
X8631Y4698D01*
X8651Y4685D01*
X8672Y4675D01*
X8694Y4667D01*
X8717Y4663D01*
X8740Y4661D01*
X8763Y4663D01*
X8786Y4667D01*
X8808Y4675D01*
X8829Y4685D01*
X8849Y4698D01*
X8866Y4714D01*
X8882Y4731D01*
X8895Y4751D01*
X8905Y4772D01*
X8913Y4794D01*
X8917Y4817D01*
X8919Y4840D01*
X8917Y4863D01*
X8913Y4886D01*
X8905Y4908D01*
X8895Y4929D01*
X8882Y4949D01*
X8866Y4966D01*
X8849Y4982D01*
X8829Y4995D01*
X8808Y5005D01*
X8786Y5013D01*
X8763Y5017D01*
X8758Y5018D01*
X8618Y5158D01*
X8605Y5169D01*
X8590Y5178D01*
X8574Y5185D01*
X8557Y5189D01*
X8540Y5190D01*
X7770D01*
X7753Y5189D01*
X7736Y5185D01*
X7720Y5178D01*
X7705Y5169D01*
X7692Y5158D01*
X7612Y5078D01*
X7608Y5078D01*
X7587Y5073D01*
X7567Y5064D01*
X7548Y5053D01*
X7532Y5039D01*
X7529Y5042D01*
X7509Y5055D01*
X7488Y5065D01*
X7466Y5073D01*
X7443Y5077D01*
X7420Y5079D01*
X7397Y5077D01*
X7374Y5073D01*
X7352Y5065D01*
X7331Y5055D01*
X7311Y5042D01*
X7294Y5026D01*
X7278Y5009D01*
X7265Y4989D01*
X7258Y4975D01*
X7236Y4983D01*
X7213Y4987D01*
X7190Y4989D01*
X7167Y4987D01*
X7144Y4983D01*
X7133Y4979D01*
X7093Y5009D01*
X7094Y5024D01*
X7093Y5047D01*
X7088Y5070D01*
X7080Y5092D01*
X7070Y5113D01*
X7057Y5133D01*
X7042Y5150D01*
X7024Y5166D01*
X7005Y5179D01*
X6984Y5189D01*
X6962Y5197D01*
X6939Y5201D01*
X6915Y5203D01*
D02*
G37*
G36*
X5770Y5549D02*
X5747Y5547D01*
X5724Y5543D01*
X5702Y5535D01*
X5681Y5525D01*
X5661Y5512D01*
X5644Y5496D01*
X5628Y5479D01*
X5615Y5459D01*
X5605Y5438D01*
X5597Y5416D01*
X5593Y5393D01*
X5591Y5370D01*
X5593Y5347D01*
X5597Y5324D01*
X5605Y5302D01*
X5615Y5281D01*
X5628Y5261D01*
X5644Y5244D01*
X5661Y5228D01*
X5681Y5215D01*
X5702Y5205D01*
X5724Y5197D01*
X5747Y5193D01*
X5770Y5191D01*
X5777Y5192D01*
X5783Y5187D01*
X5787Y5164D01*
X5795Y5142D01*
X5805Y5121D01*
X5818Y5101D01*
X5834Y5084D01*
X5851Y5068D01*
X5871Y5055D01*
X5892Y5045D01*
X5914Y5037D01*
X5937Y5033D01*
X5960Y5031D01*
X5983Y5033D01*
X6006Y5037D01*
X6028Y5045D01*
X6049Y5055D01*
X6069Y5068D01*
X6086Y5084D01*
X6102Y5101D01*
X6115Y5121D01*
X6125Y5142D01*
X6133Y5164D01*
X6137Y5187D01*
X6139Y5210D01*
X6137Y5233D01*
X6133Y5256D01*
X6125Y5278D01*
X6115Y5299D01*
X6102Y5319D01*
X6086Y5336D01*
X6069Y5352D01*
X6049Y5365D01*
X6028Y5375D01*
X6006Y5383D01*
X5983Y5387D01*
X5960Y5389D01*
X5953Y5388D01*
X5947Y5393D01*
X5943Y5416D01*
X5935Y5438D01*
X5925Y5459D01*
X5912Y5479D01*
X5896Y5496D01*
X5879Y5512D01*
X5859Y5525D01*
X5838Y5535D01*
X5816Y5543D01*
X5793Y5547D01*
X5770Y5549D01*
D02*
G37*
G36*
X5020Y5639D02*
X4997Y5637D01*
X4974Y5633D01*
X4952Y5625D01*
X4931Y5615D01*
X4911Y5602D01*
X4894Y5586D01*
X4878Y5569D01*
X4865Y5549D01*
X4855Y5528D01*
X4847Y5506D01*
X4843Y5483D01*
X4841Y5460D01*
X4843Y5437D01*
X4847Y5414D01*
X4855Y5392D01*
X4865Y5371D01*
X4878Y5351D01*
X4894Y5334D01*
X4911Y5318D01*
X4931Y5305D01*
X4952Y5295D01*
X4974Y5287D01*
X4997Y5283D01*
X5020Y5281D01*
X5043Y5283D01*
X5066Y5287D01*
X5088Y5295D01*
X5109Y5305D01*
X5129Y5318D01*
X5146Y5334D01*
X5162Y5351D01*
X5175Y5371D01*
X5185Y5392D01*
X5193Y5414D01*
X5197Y5437D01*
X5199Y5460D01*
X5197Y5483D01*
X5193Y5506D01*
X5185Y5528D01*
X5175Y5549D01*
X5162Y5569D01*
X5146Y5586D01*
X5129Y5602D01*
X5109Y5615D01*
X5088Y5625D01*
X5066Y5633D01*
X5043Y5637D01*
X5020Y5639D01*
D02*
G37*
G36*
X12851Y5078D02*
X12828Y5076D01*
X12805Y5072D01*
X12783Y5064D01*
X12762Y5054D01*
X12742Y5041D01*
X12725Y5025D01*
X12709Y5008D01*
X12696Y4988D01*
X12686Y4967D01*
X12678Y4945D01*
X12674Y4922D01*
X12672Y4899D01*
X12674Y4875D01*
X12678Y4853D01*
X12686Y4830D01*
X12696Y4809D01*
X12709Y4790D01*
X12725Y4772D01*
X12742Y4757D01*
X12762Y4744D01*
X12783Y4734D01*
X12805Y4726D01*
X12828Y4722D01*
X12851Y4720D01*
X12875Y4722D01*
X12897Y4726D01*
X12920Y4734D01*
X12941Y4744D01*
X12960Y4757D01*
X12978Y4772D01*
X12993Y4790D01*
X13006Y4809D01*
X13016Y4830D01*
X13024Y4853D01*
X13028Y4875D01*
X13030Y4899D01*
X13028Y4922D01*
X13024Y4945D01*
X13016Y4967D01*
X13006Y4988D01*
X12993Y5008D01*
X12978Y5025D01*
X12960Y5041D01*
X12941Y5054D01*
X12920Y5064D01*
X12897Y5072D01*
X12875Y5076D01*
X12851Y5078D01*
D02*
G37*
G36*
X10850Y5199D02*
X10827Y5197D01*
X10804Y5193D01*
X10782Y5185D01*
X10761Y5175D01*
X10741Y5162D01*
X10724Y5146D01*
X10708Y5129D01*
X10695Y5109D01*
X10685Y5088D01*
X10677Y5066D01*
X10673Y5043D01*
X10671Y5020D01*
X10673Y4997D01*
X10677Y4974D01*
X10685Y4952D01*
X10695Y4931D01*
X10708Y4911D01*
X10724Y4894D01*
X10728Y4865D01*
X10728D01*
X10728D01*
X10728Y4865D01*
X10728D01*
D01*
X10705Y4844D01*
X10685Y4821D01*
X10667Y4796D01*
X10652Y4769D01*
X10640Y4741D01*
X10631Y4711D01*
X10626Y4681D01*
X10626Y4672D01*
X10576Y4665D01*
X10575Y4668D01*
X10565Y4689D01*
X10552Y4709D01*
X10536Y4726D01*
X10519Y4742D01*
X10499Y4755D01*
X10478Y4765D01*
X10456Y4773D01*
X10433Y4777D01*
X10410Y4779D01*
X10387Y4777D01*
X10364Y4773D01*
X10342Y4765D01*
X10321Y4755D01*
X10301Y4742D01*
X10284Y4726D01*
X10268Y4709D01*
X10255Y4689D01*
X10245Y4668D01*
X10237Y4646D01*
X10233Y4623D01*
X10231Y4600D01*
X10233Y4577D01*
X10237Y4554D01*
X10245Y4532D01*
X10255Y4511D01*
X10268Y4491D01*
X10270Y4449D01*
X10270Y4449D01*
Y4449D01*
X10247Y4447D01*
X10224Y4443D01*
X10202Y4435D01*
X10181Y4425D01*
X10161Y4412D01*
X10144Y4396D01*
X10128Y4379D01*
X10115Y4359D01*
X10105Y4338D01*
X10097Y4316D01*
X10093Y4293D01*
X10091Y4270D01*
X10093Y4247D01*
X10097Y4224D01*
X10105Y4202D01*
X10115Y4181D01*
X10128Y4161D01*
X10144Y4144D01*
X10161Y4128D01*
X10181Y4115D01*
X10202Y4105D01*
X10224Y4097D01*
X10247Y4093D01*
X10270Y4091D01*
X10293Y4093D01*
X10316Y4097D01*
X10338Y4105D01*
X10359Y4115D01*
X10379Y4128D01*
X10396Y4144D01*
X10412Y4161D01*
X10425Y4181D01*
X10435Y4202D01*
X10443Y4224D01*
X10447Y4247D01*
X10449Y4270D01*
X10447Y4293D01*
X10443Y4316D01*
X10435Y4338D01*
X10425Y4359D01*
X10412Y4379D01*
X10410Y4421D01*
D01*
X10410Y4421D01*
X10433Y4423D01*
X10456Y4427D01*
X10478Y4435D01*
X10499Y4445D01*
X10519Y4458D01*
X10536Y4474D01*
X10552Y4491D01*
X10565Y4511D01*
X10575Y4532D01*
X10583Y4554D01*
X10586Y4571D01*
X10636Y4573D01*
X10640Y4559D01*
X10652Y4530D01*
X10667Y4503D01*
X10685Y4478D01*
X10705Y4455D01*
X10728Y4434D01*
X10753Y4416D01*
X10780Y4402D01*
X10809Y4390D01*
X10839Y4381D01*
X10869Y4376D01*
X10900Y4374D01*
X10931Y4376D01*
X10961Y4381D01*
X10991Y4390D01*
X11020Y4402D01*
X11047Y4416D01*
X11072Y4434D01*
X11095Y4455D01*
X11115Y4478D01*
X11133Y4503D01*
X11148Y4530D01*
X11160Y4559D01*
X11169Y4588D01*
X11174Y4619D01*
X11175Y4650D01*
X11174Y4681D01*
X11169Y4711D01*
X11160Y4741D01*
X11148Y4769D01*
X11133Y4796D01*
X11115Y4821D01*
X11095Y4844D01*
X11072Y4865D01*
X11047Y4883D01*
X11020Y4898D01*
X11005Y4931D01*
X11005Y4931D01*
X11005D01*
X11015Y4952D01*
X11023Y4974D01*
X11027Y4997D01*
X11029Y5020D01*
X11027Y5043D01*
X11023Y5066D01*
X11015Y5088D01*
X11005Y5109D01*
X10992Y5129D01*
X10976Y5146D01*
X10959Y5162D01*
X10939Y5175D01*
X10918Y5185D01*
X10896Y5193D01*
X10873Y5197D01*
X10850Y5199D01*
D02*
G37*
G36*
X6818Y3014D02*
X6794Y3012D01*
X6771Y3008D01*
X6749Y3000D01*
X6728Y2990D01*
X6709Y2977D01*
X6691Y2961D01*
X6676Y2944D01*
X6663Y2924D01*
X6653Y2903D01*
X6645Y2881D01*
X6640Y2858D01*
X6639Y2835D01*
X6640Y2812D01*
X6645Y2789D01*
X6653Y2767D01*
X6663Y2746D01*
X6676Y2726D01*
X6691Y2709D01*
X6709Y2693D01*
X6728Y2680D01*
X6749Y2670D01*
X6771Y2662D01*
X6794Y2658D01*
X6818Y2656D01*
X6841Y2658D01*
X6864Y2662D01*
X6886Y2670D01*
X6907Y2680D01*
X6927Y2693D01*
X6944Y2709D01*
X6960Y2726D01*
X6973Y2746D01*
X6983Y2767D01*
X6990Y2789D01*
X6995Y2812D01*
X6997Y2835D01*
X6995Y2858D01*
X6990Y2881D01*
X6983Y2903D01*
X6973Y2924D01*
X6960Y2944D01*
X6944Y2961D01*
X6927Y2977D01*
X6907Y2990D01*
X6886Y3000D01*
X6864Y3008D01*
X6841Y3012D01*
X6818Y3014D01*
D02*
G37*
G36*
X9480Y3289D02*
X9457Y3287D01*
X9434Y3283D01*
X9412Y3275D01*
X9391Y3265D01*
X9371Y3252D01*
X9354Y3236D01*
X9338Y3219D01*
X9325Y3199D01*
X9315Y3178D01*
X9307Y3156D01*
X9303Y3133D01*
X9301Y3110D01*
X9303Y3087D01*
X9307Y3064D01*
X9315Y3042D01*
X9325Y3021D01*
X9338Y3001D01*
X9354Y2984D01*
X9371Y2968D01*
X9391Y2955D01*
X9412Y2945D01*
X9434Y2937D01*
X9457Y2933D01*
X9480Y2931D01*
X9503Y2933D01*
X9526Y2937D01*
X9548Y2945D01*
X9569Y2955D01*
X9589Y2968D01*
X9606Y2984D01*
X9622Y3001D01*
X9635Y3021D01*
X9645Y3042D01*
X9653Y3064D01*
X9657Y3087D01*
X9659Y3110D01*
X9657Y3133D01*
X9653Y3156D01*
X9645Y3178D01*
X9635Y3199D01*
X9622Y3219D01*
X9606Y3236D01*
X9589Y3252D01*
X9569Y3265D01*
X9548Y3275D01*
X9526Y3283D01*
X9503Y3287D01*
X9480Y3289D01*
D02*
G37*
G36*
X12754Y2895D02*
X12730Y2894D01*
X12707Y2889D01*
X12685Y2882D01*
X12664Y2871D01*
X12645Y2858D01*
X12627Y2843D01*
X12612Y2825D01*
X12599Y2806D01*
X12588Y2785D01*
X12581Y2763D01*
X12576Y2740D01*
X12575Y2716D01*
X12576Y2693D01*
X12581Y2670D01*
X12588Y2648D01*
X12599Y2627D01*
X12612Y2608D01*
X12627Y2590D01*
X12645Y2575D01*
X12664Y2562D01*
X12685Y2551D01*
X12707Y2544D01*
X12730Y2539D01*
X12754Y2538D01*
X12777Y2539D01*
X12800Y2544D01*
X12822Y2551D01*
X12843Y2562D01*
X12862Y2575D01*
X12880Y2590D01*
X12895Y2608D01*
X12908Y2627D01*
X12919Y2648D01*
X12926Y2670D01*
X12931Y2693D01*
X12932Y2716D01*
X12931Y2740D01*
X12926Y2763D01*
X12919Y2785D01*
X12908Y2806D01*
X12895Y2825D01*
X12880Y2843D01*
X12862Y2858D01*
X12843Y2871D01*
X12822Y2882D01*
X12800Y2889D01*
X12777Y2894D01*
X12754Y2895D01*
D02*
G37*
G36*
X8385Y3014D02*
X8362Y3012D01*
X8339Y3008D01*
X8316Y3000D01*
X8295Y2990D01*
X8276Y2977D01*
X8258Y2961D01*
X8243Y2944D01*
X8230Y2924D01*
X8220Y2903D01*
X8212Y2881D01*
X8208Y2858D01*
X8206Y2835D01*
X8208Y2812D01*
X8212Y2789D01*
X8220Y2767D01*
X8230Y2746D01*
X8243Y2726D01*
X8258Y2709D01*
X8276Y2693D01*
X8295Y2680D01*
X8316Y2670D01*
X8339Y2662D01*
X8362Y2658D01*
X8385Y2656D01*
X8408Y2658D01*
X8431Y2662D01*
X8453Y2670D01*
X8474Y2680D01*
X8494Y2693D01*
X8511Y2709D01*
X8527Y2726D01*
X8540Y2746D01*
X8550Y2767D01*
X8558Y2789D01*
X8562Y2812D01*
X8564Y2835D01*
X8562Y2858D01*
X8558Y2881D01*
X8550Y2903D01*
X8540Y2924D01*
X8527Y2944D01*
X8511Y2961D01*
X8494Y2977D01*
X8474Y2990D01*
X8453Y3000D01*
X8431Y3008D01*
X8408Y3012D01*
X8385Y3014D01*
D02*
G37*
G36*
X11450Y3399D02*
X11427Y3397D01*
X11404Y3393D01*
X11382Y3385D01*
X11361Y3375D01*
X11341Y3362D01*
X11324Y3346D01*
X11308Y3329D01*
X11295Y3309D01*
X11285Y3288D01*
X11277Y3266D01*
X11273Y3243D01*
X11271Y3220D01*
X11273Y3197D01*
X11277Y3174D01*
X11285Y3152D01*
X11295Y3131D01*
X11308Y3111D01*
X11324Y3094D01*
X11341Y3078D01*
X11361Y3065D01*
X11382Y3055D01*
X11404Y3047D01*
X11427Y3043D01*
X11450Y3041D01*
X11473Y3043D01*
X11496Y3047D01*
X11518Y3055D01*
X11539Y3065D01*
X11559Y3078D01*
X11576Y3094D01*
X11592Y3111D01*
X11605Y3131D01*
X11615Y3152D01*
X11623Y3174D01*
X11627Y3197D01*
X11629Y3220D01*
X11627Y3243D01*
X11623Y3266D01*
X11615Y3288D01*
X11605Y3309D01*
X11592Y3329D01*
X11576Y3346D01*
X11559Y3362D01*
X11539Y3375D01*
X11518Y3385D01*
X11496Y3393D01*
X11473Y3397D01*
X11450Y3399D01*
D02*
G37*
G36*
X9015Y4294D02*
X8991Y4292D01*
X8969Y4288D01*
X8946Y4280D01*
X8925Y4270D01*
X8906Y4257D01*
X8888Y4241D01*
X8873Y4224D01*
X8860Y4204D01*
X8850Y4183D01*
X8842Y4161D01*
X8838Y4138D01*
X8836Y4115D01*
X8838Y4092D01*
X8842Y4069D01*
X8850Y4046D01*
X8860Y4025D01*
X8873Y4006D01*
X8888Y3988D01*
X8906Y3973D01*
X8925Y3960D01*
X8946Y3950D01*
X8969Y3942D01*
X8991Y3938D01*
X9015Y3936D01*
X9038Y3938D01*
X9054Y3941D01*
X9057Y3924D01*
X9065Y3902D01*
X9075Y3881D01*
X9088Y3861D01*
X9104Y3844D01*
X9121Y3828D01*
X9141Y3815D01*
X9141Y3815D01*
Y3765D01*
X9141Y3765D01*
X9121Y3752D01*
X9104Y3736D01*
X9088Y3719D01*
X9075Y3699D01*
X9065Y3678D01*
X9057Y3656D01*
X9053Y3633D01*
X9051Y3610D01*
X9053Y3587D01*
X9057Y3564D01*
X9065Y3542D01*
X9075Y3521D01*
X9088Y3501D01*
X9104Y3484D01*
X9121Y3468D01*
X9141Y3455D01*
X9162Y3445D01*
X9184Y3437D01*
X9207Y3433D01*
X9230Y3431D01*
X9253Y3433D01*
X9276Y3437D01*
X9298Y3445D01*
X9319Y3455D01*
X9344Y3461D01*
D01*
Y3461D01*
X9344Y3461D01*
Y3461D01*
Y3461D01*
D01*
X9357Y3441D01*
X9372Y3424D01*
X9390Y3408D01*
X9409Y3395D01*
X9430Y3385D01*
X9452Y3377D01*
X9475Y3373D01*
X9499Y3371D01*
X9522Y3373D01*
X9545Y3377D01*
X9567Y3385D01*
X9588Y3395D01*
X9608Y3408D01*
X9625Y3424D01*
X9641Y3441D01*
X9654Y3461D01*
X9664Y3482D01*
X9671Y3504D01*
X9676Y3527D01*
X9678Y3550D01*
X9676Y3573D01*
X9671Y3596D01*
X9664Y3618D01*
X9654Y3639D01*
X9641Y3659D01*
X9625Y3676D01*
X9608Y3692D01*
X9588Y3705D01*
X9567Y3715D01*
X9545Y3723D01*
X9522Y3727D01*
X9499Y3729D01*
X9475Y3727D01*
X9452Y3723D01*
X9430Y3715D01*
X9409Y3705D01*
X9397Y3697D01*
X9385Y3699D01*
Y3699D01*
X9385Y3699D01*
D01*
X9372Y3719D01*
X9356Y3736D01*
X9339Y3752D01*
X9319Y3765D01*
X9319Y3765D01*
Y3815D01*
X9319Y3815D01*
X9339Y3828D01*
X9356Y3844D01*
X9372Y3861D01*
X9385Y3881D01*
X9395Y3902D01*
X9403Y3924D01*
X9407Y3947D01*
X9409Y3970D01*
X9407Y3993D01*
X9403Y4016D01*
X9395Y4038D01*
X9385Y4059D01*
X9372Y4079D01*
X9356Y4096D01*
X9339Y4112D01*
X9319Y4125D01*
X9298Y4135D01*
X9276Y4143D01*
X9253Y4147D01*
X9230Y4149D01*
X9207Y4147D01*
X9191Y4144D01*
X9188Y4161D01*
X9180Y4183D01*
X9170Y4204D01*
X9157Y4224D01*
X9141Y4241D01*
X9124Y4257D01*
X9104Y4270D01*
X9083Y4280D01*
X9061Y4288D01*
X9038Y4292D01*
X9015Y4294D01*
D02*
G37*
G36*
X12250Y5176D02*
X12213Y5174D01*
X12177Y5169D01*
X12141Y5160D01*
X12106Y5147D01*
X12073Y5131D01*
X12041Y5112D01*
X12012Y5090D01*
X11984Y5066D01*
X11960Y5038D01*
X11938Y5009D01*
X11919Y4977D01*
X11903Y4944D01*
X11890Y4909D01*
X11881Y4873D01*
X11876Y4837D01*
X11874Y4800D01*
X11876Y4763D01*
X11881Y4727D01*
X11890Y4691D01*
X11903Y4656D01*
X11919Y4623D01*
X11938Y4591D01*
X11960Y4562D01*
X11984Y4534D01*
X12012Y4510D01*
X12029Y4497D01*
X12027Y4447D01*
X12017Y4440D01*
X11984Y4415D01*
X11953Y4387D01*
X11925Y4356D01*
X11900Y4323D01*
X11878Y4288D01*
X11858Y4251D01*
X11843Y4213D01*
X11830Y4173D01*
X11821Y4133D01*
X11816Y4092D01*
X11814Y4050D01*
X11816Y4008D01*
X11821Y3967D01*
X11830Y3927D01*
X11843Y3887D01*
X11858Y3849D01*
X11878Y3812D01*
X11900Y3777D01*
X11925Y3744D01*
X11953Y3713D01*
X11984Y3685D01*
X12017Y3660D01*
X12052Y3638D01*
X12089Y3618D01*
X12127Y3603D01*
X12167Y3590D01*
X12207Y3581D01*
X12249Y3576D01*
X12290Y3574D01*
X12332Y3576D01*
X12373Y3581D01*
X12413Y3590D01*
X12453Y3603D01*
X12491Y3618D01*
X12528Y3638D01*
X12563Y3660D01*
X12596Y3685D01*
X12627Y3713D01*
X12655Y3744D01*
X12680Y3777D01*
X12702Y3812D01*
X12722Y3849D01*
X12737Y3887D01*
X12750Y3927D01*
X12759Y3967D01*
X12764Y4008D01*
X12766Y4050D01*
X12764Y4092D01*
X12759Y4133D01*
X12750Y4173D01*
X12737Y4213D01*
X12722Y4251D01*
X12702Y4288D01*
X12680Y4323D01*
X12655Y4356D01*
X12627Y4387D01*
X12596Y4415D01*
X12563Y4440D01*
X12528Y4462D01*
X12509Y4472D01*
X12502Y4522D01*
X12516Y4534D01*
X12540Y4562D01*
X12562Y4591D01*
X12581Y4623D01*
X12597Y4656D01*
X12610Y4691D01*
X12619Y4727D01*
X12624Y4763D01*
X12626Y4800D01*
X12624Y4837D01*
X12619Y4873D01*
X12610Y4909D01*
X12597Y4944D01*
X12581Y4977D01*
X12562Y5009D01*
X12540Y5038D01*
X12516Y5066D01*
X12488Y5090D01*
X12459Y5112D01*
X12427Y5131D01*
X12394Y5147D01*
X12359Y5160D01*
X12323Y5169D01*
X12287Y5174D01*
X12250Y5176D01*
D02*
G37*
G36*
X8070Y3329D02*
X8047Y3327D01*
X8024Y3323D01*
X8002Y3315D01*
X7981Y3305D01*
X7961Y3292D01*
X7944Y3276D01*
X7937Y3270D01*
X7887D01*
X7881Y3276D01*
X7864Y3292D01*
X7844Y3305D01*
X7823Y3315D01*
X7801Y3323D01*
X7778Y3327D01*
X7755Y3329D01*
X7732Y3327D01*
X7709Y3323D01*
X7687Y3315D01*
X7666Y3305D01*
X7646Y3292D01*
X7629Y3276D01*
X7613Y3259D01*
X7600Y3239D01*
X7590Y3218D01*
X7582Y3196D01*
X7578Y3173D01*
X7576Y3150D01*
X7578Y3127D01*
X7582Y3104D01*
X7590Y3082D01*
X7600Y3061D01*
X7613Y3041D01*
X7629Y3024D01*
X7646Y3008D01*
X7666Y2995D01*
X7687Y2985D01*
X7709Y2977D01*
X7732Y2973D01*
X7755Y2971D01*
X7778Y2973D01*
X7801Y2977D01*
X7823Y2985D01*
X7844Y2995D01*
X7864Y3008D01*
X7881Y3024D01*
X7887Y3031D01*
X7937D01*
X7944Y3024D01*
X7961Y3008D01*
X7981Y2995D01*
X8002Y2985D01*
X8024Y2977D01*
X8047Y2973D01*
X8070Y2971D01*
X8093Y2973D01*
X8116Y2977D01*
X8138Y2985D01*
X8159Y2995D01*
X8179Y3008D01*
X8196Y3024D01*
X8212Y3041D01*
X8225Y3061D01*
X8235Y3082D01*
X8243Y3104D01*
X8247Y3127D01*
X8249Y3150D01*
X8247Y3173D01*
X8243Y3196D01*
X8235Y3218D01*
X8225Y3239D01*
X8212Y3259D01*
X8196Y3276D01*
X8179Y3292D01*
X8159Y3305D01*
X8138Y3315D01*
X8116Y3323D01*
X8093Y3327D01*
X8070Y3329D01*
D02*
G37*
G36*
X12750Y3679D02*
X12727Y3677D01*
X12704Y3673D01*
X12682Y3665D01*
X12661Y3655D01*
X12641Y3642D01*
X12624Y3626D01*
X12608Y3609D01*
X12595Y3589D01*
X12585Y3568D01*
X12577Y3546D01*
X12573Y3523D01*
X12571Y3500D01*
X12573Y3477D01*
X12577Y3454D01*
X12585Y3432D01*
X12595Y3411D01*
X12608Y3391D01*
X12624Y3374D01*
X12641Y3358D01*
X12661Y3345D01*
X12682Y3335D01*
X12704Y3327D01*
X12727Y3323D01*
X12750Y3321D01*
X12773Y3323D01*
X12796Y3327D01*
X12818Y3335D01*
X12839Y3345D01*
X12859Y3358D01*
X12876Y3374D01*
X12892Y3391D01*
X12905Y3411D01*
X12915Y3432D01*
X12923Y3454D01*
X12927Y3477D01*
X12929Y3500D01*
X12927Y3523D01*
X12923Y3546D01*
X12915Y3568D01*
X12905Y3589D01*
X12892Y3609D01*
X12876Y3626D01*
X12859Y3642D01*
X12839Y3655D01*
X12818Y3665D01*
X12796Y3673D01*
X12773Y3677D01*
X12750Y3679D01*
D02*
G37*
%LPD*%
D34*
X8540Y5080D02*
X8740Y4880D01*
X7770Y5080D02*
X8540D01*
X7630Y4940D02*
X7770Y5080D01*
D41*
X9760Y325D02*
D03*
D43*
X9550Y6080D02*
D03*
X12060Y3090D02*
D03*
Y2310D02*
D03*
X11440Y3880D02*
D03*
Y4350D02*
D03*
X4876Y3021D02*
D03*
X4404D02*
D03*
X3931D02*
D03*
X5349Y3494D02*
D03*
X4876D02*
D03*
X4404D02*
D03*
X3931D02*
D03*
X4876Y3966D02*
D03*
X4404D02*
D03*
X3931D02*
D03*
X5349Y4439D02*
D03*
X4876D02*
D03*
X4404D02*
D03*
X3931D02*
D03*
X5890Y1530D02*
D03*
X10120Y4520D02*
D03*
X10140Y4790D02*
D03*
X8740Y4840D02*
D03*
X9040Y320D02*
D03*
X7140Y6130D02*
D03*
X4400Y6076D02*
D03*
X3450Y6010D02*
D03*
X2750Y5890D02*
D03*
X2090Y6052D02*
D03*
X9010Y3150D02*
D03*
X9130Y2360D02*
D03*
X9720Y2750D02*
D03*
X8180Y5640D02*
D03*
X6494Y2204D02*
D03*
Y1889D02*
D03*
X7850Y4830D02*
D03*
X5818Y4784D02*
D03*
X10130Y520D02*
D03*
X5700Y2660D02*
D03*
X6610Y1480D02*
D03*
X7755Y3780D02*
D03*
X7754Y2834D02*
D03*
X8389Y3781D02*
D03*
X3630Y1800D02*
D03*
X2110Y2990D02*
D03*
X2750Y5250D02*
D03*
X2440D02*
D03*
X3350Y1500D02*
D03*
X2130Y960D02*
D03*
X2710Y900D02*
D03*
X3230Y240D02*
D03*
X4300Y250D02*
D03*
X4990Y1150D02*
D03*
X4760Y750D02*
D03*
X4830Y1580D02*
D03*
X5850Y250D02*
D03*
X6280Y610D02*
D03*
X11020Y1370D02*
D03*
X9730Y1730D02*
D03*
X9040Y4790D02*
D03*
X2190Y5700D02*
D03*
X8180Y1420D02*
D03*
X8350Y140D02*
D03*
X6250Y6040D02*
D03*
X4610Y5366D02*
D03*
X6920Y5280D02*
D03*
X6670Y5900D02*
D03*
X5910Y5930D02*
D03*
X5370Y6100D02*
D03*
X5040Y6020D02*
D03*
X4040D02*
D03*
X3100Y6090D02*
D03*
X2420Y6060D02*
D03*
X1620Y5920D02*
D03*
X1356Y6160D02*
D03*
X6920Y5770D02*
D03*
X10100Y200D02*
D03*
X9730Y390D02*
D03*
X9390Y170D02*
D03*
X11410Y2960D02*
D03*
X9300Y5610D02*
D03*
D44*
X5920Y5710D02*
D03*
X7630Y4940D02*
D03*
X7746Y2197D02*
D03*
X9060Y1960D02*
D03*
X8393Y2512D02*
D03*
X7134Y2844D02*
D03*
X7210Y5240D02*
D03*
X7970D02*
D03*
X7746Y3456D02*
D03*
X7431Y2826D02*
D03*
X8393Y3456D02*
D03*
Y4401D02*
D03*
X7720Y5600D02*
D03*
X8376Y1584D02*
D03*
X9020Y6090D02*
D03*
X8590Y5640D02*
D03*
X6280Y5500D02*
D03*
X5553Y5480D02*
D03*
X5750Y3980D02*
D03*
D45*
X12250Y1490D02*
D03*
D46*
X9750Y0D02*
D03*
X8750D02*
D03*
X1750Y6300D02*
D03*
X2750D02*
D03*
X3750D02*
D03*
X6750D02*
D03*
X4750D02*
D03*
X5750D02*
D03*
D47*
X14736Y1244D02*
D03*
Y2290D02*
D03*
X13050Y1770D02*
D03*
M02*
