%FSLAX24Y24*%
%MOIN*%
G70*
G01*
G75*
G04 Layer_Color=32896*
%ADD10R,0.0197X0.0236*%
%ADD11R,0.0217X0.0236*%
%ADD12R,0.0394X0.0335*%
%ADD13R,0.0236X0.0335*%
%ADD14R,0.0236X0.0217*%
%ADD15R,0.0315X0.0295*%
%ADD16R,0.0335X0.0256*%
%ADD17R,0.0236X0.0197*%
%ADD18R,0.0709X0.0394*%
%ADD19R,0.0177X0.0177*%
G04:AMPARAMS|DCode=20|XSize=47.2mil|YSize=43.3mil|CornerRadius=0mil|HoleSize=0mil|Usage=FLASHONLY|Rotation=45.000|XOffset=0mil|YOffset=0mil|HoleType=Round|Shape=Rectangle|*
%AMROTATEDRECTD20*
4,1,4,-0.0014,-0.0320,-0.0320,-0.0014,0.0014,0.0320,0.0320,0.0014,-0.0014,-0.0320,0.0*
%
%ADD20ROTATEDRECTD20*%

%ADD21R,0.0256X0.0197*%
%ADD22R,0.0197X0.0256*%
%ADD23O,0.0256X0.0079*%
%ADD24O,0.0079X0.0256*%
%ADD25R,0.1850X0.1850*%
%ADD26R,0.0571X0.0217*%
%ADD27R,0.0571X0.0217*%
%ADD28R,0.2560X0.0400*%
%ADD29R,0.2960X0.0600*%
G04:AMPARAMS|DCode=30|XSize=19.7mil|YSize=23.6mil|CornerRadius=0mil|HoleSize=0mil|Usage=FLASHONLY|Rotation=225.000|XOffset=0mil|YOffset=0mil|HoleType=Round|Shape=Rectangle|*
%AMROTATEDRECTD30*
4,1,4,-0.0014,0.0153,0.0153,-0.0014,0.0014,-0.0153,-0.0153,0.0014,-0.0014,0.0153,0.0*
%
%ADD30ROTATEDRECTD30*%

%ADD31C,0.0394*%
%ADD32R,0.0157X0.0197*%
%ADD33C,0.0150*%
%ADD34C,0.0060*%
%ADD35C,0.0050*%
%ADD36C,0.0100*%
%ADD37C,0.0080*%
%ADD38C,0.0070*%
%ADD39C,0.0090*%
%ADD40C,0.0200*%
%ADD41R,0.0680X0.0410*%
%ADD42C,0.0390*%
%ADD43C,0.0197*%
%ADD44C,0.0118*%
%ADD45C,0.0591*%
%ADD46C,0.0709*%
%ADD47C,0.0240*%
%ADD48C,0.0138*%
%ADD49C,0.0310*%
%ADD50R,0.0551X0.0413*%
%ADD51R,0.0472X0.0433*%
%ADD52C,0.0098*%
%ADD53C,0.0039*%
%ADD54C,0.0079*%
%ADD55C,0.0059*%
%ADD56R,0.0257X0.0296*%
%ADD57R,0.0277X0.0296*%
%ADD58R,0.0454X0.0395*%
%ADD59R,0.0296X0.0395*%
%ADD60R,0.0296X0.0277*%
%ADD61R,0.0375X0.0355*%
%ADD62R,0.0395X0.0316*%
%ADD63R,0.0296X0.0257*%
%ADD64R,0.0769X0.0454*%
%ADD65R,0.0237X0.0237*%
G04:AMPARAMS|DCode=66|XSize=53.2mil|YSize=49.3mil|CornerRadius=0mil|HoleSize=0mil|Usage=FLASHONLY|Rotation=45.000|XOffset=0mil|YOffset=0mil|HoleType=Round|Shape=Rectangle|*
%AMROTATEDRECTD66*
4,1,4,-0.0014,-0.0363,-0.0363,-0.0014,0.0014,0.0363,0.0363,0.0014,-0.0014,-0.0363,0.0*
%
%ADD66ROTATEDRECTD66*%

%ADD67R,0.0316X0.0257*%
%ADD68R,0.0257X0.0316*%
%ADD69O,0.0316X0.0139*%
%ADD70O,0.0139X0.0316*%
%ADD71R,0.1910X0.1910*%
%ADD72R,0.0631X0.0277*%
%ADD73R,0.0631X0.0277*%
%ADD74R,0.2620X0.0460*%
%ADD75R,0.3020X0.0660*%
G04:AMPARAMS|DCode=76|XSize=25.7mil|YSize=29.6mil|CornerRadius=0mil|HoleSize=0mil|Usage=FLASHONLY|Rotation=225.000|XOffset=0mil|YOffset=0mil|HoleType=Round|Shape=Rectangle|*
%AMROTATEDRECTD76*
4,1,4,-0.0014,0.0196,0.0196,-0.0014,0.0014,-0.0196,-0.0196,0.0014,-0.0014,0.0196,0.0*
%
%ADD76ROTATEDRECTD76*%

%ADD77C,0.0787*%
%ADD78R,0.0217X0.0257*%
%ADD79C,0.0450*%
%ADD80C,0.0651*%
%ADD81C,0.0769*%
%ADD82C,0.0198*%
%ADD83C,0.0370*%
%ADD84R,0.0611X0.0473*%
%ADD85R,0.0532X0.0493*%
%ADD86C,0.0003*%
%ADD87C,0.0110*%
G36*
X3672Y3569D02*
X3627D01*
Y3674D01*
X3596Y3704D01*
X3508Y3569D01*
X3452D01*
X3564Y3735D01*
X3463Y3834D01*
X3521D01*
X3627Y3726D01*
Y3934D01*
X3672D01*
Y3569D01*
D02*
G37*
G36*
X4069Y3883D02*
X4024D01*
Y3934D01*
X4069D01*
Y3883D01*
D02*
G37*
G36*
X4540Y3679D02*
X4402D01*
Y3724D01*
X4540D01*
Y3679D01*
D02*
G37*
G36*
X4069Y3569D02*
X4024D01*
Y3834D01*
X4069D01*
Y3569D01*
D02*
G37*
G36*
X4349D02*
X4121D01*
Y3612D01*
X4300D01*
Y3934D01*
X4349D01*
Y3569D01*
D02*
G37*
G36*
X905Y3428D02*
X915Y3427D01*
X924Y3426D01*
X934Y3423D01*
X942Y3421D01*
X950Y3418D01*
X957Y3415D01*
X964Y3412D01*
X970Y3409D01*
X975Y3406D01*
X980Y3403D01*
X984Y3400D01*
X987Y3398D01*
X989Y3397D01*
X990Y3395D01*
X991Y3395D01*
X999Y3387D01*
X1006Y3378D01*
X1012Y3368D01*
X1018Y3358D01*
X1022Y3348D01*
X1026Y3337D01*
X1029Y3327D01*
X1032Y3316D01*
X1034Y3307D01*
X1035Y3298D01*
X1036Y3290D01*
X1037Y3283D01*
Y3277D01*
X1038Y3273D01*
Y3270D01*
Y3269D01*
X1037Y3255D01*
X1036Y3241D01*
X1034Y3229D01*
X1032Y3218D01*
X1028Y3207D01*
X1025Y3197D01*
X1022Y3189D01*
X1018Y3180D01*
X1014Y3173D01*
X1011Y3167D01*
X1007Y3162D01*
X1004Y3158D01*
X1002Y3155D01*
X1000Y3152D01*
X999Y3151D01*
X998Y3150D01*
X990Y3143D01*
X982Y3137D01*
X974Y3131D01*
X965Y3126D01*
X956Y3123D01*
X948Y3119D01*
X940Y3117D01*
X931Y3114D01*
X924Y3113D01*
X917Y3112D01*
X911Y3110D01*
X905Y3110D01*
X901D01*
X897Y3109D01*
X895D01*
X880Y3110D01*
X866Y3112D01*
X853Y3115D01*
X843Y3119D01*
X834Y3122D01*
X830Y3124D01*
X827Y3125D01*
X824Y3126D01*
X823Y3128D01*
X821Y3128D01*
X821D01*
X809Y3136D01*
X798Y3144D01*
X790Y3153D01*
X782Y3161D01*
X776Y3169D01*
X773Y3175D01*
X771Y3177D01*
X770Y3179D01*
X769Y3180D01*
Y3180D01*
X766Y3187D01*
X763Y3194D01*
X759Y3210D01*
X755Y3225D01*
X753Y3240D01*
X753Y3246D01*
X752Y3253D01*
X752Y3258D01*
X751Y3263D01*
Y3268D01*
Y3271D01*
Y3273D01*
Y3273D01*
X752Y3286D01*
X753Y3299D01*
X755Y3311D01*
X757Y3322D01*
X760Y3332D01*
X764Y3341D01*
X768Y3350D01*
X771Y3357D01*
X775Y3364D01*
X779Y3370D01*
X782Y3376D01*
X785Y3379D01*
X787Y3383D01*
X790Y3386D01*
X791Y3387D01*
X791Y3387D01*
X799Y3394D01*
X807Y3401D01*
X815Y3406D01*
X824Y3411D01*
X833Y3415D01*
X842Y3419D01*
X850Y3422D01*
X858Y3424D01*
X865Y3426D01*
X873Y3427D01*
X879Y3428D01*
X884Y3428D01*
X889Y3429D01*
X895D01*
X905Y3428D01*
D02*
G37*
G36*
X3432Y3116D02*
X3373D01*
Y3175D01*
X3432D01*
Y3116D01*
D02*
G37*
G36*
X1204Y3428D02*
X1218Y3426D01*
X1231Y3423D01*
X1241Y3420D01*
X1250Y3416D01*
X1254Y3415D01*
X1257Y3413D01*
X1260Y3412D01*
X1261Y3411D01*
X1263Y3410D01*
X1263D01*
X1275Y3403D01*
X1285Y3394D01*
X1294Y3384D01*
X1301Y3375D01*
X1306Y3367D01*
X1310Y3360D01*
X1312Y3358D01*
X1313Y3356D01*
X1313Y3355D01*
Y3354D01*
X1319Y3340D01*
X1323Y3325D01*
X1325Y3311D01*
X1327Y3297D01*
X1328Y3291D01*
Y3285D01*
X1329Y3280D01*
X1329Y3276D01*
Y3273D01*
Y3270D01*
Y3268D01*
Y3268D01*
X1329Y3254D01*
X1327Y3241D01*
X1326Y3229D01*
X1323Y3217D01*
X1320Y3207D01*
X1317Y3197D01*
X1314Y3188D01*
X1310Y3180D01*
X1307Y3173D01*
X1303Y3167D01*
X1300Y3162D01*
X1297Y3158D01*
X1294Y3155D01*
X1293Y3152D01*
X1292Y3151D01*
X1291Y3150D01*
X1284Y3143D01*
X1276Y3137D01*
X1268Y3131D01*
X1259Y3126D01*
X1251Y3123D01*
X1243Y3119D01*
X1235Y3117D01*
X1227Y3114D01*
X1219Y3113D01*
X1213Y3112D01*
X1206Y3110D01*
X1201Y3110D01*
X1197D01*
X1193Y3109D01*
X1191D01*
X1181Y3110D01*
X1172Y3110D01*
X1156Y3114D01*
X1142Y3119D01*
X1136Y3122D01*
X1129Y3124D01*
X1125Y3126D01*
X1120Y3129D01*
X1116Y3132D01*
X1112Y3134D01*
X1110Y3136D01*
X1108Y3137D01*
X1107Y3138D01*
X1106Y3139D01*
X1100Y3145D01*
X1094Y3151D01*
X1089Y3157D01*
X1085Y3164D01*
X1077Y3178D01*
X1072Y3191D01*
X1070Y3197D01*
X1067Y3203D01*
X1066Y3208D01*
X1065Y3212D01*
X1064Y3216D01*
X1063Y3219D01*
X1063Y3221D01*
Y3221D01*
X1114Y3228D01*
X1117Y3214D01*
X1121Y3203D01*
X1125Y3193D01*
X1129Y3185D01*
X1133Y3179D01*
X1137Y3174D01*
X1139Y3172D01*
X1140Y3170D01*
X1149Y3164D01*
X1157Y3160D01*
X1165Y3157D01*
X1173Y3155D01*
X1181Y3153D01*
X1186Y3153D01*
X1188Y3152D01*
X1191D01*
X1198Y3153D01*
X1205Y3153D01*
X1217Y3157D01*
X1227Y3161D01*
X1236Y3166D01*
X1243Y3171D01*
X1248Y3175D01*
X1252Y3179D01*
X1252Y3179D01*
X1253Y3180D01*
X1257Y3185D01*
X1260Y3192D01*
X1266Y3206D01*
X1270Y3221D01*
X1273Y3235D01*
X1274Y3242D01*
X1275Y3249D01*
X1275Y3254D01*
Y3260D01*
X1276Y3263D01*
Y3267D01*
Y3269D01*
Y3269D01*
X1275Y3280D01*
X1275Y3291D01*
X1274Y3300D01*
X1272Y3309D01*
X1270Y3317D01*
X1268Y3324D01*
X1266Y3331D01*
X1264Y3337D01*
X1261Y3341D01*
X1259Y3346D01*
X1257Y3350D01*
X1255Y3352D01*
X1254Y3355D01*
X1253Y3357D01*
X1252Y3357D01*
Y3358D01*
X1247Y3363D01*
X1242Y3367D01*
X1237Y3371D01*
X1231Y3374D01*
X1221Y3379D01*
X1211Y3383D01*
X1202Y3384D01*
X1198Y3385D01*
X1195Y3386D01*
X1192Y3386D01*
X1188D01*
X1179Y3386D01*
X1171Y3384D01*
X1163Y3381D01*
X1156Y3378D01*
X1151Y3375D01*
X1148Y3373D01*
X1145Y3371D01*
X1144Y3370D01*
X1138Y3363D01*
X1133Y3356D01*
X1128Y3349D01*
X1125Y3341D01*
X1122Y3335D01*
X1120Y3329D01*
X1119Y3327D01*
Y3326D01*
X1118Y3325D01*
Y3324D01*
X1068Y3332D01*
X1072Y3349D01*
X1078Y3363D01*
X1085Y3375D01*
X1092Y3386D01*
X1095Y3389D01*
X1099Y3393D01*
X1101Y3397D01*
X1104Y3399D01*
X1106Y3401D01*
X1107Y3403D01*
X1109Y3403D01*
X1109Y3404D01*
X1115Y3408D01*
X1122Y3412D01*
X1135Y3419D01*
X1149Y3423D01*
X1161Y3426D01*
X1167Y3427D01*
X1172Y3428D01*
X1177Y3428D01*
X1182D01*
X1185Y3429D01*
X1190D01*
X1204Y3428D01*
D02*
G37*
G36*
X1569D02*
X1575Y3427D01*
X1581Y3426D01*
X1586Y3424D01*
X1590Y3422D01*
X1593Y3420D01*
X1595Y3419D01*
X1596Y3419D01*
X1601Y3414D01*
X1607Y3408D01*
X1613Y3400D01*
X1618Y3393D01*
X1622Y3386D01*
X1626Y3381D01*
X1627Y3378D01*
X1628Y3377D01*
X1628Y3376D01*
Y3422D01*
X1675D01*
Y3116D01*
X1623D01*
Y3275D01*
X1623Y3288D01*
X1622Y3299D01*
X1621Y3309D01*
X1619Y3318D01*
X1618Y3326D01*
X1616Y3331D01*
X1616Y3333D01*
Y3335D01*
X1615Y3335D01*
Y3336D01*
X1612Y3343D01*
X1610Y3348D01*
X1606Y3353D01*
X1603Y3357D01*
X1600Y3360D01*
X1598Y3363D01*
X1596Y3364D01*
X1596Y3365D01*
X1590Y3368D01*
X1585Y3371D01*
X1580Y3372D01*
X1576Y3374D01*
X1571Y3374D01*
X1568Y3375D01*
X1565D01*
X1558Y3374D01*
X1551Y3373D01*
X1544Y3372D01*
X1539Y3370D01*
X1534Y3367D01*
X1530Y3366D01*
X1528Y3365D01*
X1527Y3364D01*
X1508Y3412D01*
X1519Y3417D01*
X1528Y3422D01*
X1538Y3425D01*
X1546Y3427D01*
X1552Y3428D01*
X1558Y3429D01*
X1562D01*
X1569Y3428D01*
D02*
G37*
G36*
X3200Y3428D02*
X3207Y3427D01*
X3214Y3426D01*
X3220Y3425D01*
X3224Y3423D01*
X3227Y3423D01*
X3228Y3422D01*
X3235Y3420D01*
X3241Y3417D01*
X3248Y3415D01*
X3252Y3412D01*
X3256Y3411D01*
X3259Y3409D01*
X3260Y3408D01*
X3261Y3408D01*
X3266Y3403D01*
X3271Y3398D01*
X3276Y3393D01*
X3279Y3389D01*
X3282Y3384D01*
X3284Y3381D01*
X3285Y3379D01*
X3286Y3378D01*
X3289Y3372D01*
X3292Y3365D01*
X3293Y3359D01*
X3294Y3353D01*
X3295Y3348D01*
X3295Y3344D01*
Y3341D01*
Y3340D01*
X3295Y3332D01*
X3294Y3324D01*
X3292Y3317D01*
X3290Y3311D01*
X3288Y3306D01*
X3286Y3302D01*
X3285Y3300D01*
X3284Y3299D01*
X3279Y3293D01*
X3274Y3287D01*
X3268Y3282D01*
X3263Y3278D01*
X3259Y3275D01*
X3255Y3273D01*
X3252Y3271D01*
X3251Y3271D01*
X3246Y3268D01*
X3241Y3267D01*
X3235Y3264D01*
X3229Y3262D01*
X3216Y3258D01*
X3203Y3254D01*
X3191Y3251D01*
X3185Y3249D01*
X3181Y3248D01*
X3177Y3247D01*
X3174Y3246D01*
X3172Y3245D01*
X3172D01*
X3164Y3244D01*
X3157Y3241D01*
X3151Y3240D01*
X3145Y3238D01*
X3140Y3236D01*
X3136Y3235D01*
X3133Y3234D01*
X3129Y3233D01*
X3124Y3231D01*
X3120Y3229D01*
X3119Y3229D01*
X3118Y3228D01*
X3113Y3224D01*
X3109Y3219D01*
X3107Y3215D01*
X3105Y3211D01*
X3103Y3207D01*
X3103Y3203D01*
Y3201D01*
Y3201D01*
X3103Y3194D01*
X3106Y3187D01*
X3108Y3181D01*
X3112Y3176D01*
X3115Y3172D01*
X3118Y3169D01*
X3120Y3167D01*
X3120Y3167D01*
X3128Y3162D01*
X3136Y3158D01*
X3145Y3156D01*
X3153Y3154D01*
X3162Y3153D01*
X3168Y3152D01*
X3174D01*
X3186Y3153D01*
X3197Y3155D01*
X3207Y3157D01*
X3215Y3161D01*
X3221Y3163D01*
X3226Y3166D01*
X3228Y3168D01*
X3229Y3168D01*
X3236Y3175D01*
X3241Y3183D01*
X3245Y3190D01*
X3249Y3198D01*
X3251Y3205D01*
X3252Y3211D01*
X3252Y3213D01*
X3253Y3214D01*
Y3215D01*
Y3216D01*
X3304Y3207D01*
X3303Y3198D01*
X3300Y3190D01*
X3298Y3183D01*
X3294Y3175D01*
X3292Y3169D01*
X3288Y3163D01*
X3284Y3157D01*
X3281Y3152D01*
X3278Y3148D01*
X3275Y3144D01*
X3272Y3141D01*
X3270Y3138D01*
X3267Y3136D01*
X3266Y3135D01*
X3265Y3134D01*
X3265Y3134D01*
X3259Y3129D01*
X3251Y3126D01*
X3237Y3120D01*
X3222Y3115D01*
X3207Y3113D01*
X3200Y3112D01*
X3194Y3110D01*
X3188Y3110D01*
X3183D01*
X3179Y3109D01*
X3173D01*
X3160Y3110D01*
X3148Y3111D01*
X3137Y3113D01*
X3128Y3115D01*
X3120Y3118D01*
X3114Y3120D01*
X3112Y3120D01*
X3110Y3121D01*
X3109Y3122D01*
X3109D01*
X3099Y3126D01*
X3090Y3133D01*
X3083Y3138D01*
X3076Y3144D01*
X3072Y3149D01*
X3068Y3153D01*
X3065Y3156D01*
X3065Y3157D01*
X3060Y3165D01*
X3056Y3174D01*
X3053Y3183D01*
X3051Y3190D01*
X3050Y3197D01*
X3050Y3202D01*
Y3205D01*
Y3206D01*
Y3206D01*
X3050Y3216D01*
X3052Y3224D01*
X3053Y3232D01*
X3056Y3238D01*
X3058Y3243D01*
X3060Y3247D01*
X3062Y3250D01*
X3062Y3250D01*
X3067Y3257D01*
X3073Y3262D01*
X3079Y3267D01*
X3084Y3271D01*
X3089Y3274D01*
X3093Y3276D01*
X3096Y3277D01*
X3097Y3278D01*
X3101Y3279D01*
X3106Y3282D01*
X3118Y3285D01*
X3130Y3289D01*
X3143Y3293D01*
X3155Y3296D01*
X3160Y3298D01*
X3164Y3299D01*
X3168Y3300D01*
X3171Y3301D01*
X3173Y3301D01*
X3173D01*
X3180Y3303D01*
X3186Y3305D01*
X3191Y3306D01*
X3196Y3308D01*
X3201Y3309D01*
X3205Y3310D01*
X3211Y3312D01*
X3215Y3313D01*
X3218Y3314D01*
X3219Y3315D01*
X3219D01*
X3224Y3317D01*
X3228Y3319D01*
X3232Y3321D01*
X3234Y3323D01*
X3237Y3326D01*
X3238Y3327D01*
X3239Y3328D01*
X3239Y3328D01*
X3241Y3332D01*
X3243Y3335D01*
X3245Y3340D01*
Y3343D01*
X3245Y3345D01*
Y3346D01*
Y3346D01*
X3245Y3352D01*
X3243Y3357D01*
X3240Y3362D01*
X3238Y3366D01*
X3235Y3370D01*
X3233Y3372D01*
X3231Y3373D01*
X3230Y3374D01*
X3224Y3378D01*
X3216Y3381D01*
X3207Y3383D01*
X3199Y3384D01*
X3191Y3386D01*
X3185Y3386D01*
X3179D01*
X3168Y3386D01*
X3159Y3384D01*
X3151Y3382D01*
X3144Y3379D01*
X3139Y3377D01*
X3135Y3374D01*
X3133Y3373D01*
X3132Y3372D01*
X3127Y3367D01*
X3122Y3361D01*
X3118Y3355D01*
X3116Y3349D01*
X3114Y3344D01*
X3113Y3340D01*
X3112Y3337D01*
Y3336D01*
X3061Y3343D01*
X3063Y3354D01*
X3066Y3363D01*
X3069Y3371D01*
X3072Y3377D01*
X3075Y3383D01*
X3077Y3387D01*
X3079Y3389D01*
X3079Y3390D01*
X3085Y3397D01*
X3091Y3402D01*
X3098Y3407D01*
X3105Y3411D01*
X3111Y3414D01*
X3116Y3417D01*
X3119Y3418D01*
X3119Y3419D01*
X3120D01*
X3130Y3422D01*
X3141Y3425D01*
X3152Y3426D01*
X3161Y3428D01*
X3170Y3428D01*
X3173D01*
X3177Y3429D01*
X3191D01*
X3200Y3428D01*
D02*
G37*
G36*
X1463Y3116D02*
X1403D01*
Y3175D01*
X1463D01*
Y3116D01*
D02*
G37*
G36*
X3841Y3839D02*
X3851Y3837D01*
X3859Y3835D01*
X3867Y3833D01*
X3875Y3829D01*
X3882Y3826D01*
X3888Y3822D01*
X3894Y3817D01*
X3899Y3813D01*
X3903Y3809D01*
X3906Y3806D01*
X3910Y3802D01*
X3912Y3800D01*
X3914Y3797D01*
X3915Y3796D01*
X3915Y3796D01*
Y3834D01*
X3955D01*
Y3569D01*
X3911D01*
Y3713D01*
X3910Y3722D01*
X3910Y3731D01*
X3909Y3738D01*
X3907Y3745D01*
X3906Y3751D01*
X3904Y3757D01*
X3902Y3762D01*
X3900Y3767D01*
X3898Y3770D01*
X3897Y3773D01*
X3895Y3776D01*
X3894Y3778D01*
X3892Y3780D01*
X3891Y3781D01*
X3890Y3782D01*
X3882Y3788D01*
X3874Y3793D01*
X3865Y3796D01*
X3858Y3798D01*
X3851Y3799D01*
X3845Y3800D01*
X3843Y3800D01*
X3840D01*
X3834Y3800D01*
X3828Y3799D01*
X3823Y3797D01*
X3819Y3796D01*
X3815Y3795D01*
X3812Y3793D01*
X3810Y3792D01*
X3810Y3792D01*
X3805Y3788D01*
X3801Y3785D01*
X3798Y3781D01*
X3795Y3778D01*
X3793Y3775D01*
X3792Y3772D01*
X3791Y3770D01*
Y3770D01*
X3789Y3764D01*
X3788Y3758D01*
X3787Y3751D01*
X3786Y3745D01*
Y3739D01*
X3785Y3734D01*
Y3732D01*
Y3731D01*
Y3730D01*
Y3730D01*
Y3569D01*
X3741D01*
Y3731D01*
Y3742D01*
X3741Y3751D01*
X3742Y3759D01*
X3742Y3765D01*
X3743Y3769D01*
X3743Y3772D01*
X3744Y3774D01*
Y3775D01*
X3745Y3782D01*
X3747Y3788D01*
X3750Y3794D01*
X3752Y3798D01*
X3754Y3803D01*
X3756Y3806D01*
X3757Y3807D01*
X3757Y3808D01*
X3762Y3813D01*
X3766Y3817D01*
X3771Y3821D01*
X3776Y3824D01*
X3781Y3827D01*
X3784Y3829D01*
X3786Y3830D01*
X3787Y3830D01*
X3795Y3833D01*
X3802Y3835D01*
X3810Y3837D01*
X3817Y3838D01*
X3823Y3839D01*
X3827Y3839D01*
X3831D01*
X3841Y3839D01*
D02*
G37*
G36*
X1657D02*
X1666Y3837D01*
X1675Y3835D01*
X1683Y3833D01*
X1691Y3829D01*
X1697Y3826D01*
X1703Y3822D01*
X1709Y3817D01*
X1714Y3813D01*
X1719Y3809D01*
X1722Y3806D01*
X1725Y3802D01*
X1728Y3800D01*
X1729Y3797D01*
X1730Y3796D01*
X1730Y3796D01*
Y3834D01*
X1771D01*
Y3569D01*
X1726D01*
Y3713D01*
X1726Y3722D01*
X1725Y3731D01*
X1724Y3738D01*
X1723Y3745D01*
X1721Y3751D01*
X1720Y3757D01*
X1718Y3762D01*
X1716Y3767D01*
X1714Y3770D01*
X1712Y3773D01*
X1711Y3776D01*
X1709Y3778D01*
X1708Y3780D01*
X1707Y3781D01*
X1706Y3782D01*
X1698Y3788D01*
X1689Y3793D01*
X1681Y3796D01*
X1673Y3798D01*
X1666Y3799D01*
X1661Y3800D01*
X1659Y3800D01*
X1656D01*
X1650Y3800D01*
X1644Y3799D01*
X1638Y3797D01*
X1634Y3796D01*
X1630Y3795D01*
X1627Y3793D01*
X1626Y3792D01*
X1625Y3792D01*
X1620Y3788D01*
X1616Y3785D01*
X1613Y3781D01*
X1611Y3778D01*
X1609Y3775D01*
X1607Y3772D01*
X1607Y3770D01*
Y3770D01*
X1605Y3764D01*
X1603Y3758D01*
X1602Y3751D01*
X1601Y3745D01*
Y3739D01*
X1601Y3734D01*
Y3732D01*
Y3731D01*
Y3730D01*
Y3730D01*
Y3569D01*
X1556D01*
Y3731D01*
Y3742D01*
X1557Y3751D01*
X1557Y3759D01*
X1558Y3765D01*
X1558Y3769D01*
X1559Y3772D01*
X1559Y3774D01*
Y3775D01*
X1561Y3782D01*
X1563Y3788D01*
X1565Y3794D01*
X1567Y3798D01*
X1569Y3803D01*
X1571Y3806D01*
X1572Y3807D01*
X1573Y3808D01*
X1577Y3813D01*
X1582Y3817D01*
X1587Y3821D01*
X1591Y3824D01*
X1596Y3827D01*
X1599Y3829D01*
X1602Y3830D01*
X1603Y3830D01*
X1610Y3833D01*
X1618Y3835D01*
X1626Y3837D01*
X1632Y3838D01*
X1638Y3839D01*
X1643Y3839D01*
X1647D01*
X1657Y3839D01*
D02*
G37*
G36*
X2927Y3891D02*
X2806D01*
Y3569D01*
X2758D01*
Y3891D01*
X2638D01*
Y3934D01*
X2927D01*
Y3891D01*
D02*
G37*
G36*
X1205Y3569D02*
X1160D01*
Y3934D01*
X1205D01*
Y3569D01*
D02*
G37*
G36*
X992Y3839D02*
X1001Y3838D01*
X1009Y3836D01*
X1017Y3835D01*
X1024Y3833D01*
X1031Y3830D01*
X1037Y3827D01*
X1043Y3825D01*
X1048Y3822D01*
X1053Y3819D01*
X1057Y3816D01*
X1060Y3815D01*
X1063Y3813D01*
X1065Y3811D01*
X1066Y3810D01*
X1066Y3810D01*
X1074Y3803D01*
X1080Y3795D01*
X1085Y3787D01*
X1090Y3778D01*
X1094Y3769D01*
X1097Y3760D01*
X1100Y3751D01*
X1102Y3742D01*
X1103Y3734D01*
X1104Y3726D01*
X1105Y3719D01*
X1106Y3713D01*
Y3708D01*
X1107Y3704D01*
Y3702D01*
Y3701D01*
X1106Y3689D01*
X1105Y3677D01*
X1103Y3667D01*
X1102Y3657D01*
X1099Y3647D01*
X1096Y3639D01*
X1093Y3632D01*
X1090Y3625D01*
X1086Y3618D01*
X1084Y3613D01*
X1081Y3609D01*
X1078Y3605D01*
X1076Y3602D01*
X1074Y3600D01*
X1073Y3599D01*
X1073Y3598D01*
X1066Y3592D01*
X1059Y3587D01*
X1052Y3582D01*
X1044Y3578D01*
X1037Y3575D01*
X1029Y3572D01*
X1022Y3569D01*
X1015Y3568D01*
X1008Y3566D01*
X1002Y3565D01*
X997Y3564D01*
X992Y3564D01*
X989D01*
X986Y3563D01*
X983D01*
X970Y3564D01*
X959Y3566D01*
X948Y3569D01*
X939Y3571D01*
X931Y3574D01*
X927Y3576D01*
X925Y3577D01*
X923Y3578D01*
X921Y3579D01*
X920Y3579D01*
X920D01*
X909Y3586D01*
X900Y3593D01*
X893Y3601D01*
X886Y3608D01*
X881Y3615D01*
X878Y3620D01*
X876Y3622D01*
X875Y3623D01*
X875Y3624D01*
Y3625D01*
X872Y3630D01*
X870Y3636D01*
X866Y3650D01*
X863Y3663D01*
X861Y3676D01*
X861Y3682D01*
X860Y3687D01*
X860Y3692D01*
X859Y3696D01*
Y3700D01*
Y3702D01*
Y3704D01*
Y3705D01*
X860Y3716D01*
X861Y3727D01*
X863Y3737D01*
X865Y3747D01*
X867Y3756D01*
X870Y3764D01*
X874Y3771D01*
X876Y3778D01*
X880Y3783D01*
X883Y3788D01*
X886Y3793D01*
X889Y3797D01*
X891Y3799D01*
X893Y3802D01*
X894Y3803D01*
X894Y3803D01*
X901Y3809D01*
X908Y3815D01*
X915Y3820D01*
X923Y3824D01*
X930Y3827D01*
X938Y3830D01*
X945Y3833D01*
X951Y3835D01*
X958Y3836D01*
X964Y3837D01*
X970Y3838D01*
X974Y3839D01*
X978Y3839D01*
X983D01*
X992Y3839D01*
D02*
G37*
G36*
X1389D02*
X1398Y3838D01*
X1406Y3836D01*
X1414Y3835D01*
X1421Y3833D01*
X1428Y3830D01*
X1435Y3827D01*
X1440Y3825D01*
X1445Y3822D01*
X1450Y3819D01*
X1454Y3816D01*
X1457Y3815D01*
X1460Y3813D01*
X1462Y3811D01*
X1463Y3810D01*
X1464Y3810D01*
X1471Y3803D01*
X1477Y3795D01*
X1482Y3787D01*
X1487Y3778D01*
X1491Y3769D01*
X1494Y3760D01*
X1497Y3751D01*
X1499Y3742D01*
X1501Y3734D01*
X1502Y3726D01*
X1502Y3719D01*
X1503Y3713D01*
Y3708D01*
X1504Y3704D01*
Y3702D01*
Y3701D01*
X1503Y3689D01*
X1502Y3677D01*
X1501Y3667D01*
X1499Y3657D01*
X1496Y3647D01*
X1493Y3639D01*
X1490Y3632D01*
X1487Y3625D01*
X1483Y3618D01*
X1481Y3613D01*
X1478Y3609D01*
X1475Y3605D01*
X1473Y3602D01*
X1471Y3600D01*
X1470Y3599D01*
X1470Y3598D01*
X1463Y3592D01*
X1456Y3587D01*
X1449Y3582D01*
X1441Y3578D01*
X1434Y3575D01*
X1426Y3572D01*
X1419Y3569D01*
X1412Y3568D01*
X1406Y3566D01*
X1399Y3565D01*
X1394Y3564D01*
X1389Y3564D01*
X1386D01*
X1383Y3563D01*
X1380D01*
X1368Y3564D01*
X1356Y3566D01*
X1345Y3569D01*
X1336Y3571D01*
X1328Y3574D01*
X1324Y3576D01*
X1322Y3577D01*
X1320Y3578D01*
X1318Y3579D01*
X1317Y3579D01*
X1317D01*
X1306Y3586D01*
X1297Y3593D01*
X1290Y3601D01*
X1284Y3608D01*
X1278Y3615D01*
X1275Y3620D01*
X1274Y3622D01*
X1273Y3623D01*
X1272Y3624D01*
Y3625D01*
X1269Y3630D01*
X1267Y3636D01*
X1263Y3650D01*
X1260Y3663D01*
X1258Y3676D01*
X1258Y3682D01*
X1257Y3687D01*
X1257Y3692D01*
X1256Y3696D01*
Y3700D01*
Y3702D01*
Y3704D01*
Y3705D01*
X1257Y3716D01*
X1258Y3727D01*
X1260Y3737D01*
X1262Y3747D01*
X1265Y3756D01*
X1267Y3764D01*
X1271Y3771D01*
X1274Y3778D01*
X1277Y3783D01*
X1280Y3788D01*
X1283Y3793D01*
X1286Y3797D01*
X1288Y3799D01*
X1290Y3802D01*
X1291Y3803D01*
X1291Y3803D01*
X1298Y3809D01*
X1305Y3815D01*
X1312Y3820D01*
X1320Y3824D01*
X1327Y3827D01*
X1335Y3830D01*
X1342Y3833D01*
X1349Y3835D01*
X1355Y3836D01*
X1361Y3837D01*
X1367Y3838D01*
X1371Y3839D01*
X1375Y3839D01*
X1380D01*
X1389Y3839D01*
D02*
G37*
G36*
X2215D02*
X2227Y3837D01*
X2238Y3834D01*
X2247Y3831D01*
X2255Y3828D01*
X2258Y3827D01*
X2261Y3826D01*
X2263Y3825D01*
X2264Y3824D01*
X2265Y3823D01*
X2266D01*
X2276Y3816D01*
X2285Y3809D01*
X2292Y3801D01*
X2298Y3793D01*
X2303Y3786D01*
X2306Y3780D01*
X2308Y3778D01*
X2309Y3776D01*
X2309Y3775D01*
Y3775D01*
X2314Y3762D01*
X2317Y3749D01*
X2319Y3737D01*
X2321Y3725D01*
X2322Y3720D01*
Y3715D01*
X2322Y3711D01*
X2323Y3707D01*
Y3704D01*
Y3702D01*
Y3701D01*
Y3700D01*
X2322Y3688D01*
X2321Y3677D01*
X2320Y3666D01*
X2318Y3656D01*
X2315Y3647D01*
X2312Y3639D01*
X2310Y3631D01*
X2306Y3625D01*
X2303Y3618D01*
X2300Y3613D01*
X2298Y3609D01*
X2295Y3605D01*
X2293Y3602D01*
X2291Y3600D01*
X2291Y3599D01*
X2290Y3598D01*
X2284Y3592D01*
X2277Y3587D01*
X2270Y3582D01*
X2262Y3578D01*
X2255Y3575D01*
X2248Y3572D01*
X2241Y3569D01*
X2234Y3568D01*
X2228Y3566D01*
X2222Y3565D01*
X2217Y3564D01*
X2212Y3564D01*
X2208D01*
X2205Y3563D01*
X2203D01*
X2195Y3564D01*
X2187Y3564D01*
X2174Y3567D01*
X2161Y3571D01*
X2156Y3574D01*
X2150Y3576D01*
X2146Y3578D01*
X2142Y3580D01*
X2139Y3583D01*
X2136Y3585D01*
X2133Y3586D01*
X2132Y3588D01*
X2131Y3588D01*
X2130Y3588D01*
X2125Y3594D01*
X2120Y3599D01*
X2116Y3605D01*
X2112Y3610D01*
X2105Y3622D01*
X2101Y3634D01*
X2099Y3639D01*
X2097Y3644D01*
X2096Y3648D01*
X2094Y3652D01*
X2094Y3655D01*
X2093Y3658D01*
X2093Y3659D01*
Y3660D01*
X2137Y3666D01*
X2139Y3654D01*
X2143Y3644D01*
X2147Y3636D01*
X2150Y3628D01*
X2154Y3623D01*
X2157Y3619D01*
X2159Y3617D01*
X2160Y3616D01*
X2167Y3611D01*
X2174Y3607D01*
X2181Y3604D01*
X2188Y3602D01*
X2195Y3601D01*
X2199Y3601D01*
X2201Y3600D01*
X2204D01*
X2210Y3601D01*
X2215Y3601D01*
X2226Y3604D01*
X2235Y3608D01*
X2243Y3612D01*
X2249Y3616D01*
X2253Y3620D01*
X2256Y3623D01*
X2256Y3624D01*
X2257Y3624D01*
X2260Y3629D01*
X2263Y3635D01*
X2268Y3646D01*
X2272Y3659D01*
X2274Y3672D01*
X2275Y3678D01*
X2276Y3683D01*
X2276Y3688D01*
Y3693D01*
X2277Y3696D01*
Y3699D01*
Y3701D01*
Y3702D01*
X2276Y3711D01*
X2276Y3720D01*
X2275Y3728D01*
X2273Y3736D01*
X2272Y3742D01*
X2270Y3749D01*
X2268Y3754D01*
X2266Y3759D01*
X2264Y3764D01*
X2262Y3768D01*
X2261Y3771D01*
X2259Y3773D01*
X2258Y3776D01*
X2257Y3777D01*
X2256Y3778D01*
Y3778D01*
X2252Y3782D01*
X2247Y3786D01*
X2243Y3789D01*
X2238Y3792D01*
X2229Y3797D01*
X2221Y3799D01*
X2213Y3801D01*
X2210Y3801D01*
X2207Y3802D01*
X2205Y3802D01*
X2201D01*
X2193Y3802D01*
X2186Y3800D01*
X2179Y3798D01*
X2174Y3796D01*
X2169Y3793D01*
X2166Y3791D01*
X2164Y3789D01*
X2163Y3788D01*
X2158Y3783D01*
X2153Y3777D01*
X2149Y3770D01*
X2146Y3764D01*
X2144Y3758D01*
X2142Y3753D01*
X2141Y3751D01*
Y3750D01*
X2141Y3749D01*
Y3749D01*
X2097Y3756D01*
X2101Y3770D01*
X2106Y3782D01*
X2112Y3793D01*
X2118Y3802D01*
X2121Y3805D01*
X2124Y3808D01*
X2126Y3811D01*
X2129Y3814D01*
X2130Y3815D01*
X2131Y3816D01*
X2132Y3817D01*
X2133Y3817D01*
X2138Y3821D01*
X2144Y3825D01*
X2155Y3830D01*
X2167Y3834D01*
X2178Y3836D01*
X2183Y3837D01*
X2187Y3838D01*
X2192Y3839D01*
X2196D01*
X2198Y3839D01*
X2203D01*
X2215Y3839D01*
D02*
G37*
G36*
X2054Y3569D02*
X2010D01*
Y3713D01*
X2009Y3724D01*
X2009Y3734D01*
X2007Y3743D01*
X2006Y3749D01*
X2005Y3755D01*
X2004Y3759D01*
X2003Y3761D01*
X2003Y3762D01*
X1999Y3769D01*
X1996Y3774D01*
X1991Y3779D01*
X1987Y3783D01*
X1984Y3786D01*
X1980Y3788D01*
X1978Y3790D01*
X1977Y3790D01*
X1971Y3794D01*
X1964Y3797D01*
X1958Y3798D01*
X1952Y3799D01*
X1948Y3800D01*
X1944Y3801D01*
X1940D01*
X1931Y3800D01*
X1923Y3798D01*
X1916Y3796D01*
X1910Y3793D01*
X1905Y3790D01*
X1902Y3787D01*
X1900Y3786D01*
X1899Y3785D01*
X1894Y3778D01*
X1891Y3771D01*
X1888Y3763D01*
X1886Y3755D01*
X1885Y3748D01*
X1885Y3744D01*
X1884Y3742D01*
Y3740D01*
Y3738D01*
Y3737D01*
Y3736D01*
Y3569D01*
X1840D01*
Y3736D01*
X1840Y3750D01*
X1841Y3762D01*
X1843Y3772D01*
X1844Y3780D01*
X1846Y3787D01*
X1848Y3792D01*
X1849Y3795D01*
X1849Y3796D01*
X1854Y3803D01*
X1858Y3809D01*
X1863Y3815D01*
X1868Y3819D01*
X1873Y3823D01*
X1877Y3826D01*
X1880Y3827D01*
X1880Y3827D01*
X1881D01*
X1889Y3831D01*
X1898Y3834D01*
X1906Y3836D01*
X1914Y3838D01*
X1920Y3839D01*
X1926Y3839D01*
X1931D01*
X1939Y3839D01*
X1948Y3838D01*
X1956Y3836D01*
X1964Y3834D01*
X1970Y3831D01*
X1977Y3828D01*
X1983Y3825D01*
X1988Y3821D01*
X1993Y3817D01*
X1997Y3814D01*
X2001Y3811D01*
X2004Y3808D01*
X2006Y3806D01*
X2008Y3804D01*
X2009Y3803D01*
X2010Y3803D01*
Y3934D01*
X2054D01*
Y3569D01*
D02*
G37*
G36*
X4644Y3683D02*
Y3672D01*
X4645Y3662D01*
X4646Y3654D01*
X4646Y3648D01*
X4647Y3643D01*
X4648Y3640D01*
X4649Y3637D01*
X4649Y3637D01*
X4651Y3632D01*
X4654Y3627D01*
X4657Y3624D01*
X4660Y3620D01*
X4663Y3617D01*
X4665Y3616D01*
X4667Y3615D01*
X4667Y3614D01*
X4673Y3611D01*
X4678Y3609D01*
X4683Y3608D01*
X4688Y3607D01*
X4692Y3607D01*
X4696Y3606D01*
X4699D01*
X4707Y3607D01*
X4715Y3608D01*
X4722Y3611D01*
X4727Y3614D01*
X4732Y3616D01*
X4735Y3619D01*
X4737Y3621D01*
X4738Y3621D01*
X4740Y3625D01*
X4742Y3628D01*
X4746Y3636D01*
X4749Y3646D01*
X4751Y3655D01*
X4751Y3664D01*
X4752Y3668D01*
X4752Y3672D01*
X4753Y3674D01*
Y3676D01*
Y3678D01*
Y3678D01*
X4797Y3672D01*
Y3662D01*
X4796Y3653D01*
X4795Y3645D01*
X4793Y3636D01*
X4791Y3629D01*
X4789Y3623D01*
X4787Y3616D01*
X4785Y3611D01*
X4783Y3606D01*
X4780Y3602D01*
X4778Y3598D01*
X4776Y3596D01*
X4775Y3593D01*
X4773Y3592D01*
X4773Y3591D01*
X4772Y3590D01*
X4767Y3586D01*
X4762Y3581D01*
X4756Y3578D01*
X4750Y3575D01*
X4744Y3572D01*
X4738Y3569D01*
X4726Y3566D01*
X4721Y3565D01*
X4715Y3564D01*
X4711Y3564D01*
X4707Y3563D01*
X4703Y3563D01*
X4699D01*
X4687Y3563D01*
X4676Y3565D01*
X4666Y3567D01*
X4658Y3569D01*
X4651Y3571D01*
X4646Y3574D01*
X4645Y3575D01*
X4643Y3575D01*
X4643Y3576D01*
X4642D01*
X4634Y3581D01*
X4627Y3588D01*
X4620Y3594D01*
X4616Y3600D01*
X4612Y3606D01*
X4609Y3610D01*
X4608Y3612D01*
X4608Y3613D01*
X4607Y3614D01*
Y3614D01*
X4605Y3619D01*
X4603Y3625D01*
X4600Y3636D01*
X4599Y3648D01*
X4597Y3659D01*
X4597Y3664D01*
X4596Y3670D01*
Y3674D01*
X4596Y3678D01*
Y3681D01*
Y3683D01*
Y3685D01*
Y3685D01*
Y3934D01*
X4644D01*
Y3683D01*
D02*
G37*
G36*
X723Y3838D02*
X734Y3836D01*
X744Y3834D01*
X753Y3831D01*
X761Y3827D01*
X764Y3826D01*
X766Y3825D01*
X768Y3823D01*
X770Y3823D01*
X771Y3822D01*
X771D01*
X780Y3815D01*
X788Y3807D01*
X795Y3798D01*
X800Y3790D01*
X805Y3783D01*
X807Y3780D01*
X808Y3778D01*
X809Y3775D01*
X810Y3774D01*
X810Y3773D01*
Y3772D01*
X815Y3760D01*
X818Y3748D01*
X821Y3736D01*
X822Y3725D01*
X823Y3721D01*
Y3716D01*
X824Y3712D01*
X824Y3709D01*
Y3706D01*
Y3704D01*
Y3703D01*
Y3702D01*
X824Y3692D01*
X823Y3683D01*
X821Y3674D01*
X819Y3664D01*
X817Y3656D01*
X815Y3648D01*
X812Y3641D01*
X809Y3635D01*
X807Y3629D01*
X804Y3623D01*
X801Y3619D01*
X799Y3615D01*
X797Y3612D01*
X796Y3610D01*
X795Y3608D01*
X794Y3608D01*
X789Y3601D01*
X782Y3595D01*
X775Y3590D01*
X769Y3586D01*
X761Y3582D01*
X754Y3578D01*
X747Y3576D01*
X741Y3574D01*
X734Y3572D01*
X729Y3571D01*
X723Y3570D01*
X719Y3569D01*
X715D01*
X712Y3569D01*
X710D01*
X702Y3569D01*
X694Y3570D01*
X687Y3572D01*
X680Y3574D01*
X667Y3580D01*
X662Y3583D01*
X657Y3587D01*
X652Y3589D01*
X648Y3593D01*
X645Y3596D01*
X642Y3598D01*
X639Y3600D01*
X638Y3602D01*
X637Y3603D01*
X637Y3604D01*
Y3596D01*
Y3589D01*
Y3582D01*
X637Y3577D01*
Y3571D01*
X638Y3567D01*
Y3562D01*
X638Y3559D01*
X638Y3556D01*
Y3553D01*
X639Y3550D01*
X640Y3547D01*
Y3547D01*
X642Y3539D01*
X646Y3532D01*
X649Y3526D01*
X653Y3521D01*
X657Y3517D01*
X660Y3514D01*
X662Y3512D01*
X663Y3512D01*
X670Y3508D01*
X677Y3504D01*
X685Y3503D01*
X693Y3501D01*
X700Y3500D01*
X705Y3499D01*
X711D01*
X721Y3500D01*
X730Y3501D01*
X738Y3503D01*
X744Y3506D01*
X750Y3508D01*
X753Y3510D01*
X755Y3512D01*
X756Y3512D01*
X761Y3516D01*
X764Y3521D01*
X767Y3525D01*
X769Y3531D01*
X770Y3535D01*
X771Y3538D01*
X771Y3541D01*
Y3541D01*
X815Y3548D01*
Y3540D01*
X814Y3532D01*
X813Y3526D01*
X811Y3520D01*
X809Y3514D01*
X807Y3509D01*
X804Y3504D01*
X801Y3500D01*
X799Y3496D01*
X796Y3493D01*
X794Y3490D01*
X791Y3487D01*
X790Y3486D01*
X789Y3484D01*
X788Y3484D01*
X787Y3483D01*
X781Y3480D01*
X775Y3476D01*
X763Y3471D01*
X750Y3467D01*
X738Y3465D01*
X732Y3464D01*
X727Y3463D01*
X723Y3463D01*
X718D01*
X715Y3462D01*
X711D01*
X696Y3463D01*
X683Y3465D01*
X672Y3467D01*
X662Y3470D01*
X658Y3471D01*
X654Y3473D01*
X651Y3474D01*
X648Y3475D01*
X647Y3476D01*
X645Y3477D01*
X644Y3477D01*
X644D01*
X634Y3483D01*
X626Y3490D01*
X619Y3497D01*
X613Y3503D01*
X609Y3509D01*
X606Y3514D01*
X605Y3516D01*
X604Y3517D01*
X604Y3518D01*
Y3518D01*
X601Y3523D01*
X600Y3529D01*
X598Y3536D01*
X596Y3542D01*
X594Y3557D01*
X592Y3571D01*
X592Y3578D01*
X591Y3584D01*
Y3590D01*
X591Y3595D01*
Y3599D01*
Y3602D01*
Y3605D01*
Y3605D01*
Y3834D01*
X632D01*
Y3801D01*
X638Y3807D01*
X644Y3814D01*
X651Y3819D01*
X657Y3823D01*
X664Y3827D01*
X670Y3830D01*
X676Y3833D01*
X682Y3835D01*
X688Y3836D01*
X693Y3837D01*
X698Y3838D01*
X702Y3839D01*
X705D01*
X708Y3839D01*
X710D01*
X723Y3838D01*
D02*
G37*
G36*
X2495Y3839D02*
X2505Y3838D01*
X2514Y3836D01*
X2522Y3834D01*
X2530Y3831D01*
X2538Y3827D01*
X2544Y3824D01*
X2550Y3821D01*
X2556Y3817D01*
X2560Y3814D01*
X2565Y3811D01*
X2568Y3808D01*
X2571Y3806D01*
X2573Y3804D01*
X2574Y3803D01*
X2574Y3802D01*
X2580Y3795D01*
X2585Y3787D01*
X2590Y3779D01*
X2594Y3770D01*
X2597Y3762D01*
X2600Y3753D01*
X2602Y3745D01*
X2604Y3737D01*
X2605Y3729D01*
X2606Y3722D01*
X2607Y3715D01*
X2608Y3710D01*
Y3705D01*
X2608Y3702D01*
Y3700D01*
Y3699D01*
X2608Y3687D01*
X2607Y3676D01*
X2605Y3666D01*
X2603Y3656D01*
X2601Y3647D01*
X2598Y3639D01*
X2595Y3632D01*
X2591Y3625D01*
X2588Y3619D01*
X2585Y3614D01*
X2582Y3609D01*
X2580Y3606D01*
X2578Y3603D01*
X2576Y3601D01*
X2575Y3599D01*
X2575Y3599D01*
X2568Y3593D01*
X2561Y3587D01*
X2553Y3582D01*
X2546Y3578D01*
X2538Y3575D01*
X2530Y3572D01*
X2523Y3569D01*
X2516Y3568D01*
X2509Y3566D01*
X2502Y3565D01*
X2497Y3564D01*
X2492Y3564D01*
X2488D01*
X2485Y3563D01*
X2482D01*
X2474Y3564D01*
X2466Y3564D01*
X2451Y3567D01*
X2444Y3569D01*
X2438Y3570D01*
X2433Y3572D01*
X2427Y3575D01*
X2423Y3577D01*
X2419Y3578D01*
X2415Y3580D01*
X2412Y3582D01*
X2410Y3584D01*
X2408Y3585D01*
X2407Y3586D01*
X2407D01*
X2397Y3595D01*
X2388Y3605D01*
X2381Y3616D01*
X2376Y3626D01*
X2372Y3635D01*
X2370Y3639D01*
X2369Y3642D01*
X2367Y3645D01*
X2367Y3647D01*
X2367Y3648D01*
Y3649D01*
X2413Y3655D01*
X2417Y3645D01*
X2422Y3636D01*
X2426Y3629D01*
X2431Y3623D01*
X2434Y3619D01*
X2438Y3616D01*
X2440Y3614D01*
X2441Y3613D01*
X2447Y3609D01*
X2454Y3606D01*
X2462Y3604D01*
X2468Y3602D01*
X2474Y3601D01*
X2478Y3600D01*
X2482D01*
X2489Y3601D01*
X2494Y3601D01*
X2505Y3604D01*
X2515Y3607D01*
X2523Y3612D01*
X2529Y3616D01*
X2534Y3620D01*
X2536Y3621D01*
X2537Y3622D01*
X2538Y3623D01*
X2538Y3623D01*
X2542Y3628D01*
X2545Y3633D01*
X2551Y3643D01*
X2555Y3654D01*
X2558Y3665D01*
X2560Y3674D01*
X2561Y3679D01*
X2561Y3683D01*
X2562Y3685D01*
X2562Y3688D01*
Y3689D01*
Y3690D01*
X2365D01*
X2365Y3695D01*
Y3699D01*
Y3701D01*
Y3702D01*
X2365Y3713D01*
X2366Y3725D01*
X2368Y3735D01*
X2370Y3745D01*
X2372Y3754D01*
X2375Y3762D01*
X2378Y3770D01*
X2381Y3777D01*
X2385Y3783D01*
X2388Y3788D01*
X2391Y3793D01*
X2393Y3797D01*
X2395Y3799D01*
X2397Y3801D01*
X2398Y3803D01*
X2398Y3803D01*
X2405Y3809D01*
X2412Y3815D01*
X2419Y3820D01*
X2426Y3824D01*
X2433Y3827D01*
X2441Y3830D01*
X2448Y3833D01*
X2454Y3835D01*
X2461Y3836D01*
X2467Y3837D01*
X2472Y3838D01*
X2476Y3839D01*
X2480Y3839D01*
X2485D01*
X2495Y3839D01*
D02*
G37*
G36*
X448Y3569D02*
X450Y3564D01*
X451Y3561D01*
X452Y3559D01*
X452Y3558D01*
X454Y3553D01*
X456Y3549D01*
X458Y3541D01*
X461Y3536D01*
X463Y3531D01*
X464Y3528D01*
X465Y3526D01*
X466Y3525D01*
Y3524D01*
X471Y3518D01*
X476Y3514D01*
X477Y3512D01*
X479Y3512D01*
X480Y3511D01*
X481D01*
X484Y3509D01*
X488Y3508D01*
X496Y3506D01*
X499D01*
X502Y3505D01*
X505D01*
X513Y3506D01*
X517Y3507D01*
X521Y3508D01*
X524Y3508D01*
X527Y3509D01*
X529Y3510D01*
X530D01*
X525Y3468D01*
X519Y3466D01*
X514Y3465D01*
X509Y3464D01*
X505Y3463D01*
X501Y3463D01*
X498Y3462D01*
X496D01*
X488Y3463D01*
X481Y3464D01*
X475Y3465D01*
X470Y3467D01*
X465Y3469D01*
X462Y3471D01*
X460Y3472D01*
X459Y3473D01*
X454Y3477D01*
X448Y3482D01*
X444Y3487D01*
X440Y3493D01*
X437Y3497D01*
X434Y3502D01*
X432Y3504D01*
X432Y3505D01*
X430Y3508D01*
X428Y3512D01*
X424Y3521D01*
X420Y3531D01*
X416Y3541D01*
X412Y3550D01*
X410Y3554D01*
X410Y3558D01*
X408Y3560D01*
X407Y3563D01*
X407Y3564D01*
Y3565D01*
X306Y3834D01*
X351D01*
X408Y3679D01*
X411Y3668D01*
X415Y3657D01*
X419Y3647D01*
X421Y3638D01*
X423Y3631D01*
X424Y3627D01*
X425Y3625D01*
X426Y3622D01*
X426Y3621D01*
X427Y3620D01*
Y3619D01*
X430Y3631D01*
X433Y3643D01*
X437Y3653D01*
X439Y3662D01*
X442Y3670D01*
X443Y3673D01*
X444Y3675D01*
X445Y3678D01*
X445Y3679D01*
X446Y3680D01*
Y3681D01*
X501Y3834D01*
X549D01*
X448Y3569D01*
D02*
G37*
G36*
X1567Y4301D02*
X1522D01*
Y4451D01*
X1463D01*
X1458Y4451D01*
X1454D01*
X1451Y4451D01*
X1448Y4450D01*
X1446D01*
X1445Y4450D01*
X1445D01*
X1437Y4447D01*
X1434Y4446D01*
X1431Y4444D01*
X1428Y4443D01*
X1426Y4441D01*
X1425Y4441D01*
X1425Y4440D01*
X1421Y4437D01*
X1417Y4434D01*
X1413Y4430D01*
X1409Y4426D01*
X1406Y4423D01*
X1404Y4420D01*
X1402Y4418D01*
X1402Y4417D01*
X1396Y4411D01*
X1391Y4403D01*
X1386Y4396D01*
X1380Y4388D01*
X1376Y4382D01*
X1374Y4379D01*
X1372Y4376D01*
X1371Y4374D01*
X1370Y4372D01*
X1369Y4372D01*
Y4371D01*
X1324Y4301D01*
X1268D01*
X1327Y4393D01*
X1333Y4402D01*
X1340Y4411D01*
X1346Y4419D01*
X1352Y4425D01*
X1357Y4431D01*
X1361Y4435D01*
X1363Y4437D01*
X1364Y4438D01*
X1364D01*
X1368Y4441D01*
X1372Y4444D01*
X1381Y4450D01*
X1385Y4452D01*
X1388Y4454D01*
X1390Y4454D01*
X1391Y4455D01*
X1382Y4456D01*
X1374Y4458D01*
X1366Y4460D01*
X1359Y4462D01*
X1353Y4465D01*
X1346Y4468D01*
X1341Y4470D01*
X1336Y4473D01*
X1332Y4476D01*
X1329Y4478D01*
X1326Y4481D01*
X1323Y4482D01*
X1321Y4484D01*
X1320Y4485D01*
X1319Y4486D01*
X1319Y4486D01*
X1315Y4491D01*
X1311Y4496D01*
X1308Y4501D01*
X1305Y4506D01*
X1301Y4516D01*
X1298Y4526D01*
X1297Y4534D01*
X1296Y4538D01*
X1296Y4541D01*
X1295Y4544D01*
Y4545D01*
Y4547D01*
Y4547D01*
X1296Y4557D01*
X1298Y4567D01*
X1300Y4576D01*
X1302Y4583D01*
X1305Y4589D01*
X1307Y4594D01*
X1308Y4596D01*
X1309Y4597D01*
X1309Y4598D01*
Y4598D01*
X1315Y4606D01*
X1321Y4613D01*
X1328Y4619D01*
X1334Y4623D01*
X1339Y4627D01*
X1343Y4629D01*
X1345Y4630D01*
X1346Y4630D01*
X1347Y4631D01*
X1347D01*
X1352Y4633D01*
X1357Y4634D01*
X1368Y4636D01*
X1380Y4638D01*
X1391Y4639D01*
X1396Y4639D01*
X1401Y4640D01*
X1405D01*
X1409Y4640D01*
X1567D01*
Y4301D01*
D02*
G37*
G36*
X1896D02*
X1643D01*
Y4341D01*
X1851D01*
Y4457D01*
X1664D01*
Y4497D01*
X1851D01*
Y4600D01*
X1651D01*
Y4640D01*
X1896D01*
Y4301D01*
D02*
G37*
G36*
X3213Y3735D02*
X3169D01*
Y3921D01*
X3123Y3735D01*
X3076D01*
X3030Y3921D01*
X3029Y3735D01*
X2985D01*
Y3972D01*
X3057D01*
X3099Y3810D01*
X3142Y3972D01*
X3213D01*
Y3735D01*
D02*
G37*
G36*
X2562Y3428D02*
X2575Y3426D01*
X2588Y3422D01*
X2598Y3419D01*
X2607Y3415D01*
X2610Y3414D01*
X2613Y3412D01*
X2615Y3410D01*
X2617Y3410D01*
X2618Y3409D01*
X2618D01*
X2629Y3400D01*
X2638Y3391D01*
X2646Y3382D01*
X2652Y3372D01*
X2657Y3364D01*
X2660Y3361D01*
X2661Y3357D01*
X2662Y3355D01*
X2663Y3353D01*
X2664Y3352D01*
Y3351D01*
X2669Y3337D01*
X2673Y3323D01*
X2676Y3310D01*
X2678Y3297D01*
X2679Y3291D01*
Y3286D01*
X2679Y3282D01*
X2680Y3278D01*
Y3275D01*
Y3273D01*
Y3271D01*
Y3271D01*
X2679Y3259D01*
X2678Y3247D01*
X2677Y3237D01*
X2674Y3227D01*
X2672Y3217D01*
X2669Y3208D01*
X2666Y3200D01*
X2662Y3192D01*
X2660Y3185D01*
X2656Y3179D01*
X2654Y3174D01*
X2651Y3169D01*
X2649Y3165D01*
X2647Y3163D01*
X2646Y3162D01*
X2645Y3161D01*
X2639Y3153D01*
X2631Y3146D01*
X2623Y3140D01*
X2616Y3135D01*
X2607Y3131D01*
X2599Y3127D01*
X2591Y3124D01*
X2583Y3122D01*
X2576Y3120D01*
X2569Y3118D01*
X2563Y3118D01*
X2558Y3117D01*
X2553D01*
X2550Y3116D01*
X2547D01*
X2538Y3117D01*
X2529Y3118D01*
X2521Y3120D01*
X2513Y3122D01*
X2498Y3129D01*
X2492Y3133D01*
X2486Y3136D01*
X2481Y3140D01*
X2476Y3144D01*
X2472Y3147D01*
X2469Y3150D01*
X2466Y3152D01*
X2464Y3155D01*
X2463Y3156D01*
X2463Y3156D01*
Y3147D01*
Y3139D01*
Y3131D01*
X2463Y3125D01*
Y3119D01*
X2464Y3113D01*
Y3108D01*
X2464Y3104D01*
X2465Y3101D01*
Y3098D01*
X2466Y3093D01*
X2467Y3091D01*
Y3090D01*
X2469Y3081D01*
X2474Y3073D01*
X2478Y3066D01*
X2482Y3060D01*
X2486Y3056D01*
X2490Y3053D01*
X2492Y3051D01*
X2493Y3050D01*
X2501Y3045D01*
X2510Y3041D01*
X2519Y3039D01*
X2528Y3037D01*
X2536Y3036D01*
X2542Y3035D01*
X2548D01*
X2561Y3036D01*
X2571Y3037D01*
X2580Y3040D01*
X2588Y3043D01*
X2594Y3045D01*
X2598Y3048D01*
X2600Y3049D01*
X2601Y3050D01*
X2606Y3054D01*
X2610Y3060D01*
X2613Y3065D01*
X2616Y3071D01*
X2617Y3076D01*
X2618Y3080D01*
X2619Y3083D01*
Y3084D01*
X2669Y3091D01*
Y3082D01*
X2668Y3074D01*
X2667Y3066D01*
X2665Y3059D01*
X2662Y3052D01*
X2660Y3046D01*
X2657Y3041D01*
X2654Y3036D01*
X2651Y3031D01*
X2647Y3027D01*
X2645Y3024D01*
X2642Y3021D01*
X2640Y3020D01*
X2639Y3018D01*
X2638Y3018D01*
X2637Y3017D01*
X2630Y3013D01*
X2623Y3009D01*
X2609Y3003D01*
X2594Y2998D01*
X2580Y2996D01*
X2573Y2994D01*
X2568Y2993D01*
X2562Y2993D01*
X2557D01*
X2554Y2992D01*
X2548D01*
X2532Y2993D01*
X2517Y2995D01*
X2503Y2998D01*
X2492Y3001D01*
X2487Y3003D01*
X2483Y3004D01*
X2480Y3006D01*
X2476Y3007D01*
X2474Y3008D01*
X2473Y3009D01*
X2471Y3010D01*
X2471D01*
X2460Y3017D01*
X2450Y3025D01*
X2442Y3032D01*
X2436Y3040D01*
X2431Y3047D01*
X2427Y3052D01*
X2426Y3054D01*
X2425Y3056D01*
X2425Y3057D01*
Y3057D01*
X2422Y3063D01*
X2420Y3070D01*
X2418Y3077D01*
X2416Y3085D01*
X2414Y3102D01*
X2412Y3119D01*
X2411Y3126D01*
X2410Y3134D01*
Y3140D01*
X2410Y3146D01*
Y3151D01*
Y3155D01*
Y3157D01*
Y3158D01*
Y3422D01*
X2458D01*
Y3384D01*
X2464Y3392D01*
X2471Y3399D01*
X2479Y3405D01*
X2486Y3410D01*
X2494Y3415D01*
X2502Y3418D01*
X2509Y3421D01*
X2515Y3423D01*
X2522Y3425D01*
X2528Y3427D01*
X2534Y3428D01*
X2538Y3428D01*
X2542D01*
X2545Y3429D01*
X2547D01*
X2562Y3428D01*
D02*
G37*
G36*
X3432Y3932D02*
X3361D01*
Y3735D01*
X3314D01*
Y3932D01*
X3244D01*
Y3972D01*
X3432D01*
Y3932D01*
D02*
G37*
G36*
X2138Y4645D02*
X2147Y4645D01*
X2164Y4643D01*
X2172Y4641D01*
X2179Y4639D01*
X2187Y4638D01*
X2193Y4635D01*
X2198Y4634D01*
X2204Y4631D01*
X2208Y4630D01*
X2212Y4628D01*
X2215Y4626D01*
X2217Y4626D01*
X2218Y4625D01*
X2219Y4625D01*
X2226Y4621D01*
X2232Y4616D01*
X2244Y4606D01*
X2250Y4601D01*
X2254Y4596D01*
X2259Y4590D01*
X2263Y4585D01*
X2266Y4580D01*
X2269Y4576D01*
X2272Y4572D01*
X2274Y4568D01*
X2276Y4565D01*
X2277Y4563D01*
X2278Y4562D01*
X2278Y4561D01*
X2282Y4553D01*
X2285Y4545D01*
X2290Y4529D01*
X2294Y4513D01*
X2295Y4506D01*
X2296Y4499D01*
X2297Y4492D01*
X2298Y4487D01*
X2298Y4481D01*
Y4477D01*
X2299Y4473D01*
Y4471D01*
Y4469D01*
Y4469D01*
X2298Y4459D01*
X2298Y4451D01*
X2295Y4433D01*
X2294Y4425D01*
X2292Y4418D01*
X2290Y4411D01*
X2288Y4405D01*
X2286Y4399D01*
X2284Y4394D01*
X2283Y4389D01*
X2281Y4385D01*
X2280Y4382D01*
X2279Y4380D01*
X2278Y4379D01*
Y4378D01*
X2274Y4371D01*
X2269Y4364D01*
X2265Y4357D01*
X2259Y4352D01*
X2254Y4346D01*
X2249Y4341D01*
X2244Y4336D01*
X2239Y4332D01*
X2235Y4329D01*
X2231Y4325D01*
X2227Y4323D01*
X2223Y4320D01*
X2220Y4319D01*
X2218Y4317D01*
X2217Y4317D01*
X2217Y4316D01*
X2209Y4313D01*
X2201Y4309D01*
X2185Y4304D01*
X2170Y4301D01*
X2163Y4299D01*
X2156Y4298D01*
X2149Y4297D01*
X2144Y4297D01*
X2138Y4296D01*
X2134D01*
X2131Y4295D01*
X2126D01*
X2112Y4296D01*
X2099Y4297D01*
X2086Y4300D01*
X2075Y4302D01*
X2071Y4303D01*
X2067Y4305D01*
X2063Y4305D01*
X2060Y4306D01*
X2057Y4307D01*
X2055Y4308D01*
X2054Y4309D01*
X2053D01*
X2040Y4314D01*
X2028Y4320D01*
X2016Y4327D01*
X2006Y4333D01*
X2001Y4336D01*
X1997Y4339D01*
X1994Y4341D01*
X1991Y4343D01*
X1988Y4345D01*
X1986Y4346D01*
X1985Y4347D01*
X1985Y4348D01*
Y4474D01*
X2129D01*
Y4434D01*
X2029D01*
Y4370D01*
X2035Y4365D01*
X2042Y4361D01*
X2049Y4357D01*
X2056Y4354D01*
X2062Y4350D01*
X2067Y4348D01*
X2069Y4348D01*
X2070Y4347D01*
X2071Y4346D01*
X2071D01*
X2082Y4343D01*
X2092Y4340D01*
X2101Y4338D01*
X2110Y4337D01*
X2118Y4336D01*
X2121D01*
X2123Y4335D01*
X2128D01*
X2141Y4336D01*
X2153Y4338D01*
X2163Y4340D01*
X2172Y4343D01*
X2177Y4344D01*
X2180Y4346D01*
X2184Y4346D01*
X2187Y4348D01*
X2189Y4349D01*
X2190Y4350D01*
X2191Y4350D01*
X2192D01*
X2202Y4356D01*
X2211Y4363D01*
X2219Y4371D01*
X2225Y4378D01*
X2230Y4385D01*
X2232Y4388D01*
X2234Y4391D01*
X2235Y4392D01*
X2236Y4394D01*
X2237Y4395D01*
Y4395D01*
X2242Y4407D01*
X2246Y4420D01*
X2248Y4433D01*
X2250Y4445D01*
X2251Y4450D01*
X2251Y4455D01*
X2252Y4460D01*
Y4464D01*
X2252Y4467D01*
Y4469D01*
Y4471D01*
Y4471D01*
X2252Y4485D01*
X2250Y4498D01*
X2248Y4509D01*
X2246Y4519D01*
X2245Y4524D01*
X2243Y4528D01*
X2243Y4531D01*
X2241Y4534D01*
X2241Y4537D01*
X2240Y4538D01*
X2239Y4539D01*
Y4540D01*
X2236Y4546D01*
X2233Y4553D01*
X2229Y4559D01*
X2226Y4563D01*
X2223Y4567D01*
X2220Y4570D01*
X2219Y4572D01*
X2218Y4573D01*
X2213Y4578D01*
X2207Y4584D01*
X2201Y4588D01*
X2195Y4591D01*
X2190Y4594D01*
X2186Y4596D01*
X2183Y4597D01*
X2183Y4598D01*
X2182D01*
X2173Y4601D01*
X2164Y4604D01*
X2155Y4605D01*
X2147Y4606D01*
X2140Y4607D01*
X2137D01*
X2134Y4608D01*
X2129D01*
X2119Y4607D01*
X2111Y4606D01*
X2103Y4604D01*
X2096Y4603D01*
X2090Y4601D01*
X2086Y4600D01*
X2083Y4599D01*
X2083Y4598D01*
X2082D01*
X2075Y4595D01*
X2068Y4591D01*
X2063Y4587D01*
X2058Y4583D01*
X2055Y4580D01*
X2052Y4577D01*
X2050Y4575D01*
X2050Y4574D01*
X2046Y4569D01*
X2042Y4562D01*
X2039Y4555D01*
X2036Y4549D01*
X2034Y4543D01*
X2032Y4538D01*
X2032Y4537D01*
X2031Y4535D01*
X2031Y4534D01*
Y4534D01*
X1990Y4545D01*
X1994Y4557D01*
X1998Y4568D01*
X2002Y4578D01*
X2007Y4585D01*
X2011Y4592D01*
X2012Y4595D01*
X2014Y4596D01*
X2015Y4598D01*
X2015Y4600D01*
X2016Y4600D01*
Y4600D01*
X2023Y4608D01*
X2030Y4615D01*
X2038Y4620D01*
X2046Y4625D01*
X2052Y4629D01*
X2055Y4630D01*
X2058Y4631D01*
X2060Y4632D01*
X2061Y4633D01*
X2062Y4634D01*
X2063D01*
X2074Y4638D01*
X2086Y4641D01*
X2097Y4643D01*
X2107Y4645D01*
X2112Y4645D01*
X2116Y4645D01*
X2119D01*
X2123Y4646D01*
X2129D01*
X2138Y4645D01*
D02*
G37*
G36*
X9212Y4533D02*
X8823Y4922D01*
X9212D01*
Y4533D01*
D02*
G37*
G36*
X4067Y4604D02*
X3854Y4889D01*
X4067Y5174D01*
Y4604D01*
D02*
G37*
G36*
X3228Y4645D02*
X3240Y4644D01*
X3251Y4642D01*
X3260Y4640D01*
X3264Y4639D01*
X3267Y4638D01*
X3270Y4637D01*
X3273Y4636D01*
X3275Y4635D01*
X3277Y4634D01*
X3277Y4634D01*
X3278D01*
X3288Y4629D01*
X3296Y4624D01*
X3303Y4618D01*
X3310Y4613D01*
X3314Y4608D01*
X3318Y4604D01*
X3319Y4601D01*
X3320Y4600D01*
Y4600D01*
X3325Y4592D01*
X3329Y4583D01*
X3331Y4575D01*
X3333Y4568D01*
X3334Y4561D01*
X3334Y4556D01*
X3335Y4555D01*
Y4553D01*
Y4552D01*
Y4552D01*
X3334Y4544D01*
X3333Y4536D01*
X3331Y4528D01*
X3329Y4522D01*
X3327Y4517D01*
X3325Y4513D01*
X3324Y4511D01*
X3323Y4510D01*
Y4510D01*
X3318Y4503D01*
X3313Y4497D01*
X3307Y4492D01*
X3301Y4487D01*
X3295Y4483D01*
X3291Y4481D01*
X3289Y4480D01*
X3288Y4479D01*
X3288Y4478D01*
X3287D01*
X3283Y4477D01*
X3279Y4474D01*
X3269Y4471D01*
X3258Y4467D01*
X3247Y4464D01*
X3237Y4461D01*
X3233Y4460D01*
X3229Y4458D01*
X3226Y4458D01*
X3224Y4457D01*
X3222Y4457D01*
X3222D01*
X3213Y4454D01*
X3206Y4453D01*
X3199Y4451D01*
X3193Y4450D01*
X3187Y4448D01*
X3182Y4447D01*
X3178Y4446D01*
X3174Y4444D01*
X3171Y4443D01*
X3168Y4443D01*
X3166Y4442D01*
X3164Y4441D01*
X3162Y4441D01*
X3161Y4440D01*
X3154Y4437D01*
X3148Y4434D01*
X3142Y4431D01*
X3138Y4428D01*
X3135Y4425D01*
X3133Y4423D01*
X3131Y4421D01*
X3131Y4421D01*
X3128Y4416D01*
X3125Y4411D01*
X3124Y4406D01*
X3123Y4402D01*
X3122Y4398D01*
X3121Y4395D01*
Y4394D01*
Y4393D01*
X3122Y4387D01*
X3123Y4382D01*
X3124Y4377D01*
X3126Y4372D01*
X3128Y4369D01*
X3130Y4366D01*
X3131Y4364D01*
X3131Y4364D01*
X3135Y4359D01*
X3140Y4355D01*
X3145Y4351D01*
X3150Y4348D01*
X3154Y4346D01*
X3157Y4344D01*
X3160Y4343D01*
X3160Y4343D01*
X3161D01*
X3168Y4340D01*
X3176Y4339D01*
X3183Y4337D01*
X3190Y4336D01*
X3196Y4336D01*
X3201Y4335D01*
X3206D01*
X3216Y4336D01*
X3226Y4337D01*
X3235Y4339D01*
X3242Y4340D01*
X3249Y4342D01*
X3251Y4343D01*
X3254Y4344D01*
X3255Y4344D01*
X3257Y4345D01*
X3257Y4345D01*
X3258D01*
X3266Y4349D01*
X3273Y4354D01*
X3278Y4358D01*
X3283Y4362D01*
X3287Y4366D01*
X3289Y4369D01*
X3291Y4371D01*
X3292Y4372D01*
X3295Y4378D01*
X3298Y4385D01*
X3301Y4392D01*
X3303Y4399D01*
X3304Y4405D01*
X3305Y4410D01*
Y4411D01*
X3305Y4413D01*
Y4413D01*
Y4414D01*
X3348Y4410D01*
X3347Y4398D01*
X3344Y4386D01*
X3341Y4376D01*
X3338Y4367D01*
X3336Y4363D01*
X3335Y4359D01*
X3333Y4357D01*
X3332Y4354D01*
X3331Y4352D01*
X3330Y4350D01*
X3329Y4350D01*
Y4349D01*
X3322Y4340D01*
X3314Y4331D01*
X3306Y4324D01*
X3298Y4319D01*
X3291Y4314D01*
X3288Y4312D01*
X3286Y4311D01*
X3284Y4310D01*
X3282Y4309D01*
X3281Y4309D01*
X3281D01*
X3268Y4304D01*
X3255Y4301D01*
X3242Y4298D01*
X3230Y4297D01*
X3225Y4297D01*
X3220Y4296D01*
X3215Y4296D01*
X3211D01*
X3208Y4295D01*
X3203D01*
X3190Y4296D01*
X3178Y4297D01*
X3167Y4300D01*
X3157Y4302D01*
X3153Y4303D01*
X3150Y4305D01*
X3146Y4305D01*
X3143Y4306D01*
X3142Y4307D01*
X3140Y4308D01*
X3139Y4309D01*
X3138D01*
X3128Y4314D01*
X3119Y4320D01*
X3112Y4326D01*
X3105Y4332D01*
X3101Y4337D01*
X3097Y4342D01*
X3096Y4343D01*
X3095Y4345D01*
X3094Y4345D01*
Y4346D01*
X3089Y4354D01*
X3085Y4364D01*
X3082Y4372D01*
X3080Y4380D01*
X3079Y4387D01*
X3079Y4389D01*
Y4392D01*
X3078Y4394D01*
Y4395D01*
Y4396D01*
Y4396D01*
X3079Y4406D01*
X3080Y4415D01*
X3083Y4424D01*
X3085Y4431D01*
X3088Y4436D01*
X3090Y4441D01*
X3091Y4442D01*
X3092Y4443D01*
X3093Y4444D01*
Y4444D01*
X3098Y4452D01*
X3105Y4459D01*
X3112Y4465D01*
X3120Y4470D01*
X3126Y4474D01*
X3131Y4477D01*
X3134Y4478D01*
X3135Y4479D01*
X3136Y4479D01*
X3136D01*
X3140Y4481D01*
X3145Y4483D01*
X3151Y4484D01*
X3157Y4487D01*
X3169Y4490D01*
X3181Y4493D01*
X3187Y4495D01*
X3193Y4496D01*
X3198Y4498D01*
X3202Y4499D01*
X3206Y4499D01*
X3209Y4500D01*
X3211Y4501D01*
X3211D01*
X3221Y4503D01*
X3230Y4505D01*
X3238Y4507D01*
X3245Y4510D01*
X3251Y4512D01*
X3256Y4514D01*
X3261Y4516D01*
X3266Y4518D01*
X3269Y4519D01*
X3272Y4520D01*
X3274Y4522D01*
X3276Y4523D01*
X3277Y4523D01*
X3278Y4524D01*
X3279Y4525D01*
X3283Y4529D01*
X3286Y4534D01*
X3288Y4539D01*
X3290Y4544D01*
X3291Y4548D01*
X3292Y4552D01*
Y4554D01*
Y4555D01*
X3291Y4562D01*
X3288Y4569D01*
X3286Y4575D01*
X3282Y4581D01*
X3279Y4585D01*
X3276Y4588D01*
X3274Y4590D01*
X3273Y4591D01*
X3269Y4593D01*
X3265Y4596D01*
X3256Y4600D01*
X3246Y4602D01*
X3236Y4604D01*
X3228Y4605D01*
X3224Y4605D01*
X3221Y4606D01*
X3207D01*
X3200Y4605D01*
X3194Y4604D01*
X3188Y4603D01*
X3183Y4602D01*
X3178Y4600D01*
X3174Y4599D01*
X3170Y4598D01*
X3167Y4596D01*
X3164Y4595D01*
X3161Y4593D01*
X3159Y4592D01*
X3157Y4591D01*
X3156Y4590D01*
X3155Y4589D01*
X3148Y4583D01*
X3143Y4575D01*
X3139Y4567D01*
X3136Y4559D01*
X3134Y4552D01*
X3133Y4549D01*
X3132Y4547D01*
X3132Y4544D01*
X3131Y4543D01*
Y4542D01*
Y4541D01*
X3088Y4544D01*
X3089Y4555D01*
X3091Y4565D01*
X3094Y4574D01*
X3097Y4582D01*
X3100Y4589D01*
X3101Y4591D01*
X3102Y4593D01*
X3104Y4595D01*
X3104Y4596D01*
X3105Y4597D01*
Y4597D01*
X3111Y4606D01*
X3119Y4613D01*
X3126Y4619D01*
X3133Y4624D01*
X3139Y4628D01*
X3145Y4631D01*
X3147Y4632D01*
X3148Y4633D01*
X3149Y4634D01*
X3150D01*
X3161Y4638D01*
X3172Y4641D01*
X3183Y4643D01*
X3193Y4645D01*
X3198Y4645D01*
X3202Y4645D01*
X3206D01*
X3210Y4646D01*
X3216D01*
X3228Y4645D01*
D02*
G37*
G36*
X2528D02*
X2537Y4645D01*
X2554Y4643D01*
X2562Y4641D01*
X2569Y4639D01*
X2577Y4638D01*
X2583Y4635D01*
X2588Y4634D01*
X2594Y4631D01*
X2598Y4630D01*
X2602Y4628D01*
X2605Y4626D01*
X2607Y4626D01*
X2608Y4625D01*
X2609Y4625D01*
X2616Y4621D01*
X2622Y4616D01*
X2634Y4606D01*
X2640Y4601D01*
X2644Y4596D01*
X2649Y4590D01*
X2653Y4585D01*
X2656Y4580D01*
X2659Y4576D01*
X2662Y4572D01*
X2664Y4568D01*
X2666Y4565D01*
X2667Y4563D01*
X2668Y4562D01*
X2668Y4561D01*
X2672Y4553D01*
X2675Y4545D01*
X2680Y4529D01*
X2684Y4513D01*
X2685Y4506D01*
X2686Y4499D01*
X2687Y4492D01*
X2688Y4487D01*
X2688Y4481D01*
Y4477D01*
X2689Y4473D01*
Y4471D01*
Y4469D01*
Y4469D01*
X2688Y4459D01*
X2688Y4451D01*
X2685Y4433D01*
X2684Y4425D01*
X2682Y4418D01*
X2680Y4411D01*
X2678Y4405D01*
X2676Y4399D01*
X2674Y4394D01*
X2673Y4389D01*
X2671Y4385D01*
X2670Y4382D01*
X2669Y4380D01*
X2668Y4379D01*
Y4378D01*
X2664Y4371D01*
X2659Y4364D01*
X2655Y4357D01*
X2649Y4352D01*
X2644Y4346D01*
X2639Y4341D01*
X2634Y4336D01*
X2629Y4332D01*
X2625Y4329D01*
X2621Y4325D01*
X2617Y4323D01*
X2613Y4320D01*
X2610Y4319D01*
X2608Y4317D01*
X2607Y4317D01*
X2607Y4316D01*
X2599Y4313D01*
X2591Y4309D01*
X2575Y4304D01*
X2560Y4301D01*
X2553Y4299D01*
X2546Y4298D01*
X2539Y4297D01*
X2534Y4297D01*
X2528Y4296D01*
X2524D01*
X2521Y4295D01*
X2516D01*
X2502Y4296D01*
X2489Y4297D01*
X2476Y4300D01*
X2465Y4302D01*
X2461Y4303D01*
X2457Y4305D01*
X2453Y4305D01*
X2450Y4306D01*
X2447Y4307D01*
X2445Y4308D01*
X2444Y4309D01*
X2443D01*
X2430Y4314D01*
X2418Y4320D01*
X2406Y4327D01*
X2396Y4333D01*
X2391Y4336D01*
X2387Y4339D01*
X2384Y4341D01*
X2381Y4343D01*
X2378Y4345D01*
X2376Y4346D01*
X2375Y4347D01*
X2375Y4348D01*
Y4474D01*
X2519D01*
Y4434D01*
X2419D01*
Y4370D01*
X2425Y4365D01*
X2432Y4361D01*
X2439Y4357D01*
X2446Y4354D01*
X2452Y4350D01*
X2457Y4348D01*
X2459Y4348D01*
X2460Y4347D01*
X2461Y4346D01*
X2461D01*
X2472Y4343D01*
X2482Y4340D01*
X2491Y4338D01*
X2500Y4337D01*
X2508Y4336D01*
X2511D01*
X2513Y4335D01*
X2518D01*
X2531Y4336D01*
X2543Y4338D01*
X2553Y4340D01*
X2562Y4343D01*
X2567Y4344D01*
X2570Y4346D01*
X2574Y4346D01*
X2577Y4348D01*
X2579Y4349D01*
X2580Y4350D01*
X2581Y4350D01*
X2582D01*
X2592Y4356D01*
X2601Y4363D01*
X2609Y4371D01*
X2615Y4378D01*
X2620Y4385D01*
X2622Y4388D01*
X2624Y4391D01*
X2625Y4392D01*
X2626Y4394D01*
X2627Y4395D01*
Y4395D01*
X2632Y4407D01*
X2636Y4420D01*
X2638Y4433D01*
X2640Y4445D01*
X2641Y4450D01*
X2641Y4455D01*
X2642Y4460D01*
Y4464D01*
X2642Y4467D01*
Y4469D01*
Y4471D01*
Y4471D01*
X2642Y4485D01*
X2640Y4498D01*
X2638Y4509D01*
X2636Y4519D01*
X2635Y4524D01*
X2633Y4528D01*
X2633Y4531D01*
X2631Y4534D01*
X2631Y4537D01*
X2630Y4538D01*
X2629Y4539D01*
Y4540D01*
X2626Y4546D01*
X2623Y4553D01*
X2619Y4559D01*
X2616Y4563D01*
X2613Y4567D01*
X2610Y4570D01*
X2609Y4572D01*
X2608Y4573D01*
X2603Y4578D01*
X2597Y4584D01*
X2591Y4588D01*
X2585Y4591D01*
X2580Y4594D01*
X2576Y4596D01*
X2573Y4597D01*
X2573Y4598D01*
X2572D01*
X2563Y4601D01*
X2554Y4604D01*
X2545Y4605D01*
X2537Y4606D01*
X2530Y4607D01*
X2527D01*
X2524Y4608D01*
X2519D01*
X2509Y4607D01*
X2501Y4606D01*
X2493Y4604D01*
X2486Y4603D01*
X2480Y4601D01*
X2476Y4600D01*
X2473Y4599D01*
X2473Y4598D01*
X2472D01*
X2465Y4595D01*
X2458Y4591D01*
X2453Y4587D01*
X2448Y4583D01*
X2445Y4580D01*
X2442Y4577D01*
X2440Y4575D01*
X2440Y4574D01*
X2436Y4569D01*
X2432Y4562D01*
X2429Y4555D01*
X2426Y4549D01*
X2424Y4543D01*
X2422Y4538D01*
X2422Y4537D01*
X2421Y4535D01*
X2421Y4534D01*
Y4534D01*
X2380Y4545D01*
X2384Y4557D01*
X2388Y4568D01*
X2392Y4578D01*
X2397Y4585D01*
X2401Y4592D01*
X2402Y4595D01*
X2404Y4596D01*
X2405Y4598D01*
X2405Y4600D01*
X2406Y4600D01*
Y4600D01*
X2413Y4608D01*
X2420Y4615D01*
X2428Y4620D01*
X2436Y4625D01*
X2442Y4629D01*
X2445Y4630D01*
X2448Y4631D01*
X2450Y4632D01*
X2451Y4633D01*
X2452Y4634D01*
X2453D01*
X2464Y4638D01*
X2476Y4641D01*
X2487Y4643D01*
X2497Y4645D01*
X2502Y4645D01*
X2506Y4645D01*
X2509D01*
X2513Y4646D01*
X2519D01*
X2528Y4645D01*
D02*
G37*
G36*
X2997Y4301D02*
X2745D01*
Y4341D01*
X2952D01*
Y4457D01*
X2765D01*
Y4497D01*
X2952D01*
Y4600D01*
X2752D01*
Y4640D01*
X2997D01*
Y4301D01*
D02*
G37*
G36*
X2234Y3428D02*
X2247Y3426D01*
X2259Y3422D01*
X2270Y3419D01*
X2278Y3415D01*
X2282Y3414D01*
X2284Y3412D01*
X2287Y3410D01*
X2288Y3410D01*
X2289Y3409D01*
X2290D01*
X2300Y3400D01*
X2310Y3391D01*
X2317Y3382D01*
X2324Y3372D01*
X2329Y3364D01*
X2331Y3361D01*
X2333Y3357D01*
X2334Y3355D01*
X2335Y3353D01*
X2336Y3352D01*
Y3351D01*
X2341Y3337D01*
X2345Y3323D01*
X2348Y3310D01*
X2349Y3297D01*
X2350Y3291D01*
Y3286D01*
X2351Y3282D01*
X2352Y3278D01*
Y3275D01*
Y3273D01*
Y3271D01*
Y3271D01*
X2351Y3259D01*
X2350Y3247D01*
X2348Y3237D01*
X2346Y3227D01*
X2343Y3217D01*
X2341Y3208D01*
X2337Y3200D01*
X2334Y3192D01*
X2331Y3185D01*
X2328Y3179D01*
X2325Y3174D01*
X2322Y3169D01*
X2320Y3165D01*
X2319Y3163D01*
X2317Y3162D01*
X2317Y3161D01*
X2310Y3153D01*
X2303Y3146D01*
X2295Y3140D01*
X2287Y3135D01*
X2279Y3131D01*
X2271Y3127D01*
X2262Y3124D01*
X2255Y3122D01*
X2248Y3120D01*
X2241Y3118D01*
X2235Y3118D01*
X2229Y3117D01*
X2225D01*
X2222Y3116D01*
X2219D01*
X2210Y3117D01*
X2201Y3118D01*
X2193Y3120D01*
X2184Y3122D01*
X2170Y3129D01*
X2163Y3133D01*
X2157Y3136D01*
X2152Y3140D01*
X2148Y3144D01*
X2144Y3147D01*
X2140Y3150D01*
X2138Y3152D01*
X2136Y3155D01*
X2135Y3156D01*
X2134Y3156D01*
Y3147D01*
Y3139D01*
Y3131D01*
X2135Y3125D01*
Y3119D01*
X2135Y3113D01*
Y3108D01*
X2136Y3104D01*
X2137Y3101D01*
Y3098D01*
X2138Y3093D01*
X2138Y3091D01*
Y3090D01*
X2141Y3081D01*
X2145Y3073D01*
X2149Y3066D01*
X2154Y3060D01*
X2158Y3056D01*
X2161Y3053D01*
X2163Y3051D01*
X2165Y3050D01*
X2173Y3045D01*
X2182Y3041D01*
X2191Y3039D01*
X2200Y3037D01*
X2208Y3036D01*
X2214Y3035D01*
X2220D01*
X2232Y3036D01*
X2243Y3037D01*
X2251Y3040D01*
X2259Y3043D01*
X2265Y3045D01*
X2270Y3048D01*
X2272Y3049D01*
X2273Y3050D01*
X2278Y3054D01*
X2282Y3060D01*
X2285Y3065D01*
X2287Y3071D01*
X2289Y3076D01*
X2290Y3080D01*
X2291Y3083D01*
Y3084D01*
X2341Y3091D01*
Y3082D01*
X2340Y3074D01*
X2338Y3066D01*
X2337Y3059D01*
X2334Y3052D01*
X2331Y3046D01*
X2328Y3041D01*
X2325Y3036D01*
X2322Y3031D01*
X2319Y3027D01*
X2316Y3024D01*
X2314Y3021D01*
X2312Y3020D01*
X2310Y3018D01*
X2309Y3018D01*
X2309Y3017D01*
X2302Y3013D01*
X2295Y3009D01*
X2281Y3003D01*
X2266Y2998D01*
X2251Y2996D01*
X2245Y2994D01*
X2239Y2993D01*
X2234Y2993D01*
X2229D01*
X2226Y2992D01*
X2220D01*
X2204Y2993D01*
X2188Y2995D01*
X2175Y2998D01*
X2164Y3001D01*
X2159Y3003D01*
X2155Y3004D01*
X2151Y3006D01*
X2148Y3007D01*
X2146Y3008D01*
X2144Y3009D01*
X2143Y3010D01*
X2143D01*
X2132Y3017D01*
X2122Y3025D01*
X2114Y3032D01*
X2107Y3040D01*
X2102Y3047D01*
X2099Y3052D01*
X2098Y3054D01*
X2097Y3056D01*
X2096Y3057D01*
Y3057D01*
X2094Y3063D01*
X2091Y3070D01*
X2089Y3077D01*
X2088Y3085D01*
X2085Y3102D01*
X2083Y3119D01*
X2083Y3126D01*
X2082Y3134D01*
Y3140D01*
X2082Y3146D01*
Y3151D01*
Y3155D01*
Y3157D01*
Y3158D01*
Y3422D01*
X2129D01*
Y3384D01*
X2136Y3392D01*
X2143Y3399D01*
X2151Y3405D01*
X2158Y3410D01*
X2166Y3415D01*
X2173Y3418D01*
X2181Y3421D01*
X2187Y3423D01*
X2194Y3425D01*
X2200Y3427D01*
X2205Y3428D01*
X2210Y3428D01*
X2214D01*
X2217Y3429D01*
X2219D01*
X2234Y3428D01*
D02*
G37*
G36*
X3819Y3116D02*
X3765D01*
X3702Y3351D01*
X3690Y3299D01*
X3641Y3116D01*
X3588D01*
X3492Y3422D01*
X3542D01*
X3595Y3245D01*
X3613Y3186D01*
X3628Y3244D01*
X3674Y3422D01*
X3727D01*
X3776Y3243D01*
X3778Y3232D01*
X3780Y3223D01*
X3783Y3215D01*
X3784Y3208D01*
X3786Y3202D01*
X3787Y3197D01*
X3788Y3192D01*
X3789Y3189D01*
X3790Y3186D01*
X3790Y3184D01*
X3791Y3181D01*
X3791Y3180D01*
Y3179D01*
X3809Y3245D01*
X3858Y3422D01*
X3912D01*
X3819Y3116D01*
D02*
G37*
G36*
X4246D02*
X4191D01*
X4129Y3351D01*
X4117Y3299D01*
X4068Y3116D01*
X4015D01*
X3919Y3422D01*
X3969D01*
X4022Y3245D01*
X4040Y3186D01*
X4054Y3244D01*
X4101Y3422D01*
X4154D01*
X4202Y3243D01*
X4205Y3232D01*
X4207Y3223D01*
X4209Y3215D01*
X4211Y3208D01*
X4213Y3202D01*
X4214Y3197D01*
X4215Y3192D01*
X4216Y3189D01*
X4217Y3186D01*
X4217Y3184D01*
X4218Y3181D01*
X4218Y3180D01*
Y3179D01*
X4236Y3245D01*
X4285Y3422D01*
X4339D01*
X4246Y3116D01*
D02*
G37*
G36*
X1890Y3428D02*
X1901Y3427D01*
X1911Y3425D01*
X1921Y3422D01*
X1930Y3419D01*
X1939Y3415D01*
X1946Y3411D01*
X1953Y3408D01*
X1959Y3404D01*
X1965Y3400D01*
X1970Y3396D01*
X1974Y3393D01*
X1977Y3390D01*
X1979Y3388D01*
X1980Y3387D01*
X1981Y3386D01*
X1988Y3378D01*
X1994Y3369D01*
X1999Y3359D01*
X2004Y3349D01*
X2008Y3339D01*
X2011Y3329D01*
X2013Y3320D01*
X2016Y3310D01*
X2017Y3301D01*
X2018Y3293D01*
X2019Y3285D01*
X2020Y3279D01*
Y3274D01*
X2020Y3269D01*
Y3267D01*
Y3266D01*
X2020Y3252D01*
X2019Y3240D01*
X2017Y3228D01*
X2014Y3217D01*
X2012Y3207D01*
X2008Y3197D01*
X2005Y3189D01*
X2001Y3180D01*
X1997Y3174D01*
X1994Y3168D01*
X1990Y3163D01*
X1987Y3158D01*
X1985Y3155D01*
X1983Y3153D01*
X1982Y3151D01*
X1981Y3151D01*
X1974Y3144D01*
X1965Y3137D01*
X1957Y3131D01*
X1948Y3127D01*
X1939Y3123D01*
X1930Y3119D01*
X1921Y3117D01*
X1913Y3114D01*
X1906Y3113D01*
X1898Y3112D01*
X1891Y3110D01*
X1886Y3110D01*
X1881D01*
X1877Y3109D01*
X1875D01*
X1865Y3110D01*
X1855Y3110D01*
X1838Y3113D01*
X1831Y3115D01*
X1824Y3118D01*
X1817Y3120D01*
X1811Y3123D01*
X1805Y3125D01*
X1801Y3127D01*
X1797Y3129D01*
X1793Y3131D01*
X1791Y3133D01*
X1789Y3134D01*
X1788Y3135D01*
X1787D01*
X1776Y3146D01*
X1766Y3158D01*
X1758Y3170D01*
X1751Y3181D01*
X1747Y3192D01*
X1744Y3197D01*
X1743Y3201D01*
X1742Y3204D01*
X1741Y3206D01*
X1741Y3208D01*
Y3208D01*
X1794Y3216D01*
X1799Y3204D01*
X1804Y3194D01*
X1810Y3185D01*
X1815Y3179D01*
X1819Y3174D01*
X1823Y3170D01*
X1825Y3168D01*
X1826Y3167D01*
X1834Y3162D01*
X1842Y3158D01*
X1851Y3156D01*
X1858Y3154D01*
X1865Y3153D01*
X1870Y3152D01*
X1875D01*
X1882Y3153D01*
X1888Y3153D01*
X1901Y3157D01*
X1912Y3161D01*
X1921Y3165D01*
X1929Y3170D01*
X1935Y3175D01*
X1936Y3176D01*
X1938Y3178D01*
X1939Y3178D01*
X1939Y3179D01*
X1943Y3184D01*
X1947Y3190D01*
X1954Y3202D01*
X1959Y3214D01*
X1963Y3227D01*
X1965Y3238D01*
X1965Y3243D01*
X1966Y3247D01*
X1967Y3251D01*
X1967Y3253D01*
Y3255D01*
Y3256D01*
X1739D01*
X1738Y3262D01*
Y3266D01*
Y3268D01*
Y3269D01*
X1739Y3283D01*
X1740Y3296D01*
X1742Y3309D01*
X1744Y3320D01*
X1747Y3331D01*
X1750Y3340D01*
X1754Y3349D01*
X1758Y3357D01*
X1761Y3364D01*
X1765Y3370D01*
X1769Y3375D01*
X1771Y3379D01*
X1774Y3383D01*
X1776Y3385D01*
X1777Y3387D01*
X1777Y3387D01*
X1785Y3394D01*
X1793Y3401D01*
X1801Y3406D01*
X1810Y3411D01*
X1818Y3415D01*
X1826Y3419D01*
X1835Y3422D01*
X1842Y3424D01*
X1849Y3426D01*
X1857Y3427D01*
X1863Y3428D01*
X1868Y3428D01*
X1872Y3429D01*
X1878D01*
X1890Y3428D01*
D02*
G37*
G36*
X2875D02*
X2886Y3427D01*
X2896Y3425D01*
X2906Y3422D01*
X2915Y3419D01*
X2924Y3415D01*
X2931Y3411D01*
X2938Y3408D01*
X2944Y3404D01*
X2950Y3400D01*
X2955Y3396D01*
X2959Y3393D01*
X2962Y3390D01*
X2964Y3388D01*
X2965Y3387D01*
X2966Y3386D01*
X2973Y3378D01*
X2979Y3369D01*
X2984Y3359D01*
X2989Y3349D01*
X2993Y3339D01*
X2996Y3329D01*
X2998Y3320D01*
X3001Y3310D01*
X3002Y3301D01*
X3003Y3293D01*
X3004Y3285D01*
X3005Y3279D01*
Y3274D01*
X3006Y3269D01*
Y3267D01*
Y3266D01*
X3005Y3252D01*
X3004Y3240D01*
X3002Y3228D01*
X2999Y3217D01*
X2997Y3207D01*
X2993Y3197D01*
X2990Y3189D01*
X2986Y3180D01*
X2982Y3174D01*
X2979Y3168D01*
X2975Y3163D01*
X2973Y3158D01*
X2970Y3155D01*
X2968Y3153D01*
X2967Y3151D01*
X2966Y3151D01*
X2959Y3144D01*
X2951Y3137D01*
X2942Y3131D01*
X2933Y3127D01*
X2924Y3123D01*
X2915Y3119D01*
X2907Y3117D01*
X2898Y3114D01*
X2891Y3113D01*
X2883Y3112D01*
X2876Y3110D01*
X2871Y3110D01*
X2866D01*
X2863Y3109D01*
X2860D01*
X2850Y3110D01*
X2841Y3110D01*
X2823Y3113D01*
X2816Y3115D01*
X2809Y3118D01*
X2802Y3120D01*
X2796Y3123D01*
X2790Y3125D01*
X2786Y3127D01*
X2782Y3129D01*
X2778Y3131D01*
X2776Y3133D01*
X2774Y3134D01*
X2773Y3135D01*
X2772D01*
X2761Y3146D01*
X2751Y3158D01*
X2743Y3170D01*
X2736Y3181D01*
X2732Y3192D01*
X2729Y3197D01*
X2728Y3201D01*
X2727Y3204D01*
X2726Y3206D01*
X2726Y3208D01*
Y3208D01*
X2779Y3216D01*
X2784Y3204D01*
X2789Y3194D01*
X2795Y3185D01*
X2800Y3179D01*
X2804Y3174D01*
X2808Y3170D01*
X2810Y3168D01*
X2811Y3167D01*
X2819Y3162D01*
X2827Y3158D01*
X2836Y3156D01*
X2843Y3154D01*
X2850Y3153D01*
X2855Y3152D01*
X2860D01*
X2867Y3153D01*
X2874Y3153D01*
X2886Y3157D01*
X2897Y3161D01*
X2907Y3165D01*
X2914Y3170D01*
X2920Y3175D01*
X2921Y3176D01*
X2923Y3178D01*
X2924Y3178D01*
X2924Y3179D01*
X2929Y3184D01*
X2932Y3190D01*
X2939Y3202D01*
X2944Y3214D01*
X2948Y3227D01*
X2950Y3238D01*
X2951Y3243D01*
X2951Y3247D01*
X2952Y3251D01*
X2952Y3253D01*
Y3255D01*
Y3256D01*
X2724D01*
X2723Y3262D01*
Y3266D01*
Y3268D01*
Y3269D01*
X2724Y3283D01*
X2725Y3296D01*
X2727Y3309D01*
X2729Y3320D01*
X2732Y3331D01*
X2735Y3340D01*
X2739Y3349D01*
X2743Y3357D01*
X2746Y3364D01*
X2750Y3370D01*
X2754Y3375D01*
X2756Y3379D01*
X2759Y3383D01*
X2761Y3385D01*
X2762Y3387D01*
X2762Y3387D01*
X2770Y3394D01*
X2778Y3401D01*
X2786Y3406D01*
X2795Y3411D01*
X2803Y3415D01*
X2811Y3419D01*
X2820Y3422D01*
X2827Y3424D01*
X2834Y3426D01*
X2842Y3427D01*
X2848Y3428D01*
X2853Y3428D01*
X2857Y3429D01*
X2863D01*
X2875Y3428D01*
D02*
G37*
G36*
X4673Y3116D02*
X4618D01*
X4556Y3351D01*
X4544Y3299D01*
X4495Y3116D01*
X4442D01*
X4345Y3422D01*
X4396D01*
X4449Y3245D01*
X4466Y3186D01*
X4481Y3244D01*
X4527Y3422D01*
X4581D01*
X4629Y3243D01*
X4632Y3232D01*
X4634Y3223D01*
X4636Y3215D01*
X4638Y3208D01*
X4640Y3202D01*
X4641Y3197D01*
X4642Y3192D01*
X4643Y3189D01*
X4643Y3186D01*
X4644Y3184D01*
X4645Y3181D01*
X4645Y3180D01*
Y3179D01*
X4663Y3245D01*
X4712Y3422D01*
X4766D01*
X4673Y3116D01*
D02*
G37*
G36*
X562Y3428D02*
X573Y3427D01*
X582Y3425D01*
X590Y3422D01*
X597Y3420D01*
X601Y3417D01*
X605Y3416D01*
X605Y3415D01*
X606D01*
X614Y3410D01*
X622Y3404D01*
X628Y3398D01*
X634Y3392D01*
X638Y3387D01*
X642Y3383D01*
X644Y3380D01*
X644Y3379D01*
Y3422D01*
X691D01*
Y3116D01*
X639D01*
Y3274D01*
X638Y3289D01*
X638Y3302D01*
X636Y3313D01*
X634Y3322D01*
X633Y3329D01*
X632Y3334D01*
X631Y3337D01*
X631Y3338D01*
X627Y3346D01*
X622Y3353D01*
X618Y3359D01*
X614Y3363D01*
X610Y3367D01*
X606Y3370D01*
X604Y3372D01*
X603Y3372D01*
X596Y3376D01*
X589Y3379D01*
X582Y3381D01*
X576Y3382D01*
X570Y3383D01*
X566Y3384D01*
X562D01*
X553Y3383D01*
X544Y3381D01*
X537Y3378D01*
X531Y3375D01*
X527Y3372D01*
X523Y3369D01*
X522Y3367D01*
X521Y3366D01*
X517Y3359D01*
X514Y3351D01*
X512Y3343D01*
X510Y3334D01*
X509Y3327D01*
X509Y3320D01*
Y3318D01*
Y3316D01*
Y3315D01*
Y3315D01*
Y3116D01*
X457D01*
Y3294D01*
Y3302D01*
X456Y3310D01*
X455Y3317D01*
X454Y3324D01*
X452Y3330D01*
X450Y3336D01*
X448Y3341D01*
X446Y3345D01*
X442Y3352D01*
X439Y3358D01*
X436Y3361D01*
X435Y3362D01*
X427Y3369D01*
X418Y3374D01*
X409Y3378D01*
X400Y3381D01*
X392Y3383D01*
X386Y3383D01*
X384Y3384D01*
X381D01*
X374Y3383D01*
X369Y3383D01*
X363Y3381D01*
X359Y3379D01*
X355Y3378D01*
X352Y3377D01*
X351Y3376D01*
X350Y3375D01*
X345Y3372D01*
X341Y3368D01*
X338Y3365D01*
X336Y3361D01*
X334Y3358D01*
X333Y3355D01*
X331Y3354D01*
Y3353D01*
X330Y3347D01*
X329Y3340D01*
X328Y3333D01*
X327Y3326D01*
X326Y3319D01*
Y3313D01*
Y3311D01*
Y3310D01*
Y3309D01*
Y3309D01*
Y3116D01*
X275D01*
Y3326D01*
Y3335D01*
X276Y3344D01*
X277Y3352D01*
X279Y3360D01*
X280Y3367D01*
X282Y3373D01*
X285Y3379D01*
X287Y3384D01*
X290Y3389D01*
X292Y3393D01*
X294Y3396D01*
X296Y3399D01*
X297Y3401D01*
X298Y3403D01*
X299Y3403D01*
X300Y3404D01*
X304Y3408D01*
X309Y3412D01*
X321Y3419D01*
X333Y3423D01*
X344Y3426D01*
X354Y3428D01*
X358Y3428D01*
X362D01*
X366Y3429D01*
X370D01*
X380Y3428D01*
X391Y3427D01*
X400Y3424D01*
X410Y3421D01*
X418Y3416D01*
X425Y3412D01*
X433Y3407D01*
X439Y3402D01*
X445Y3397D01*
X450Y3392D01*
X454Y3388D01*
X458Y3383D01*
X461Y3380D01*
X463Y3377D01*
X464Y3376D01*
X465Y3375D01*
X468Y3384D01*
X473Y3392D01*
X478Y3399D01*
X484Y3404D01*
X488Y3409D01*
X492Y3412D01*
X495Y3414D01*
X496Y3415D01*
X505Y3420D01*
X513Y3423D01*
X523Y3426D01*
X532Y3427D01*
X539Y3428D01*
X546Y3429D01*
X551D01*
X562Y3428D01*
D02*
G37*
%LPC*%
G36*
X2218Y3386D02*
X2215D01*
X2209Y3386D01*
X2203Y3385D01*
X2191Y3382D01*
X2181Y3377D01*
X2172Y3372D01*
X2165Y3366D01*
X2160Y3362D01*
X2156Y3359D01*
X2155Y3358D01*
Y3357D01*
X2151Y3352D01*
X2147Y3345D01*
X2140Y3332D01*
X2136Y3318D01*
X2133Y3305D01*
X2132Y3298D01*
X2131Y3292D01*
X2130Y3286D01*
Y3282D01*
X2130Y3278D01*
Y3275D01*
Y3273D01*
Y3273D01*
Y3262D01*
X2131Y3252D01*
X2132Y3243D01*
X2134Y3234D01*
X2135Y3227D01*
X2138Y3219D01*
X2140Y3213D01*
X2142Y3207D01*
X2144Y3202D01*
X2146Y3198D01*
X2149Y3195D01*
X2150Y3192D01*
X2152Y3189D01*
X2153Y3187D01*
X2154Y3187D01*
X2154Y3186D01*
X2159Y3181D01*
X2163Y3178D01*
X2168Y3174D01*
X2174Y3170D01*
X2184Y3165D01*
X2193Y3162D01*
X2201Y3161D01*
X2205Y3160D01*
X2208Y3159D01*
X2211Y3159D01*
X2214D01*
X2221Y3159D01*
X2227Y3160D01*
X2239Y3163D01*
X2249Y3168D01*
X2258Y3173D01*
X2265Y3178D01*
X2270Y3182D01*
X2273Y3185D01*
X2274Y3186D01*
X2275Y3186D01*
X2279Y3192D01*
X2282Y3198D01*
X2288Y3212D01*
X2292Y3227D01*
X2295Y3241D01*
X2296Y3247D01*
X2297Y3254D01*
X2298Y3260D01*
Y3264D01*
X2298Y3269D01*
Y3272D01*
Y3274D01*
Y3274D01*
X2298Y3284D01*
X2297Y3294D01*
X2296Y3302D01*
X2294Y3311D01*
X2293Y3318D01*
X2291Y3325D01*
X2288Y3331D01*
X2286Y3337D01*
X2284Y3341D01*
X2282Y3346D01*
X2280Y3349D01*
X2278Y3352D01*
X2276Y3355D01*
X2275Y3356D01*
X2274Y3357D01*
Y3357D01*
X2270Y3362D01*
X2265Y3367D01*
X2260Y3371D01*
X2255Y3374D01*
X2245Y3379D01*
X2236Y3383D01*
X2227Y3384D01*
X2221Y3386D01*
X2218Y3386D01*
D02*
G37*
G36*
X2547D02*
X2544D01*
X2537Y3386D01*
X2531Y3385D01*
X2519Y3382D01*
X2509Y3377D01*
X2500Y3372D01*
X2493Y3366D01*
X2488Y3362D01*
X2485Y3359D01*
X2484Y3358D01*
Y3357D01*
X2479Y3352D01*
X2475Y3345D01*
X2469Y3332D01*
X2464Y3318D01*
X2462Y3305D01*
X2460Y3298D01*
X2459Y3292D01*
X2459Y3286D01*
Y3282D01*
X2458Y3278D01*
Y3275D01*
Y3273D01*
Y3273D01*
Y3262D01*
X2459Y3252D01*
X2460Y3243D01*
X2462Y3234D01*
X2464Y3227D01*
X2466Y3219D01*
X2468Y3213D01*
X2470Y3207D01*
X2473Y3202D01*
X2475Y3198D01*
X2477Y3195D01*
X2479Y3192D01*
X2480Y3189D01*
X2481Y3187D01*
X2482Y3187D01*
X2482Y3186D01*
X2487Y3181D01*
X2492Y3178D01*
X2497Y3174D01*
X2502Y3170D01*
X2512Y3165D01*
X2522Y3162D01*
X2530Y3161D01*
X2534Y3160D01*
X2536Y3159D01*
X2539Y3159D01*
X2542D01*
X2549Y3159D01*
X2556Y3160D01*
X2567Y3163D01*
X2578Y3168D01*
X2586Y3173D01*
X2594Y3178D01*
X2599Y3182D01*
X2602Y3185D01*
X2602Y3186D01*
X2603Y3186D01*
X2607Y3192D01*
X2611Y3198D01*
X2617Y3212D01*
X2621Y3227D01*
X2624Y3241D01*
X2624Y3247D01*
X2625Y3254D01*
X2626Y3260D01*
Y3264D01*
X2627Y3269D01*
Y3272D01*
Y3274D01*
Y3274D01*
X2626Y3284D01*
X2625Y3294D01*
X2624Y3302D01*
X2623Y3311D01*
X2621Y3318D01*
X2619Y3325D01*
X2617Y3331D01*
X2614Y3337D01*
X2612Y3341D01*
X2610Y3346D01*
X2608Y3349D01*
X2606Y3352D01*
X2605Y3355D01*
X2603Y3356D01*
X2602Y3357D01*
Y3357D01*
X2598Y3362D01*
X2593Y3367D01*
X2588Y3371D01*
X2583Y3374D01*
X2573Y3379D01*
X2564Y3383D01*
X2556Y3384D01*
X2549Y3386D01*
X2547Y3386D01*
D02*
G37*
G36*
X898D02*
X895D01*
X887Y3386D01*
X881Y3385D01*
X868Y3382D01*
X857Y3377D01*
X848Y3371D01*
X841Y3366D01*
X835Y3361D01*
X833Y3359D01*
X831Y3357D01*
X831Y3357D01*
X830Y3356D01*
X826Y3351D01*
X821Y3344D01*
X815Y3331D01*
X810Y3316D01*
X808Y3302D01*
X807Y3296D01*
X806Y3290D01*
X805Y3285D01*
Y3280D01*
X804Y3276D01*
Y3273D01*
Y3271D01*
Y3271D01*
Y3260D01*
X806Y3250D01*
X807Y3240D01*
X808Y3232D01*
X810Y3223D01*
X813Y3216D01*
X815Y3210D01*
X817Y3203D01*
X820Y3198D01*
X822Y3194D01*
X824Y3190D01*
X826Y3187D01*
X828Y3185D01*
X829Y3183D01*
X830Y3182D01*
X830Y3181D01*
X835Y3176D01*
X840Y3172D01*
X846Y3168D01*
X851Y3164D01*
X862Y3159D01*
X872Y3156D01*
X881Y3154D01*
X885Y3153D01*
X888Y3153D01*
X891Y3152D01*
X895D01*
X902Y3153D01*
X908Y3153D01*
X921Y3157D01*
X932Y3162D01*
X941Y3167D01*
X949Y3172D01*
X955Y3177D01*
X956Y3179D01*
X958Y3180D01*
X958Y3181D01*
X959Y3181D01*
X963Y3187D01*
X967Y3194D01*
X974Y3207D01*
X978Y3222D01*
X981Y3236D01*
X982Y3243D01*
X983Y3249D01*
X984Y3255D01*
Y3260D01*
X984Y3263D01*
Y3266D01*
Y3268D01*
Y3269D01*
X984Y3279D01*
X983Y3290D01*
X982Y3299D01*
X980Y3307D01*
X978Y3316D01*
X976Y3323D01*
X974Y3329D01*
X972Y3335D01*
X969Y3340D01*
X967Y3345D01*
X965Y3348D01*
X963Y3351D01*
X961Y3354D01*
X960Y3356D01*
X959Y3356D01*
Y3357D01*
X954Y3362D01*
X949Y3367D01*
X944Y3371D01*
X938Y3374D01*
X927Y3379D01*
X917Y3382D01*
X908Y3384D01*
X905Y3385D01*
X901Y3386D01*
X898Y3386D01*
D02*
G37*
G36*
X2866D02*
X2863D01*
X2855Y3386D01*
X2848Y3385D01*
X2836Y3381D01*
X2825Y3377D01*
X2815Y3371D01*
X2808Y3365D01*
X2803Y3361D01*
X2801Y3359D01*
X2799Y3357D01*
X2798Y3356D01*
Y3356D01*
X2793Y3348D01*
X2788Y3339D01*
X2785Y3329D01*
X2782Y3320D01*
X2781Y3312D01*
X2779Y3308D01*
Y3305D01*
X2779Y3302D01*
X2778Y3300D01*
Y3299D01*
Y3299D01*
X2949D01*
X2948Y3313D01*
X2944Y3325D01*
X2940Y3336D01*
X2935Y3345D01*
X2931Y3352D01*
X2927Y3357D01*
X2924Y3361D01*
X2923Y3362D01*
X2918Y3366D01*
X2913Y3370D01*
X2903Y3376D01*
X2893Y3380D01*
X2883Y3383D01*
X2875Y3385D01*
X2871Y3386D01*
X2869D01*
X2866Y3386D01*
D02*
G37*
G36*
X987Y3802D02*
X983D01*
X977Y3802D01*
X971Y3801D01*
X961Y3798D01*
X951Y3794D01*
X943Y3789D01*
X937Y3785D01*
X932Y3780D01*
X930Y3779D01*
X929Y3778D01*
X928Y3777D01*
X928Y3777D01*
X924Y3772D01*
X920Y3766D01*
X915Y3754D01*
X911Y3742D01*
X908Y3730D01*
X907Y3724D01*
X906Y3719D01*
X906Y3715D01*
Y3711D01*
X905Y3707D01*
Y3705D01*
Y3703D01*
Y3702D01*
Y3693D01*
X906Y3684D01*
X907Y3676D01*
X909Y3669D01*
X911Y3662D01*
X913Y3655D01*
X914Y3650D01*
X916Y3645D01*
X919Y3640D01*
X921Y3636D01*
X923Y3633D01*
X924Y3630D01*
X926Y3628D01*
X927Y3627D01*
X927Y3626D01*
X928Y3626D01*
X932Y3621D01*
X936Y3617D01*
X941Y3614D01*
X946Y3611D01*
X955Y3607D01*
X964Y3604D01*
X971Y3602D01*
X975Y3601D01*
X978Y3601D01*
X980Y3600D01*
X983D01*
X989Y3601D01*
X995Y3601D01*
X1006Y3604D01*
X1016Y3608D01*
X1024Y3613D01*
X1030Y3617D01*
X1035Y3622D01*
X1037Y3623D01*
X1038Y3625D01*
X1038Y3625D01*
X1039Y3626D01*
X1043Y3631D01*
X1046Y3636D01*
X1052Y3648D01*
X1056Y3661D01*
X1058Y3673D01*
X1059Y3678D01*
X1060Y3684D01*
X1060Y3689D01*
Y3693D01*
X1061Y3696D01*
Y3699D01*
Y3701D01*
Y3701D01*
X1060Y3710D01*
X1060Y3719D01*
X1059Y3727D01*
X1057Y3734D01*
X1056Y3741D01*
X1054Y3748D01*
X1052Y3753D01*
X1050Y3758D01*
X1048Y3763D01*
X1046Y3767D01*
X1044Y3769D01*
X1042Y3772D01*
X1041Y3774D01*
X1040Y3776D01*
X1039Y3777D01*
Y3777D01*
X1035Y3781D01*
X1030Y3786D01*
X1026Y3789D01*
X1021Y3792D01*
X1011Y3796D01*
X1003Y3799D01*
X995Y3801D01*
X992Y3801D01*
X989Y3802D01*
X987Y3802D01*
D02*
G37*
G36*
X1522Y4603D02*
X1408D01*
X1401Y4602D01*
X1395Y4601D01*
X1390Y4600D01*
X1385Y4599D01*
X1380Y4598D01*
X1376Y4596D01*
X1373Y4595D01*
X1367Y4592D01*
X1363Y4589D01*
X1360Y4588D01*
X1359Y4587D01*
X1354Y4581D01*
X1349Y4574D01*
X1346Y4567D01*
X1344Y4561D01*
X1343Y4555D01*
X1342Y4551D01*
X1342Y4549D01*
Y4548D01*
Y4548D01*
Y4547D01*
X1342Y4541D01*
X1343Y4536D01*
X1345Y4530D01*
X1346Y4526D01*
X1348Y4522D01*
X1350Y4519D01*
X1350Y4517D01*
X1351Y4517D01*
X1354Y4512D01*
X1359Y4507D01*
X1363Y4504D01*
X1367Y4501D01*
X1371Y4499D01*
X1374Y4498D01*
X1376Y4497D01*
X1377Y4496D01*
X1384Y4494D01*
X1392Y4493D01*
X1400Y4492D01*
X1408Y4491D01*
X1415Y4491D01*
X1418Y4490D01*
X1522D01*
Y4603D01*
D02*
G37*
G36*
X2488Y3802D02*
X2485D01*
X2479Y3802D01*
X2472Y3801D01*
X2462Y3798D01*
X2452Y3794D01*
X2444Y3789D01*
X2438Y3784D01*
X2433Y3780D01*
X2432Y3778D01*
X2430Y3777D01*
X2429Y3777D01*
Y3776D01*
X2424Y3769D01*
X2421Y3761D01*
X2418Y3753D01*
X2415Y3745D01*
X2414Y3738D01*
X2413Y3735D01*
Y3732D01*
X2413Y3730D01*
X2412Y3728D01*
Y3727D01*
Y3727D01*
X2560D01*
X2558Y3739D01*
X2556Y3749D01*
X2552Y3759D01*
X2547Y3767D01*
X2544Y3773D01*
X2540Y3778D01*
X2538Y3780D01*
X2537Y3781D01*
X2533Y3785D01*
X2528Y3788D01*
X2520Y3793D01*
X2511Y3797D01*
X2503Y3800D01*
X2496Y3801D01*
X2492Y3802D01*
X2490D01*
X2488Y3802D01*
D02*
G37*
G36*
X709D02*
X706D01*
X701Y3802D01*
X695Y3801D01*
X685Y3798D01*
X676Y3795D01*
X669Y3790D01*
X663Y3785D01*
X658Y3781D01*
X656Y3778D01*
X655Y3778D01*
Y3778D01*
X651Y3773D01*
X647Y3767D01*
X642Y3756D01*
X638Y3743D01*
X636Y3732D01*
X635Y3726D01*
X634Y3721D01*
X633Y3716D01*
Y3712D01*
X633Y3709D01*
Y3707D01*
Y3705D01*
Y3704D01*
Y3695D01*
X634Y3687D01*
X635Y3679D01*
X636Y3671D01*
X638Y3664D01*
X639Y3658D01*
X641Y3653D01*
X643Y3648D01*
X645Y3644D01*
X647Y3640D01*
X649Y3637D01*
X650Y3635D01*
X652Y3632D01*
X653Y3631D01*
X653Y3630D01*
X654Y3630D01*
X657Y3626D01*
X662Y3622D01*
X666Y3619D01*
X671Y3616D01*
X679Y3612D01*
X687Y3609D01*
X695Y3607D01*
X698Y3607D01*
X700Y3607D01*
X703Y3606D01*
X705D01*
X711Y3607D01*
X717Y3607D01*
X727Y3610D01*
X736Y3614D01*
X743Y3618D01*
X750Y3622D01*
X754Y3626D01*
X757Y3629D01*
X757Y3629D01*
X758Y3630D01*
X761Y3635D01*
X764Y3640D01*
X770Y3652D01*
X773Y3664D01*
X776Y3677D01*
X776Y3683D01*
X777Y3688D01*
X778Y3693D01*
Y3697D01*
X778Y3701D01*
Y3703D01*
Y3705D01*
Y3706D01*
X778Y3714D01*
X777Y3722D01*
X776Y3730D01*
X775Y3737D01*
X773Y3743D01*
X771Y3749D01*
X770Y3755D01*
X768Y3759D01*
X766Y3764D01*
X764Y3768D01*
X762Y3770D01*
X761Y3773D01*
X759Y3775D01*
X758Y3777D01*
X757Y3777D01*
Y3778D01*
X753Y3782D01*
X749Y3786D01*
X745Y3789D01*
X741Y3792D01*
X732Y3796D01*
X724Y3799D01*
X717Y3801D01*
X711Y3802D01*
X709Y3802D01*
D02*
G37*
G36*
X1384D02*
X1380D01*
X1374Y3802D01*
X1369Y3801D01*
X1358Y3798D01*
X1348Y3794D01*
X1340Y3789D01*
X1334Y3785D01*
X1329Y3780D01*
X1327Y3779D01*
X1326Y3778D01*
X1325Y3777D01*
X1325Y3777D01*
X1321Y3772D01*
X1317Y3766D01*
X1312Y3754D01*
X1308Y3742D01*
X1305Y3730D01*
X1304Y3724D01*
X1303Y3719D01*
X1303Y3715D01*
Y3711D01*
X1303Y3707D01*
Y3705D01*
Y3703D01*
Y3702D01*
Y3693D01*
X1303Y3684D01*
X1304Y3676D01*
X1306Y3669D01*
X1308Y3662D01*
X1310Y3655D01*
X1312Y3650D01*
X1313Y3645D01*
X1316Y3640D01*
X1318Y3636D01*
X1320Y3633D01*
X1322Y3630D01*
X1323Y3628D01*
X1324Y3627D01*
X1324Y3626D01*
X1325Y3626D01*
X1329Y3621D01*
X1333Y3617D01*
X1338Y3614D01*
X1343Y3611D01*
X1352Y3607D01*
X1361Y3604D01*
X1369Y3602D01*
X1372Y3601D01*
X1375Y3601D01*
X1377Y3600D01*
X1380D01*
X1387Y3601D01*
X1392Y3601D01*
X1403Y3604D01*
X1413Y3608D01*
X1421Y3613D01*
X1427Y3617D01*
X1432Y3622D01*
X1434Y3623D01*
X1435Y3625D01*
X1436Y3625D01*
X1436Y3626D01*
X1440Y3631D01*
X1443Y3636D01*
X1449Y3648D01*
X1453Y3661D01*
X1455Y3673D01*
X1456Y3678D01*
X1457Y3684D01*
X1457Y3689D01*
Y3693D01*
X1458Y3696D01*
Y3699D01*
Y3701D01*
Y3701D01*
X1457Y3710D01*
X1457Y3719D01*
X1456Y3727D01*
X1455Y3734D01*
X1453Y3741D01*
X1451Y3748D01*
X1449Y3753D01*
X1447Y3758D01*
X1445Y3763D01*
X1443Y3767D01*
X1441Y3769D01*
X1439Y3772D01*
X1438Y3774D01*
X1437Y3776D01*
X1436Y3777D01*
Y3777D01*
X1432Y3781D01*
X1427Y3786D01*
X1423Y3789D01*
X1418Y3792D01*
X1408Y3796D01*
X1400Y3799D01*
X1392Y3801D01*
X1389Y3801D01*
X1386Y3802D01*
X1384Y3802D01*
D02*
G37*
G36*
X1881Y3386D02*
X1877D01*
X1870Y3386D01*
X1863Y3385D01*
X1851Y3381D01*
X1840Y3377D01*
X1830Y3371D01*
X1823Y3365D01*
X1818Y3361D01*
X1816Y3359D01*
X1814Y3357D01*
X1813Y3356D01*
Y3356D01*
X1808Y3348D01*
X1803Y3339D01*
X1800Y3329D01*
X1797Y3320D01*
X1796Y3312D01*
X1794Y3308D01*
Y3305D01*
X1794Y3302D01*
X1793Y3300D01*
Y3299D01*
Y3299D01*
X1964D01*
X1963Y3313D01*
X1959Y3325D01*
X1955Y3336D01*
X1950Y3345D01*
X1946Y3352D01*
X1942Y3357D01*
X1939Y3361D01*
X1938Y3362D01*
X1933Y3366D01*
X1928Y3370D01*
X1918Y3376D01*
X1908Y3380D01*
X1898Y3383D01*
X1890Y3385D01*
X1886Y3386D01*
X1884D01*
X1881Y3386D01*
D02*
G37*
%LPD*%
D34*
X4952Y1556D02*
X5248D01*
X4952Y2244D02*
X5248D01*
X4952Y1998D02*
Y2244D01*
Y1556D02*
Y1802D01*
X5248Y1998D02*
Y2244D01*
Y1556D02*
Y1802D01*
X5302Y1556D02*
X5598D01*
X5302Y2244D02*
X5598D01*
X5302Y1998D02*
Y2244D01*
Y1556D02*
Y1802D01*
X5598Y1998D02*
Y2244D01*
Y1556D02*
Y1802D01*
X6532Y5016D02*
X6808D01*
X6532Y5724D02*
X6808D01*
X6532Y5468D02*
Y5724D01*
Y5016D02*
Y5272D01*
X6808Y5468D02*
Y5724D01*
Y5016D02*
Y5272D01*
X6467Y5007D02*
Y5372D01*
Y5568D02*
Y5933D01*
X6073Y5007D02*
Y5372D01*
Y5568D02*
Y5933D01*
X6467D01*
X6073Y5007D02*
X6467D01*
X5667Y4997D02*
Y5362D01*
Y5558D02*
Y5923D01*
X5273Y4997D02*
Y5362D01*
Y5558D02*
Y5923D01*
X5667D01*
X5273Y4997D02*
X5667D01*
X8892Y5974D02*
X9168D01*
X8892Y5266D02*
X9168D01*
Y5522D01*
Y5718D02*
Y5974D01*
X8892Y5266D02*
Y5522D01*
Y5718D02*
Y5974D01*
X7072Y5266D02*
X7348D01*
X7072Y5974D02*
X7348D01*
X7072Y5718D02*
Y5974D01*
Y5266D02*
Y5522D01*
X7348Y5718D02*
Y5974D01*
Y5266D02*
Y5522D01*
X5312Y3636D02*
X5588D01*
X5312Y4344D02*
X5588D01*
X5312Y4088D02*
Y4344D01*
Y3636D02*
Y3892D01*
X5588Y4088D02*
Y4344D01*
Y3636D02*
Y3892D01*
X5312Y3154D02*
X5588D01*
X5312Y2446D02*
X5588D01*
Y2702D01*
Y2898D02*
Y3154D01*
X5312Y2446D02*
Y2702D01*
Y2898D02*
Y3154D01*
X4076Y2422D02*
Y2718D01*
X4764Y2422D02*
Y2718D01*
X4518D02*
X4764D01*
X4076D02*
X4322D01*
X4518Y2422D02*
X4764D01*
X4076D02*
X4322D01*
X5112Y596D02*
X5408D01*
X5112Y1284D02*
X5408D01*
X5112Y1038D02*
Y1284D01*
Y596D02*
Y842D01*
X5408Y1038D02*
Y1284D01*
Y596D02*
Y842D01*
X8704Y1002D02*
Y1278D01*
X7996Y1002D02*
Y1278D01*
Y1002D02*
X8252D01*
X8448D02*
X8704D01*
X7996Y1278D02*
X8252D01*
X8448D02*
X8704D01*
X6412Y616D02*
X6708D01*
X6412Y1304D02*
X6708D01*
X6412Y1058D02*
Y1304D01*
Y616D02*
Y862D01*
X6708Y1058D02*
Y1304D01*
Y616D02*
Y862D01*
X6772Y616D02*
X7068D01*
X6772Y1304D02*
X7068D01*
X6772Y1058D02*
Y1304D01*
Y616D02*
Y862D01*
X7068Y1058D02*
Y1304D01*
Y616D02*
Y862D01*
X9306Y962D02*
Y1258D01*
X9994Y962D02*
Y1258D01*
X9748D02*
X9994D01*
X9306D02*
X9552D01*
X9748Y962D02*
X9994D01*
X9306D02*
X9552D01*
X9292Y2034D02*
X9568D01*
X9292Y1326D02*
X9568D01*
Y1582D01*
Y1778D02*
Y2034D01*
X9292Y1326D02*
Y1582D01*
Y1778D02*
Y2034D01*
X9652Y1906D02*
X9948D01*
X9652Y2594D02*
X9948D01*
X9652Y2348D02*
Y2594D01*
Y1906D02*
Y2152D01*
X9948Y2348D02*
Y2594D01*
Y1906D02*
Y2152D01*
X9652Y2886D02*
X9948D01*
X9652Y3574D02*
X9948D01*
X9652Y3328D02*
Y3574D01*
Y2886D02*
Y3132D01*
X9948Y3328D02*
Y3574D01*
Y2886D02*
Y3132D01*
X9292Y2296D02*
X9588D01*
X9292Y2984D02*
X9588D01*
X9292Y2738D02*
Y2984D01*
Y2296D02*
Y2542D01*
X9588Y2738D02*
Y2984D01*
Y2296D02*
Y2542D01*
X9296Y4362D02*
Y4658D01*
X9984Y4362D02*
Y4658D01*
X9738D02*
X9984D01*
X9296D02*
X9542D01*
X9738Y4362D02*
X9984D01*
X9296D02*
X9542D01*
X9296Y5062D02*
Y5358D01*
X9984Y5062D02*
Y5358D01*
X9738D02*
X9984D01*
X9296D02*
X9542D01*
X9738Y5062D02*
X9984D01*
X9296D02*
X9542D01*
X9286Y4722D02*
Y4998D01*
X9994Y4722D02*
Y4998D01*
X9738D02*
X9994D01*
X9286D02*
X9542D01*
X9738Y4722D02*
X9994D01*
X9286D02*
X9542D01*
X8830Y5550D02*
Y5690D01*
X7650Y5020D02*
X8590D01*
X7410Y5550D02*
Y5690D01*
X7650Y6220D02*
X8590D01*
X10171Y790D02*
X10014D01*
X10100Y676D01*
X10057D01*
X10029Y661D01*
X10014Y647D01*
X10000Y604D01*
Y576D01*
X10014Y533D01*
X10043Y504D01*
X10086Y490D01*
X10129D01*
X10171Y504D01*
X10186Y519D01*
X10200Y547D01*
X9919Y519D02*
X9933Y504D01*
X9919Y490D01*
X9904Y504D01*
X9919Y519D01*
X9810Y790D02*
X9653D01*
X9739Y676D01*
X9696D01*
X9667Y661D01*
X9653Y647D01*
X9639Y604D01*
Y576D01*
X9653Y533D01*
X9682Y504D01*
X9724Y490D01*
X9767D01*
X9810Y504D01*
X9824Y519D01*
X9839Y547D01*
X9572Y790D02*
X9457Y490D01*
X9343Y790D02*
X9457Y490D01*
X8936Y719D02*
X8950Y747D01*
X8979Y776D01*
X9007Y790D01*
X9064D01*
X9093Y776D01*
X9121Y747D01*
X9136Y719D01*
X9150Y676D01*
Y604D01*
X9136Y561D01*
X9121Y533D01*
X9093Y504D01*
X9064Y490D01*
X9007D01*
X8979Y504D01*
X8950Y533D01*
X8936Y561D01*
Y604D01*
X9007D02*
X8936D01*
X8867Y790D02*
Y490D01*
Y790D02*
X8667Y490D01*
Y790D02*
Y490D01*
X8584Y790D02*
Y490D01*
Y790D02*
X8484D01*
X8442Y776D01*
X8413Y747D01*
X8399Y719D01*
X8384Y676D01*
Y604D01*
X8399Y561D01*
X8413Y533D01*
X8442Y504D01*
X8484Y490D01*
X8584D01*
X12416Y1089D02*
X12430Y1117D01*
X12459Y1146D01*
X12487Y1160D01*
X12544D01*
X12573Y1146D01*
X12601Y1117D01*
X12616Y1089D01*
X12630Y1046D01*
Y974D01*
X12616Y931D01*
X12601Y903D01*
X12573Y874D01*
X12544Y860D01*
X12487D01*
X12459Y874D01*
X12430Y903D01*
X12416Y931D01*
Y974D01*
X12487D02*
X12416D01*
X12347Y1160D02*
Y860D01*
Y1160D02*
X12147Y860D01*
Y1160D02*
Y860D01*
X12064Y1160D02*
Y860D01*
Y1160D02*
X11964D01*
X11922Y1146D01*
X11893Y1117D01*
X11879Y1089D01*
X11864Y1046D01*
Y974D01*
X11879Y931D01*
X11893Y903D01*
X11922Y874D01*
X11964Y860D01*
X12064D01*
X13231Y5380D02*
X13074D01*
X13160Y5266D01*
X13117D01*
X13089Y5251D01*
X13074Y5237D01*
X13060Y5194D01*
Y5166D01*
X13074Y5123D01*
X13103Y5094D01*
X13146Y5080D01*
X13189D01*
X13231Y5094D01*
X13246Y5109D01*
X13260Y5137D01*
X12979Y5109D02*
X12993Y5094D01*
X12979Y5080D01*
X12964Y5094D01*
X12979Y5109D01*
X12727Y5337D02*
X12742Y5366D01*
X12784Y5380D01*
X12813D01*
X12856Y5366D01*
X12884Y5323D01*
X12899Y5251D01*
Y5180D01*
X12884Y5123D01*
X12856Y5094D01*
X12813Y5080D01*
X12799D01*
X12756Y5094D01*
X12727Y5123D01*
X12713Y5166D01*
Y5180D01*
X12727Y5223D01*
X12756Y5251D01*
X12799Y5266D01*
X12813D01*
X12856Y5251D01*
X12884Y5223D01*
X12899Y5180D01*
X12647Y5380D02*
X12533Y5080D01*
X12419Y5380D02*
X12533Y5080D01*
X12380Y5209D02*
X12123D01*
X11863Y5380D02*
X12006D01*
X12020Y5251D01*
X12006Y5266D01*
X11963Y5280D01*
X11920D01*
X11877Y5266D01*
X11849Y5237D01*
X11835Y5194D01*
Y5166D01*
X11849Y5123D01*
X11877Y5094D01*
X11920Y5080D01*
X11963D01*
X12006Y5094D01*
X12020Y5109D01*
X12035Y5137D01*
X11753Y5109D02*
X11767Y5094D01*
X11753Y5080D01*
X11739Y5094D01*
X11753Y5109D01*
X11502Y5380D02*
X11645D01*
X11659Y5251D01*
X11645Y5266D01*
X11602Y5280D01*
X11559D01*
X11516Y5266D01*
X11488Y5237D01*
X11473Y5194D01*
Y5166D01*
X11488Y5123D01*
X11516Y5094D01*
X11559Y5080D01*
X11602D01*
X11645Y5094D01*
X11659Y5109D01*
X11673Y5137D01*
X11406Y5380D02*
X11292Y5080D01*
X11178Y5380D02*
X11292Y5080D01*
D35*
X10000Y6160D02*
Y5900D01*
X9870D01*
X9827Y5943D01*
Y6117D01*
X9870Y6160D01*
X10000D01*
X9740Y5900D02*
X9653D01*
X9697D01*
Y6160D01*
X9740Y6117D01*
X9560Y3720D02*
X9310D01*
Y3595D01*
X9352Y3553D01*
X9435D01*
X9477Y3595D01*
Y3720D01*
Y3637D02*
X9560Y3553D01*
Y3303D02*
Y3470D01*
X9393Y3303D01*
X9352D01*
X9310Y3345D01*
Y3428D01*
X9352Y3470D01*
Y3220D02*
X9310Y3179D01*
Y3095D01*
X9352Y3054D01*
X9518D01*
X9560Y3095D01*
Y3179D01*
X9518Y3220D01*
X9352D01*
X10270Y3540D02*
X10020D01*
Y3415D01*
X10062Y3373D01*
X10145D01*
X10187Y3415D01*
Y3540D01*
Y3457D02*
X10270Y3373D01*
Y3290D02*
Y3207D01*
Y3248D01*
X10020D01*
X10062Y3290D01*
X10228Y3082D02*
X10270Y3040D01*
Y2957D01*
X10228Y2915D01*
X10062D01*
X10020Y2957D01*
Y3040D01*
X10062Y3082D01*
X10103D01*
X10145Y3040D01*
Y2915D01*
X4580Y2210D02*
X4330D01*
Y2085D01*
X4372Y2043D01*
X4455D01*
X4497Y2085D01*
Y2210D01*
Y2127D02*
X4580Y2043D01*
Y1960D02*
Y1877D01*
Y1918D01*
X4330D01*
X4372Y1960D01*
Y1752D02*
X4330Y1710D01*
Y1627D01*
X4372Y1585D01*
X4413D01*
X4455Y1627D01*
Y1669D01*
Y1627D01*
X4497Y1585D01*
X4538D01*
X4580Y1627D01*
Y1710D01*
X4538Y1752D01*
X5730Y1270D02*
X5480D01*
Y1145D01*
X5522Y1103D01*
X5605D01*
X5647Y1145D01*
Y1270D01*
Y1187D02*
X5730Y1103D01*
Y1020D02*
Y937D01*
Y978D01*
X5480D01*
X5522Y1020D01*
X5730Y645D02*
Y812D01*
X5563Y645D01*
X5522D01*
X5480Y687D01*
Y770D01*
X5522Y812D01*
X10690Y990D02*
Y1240D01*
X10565D01*
X10523Y1198D01*
Y1115D01*
X10565Y1073D01*
X10690D01*
X10607D02*
X10523Y990D01*
X10440D02*
X10357D01*
X10398D01*
Y1240D01*
X10440Y1198D01*
X10232D02*
X10190Y1240D01*
X10107D01*
X10065Y1198D01*
Y1032D01*
X10107Y990D01*
X10190D01*
X10232Y1032D01*
Y1198D01*
X10143Y1558D02*
X10185Y1600D01*
X10268D01*
X10310Y1558D01*
Y1392D01*
X10268Y1350D01*
X10185D01*
X10143Y1392D01*
X10060Y1558D02*
X10018Y1600D01*
X9935D01*
X9893Y1558D01*
Y1517D01*
X9935Y1475D01*
X9977D01*
X9935D01*
X9893Y1433D01*
Y1392D01*
X9935Y1350D01*
X10018D01*
X10060Y1392D01*
X9810D02*
X9769Y1350D01*
X9685D01*
X9644Y1392D01*
Y1558D01*
X9685Y1600D01*
X9769D01*
X9810Y1558D01*
Y1517D01*
X9769Y1475D01*
X9644D01*
X7129Y5782D02*
X7088Y5823D01*
Y5907D01*
X7129Y5948D01*
X7296D01*
X7338Y5907D01*
Y5823D01*
X7296Y5782D01*
X7338Y5532D02*
Y5698D01*
X7171Y5532D01*
X7129D01*
X7088Y5573D01*
Y5657D01*
X7129Y5698D01*
Y5449D02*
X7088Y5407D01*
Y5324D01*
X7129Y5282D01*
X7171D01*
X7213Y5324D01*
Y5365D01*
Y5324D01*
X7254Y5282D01*
X7296D01*
X7338Y5324D01*
Y5407D01*
X7296Y5449D01*
X5802Y5613D02*
X5760Y5655D01*
Y5738D01*
X5802Y5780D01*
X5968D01*
X6010Y5738D01*
Y5655D01*
X5968Y5613D01*
X6010Y5363D02*
Y5530D01*
X5843Y5363D01*
X5802D01*
X5760Y5405D01*
Y5488D01*
X5802Y5530D01*
X5760Y5280D02*
Y5114D01*
X5802D01*
X5968Y5280D01*
X6010D01*
X8949Y5782D02*
X8908Y5823D01*
Y5907D01*
X8949Y5948D01*
X9116D01*
X9158Y5907D01*
Y5823D01*
X9116Y5782D01*
X9158Y5532D02*
Y5698D01*
X8991Y5532D01*
X8949D01*
X8908Y5573D01*
Y5657D01*
X8949Y5698D01*
X9158Y5282D02*
Y5449D01*
X8991Y5282D01*
X8949D01*
X8908Y5324D01*
Y5407D01*
X8949Y5449D01*
X6922Y5543D02*
X6880Y5585D01*
Y5668D01*
X6922Y5710D01*
X7088D01*
X7130Y5668D01*
Y5585D01*
X7088Y5543D01*
X7130Y5293D02*
Y5460D01*
X6963Y5293D01*
X6922D01*
X6880Y5335D01*
Y5418D01*
X6922Y5460D01*
X6880Y5044D02*
X6922Y5127D01*
X7005Y5210D01*
X7088D01*
X7130Y5169D01*
Y5085D01*
X7088Y5044D01*
X7047D01*
X7005Y5085D01*
Y5210D01*
X4992Y5613D02*
X4950Y5655D01*
Y5738D01*
X4992Y5780D01*
X5158D01*
X5200Y5738D01*
Y5655D01*
X5158Y5613D01*
X5200Y5363D02*
Y5530D01*
X5033Y5363D01*
X4992D01*
X4950Y5405D01*
Y5488D01*
X4992Y5530D01*
X4950Y5114D02*
Y5280D01*
X5075D01*
X5033Y5197D01*
Y5155D01*
X5075Y5114D01*
X5158D01*
X5200Y5155D01*
Y5239D01*
X5158Y5280D01*
X10520Y4952D02*
X10562Y4993D01*
X10645D01*
X10687Y4952D01*
Y4785D01*
X10645Y4743D01*
X10562D01*
X10520Y4785D01*
X10437Y4743D02*
X10354D01*
X10395D01*
Y4993D01*
X10437Y4952D01*
X10229Y4785D02*
X10187Y4743D01*
X10104D01*
X10062Y4785D01*
Y4952D01*
X10104Y4993D01*
X10187D01*
X10229Y4952D01*
Y4910D01*
X10187Y4868D01*
X10062D01*
X5042Y4103D02*
X5000Y4145D01*
Y4228D01*
X5042Y4270D01*
X5208D01*
X5250Y4228D01*
Y4145D01*
X5208Y4103D01*
X5042Y4020D02*
X5000Y3978D01*
Y3895D01*
X5042Y3853D01*
X5083D01*
X5125Y3895D01*
Y3937D01*
Y3895D01*
X5167Y3853D01*
X5208D01*
X5250Y3895D01*
Y3978D01*
X5208Y4020D01*
X5250Y3770D02*
Y3687D01*
Y3729D01*
X5000D01*
X5042Y3770D01*
X7983Y898D02*
X8025Y940D01*
X8108D01*
X8150Y898D01*
Y732D01*
X8108Y690D01*
X8025D01*
X7983Y732D01*
X7900Y898D02*
X7858Y940D01*
X7775D01*
X7733Y898D01*
Y857D01*
X7775Y815D01*
X7817D01*
X7775D01*
X7733Y773D01*
Y732D01*
X7775Y690D01*
X7858D01*
X7900Y732D01*
X7484Y690D02*
X7650D01*
X7484Y857D01*
Y898D01*
X7525Y940D01*
X7609D01*
X7650Y898D01*
X5042Y2953D02*
X5000Y2995D01*
Y3078D01*
X5042Y3120D01*
X5208D01*
X5250Y3078D01*
Y2995D01*
X5208Y2953D01*
X5042Y2870D02*
X5000Y2828D01*
Y2745D01*
X5042Y2703D01*
X5083D01*
X5125Y2745D01*
Y2787D01*
Y2745D01*
X5167Y2703D01*
X5208D01*
X5250Y2745D01*
Y2828D01*
X5208Y2870D01*
X5000Y2454D02*
X5042Y2537D01*
X5125Y2620D01*
X5208D01*
X5250Y2579D01*
Y2495D01*
X5208Y2454D01*
X5167D01*
X5125Y2495D01*
Y2620D01*
X10260Y2480D02*
X10010D01*
Y2355D01*
X10052Y2313D01*
X10135D01*
X10177Y2355D01*
Y2480D01*
Y2397D02*
X10260Y2313D01*
X10052Y2230D02*
X10010Y2188D01*
Y2105D01*
X10052Y2063D01*
X10093D01*
X10135Y2105D01*
X10177Y2063D01*
X10218D01*
X10260Y2105D01*
Y2188D01*
X10218Y2230D01*
X10177D01*
X10135Y2188D01*
X10093Y2230D01*
X10052D01*
X10135Y2188D02*
Y2105D01*
X10597Y5093D02*
Y5343D01*
X10472D01*
X10430Y5302D01*
Y5218D01*
X10472Y5177D01*
X10597D01*
X10514D02*
X10430Y5093D01*
X10347D02*
X10264D01*
X10305D01*
Y5343D01*
X10347Y5302D01*
X10139Y5093D02*
X10055D01*
X10097D01*
Y5343D01*
X10139Y5302D01*
X9840Y4040D02*
Y4290D01*
X9715D01*
X9673Y4248D01*
Y4165D01*
X9715Y4123D01*
X9840D01*
X9757D02*
X9673Y4040D01*
X9423Y4290D02*
X9590D01*
Y4165D01*
X9507Y4207D01*
X9465D01*
X9423Y4165D01*
Y4082D01*
X9465Y4040D01*
X9548D01*
X9590Y4082D01*
X7380Y1160D02*
X7130D01*
Y1035D01*
X7172Y993D01*
X7255D01*
X7297Y1035D01*
Y1160D01*
Y1077D02*
X7380Y993D01*
X7130Y743D02*
X7172Y827D01*
X7255Y910D01*
X7338D01*
X7380Y868D01*
Y785D01*
X7338Y743D01*
X7297D01*
X7255Y785D01*
Y910D01*
X6350Y1160D02*
X6100D01*
Y1035D01*
X6142Y993D01*
X6225D01*
X6267Y1035D01*
Y1160D01*
Y1077D02*
X6350Y993D01*
X6100Y910D02*
Y743D01*
X6142D01*
X6308Y910D01*
X6350D01*
X5560Y4780D02*
Y4572D01*
X5518Y4530D01*
X5435D01*
X5393Y4572D01*
Y4780D01*
X5310Y4738D02*
X5268Y4780D01*
X5185D01*
X5143Y4738D01*
Y4697D01*
X5185Y4655D01*
X5227D01*
X5185D01*
X5143Y4613D01*
Y4572D01*
X5185Y4530D01*
X5268D01*
X5310Y4572D01*
X8398Y5698D02*
X8231Y5448D01*
Y5698D02*
X8398Y5448D01*
X8148Y5657D02*
X8106Y5698D01*
X8023D01*
X7981Y5657D01*
Y5615D01*
X8023Y5573D01*
X8064D01*
X8023D01*
X7981Y5532D01*
Y5490D01*
X8023Y5448D01*
X8106D01*
X8148Y5490D01*
X4890Y2210D02*
X4640D01*
Y2085D01*
X4682Y2043D01*
X4765D01*
X4807Y2085D01*
Y2210D01*
Y2127D02*
X4890Y2043D01*
Y1960D02*
Y1877D01*
Y1918D01*
X4640D01*
X4682Y1960D01*
X4890Y1627D02*
X4640D01*
X4765Y1752D01*
Y1585D01*
X3990Y2440D02*
Y2690D01*
X3865D01*
X3823Y2648D01*
Y2565D01*
X3865Y2523D01*
X3990D01*
X3907D02*
X3823Y2440D01*
X3740D02*
X3657D01*
X3698D01*
Y2690D01*
X3740Y2648D01*
D37*
X4109Y4135D02*
G03*
X4189Y4215I0J80D01*
G01*
Y5565D02*
G03*
X4109Y5645I-80J0D01*
G01*
X1189D02*
G03*
X1109Y5565I0J-80D01*
G01*
Y4215D02*
G03*
X1189Y4135I80J0D01*
G01*
X4189Y4216D02*
Y5558D01*
X1189Y4135D02*
X4109Y4135D01*
X1189Y5645D02*
X4109D01*
X1109Y4216D02*
Y5558D01*
D38*
X4007Y1822D02*
X4065Y1880D01*
X4182D01*
X4240Y1822D01*
Y1763D01*
X4182Y1705D01*
X4065D01*
X4007Y1647D01*
Y1588D01*
X4065Y1530D01*
X4182D01*
X4240Y1588D01*
X3890Y1880D02*
Y1530D01*
X3773Y1647D01*
X3657Y1530D01*
Y1880D01*
X3540Y1530D02*
X3424D01*
X3482D01*
Y1880D01*
X3540Y1822D01*
D52*
X9179Y5100D02*
G03*
X9179Y5100I-49J0D01*
G01*
D54*
X5668Y1378D02*
X9212D01*
X5668Y4922D02*
X9212D01*
X5668Y1378D02*
Y4922D01*
X9212Y1378D02*
Y4922D01*
X8823D02*
X9212Y4533D01*
X6388Y5431D02*
Y5509D01*
X6152Y5431D02*
Y5509D01*
X5588Y5421D02*
Y5499D01*
X5352Y5421D02*
Y5499D01*
X4539Y259D02*
Y1401D01*
X3161Y259D02*
Y1401D01*
Y259D02*
X4539D01*
X3161Y1401D02*
X4539D01*
X3515Y3D02*
X4185D01*
X3515D02*
Y259D01*
X4185Y3D02*
Y259D01*
D55*
X9722Y5503D02*
Y5817D01*
X9683Y5503D02*
Y5817D01*
X9643Y5503D02*
Y5817D01*
X9604Y5503D02*
Y5817D01*
Y5503D02*
X10076D01*
Y5817D01*
X9604D02*
X10076D01*
D86*
X12942Y4673D02*
X15992D01*
X12942Y4670D02*
X15992D01*
X12942Y4666D02*
X15992D01*
X12942Y4663D02*
X15992D01*
X12942Y4659D02*
X15992D01*
X12942Y4656D02*
X15992D01*
X12942Y4653D02*
X15992D01*
X12942Y4649D02*
X15992D01*
X12942Y4646D02*
X15992D01*
X12942Y4642D02*
X15992D01*
X12942Y4639D02*
X15992D01*
X12942Y4636D02*
X15992D01*
X12942Y4632D02*
X15992D01*
X12942Y4629D02*
X15992D01*
X12942Y4625D02*
X15992D01*
X12942Y4622D02*
X15992D01*
X12942Y4619D02*
X15992D01*
X12942Y4615D02*
X15992D01*
X12942Y4612D02*
X15992D01*
X12942Y4608D02*
X15992D01*
X12942Y4605D02*
X15992D01*
X12942Y4602D02*
X15992D01*
X12942Y4598D02*
X15992D01*
X12942Y4595D02*
X15992D01*
X12942Y4591D02*
X15992D01*
X12942Y4588D02*
X15992D01*
X12942Y4585D02*
X15992D01*
X12942Y4581D02*
X15992D01*
X12942Y4578D02*
X15992D01*
X12942Y4574D02*
X15992D01*
X12942Y4571D02*
X15992D01*
X12942Y4568D02*
X15992D01*
X12942Y4564D02*
X15992D01*
X12942Y4561D02*
X15992D01*
X12942Y4557D02*
X15992D01*
X12942Y4554D02*
X15992D01*
X12942Y4551D02*
X15992D01*
X12942Y4547D02*
X15992D01*
X12942Y4544D02*
X15992D01*
X12942Y4540D02*
X15992D01*
X12942Y4537D02*
X15992D01*
X12942Y4534D02*
X15992D01*
X12942Y4530D02*
X15992D01*
X12942Y4527D02*
X15992D01*
X12942Y4523D02*
X15992D01*
X12942Y4520D02*
X15992D01*
X12942Y4517D02*
X15992D01*
X12942Y4513D02*
X15992D01*
X12942Y4510D02*
X15992D01*
X12942Y4506D02*
X15992D01*
X12942Y4503D02*
X15992D01*
X12942Y4500D02*
X15992D01*
X12942Y4496D02*
X15992D01*
X12942Y4493D02*
X15992D01*
X12942Y4489D02*
X15992D01*
X12942Y4486D02*
X15992D01*
X12942Y4483D02*
X15992D01*
X12942Y4479D02*
X15992D01*
X12942Y4476D02*
X15992D01*
X12942Y4472D02*
X15992D01*
X12942Y4469D02*
X15992D01*
X12942Y4466D02*
X15992D01*
X12942Y4462D02*
X15992D01*
X12942Y4459D02*
X15992D01*
X12942Y4455D02*
X15992D01*
X12942Y4452D02*
X15992D01*
X12942Y4449D02*
X15992D01*
X12942Y4445D02*
X15992D01*
X12942Y4442D02*
X15992D01*
X12942Y4438D02*
X15992D01*
X12942Y4435D02*
X15992D01*
X12942Y4432D02*
X15992D01*
X12942Y4428D02*
X15992D01*
X12942Y4425D02*
X15992D01*
X12942Y4421D02*
X15992D01*
X12942Y4418D02*
X15992D01*
X12942Y4415D02*
X15992D01*
X12942Y4411D02*
X15992D01*
X12942Y4408D02*
X15992D01*
X12942Y4404D02*
X15992D01*
X12942Y4401D02*
X15992D01*
X12942Y4398D02*
X15992D01*
X12942Y4394D02*
X15992D01*
X12942Y4391D02*
X15992D01*
X12942Y4387D02*
X15992D01*
X12942Y4384D02*
X15992D01*
X12942Y4381D02*
X15992D01*
X12942Y4377D02*
X15992D01*
X12942Y4374D02*
X15992D01*
X12942Y4370D02*
X15992D01*
X12942Y4367D02*
X15992D01*
X12942Y4364D02*
X15992D01*
X12942Y4360D02*
X15992D01*
X12942Y4357D02*
X15992D01*
X12942Y4353D02*
X15992D01*
X12942Y4350D02*
X15992D01*
X12942Y4347D02*
X15992D01*
X12942Y4343D02*
X15992D01*
X12942Y4340D02*
X15992D01*
X12942Y4336D02*
X15992D01*
X12942Y4333D02*
X15992D01*
X12942Y4330D02*
X15992D01*
X12942Y4326D02*
X15992D01*
X12942Y4323D02*
X15992D01*
X12942Y4319D02*
X15992D01*
X12942Y4316D02*
X15992D01*
X12942Y4313D02*
X15992D01*
X12942Y4309D02*
X15992D01*
X12942Y4306D02*
X15992D01*
X12942Y4302D02*
X15992D01*
X12942Y4299D02*
X15992D01*
X12942Y4296D02*
X15992D01*
X12942Y4292D02*
X15992D01*
X14771Y4289D02*
X15992D01*
X13285D02*
X14761D01*
X12942D02*
X13278D01*
X14785Y4285D02*
X15992D01*
X13302D02*
X14761D01*
X12942D02*
X13278D01*
X14802Y4282D02*
X15992D01*
X13316D02*
X14761D01*
X12942D02*
X13278D01*
X14815Y4279D02*
X15992D01*
X13329D02*
X14761D01*
X12942D02*
X13278D01*
X14829Y4275D02*
X15992D01*
X13343D02*
X14761D01*
X12942D02*
X13278D01*
X14842Y4272D02*
X15992D01*
X13357D02*
X14761D01*
X12942D02*
X13278D01*
X14856Y4268D02*
X15992D01*
X13374D02*
X14761D01*
X12942D02*
X13278D01*
X14870Y4265D02*
X15992D01*
X13387D02*
X14761D01*
X12942D02*
X13278D01*
X14880Y4262D02*
X15992D01*
X13394D02*
X14761D01*
X12942D02*
X13278D01*
X14880Y4258D02*
X15992D01*
X13394D02*
X14761D01*
X12942D02*
X13278D01*
X14880Y4255D02*
X15992D01*
X13394D02*
X14761D01*
X12942D02*
X13278D01*
X14880Y4251D02*
X15992D01*
X13394D02*
X14761D01*
X12942D02*
X13278D01*
X14880Y4248D02*
X15992D01*
X13394D02*
X14761D01*
X12942D02*
X13278D01*
X14880Y4245D02*
X15992D01*
X13394D02*
X14761D01*
X12942D02*
X13278D01*
X14880Y4241D02*
X15992D01*
X13394D02*
X14761D01*
X12942D02*
X13278D01*
X14880Y4238D02*
X15992D01*
X13394D02*
X14761D01*
X12942D02*
X13278D01*
X14880Y4234D02*
X15992D01*
X13394D02*
X14761D01*
X12942D02*
X13278D01*
X14880Y4231D02*
X15992D01*
X13394D02*
X14761D01*
X12942D02*
X13278D01*
X14880Y4228D02*
X15992D01*
X13394D02*
X14761D01*
X12942D02*
X13278D01*
X14880Y4224D02*
X15992D01*
X13394D02*
X14761D01*
X12942D02*
X13278D01*
X14880Y4221D02*
X15992D01*
X13394D02*
X14761D01*
X12942D02*
X13278D01*
X14880Y4217D02*
X15992D01*
X13394D02*
X14761D01*
X12942D02*
X13278D01*
X14880Y4214D02*
X15992D01*
X13394D02*
X14761D01*
X12942D02*
X13278D01*
X14880Y4211D02*
X15992D01*
X13394D02*
X14761D01*
X12942D02*
X13278D01*
X14880Y4207D02*
X15992D01*
X13394D02*
X14761D01*
X12942D02*
X13278D01*
X14880Y4204D02*
X15992D01*
X13394D02*
X14761D01*
X12942D02*
X13278D01*
X14880Y4200D02*
X15992D01*
X13394D02*
X14761D01*
X12942D02*
X13278D01*
X14880Y4197D02*
X15992D01*
X13394D02*
X14761D01*
X12942D02*
X13278D01*
X14880Y4194D02*
X15992D01*
X13394D02*
X14761D01*
X12942D02*
X13278D01*
X14880Y4190D02*
X15992D01*
X13394D02*
X14761D01*
X12942D02*
X13278D01*
X14880Y4187D02*
X15992D01*
X13394D02*
X14761D01*
X12942D02*
X13278D01*
X14880Y4183D02*
X15992D01*
X13394D02*
X14761D01*
X12942D02*
X13278D01*
X14880Y4180D02*
X15992D01*
X13394D02*
X14761D01*
X12942D02*
X13278D01*
X14880Y4177D02*
X15992D01*
X13394D02*
X14761D01*
X12942D02*
X13278D01*
X14880Y4173D02*
X15992D01*
X13394D02*
X14761D01*
X12942D02*
X13278D01*
X14880Y4170D02*
X15992D01*
X13394D02*
X14761D01*
X12942D02*
X13278D01*
X14880Y4166D02*
X15992D01*
X13394D02*
X14761D01*
X12942D02*
X13278D01*
X14880Y4163D02*
X15992D01*
X13394D02*
X14761D01*
X12942D02*
X13278D01*
X14880Y4160D02*
X15992D01*
X13394D02*
X14761D01*
X12942D02*
X13278D01*
X14880Y4156D02*
X15992D01*
X13394D02*
X14761D01*
X12942D02*
X13278D01*
X14880Y4153D02*
X15992D01*
X13394D02*
X14761D01*
X12942D02*
X13278D01*
X14880Y4149D02*
X15992D01*
X13394D02*
X14761D01*
X12942D02*
X13278D01*
X14880Y4146D02*
X15992D01*
X13394D02*
X14761D01*
X12942D02*
X13278D01*
X14880Y4143D02*
X15992D01*
X13394D02*
X14761D01*
X12942D02*
X13278D01*
X14880Y4139D02*
X15992D01*
X13394D02*
X14761D01*
X12942D02*
X13278D01*
X14880Y4136D02*
X15992D01*
X13394D02*
X14761D01*
X12942D02*
X13278D01*
X14880Y4132D02*
X15992D01*
X13394D02*
X14761D01*
X12942D02*
X13278D01*
X14880Y4129D02*
X15992D01*
X13394D02*
X14761D01*
X12942D02*
X13278D01*
X14880Y4126D02*
X15992D01*
X13394D02*
X14761D01*
X12942D02*
X13278D01*
X14880Y4122D02*
X15992D01*
X13394D02*
X14761D01*
X12942D02*
X13278D01*
X14880Y4119D02*
X15992D01*
X13394D02*
X14761D01*
X12942D02*
X13278D01*
X14880Y4115D02*
X15992D01*
X13394D02*
X14761D01*
X12942D02*
X13278D01*
X14880Y4112D02*
X15992D01*
X13394D02*
X14761D01*
X12942D02*
X13278D01*
X14880Y4109D02*
X15992D01*
X13394D02*
X14761D01*
X12942D02*
X13278D01*
X14880Y4105D02*
X15992D01*
X13394D02*
X14761D01*
X12942D02*
X13278D01*
X14880Y4102D02*
X15992D01*
X13394D02*
X14761D01*
X12942D02*
X13278D01*
X14880Y4098D02*
X15992D01*
X13394D02*
X14761D01*
X12942D02*
X13278D01*
X14880Y4095D02*
X15992D01*
X13394D02*
X14761D01*
X12942D02*
X13278D01*
X14880Y4092D02*
X15992D01*
X13394D02*
X14761D01*
X12942D02*
X13278D01*
X14880Y4088D02*
X15992D01*
X13394D02*
X14761D01*
X12942D02*
X13278D01*
X14880Y4085D02*
X15992D01*
X13394D02*
X14761D01*
X12942D02*
X13278D01*
X14880Y4081D02*
X15992D01*
X13394D02*
X14761D01*
X12942D02*
X13278D01*
X15509Y4078D02*
X15992D01*
X15210D02*
X15454D01*
X14880D02*
X15159D01*
X14679D02*
X14761D01*
X14101D02*
X14625D01*
X13530D02*
X14043D01*
X13394D02*
X13476D01*
X12942D02*
X13278D01*
X15529Y4075D02*
X15992D01*
X15230D02*
X15431D01*
X14880D02*
X15135D01*
X14696D02*
X14761D01*
X14125D02*
X14601D01*
X13554D02*
X14016D01*
X13394D02*
X13455D01*
X12942D02*
X13278D01*
X15539Y4071D02*
X15992D01*
X15244D02*
X15414D01*
X14880D02*
X15121D01*
X14713D02*
X14761D01*
X14139D02*
X14584D01*
X13567D02*
X14003D01*
X13394D02*
X13442D01*
X12942D02*
X13278D01*
X15720Y4068D02*
X15992D01*
X15550D02*
X15638D01*
X15254D02*
X15403D01*
X14880D02*
X15111D01*
X14720D02*
X14761D01*
X14152D02*
X14574D01*
X13581D02*
X13989D01*
X13394D02*
X13428D01*
X12942D02*
X13278D01*
X15720Y4064D02*
X15992D01*
X15556D02*
X15638D01*
X15264D02*
X15393D01*
X14880D02*
X15101D01*
X14730D02*
X14761D01*
X14162D02*
X14564D01*
X13591D02*
X13979D01*
X13394D02*
X13418D01*
X12942D02*
X13278D01*
X15720Y4061D02*
X15992D01*
X15567D02*
X15635D01*
X15274D02*
X15383D01*
X14880D02*
X15094D01*
X14740D02*
X14761D01*
X14169D02*
X14553D01*
X13598D02*
X13969D01*
X13394D02*
X13411D01*
X12942D02*
X13278D01*
X15720Y4058D02*
X15992D01*
X15573D02*
X15635D01*
X15281D02*
X15376D01*
X14880D02*
X15087D01*
X14744D02*
X14761D01*
X14176D02*
X14547D01*
X13605D02*
X13962D01*
X13394D02*
X13404D01*
X12942D02*
X13278D01*
X15720Y4054D02*
X15992D01*
X15577D02*
X15631D01*
X15288D02*
X15369D01*
X14880D02*
X15084D01*
X14751D02*
X14761D01*
X14186D02*
X14536D01*
X13612D02*
X13955D01*
X12942D02*
X13278D01*
X15720Y4051D02*
X15992D01*
X15584D02*
X15631D01*
X15295D02*
X15366D01*
X14880D02*
X15077D01*
X14757D02*
X14761D01*
X14193D02*
X14530D01*
X13618D02*
X13948D01*
X12942D02*
X13278D01*
X15720Y4047D02*
X15992D01*
X15587D02*
X15628D01*
X15298D02*
X15359D01*
X14880D02*
X15070D01*
X14196D02*
X14526D01*
X13625D02*
X13941D01*
X12942D02*
X13278D01*
X15720Y4044D02*
X15992D01*
X15590D02*
X15628D01*
X15305D02*
X15352D01*
X14880D02*
X15067D01*
X14203D02*
X14519D01*
X13632D02*
X13935D01*
X12942D02*
X13278D01*
X15720Y4041D02*
X15992D01*
X15597D02*
X15624D01*
X15308D02*
X15349D01*
X14880D02*
X15063D01*
X14210D02*
X14513D01*
X13635D02*
X13931D01*
X12942D02*
X13278D01*
X15720Y4037D02*
X15992D01*
X15601D02*
X15621D01*
X15312D02*
X15346D01*
X14880D02*
X15060D01*
X14213D02*
X14509D01*
X13642D02*
X13924D01*
X12942D02*
X13278D01*
X15720Y4034D02*
X15992D01*
X15604D02*
X15621D01*
X15318D02*
X15342D01*
X14880D02*
X15057D01*
X14220D02*
X14502D01*
X13646D02*
X13921D01*
X12942D02*
X13278D01*
X15720Y4030D02*
X15992D01*
X15607D02*
X15618D01*
X15322D02*
X15339D01*
X14880D02*
X15053D01*
X14224D02*
X14499D01*
X13649D02*
X13914D01*
X12942D02*
X13278D01*
X15720Y4027D02*
X15992D01*
X15611D02*
X15618D01*
X15325D02*
X15335D01*
X14880D02*
X15050D01*
X14227D02*
X14496D01*
X13656D02*
X13911D01*
X12942D02*
X13278D01*
X15720Y4024D02*
X15992D01*
X14880D02*
X15046D01*
X14234D02*
X14492D01*
X13659D02*
X13907D01*
X12942D02*
X13278D01*
X15720Y4020D02*
X15992D01*
X14880D02*
X15043D01*
X14237D02*
X14485D01*
X13663D02*
X13904D01*
X12942D02*
X13278D01*
X15720Y4017D02*
X15992D01*
X14880D02*
X15040D01*
X14241D02*
X14482D01*
X13666D02*
X13901D01*
X12942D02*
X13278D01*
X15720Y4013D02*
X15992D01*
X14880D02*
X15036D01*
X14244D02*
X14479D01*
X13669D02*
X13897D01*
X12942D02*
X13278D01*
X15720Y4010D02*
X15992D01*
X14880D02*
X15036D01*
X14247D02*
X14475D01*
X13673D02*
X13894D01*
X12942D02*
X13278D01*
X15720Y4007D02*
X15992D01*
X14880D02*
X15033D01*
X14251D02*
X14472D01*
X13676D02*
X13890D01*
X12942D02*
X13278D01*
X15720Y4003D02*
X15992D01*
X14880D02*
X15029D01*
X14254D02*
X14468D01*
X13680D02*
X13887D01*
X12942D02*
X13278D01*
X15720Y4000D02*
X15992D01*
X14880D02*
X15029D01*
X14258D02*
X14465D01*
X13683D02*
X13884D01*
X12942D02*
X13278D01*
X15720Y3996D02*
X15992D01*
X14880D02*
X15026D01*
X14261D02*
X14465D01*
X13686D02*
X13880D01*
X12942D02*
X13278D01*
X15720Y3993D02*
X15992D01*
X14880D02*
X15026D01*
X14264D02*
X14462D01*
X13690D02*
X13877D01*
X12942D02*
X13278D01*
X15720Y3990D02*
X15992D01*
X14880D02*
X15023D01*
X14268D02*
X14458D01*
X13693D02*
X13873D01*
X12942D02*
X13278D01*
X15720Y3986D02*
X15992D01*
X14880D02*
X15023D01*
X14271D02*
X14455D01*
X13693D02*
X13873D01*
X12942D02*
X13278D01*
X15720Y3983D02*
X15992D01*
X14880D02*
X15019D01*
X14271D02*
X14451D01*
X13697D02*
X13870D01*
X12942D02*
X13278D01*
X15720Y3979D02*
X15992D01*
X15488D02*
X15529D01*
X15189D02*
X15233D01*
X14880D02*
X15019D01*
X14672D02*
X14686D01*
X14275D02*
X14451D01*
X14043D02*
X14098D01*
X13700D02*
X13867D01*
X13472D02*
X13489D01*
X12942D02*
X13278D01*
X15720Y3976D02*
X15992D01*
X15475D02*
X15539D01*
X15176D02*
X15247D01*
X14880D02*
X15016D01*
X14638D02*
X14713D01*
X14278D02*
X14448D01*
X14026D02*
X14115D01*
X13703D02*
X13863D01*
X13448D02*
X13516D01*
X12942D02*
X13278D01*
X15720Y3973D02*
X15992D01*
X15465D02*
X15550D01*
X15169D02*
X15254D01*
X14880D02*
X15016D01*
X14621D02*
X14727D01*
X14281D02*
X14445D01*
X14016D02*
X14125D01*
X13703D02*
X13863D01*
X13435D02*
X13530D01*
X12942D02*
X13278D01*
X15720Y3969D02*
X15992D01*
X15458D02*
X15556D01*
X15162D02*
X15261D01*
X14880D02*
X15016D01*
X14611D02*
X14734D01*
X14281D02*
X14445D01*
X14009D02*
X14132D01*
X13707D02*
X13860D01*
X13428D02*
X13540D01*
X12942D02*
X13278D01*
X15720Y3966D02*
X15992D01*
X15454D02*
X15560D01*
X15155D02*
X15267D01*
X14880D02*
X15012D01*
X14604D02*
X14740D01*
X14285D02*
X14441D01*
X14003D02*
X14139D01*
X13710D02*
X13860D01*
X13421D02*
X13550D01*
X12942D02*
X13278D01*
X15720Y3962D02*
X15992D01*
X15451D02*
X15567D01*
X15152D02*
X15271D01*
X14880D02*
X15012D01*
X14594D02*
X14747D01*
X14288D02*
X14438D01*
X13996D02*
X14145D01*
X13710D02*
X13856D01*
X13414D02*
X13557D01*
X12942D02*
X13278D01*
X15720Y3959D02*
X15992D01*
X15444D02*
X15570D01*
X15148D02*
X15278D01*
X14880D02*
X15012D01*
X14587D02*
X14751D01*
X14288D02*
X14438D01*
X13992D02*
X14149D01*
X13714D02*
X13853D01*
X13411D02*
X13561D01*
X12942D02*
X13278D01*
X15720Y3956D02*
X15992D01*
X15441D02*
X15577D01*
X15145D02*
X15281D01*
X14880D02*
X15012D01*
X14584D02*
X14754D01*
X14292D02*
X14434D01*
X13986D02*
X14152D01*
X13714D02*
X13853D01*
X13404D02*
X13567D01*
X12942D02*
X13278D01*
X15720Y3952D02*
X15992D01*
X15437D02*
X15580D01*
X15142D02*
X15284D01*
X14880D02*
X15009D01*
X14581D02*
X14757D01*
X14295D02*
X14434D01*
X13982D02*
X14159D01*
X13717D02*
X13850D01*
X13401D02*
X13571D01*
X12942D02*
X13278D01*
X15720Y3949D02*
X15992D01*
X15437D02*
X15584D01*
X15138D02*
X15288D01*
X14880D02*
X15009D01*
X14574D02*
X14761D01*
X14295D02*
X14431D01*
X13979D02*
X14162D01*
X13720D02*
X13850D01*
X13394D02*
X13578D01*
X12942D02*
X13278D01*
X15720Y3945D02*
X15992D01*
X15434D02*
X15587D01*
X15138D02*
X15291D01*
X14880D02*
X15009D01*
X14570D02*
X14761D01*
X14298D02*
X14431D01*
X13975D02*
X14166D01*
X13720D02*
X13850D01*
X13394D02*
X13581D01*
X12942D02*
X13278D01*
X15720Y3942D02*
X15992D01*
X15431D02*
X15590D01*
X15135D02*
X15295D01*
X14880D02*
X15009D01*
X14567D02*
X14761D01*
X14298D02*
X14428D01*
X13972D02*
X14169D01*
X13724D02*
X13846D01*
X13394D02*
X13584D01*
X12942D02*
X13278D01*
X15720Y3939D02*
X15992D01*
X15431D02*
X15594D01*
X15131D02*
X15298D01*
X14880D02*
X15006D01*
X14564D02*
X14761D01*
X14302D02*
X14428D01*
X13969D02*
X14169D01*
X13724D02*
X13846D01*
X13394D02*
X13588D01*
X12942D02*
X13278D01*
X15720Y3935D02*
X15992D01*
X15427D02*
X15597D01*
X15131D02*
X15298D01*
X14880D02*
X15006D01*
X14560D02*
X14761D01*
X14302D02*
X14424D01*
X13969D02*
X14173D01*
X13727D02*
X13843D01*
X13394D02*
X13591D01*
X12942D02*
X13278D01*
X15720Y3932D02*
X15992D01*
X15427D02*
X15601D01*
X15131D02*
X15301D01*
X14880D02*
X15006D01*
X14557D02*
X14761D01*
X14305D02*
X14424D01*
X13965D02*
X14176D01*
X13727D02*
X13843D01*
X13394D02*
X13595D01*
X12942D02*
X13278D01*
X15720Y3928D02*
X15992D01*
X15427D02*
X15601D01*
X15128D02*
X15305D01*
X14880D02*
X15006D01*
X14557D02*
X14761D01*
X14305D02*
X14424D01*
X13965D02*
X14179D01*
X13727D02*
X13843D01*
X13394D02*
X13595D01*
X12942D02*
X13278D01*
X15720Y3925D02*
X15992D01*
X15424D02*
X15604D01*
X15128D02*
X15305D01*
X14880D02*
X15006D01*
X14553D02*
X14761D01*
X14309D02*
X14421D01*
X13962D02*
X14179D01*
X13731D02*
X13839D01*
X13394D02*
X13598D01*
X12942D02*
X13278D01*
X15720Y3922D02*
X15992D01*
X15424D02*
X15604D01*
X15128D02*
X15305D01*
X14880D02*
X15006D01*
X14550D02*
X14761D01*
X14309D02*
X14421D01*
X13958D02*
X14183D01*
X13731D02*
X13839D01*
X13394D02*
X13601D01*
X12942D02*
X13278D01*
X15720Y3918D02*
X15992D01*
X15424D02*
X15604D01*
X15125D02*
X15305D01*
X14880D02*
X15006D01*
X14547D02*
X14761D01*
X14309D02*
X14417D01*
X13958D02*
X14183D01*
X13734D02*
X13839D01*
X13394D02*
X13601D01*
X12942D02*
X13278D01*
X15720Y3915D02*
X15992D01*
X15424D02*
X15604D01*
X15125D02*
X15305D01*
X14880D02*
X15006D01*
X14547D02*
X14761D01*
X14312D02*
X14417D01*
X13955D02*
X14186D01*
X13734D02*
X13836D01*
X13394D02*
X13605D01*
X12942D02*
X13278D01*
X15720Y3911D02*
X15992D01*
X15420D02*
X15604D01*
X15125D02*
X15305D01*
X14880D02*
X15006D01*
X14547D02*
X14761D01*
X14312D02*
X14417D01*
X13955D02*
X14186D01*
X13734D02*
X13836D01*
X13394D02*
X13608D01*
X12942D02*
X13278D01*
X15720Y3908D02*
X15992D01*
X15420D02*
X15604D01*
X15125D02*
X15305D01*
X14880D02*
X15006D01*
X14543D02*
X14761D01*
X14312D02*
X14417D01*
X13955D02*
X14190D01*
X13737D02*
X13836D01*
X13394D02*
X13608D01*
X12942D02*
X13278D01*
X15720Y3905D02*
X15992D01*
X15420D02*
X15604D01*
X15125D02*
X15305D01*
X14880D02*
X15002D01*
X14543D02*
X14761D01*
X14315D02*
X14414D01*
X13952D02*
X14190D01*
X13737D02*
X13833D01*
X13394D02*
X13612D01*
X12942D02*
X13278D01*
X15720Y3901D02*
X15992D01*
X15420D02*
X15604D01*
X15121D02*
X15305D01*
X14880D02*
X15002D01*
X14540D02*
X14761D01*
X14315D02*
X14414D01*
X13952D02*
X14193D01*
X13737D02*
X13833D01*
X13394D02*
X13612D01*
X12942D02*
X13278D01*
X15720Y3898D02*
X15992D01*
X15420D02*
X15604D01*
X15121D02*
X15305D01*
X14880D02*
X15002D01*
X14540D02*
X14761D01*
X14315D02*
X14414D01*
X13952D02*
X14193D01*
X13741D02*
X13833D01*
X13394D02*
X13612D01*
X12942D02*
X13278D01*
X15720Y3894D02*
X15992D01*
X15420D02*
X15604D01*
X15121D02*
X15305D01*
X14880D02*
X15002D01*
X14536D02*
X14761D01*
X14319D02*
X14411D01*
X13948D02*
X14196D01*
X13741D02*
X13833D01*
X13394D02*
X13615D01*
X12942D02*
X13278D01*
X15720Y3891D02*
X15992D01*
X15420D02*
X15604D01*
X15121D02*
X15305D01*
X14880D02*
X15002D01*
X14536D02*
X14761D01*
X14319D02*
X14411D01*
X13948D02*
X14196D01*
X13741D02*
X13833D01*
X13394D02*
X13615D01*
X12942D02*
X13278D01*
X15720Y3888D02*
X15992D01*
X15420D02*
X15604D01*
X15121D02*
X15305D01*
X14880D02*
X15002D01*
X14536D02*
X14761D01*
X14319D02*
X14411D01*
X13948D02*
X14196D01*
X13741D02*
X13829D01*
X13394D02*
X13618D01*
X12942D02*
X13278D01*
X15720Y3884D02*
X15992D01*
X15420D02*
X15604D01*
X15121D02*
X15305D01*
X14880D02*
X15002D01*
X14533D02*
X14761D01*
X14322D02*
X14411D01*
X13948D02*
X14196D01*
X13744D02*
X13829D01*
X13394D02*
X13618D01*
X12942D02*
X13278D01*
X15720Y3881D02*
X15992D01*
X15420D02*
X15604D01*
X15121D02*
X15305D01*
X14880D02*
X15002D01*
X14533D02*
X14761D01*
X14322D02*
X14411D01*
X13948D02*
X14200D01*
X13744D02*
X13829D01*
X13394D02*
X13618D01*
X12942D02*
X13278D01*
X15720Y3877D02*
X15992D01*
X15420D02*
X15604D01*
X15121D02*
X15305D01*
X14880D02*
X15002D01*
X14533D02*
X14761D01*
X14322D02*
X14407D01*
X13948D02*
X14200D01*
X13744D02*
X13829D01*
X13394D02*
X13622D01*
X12942D02*
X13278D01*
X15720Y3874D02*
X15992D01*
X15420D02*
X15604D01*
X15121D02*
X15305D01*
X14880D02*
X15002D01*
X14533D02*
X14761D01*
X14322D02*
X14407D01*
X13945D02*
X14200D01*
X13744D02*
X13829D01*
X13394D02*
X13622D01*
X12942D02*
X13278D01*
X15720Y3871D02*
X15992D01*
X15420D02*
X15604D01*
X15121D02*
X15305D01*
X14880D02*
X15002D01*
X14533D02*
X14761D01*
X14322D02*
X14407D01*
X13945D02*
X14200D01*
X13744D02*
X13829D01*
X13394D02*
X13622D01*
X12942D02*
X13278D01*
X15720Y3867D02*
X15992D01*
X15420D02*
X15604D01*
X15121D02*
X15305D01*
X14880D02*
X15002D01*
X14530D02*
X14761D01*
X14326D02*
X14407D01*
X13945D02*
X14203D01*
X13748D02*
X13829D01*
X13394D02*
X13622D01*
X12942D02*
X13278D01*
X15720Y3864D02*
X15992D01*
X15420D02*
X15604D01*
X15121D02*
X15305D01*
X14880D02*
X15002D01*
X14530D02*
X14761D01*
X14326D02*
X14407D01*
X13748D02*
X13829D01*
X13394D02*
X13625D01*
X12942D02*
X13278D01*
X15720Y3860D02*
X15992D01*
X15420D02*
X15604D01*
X15121D02*
X15305D01*
X14880D02*
X15002D01*
X14530D02*
X14761D01*
X14326D02*
X14407D01*
X13748D02*
X13829D01*
X13394D02*
X13625D01*
X12942D02*
X13278D01*
X15720Y3857D02*
X15992D01*
X15420D02*
X15604D01*
X15121D02*
X15305D01*
X14880D02*
X15002D01*
X14530D02*
X14761D01*
X14326D02*
X14407D01*
X13748D02*
X13829D01*
X13394D02*
X13625D01*
X12942D02*
X13278D01*
X15720Y3854D02*
X15992D01*
X15420D02*
X15604D01*
X15121D02*
X15305D01*
X14880D02*
X15002D01*
X14530D02*
X14761D01*
X14326D02*
X14407D01*
X13748D02*
X13826D01*
X13394D02*
X13625D01*
X12942D02*
X13278D01*
X15720Y3850D02*
X15992D01*
X15420D02*
X15604D01*
X15121D02*
X15305D01*
X14880D02*
X15002D01*
X14530D02*
X14761D01*
X14326D02*
X14404D01*
X13748D02*
X13826D01*
X13394D02*
X13625D01*
X12942D02*
X13278D01*
X15720Y3847D02*
X15992D01*
X15420D02*
X15604D01*
X15121D02*
X15305D01*
X14880D02*
X15002D01*
X14530D02*
X14761D01*
X14326D02*
X14404D01*
X13751D02*
X13826D01*
X13394D02*
X13629D01*
X12942D02*
X13278D01*
X15720Y3843D02*
X15992D01*
X15420D02*
X15604D01*
X15121D02*
X15305D01*
X14880D02*
X15002D01*
X14530D02*
X14761D01*
X14329D02*
X14404D01*
X13751D02*
X13826D01*
X13394D02*
X13629D01*
X12942D02*
X13278D01*
X15720Y3840D02*
X15992D01*
X15420D02*
X15604D01*
X15121D02*
X15305D01*
X14880D02*
X15002D01*
X14530D02*
X14761D01*
X14329D02*
X14404D01*
X13751D02*
X13826D01*
X13394D02*
X13629D01*
X12942D02*
X13278D01*
X15720Y3837D02*
X15992D01*
X15420D02*
X15604D01*
X15121D02*
X15305D01*
X14880D02*
X15002D01*
X14526D02*
X14761D01*
X14329D02*
X14404D01*
X13751D02*
X13826D01*
X13394D02*
X13629D01*
X12942D02*
X13278D01*
X15720Y3833D02*
X15992D01*
X15420D02*
X15604D01*
X15121D02*
X15305D01*
X14880D02*
X15002D01*
X14526D02*
X14761D01*
X14329D02*
X14404D01*
X13751D02*
X13826D01*
X13394D02*
X13629D01*
X12942D02*
X13278D01*
X15720Y3830D02*
X15992D01*
X15420D02*
X15604D01*
X15121D02*
X15305D01*
X14880D02*
X15002D01*
X14526D02*
X14761D01*
X14329D02*
X14404D01*
X13751D02*
X13829D01*
X13394D02*
X13629D01*
X12942D02*
X13278D01*
X15720Y3826D02*
X15992D01*
X15420D02*
X15604D01*
X15121D02*
X15305D01*
X14880D02*
X15002D01*
X14526D02*
X14761D01*
X14329D02*
X14404D01*
X13751D02*
X13829D01*
X13394D02*
X13629D01*
X12942D02*
X13278D01*
X15720Y3823D02*
X15992D01*
X15420D02*
X15604D01*
X15121D02*
X15305D01*
X14880D02*
X15002D01*
X14526D02*
X14761D01*
X14329D02*
X14404D01*
X13751D02*
X13829D01*
X13394D02*
X13629D01*
X12942D02*
X13278D01*
X15720Y3820D02*
X15992D01*
X15420D02*
X15604D01*
X15121D02*
X15305D01*
X14880D02*
X15002D01*
X14526D02*
X14761D01*
X14329D02*
X14404D01*
X13751D02*
X13829D01*
X13394D02*
X13629D01*
X12942D02*
X13278D01*
X15720Y3816D02*
X15992D01*
X15420D02*
X15604D01*
X15121D02*
X15305D01*
X14880D02*
X15002D01*
X14526D02*
X14761D01*
X14329D02*
X14404D01*
X13751D02*
X13829D01*
X13394D02*
X13629D01*
X12942D02*
X13278D01*
X15720Y3813D02*
X15992D01*
X15420D02*
X15604D01*
X15121D02*
X15305D01*
X14880D02*
X15002D01*
X14526D02*
X14761D01*
X14329D02*
X14404D01*
X13751D02*
X13829D01*
X13394D02*
X13629D01*
X12942D02*
X13278D01*
X15720Y3809D02*
X15992D01*
X15420D02*
X15604D01*
X15121D02*
X15305D01*
X14880D02*
X15002D01*
X14526D02*
X14761D01*
X14329D02*
X14404D01*
X13751D02*
X13829D01*
X13394D02*
X13629D01*
X12942D02*
X13278D01*
X15720Y3806D02*
X15992D01*
X15420D02*
X15604D01*
X15121D02*
X15305D01*
X14880D02*
X15002D01*
X14526D02*
X14761D01*
X14329D02*
X14404D01*
X13751D02*
X13833D01*
X13394D02*
X13629D01*
X12942D02*
X13278D01*
X15720Y3803D02*
X15992D01*
X15420D02*
X15604D01*
X15121D02*
X15305D01*
X14880D02*
X15002D01*
X14526D02*
X14761D01*
X14329D02*
X14404D01*
X13751D02*
X13833D01*
X13394D02*
X13629D01*
X12942D02*
X13278D01*
X15720Y3799D02*
X15992D01*
X15420D02*
X15604D01*
X15121D02*
X15305D01*
X14880D02*
X15002D01*
X14526D02*
X14761D01*
X14329D02*
X14404D01*
X13751D02*
X13833D01*
X13394D02*
X13629D01*
X12942D02*
X13278D01*
X15720Y3796D02*
X15992D01*
X15420D02*
X15604D01*
X15121D02*
X15305D01*
X14880D02*
X15002D01*
X14526D02*
X14761D01*
X14329D02*
X14404D01*
X13751D02*
X13833D01*
X13394D02*
X13629D01*
X12942D02*
X13278D01*
X15720Y3792D02*
X15992D01*
X15420D02*
X15604D01*
X15121D02*
X15305D01*
X14880D02*
X15002D01*
X14530D02*
X14761D01*
X14329D02*
X14407D01*
X13751D02*
X13833D01*
X13394D02*
X13629D01*
X12942D02*
X13278D01*
X15720Y3789D02*
X15992D01*
X15420D02*
X15604D01*
X15121D02*
X15305D01*
X14880D02*
X15002D01*
X14530D02*
X14761D01*
X14329D02*
X14407D01*
X13751D02*
X13836D01*
X13394D02*
X13629D01*
X12942D02*
X13278D01*
X15720Y3786D02*
X15992D01*
X15420D02*
X15604D01*
X15121D02*
X15305D01*
X14880D02*
X15002D01*
X14530D02*
X14761D01*
X14329D02*
X14407D01*
X13751D02*
X13836D01*
X13394D02*
X13629D01*
X12942D02*
X13278D01*
X15720Y3782D02*
X15992D01*
X15420D02*
X15604D01*
X15121D02*
X15305D01*
X14880D02*
X15002D01*
X14530D02*
X14761D01*
X14329D02*
X14407D01*
X13751D02*
X13836D01*
X13394D02*
X13629D01*
X12942D02*
X13278D01*
X15720Y3779D02*
X15992D01*
X15420D02*
X15604D01*
X15121D02*
X15305D01*
X14880D02*
X15002D01*
X14530D02*
X14761D01*
X14329D02*
X14407D01*
X13751D02*
X13836D01*
X13394D02*
X13629D01*
X12942D02*
X13278D01*
X15720Y3775D02*
X15992D01*
X15420D02*
X15604D01*
X15121D02*
X15305D01*
X14880D02*
X15002D01*
X14530D02*
X14761D01*
X14329D02*
X14407D01*
X13751D02*
X14207D01*
X13394D02*
X13629D01*
X12942D02*
X13278D01*
X15720Y3772D02*
X15992D01*
X15420D02*
X15604D01*
X15121D02*
X15305D01*
X14880D02*
X15002D01*
X14530D02*
X14761D01*
X14329D02*
X14407D01*
X13751D02*
X14207D01*
X13394D02*
X13629D01*
X12942D02*
X13278D01*
X15720Y3769D02*
X15992D01*
X15420D02*
X15604D01*
X15121D02*
X15305D01*
X14880D02*
X15002D01*
X14530D02*
X14761D01*
X14329D02*
X14407D01*
X13751D02*
X14207D01*
X13394D02*
X13629D01*
X12942D02*
X13278D01*
X15720Y3765D02*
X15992D01*
X15420D02*
X15604D01*
X15121D02*
X15305D01*
X14880D02*
X15002D01*
X14530D02*
X14761D01*
X14326D02*
X14407D01*
X13751D02*
X14207D01*
X13394D02*
X13625D01*
X12942D02*
X13278D01*
X15720Y3762D02*
X15992D01*
X15420D02*
X15604D01*
X15121D02*
X15305D01*
X14880D02*
X15002D01*
X14533D02*
X14761D01*
X14326D02*
X14411D01*
X13751D02*
X14203D01*
X13394D02*
X13625D01*
X12942D02*
X13278D01*
X15720Y3758D02*
X15992D01*
X15420D02*
X15604D01*
X15121D02*
X15305D01*
X14880D02*
X15002D01*
X14533D02*
X14761D01*
X14326D02*
X14411D01*
X13748D02*
X14203D01*
X13394D02*
X13625D01*
X12942D02*
X13278D01*
X15720Y3755D02*
X15992D01*
X15420D02*
X15604D01*
X15121D02*
X15305D01*
X14880D02*
X15002D01*
X14533D02*
X14761D01*
X14326D02*
X14411D01*
X13748D02*
X14203D01*
X13394D02*
X13625D01*
X12942D02*
X13278D01*
X15720Y3752D02*
X15992D01*
X15420D02*
X15604D01*
X15121D02*
X15305D01*
X14880D02*
X15002D01*
X14533D02*
X14761D01*
X14326D02*
X14411D01*
X13748D02*
X14203D01*
X13394D02*
X13622D01*
X12942D02*
X13278D01*
X15720Y3748D02*
X15992D01*
X15420D02*
X15604D01*
X15121D02*
X15305D01*
X14880D02*
X15002D01*
X14533D02*
X14761D01*
X14326D02*
X14411D01*
X13748D02*
X14203D01*
X13394D02*
X13622D01*
X12942D02*
X13278D01*
X15720Y3745D02*
X15992D01*
X15420D02*
X15604D01*
X15121D02*
X15305D01*
X14880D02*
X15002D01*
X14536D02*
X14761D01*
X14326D02*
X14414D01*
X13748D02*
X14203D01*
X13394D02*
X13622D01*
X12942D02*
X13278D01*
X15720Y3741D02*
X15992D01*
X15420D02*
X15604D01*
X15121D02*
X15305D01*
X14880D02*
X15002D01*
X14536D02*
X14761D01*
X14322D02*
X14414D01*
X13748D02*
X14200D01*
X13394D02*
X13622D01*
X12942D02*
X13278D01*
X15720Y3738D02*
X15992D01*
X15420D02*
X15604D01*
X15121D02*
X15305D01*
X14880D02*
X15002D01*
X14536D02*
X14761D01*
X14322D02*
X14414D01*
X13748D02*
X14200D01*
X13394D02*
X13622D01*
X12942D02*
X13278D01*
X15720Y3735D02*
X15992D01*
X15420D02*
X15604D01*
X15121D02*
X15305D01*
X14880D02*
X15002D01*
X14536D02*
X14761D01*
X14322D02*
X14414D01*
X13744D02*
X14200D01*
X13394D02*
X13618D01*
X12942D02*
X13278D01*
X15720Y3731D02*
X15992D01*
X15420D02*
X15604D01*
X15121D02*
X15305D01*
X14880D02*
X15002D01*
X14540D02*
X14761D01*
X14322D02*
X14414D01*
X13744D02*
X14196D01*
X13394D02*
X13618D01*
X12942D02*
X13278D01*
X15720Y3728D02*
X15992D01*
X15420D02*
X15604D01*
X15121D02*
X15305D01*
X14880D02*
X15002D01*
X14540D02*
X14761D01*
X14322D02*
X14417D01*
X13744D02*
X14196D01*
X13394D02*
X13615D01*
X12942D02*
X13278D01*
X15720Y3724D02*
X15992D01*
X15420D02*
X15604D01*
X15121D02*
X15305D01*
X14880D02*
X15002D01*
X14540D02*
X14761D01*
X14319D02*
X14417D01*
X13744D02*
X14196D01*
X13394D02*
X13615D01*
X12942D02*
X13278D01*
X15720Y3721D02*
X15992D01*
X15420D02*
X15604D01*
X15121D02*
X15305D01*
X14880D02*
X15002D01*
X14543D02*
X14761D01*
X14319D02*
X14417D01*
X13744D02*
X14193D01*
X13394D02*
X13612D01*
X12942D02*
X13278D01*
X15720Y3718D02*
X15992D01*
X15420D02*
X15604D01*
X15121D02*
X15305D01*
X14880D02*
X15002D01*
X14543D02*
X14761D01*
X14319D02*
X14421D01*
X13741D02*
X14193D01*
X13394D02*
X13612D01*
X12942D02*
X13278D01*
X15720Y3714D02*
X15992D01*
X15420D02*
X15604D01*
X15121D02*
X15305D01*
X14880D02*
X15002D01*
X14547D02*
X14761D01*
X14319D02*
X14421D01*
X13741D02*
X14190D01*
X13394D02*
X13612D01*
X12942D02*
X13278D01*
X15720Y3711D02*
X15992D01*
X15420D02*
X15604D01*
X15121D02*
X15305D01*
X14880D02*
X15002D01*
X14547D02*
X14761D01*
X14315D02*
X14421D01*
X13741D02*
X14190D01*
X13394D02*
X13608D01*
X12942D02*
X13278D01*
X15720Y3707D02*
X15992D01*
X15420D02*
X15604D01*
X15121D02*
X15305D01*
X14880D02*
X15002D01*
X14550D02*
X14761D01*
X14315D02*
X14424D01*
X13741D02*
X14186D01*
X13394D02*
X13608D01*
X12942D02*
X13278D01*
X15720Y3704D02*
X15992D01*
X15420D02*
X15604D01*
X15121D02*
X15305D01*
X14880D02*
X15002D01*
X14550D02*
X14761D01*
X14315D02*
X14424D01*
X13737D02*
X14186D01*
X13394D02*
X13605D01*
X12942D02*
X13278D01*
X15720Y3701D02*
X15992D01*
X15420D02*
X15604D01*
X15121D02*
X15305D01*
X14880D02*
X15002D01*
X14553D02*
X14761D01*
X14312D02*
X14424D01*
X13737D02*
X14183D01*
X13394D02*
X13601D01*
X12942D02*
X13278D01*
X15720Y3697D02*
X15992D01*
X15420D02*
X15604D01*
X15121D02*
X15305D01*
X14880D02*
X15002D01*
X14557D02*
X14761D01*
X14312D02*
X14428D01*
X13737D02*
X14183D01*
X13394D02*
X13598D01*
X12942D02*
X13278D01*
X15720Y3694D02*
X15992D01*
X15420D02*
X15604D01*
X15121D02*
X15305D01*
X14880D02*
X15002D01*
X14557D02*
X14761D01*
X14312D02*
X14428D01*
X13734D02*
X14179D01*
X13394D02*
X13598D01*
X12942D02*
X13278D01*
X15720Y3690D02*
X15992D01*
X15420D02*
X15604D01*
X15121D02*
X15305D01*
X14880D02*
X15002D01*
X14560D02*
X14761D01*
X14309D02*
X14431D01*
X13734D02*
X14176D01*
X13394D02*
X13595D01*
X12942D02*
X13278D01*
X15720Y3687D02*
X15992D01*
X15420D02*
X15604D01*
X15121D02*
X15305D01*
X14880D02*
X15002D01*
X14564D02*
X14761D01*
X14309D02*
X14431D01*
X13734D02*
X14173D01*
X13394D02*
X13591D01*
X12942D02*
X13278D01*
X15720Y3684D02*
X15992D01*
X15420D02*
X15604D01*
X15121D02*
X15305D01*
X14880D02*
X15002D01*
X14567D02*
X14761D01*
X14305D02*
X14431D01*
X13935D02*
X14169D01*
X13731D02*
X13931D01*
X13394D02*
X13588D01*
X12942D02*
X13278D01*
X15720Y3680D02*
X15992D01*
X15420D02*
X15604D01*
X15121D02*
X15305D01*
X14880D02*
X15002D01*
X14570D02*
X14761D01*
X14305D02*
X14434D01*
X13938D02*
X14166D01*
X13731D02*
X13931D01*
X13394D02*
X13584D01*
X12942D02*
X13278D01*
X15720Y3677D02*
X15992D01*
X15420D02*
X15604D01*
X15121D02*
X15305D01*
X14880D02*
X15002D01*
X14574D02*
X14761D01*
X14305D02*
X14438D01*
X13941D02*
X14162D01*
X13731D02*
X13928D01*
X13394D02*
X13581D01*
X12942D02*
X13278D01*
X15720Y3673D02*
X15992D01*
X15420D02*
X15604D01*
X15121D02*
X15305D01*
X14880D02*
X15002D01*
X14577D02*
X14757D01*
X14302D02*
X14438D01*
X13948D02*
X14156D01*
X13727D02*
X13928D01*
X13397D02*
X13574D01*
X12942D02*
X13278D01*
X15720Y3670D02*
X15992D01*
X15420D02*
X15604D01*
X15121D02*
X15305D01*
X14880D02*
X15002D01*
X14584D02*
X14754D01*
X14302D02*
X14441D01*
X13952D02*
X14152D01*
X13727D02*
X13924D01*
X13401D02*
X13571D01*
X12942D02*
X13278D01*
X15720Y3667D02*
X15992D01*
X15420D02*
X15604D01*
X15121D02*
X15305D01*
X14880D02*
X15002D01*
X14587D02*
X14751D01*
X14298D02*
X14441D01*
X13958D02*
X14149D01*
X13724D02*
X13924D01*
X13408D02*
X13567D01*
X12942D02*
X13278D01*
X15720Y3663D02*
X15992D01*
X15420D02*
X15604D01*
X15121D02*
X15305D01*
X14880D02*
X15002D01*
X14594D02*
X14747D01*
X14295D02*
X14445D01*
X13962D02*
X14142D01*
X13724D02*
X13921D01*
X13411D02*
X13561D01*
X12942D02*
X13278D01*
X15720Y3660D02*
X15992D01*
X15420D02*
X15604D01*
X15121D02*
X15305D01*
X14880D02*
X15002D01*
X14601D02*
X14744D01*
X14295D02*
X14445D01*
X13972D02*
X14135D01*
X13720D02*
X13918D01*
X13418D02*
X13554D01*
X12942D02*
X13278D01*
X15720Y3656D02*
X15992D01*
X15420D02*
X15604D01*
X15121D02*
X15305D01*
X14880D02*
X15002D01*
X14611D02*
X14737D01*
X14292D02*
X14448D01*
X13979D02*
X14128D01*
X13720D02*
X13918D01*
X13425D02*
X13544D01*
X12942D02*
X13278D01*
X15720Y3653D02*
X15992D01*
X15420D02*
X15604D01*
X15121D02*
X15305D01*
X14880D02*
X15002D01*
X14621D02*
X14730D01*
X14292D02*
X14451D01*
X13989D02*
X14118D01*
X13717D02*
X13914D01*
X13435D02*
X13533D01*
X12942D02*
X13278D01*
X15720Y3650D02*
X15992D01*
X15420D02*
X15604D01*
X15121D02*
X15305D01*
X14880D02*
X15002D01*
X14638D02*
X14720D01*
X14288D02*
X14451D01*
X14003D02*
X14105D01*
X13717D02*
X13914D01*
X13445D02*
X13520D01*
X12942D02*
X13278D01*
X15720Y3646D02*
X15992D01*
X15420D02*
X15604D01*
X15121D02*
X15305D01*
X14880D02*
X15002D01*
X14666D02*
X14700D01*
X14285D02*
X14455D01*
X14023D02*
X14091D01*
X13714D02*
X13911D01*
X13459D02*
X13493D01*
X12942D02*
X13278D01*
X15720Y3643D02*
X15992D01*
X15420D02*
X15604D01*
X15121D02*
X15305D01*
X14880D02*
X15002D01*
X14285D02*
X14458D01*
X13710D02*
X13911D01*
X12942D02*
X13278D01*
X15720Y3639D02*
X15992D01*
X15420D02*
X15604D01*
X15121D02*
X15305D01*
X14880D02*
X15002D01*
X14281D02*
X14458D01*
X13710D02*
X13907D01*
X12942D02*
X13278D01*
X15720Y3636D02*
X15992D01*
X15420D02*
X15604D01*
X15121D02*
X15305D01*
X14880D02*
X15002D01*
X14278D02*
X14462D01*
X13707D02*
X13907D01*
X12942D02*
X13278D01*
X15720Y3633D02*
X15992D01*
X15420D02*
X15604D01*
X15121D02*
X15305D01*
X14880D02*
X15002D01*
X14278D02*
X14465D01*
X13703D02*
X13904D01*
X12942D02*
X13278D01*
X15720Y3629D02*
X15992D01*
X15420D02*
X15604D01*
X15121D02*
X15305D01*
X14880D02*
X15002D01*
X14275D02*
X14468D01*
X13703D02*
X13904D01*
X12942D02*
X13278D01*
X15720Y3626D02*
X15992D01*
X15420D02*
X15604D01*
X15121D02*
X15305D01*
X14880D02*
X15002D01*
X14271D02*
X14472D01*
X13700D02*
X13901D01*
X12942D02*
X13278D01*
X15720Y3622D02*
X15992D01*
X15420D02*
X15604D01*
X15121D02*
X15305D01*
X14880D02*
X15002D01*
X14268D02*
X14472D01*
X13697D02*
X13901D01*
X12942D02*
X13278D01*
X15720Y3619D02*
X15992D01*
X15420D02*
X15604D01*
X15121D02*
X15305D01*
X14880D02*
X15002D01*
X14264D02*
X14475D01*
X13693D02*
X13897D01*
X12942D02*
X13278D01*
X15720Y3616D02*
X15992D01*
X15420D02*
X15604D01*
X15121D02*
X15305D01*
X14880D02*
X15002D01*
X14261D02*
X14479D01*
X13690D02*
X13897D01*
X12942D02*
X13278D01*
X15720Y3612D02*
X15992D01*
X15420D02*
X15604D01*
X15121D02*
X15305D01*
X14880D02*
X15002D01*
X14258D02*
X14482D01*
X13690D02*
X13894D01*
X12942D02*
X13278D01*
X15720Y3609D02*
X15992D01*
X15420D02*
X15604D01*
X15121D02*
X15305D01*
X14880D02*
X15002D01*
X14254D02*
X14489D01*
X13686D02*
X13894D01*
X12942D02*
X13278D01*
X15720Y3605D02*
X15992D01*
X15420D02*
X15604D01*
X15121D02*
X15305D01*
X14880D02*
X15002D01*
X14251D02*
X14492D01*
X13683D02*
X13890D01*
X12942D02*
X13278D01*
X15720Y3602D02*
X15992D01*
X15420D02*
X15604D01*
X15121D02*
X15305D01*
X14880D02*
X15002D01*
X14247D02*
X14496D01*
X13680D02*
X13890D01*
X12942D02*
X13278D01*
X15720Y3599D02*
X15992D01*
X15420D02*
X15604D01*
X15121D02*
X15305D01*
X14880D02*
X15002D01*
X14244D02*
X14499D01*
X13676D02*
X13887D01*
X12942D02*
X13278D01*
X15720Y3595D02*
X15992D01*
X15420D02*
X15604D01*
X15121D02*
X15305D01*
X14880D02*
X15002D01*
X14237D02*
X14502D01*
X13669D02*
X13890D01*
X12942D02*
X13278D01*
X15720Y3592D02*
X15992D01*
X15420D02*
X15604D01*
X15121D02*
X15305D01*
X14880D02*
X15002D01*
X14234D02*
X14509D01*
X13666D02*
X13894D01*
X12942D02*
X13278D01*
X15720Y3588D02*
X15992D01*
X15420D02*
X15604D01*
X15121D02*
X15305D01*
X14880D02*
X15002D01*
X14227D02*
X14513D01*
X13663D02*
X13897D01*
X12942D02*
X13278D01*
X15720Y3585D02*
X15992D01*
X15420D02*
X15604D01*
X15121D02*
X15305D01*
X14880D02*
X15002D01*
X14224D02*
X14516D01*
X13656D02*
X13904D01*
X13394D02*
X13401D01*
X12942D02*
X13278D01*
X15720Y3582D02*
X15992D01*
X15420D02*
X15604D01*
X15121D02*
X15305D01*
X14880D02*
X15002D01*
X14781D02*
X14788D01*
X14217D02*
X14523D01*
X13652D02*
X13911D01*
X13394D02*
X13404D01*
X12942D02*
X13278D01*
X15720Y3578D02*
X15992D01*
X15420D02*
X15604D01*
X15121D02*
X15305D01*
X14880D02*
X15002D01*
X14774D02*
X14791D01*
X14213D02*
X14530D01*
X13646D02*
X13914D01*
X13394D02*
X13408D01*
X12942D02*
X13278D01*
X15720Y3575D02*
X15992D01*
X15420D02*
X15604D01*
X15121D02*
X15305D01*
X14880D02*
X15002D01*
X14771D02*
X14795D01*
X14207D02*
X14536D01*
X13642D02*
X13921D01*
X13394D02*
X13411D01*
X12942D02*
X13278D01*
X15720Y3571D02*
X15992D01*
X15420D02*
X15604D01*
X15121D02*
X15305D01*
X14880D02*
X15002D01*
X14764D02*
X14798D01*
X14200D02*
X14543D01*
X13635D02*
X13931D01*
X13394D02*
X13418D01*
X12942D02*
X13278D01*
X15720Y3568D02*
X15992D01*
X15420D02*
X15604D01*
X15121D02*
X15305D01*
X14880D02*
X15002D01*
X14761D02*
X14798D01*
X14193D02*
X14550D01*
X13629D02*
X13938D01*
X13394D02*
X13425D01*
X12942D02*
X13278D01*
X15720Y3565D02*
X15992D01*
X15420D02*
X15604D01*
X15121D02*
X15305D01*
X14880D02*
X15002D01*
X14751D02*
X14802D01*
X14183D02*
X14557D01*
X13622D02*
X13948D01*
X13394D02*
X13431D01*
X12942D02*
X13278D01*
X15720Y3561D02*
X15992D01*
X15420D02*
X15604D01*
X15121D02*
X15305D01*
X14880D02*
X15002D01*
X14744D02*
X14805D01*
X14173D02*
X14567D01*
X13612D02*
X13958D01*
X13394D02*
X13442D01*
X12942D02*
X13278D01*
X15720Y3558D02*
X15992D01*
X15420D02*
X15604D01*
X15121D02*
X15305D01*
X14880D02*
X15002D01*
X14734D02*
X14805D01*
X14162D02*
X14577D01*
X13601D02*
X13969D01*
X13394D02*
X13448D01*
X12942D02*
X13278D01*
X14880Y3554D02*
X15992D01*
X14727D02*
X14808D01*
X14149D02*
X14591D01*
X13591D02*
X13986D01*
X12942D02*
X13462D01*
X14880Y3551D02*
X15992D01*
X14710D02*
X14812D01*
X14135D02*
X14604D01*
X13574D02*
X14003D01*
X12942D02*
X13476D01*
X14880Y3548D02*
X15992D01*
X14689D02*
X14815D01*
X14111D02*
X14628D01*
X13554D02*
X14033D01*
X12942D02*
X13496D01*
X12942Y3544D02*
X15992D01*
X12942Y3541D02*
X15992D01*
X12942Y3537D02*
X15992D01*
X12942Y3534D02*
X15992D01*
X12942Y3531D02*
X15992D01*
X12942Y3527D02*
X15992D01*
X12942Y3524D02*
X15992D01*
X12942Y3520D02*
X15992D01*
X12942Y3517D02*
X15992D01*
X12942Y3514D02*
X15992D01*
X12942Y3510D02*
X15992D01*
X12942Y3507D02*
X15992D01*
X12942Y3503D02*
X15992D01*
X12942Y3500D02*
X15992D01*
X12942Y3497D02*
X15992D01*
X12942Y3493D02*
X15992D01*
X12942Y3490D02*
X15992D01*
X12942Y3486D02*
X15992D01*
X12942Y3483D02*
X15992D01*
X12942Y3480D02*
X15992D01*
X12942Y3476D02*
X15992D01*
X12942Y3473D02*
X15992D01*
X12942Y3469D02*
X15992D01*
X12942Y3466D02*
X15992D01*
X12942Y3463D02*
X15992D01*
X12942Y3459D02*
X15992D01*
X12942Y3456D02*
X15992D01*
X12942Y3452D02*
X15992D01*
X12942Y3449D02*
X15992D01*
X12942Y3446D02*
X15992D01*
X12942Y3442D02*
X15992D01*
X12942Y3439D02*
X15992D01*
X12942Y3435D02*
X15992D01*
X12942Y3432D02*
X15992D01*
X12942Y3429D02*
X15992D01*
X12942Y3425D02*
X15992D01*
X12942Y3422D02*
X15992D01*
X12942Y3418D02*
X15992D01*
X12942Y3415D02*
X15992D01*
X12942Y3412D02*
X15992D01*
X12942Y3408D02*
X15992D01*
X12942Y3405D02*
X15992D01*
X12942Y3401D02*
X15992D01*
X12942Y3398D02*
X15992D01*
X12942Y3395D02*
X15992D01*
X12942Y3391D02*
X15992D01*
X12942Y3388D02*
X15992D01*
X12942Y3384D02*
X15992D01*
X12942Y3381D02*
X15992D01*
X12942Y3378D02*
X15992D01*
X12942Y3374D02*
X15992D01*
X12942Y3371D02*
X15992D01*
X12942Y3367D02*
X15992D01*
X12942Y3364D02*
X15992D01*
X12942Y3361D02*
X15992D01*
X12942Y3357D02*
X15992D01*
X12942Y3354D02*
X15992D01*
X12942Y3350D02*
X15992D01*
X12942Y3347D02*
X15992D01*
X12942Y3344D02*
X15992D01*
X12942Y3340D02*
X15992D01*
X12942Y3337D02*
X15992D01*
X12942Y3333D02*
X15992D01*
X12942Y3330D02*
X15992D01*
X12942Y3327D02*
X15992D01*
X12942Y3323D02*
X15992D01*
X12942Y3320D02*
X15992D01*
X12942Y3316D02*
X15992D01*
X12942Y3313D02*
X15992D01*
X12942Y3310D02*
X15992D01*
X12942Y3306D02*
X15992D01*
X12942Y3303D02*
X15992D01*
X12942Y3299D02*
X15992D01*
X12942Y3296D02*
X15992D01*
X12942Y3293D02*
X15992D01*
X12942Y3289D02*
X15992D01*
X12942Y3286D02*
X15992D01*
X12942Y3282D02*
X15992D01*
X12942Y3279D02*
X15992D01*
X12942Y3276D02*
X15992D01*
X12942Y3272D02*
X15992D01*
X12942Y3269D02*
X15992D01*
X12942Y3265D02*
X15992D01*
X12942Y3262D02*
X15992D01*
X12942Y3259D02*
X15992D01*
X12942Y3255D02*
X15992D01*
X12942Y3252D02*
X15992D01*
X12942Y3248D02*
X15992D01*
X12942Y3245D02*
X15992D01*
X12942Y3242D02*
X15992D01*
X12942Y3238D02*
X15992D01*
X12942Y3235D02*
X15992D01*
X12942Y3231D02*
X15992D01*
X12942Y3228D02*
X15992D01*
X12942Y3225D02*
X15992D01*
X12942Y3221D02*
X15992D01*
X12942Y3218D02*
X15992D01*
X12942Y3214D02*
X15992D01*
X12942Y3211D02*
X15992D01*
X12942Y3208D02*
X15992D01*
X12942Y3204D02*
X15992D01*
X12942Y3201D02*
X15992D01*
X12942Y3197D02*
X15992D01*
X12942Y3194D02*
X15992D01*
X12942Y3191D02*
X15992D01*
X12942Y3187D02*
X15992D01*
X12942Y3184D02*
X15992D01*
X12942Y3180D02*
X15992D01*
X12942Y3177D02*
X15992D01*
X12942Y3174D02*
X15992D01*
X12942Y3170D02*
X15992D01*
X12942Y3167D02*
X15992D01*
X12942Y3163D02*
X15992D01*
X12942Y3160D02*
X15992D01*
X12942Y3157D02*
X15992D01*
X12942Y3153D02*
X15992D01*
X13418Y3150D02*
X14203D01*
X13418Y3146D02*
X14203D01*
X13421Y3143D02*
X14200D01*
X13425Y3140D02*
X14196D01*
X13428Y3136D02*
X14193D01*
X13431Y3133D02*
X14190D01*
X13435Y3129D02*
X14186D01*
X13438Y3126D02*
X14183D01*
X13442Y3123D02*
X14179D01*
X13445Y3119D02*
X14176D01*
X13448Y3116D02*
X14173D01*
X13452Y3112D02*
X14169D01*
X13455Y3109D02*
X14166D01*
X13459Y3106D02*
X14162D01*
X13462Y3102D02*
X14159D01*
X13465Y3099D02*
X14156D01*
X13469Y3095D02*
X14152D01*
X13472Y3092D02*
X14149D01*
X13476Y3089D02*
X14145D01*
X13479Y3085D02*
X14142D01*
X13482Y3082D02*
X14139D01*
X13486Y3078D02*
X14135D01*
X13489Y3075D02*
X14132D01*
X13493Y3072D02*
X14128D01*
X13496Y3068D02*
X14125D01*
X13499Y3065D02*
X14122D01*
X13503Y3061D02*
X14118D01*
X13506Y3058D02*
X14115D01*
X13510Y3055D02*
X14111D01*
X13513Y3051D02*
X14108D01*
X13516Y3048D02*
X14105D01*
X13520Y3044D02*
X14101D01*
X13523Y3041D02*
X14098D01*
X13527Y3038D02*
X14094D01*
X13530Y3034D02*
X14091D01*
X13533Y3031D02*
X14088D01*
X13537Y3027D02*
X14084D01*
X12942D02*
X13370D01*
X14251Y3024D02*
X15992D01*
X13540D02*
X14081D01*
X12942D02*
X13374D01*
X14247Y3021D02*
X15992D01*
X13544D02*
X14077D01*
X12942D02*
X13377D01*
X14244Y3017D02*
X15992D01*
X13547D02*
X14074D01*
X12942D02*
X13380D01*
X14241Y3014D02*
X15992D01*
X13550D02*
X14071D01*
X12942D02*
X13384D01*
X14237Y3010D02*
X15992D01*
X13554D02*
X14067D01*
X12942D02*
X13387D01*
X14234Y3007D02*
X15992D01*
X13557D02*
X14064D01*
X12942D02*
X13391D01*
X14230Y3004D02*
X15992D01*
X13561D02*
X14060D01*
X12942D02*
X13394D01*
X14227Y3000D02*
X15992D01*
X13564D02*
X14057D01*
X12942D02*
X13397D01*
X14224Y2997D02*
X15992D01*
X13567D02*
X14054D01*
X12942D02*
X13401D01*
X14220Y2993D02*
X15992D01*
X13571D02*
X14050D01*
X12942D02*
X13404D01*
X14217Y2990D02*
X15992D01*
X13574D02*
X14047D01*
X12942D02*
X13408D01*
X14213Y2987D02*
X15992D01*
X13578D02*
X14043D01*
X12942D02*
X13411D01*
X14210Y2983D02*
X15992D01*
X13581D02*
X14040D01*
X12942D02*
X13414D01*
X14207Y2980D02*
X15992D01*
X13584D02*
X14037D01*
X12942D02*
X13418D01*
X14203Y2976D02*
X15992D01*
X13588D02*
X14033D01*
X12942D02*
X13421D01*
X14200Y2973D02*
X15992D01*
X13591D02*
X14030D01*
X12942D02*
X13425D01*
X14196Y2970D02*
X15992D01*
X13595D02*
X14026D01*
X12942D02*
X13428D01*
X14193Y2966D02*
X15992D01*
X13598D02*
X14023D01*
X12942D02*
X13431D01*
X14190Y2963D02*
X15992D01*
X13601D02*
X14020D01*
X12942D02*
X13435D01*
X14186Y2959D02*
X15992D01*
X13605D02*
X14016D01*
X12942D02*
X13438D01*
X14183Y2956D02*
X15992D01*
X13608D02*
X14013D01*
X12942D02*
X13442D01*
X14179Y2953D02*
X15992D01*
X13612D02*
X14009D01*
X12942D02*
X13445D01*
X14176Y2949D02*
X15992D01*
X13615D02*
X14006D01*
X12942D02*
X13448D01*
X14173Y2946D02*
X15992D01*
X13618D02*
X14003D01*
X12942D02*
X13452D01*
X14169Y2942D02*
X15992D01*
X13622D02*
X13999D01*
X12942D02*
X13455D01*
X14166Y2939D02*
X15992D01*
X13625D02*
X13996D01*
X12942D02*
X13459D01*
X14162Y2936D02*
X15992D01*
X13629D02*
X13992D01*
X12942D02*
X13462D01*
X14159Y2932D02*
X15992D01*
X13632D02*
X13989D01*
X12942D02*
X13465D01*
X14156Y2929D02*
X15992D01*
X13635D02*
X13986D01*
X12942D02*
X13469D01*
X14152Y2925D02*
X15992D01*
X13639D02*
X13982D01*
X12942D02*
X13472D01*
X14149Y2922D02*
X15992D01*
X13642D02*
X13979D01*
X12942D02*
X13476D01*
X14145Y2919D02*
X15992D01*
X13646D02*
X13975D01*
X12942D02*
X13479D01*
X14142Y2915D02*
X15992D01*
X13649D02*
X13972D01*
X12942D02*
X13482D01*
X14139Y2912D02*
X15992D01*
X13652D02*
X13969D01*
X12942D02*
X13486D01*
X14135Y2908D02*
X15992D01*
X13656D02*
X13965D01*
X12942D02*
X13489D01*
X14132Y2905D02*
X15992D01*
X13659D02*
X13962D01*
X12942D02*
X13493D01*
X14128Y2902D02*
X15992D01*
X13663D02*
X13958D01*
X12942D02*
X13496D01*
X14125Y2898D02*
X15992D01*
X13666D02*
X13955D01*
X12942D02*
X13499D01*
X14122Y2895D02*
X15992D01*
X13669D02*
X13952D01*
X12942D02*
X13503D01*
X14118Y2891D02*
X15992D01*
X13673D02*
X13948D01*
X12942D02*
X13506D01*
X14115Y2888D02*
X15992D01*
X13676D02*
X13945D01*
X12942D02*
X13510D01*
X14111Y2885D02*
X15992D01*
X13680D02*
X13941D01*
X12942D02*
X13513D01*
X14108Y2881D02*
X15992D01*
X13683D02*
X13938D01*
X12942D02*
X13516D01*
X14105Y2878D02*
X15992D01*
X13686D02*
X13935D01*
X12942D02*
X13520D01*
X14101Y2874D02*
X15992D01*
X13690D02*
X13931D01*
X12942D02*
X13523D01*
X14098Y2871D02*
X15992D01*
X13693D02*
X13928D01*
X12942D02*
X13527D01*
X14094Y2868D02*
X15992D01*
X13697D02*
X13924D01*
X12942D02*
X13530D01*
X14091Y2864D02*
X15992D01*
X13700D02*
X13921D01*
X12942D02*
X13533D01*
X14088Y2861D02*
X15992D01*
X13703D02*
X13918D01*
X12942D02*
X13537D01*
X14084Y2857D02*
X15992D01*
X13707D02*
X13914D01*
X12942D02*
X13540D01*
X14081Y2854D02*
X15992D01*
X13710D02*
X13911D01*
X12942D02*
X13544D01*
X14077Y2851D02*
X15992D01*
X13714D02*
X13907D01*
X12942D02*
X13547D01*
X14074Y2847D02*
X15992D01*
X13717D02*
X13904D01*
X12942D02*
X13550D01*
X14071Y2844D02*
X15992D01*
X13720D02*
X13901D01*
X12942D02*
X13554D01*
X14067Y2840D02*
X15992D01*
X13724D02*
X13897D01*
X12942D02*
X13557D01*
X14064Y2837D02*
X15992D01*
X13727D02*
X13894D01*
X12942D02*
X13561D01*
X14060Y2834D02*
X15992D01*
X13731D02*
X13890D01*
X12942D02*
X13564D01*
X14057Y2830D02*
X15992D01*
X13734D02*
X13887D01*
X12942D02*
X13567D01*
X14054Y2827D02*
X15992D01*
X13737D02*
X13884D01*
X12942D02*
X13571D01*
X14050Y2823D02*
X15992D01*
X13741D02*
X13880D01*
X12942D02*
X13574D01*
X14047Y2820D02*
X15992D01*
X13744D02*
X13877D01*
X12942D02*
X13578D01*
X14043Y2817D02*
X15992D01*
X13748D02*
X13873D01*
X12942D02*
X13581D01*
X14040Y2813D02*
X15992D01*
X13751D02*
X13870D01*
X12942D02*
X13584D01*
X14037Y2810D02*
X15992D01*
X13754D02*
X13867D01*
X12942D02*
X13588D01*
X14033Y2806D02*
X15992D01*
X13758D02*
X13863D01*
X12942D02*
X13591D01*
X14030Y2803D02*
X15992D01*
X13761D02*
X13860D01*
X12942D02*
X13595D01*
X14026Y2800D02*
X15992D01*
X13765D02*
X13856D01*
X12942D02*
X13598D01*
X14023Y2796D02*
X15992D01*
X13768D02*
X13853D01*
X12942D02*
X13601D01*
X14020Y2793D02*
X15992D01*
X13771D02*
X13850D01*
X12942D02*
X13605D01*
X14016Y2789D02*
X15992D01*
X13775D02*
X13846D01*
X12942D02*
X13608D01*
X14013Y2786D02*
X15992D01*
X13778D02*
X13843D01*
X12942D02*
X13612D01*
X14009Y2783D02*
X15992D01*
X13782D02*
X13839D01*
X12942D02*
X13615D01*
X14006Y2779D02*
X15992D01*
X13785D02*
X13836D01*
X12942D02*
X13618D01*
X14003Y2776D02*
X15992D01*
X13788D02*
X13833D01*
X12942D02*
X13622D01*
X13999Y2772D02*
X15992D01*
X13792D02*
X13829D01*
X12942D02*
X13625D01*
X13996Y2769D02*
X15992D01*
X13795D02*
X13826D01*
X12942D02*
X13629D01*
X13992Y2766D02*
X15992D01*
X13799D02*
X13822D01*
X12942D02*
X13632D01*
X13989Y2762D02*
X15992D01*
X13802D02*
X13819D01*
X12942D02*
X13635D01*
X13986Y2759D02*
X15992D01*
X13805D02*
X13816D01*
X12942D02*
X13639D01*
X13982Y2755D02*
X15992D01*
X13809D02*
X13812D01*
X12942D02*
X13642D01*
X13979Y2752D02*
X15992D01*
X12942D02*
X13646D01*
X13975Y2749D02*
X15992D01*
X12942D02*
X13649D01*
X13972Y2745D02*
X15992D01*
X12942D02*
X13652D01*
X13969Y2742D02*
X15992D01*
X12942D02*
X13656D01*
X13965Y2738D02*
X15992D01*
X12942D02*
X13659D01*
X13962Y2735D02*
X15992D01*
X12942D02*
X13663D01*
X13958Y2732D02*
X15992D01*
X12942D02*
X13666D01*
X13955Y2728D02*
X15992D01*
X12942D02*
X13669D01*
X13952Y2725D02*
X15992D01*
X12942D02*
X13673D01*
X13948Y2721D02*
X15992D01*
X12942D02*
X13676D01*
X13945Y2718D02*
X15992D01*
X12942D02*
X13680D01*
X13941Y2715D02*
X15992D01*
X12942D02*
X13683D01*
X13938Y2711D02*
X15992D01*
X12942D02*
X13686D01*
X13935Y2708D02*
X15992D01*
X12942D02*
X13690D01*
X13931Y2704D02*
X15992D01*
X12942D02*
X13693D01*
X13928Y2701D02*
X15992D01*
X12942D02*
X13697D01*
X13924Y2698D02*
X15992D01*
X12942D02*
X13700D01*
X13921Y2694D02*
X15992D01*
X12942D02*
X13703D01*
X13918Y2691D02*
X15992D01*
X12942D02*
X13707D01*
X13914Y2687D02*
X15992D01*
X12942D02*
X13710D01*
X13911Y2684D02*
X15992D01*
X12942D02*
X13714D01*
X13907Y2681D02*
X15992D01*
X12942D02*
X13717D01*
X13904Y2677D02*
X15992D01*
X12942D02*
X13720D01*
X13901Y2674D02*
X15992D01*
X12942D02*
X13724D01*
X13897Y2670D02*
X15992D01*
X12942D02*
X13727D01*
X13894Y2667D02*
X15992D01*
X12942D02*
X13731D01*
X13890Y2664D02*
X15992D01*
X12942D02*
X13734D01*
X13887Y2660D02*
X15992D01*
X12942D02*
X13737D01*
X13884Y2657D02*
X15992D01*
X12942D02*
X13741D01*
X13880Y2653D02*
X15992D01*
X12942D02*
X13744D01*
X13877Y2650D02*
X15992D01*
X12942D02*
X13748D01*
X13873Y2647D02*
X15992D01*
X12942D02*
X13751D01*
X13870Y2643D02*
X15992D01*
X12942D02*
X13754D01*
X13867Y2640D02*
X15992D01*
X12942D02*
X13758D01*
X13863Y2636D02*
X15992D01*
X12942D02*
X13761D01*
X13860Y2633D02*
X15992D01*
X12942D02*
X13765D01*
X13856Y2630D02*
X15992D01*
X12942D02*
X13768D01*
X13853Y2626D02*
X15992D01*
X12942D02*
X13771D01*
X13850Y2623D02*
X15992D01*
X12942D02*
X13775D01*
X13846Y2619D02*
X15992D01*
X12942D02*
X13778D01*
X13843Y2616D02*
X15992D01*
X12942D02*
X13782D01*
X13839Y2613D02*
X15992D01*
X12942D02*
X13785D01*
X13836Y2609D02*
X15992D01*
X12942D02*
X13788D01*
X13833Y2606D02*
X15992D01*
X12942D02*
X13792D01*
X13829Y2602D02*
X15992D01*
X12942D02*
X13795D01*
X13826Y2599D02*
X15992D01*
X12942D02*
X13799D01*
X13822Y2596D02*
X15992D01*
X12942D02*
X13802D01*
X13819Y2592D02*
X15992D01*
X12942D02*
X13805D01*
X13816Y2589D02*
X15992D01*
X12942D02*
X13809D01*
X12942Y2585D02*
X15992D01*
X12942Y2582D02*
X15992D01*
X12942Y2579D02*
X15992D01*
X12942Y2575D02*
X15992D01*
X12942Y2572D02*
X15992D01*
X12942Y2568D02*
X15992D01*
X12942Y2565D02*
X15992D01*
X12942Y2562D02*
X15992D01*
X12942Y2558D02*
X15992D01*
X12942Y2555D02*
X15992D01*
X12942Y2551D02*
X15992D01*
X12942Y2548D02*
X15992D01*
X12942Y2545D02*
X15992D01*
X12942Y2541D02*
X15992D01*
X12942Y2538D02*
X15992D01*
X12942Y2534D02*
X15992D01*
X12942Y2531D02*
X15992D01*
X12942Y2528D02*
X15992D01*
X12942Y2524D02*
X15992D01*
X12942Y2521D02*
X15992D01*
X12942Y2517D02*
X15992D01*
X12942Y2514D02*
X15992D01*
X12942Y2511D02*
X15992D01*
X12942Y2507D02*
X15992D01*
X12942Y2504D02*
X15992D01*
X14499Y2500D02*
X15992D01*
X14081D02*
X14485D01*
X13278D02*
X14067D01*
X12942D02*
X13265D01*
X14513Y2497D02*
X15992D01*
X14094D02*
X14485D01*
X13292D02*
X14067D01*
X12942D02*
X13265D01*
X14526Y2494D02*
X15992D01*
X14108D02*
X14485D01*
X13306D02*
X14067D01*
X12942D02*
X13265D01*
X14543Y2490D02*
X15992D01*
X14125D02*
X14485D01*
X13323D02*
X14067D01*
X12942D02*
X13265D01*
X14557Y2487D02*
X15992D01*
X14139D02*
X14485D01*
X13336D02*
X14067D01*
X12942D02*
X13265D01*
X14567Y2483D02*
X15992D01*
X14149D02*
X14485D01*
X13346D02*
X14067D01*
X12942D02*
X13265D01*
X15706Y2480D02*
X15992D01*
X14567D02*
X15400D01*
X14149D02*
X14485D01*
X13346D02*
X14067D01*
X12942D02*
X13265D01*
X15706Y2477D02*
X15992D01*
X14567D02*
X15400D01*
X14149D02*
X14485D01*
X13346D02*
X14067D01*
X12942D02*
X13265D01*
X15706Y2473D02*
X15992D01*
X14567D02*
X15400D01*
X14149D02*
X14485D01*
X13346D02*
X14067D01*
X12942D02*
X13265D01*
X15706Y2470D02*
X15992D01*
X14567D02*
X15400D01*
X14149D02*
X14485D01*
X13346D02*
X14067D01*
X12942D02*
X13265D01*
X15706Y2466D02*
X15992D01*
X14567D02*
X15400D01*
X14149D02*
X14485D01*
X13346D02*
X14067D01*
X12942D02*
X13265D01*
X15706Y2463D02*
X15992D01*
X14567D02*
X15400D01*
X14149D02*
X14485D01*
X13346D02*
X14067D01*
X12942D02*
X13265D01*
X15706Y2460D02*
X15992D01*
X14567D02*
X15400D01*
X14149D02*
X14485D01*
X13346D02*
X14067D01*
X12942D02*
X13265D01*
X15706Y2456D02*
X15992D01*
X14567D02*
X15400D01*
X14149D02*
X14485D01*
X13346D02*
X14067D01*
X12942D02*
X13265D01*
X15706Y2453D02*
X15992D01*
X14567D02*
X15400D01*
X14149D02*
X14485D01*
X13346D02*
X14067D01*
X12942D02*
X13265D01*
X15706Y2449D02*
X15992D01*
X14567D02*
X15400D01*
X14149D02*
X14485D01*
X13346D02*
X14067D01*
X12942D02*
X13265D01*
X15706Y2446D02*
X15992D01*
X14567D02*
X15400D01*
X14149D02*
X14485D01*
X13346D02*
X14067D01*
X12942D02*
X13265D01*
X15706Y2443D02*
X15992D01*
X14567D02*
X15400D01*
X14149D02*
X14485D01*
X13346D02*
X14067D01*
X12942D02*
X13265D01*
X15706Y2439D02*
X15992D01*
X14567D02*
X15400D01*
X14149D02*
X14485D01*
X13346D02*
X14067D01*
X12942D02*
X13265D01*
X15706Y2436D02*
X15992D01*
X14567D02*
X15400D01*
X14149D02*
X14485D01*
X13346D02*
X14067D01*
X12942D02*
X13265D01*
X15706Y2432D02*
X15992D01*
X14567D02*
X15400D01*
X14149D02*
X14485D01*
X13346D02*
X14067D01*
X12942D02*
X13265D01*
X15706Y2429D02*
X15992D01*
X14567D02*
X15400D01*
X14149D02*
X14485D01*
X13346D02*
X14067D01*
X12942D02*
X13265D01*
X15706Y2426D02*
X15992D01*
X14567D02*
X15400D01*
X14149D02*
X14485D01*
X13346D02*
X14067D01*
X12942D02*
X13265D01*
X15706Y2422D02*
X15992D01*
X14567D02*
X15400D01*
X14149D02*
X14485D01*
X13346D02*
X14067D01*
X12942D02*
X13265D01*
X15706Y2419D02*
X15992D01*
X14567D02*
X15400D01*
X14149D02*
X14485D01*
X13346D02*
X14067D01*
X12942D02*
X13265D01*
X15706Y2415D02*
X15992D01*
X14567D02*
X15400D01*
X14149D02*
X14485D01*
X13346D02*
X14067D01*
X12942D02*
X13265D01*
X15706Y2412D02*
X15992D01*
X14567D02*
X15400D01*
X14149D02*
X14485D01*
X13346D02*
X14067D01*
X12942D02*
X13265D01*
X15706Y2409D02*
X15992D01*
X14567D02*
X15400D01*
X14149D02*
X14485D01*
X13346D02*
X14067D01*
X12942D02*
X13265D01*
X15706Y2405D02*
X15992D01*
X14567D02*
X15400D01*
X14149D02*
X14485D01*
X13346D02*
X14067D01*
X12942D02*
X13265D01*
X15706Y2402D02*
X15992D01*
X14567D02*
X15621D01*
X14149D02*
X14485D01*
X13346D02*
X14067D01*
X12942D02*
X13265D01*
X15706Y2398D02*
X15992D01*
X14567D02*
X15621D01*
X14149D02*
X14485D01*
X13346D02*
X14067D01*
X12942D02*
X13265D01*
X15706Y2395D02*
X15992D01*
X14567D02*
X15621D01*
X14149D02*
X14485D01*
X13346D02*
X14067D01*
X12942D02*
X13265D01*
X15706Y2392D02*
X15992D01*
X14567D02*
X15621D01*
X14149D02*
X14485D01*
X13346D02*
X14067D01*
X12942D02*
X13265D01*
X15706Y2388D02*
X15992D01*
X14567D02*
X15621D01*
X14149D02*
X14485D01*
X13346D02*
X14067D01*
X12942D02*
X13265D01*
X15706Y2385D02*
X15992D01*
X14567D02*
X15621D01*
X14149D02*
X14485D01*
X13346D02*
X14067D01*
X12942D02*
X13265D01*
X15706Y2381D02*
X15992D01*
X14567D02*
X15621D01*
X14149D02*
X14485D01*
X13346D02*
X14067D01*
X12942D02*
X13265D01*
X15706Y2378D02*
X15992D01*
X14567D02*
X15621D01*
X14149D02*
X14485D01*
X13346D02*
X14067D01*
X12942D02*
X13265D01*
X15706Y2375D02*
X15992D01*
X14567D02*
X15621D01*
X14149D02*
X14485D01*
X13346D02*
X14067D01*
X12942D02*
X13265D01*
X15706Y2371D02*
X15992D01*
X14567D02*
X15621D01*
X14149D02*
X14485D01*
X13346D02*
X14067D01*
X12942D02*
X13265D01*
X15706Y2368D02*
X15992D01*
X14567D02*
X15621D01*
X14149D02*
X14485D01*
X13346D02*
X14067D01*
X12942D02*
X13265D01*
X15706Y2364D02*
X15992D01*
X14567D02*
X15621D01*
X14149D02*
X14485D01*
X13346D02*
X14067D01*
X12942D02*
X13265D01*
X15706Y2361D02*
X15992D01*
X14567D02*
X15621D01*
X14149D02*
X14485D01*
X13346D02*
X14067D01*
X12942D02*
X13265D01*
X15706Y2358D02*
X15992D01*
X15162D02*
X15621D01*
X14822D02*
X15138D01*
X14567D02*
X14791D01*
X14421D02*
X14485D01*
X14149D02*
X14400D01*
X13826D02*
X14067D01*
X13431D02*
X13799D01*
X13346D02*
X13408D01*
X12942D02*
X13265D01*
X15706Y2354D02*
X15992D01*
X15189D02*
X15621D01*
X14856D02*
X15114D01*
X14567D02*
X14761D01*
X14445D02*
X14485D01*
X14149D02*
X14373D01*
X13850D02*
X14067D01*
X13455D02*
X13771D01*
X13346D02*
X13384D01*
X12942D02*
X13265D01*
X15706Y2351D02*
X15992D01*
X15325D02*
X15621D01*
X15199D02*
X15267D01*
X14873D02*
X15104D01*
X14567D02*
X14744D01*
X14455D02*
X14485D01*
X14149D02*
X14360D01*
X13863D02*
X14067D01*
X13469D02*
X13758D01*
X13346D02*
X13370D01*
X12942D02*
X13265D01*
X15706Y2347D02*
X15992D01*
X15325D02*
X15621D01*
X15210D02*
X15264D01*
X14883D02*
X15094D01*
X14567D02*
X14734D01*
X14465D02*
X14485D01*
X14149D02*
X14346D01*
X13873D02*
X14067D01*
X13479D02*
X13748D01*
X13346D02*
X13360D01*
X12942D02*
X13265D01*
X15706Y2344D02*
X15992D01*
X15325D02*
X15621D01*
X15216D02*
X15264D01*
X14893D02*
X15087D01*
X14567D02*
X14723D01*
X14472D02*
X14485D01*
X14149D02*
X14339D01*
X13880D02*
X14067D01*
X13489D02*
X13737D01*
X13346D02*
X13353D01*
X12942D02*
X13265D01*
X15706Y2341D02*
X15992D01*
X15325D02*
X15621D01*
X15223D02*
X15264D01*
X14904D02*
X15080D01*
X14567D02*
X14717D01*
X14479D02*
X14485D01*
X14149D02*
X14332D01*
X13887D02*
X14067D01*
X13496D02*
X13731D01*
X12942D02*
X13265D01*
X15706Y2337D02*
X15992D01*
X15325D02*
X15621D01*
X15227D02*
X15261D01*
X14907D02*
X15074D01*
X14567D02*
X14710D01*
X14149D02*
X14326D01*
X13894D02*
X14067D01*
X13499D02*
X13724D01*
X12942D02*
X13265D01*
X15706Y2334D02*
X15992D01*
X15325D02*
X15621D01*
X15233D02*
X15261D01*
X14907D02*
X15070D01*
X14567D02*
X14703D01*
X14149D02*
X14319D01*
X13901D02*
X14067D01*
X13506D02*
X13717D01*
X12942D02*
X13265D01*
X15706Y2330D02*
X15992D01*
X15325D02*
X15621D01*
X15237D02*
X15257D01*
X14907D02*
X15063D01*
X14567D02*
X14700D01*
X14149D02*
X14312D01*
X13907D02*
X14067D01*
X13513D02*
X13714D01*
X12942D02*
X13265D01*
X15706Y2327D02*
X15992D01*
X15325D02*
X15621D01*
X15240D02*
X15257D01*
X14907D02*
X15060D01*
X14567D02*
X14696D01*
X14149D02*
X14309D01*
X13911D02*
X14067D01*
X13516D02*
X13707D01*
X12942D02*
X13265D01*
X15706Y2324D02*
X15992D01*
X15325D02*
X15621D01*
X15244D02*
X15254D01*
X14904D02*
X15057D01*
X14567D02*
X14689D01*
X14149D02*
X14305D01*
X13914D02*
X14067D01*
X13520D02*
X13703D01*
X12942D02*
X13265D01*
X15706Y2320D02*
X15992D01*
X15325D02*
X15621D01*
X15247D02*
X15254D01*
X14904D02*
X15053D01*
X14567D02*
X14686D01*
X14149D02*
X14298D01*
X13921D02*
X14067D01*
X13527D02*
X13700D01*
X12942D02*
X13265D01*
X15706Y2317D02*
X15992D01*
X15325D02*
X15621D01*
X14904D02*
X15050D01*
X14567D02*
X14683D01*
X14149D02*
X14295D01*
X13924D02*
X14067D01*
X13530D02*
X13697D01*
X12942D02*
X13265D01*
X15706Y2313D02*
X15992D01*
X15325D02*
X15621D01*
X14900D02*
X15046D01*
X14567D02*
X14683D01*
X14149D02*
X14292D01*
X13928D02*
X14067D01*
X13533D02*
X13693D01*
X12942D02*
X13265D01*
X15706Y2310D02*
X15992D01*
X15325D02*
X15621D01*
X14900D02*
X15046D01*
X14567D02*
X14679D01*
X14149D02*
X14288D01*
X13931D02*
X14067D01*
X13537D02*
X13690D01*
X12942D02*
X13265D01*
X15706Y2307D02*
X15992D01*
X15325D02*
X15621D01*
X14900D02*
X15043D01*
X14567D02*
X14676D01*
X14149D02*
X14285D01*
X13935D02*
X14067D01*
X13540D02*
X13686D01*
X12942D02*
X13265D01*
X15706Y2303D02*
X15992D01*
X15325D02*
X15621D01*
X14900D02*
X15040D01*
X14567D02*
X14676D01*
X14149D02*
X14281D01*
X13938D02*
X14067D01*
X13544D02*
X13683D01*
X12942D02*
X13265D01*
X15706Y2300D02*
X15992D01*
X15325D02*
X15621D01*
X14897D02*
X15040D01*
X14567D02*
X14672D01*
X14149D02*
X14278D01*
X13941D02*
X14067D01*
X13547D02*
X13680D01*
X12942D02*
X13265D01*
X15706Y2296D02*
X15992D01*
X15325D02*
X15621D01*
X14897D02*
X15036D01*
X14567D02*
X14669D01*
X14149D02*
X14275D01*
X13945D02*
X14067D01*
X13547D02*
X13676D01*
X12942D02*
X13265D01*
X15706Y2293D02*
X15992D01*
X15325D02*
X15621D01*
X14897D02*
X15033D01*
X14567D02*
X14669D01*
X14149D02*
X14275D01*
X13948D02*
X14067D01*
X13550D02*
X13673D01*
X12942D02*
X13265D01*
X15706Y2290D02*
X15992D01*
X15325D02*
X15465D01*
X15145D02*
X15193D01*
X14893D02*
X15033D01*
X14778D02*
X14849D01*
X14567D02*
X14666D01*
X14394D02*
X14455D01*
X14149D02*
X14271D01*
X13952D02*
X14067D01*
X13785D02*
X13839D01*
X13554D02*
X13673D01*
X13380D02*
X13431D01*
X12942D02*
X13265D01*
X15706Y2286D02*
X15992D01*
X15325D02*
X15465D01*
X15135D02*
X15203D01*
X14893D02*
X15029D01*
X14768D02*
X14866D01*
X14567D02*
X14666D01*
X14383D02*
X14465D01*
X14149D02*
X14268D01*
X13952D02*
X14067D01*
X13775D02*
X13850D01*
X13557D02*
X13669D01*
X13370D02*
X13445D01*
X12942D02*
X13265D01*
X15706Y2283D02*
X15992D01*
X15325D02*
X15465D01*
X15128D02*
X15210D01*
X14893D02*
X15029D01*
X14757D02*
X14876D01*
X14567D02*
X14666D01*
X14373D02*
X14472D01*
X14149D02*
X14268D01*
X13955D02*
X14067D01*
X13768D02*
X13856D01*
X13557D02*
X13666D01*
X13363D02*
X13452D01*
X12942D02*
X13265D01*
X15706Y2279D02*
X15992D01*
X15325D02*
X15465D01*
X15121D02*
X15216D01*
X14893D02*
X15029D01*
X14754D02*
X14887D01*
X14567D02*
X14662D01*
X14366D02*
X14479D01*
X14149D02*
X14264D01*
X13958D02*
X14067D01*
X13761D02*
X13863D01*
X13561D02*
X13666D01*
X13357D02*
X13459D01*
X12942D02*
X13265D01*
X15706Y2276D02*
X15992D01*
X15325D02*
X15465D01*
X15118D02*
X15223D01*
X14747D02*
X15026D01*
X14567D02*
X14662D01*
X14360D02*
X14482D01*
X14149D02*
X14261D01*
X13958D02*
X14067D01*
X13754D02*
X13867D01*
X13564D02*
X13663D01*
X13353D02*
X13465D01*
X12942D02*
X13265D01*
X15706Y2273D02*
X15992D01*
X15325D02*
X15465D01*
X15114D02*
X15227D01*
X14744D02*
X15026D01*
X14567D02*
X14662D01*
X14356D02*
X14485D01*
X14149D02*
X14261D01*
X13962D02*
X14067D01*
X13751D02*
X13870D01*
X13564D02*
X13663D01*
X13346D02*
X13469D01*
X12942D02*
X13265D01*
X15706Y2269D02*
X15992D01*
X15325D02*
X15465D01*
X15111D02*
X15233D01*
X14740D02*
X15026D01*
X14567D02*
X14659D01*
X14353D02*
X14485D01*
X14149D02*
X14258D01*
X13965D02*
X14067D01*
X13748D02*
X13873D01*
X13567D02*
X13659D01*
X13346D02*
X13472D01*
X12942D02*
X13265D01*
X15706Y2266D02*
X15992D01*
X15325D02*
X15465D01*
X15111D02*
X15237D01*
X14737D02*
X15023D01*
X14567D02*
X14659D01*
X14349D02*
X14485D01*
X14149D02*
X14258D01*
X13965D02*
X14067D01*
X13744D02*
X13877D01*
X13567D02*
X13659D01*
X13346D02*
X13476D01*
X12942D02*
X13265D01*
X15706Y2262D02*
X15992D01*
X15325D02*
X15465D01*
X15108D02*
X15240D01*
X14737D02*
X15023D01*
X14567D02*
X14659D01*
X14346D02*
X14485D01*
X14149D02*
X14254D01*
X13969D02*
X14067D01*
X13744D02*
X13880D01*
X13571D02*
X13656D01*
X13346D02*
X13479D01*
X12942D02*
X13265D01*
X15706Y2259D02*
X15992D01*
X15325D02*
X15465D01*
X15104D02*
X15244D01*
X14734D02*
X15023D01*
X14567D02*
X14659D01*
X14343D02*
X14485D01*
X14149D02*
X14254D01*
X13969D02*
X14067D01*
X13741D02*
X13884D01*
X13571D02*
X13656D01*
X13346D02*
X13482D01*
X12942D02*
X13265D01*
X15706Y2256D02*
X15992D01*
X15325D02*
X15465D01*
X15104D02*
X15244D01*
X14734D02*
X15023D01*
X14567D02*
X14655D01*
X14339D02*
X14485D01*
X14149D02*
X14251D01*
X13972D02*
X14067D01*
X13737D02*
X13884D01*
X13574D02*
X13652D01*
X13346D02*
X13486D01*
X12942D02*
X13265D01*
X15706Y2252D02*
X15992D01*
X15325D02*
X15465D01*
X15104D02*
X15244D01*
X14730D02*
X15019D01*
X14567D02*
X14655D01*
X14339D02*
X14485D01*
X14149D02*
X14251D01*
X13972D02*
X14067D01*
X13737D02*
X13887D01*
X13574D02*
X13652D01*
X13346D02*
X13486D01*
X12942D02*
X13265D01*
X15706Y2249D02*
X15992D01*
X15325D02*
X15465D01*
X15101D02*
X15244D01*
X14730D02*
X15019D01*
X14567D02*
X14655D01*
X14336D02*
X14485D01*
X14149D02*
X14251D01*
X13972D02*
X14067D01*
X13734D02*
X13890D01*
X13574D02*
X13652D01*
X13346D02*
X13489D01*
X12942D02*
X13265D01*
X15706Y2245D02*
X15992D01*
X15325D02*
X15465D01*
X15101D02*
X15244D01*
X14730D02*
X15019D01*
X14567D02*
X14655D01*
X14332D02*
X14485D01*
X14149D02*
X14247D01*
X13975D02*
X14067D01*
X13734D02*
X13890D01*
X13578D02*
X13649D01*
X13346D02*
X13493D01*
X12942D02*
X13265D01*
X15706Y2242D02*
X15992D01*
X15325D02*
X15465D01*
X15101D02*
X15244D01*
X14730D02*
X15019D01*
X14567D02*
X14655D01*
X14332D02*
X14485D01*
X14149D02*
X14247D01*
X13975D02*
X14067D01*
X13734D02*
X13894D01*
X13578D02*
X13649D01*
X13346D02*
X13493D01*
X12942D02*
X13265D01*
X15706Y2239D02*
X15992D01*
X15325D02*
X15465D01*
X15101D02*
X15244D01*
X14730D02*
X15019D01*
X14567D02*
X14652D01*
X14332D02*
X14485D01*
X14149D02*
X14247D01*
X13979D02*
X14067D01*
X13731D02*
X13894D01*
X13581D02*
X13649D01*
X13346D02*
X13496D01*
X12942D02*
X13265D01*
X15706Y2235D02*
X15992D01*
X15325D02*
X15465D01*
X15097D02*
X15244D01*
X14730D02*
X15019D01*
X14567D02*
X14652D01*
X14329D02*
X14485D01*
X14149D02*
X14244D01*
X13979D02*
X14067D01*
X13731D02*
X13894D01*
X13581D02*
X13649D01*
X13346D02*
X13496D01*
X12942D02*
X13265D01*
X15706Y2232D02*
X15992D01*
X15325D02*
X15465D01*
X15097D02*
X15244D01*
X14781D02*
X15019D01*
X14730D02*
X14754D01*
X14567D02*
X14652D01*
X14329D02*
X14485D01*
X14149D02*
X14244D01*
X13979D02*
X14067D01*
X13731D02*
X13897D01*
X13581D02*
X13646D01*
X13346D02*
X13499D01*
X12942D02*
X13265D01*
X15706Y2228D02*
X15992D01*
X15325D02*
X15465D01*
X15097D02*
X15244D01*
X14819D02*
X15019D01*
X14567D02*
X14652D01*
X14326D02*
X14485D01*
X14149D02*
X14244D01*
X13979D02*
X14067D01*
X13727D02*
X13897D01*
X13581D02*
X13646D01*
X13346D02*
X13499D01*
X12942D02*
X13265D01*
X15706Y2225D02*
X15992D01*
X15325D02*
X15465D01*
X15097D02*
X15244D01*
X14836D02*
X15016D01*
X14567D02*
X14652D01*
X14326D02*
X14485D01*
X14149D02*
X14244D01*
X13982D02*
X14067D01*
X13727D02*
X13897D01*
X13584D02*
X13646D01*
X13346D02*
X13499D01*
X12942D02*
X13265D01*
X15706Y2222D02*
X15992D01*
X15325D02*
X15465D01*
X15097D02*
X15244D01*
X14849D02*
X15016D01*
X14567D02*
X14652D01*
X14326D02*
X14485D01*
X14149D02*
X14241D01*
X13982D02*
X14067D01*
X13727D02*
X13901D01*
X13584D02*
X13646D01*
X13346D02*
X13503D01*
X12942D02*
X13265D01*
X15706Y2218D02*
X15992D01*
X15325D02*
X15465D01*
X15097D02*
X15244D01*
X14859D02*
X15016D01*
X14567D02*
X14652D01*
X14326D02*
X14485D01*
X14149D02*
X14241D01*
X13982D02*
X14067D01*
X13727D02*
X13901D01*
X13584D02*
X13646D01*
X13346D02*
X13503D01*
X12942D02*
X13265D01*
X15706Y2215D02*
X15992D01*
X15325D02*
X15621D01*
X15097D02*
X15244D01*
X14866D02*
X15016D01*
X14567D02*
X14652D01*
X14322D02*
X14485D01*
X14149D02*
X14241D01*
X13982D02*
X14067D01*
X13727D02*
X13901D01*
X13584D02*
X13646D01*
X13346D02*
X13503D01*
X12942D02*
X13265D01*
X15706Y2211D02*
X15992D01*
X15325D02*
X15621D01*
X15097D02*
X15244D01*
X14876D02*
X15016D01*
X14567D02*
X14652D01*
X14322D02*
X14485D01*
X14149D02*
X14241D01*
X13986D02*
X14067D01*
X13727D02*
X13901D01*
X13588D02*
X13646D01*
X13346D02*
X13503D01*
X12942D02*
X13265D01*
X15706Y2208D02*
X15992D01*
X15325D02*
X15621D01*
X15097D02*
X15244D01*
X14883D02*
X15016D01*
X14567D02*
X14652D01*
X14322D02*
X14485D01*
X14149D02*
X14241D01*
X13986D02*
X14067D01*
X13588D02*
X13646D01*
X13346D02*
X13503D01*
X12942D02*
X13265D01*
X15706Y2205D02*
X15992D01*
X15325D02*
X15621D01*
X15097D02*
X15244D01*
X14887D02*
X15016D01*
X14567D02*
X14652D01*
X14322D02*
X14485D01*
X14149D02*
X14241D01*
X13986D02*
X14067D01*
X13588D02*
X13642D01*
X13346D02*
X13506D01*
X12942D02*
X13265D01*
X15706Y2201D02*
X15992D01*
X15325D02*
X15621D01*
X15097D02*
X15244D01*
X14893D02*
X15016D01*
X14567D02*
X14649D01*
X14322D02*
X14485D01*
X14149D02*
X14241D01*
X13986D02*
X14067D01*
X13588D02*
X13642D01*
X13346D02*
X13506D01*
X12942D02*
X13265D01*
X15706Y2198D02*
X15992D01*
X15325D02*
X15621D01*
X15097D02*
X15244D01*
X14897D02*
X15016D01*
X14567D02*
X14649D01*
X14322D02*
X14485D01*
X14149D02*
X14241D01*
X13986D02*
X14067D01*
X13588D02*
X13642D01*
X13346D02*
X13506D01*
X12942D02*
X13265D01*
X15706Y2194D02*
X15992D01*
X15325D02*
X15621D01*
X15097D02*
X15244D01*
X14904D02*
X15016D01*
X14567D02*
X14649D01*
X14322D02*
X14485D01*
X14149D02*
X14237D01*
X13986D02*
X14067D01*
X13588D02*
X13642D01*
X13346D02*
X13506D01*
X12942D02*
X13265D01*
X15706Y2191D02*
X15992D01*
X15325D02*
X15621D01*
X15097D02*
X15244D01*
X14907D02*
X15016D01*
X14567D02*
X14649D01*
X14322D02*
X14485D01*
X14149D02*
X14237D01*
X13986D02*
X14067D01*
X13588D02*
X13642D01*
X13346D02*
X13506D01*
X12942D02*
X13265D01*
X15706Y2188D02*
X15992D01*
X15325D02*
X15621D01*
X15097D02*
X15244D01*
X14910D02*
X15016D01*
X14567D02*
X14649D01*
X14322D02*
X14485D01*
X14149D02*
X14237D01*
X13986D02*
X14067D01*
X13588D02*
X13646D01*
X13346D02*
X13506D01*
X12942D02*
X13265D01*
X15706Y2184D02*
X15992D01*
X15325D02*
X15621D01*
X15097D02*
X15244D01*
X14914D02*
X15016D01*
X14567D02*
X14649D01*
X14322D02*
X14485D01*
X14149D02*
X14237D01*
X13986D02*
X14067D01*
X13588D02*
X13646D01*
X13346D02*
X13506D01*
X12942D02*
X13265D01*
X15706Y2181D02*
X15992D01*
X15325D02*
X15621D01*
X15097D02*
X15244D01*
X14917D02*
X15016D01*
X14567D02*
X14649D01*
X14322D02*
X14485D01*
X14149D02*
X14237D01*
X13989D02*
X14067D01*
X13591D02*
X13646D01*
X13346D02*
X13506D01*
X12942D02*
X13265D01*
X15706Y2177D02*
X15992D01*
X15325D02*
X15621D01*
X15097D02*
X15244D01*
X14921D02*
X15016D01*
X14567D02*
X14649D01*
X14322D02*
X14485D01*
X14149D02*
X14237D01*
X13989D02*
X14067D01*
X13591D02*
X13646D01*
X13346D02*
X13506D01*
X12942D02*
X13265D01*
X15706Y2174D02*
X15992D01*
X15325D02*
X15621D01*
X15097D02*
X15244D01*
X14924D02*
X15016D01*
X14567D02*
X14649D01*
X14322D02*
X14485D01*
X14149D02*
X14237D01*
X13989D02*
X14067D01*
X13591D02*
X13646D01*
X13346D02*
X13506D01*
X12942D02*
X13265D01*
X15706Y2171D02*
X15992D01*
X15325D02*
X15621D01*
X15097D02*
X15244D01*
X14924D02*
X15016D01*
X14567D02*
X14649D01*
X14322D02*
X14485D01*
X14149D02*
X14237D01*
X13989D02*
X14067D01*
X13591D02*
X13646D01*
X13346D02*
X13506D01*
X12942D02*
X13265D01*
X15706Y2167D02*
X15992D01*
X15325D02*
X15621D01*
X15097D02*
X15244D01*
X14927D02*
X15016D01*
X14730D02*
X14805D01*
X14567D02*
X14649D01*
X14322D02*
X14485D01*
X14149D02*
X14241D01*
X13989D02*
X14067D01*
X13591D02*
X13646D01*
X13346D02*
X13506D01*
X12942D02*
X13265D01*
X15706Y2164D02*
X15992D01*
X15325D02*
X15621D01*
X15097D02*
X15244D01*
X14931D02*
X15016D01*
X14730D02*
X14819D01*
X14567D02*
X14649D01*
X14322D02*
X14485D01*
X14149D02*
X14241D01*
X13989D02*
X14067D01*
X13591D02*
X13649D01*
X13346D02*
X13506D01*
X12942D02*
X13265D01*
X15706Y2160D02*
X15992D01*
X15325D02*
X15621D01*
X15097D02*
X15244D01*
X14931D02*
X15016D01*
X14730D02*
X14829D01*
X14567D02*
X14649D01*
X14322D02*
X14485D01*
X14149D02*
X14241D01*
X13989D02*
X14067D01*
X13591D02*
X13649D01*
X13346D02*
X13506D01*
X12942D02*
X13265D01*
X15706Y2157D02*
X15992D01*
X15325D02*
X15621D01*
X15097D02*
X15244D01*
X14934D02*
X15016D01*
X14730D02*
X14836D01*
X14567D02*
X14649D01*
X14322D02*
X14485D01*
X14149D02*
X14241D01*
X13989D02*
X14067D01*
X13591D02*
X13649D01*
X13346D02*
X13506D01*
X12942D02*
X13265D01*
X15706Y2154D02*
X15992D01*
X15325D02*
X15621D01*
X15097D02*
X15244D01*
X14934D02*
X15016D01*
X14730D02*
X14842D01*
X14567D02*
X14649D01*
X14322D02*
X14485D01*
X14149D02*
X14241D01*
X13986D02*
X14067D01*
X13591D02*
X13649D01*
X13346D02*
X13506D01*
X12942D02*
X13265D01*
X15706Y2150D02*
X15992D01*
X15325D02*
X15621D01*
X15097D02*
X15244D01*
X14938D02*
X15016D01*
X14730D02*
X14846D01*
X14567D02*
X14649D01*
X14322D02*
X14485D01*
X14149D02*
X14241D01*
X13986D02*
X14067D01*
X13588D02*
X13649D01*
X13346D02*
X13506D01*
X12942D02*
X13265D01*
X15706Y2147D02*
X15992D01*
X15325D02*
X15621D01*
X15097D02*
X15244D01*
X14938D02*
X15016D01*
X14730D02*
X14853D01*
X14567D02*
X14649D01*
X14322D02*
X14485D01*
X14149D02*
X14241D01*
X13986D02*
X14067D01*
X13588D02*
X13904D01*
X13346D02*
X13506D01*
X12942D02*
X13265D01*
X15706Y2143D02*
X15992D01*
X15325D02*
X15621D01*
X15097D02*
X15244D01*
X14941D02*
X15016D01*
X14730D02*
X14856D01*
X14567D02*
X14649D01*
X14322D02*
X14485D01*
X14149D02*
X14241D01*
X13986D02*
X14067D01*
X13588D02*
X13904D01*
X13346D02*
X13506D01*
X12942D02*
X13265D01*
X15706Y2140D02*
X15992D01*
X15325D02*
X15621D01*
X15097D02*
X15244D01*
X14941D02*
X15016D01*
X14730D02*
X14856D01*
X14567D02*
X14649D01*
X14322D02*
X14485D01*
X14149D02*
X14241D01*
X13986D02*
X14067D01*
X13588D02*
X13904D01*
X13346D02*
X13506D01*
X12942D02*
X13265D01*
X15706Y2137D02*
X15992D01*
X15325D02*
X15621D01*
X15097D02*
X15244D01*
X14941D02*
X15016D01*
X14730D02*
X14859D01*
X14567D02*
X14649D01*
X14326D02*
X14485D01*
X14149D02*
X14244D01*
X13986D02*
X14067D01*
X13588D02*
X13904D01*
X13346D02*
X13506D01*
X12942D02*
X13265D01*
X15706Y2133D02*
X15992D01*
X15325D02*
X15621D01*
X15097D02*
X15244D01*
X14941D02*
X15016D01*
X14730D02*
X14863D01*
X14567D02*
X14649D01*
X14326D02*
X14485D01*
X14149D02*
X14244D01*
X13986D02*
X14067D01*
X13588D02*
X13904D01*
X13346D02*
X13503D01*
X12942D02*
X13265D01*
X15706Y2130D02*
X15992D01*
X15325D02*
X15621D01*
X15097D02*
X15244D01*
X14944D02*
X15016D01*
X14730D02*
X14863D01*
X14567D02*
X14649D01*
X14326D02*
X14485D01*
X14149D02*
X14244D01*
X13986D02*
X14067D01*
X13588D02*
X13904D01*
X13346D02*
X13503D01*
X12942D02*
X13265D01*
X15706Y2126D02*
X15992D01*
X15325D02*
X15621D01*
X15097D02*
X15244D01*
X14944D02*
X15016D01*
X14730D02*
X14863D01*
X14567D02*
X14649D01*
X14326D02*
X14485D01*
X14149D02*
X14244D01*
X13986D02*
X14067D01*
X13588D02*
X13904D01*
X13346D02*
X13503D01*
X12942D02*
X13265D01*
X15706Y2123D02*
X15992D01*
X15325D02*
X15621D01*
X15097D02*
X15244D01*
X14944D02*
X15016D01*
X14730D02*
X14866D01*
X14567D02*
X14649D01*
X14329D02*
X14485D01*
X14149D02*
X14244D01*
X13982D02*
X14067D01*
X13588D02*
X13901D01*
X13346D02*
X13503D01*
X12942D02*
X13265D01*
X15706Y2120D02*
X15992D01*
X15325D02*
X15621D01*
X15097D02*
X15244D01*
X14944D02*
X15016D01*
X14730D02*
X14866D01*
X14567D02*
X14649D01*
X14329D02*
X14485D01*
X14149D02*
X14247D01*
X13982D02*
X14067D01*
X13584D02*
X13901D01*
X13346D02*
X13499D01*
X12942D02*
X13265D01*
X15706Y2116D02*
X15992D01*
X15325D02*
X15621D01*
X15097D02*
X15244D01*
X14944D02*
X15016D01*
X14730D02*
X14866D01*
X14567D02*
X14649D01*
X14329D02*
X14485D01*
X14149D02*
X14247D01*
X13982D02*
X14067D01*
X13584D02*
X13901D01*
X13346D02*
X13499D01*
X12942D02*
X13265D01*
X15706Y2113D02*
X15992D01*
X15325D02*
X15621D01*
X15097D02*
X15244D01*
X14944D02*
X15016D01*
X14730D02*
X14866D01*
X14567D02*
X14649D01*
X14329D02*
X14485D01*
X14149D02*
X14247D01*
X13982D02*
X14067D01*
X13584D02*
X13897D01*
X13346D02*
X13499D01*
X12942D02*
X13265D01*
X15706Y2109D02*
X15992D01*
X15325D02*
X15621D01*
X15097D02*
X15244D01*
X14948D02*
X15016D01*
X14730D02*
X14866D01*
X14567D02*
X14649D01*
X14332D02*
X14485D01*
X14149D02*
X14247D01*
X13979D02*
X14067D01*
X13584D02*
X13897D01*
X13346D02*
X13496D01*
X12942D02*
X13265D01*
X15706Y2106D02*
X15992D01*
X15325D02*
X15621D01*
X15097D02*
X15244D01*
X14948D02*
X15016D01*
X14730D02*
X14866D01*
X14567D02*
X14649D01*
X14332D02*
X14485D01*
X14149D02*
X14251D01*
X13979D02*
X14067D01*
X13584D02*
X13897D01*
X13346D02*
X13496D01*
X12942D02*
X13265D01*
X15706Y2103D02*
X15992D01*
X15325D02*
X15621D01*
X15097D02*
X15244D01*
X14948D02*
X15016D01*
X14734D02*
X14866D01*
X14567D02*
X14649D01*
X14336D02*
X14485D01*
X14149D02*
X14251D01*
X13979D02*
X14067D01*
X13581D02*
X13894D01*
X13346D02*
X13493D01*
X12942D02*
X13265D01*
X15706Y2099D02*
X15992D01*
X15325D02*
X15621D01*
X15097D02*
X15244D01*
X14948D02*
X15016D01*
X14734D02*
X14866D01*
X14567D02*
X14649D01*
X14336D02*
X14485D01*
X14149D02*
X14251D01*
X13979D02*
X14067D01*
X13581D02*
X13890D01*
X13346D02*
X13493D01*
X12942D02*
X13265D01*
X15706Y2096D02*
X15992D01*
X15325D02*
X15621D01*
X15097D02*
X15244D01*
X14948D02*
X15016D01*
X14734D02*
X14866D01*
X14567D02*
X14649D01*
X14339D02*
X14485D01*
X14149D02*
X14254D01*
X13975D02*
X14067D01*
X13581D02*
X13890D01*
X13346D02*
X13489D01*
X12942D02*
X13265D01*
X15706Y2092D02*
X15992D01*
X15325D02*
X15621D01*
X15097D02*
X15244D01*
X14948D02*
X15016D01*
X14737D02*
X14866D01*
X14567D02*
X14649D01*
X14339D02*
X14485D01*
X14149D02*
X14254D01*
X13975D02*
X14067D01*
X13578D02*
X13887D01*
X13346D02*
X13489D01*
X12942D02*
X13265D01*
X15706Y2089D02*
X15992D01*
X15325D02*
X15621D01*
X15097D02*
X15244D01*
X14944D02*
X15016D01*
X14737D02*
X14866D01*
X14567D02*
X14649D01*
X14343D02*
X14485D01*
X14149D02*
X14258D01*
X13972D02*
X14067D01*
X13578D02*
X13884D01*
X13346D02*
X13486D01*
X12942D02*
X13265D01*
X15706Y2086D02*
X15992D01*
X15325D02*
X15621D01*
X15097D02*
X15244D01*
X14944D02*
X15016D01*
X14740D02*
X14866D01*
X14567D02*
X14649D01*
X14346D02*
X14485D01*
X14149D02*
X14258D01*
X13972D02*
X14067D01*
X13578D02*
X13884D01*
X13346D02*
X13482D01*
X12942D02*
X13265D01*
X15706Y2082D02*
X15992D01*
X15325D02*
X15621D01*
X15097D02*
X15244D01*
X14944D02*
X15016D01*
X14744D02*
X14863D01*
X14567D02*
X14649D01*
X14349D02*
X14485D01*
X14149D02*
X14261D01*
X13972D02*
X14067D01*
X13717D02*
X13880D01*
X13574D02*
X13714D01*
X13346D02*
X13479D01*
X12942D02*
X13265D01*
X15706Y2079D02*
X15992D01*
X15325D02*
X15621D01*
X15097D02*
X15244D01*
X14944D02*
X15016D01*
X14744D02*
X14863D01*
X14567D02*
X14649D01*
X14353D02*
X14485D01*
X14149D02*
X14261D01*
X13969D02*
X14067D01*
X13720D02*
X13873D01*
X13574D02*
X13714D01*
X13346D02*
X13476D01*
X12942D02*
X13265D01*
X15706Y2075D02*
X15992D01*
X15325D02*
X15621D01*
X15097D02*
X15244D01*
X14944D02*
X15016D01*
X14747D02*
X14859D01*
X14567D02*
X14649D01*
X14356D02*
X14485D01*
X14149D02*
X14264D01*
X13969D02*
X14067D01*
X13727D02*
X13870D01*
X13571D02*
X13710D01*
X13346D02*
X13472D01*
X12942D02*
X13265D01*
X15706Y2072D02*
X15992D01*
X15325D02*
X15400D01*
X15097D02*
X15244D01*
X14944D02*
X15016D01*
X14751D02*
X14856D01*
X14567D02*
X14649D01*
X14363D02*
X14482D01*
X14149D02*
X14264D01*
X13965D02*
X14067D01*
X13731D02*
X13867D01*
X13571D02*
X13710D01*
X13350D02*
X13465D01*
X12942D02*
X13265D01*
X15706Y2069D02*
X15992D01*
X15325D02*
X15400D01*
X15097D02*
X15244D01*
X14944D02*
X15016D01*
X14757D02*
X14856D01*
X14567D02*
X14649D01*
X14366D02*
X14479D01*
X14149D02*
X14268D01*
X13965D02*
X14064D01*
X13737D02*
X13860D01*
X13567D02*
X13707D01*
X13357D02*
X13462D01*
X12942D02*
X13265D01*
X15706Y2065D02*
X15992D01*
X15325D02*
X15400D01*
X15097D02*
X15244D01*
X14941D02*
X15016D01*
X14761D02*
X14849D01*
X14567D02*
X14649D01*
X14373D02*
X14472D01*
X14149D02*
X14268D01*
X13962D02*
X14064D01*
X13744D02*
X13853D01*
X13567D02*
X13707D01*
X13363D02*
X13455D01*
X12942D02*
X13265D01*
X15706Y2062D02*
X15992D01*
X15325D02*
X15400D01*
X15097D02*
X15244D01*
X14941D02*
X15016D01*
X14768D02*
X14846D01*
X14567D02*
X14645D01*
X14383D02*
X14465D01*
X14149D02*
X14271D01*
X13958D02*
X14064D01*
X13754D02*
X13846D01*
X13564D02*
X13703D01*
X13370D02*
X13445D01*
X12942D02*
X13265D01*
X15706Y2058D02*
X15992D01*
X15325D02*
X15400D01*
X15097D02*
X15244D01*
X14941D02*
X15016D01*
X14778D02*
X14836D01*
X14567D02*
X14645D01*
X14397D02*
X14458D01*
X14149D02*
X14275D01*
X13958D02*
X14060D01*
X13768D02*
X13833D01*
X13564D02*
X13703D01*
X13380D02*
X13431D01*
X12942D02*
X13265D01*
X15706Y2055D02*
X15992D01*
X15325D02*
X15400D01*
X15097D02*
X15244D01*
X14938D02*
X15016D01*
X14567D02*
X14645D01*
X14145D02*
X14275D01*
X13955D02*
X14060D01*
X13561D02*
X13700D01*
X12942D02*
X13265D01*
X15706Y2052D02*
X15992D01*
X15325D02*
X15400D01*
X15097D02*
X15244D01*
X14938D02*
X15016D01*
X14567D02*
X14645D01*
X14145D02*
X14278D01*
X13952D02*
X14057D01*
X13557D02*
X13700D01*
X12942D02*
X13265D01*
X15706Y2048D02*
X15992D01*
X15325D02*
X15400D01*
X15097D02*
X15244D01*
X14934D02*
X15016D01*
X14567D02*
X14642D01*
X14145D02*
X14281D01*
X13948D02*
X14057D01*
X13557D02*
X13697D01*
X12942D02*
X13265D01*
X15706Y2045D02*
X15992D01*
X15325D02*
X15400D01*
X15097D02*
X15244D01*
X14934D02*
X15016D01*
X14567D02*
X14642D01*
X14145D02*
X14285D01*
X13948D02*
X14054D01*
X13554D02*
X13697D01*
X12942D02*
X13265D01*
X15706Y2041D02*
X15992D01*
X15325D02*
X15400D01*
X15097D02*
X15244D01*
X14931D02*
X15016D01*
X14567D02*
X14642D01*
X14145D02*
X14288D01*
X13945D02*
X14054D01*
X13550D02*
X13693D01*
X12942D02*
X13265D01*
X15706Y2038D02*
X15992D01*
X15325D02*
X15400D01*
X15097D02*
X15244D01*
X14931D02*
X15016D01*
X14567D02*
X14638D01*
X14145D02*
X14292D01*
X13941D02*
X14050D01*
X13547D02*
X13693D01*
X12942D02*
X13265D01*
X15706Y2035D02*
X15992D01*
X15325D02*
X15400D01*
X15097D02*
X15244D01*
X14927D02*
X15016D01*
X14567D02*
X14638D01*
X14145D02*
X14295D01*
X13938D02*
X14047D01*
X13544D02*
X13690D01*
X12942D02*
X13265D01*
X15706Y2031D02*
X15992D01*
X15325D02*
X15400D01*
X15097D02*
X15244D01*
X14924D02*
X15016D01*
X14567D02*
X14635D01*
X14142D02*
X14298D01*
X13935D02*
X14040D01*
X13540D02*
X13690D01*
X12942D02*
X13265D01*
X15706Y2028D02*
X15992D01*
X15325D02*
X15400D01*
X15097D02*
X15244D01*
X14921D02*
X15016D01*
X14720D02*
X14727D01*
X14567D02*
X14635D01*
X14142D02*
X14302D01*
X13931D02*
X14037D01*
X13537D02*
X13686D01*
X12942D02*
X13265D01*
X15706Y2024D02*
X15992D01*
X15325D02*
X15400D01*
X15097D02*
X15244D01*
X14917D02*
X15016D01*
X14720D02*
X14730D01*
X14567D02*
X14632D01*
X14142D02*
X14305D01*
X13924D02*
X14030D01*
X13533D02*
X13686D01*
X12942D02*
X13265D01*
X15706Y2021D02*
X15992D01*
X15325D02*
X15400D01*
X15097D02*
X15244D01*
X14914D02*
X15016D01*
X14717D02*
X14734D01*
X14567D02*
X14628D01*
X14139D02*
X14312D01*
X13921D02*
X14030D01*
X13530D02*
X13690D01*
X12942D02*
X13265D01*
X15706Y2018D02*
X15992D01*
X15325D02*
X15400D01*
X15097D02*
X15244D01*
X14910D02*
X15016D01*
X14717D02*
X14737D01*
X14567D02*
X14625D01*
X14139D02*
X14315D01*
X13918D02*
X14033D01*
X13527D02*
X13693D01*
X13346D02*
X13350D01*
X12942D02*
X13265D01*
X15706Y2014D02*
X15992D01*
X15325D02*
X15400D01*
X15097D02*
X15244D01*
X14907D02*
X15016D01*
X14713D02*
X14740D01*
X14567D02*
X14621D01*
X14499D02*
X14506D01*
X14135D02*
X14322D01*
X13911D02*
X14037D01*
X13520D02*
X13700D01*
X13346D02*
X13353D01*
X12942D02*
X13265D01*
X15706Y2011D02*
X15992D01*
X15325D02*
X15400D01*
X15097D02*
X15244D01*
X14904D02*
X15016D01*
X14710D02*
X14747D01*
X14567D02*
X14625D01*
X14492D02*
X14506D01*
X14135D02*
X14326D01*
X13904D02*
X14040D01*
X13516D02*
X13707D01*
X13346D02*
X13357D01*
X12942D02*
X13265D01*
X15706Y2007D02*
X15992D01*
X15325D02*
X15400D01*
X15097D02*
X15244D01*
X14897D02*
X15016D01*
X14706D02*
X14751D01*
X14567D02*
X14628D01*
X14485D02*
X14509D01*
X14132D02*
X14332D01*
X13897D02*
X14043D01*
X13510D02*
X13714D01*
X13346D02*
X13363D01*
X12942D02*
X13265D01*
X15706Y2004D02*
X15992D01*
X15325D02*
X15400D01*
X15097D02*
X15244D01*
X14890D02*
X15016D01*
X14703D02*
X14757D01*
X14567D02*
X14632D01*
X14479D02*
X14513D01*
X14128D02*
X14343D01*
X13890D02*
X14047D01*
X13503D02*
X13720D01*
X13346D02*
X13370D01*
X12942D02*
X13265D01*
X15706Y2001D02*
X15992D01*
X15325D02*
X15400D01*
X15097D02*
X15244D01*
X14883D02*
X15016D01*
X14700D02*
X14768D01*
X14567D02*
X14635D01*
X14472D02*
X14513D01*
X14125D02*
X14349D01*
X13880D02*
X14050D01*
X13493D02*
X13731D01*
X13346D02*
X13377D01*
X12942D02*
X13265D01*
X15706Y1997D02*
X15992D01*
X15325D02*
X15400D01*
X15097D02*
X15244D01*
X14873D02*
X15016D01*
X14696D02*
X14778D01*
X14567D02*
X14638D01*
X14462D02*
X14516D01*
X14122D02*
X14360D01*
X13870D02*
X14057D01*
X13482D02*
X13744D01*
X13346D02*
X13387D01*
X12942D02*
X13265D01*
X14859Y1994D02*
X15992D01*
X14689D02*
X14788D01*
X14567D02*
X14645D01*
X14451D02*
X14519D01*
X14115D02*
X14377D01*
X13856D02*
X14067D01*
X13469D02*
X13761D01*
X12942D02*
X13397D01*
X14836Y1990D02*
X15992D01*
X14676D02*
X14812D01*
X14567D02*
X14662D01*
X14428D02*
X14519D01*
X14098D02*
X14404D01*
X13826D02*
X14084D01*
X13445D02*
X13795D01*
X12942D02*
X13421D01*
X12942Y1987D02*
X15992D01*
X12942Y1984D02*
X15992D01*
X12942Y1980D02*
X15992D01*
X12942Y1977D02*
X15992D01*
X12942Y1973D02*
X15992D01*
X12942Y1970D02*
X15992D01*
X12942Y1967D02*
X15992D01*
X12942Y1963D02*
X15992D01*
X12942Y1960D02*
X15992D01*
X12942Y1956D02*
X15992D01*
X12942Y1953D02*
X15992D01*
X12942Y1950D02*
X15992D01*
X12942Y1946D02*
X15992D01*
X12942Y1943D02*
X15992D01*
X12942Y1939D02*
X15992D01*
X12942Y1936D02*
X15992D01*
X12942Y1933D02*
X15992D01*
X12942Y1929D02*
X15992D01*
X12942Y1926D02*
X15992D01*
X12942Y1922D02*
X15992D01*
X12942Y1919D02*
X15992D01*
X12942Y1916D02*
X15992D01*
X12942Y1912D02*
X15992D01*
X12942Y1909D02*
X15992D01*
X12942Y1905D02*
X15992D01*
X12942Y1902D02*
X15992D01*
X12942Y1899D02*
X15992D01*
X12942Y1895D02*
X15992D01*
X12942Y1892D02*
X15992D01*
X12942Y1888D02*
X15992D01*
X12942Y1885D02*
X15992D01*
X12942Y1882D02*
X15992D01*
X12942Y1878D02*
X15992D01*
X12942Y1875D02*
X15992D01*
X12942Y1871D02*
X15992D01*
X12942Y1868D02*
X15992D01*
X12942Y1865D02*
X15992D01*
X12942Y1861D02*
X15992D01*
X12942Y1858D02*
X15992D01*
X12942Y1854D02*
X15992D01*
X12942Y1851D02*
X15992D01*
X12942Y1848D02*
X15992D01*
X12942Y1844D02*
X15992D01*
X12942Y1841D02*
X15992D01*
X12942Y1837D02*
X15992D01*
X12942Y1834D02*
X15992D01*
X12942Y1831D02*
X15992D01*
X12942Y1827D02*
X15992D01*
X12942Y1824D02*
X15992D01*
X12942Y1820D02*
X15992D01*
X12942Y1817D02*
X15992D01*
X12942Y1814D02*
X15992D01*
X12942Y1810D02*
X15992D01*
X12942Y1807D02*
X15992D01*
X12942Y1803D02*
X15992D01*
X12942Y1800D02*
X15992D01*
X12942Y1797D02*
X15992D01*
X12942Y1793D02*
X15992D01*
X12942Y1790D02*
X15992D01*
X12942Y1786D02*
X15992D01*
X12942Y1783D02*
X15992D01*
X12942Y1780D02*
X15992D01*
X12942Y1776D02*
X15992D01*
X12942Y1773D02*
X15992D01*
X12942Y1769D02*
X15992D01*
X12942Y1766D02*
X15992D01*
X12942Y1763D02*
X15992D01*
X12942Y1759D02*
X15992D01*
X12942Y1756D02*
X15992D01*
X12942Y1752D02*
X15992D01*
X12942Y1749D02*
X15992D01*
X12942Y1746D02*
X15992D01*
X12942Y1742D02*
X15992D01*
X12942Y1739D02*
X15992D01*
X12942Y1735D02*
X15992D01*
X12942Y1732D02*
X15992D01*
X12942Y1729D02*
X15992D01*
X12942Y1725D02*
X15992D01*
X12942Y1722D02*
X15992D01*
X12942Y1718D02*
X15992D01*
X12942Y1715D02*
X15992D01*
X12942Y1712D02*
X15992D01*
X12942Y1708D02*
X15992D01*
X12942Y1705D02*
X15992D01*
X12942Y1701D02*
X15992D01*
X12942Y1698D02*
X15992D01*
X12942Y1695D02*
X15992D01*
X12942Y1691D02*
X15992D01*
X12942Y1688D02*
X15992D01*
X12942Y1684D02*
X15992D01*
X12942Y1681D02*
X15992D01*
X12942Y1678D02*
X15992D01*
X12942Y1674D02*
X15992D01*
X12942Y1671D02*
X15992D01*
X12942Y1667D02*
X15992D01*
X12942Y1664D02*
X15992D01*
X12942Y1661D02*
X15992D01*
X12942Y1657D02*
X15992D01*
X12942Y1654D02*
X15992D01*
X12942Y1650D02*
X15992D01*
X12942Y1647D02*
X15992D01*
X12942Y1644D02*
X15992D01*
X12942Y1640D02*
X15992D01*
X12942Y1637D02*
X15992D01*
X12942Y1633D02*
X15992D01*
X12942Y1630D02*
X15992D01*
X12942Y1627D02*
X15992D01*
D87*
X1298Y4790D02*
X3400D01*
X1298Y4990D02*
X3400D01*
X3400Y4790D02*
X3728Y4363D01*
X3400Y4990D02*
X3725Y5413D01*
X3617Y4887D02*
X4012Y5413D01*
X3617Y4887D02*
X4010Y4363D01*
M02*
