G04 Layer_Color=8421504*
%FSLAX25Y25*%
%MOIN*%
G70*
G01*
G75*
%ADD11R,0.00984X0.01417*%
%ADD14R,0.03543X0.02953*%
%ADD15R,0.05512X0.04528*%
%ADD16R,0.03937X0.06102*%
%ADD17R,0.04134X0.02598*%
%ADD18R,0.00984X0.06102*%
%ADD19R,0.06102X0.00984*%
%ADD20R,0.01929X0.01929*%
%ADD21R,0.11811X0.17716*%
%ADD22R,0.17716X0.11811*%
%ADD24R,0.04724X0.09843*%
%ADD25R,0.06102X0.05118*%
%ADD26R,0.05906X0.05118*%
%ADD27R,0.02953X0.03543*%
%ADD28R,0.02165X0.02047*%
%ADD29R,0.02047X0.02165*%
%ADD30R,0.02441X0.02441*%
%ADD31R,0.00787X0.00984*%
%ADD32R,0.05000X0.08661*%
%ADD33R,0.14488X0.05000*%
%ADD34R,0.04016X0.08622*%
%ADD35R,0.07480X0.07480*%
%ADD36R,0.05315X0.01575*%
%ADD37R,0.05512X0.06299*%
%ADD38R,0.09449X0.02992*%
%ADD40R,0.01378X0.03150*%
%ADD41R,0.02362X0.10236*%
%ADD42R,0.04016X0.03465*%
%ADD43R,0.01181X0.01772*%
%ADD46C,0.01000*%
%ADD50C,0.00787*%
%ADD51C,0.00500*%
%ADD52R,0.19000X0.09500*%
%ADD53C,0.00200*%
%ADD54C,0.01180*%
%ADD55C,0.00700*%
%ADD56R,0.02000X0.07500*%
%ADD57R,0.17300X0.00300*%
%ADD58R,0.20400X0.00300*%
%ADD59R,0.07400X0.24300*%
%ADD60R,0.19900X0.00500*%
%ADD61R,0.00400X0.00300*%
%ADD62R,0.00700X0.00300*%
%ADD63R,0.00400X0.00333*%
%ADD64R,0.00300X0.00400*%
%ADD65R,0.00300X0.00300*%
%ADD66R,0.07400X0.00397*%
%ADD67R,0.07500X0.00390*%
%ADD68R,0.13000X0.00397*%
%ADD69R,0.01400X0.00300*%
%ADD70R,0.02300X0.00400*%
%ADD71R,0.02300X0.00300*%
%ADD72R,0.01600X0.00500*%
%ADD73R,0.02500X0.00300*%
%ADD74R,0.02300X0.00500*%
%ADD75R,0.03000X0.00400*%
%ADD76R,0.02900X0.00400*%
%ADD77R,0.03000X0.00300*%
%ADD78R,0.03100X0.00400*%
%ADD79R,0.02800X0.00500*%
%ADD80R,0.03600X0.01300*%
%ADD81R,0.00900X0.00400*%
%ADD82R,0.03300X0.00300*%
%ADD83R,0.01700X0.00300*%
%ADD84R,0.03600X0.00300*%
%ADD85R,0.04600X0.00300*%
%ADD86R,0.09300X0.00400*%
%ADD87R,0.12800X0.00400*%
%ADD88R,0.08300X0.00400*%
%ADD89R,0.10000X0.00400*%
%ADD90R,0.14400X0.00400*%
%ADD91R,0.10300X0.00300*%
%ADD92R,0.14800X0.00300*%
%ADD93R,0.08500X0.00300*%
%ADD94R,0.12600X0.00300*%
%ADD95R,0.15800X0.00300*%
%ADD96R,0.11200X0.00400*%
%ADD97R,0.03500X0.00300*%
%ADD98R,0.16000X0.00300*%
%ADD99R,0.08900X0.00300*%
%ADD100R,0.14700X0.00300*%
%ADD101R,0.16700X0.00400*%
%ADD102R,0.15200X0.00400*%
%ADD103R,0.16800X0.00400*%
%ADD104R,0.17000X0.00400*%
%ADD105R,0.17500X0.00500*%
%ADD106R,0.01200X0.00400*%
%ADD107R,0.15000X0.00300*%
%ADD108R,0.09300X0.00300*%
%ADD109R,0.18000X0.00300*%
%ADD110R,0.17800X0.00400*%
%ADD111R,0.01700X0.00400*%
%ADD112R,0.15700X0.00300*%
%ADD113R,0.18600X0.00300*%
%ADD114R,0.09700X0.00300*%
%ADD115R,0.18700X0.00300*%
%ADD116R,0.18300X0.00400*%
%ADD117R,0.02800X0.00600*%
%ADD118R,0.15700X0.00400*%
%ADD119R,0.19000X0.00400*%
%ADD120R,0.19300X0.00400*%
%ADD121R,0.18800X0.00500*%
%ADD122R,0.03900X0.00400*%
%ADD123R,0.16400X0.00300*%
%ADD124R,0.19600X0.00300*%
%ADD125R,0.19700X0.00300*%
%ADD126R,0.19000X0.00300*%
%ADD127R,0.20700X0.00300*%
%ADD128R,0.20100X0.00300*%
%ADD129R,0.10600X0.00300*%
%ADD130R,0.20000X0.00300*%
%ADD131R,0.19400X0.00300*%
%ADD132R,0.20300X0.00400*%
%ADD133R,0.10900X0.00400*%
%ADD134R,0.20500X0.00400*%
%ADD135R,0.19500X0.00400*%
%ADD136R,0.20600X0.00300*%
%ADD137R,0.11100X0.00300*%
%ADD138R,0.20800X0.00300*%
%ADD139R,0.21000X0.00300*%
%ADD140R,0.11300X0.00300*%
%ADD141R,0.21100X0.00300*%
%ADD142R,0.19800X0.00300*%
%ADD143R,0.20700X0.00400*%
%ADD144R,0.00600X0.00400*%
%ADD145R,0.21400X0.00400*%
%ADD146R,0.11700X0.00400*%
%ADD147R,0.21300X0.00400*%
%ADD148R,0.20100X0.00400*%
%ADD149R,0.02200X0.00400*%
%ADD150R,0.21700X0.00300*%
%ADD151R,0.12000X0.00300*%
%ADD152R,0.20200X0.00300*%
%ADD153R,0.03400X0.00300*%
%ADD154R,0.12700X0.00300*%
%ADD155R,0.12300X0.00300*%
%ADD156R,0.05900X0.00400*%
%ADD157R,0.09900X0.00300*%
%ADD158R,0.24200X0.00400*%
%ADD159R,0.12600X0.00400*%
%ADD160R,0.04100X0.00500*%
%ADD161R,0.10800X0.00400*%
%ADD162R,0.08600X0.00400*%
%ADD163R,0.24300X0.00300*%
%ADD164R,0.12900X0.00300*%
%ADD165R,0.03200X0.00300*%
%ADD166R,0.10000X0.00300*%
%ADD167R,0.07900X0.00300*%
%ADD168R,0.24500X0.00300*%
%ADD169R,0.08300X0.00300*%
%ADD170R,0.13300X0.00300*%
%ADD171R,0.02200X0.00500*%
%ADD172R,0.07800X0.00300*%
%ADD173R,0.10400X0.00400*%
%ADD174R,0.13000X0.00400*%
%ADD175R,0.08400X0.00400*%
%ADD176R,0.13700X0.00400*%
%ADD177R,0.01300X0.00400*%
%ADD178R,0.09400X0.00400*%
%ADD179R,0.07900X0.00400*%
%ADD180R,0.09100X0.00400*%
%ADD181R,0.11000X0.00300*%
%ADD182R,0.08000X0.00300*%
%ADD183R,0.13800X0.00300*%
%ADD184R,0.01100X0.00300*%
%ADD185R,0.09000X0.00300*%
%ADD186R,0.07600X0.00300*%
%ADD187R,0.08400X0.00300*%
%ADD188R,0.06700X0.00300*%
%ADD189R,0.07000X0.00300*%
%ADD190R,0.07700X0.00300*%
%ADD191R,0.07700X0.00400*%
%ADD192R,0.07000X0.00400*%
%ADD193R,0.06700X0.00400*%
%ADD194R,0.08700X0.00400*%
%ADD195R,0.07500X0.00300*%
%ADD196R,0.06600X0.00300*%
%ADD197R,0.08600X0.00300*%
%ADD198R,0.06900X0.00300*%
%ADD199R,0.07400X0.00300*%
%ADD200R,0.10600X0.00400*%
%ADD201R,0.07100X0.00400*%
%ADD202R,0.07300X0.00400*%
%ADD203R,0.06600X0.00400*%
%ADD204R,0.08000X0.00400*%
%ADD205R,0.10400X0.00300*%
%ADD206R,0.07200X0.00300*%
%ADD207R,0.06800X0.00300*%
%ADD208R,0.07300X0.00300*%
%ADD209R,0.06900X0.00400*%
%ADD210R,0.07400X0.00400*%
%ADD211R,0.07100X0.00300*%
%ADD212R,0.06300X0.00400*%
%ADD213R,0.08100X0.00400*%
%ADD214R,0.11600X0.00300*%
%ADD215R,0.06400X0.00300*%
%ADD216R,0.08700X0.00300*%
%ADD217R,0.07200X0.00400*%
%ADD218R,0.09700X0.04700*%
%ADD219R,0.18900X0.00600*%
%ADD220R,0.09400X0.00300*%
%ADD221R,0.09200X0.00300*%
%ADD222R,0.18800X0.00300*%
%ADD223R,0.06400X0.00400*%
%ADD224R,0.09500X0.00400*%
%ADD225R,0.07800X0.00400*%
%ADD226R,0.18800X0.00400*%
%ADD227R,0.18200X0.00400*%
%ADD228R,0.17700X0.00300*%
%ADD229R,0.09000X0.00400*%
%ADD230R,0.07500X0.00400*%
%ADD231R,0.17200X0.00500*%
%ADD232R,0.16900X0.00600*%
%ADD233R,0.08400X0.00500*%
%ADD234R,0.06500X0.00400*%
%ADD235R,0.09100X0.00300*%
%ADD236R,0.17900X0.00300*%
%ADD237R,0.09600X0.00300*%
%ADD238R,0.06658X0.00300*%
%ADD239R,0.08800X0.00500*%
%ADD240R,0.10100X0.00400*%
%ADD241R,0.22000X0.00300*%
%ADD242R,0.06300X0.07000*%
%ADD243R,0.08100X0.00300*%
%ADD244R,0.22300X0.00400*%
%ADD245R,0.10900X0.00300*%
%ADD246R,0.22600X0.00300*%
%ADD247R,0.22900X0.00300*%
%ADD248R,0.09700X0.00400*%
%ADD249R,0.23300X0.00400*%
%ADD250R,0.08200X0.00400*%
%ADD251R,0.23500X0.00300*%
%ADD252R,0.23800X0.00500*%
%ADD253R,0.24500X0.00400*%
%ADD254R,0.24000X0.00400*%
%ADD255R,0.24600X0.00300*%
%ADD256R,0.08900X0.00400*%
%ADD257R,0.01000X0.00400*%
%ADD258R,0.07600X0.00400*%
%ADD259R,0.21700X0.00400*%
%ADD260R,0.21600X0.00300*%
%ADD261R,0.20500X0.00300*%
%ADD262R,0.00600X0.00300*%
%ADD263R,0.21900X0.00300*%
%ADD264R,0.21100X0.00400*%
%ADD265R,0.20400X0.00400*%
%ADD266R,0.22000X0.00400*%
%ADD267R,0.21000X0.00400*%
%ADD268R,0.07900X0.00600*%
%ADD269R,0.21500X0.00300*%
%ADD270R,0.20200X0.00400*%
%ADD271R,0.20300X0.00300*%
%ADD272R,0.20300X0.00500*%
%ADD273R,0.07500X0.00500*%
%ADD274R,0.19600X0.00400*%
%ADD275R,0.03700X0.00300*%
%ADD276R,0.19200X0.00300*%
%ADD277R,0.02600X0.00300*%
%ADD278R,0.19900X0.00300*%
%ADD279R,0.15400X0.00400*%
%ADD280R,0.00800X0.00300*%
%ADD281R,0.15300X0.00300*%
%ADD282R,0.17000X0.00300*%
%ADD283R,0.08200X0.00300*%
%ADD284R,0.15300X0.00400*%
%ADD285R,0.18300X0.00300*%
%ADD286R,0.11000X0.00400*%
%ADD287R,0.03300X0.00400*%
%ADD288R,0.17600X0.00400*%
%ADD289R,0.13300X0.00400*%
%ADD290R,0.07900X0.00500*%
%ADD291R,0.07400X0.00430*%
%ADD292R,0.07300X0.24000*%
%ADD293R,0.03700X0.00397*%
%ADD294R,0.05300X0.00397*%
%ADD295R,0.03000X0.00397*%
%ADD296R,0.06700X0.00356*%
%ADD297R,0.03300X0.00333*%
%ADD298R,0.02000X0.00333*%
%ADD299R,0.03100X0.00333*%
%ADD300R,0.01200X0.00333*%
%ADD301R,0.02900X0.00333*%
%ADD302R,0.03000X0.00408*%
%ADD303R,0.02700X0.00333*%
%ADD304R,0.03000X0.00333*%
%ADD305R,0.02300X0.00333*%
%ADD306R,0.03000X0.00333*%
%ADD307R,0.02200X0.00333*%
%ADD308R,0.02500X0.00333*%
%ADD309R,0.01300X0.00426*%
%ADD310R,0.02300X0.00333*%
%ADD311R,0.02000X0.00469*%
%ADD312R,0.18109X0.00300*%
%ADD313R,0.02983X0.00600*%
%ADD314R,0.16055X0.00400*%
%ADD315R,0.08066X0.00300*%
%ADD316R,0.10834X0.00300*%
%ADD317R,0.07366X0.00300*%
%ADD318R,0.08294X0.00400*%
%ADD319R,0.09383X0.00400*%
%ADD320R,0.09283X0.00300*%
%ADD321R,0.06560X0.00300*%
%ADD322R,0.21453X0.00400*%
%ADD323R,0.08482X0.00400*%
%ADD324R,0.08428X0.00300*%
%ADD325R,0.08160X0.00400*%
%ADD326R,0.20477X0.00400*%
%ADD327R,0.08049X0.00600*%
%ADD328R,0.08000X0.00432*%
%ADD329R,0.02600X0.00427*%
%ADD342C,0.00000*%
%ADD343C,0.00787*%
G36*
X345861Y-71286D02*
X346192Y-71507D01*
X346413Y-71838D01*
X346491Y-72228D01*
X346471D01*
X346491Y-80728D01*
X346413Y-81119D01*
X346192Y-81449D01*
X345861Y-81670D01*
X345471Y-81748D01*
Y-81728D01*
X337471Y-81748D01*
X337081Y-81670D01*
X336750Y-81449D01*
X336529Y-81119D01*
X336451Y-80728D01*
X336471D01*
X336451Y-72228D01*
X336529Y-71838D01*
X336750Y-71507D01*
X337081Y-71286D01*
X337471Y-71209D01*
Y-71228D01*
X345471Y-71209D01*
X345861Y-71286D01*
D02*
G37*
D11*
X244000Y20000D02*
D03*
Y16693D02*
D03*
X288000Y20000D02*
D03*
Y16693D02*
D03*
Y57000D02*
D03*
Y53693D02*
D03*
X244000Y57153D02*
D03*
Y53847D02*
D03*
D14*
X283917Y121024D02*
D03*
Y115905D02*
D03*
X238000Y92559D02*
D03*
Y87441D02*
D03*
X34803Y121575D02*
D03*
Y126693D02*
D03*
X27200Y139859D02*
D03*
Y134741D02*
D03*
X111839Y150909D02*
D03*
Y145791D02*
D03*
X106339Y150909D02*
D03*
Y145791D02*
D03*
D15*
X43008Y149504D02*
D03*
X51669D02*
D03*
X43008Y156197D02*
D03*
X51669D02*
D03*
D16*
X297768Y139720D02*
D03*
X308004D02*
D03*
D17*
X85447Y45821D02*
D03*
X75605D02*
D03*
X85447Y53302D02*
D03*
X75605Y49561D02*
D03*
Y53302D02*
D03*
D18*
X58716Y79224D02*
D03*
X60685D02*
D03*
X62653D02*
D03*
X64622D02*
D03*
X66590D02*
D03*
X68559D02*
D03*
X70527D02*
D03*
X72496D02*
D03*
X74465D02*
D03*
X76433D02*
D03*
X78402D02*
D03*
X80370D02*
D03*
X82339D02*
D03*
X84307D02*
D03*
X86276D02*
D03*
X88244D02*
D03*
X90213D02*
D03*
X92181D02*
D03*
X94150D02*
D03*
X96118D02*
D03*
X98087D02*
D03*
X100055D02*
D03*
X102024D02*
D03*
X103992D02*
D03*
X105961D02*
D03*
Y138476D02*
D03*
X103992D02*
D03*
X102024D02*
D03*
X100055D02*
D03*
X98087D02*
D03*
X96118D02*
D03*
X94150D02*
D03*
X92181D02*
D03*
X90213D02*
D03*
X88244D02*
D03*
X86276D02*
D03*
X84307D02*
D03*
X82339D02*
D03*
X80370D02*
D03*
X78402D02*
D03*
X76433D02*
D03*
X74465D02*
D03*
X72496D02*
D03*
X70527D02*
D03*
X68559D02*
D03*
X66590D02*
D03*
X64622D02*
D03*
X62653D02*
D03*
X60685D02*
D03*
X58716D02*
D03*
D19*
X111965Y85228D02*
D03*
Y87197D02*
D03*
Y89165D02*
D03*
Y91134D02*
D03*
Y93102D02*
D03*
Y95071D02*
D03*
Y97039D02*
D03*
Y99008D02*
D03*
Y100976D02*
D03*
Y102945D02*
D03*
Y104913D02*
D03*
Y106882D02*
D03*
Y108850D02*
D03*
Y110819D02*
D03*
Y112787D02*
D03*
Y114756D02*
D03*
Y116724D02*
D03*
Y118693D02*
D03*
Y120661D02*
D03*
Y122630D02*
D03*
Y124598D02*
D03*
Y126567D02*
D03*
Y128535D02*
D03*
Y130504D02*
D03*
Y132472D02*
D03*
X52713D02*
D03*
Y130504D02*
D03*
Y128535D02*
D03*
Y126567D02*
D03*
Y124598D02*
D03*
Y122630D02*
D03*
Y120661D02*
D03*
Y118693D02*
D03*
Y116724D02*
D03*
Y114756D02*
D03*
Y112787D02*
D03*
Y110819D02*
D03*
Y108850D02*
D03*
Y106882D02*
D03*
Y104913D02*
D03*
Y102945D02*
D03*
Y100976D02*
D03*
Y99008D02*
D03*
Y97039D02*
D03*
Y95071D02*
D03*
Y93102D02*
D03*
Y91134D02*
D03*
Y89165D02*
D03*
Y87197D02*
D03*
Y85228D02*
D03*
D20*
X323484Y88740D02*
D03*
X319153D02*
D03*
X314823D02*
D03*
X310492D02*
D03*
X306161D02*
D03*
X301831D02*
D03*
X297500D02*
D03*
X325650Y85197D02*
D03*
X321319D02*
D03*
X316988D02*
D03*
X312657D02*
D03*
X308327D02*
D03*
X303996D02*
D03*
X299665D02*
D03*
X295335D02*
D03*
X294547Y91693D02*
D03*
Y96024D02*
D03*
Y100354D02*
D03*
Y104685D02*
D03*
Y109016D02*
D03*
Y113347D02*
D03*
X291004Y85197D02*
D03*
Y89528D02*
D03*
Y93858D02*
D03*
Y98189D02*
D03*
Y102520D02*
D03*
Y106850D02*
D03*
Y111181D02*
D03*
Y115512D02*
D03*
Y119843D02*
D03*
X325650D02*
D03*
X323484Y116299D02*
D03*
X321319Y119843D02*
D03*
X316988D02*
D03*
X312657D02*
D03*
X308327D02*
D03*
X303996D02*
D03*
X299665D02*
D03*
X295335D02*
D03*
X319153Y116299D02*
D03*
X314823D02*
D03*
X310492D02*
D03*
X306161D02*
D03*
X301831D02*
D03*
X297500D02*
D03*
X325650Y96024D02*
D03*
Y109016D02*
D03*
D21*
X320500Y172500D02*
D03*
D22*
X11000Y189500D02*
D03*
D24*
X8819Y57894D02*
D03*
X28504D02*
D03*
X18661D02*
D03*
Y36240D02*
D03*
X28504D02*
D03*
X8819D02*
D03*
D25*
X58748Y7142D02*
D03*
X27252D02*
D03*
Y24858D02*
D03*
X321248Y7142D02*
D03*
X289752D02*
D03*
Y24858D02*
D03*
X277248Y7142D02*
D03*
X245752D02*
D03*
Y24858D02*
D03*
X321248Y44142D02*
D03*
X289752D02*
D03*
Y61858D02*
D03*
X277248Y44142D02*
D03*
X245752D02*
D03*
Y61858D02*
D03*
D26*
X58748Y24858D02*
D03*
X321248D02*
D03*
X277248D02*
D03*
X321248Y61858D02*
D03*
X277248D02*
D03*
D27*
X251559Y131600D02*
D03*
X246441D02*
D03*
X37067Y131122D02*
D03*
X31949D02*
D03*
X289441Y148500D02*
D03*
X294559D02*
D03*
X274559D02*
D03*
X269441D02*
D03*
X289441Y166000D02*
D03*
X294559D02*
D03*
X274559D02*
D03*
X269441D02*
D03*
X32551Y115315D02*
D03*
X37669D02*
D03*
X32551Y110315D02*
D03*
X37669D02*
D03*
D28*
X27122Y107331D02*
D03*
Y110480D02*
D03*
X102500Y69425D02*
D03*
Y72575D02*
D03*
X90000Y69425D02*
D03*
Y72575D02*
D03*
X106000D02*
D03*
Y69425D02*
D03*
X68500Y72650D02*
D03*
Y69500D02*
D03*
X87000Y156425D02*
D03*
Y159575D02*
D03*
X93900Y52975D02*
D03*
Y49825D02*
D03*
X78500Y69425D02*
D03*
Y72575D02*
D03*
X82500Y69425D02*
D03*
Y72575D02*
D03*
X77000Y159575D02*
D03*
Y156425D02*
D03*
X92000Y159575D02*
D03*
Y156425D02*
D03*
X82000Y159575D02*
D03*
Y156425D02*
D03*
X284500Y153500D02*
D03*
Y150350D02*
D03*
X279500Y153575D02*
D03*
Y150425D02*
D03*
X284500Y164075D02*
D03*
Y160925D02*
D03*
X279500Y164150D02*
D03*
Y161000D02*
D03*
X226000Y52225D02*
D03*
Y55375D02*
D03*
X222500Y52225D02*
D03*
Y55375D02*
D03*
X90400Y52975D02*
D03*
Y49825D02*
D03*
X70683Y52908D02*
D03*
Y49758D02*
D03*
X23622Y110480D02*
D03*
Y107331D02*
D03*
X101839Y145276D02*
D03*
Y148425D02*
D03*
X99000Y72575D02*
D03*
Y69425D02*
D03*
X89839Y145276D02*
D03*
Y148425D02*
D03*
X86339Y145276D02*
D03*
Y148425D02*
D03*
X74500Y72575D02*
D03*
Y69425D02*
D03*
X60000Y72575D02*
D03*
Y69425D02*
D03*
X57339Y150925D02*
D03*
Y147776D02*
D03*
D29*
X121575Y118500D02*
D03*
X118425D02*
D03*
X118764Y131850D02*
D03*
X121913D02*
D03*
X32047Y101594D02*
D03*
X35197D02*
D03*
X32047Y105433D02*
D03*
X35197D02*
D03*
X26975Y130600D02*
D03*
X23825D02*
D03*
X118425Y122000D02*
D03*
X121575D02*
D03*
X118425Y105500D02*
D03*
X121575D02*
D03*
X118425Y100500D02*
D03*
X121575D02*
D03*
X118764Y128350D02*
D03*
X121913D02*
D03*
X62764Y144350D02*
D03*
X65913D02*
D03*
X50264D02*
D03*
X53413D02*
D03*
X45799Y126957D02*
D03*
X42650D02*
D03*
X45913Y107850D02*
D03*
X42764D02*
D03*
X45913Y119350D02*
D03*
X42764D02*
D03*
X45913Y111350D02*
D03*
X42764D02*
D03*
X298311Y134221D02*
D03*
X301461D02*
D03*
X307961D02*
D03*
X304811D02*
D03*
X231335Y22551D02*
D03*
X234484D02*
D03*
X224335D02*
D03*
X227484D02*
D03*
D30*
X42453Y133957D02*
D03*
X45996D02*
D03*
X42453Y130457D02*
D03*
X45996D02*
D03*
D31*
X86122Y60228D02*
D03*
X87500D02*
D03*
X88878D02*
D03*
X86122Y63772D02*
D03*
X88878D02*
D03*
X87500D02*
D03*
D32*
X250000Y78504D02*
D03*
X260000Y91496D02*
D03*
X270000Y78504D02*
D03*
X250000Y113504D02*
D03*
X260000Y126496D02*
D03*
X270000Y113504D02*
D03*
D33*
X206760Y125000D02*
D03*
X224240D02*
D03*
X206760Y115000D02*
D03*
X224240D02*
D03*
X206760Y105000D02*
D03*
X224240D02*
D03*
D34*
X320000Y210768D02*
D03*
X260000D02*
D03*
X320000Y199232D02*
D03*
X260000D02*
D03*
X310000Y210768D02*
D03*
X300000Y210768D02*
D03*
X280000D02*
D03*
X270000D02*
D03*
X240000D02*
D03*
X230000D02*
D03*
X310000Y199232D02*
D03*
X300000D02*
D03*
X280000D02*
D03*
X270000D02*
D03*
X240000D02*
D03*
X230000D02*
D03*
X290000Y210768D02*
D03*
X250000Y210768D02*
D03*
X290000Y199232D02*
D03*
X250000D02*
D03*
X190000Y20768D02*
D03*
X190000Y9232D02*
D03*
X210000Y20768D02*
D03*
X200000D02*
D03*
X170000D02*
D03*
X160000D02*
D03*
X210000Y9232D02*
D03*
X200000D02*
D03*
X170000D02*
D03*
X160000D02*
D03*
X180000Y20768D02*
D03*
Y9232D02*
D03*
X170000Y210768D02*
D03*
Y199232D02*
D03*
X210000Y210768D02*
D03*
X180000D02*
D03*
X190000Y210768D02*
D03*
X140000Y210768D02*
D03*
X150000D02*
D03*
X210000Y199232D02*
D03*
X180000D02*
D03*
X190000D02*
D03*
X140000D02*
D03*
X150000D02*
D03*
X200000Y210768D02*
D03*
X160000D02*
D03*
X200000Y199232D02*
D03*
X160000D02*
D03*
X124000Y210768D02*
D03*
X64000D02*
D03*
X124000Y199232D02*
D03*
X64000D02*
D03*
X114000Y210768D02*
D03*
X104000Y210768D02*
D03*
X84000D02*
D03*
X74000D02*
D03*
X44000D02*
D03*
X34000D02*
D03*
X114000Y199232D02*
D03*
X104000D02*
D03*
X84000D02*
D03*
X74000D02*
D03*
X44000D02*
D03*
X34000D02*
D03*
X94000Y210768D02*
D03*
X54000Y210768D02*
D03*
X94000Y199232D02*
D03*
X54000D02*
D03*
X100000Y20768D02*
D03*
Y9232D02*
D03*
X140000Y20768D02*
D03*
X110000D02*
D03*
X120000Y20768D02*
D03*
X70000Y20768D02*
D03*
X80000D02*
D03*
X140000Y9232D02*
D03*
X110000D02*
D03*
X120000D02*
D03*
X70000D02*
D03*
X80000D02*
D03*
X130000Y20768D02*
D03*
X90000D02*
D03*
X130000Y9232D02*
D03*
X90000D02*
D03*
D35*
X6159Y120098D02*
D03*
Y110650D02*
D03*
D36*
X16691Y110256D02*
D03*
Y112815D02*
D03*
Y115374D02*
D03*
Y117933D02*
D03*
Y120492D02*
D03*
D37*
X16297Y127972D02*
D03*
Y102776D02*
D03*
D38*
X22677Y148500D02*
D03*
Y153500D02*
D03*
Y158500D02*
D03*
Y163500D02*
D03*
Y168500D02*
D03*
X7323D02*
D03*
Y163500D02*
D03*
Y158500D02*
D03*
Y153500D02*
D03*
Y148500D02*
D03*
D40*
X233347Y16306D02*
D03*
X225472D02*
D03*
X227441D02*
D03*
X229410D02*
D03*
X231378D02*
D03*
D41*
X221929Y7251D02*
D03*
X236890D02*
D03*
D42*
X24570Y81094D02*
D03*
Y93929D02*
D03*
X33428Y81075D02*
D03*
Y93910D02*
D03*
X42188Y81075D02*
D03*
Y93910D02*
D03*
D43*
X26032Y120843D02*
D03*
X28000D02*
D03*
X29969D02*
D03*
Y126157D02*
D03*
X26032D02*
D03*
D46*
X794171Y-40800D02*
Y253200D01*
X907171D01*
Y-40800D02*
Y253200D01*
X794171Y-40800D02*
X907171D01*
X810171Y238448D02*
X887171D01*
X344332Y-111135D02*
X342999Y-109803D01*
X340333D01*
X339000Y-111135D01*
Y-116467D01*
X340333Y-117800D01*
X342999D01*
X344332Y-116467D01*
X350996Y-109803D02*
X348330D01*
X346997Y-111135D01*
Y-116467D01*
X348330Y-117800D01*
X350996D01*
X352329Y-116467D01*
Y-111135D01*
X350996Y-109803D01*
X354995Y-117800D02*
Y-109803D01*
X360326Y-117800D01*
Y-109803D01*
X368324D02*
X362992D01*
Y-113801D01*
X365658D01*
X362992D01*
Y-117800D01*
X370990Y-109803D02*
X373655D01*
X372323D01*
Y-117800D01*
X370990D01*
X373655D01*
X377654Y-109803D02*
Y-117800D01*
X381653D01*
X382986Y-116467D01*
Y-111135D01*
X381653Y-109803D01*
X377654D01*
X390983D02*
X385652D01*
Y-117800D01*
X390983D01*
X385652Y-113801D02*
X388317D01*
X393649Y-117800D02*
Y-109803D01*
X398981Y-117800D01*
Y-109803D01*
X401646D02*
X406978D01*
X404312D01*
Y-117800D01*
X409644Y-109803D02*
X412310D01*
X410977D01*
Y-117800D01*
X409644D01*
X412310D01*
X416308D02*
Y-112468D01*
X418974Y-109803D01*
X421640Y-112468D01*
Y-117800D01*
Y-113801D01*
X416308D01*
X424306Y-109803D02*
Y-117800D01*
X429637D01*
X884000Y606200D02*
Y611198D01*
X886499D01*
X887332Y610365D01*
Y608699D01*
X886499Y607866D01*
X884000D01*
X892331Y611198D02*
X890664D01*
X891498D01*
Y607033D01*
X890664Y606200D01*
X889831D01*
X888998Y607033D01*
X893997Y611198D02*
Y606200D01*
X896496D01*
X897329Y607033D01*
Y607866D01*
X896496Y608699D01*
X893997D01*
X896496D01*
X897329Y609532D01*
Y610365D01*
X896496Y611198D01*
X893997D01*
X818000Y610365D02*
X818833Y611198D01*
X820499D01*
X821332Y610365D01*
Y609532D01*
X820499Y608699D01*
X819666D01*
X820499D01*
X821332Y607866D01*
Y607033D01*
X820499Y606200D01*
X818833D01*
X818000Y607033D01*
X822998Y606200D02*
X826331Y609532D01*
X827997Y610365D02*
X828830Y611198D01*
X830496D01*
X831329Y610365D01*
Y609532D01*
X830496Y608699D01*
X829663D01*
X830496D01*
X831329Y607866D01*
Y607033D01*
X830496Y606200D01*
X828830D01*
X827997Y607033D01*
X832995Y606200D02*
X834661D01*
X833828D01*
Y611198D01*
X832995Y610365D01*
X837160Y606200D02*
X840493Y609532D01*
X845491Y606200D02*
X842159D01*
X845491Y609532D01*
Y610365D01*
X844658Y611198D01*
X842992D01*
X842159Y610365D01*
X847157D02*
X847990Y611198D01*
X849656D01*
X850490Y610365D01*
Y607033D01*
X849656Y606200D01*
X847990D01*
X847157Y607033D01*
Y610365D01*
X852156Y606200D02*
X853822D01*
X852989D01*
Y611198D01*
X852156Y610365D01*
X859653Y611198D02*
X857987Y610365D01*
X856321Y608699D01*
Y607033D01*
X857154Y606200D01*
X858820D01*
X859653Y607033D01*
Y607866D01*
X858820Y608699D01*
X856321D01*
X630000Y611198D02*
Y607033D01*
X630833Y606200D01*
X632499D01*
X633332Y607033D01*
Y611198D01*
X634998Y604534D02*
Y609532D01*
X637498D01*
X638331Y608699D01*
Y607033D01*
X637498Y606200D01*
X634998D01*
X643329Y611198D02*
Y606200D01*
X640830D01*
X639997Y607033D01*
Y608699D01*
X640830Y609532D01*
X643329D01*
X645828D02*
X647494D01*
X648327Y608699D01*
Y606200D01*
X645828D01*
X644995Y607033D01*
X645828Y607866D01*
X648327D01*
X650827Y610365D02*
Y609532D01*
X649994D01*
X651660D01*
X650827D01*
Y607033D01*
X651660Y606200D01*
X656658D02*
X654992D01*
X654159Y607033D01*
Y608699D01*
X654992Y609532D01*
X656658D01*
X657491Y608699D01*
Y607866D01*
X654159D01*
X662490Y611198D02*
Y606200D01*
X659990D01*
X659157Y607033D01*
Y608699D01*
X659990Y609532D01*
X662490D01*
X664989Y605367D02*
X665822Y606200D01*
Y607033D01*
X664989D01*
Y606200D01*
X665822D01*
X664989Y605367D01*
X664156Y604534D01*
X674985Y606200D02*
Y610365D01*
Y608699D01*
X674152D01*
X675818D01*
X674985D01*
Y610365D01*
X675818Y611198D01*
X678318Y606200D02*
X679984D01*
X679151D01*
Y609532D01*
X678318D01*
X682483D02*
X685815Y606200D01*
X684149Y607866D01*
X685815Y609532D01*
X682483Y606200D01*
X689981D02*
X688314D01*
X687481Y607033D01*
Y608699D01*
X688314Y609532D01*
X689981D01*
X690814Y608699D01*
Y607866D01*
X687481D01*
X695812Y611198D02*
Y606200D01*
X693313D01*
X692480Y607033D01*
Y608699D01*
X693313Y609532D01*
X695812D01*
X705809Y607033D02*
Y610365D01*
X704976Y611198D01*
X703310D01*
X702477Y610365D01*
Y607033D01*
X703310Y606200D01*
X704976D01*
X704143Y607866D02*
X705809Y606200D01*
X704976D02*
X705809Y607033D01*
X707475Y606200D02*
X709141D01*
X708308D01*
Y611198D01*
X707475Y610365D01*
X712473Y605367D02*
X713306Y606200D01*
Y607033D01*
X712473D01*
Y606200D01*
X713306D01*
X712473Y605367D01*
X711640Y604534D01*
X721637Y611198D02*
Y607033D01*
X722470Y606200D01*
X724136D01*
X724969Y607033D01*
Y611198D01*
X729968Y606200D02*
X726635D01*
X729968Y609532D01*
Y610365D01*
X729135Y611198D01*
X727468D01*
X726635Y610365D01*
X731634Y606200D02*
Y607033D01*
X732467D01*
Y606200D01*
X731634D01*
X735799Y607033D02*
X736632Y606200D01*
X738298D01*
X739131Y607033D01*
Y610365D01*
X738298Y611198D01*
X736632D01*
X735799Y610365D01*
Y609532D01*
X736632Y608699D01*
X739131D01*
X740797Y611198D02*
X744130D01*
Y610365D01*
X740797Y607033D01*
Y606200D01*
X751627Y610365D02*
Y609532D01*
X750794D01*
X752460D01*
X751627D01*
Y607033D01*
X752460Y606200D01*
X755793D02*
X757459D01*
X758292Y607033D01*
Y608699D01*
X757459Y609532D01*
X755793D01*
X754959Y608699D01*
Y607033D01*
X755793Y606200D01*
X768289Y610365D02*
X767455Y611198D01*
X765789D01*
X764956Y610365D01*
Y607033D01*
X765789Y606200D01*
X767455D01*
X768289Y607033D01*
Y608699D01*
X766622D01*
X769955Y606200D02*
Y611198D01*
X773287Y606200D01*
Y611198D01*
X774953D02*
Y606200D01*
X777452D01*
X778285Y607033D01*
Y610365D01*
X777452Y611198D01*
X774953D01*
X587000Y609532D02*
X588666Y606200D01*
X590332Y609532D01*
X591998Y611198D02*
Y606200D01*
X594498D01*
X595331Y607033D01*
Y607866D01*
X594498Y608699D01*
X591998D01*
X594498D01*
X595331Y609532D01*
Y610365D01*
X594498Y611198D01*
X591998D01*
X587000Y624532D02*
X588666Y621200D01*
X590332Y624532D01*
X591998Y621200D02*
Y624532D01*
X593665Y626198D01*
X595331Y624532D01*
Y621200D01*
Y623699D01*
X591998D01*
X630000Y626198D02*
Y622033D01*
X630833Y621200D01*
X632499D01*
X633332Y622033D01*
Y626198D01*
X634998Y619534D02*
Y624532D01*
X637498D01*
X638331Y623699D01*
Y622033D01*
X637498Y621200D01*
X634998D01*
X643329Y626198D02*
Y621200D01*
X640830D01*
X639997Y622033D01*
Y623699D01*
X640830Y624532D01*
X643329D01*
X645828D02*
X647494D01*
X648327Y623699D01*
Y621200D01*
X645828D01*
X644995Y622033D01*
X645828Y622866D01*
X648327D01*
X650827Y625365D02*
Y624532D01*
X649994D01*
X651660D01*
X650827D01*
Y622033D01*
X651660Y621200D01*
X656658D02*
X654992D01*
X654159Y622033D01*
Y623699D01*
X654992Y624532D01*
X656658D01*
X657491Y623699D01*
Y622866D01*
X654159D01*
X662490Y626198D02*
Y621200D01*
X659990D01*
X659157Y622033D01*
Y623699D01*
X659990Y624532D01*
X662490D01*
X664989Y620367D02*
X665822Y621200D01*
Y622033D01*
X664989D01*
Y621200D01*
X665822D01*
X664989Y620367D01*
X664156Y619534D01*
X674152Y621200D02*
X675818D01*
X674985D01*
Y624532D01*
X674152D01*
X678318Y621200D02*
Y624532D01*
X680817D01*
X681650Y623699D01*
Y621200D01*
X683316Y624532D02*
X684982Y621200D01*
X686648Y624532D01*
X690814Y621200D02*
X689148D01*
X688314Y622033D01*
Y623699D01*
X689148Y624532D01*
X690814D01*
X691647Y623699D01*
Y622866D01*
X688314D01*
X693313Y624532D02*
Y621200D01*
Y622866D01*
X694146Y623699D01*
X694979Y624532D01*
X695812D01*
X699144Y625365D02*
Y624532D01*
X698311D01*
X699977D01*
X699144D01*
Y622033D01*
X699977Y621200D01*
X704976D02*
X703310D01*
X702477Y622033D01*
Y623699D01*
X703310Y624532D01*
X704976D01*
X705809Y623699D01*
Y622866D01*
X702477D01*
X710807Y626198D02*
Y621200D01*
X708308D01*
X707475Y622033D01*
Y623699D01*
X708308Y624532D01*
X710807D01*
X717472Y626198D02*
Y621200D01*
X720804D01*
X725802Y626198D02*
X722470D01*
Y621200D01*
X725802D01*
X722470Y623699D02*
X724136D01*
X727468Y626198D02*
Y621200D01*
X729968D01*
X730801Y622033D01*
Y625365D01*
X729968Y626198D01*
X727468D01*
X737465Y619534D02*
Y624532D01*
X739964D01*
X740797Y623699D01*
Y622033D01*
X739964Y621200D01*
X737465D01*
X743297D02*
X744963D01*
X745796Y622033D01*
Y623699D01*
X744963Y624532D01*
X743297D01*
X742464Y623699D01*
Y622033D01*
X743297Y621200D01*
X747462D02*
X749128D01*
X748295D01*
Y626198D01*
X747462D01*
X752460Y624532D02*
X754127D01*
X754959Y623699D01*
Y621200D01*
X752460D01*
X751627Y622033D01*
X752460Y622866D01*
X754959D01*
X756626Y624532D02*
Y621200D01*
Y622866D01*
X757459Y623699D01*
X758292Y624532D01*
X759125D01*
X761624Y621200D02*
X763290D01*
X762457D01*
Y624532D01*
X761624D01*
X766622Y625365D02*
Y624532D01*
X765789D01*
X767455D01*
X766622D01*
Y622033D01*
X767455Y621200D01*
X769955Y624532D02*
Y622033D01*
X770788Y621200D01*
X773287D01*
Y620367D01*
X772454Y619534D01*
X771621D01*
X773287Y621200D02*
Y624532D01*
X821332Y621200D02*
X818000D01*
X821332Y624532D01*
Y625365D01*
X820499Y626198D01*
X818833D01*
X818000Y625365D01*
X822998Y621200D02*
X826331Y624532D01*
X827997Y621200D02*
X829663D01*
X828830D01*
Y626198D01*
X827997Y625365D01*
X832162D02*
X832995Y626198D01*
X834661D01*
X835494Y625365D01*
Y622033D01*
X834661Y621200D01*
X832995D01*
X832162Y622033D01*
Y625365D01*
X837160Y621200D02*
X840493Y624532D01*
X845491Y621200D02*
X842159D01*
X845491Y624532D01*
Y625365D01*
X844658Y626198D01*
X842992D01*
X842159Y625365D01*
X847157D02*
X847990Y626198D01*
X849656D01*
X850490Y625365D01*
Y622033D01*
X849656Y621200D01*
X847990D01*
X847157Y622033D01*
Y625365D01*
X852156Y621200D02*
X853822D01*
X852989D01*
Y626198D01*
X852156Y625365D01*
X859653Y626198D02*
X857987Y625365D01*
X856321Y623699D01*
Y622033D01*
X857154Y621200D01*
X858820D01*
X859653Y622033D01*
Y622866D01*
X858820Y623699D01*
X856321D01*
X884000Y626198D02*
Y621200D01*
X886499D01*
X887332Y622033D01*
Y625365D01*
X886499Y626198D01*
X884000D01*
X892331Y625365D02*
X891498Y626198D01*
X889831D01*
X888998Y625365D01*
Y622033D01*
X889831Y621200D01*
X891498D01*
X892331Y622033D01*
X893997Y621200D02*
Y626198D01*
X897329Y621200D01*
Y626198D01*
X884000Y636200D02*
Y641198D01*
X886499D01*
X887332Y640365D01*
Y638699D01*
X886499Y637866D01*
X884000D01*
X892331Y641198D02*
X890664D01*
X891498D01*
Y637033D01*
X890664Y636200D01*
X889831D01*
X888998Y637033D01*
X893997Y641198D02*
Y636200D01*
X896496D01*
X897329Y637033D01*
Y637866D01*
X896496Y638699D01*
X893997D01*
X896496D01*
X897329Y639532D01*
Y640365D01*
X896496Y641198D01*
X893997D01*
X818000Y635200D02*
X819666D01*
X818833D01*
Y640198D01*
X818000Y639365D01*
X825498Y635200D02*
X822165D01*
X825498Y638532D01*
Y639365D01*
X824664Y640198D01*
X822998D01*
X822165Y639365D01*
X827164Y635200D02*
X830496Y638532D01*
X832162Y635200D02*
X833828D01*
X832995D01*
Y640198D01*
X832162Y639365D01*
X836327Y635200D02*
X837994D01*
X837160D01*
Y640198D01*
X836327Y639365D01*
X840493Y635200D02*
X843825Y638532D01*
X848823Y635200D02*
X845491D01*
X848823Y638532D01*
Y639365D01*
X847990Y640198D01*
X846324D01*
X845491Y639365D01*
X850490D02*
X851322Y640198D01*
X852989D01*
X853822Y639365D01*
Y636033D01*
X852989Y635200D01*
X851322D01*
X850490Y636033D01*
Y639365D01*
X855488Y635200D02*
X857154D01*
X856321D01*
Y640198D01*
X855488Y639365D01*
X862985Y640198D02*
X859653D01*
Y637699D01*
X861319Y638532D01*
X862152D01*
X862985Y637699D01*
Y636033D01*
X862152Y635200D01*
X860486D01*
X859653Y636033D01*
X630000Y636200D02*
Y639532D01*
X631666Y641198D01*
X633332Y639532D01*
Y636200D01*
Y638699D01*
X630000D01*
X638331Y641198D02*
Y636200D01*
X635831D01*
X634998Y637033D01*
Y638699D01*
X635831Y639532D01*
X638331D01*
X643329Y641198D02*
Y636200D01*
X640830D01*
X639997Y637033D01*
Y638699D01*
X640830Y639532D01*
X643329D01*
X647494Y636200D02*
X645828D01*
X644995Y637033D01*
Y638699D01*
X645828Y639532D01*
X647494D01*
X648327Y638699D01*
Y637866D01*
X644995D01*
X653326Y641198D02*
Y636200D01*
X650827D01*
X649994Y637033D01*
Y638699D01*
X650827Y639532D01*
X653326D01*
X663322D02*
X660823D01*
X659990Y638699D01*
Y637033D01*
X660823Y636200D01*
X663322D01*
X665822D02*
X667488D01*
X668321Y637033D01*
Y638699D01*
X667488Y639532D01*
X665822D01*
X664989Y638699D01*
Y637033D01*
X665822Y636200D01*
X669987D02*
Y639532D01*
X672486D01*
X673319Y638699D01*
Y636200D01*
X674985D02*
Y639532D01*
X677485D01*
X678318Y638699D01*
Y636200D01*
X682483D02*
X680817D01*
X679984Y637033D01*
Y638699D01*
X680817Y639532D01*
X682483D01*
X683316Y638699D01*
Y637866D01*
X679984D01*
X688314Y639532D02*
X685815D01*
X684982Y638699D01*
Y637033D01*
X685815Y636200D01*
X688314D01*
X690814Y640365D02*
Y639532D01*
X689981D01*
X691647D01*
X690814D01*
Y637033D01*
X691647Y636200D01*
X694146D02*
X695812D01*
X694979D01*
Y639532D01*
X694146D01*
X698311D02*
X699977Y636200D01*
X701644Y639532D01*
X703310Y636200D02*
X704976D01*
X704143D01*
Y639532D01*
X703310D01*
X708308Y640365D02*
Y639532D01*
X707475D01*
X709141D01*
X708308D01*
Y637033D01*
X709141Y636200D01*
X711640Y639532D02*
Y637033D01*
X712473Y636200D01*
X714972D01*
Y635367D01*
X714139Y634534D01*
X713306D01*
X714972Y636200D02*
Y639532D01*
X722470D02*
X724136D01*
X724969Y638699D01*
Y636200D01*
X722470D01*
X721637Y637033D01*
X722470Y637866D01*
X724969D01*
X726635Y636200D02*
Y639532D01*
X729135D01*
X729968Y638699D01*
Y636200D01*
X734966Y641198D02*
Y636200D01*
X732467D01*
X731634Y637033D01*
Y638699D01*
X732467Y639532D01*
X734966D01*
X741631Y636200D02*
Y639532D01*
X743297Y641198D01*
X744963Y639532D01*
Y636200D01*
Y638699D01*
X741631D01*
X747462Y640365D02*
Y639532D01*
X746629D01*
X748295D01*
X747462D01*
Y637033D01*
X748295Y636200D01*
X750794D02*
Y639532D01*
X751627D01*
X752460Y638699D01*
Y636200D01*
Y638699D01*
X753293Y639532D01*
X754127Y638699D01*
Y636200D01*
X758292D02*
X756626D01*
X755793Y637033D01*
Y638699D01*
X756626Y639532D01*
X758292D01*
X759125Y638699D01*
Y637866D01*
X755793D01*
X760791Y636200D02*
X762457D01*
X761624D01*
Y641198D01*
X760791D01*
X769955Y634534D02*
Y639532D01*
X772454D01*
X773287Y638699D01*
Y637033D01*
X772454Y636200D01*
X769955D01*
X774953Y639532D02*
Y636200D01*
Y637866D01*
X775786Y638699D01*
X776619Y639532D01*
X777452D01*
X780785Y636200D02*
X782451D01*
X783284Y637033D01*
Y638699D01*
X782451Y639532D01*
X780785D01*
X779951Y638699D01*
Y637033D01*
X780785Y636200D01*
X786616Y634534D02*
X787449D01*
X788282Y635367D01*
Y639532D01*
X785783D01*
X784950Y638699D01*
Y637033D01*
X785783Y636200D01*
X788282D01*
X587000Y639532D02*
X588666Y636200D01*
X590332Y639532D01*
X595331Y636200D02*
X591998D01*
X595331Y639532D01*
Y640365D01*
X594498Y641198D01*
X592831D01*
X591998Y640365D01*
X501000Y-113802D02*
X502000Y-112802D01*
X503999D01*
X504999Y-113802D01*
Y-114801D01*
X503999Y-115801D01*
X502999D01*
X503999D01*
X504999Y-116801D01*
Y-117800D01*
X503999Y-118800D01*
X502000D01*
X501000Y-117800D01*
X510997Y-118800D02*
X506998D01*
X510997Y-114801D01*
Y-113802D01*
X509997Y-112802D01*
X507998D01*
X506998Y-113802D01*
X512996D02*
X513996Y-112802D01*
X515995D01*
X516995Y-113802D01*
Y-117800D01*
X515995Y-118800D01*
X513996D01*
X512996Y-117800D01*
Y-113802D01*
X518994Y-115801D02*
X522993D01*
X524992Y-113802D02*
X525992Y-112802D01*
X527991D01*
X528991Y-113802D01*
Y-117800D01*
X527991Y-118800D01*
X525992D01*
X524992Y-117800D01*
Y-113802D01*
X530990D02*
X531990Y-112802D01*
X533989D01*
X534989Y-113802D01*
Y-117800D01*
X533989Y-118800D01*
X531990D01*
X530990Y-117800D01*
Y-113802D01*
X536988D02*
X537988Y-112802D01*
X539987D01*
X540987Y-113802D01*
Y-117800D01*
X539987Y-118800D01*
X537988D01*
X536988Y-117800D01*
Y-113802D01*
X546985Y-112802D02*
X542986D01*
Y-115801D01*
X544986Y-114801D01*
X545986D01*
X546985Y-115801D01*
Y-117800D01*
X545986Y-118800D01*
X543986D01*
X542986Y-117800D01*
X548984Y-113802D02*
X549984Y-112802D01*
X551983D01*
X552983Y-113802D01*
Y-117800D01*
X551983Y-118800D01*
X549984D01*
X548984Y-117800D01*
Y-113802D01*
X889000Y657198D02*
Y651200D01*
X891999D01*
X892999Y652200D01*
Y653199D01*
X891999Y654199D01*
X889000D01*
X891999D01*
X892999Y655199D01*
Y656198D01*
X891999Y657198D01*
X889000D01*
X894998D02*
Y656198D01*
X896997Y654199D01*
X898997Y656198D01*
Y657198D01*
X896997Y654199D02*
Y651200D01*
X826000Y657198D02*
Y651200D01*
X828999D01*
X829999Y652200D01*
Y656198D01*
X828999Y657198D01*
X826000D01*
X831998Y651200D02*
Y655199D01*
X833997Y657198D01*
X835997Y655199D01*
Y651200D01*
Y654199D01*
X831998D01*
X837996Y657198D02*
X841995D01*
X839995D01*
Y651200D01*
X847993Y657198D02*
X843994D01*
Y651200D01*
X847993D01*
X843994Y654199D02*
X845994D01*
X630000Y657198D02*
Y651200D01*
X632999D01*
X633999Y652200D01*
Y656198D01*
X632999Y657198D01*
X630000D01*
X639997D02*
X635998D01*
Y651200D01*
X639997D01*
X635998Y654199D02*
X637997D01*
X645995Y656198D02*
X644995Y657198D01*
X642996D01*
X641996Y656198D01*
Y655199D01*
X642996Y654199D01*
X644995D01*
X645995Y653199D01*
Y652200D01*
X644995Y651200D01*
X642996D01*
X641996Y652200D01*
X651993Y656198D02*
X650993Y657198D01*
X648994D01*
X647994Y656198D01*
Y652200D01*
X648994Y651200D01*
X650993D01*
X651993Y652200D01*
X653992Y651200D02*
Y657198D01*
X656991D01*
X657991Y656198D01*
Y654199D01*
X656991Y653199D01*
X653992D01*
X655992D02*
X657991Y651200D01*
X659990Y657198D02*
X661990D01*
X660990D01*
Y651200D01*
X659990D01*
X661990D01*
X664989D02*
Y657198D01*
X667988D01*
X668987Y656198D01*
Y654199D01*
X667988Y653199D01*
X664989D01*
X670987Y657198D02*
X674986D01*
X672986D01*
Y651200D01*
X676985Y657198D02*
X678984D01*
X677985D01*
Y651200D01*
X676985D01*
X678984D01*
X684982Y657198D02*
X682983D01*
X681983Y656198D01*
Y652200D01*
X682983Y651200D01*
X684982D01*
X685982Y652200D01*
Y656198D01*
X684982Y657198D01*
X687981Y651200D02*
Y657198D01*
X691980Y651200D01*
Y657198D01*
X587000Y651200D02*
Y657198D01*
X589999D01*
X590999Y656198D01*
Y654199D01*
X589999Y653199D01*
X587000D01*
X588999D02*
X590999Y651200D01*
X596997Y657198D02*
X592998D01*
Y651200D01*
X596997D01*
X592998Y654199D02*
X594997D01*
X598996Y657198D02*
Y653199D01*
X600995Y651200D01*
X602995Y653199D01*
Y657198D01*
X728000Y668200D02*
Y676197D01*
X731999D01*
X733332Y674864D01*
Y672199D01*
X731999Y670866D01*
X728000D01*
X730666D02*
X733332Y668200D01*
X741329Y676197D02*
X735997D01*
Y668200D01*
X741329D01*
X735997Y672199D02*
X738663D01*
X743995Y676197D02*
Y670866D01*
X746661Y668200D01*
X749326Y670866D01*
Y676197D01*
X751992D02*
X754658D01*
X753325D01*
Y668200D01*
X751992D01*
X754658D01*
X763988Y674864D02*
X762655Y676197D01*
X759990D01*
X758657Y674864D01*
Y673532D01*
X759990Y672199D01*
X762655D01*
X763988Y670866D01*
Y669533D01*
X762655Y668200D01*
X759990D01*
X758657Y669533D01*
X766654Y676197D02*
X769320D01*
X767987D01*
Y668200D01*
X766654D01*
X769320D01*
X777317Y676197D02*
X774652D01*
X773319Y674864D01*
Y669533D01*
X774652Y668200D01*
X777317D01*
X778650Y669533D01*
Y674864D01*
X777317Y676197D01*
X781316Y668200D02*
Y676197D01*
X786648Y668200D01*
Y676197D01*
X669000Y-82803D02*
Y-90800D01*
X672999D01*
X674332Y-89467D01*
Y-88134D01*
X672999Y-86801D01*
X669000D01*
X672999D01*
X674332Y-85468D01*
Y-84136D01*
X672999Y-82803D01*
X669000D01*
X676997Y-90800D02*
Y-82803D01*
X679663Y-85468D01*
X682329Y-82803D01*
Y-90800D01*
X684995Y-82803D02*
Y-90800D01*
X688994D01*
X690326Y-89467D01*
Y-84136D01*
X688994Y-82803D01*
X684995D01*
X692992Y-86801D02*
X698324D01*
X700990Y-84136D02*
X702322Y-82803D01*
X704988D01*
X706321Y-84136D01*
Y-85468D01*
X704988Y-86801D01*
X703655D01*
X704988D01*
X706321Y-88134D01*
Y-89467D01*
X704988Y-90800D01*
X702322D01*
X700990Y-89467D01*
X708987Y-84136D02*
X710320Y-82803D01*
X712986D01*
X714319Y-84136D01*
Y-89467D01*
X712986Y-90800D01*
X710320D01*
X708987Y-89467D01*
Y-84136D01*
X716985D02*
X718317Y-82803D01*
X720983D01*
X722316Y-84136D01*
Y-89467D01*
X720983Y-90800D01*
X718317D01*
X716985Y-89467D01*
Y-84136D01*
X724982Y-86801D02*
X730313D01*
X738311Y-82803D02*
X732979D01*
Y-90800D01*
X738311D01*
X732979Y-86801D02*
X735645D01*
X740977Y-85468D02*
X743643Y-90800D01*
X746308Y-85468D01*
X750307D02*
X752973D01*
X754306Y-86801D01*
Y-90800D01*
X750307D01*
X748974Y-89467D01*
X750307Y-88134D01*
X754306D01*
X756972Y-90800D02*
X759637D01*
X758304D01*
Y-82803D01*
X756972D01*
X863717Y-84992D02*
X866382Y-90324D01*
X869048Y-84992D01*
X871714Y-82326D02*
Y-90324D01*
X875713D01*
X877046Y-88991D01*
Y-87658D01*
X875713Y-86325D01*
X871714D01*
X875713D01*
X877046Y-84992D01*
Y-83659D01*
X875713Y-82326D01*
X871714D01*
X669000Y-58803D02*
Y-66800D01*
X672999D01*
X674332Y-65467D01*
Y-64134D01*
X672999Y-62801D01*
X669000D01*
X672999D01*
X674332Y-61468D01*
Y-60136D01*
X672999Y-58803D01*
X669000D01*
X676997Y-66800D02*
Y-58803D01*
X679663Y-61468D01*
X682329Y-58803D01*
Y-66800D01*
X684995Y-58803D02*
Y-66800D01*
X688994D01*
X690326Y-65467D01*
Y-60136D01*
X688994Y-58803D01*
X684995D01*
X692992Y-62801D02*
X698324D01*
X700990Y-60136D02*
X702322Y-58803D01*
X704988D01*
X706321Y-60136D01*
Y-61468D01*
X704988Y-62801D01*
X703655D01*
X704988D01*
X706321Y-64134D01*
Y-65467D01*
X704988Y-66800D01*
X702322D01*
X700990Y-65467D01*
X708987Y-60136D02*
X710320Y-58803D01*
X712986D01*
X714319Y-60136D01*
Y-65467D01*
X712986Y-66800D01*
X710320D01*
X708987Y-65467D01*
Y-60136D01*
X716985D02*
X718317Y-58803D01*
X720983D01*
X722316Y-60136D01*
Y-65467D01*
X720983Y-66800D01*
X718317D01*
X716985Y-65467D01*
Y-60136D01*
X724982Y-62801D02*
X730313D01*
X738311Y-58803D02*
X732979D01*
Y-66800D01*
X738311D01*
X732979Y-62801D02*
X735645D01*
X740977Y-61468D02*
X743643Y-66800D01*
X746308Y-61468D01*
X750307D02*
X752973D01*
X754306Y-62801D01*
Y-66800D01*
X750307D01*
X748974Y-65467D01*
X750307Y-64134D01*
X754306D01*
X756972Y-66800D02*
X759637D01*
X758304D01*
Y-58803D01*
X756972D01*
X376000Y-92802D02*
Y-100800D01*
Y-92802D02*
X379428D01*
X380570Y-93183D01*
X380951Y-93563D01*
X381332Y-94325D01*
Y-95087D01*
X380951Y-95849D01*
X380570Y-96229D01*
X379428Y-96610D01*
X376000D01*
X378666D02*
X381332Y-100800D01*
X383884Y-92802D02*
X384265Y-93183D01*
X384646Y-92802D01*
X384265Y-92421D01*
X383884Y-92802D01*
X384265Y-95468D02*
Y-100800D01*
X390625Y-95468D02*
Y-101562D01*
X390245Y-102704D01*
X389864Y-103085D01*
X389102Y-103466D01*
X387959D01*
X387198Y-103085D01*
X390625Y-96610D02*
X389864Y-95849D01*
X389102Y-95468D01*
X387959D01*
X387198Y-95849D01*
X386436Y-96610D01*
X386055Y-97753D01*
Y-98515D01*
X386436Y-99657D01*
X387198Y-100419D01*
X387959Y-100800D01*
X389102D01*
X389864Y-100419D01*
X390625Y-99657D01*
X397329Y-95468D02*
Y-100800D01*
Y-96610D02*
X396567Y-95849D01*
X395805Y-95468D01*
X394663D01*
X393901Y-95849D01*
X393139Y-96610D01*
X392758Y-97753D01*
Y-98515D01*
X393139Y-99657D01*
X393901Y-100419D01*
X394663Y-100800D01*
X395805D01*
X396567Y-100419D01*
X397329Y-99657D01*
X404032Y-92802D02*
Y-100800D01*
Y-96610D02*
X403270Y-95849D01*
X402509Y-95468D01*
X401366D01*
X400604Y-95849D01*
X399843Y-96610D01*
X399462Y-97753D01*
Y-98515D01*
X399843Y-99657D01*
X400604Y-100419D01*
X401366Y-100800D01*
X402509D01*
X403270Y-100419D01*
X404032Y-99657D01*
X408069Y-95468D02*
X407308Y-95849D01*
X406546Y-96610D01*
X406165Y-97753D01*
Y-98515D01*
X406546Y-99657D01*
X407308Y-100419D01*
X408069Y-100800D01*
X409212D01*
X409974Y-100419D01*
X410735Y-99657D01*
X411116Y-98515D01*
Y-97753D01*
X410735Y-96610D01*
X409974Y-95849D01*
X409212Y-95468D01*
X408069D01*
X350000Y-93801D02*
Y-100800D01*
Y-93801D02*
X354332D01*
X350000Y-97134D02*
X352666D01*
X356799Y-96134D02*
X356132Y-96468D01*
X355466Y-97134D01*
X355132Y-98134D01*
Y-98800D01*
X355466Y-99800D01*
X356132Y-100467D01*
X356799Y-100800D01*
X357798D01*
X358465Y-100467D01*
X359131Y-99800D01*
X359465Y-98800D01*
Y-98134D01*
X359131Y-97134D01*
X358465Y-96468D01*
X357798Y-96134D01*
X356799D01*
X360998D02*
Y-100800D01*
Y-98134D02*
X361331Y-97134D01*
X361997Y-96468D01*
X362664Y-96134D01*
X363664D01*
X520000Y-59802D02*
Y-66800D01*
X523499D01*
X524665Y-65634D01*
Y-60969D01*
X523499Y-59802D01*
X520000D01*
X531663Y-60969D02*
X530497Y-59802D01*
X528164D01*
X526998Y-60969D01*
Y-65634D01*
X528164Y-66800D01*
X530497D01*
X531663Y-65634D01*
X533995Y-66800D02*
Y-59802D01*
X538661Y-66800D01*
Y-59802D01*
X503000Y-84969D02*
X504166Y-83802D01*
X506499D01*
X507665Y-84969D01*
Y-86135D01*
X506499Y-87301D01*
X505333D01*
X506499D01*
X507665Y-88467D01*
Y-89634D01*
X506499Y-90800D01*
X504166D01*
X503000Y-89634D01*
X509998Y-90800D02*
X514663Y-86135D01*
X516995Y-84969D02*
X518162Y-83802D01*
X520494D01*
X521661Y-84969D01*
Y-86135D01*
X520494Y-87301D01*
X519328D01*
X520494D01*
X521661Y-88467D01*
Y-89634D01*
X520494Y-90800D01*
X518162D01*
X516995Y-89634D01*
X523993Y-90800D02*
X526326D01*
X525160D01*
Y-83802D01*
X523993Y-84969D01*
X529825Y-90800D02*
X534490Y-86135D01*
X541488Y-90800D02*
X536822D01*
X541488Y-86135D01*
Y-84969D01*
X540321Y-83802D01*
X537989D01*
X536822Y-84969D01*
X543820D02*
X544986Y-83802D01*
X547319D01*
X548485Y-84969D01*
Y-89634D01*
X547319Y-90800D01*
X544986D01*
X543820Y-89634D01*
Y-84969D01*
X550818Y-90800D02*
X553151D01*
X551984D01*
Y-83802D01*
X550818Y-84969D01*
X561314Y-83802D02*
X558982Y-84969D01*
X556649Y-87301D01*
Y-89634D01*
X557816Y-90800D01*
X560148D01*
X561314Y-89634D01*
Y-88467D01*
X560148Y-87301D01*
X556649D01*
X634000Y-111802D02*
Y-117800D01*
X636999D01*
X637999Y-116800D01*
Y-115801D01*
X636999Y-114801D01*
X634000D01*
X636999D01*
X637999Y-113801D01*
Y-112802D01*
X636999Y-111802D01*
X634000D01*
X639998Y-117800D02*
Y-111802D01*
X641997Y-113801D01*
X643997Y-111802D01*
Y-117800D01*
X645996Y-111802D02*
Y-117800D01*
X648995D01*
X649995Y-116800D01*
Y-112802D01*
X648995Y-111802D01*
X645996D01*
X651994Y-114801D02*
X655993D01*
X657992Y-112802D02*
X658992Y-111802D01*
X660991D01*
X661991Y-112802D01*
Y-113801D01*
X660991Y-114801D01*
X659992D01*
X660991D01*
X661991Y-115801D01*
Y-116800D01*
X660991Y-117800D01*
X658992D01*
X657992Y-116800D01*
X663990Y-112802D02*
X664990Y-111802D01*
X666989D01*
X667989Y-112802D01*
Y-116800D01*
X666989Y-117800D01*
X664990D01*
X663990Y-116800D01*
Y-112802D01*
X669988D02*
X670988Y-111802D01*
X672987D01*
X673987Y-112802D01*
Y-116800D01*
X672987Y-117800D01*
X670988D01*
X669988Y-116800D01*
Y-112802D01*
X675986Y-114801D02*
X679985D01*
X685983Y-111802D02*
X681985D01*
Y-117800D01*
X685983D01*
X681985Y-114801D02*
X683984D01*
X687983Y-113801D02*
X689982Y-117800D01*
X691981Y-113801D01*
X694980D02*
X696980D01*
X697979Y-114801D01*
Y-117800D01*
X694980D01*
X693981Y-116800D01*
X694980Y-115801D01*
X697979D01*
X699979Y-117800D02*
X701978D01*
X700978D01*
Y-111802D01*
X699979D01*
X704977Y-117800D02*
Y-116800D01*
X705977D01*
Y-117800D01*
X704977D01*
X709975D02*
Y-111802D01*
X712974D01*
X713974Y-112802D01*
Y-114801D01*
X712974Y-115801D01*
X709975D01*
X719972Y-113801D02*
X716973D01*
X715974Y-114801D01*
Y-116800D01*
X716973Y-117800D01*
X719972D01*
X721972Y-111802D02*
Y-117800D01*
X724971D01*
X725970Y-116800D01*
Y-115801D01*
Y-114801D01*
X724971Y-113801D01*
X721972D01*
X727970Y-111802D02*
Y-117800D01*
X730969D01*
X731968Y-116800D01*
Y-112802D01*
X730969Y-111802D01*
X727970D01*
X734967Y-117800D02*
X736967D01*
X737966Y-116800D01*
Y-114801D01*
X736967Y-113801D01*
X734967D01*
X733968Y-114801D01*
Y-116800D01*
X734967Y-117800D01*
X743964Y-113801D02*
X740965D01*
X739966Y-114801D01*
Y-116800D01*
X740965Y-117800D01*
X743964D01*
D50*
X897171Y119948D02*
Y129448D01*
X805171Y119948D02*
X897171D01*
X805171D02*
Y129448D01*
X897171D01*
X805171Y226200D02*
Y235700D01*
X897171D01*
Y226200D02*
Y235700D01*
X805171Y226200D02*
X897171D01*
D51*
X832504Y126647D02*
Y122648D01*
X831171Y126647D02*
X833837D01*
X835265Y125314D02*
X834884Y125123D01*
X834503Y124742D01*
X834313Y124171D01*
Y123790D01*
X834503Y123219D01*
X834884Y122838D01*
X835265Y122648D01*
X835837D01*
X836217Y122838D01*
X836598Y123219D01*
X836789Y123790D01*
Y124171D01*
X836598Y124742D01*
X836217Y125123D01*
X835837Y125314D01*
X835265D01*
X837665D02*
Y121315D01*
Y124742D02*
X838046Y125123D01*
X838426Y125314D01*
X838998D01*
X839379Y125123D01*
X839760Y124742D01*
X839950Y124171D01*
Y123790D01*
X839760Y123219D01*
X839379Y122838D01*
X838998Y122648D01*
X838426D01*
X838046Y122838D01*
X837665Y123219D01*
X843949Y124552D02*
X845663D01*
X846234Y124742D01*
X846425Y124933D01*
X846615Y125314D01*
Y125885D01*
X846425Y126266D01*
X846234Y126456D01*
X845663Y126647D01*
X843949D01*
Y122648D01*
X849796Y125314D02*
Y122648D01*
Y124742D02*
X849415Y125123D01*
X849034Y125314D01*
X848462D01*
X848082Y125123D01*
X847701Y124742D01*
X847510Y124171D01*
Y123790D01*
X847701Y123219D01*
X848082Y122838D01*
X848462Y122648D01*
X849034D01*
X849415Y122838D01*
X849796Y123219D01*
X852957Y124742D02*
X852766Y125123D01*
X852195Y125314D01*
X851624D01*
X851052Y125123D01*
X850862Y124742D01*
X851052Y124362D01*
X851433Y124171D01*
X852385Y123981D01*
X852766Y123790D01*
X852957Y123409D01*
Y123219D01*
X852766Y122838D01*
X852195Y122648D01*
X851624D01*
X851052Y122838D01*
X850862Y123219D01*
X854366Y126647D02*
Y123409D01*
X854556Y122838D01*
X854937Y122648D01*
X855318D01*
X853795Y125314D02*
X855128D01*
X855889Y124171D02*
X858175D01*
Y124552D01*
X857984Y124933D01*
X857794Y125123D01*
X857413Y125314D01*
X856842D01*
X856461Y125123D01*
X856080Y124742D01*
X855889Y124171D01*
Y123790D01*
X856080Y123219D01*
X856461Y122838D01*
X856842Y122648D01*
X857413D01*
X857794Y122838D01*
X858175Y123219D01*
X831171Y232899D02*
Y228900D01*
Y232899D02*
X832885D01*
X833456Y232709D01*
X833647Y232518D01*
X833837Y232137D01*
Y231756D01*
X833647Y231376D01*
X833456Y231185D01*
X832885Y230995D01*
X831171D02*
X832885D01*
X833456Y230804D01*
X833647Y230614D01*
X833837Y230233D01*
Y229662D01*
X833647Y229281D01*
X833456Y229090D01*
X832885Y228900D01*
X831171D01*
X835684Y231566D02*
X835303Y231376D01*
X834923Y230995D01*
X834732Y230423D01*
Y230043D01*
X834923Y229471D01*
X835303Y229090D01*
X835684Y228900D01*
X836255D01*
X836636Y229090D01*
X837017Y229471D01*
X837208Y230043D01*
Y230423D01*
X837017Y230995D01*
X836636Y231376D01*
X836255Y231566D01*
X835684D01*
X840369D02*
Y228900D01*
Y230995D02*
X839988Y231376D01*
X839607Y231566D01*
X839036D01*
X838655Y231376D01*
X838274Y230995D01*
X838084Y230423D01*
Y230043D01*
X838274Y229471D01*
X838655Y229090D01*
X839036Y228900D01*
X839607D01*
X839988Y229090D01*
X840369Y229471D01*
X841435Y231566D02*
Y228900D01*
Y230423D02*
X841626Y230995D01*
X842007Y231376D01*
X842388Y231566D01*
X842959D01*
X845606Y232899D02*
Y228900D01*
Y230995D02*
X845225Y231376D01*
X844844Y231566D01*
X844273D01*
X843892Y231376D01*
X843511Y230995D01*
X843321Y230423D01*
Y230043D01*
X843511Y229471D01*
X843892Y229090D01*
X844273Y228900D01*
X844844D01*
X845225Y229090D01*
X845606Y229471D01*
X850957Y232899D02*
X850576Y232709D01*
X850195Y232328D01*
X850005Y231947D01*
X849815Y231376D01*
Y230423D01*
X850005Y229852D01*
X850195Y229471D01*
X850576Y229090D01*
X850957Y228900D01*
X851719D01*
X852100Y229090D01*
X852481Y229471D01*
X852671Y229852D01*
X852861Y230423D01*
Y231376D01*
X852671Y231947D01*
X852481Y232328D01*
X852100Y232709D01*
X851719Y232899D01*
X850957D01*
X853795Y231566D02*
Y229662D01*
X853985Y229090D01*
X854366Y228900D01*
X854937D01*
X855318Y229090D01*
X855889Y229662D01*
Y231566D02*
Y228900D01*
X857508Y232899D02*
Y229662D01*
X857699Y229090D01*
X858079Y228900D01*
X858460D01*
X856937Y231566D02*
X858270D01*
X859032Y232899D02*
Y228900D01*
X860250Y232899D02*
X860441Y232709D01*
X860631Y232899D01*
X860441Y233090D01*
X860250Y232899D01*
X860441Y231566D02*
Y228900D01*
X861336Y231566D02*
Y228900D01*
Y230804D02*
X861907Y231376D01*
X862288Y231566D01*
X862859D01*
X863240Y231376D01*
X863431Y230804D01*
Y228900D01*
X864478Y230423D02*
X866763D01*
Y230804D01*
X866573Y231185D01*
X866382Y231376D01*
X866002Y231566D01*
X865430D01*
X865049Y231376D01*
X864668Y230995D01*
X864478Y230423D01*
Y230043D01*
X864668Y229471D01*
X865049Y229090D01*
X865430Y228900D01*
X866002D01*
X866382Y229090D01*
X866763Y229471D01*
X343371Y-60728D02*
G03*
X343371Y-60728I-1900J0D01*
G01*
X343771D02*
G03*
X343771Y-60728I-2300J0D01*
G01*
X344171D02*
G03*
X344171Y-60728I-2700J0D01*
G01*
X344571D02*
G03*
X344571Y-60728I-3100J0D01*
G01*
X462471Y-69728D02*
G03*
X462471Y-69728I-12400J0D01*
G01*
X455971D02*
G03*
X455971Y-69728I-6000J0D01*
G01*
X415971Y-77028D02*
G03*
X418971Y-76928I-92J47813D01*
G01*
D02*
G03*
X422371Y-76228I-1420J15504D01*
G01*
D02*
G03*
X424271Y-75028I-2138J5489D01*
G01*
D02*
G03*
X425471Y-73228I-4771J4481D01*
G01*
D02*
G03*
X426171Y-70828I-9081J3951D01*
G01*
X426171D02*
G03*
X425971Y-68028I-12278J530D01*
G01*
X425971D02*
G03*
X425271Y-65928I-8147J-1549D01*
G01*
D02*
G03*
X423571Y-63728I-6248J-3071D01*
G01*
D02*
G03*
X421071Y-62728I-2788J-3344D01*
G01*
Y-62728D02*
G03*
X415771Y-62528I-4939J-60548D01*
G01*
X421571Y-81778D02*
G03*
X426171Y-81128I-110J17380D01*
G01*
Y-81128D02*
G03*
X428171Y-80128I-4821J12141D01*
G01*
Y-80128D02*
G03*
X430371Y-78428I-11510J17169D01*
G01*
D02*
G03*
X432071Y-75928I-7834J7155D01*
G01*
X432071D02*
G03*
X432971Y-72828I-10301J4671D01*
G01*
X432971D02*
G03*
X433171Y-70028I-19572J2805D01*
G01*
X433171D02*
G03*
X433071Y-67728I-23001J152D01*
G01*
X433071D02*
G03*
X431871Y-63928I-12908J-1987D01*
G01*
D02*
G03*
X429871Y-61328I-16150J-10354D01*
G01*
Y-61328D02*
G03*
X425471Y-58628I-7709J-7627D01*
G01*
Y-58628D02*
G03*
X421271Y-57928I-4200J-12252D01*
G01*
X371471Y-80828D02*
G03*
X373471Y-80228I-168364J564846D01*
G01*
X367771Y-81908D02*
G03*
X371471Y-80828I-3584J19159D01*
G01*
X363071Y-82069D02*
G03*
X367771Y-81908I845J44213D01*
G01*
X357771Y-81328D02*
G03*
X363071Y-82069I6434J26726D01*
G01*
X354371Y-79528D02*
G03*
X357771Y-81328I5831J6903D01*
G01*
X352571Y-78128D02*
G03*
X354371Y-79528I9198J9969D01*
G01*
X349471Y-72328D02*
G03*
X352571Y-78128I11760J2557D01*
G01*
X349371Y-70028D02*
G03*
X349471Y-72328I24430J-90D01*
G01*
X350071Y-65328D02*
G03*
X349371Y-70028I22626J-5772D01*
G01*
X352271Y-61528D02*
G03*
X350071Y-65328I8644J-7541D01*
G01*
X357071Y-58228D02*
G03*
X352271Y-61528I3729J-10565D01*
G01*
X363571Y-57328D02*
G03*
X357071Y-58228I50J-24286D01*
G01*
X369671Y-58128D02*
G03*
X363571Y-57328I-6247J-23979D01*
G01*
X364871Y-76628D02*
G03*
X367671Y-76028I-2812J19954D01*
G01*
X361271Y-75928D02*
G03*
X364871Y-76628I3448J8125D01*
G01*
X359571Y-75028D02*
G03*
X361271Y-75928I7067J11293D01*
G01*
X356971Y-71128D02*
G03*
X359571Y-75028I5525J867D01*
G01*
X356971Y-69228D02*
G03*
X356971Y-71128I5886J-950D01*
G01*
X365471Y-62428D02*
G03*
X360471Y-63528I-111J-11411D01*
G01*
D02*
G03*
X356971Y-69228I3181J-5878D01*
G01*
X371371Y-63628D02*
G03*
X368571Y-62728I-9612J-25099D01*
G01*
D02*
G03*
X366771Y-62428I-2604J-10073D01*
G01*
Y-62428D02*
G03*
X365471Y-62428I-650J-9558D01*
G01*
X321871Y-62428D02*
G03*
X317671Y-62428I-2100J-99539D01*
G01*
X323271Y-62928D02*
G03*
X321871Y-62428I-1594J-2253D01*
G01*
X324271Y-63928D02*
G03*
X323271Y-62928I-2637J-1637D01*
G01*
X324671Y-65828D02*
G03*
X324271Y-63928I-3152J329D01*
G01*
X323171Y-67728D02*
G03*
X324671Y-65828I-945J2288D01*
G01*
X320671Y-68228D02*
G03*
X323171Y-67728I186J5573D01*
G01*
X324371Y-77028D02*
G03*
X326271Y-81428I63053J24617D01*
G01*
X324371Y-77028D02*
G03*
X322371Y-73828I-11094J-4709D01*
G01*
D02*
G03*
X321171Y-72728I-4025J-3186D01*
G01*
X334371Y-81428D02*
G03*
X332471Y-76628I-41800J-13770D01*
G01*
D02*
G03*
X330471Y-73228I-29344J-14973D01*
G01*
D02*
G03*
X328771Y-71628I-3709J-2237D01*
G01*
X324971Y-72028D02*
G03*
X332071Y-64628I-150J7250D01*
G01*
Y-64528D02*
G03*
X325371Y-57928I-6650J-50D01*
G01*
X343371Y-60728D02*
G03*
X343371Y-60728I-1900J0D01*
G01*
X343771D02*
G03*
X343771Y-60728I-2300J0D01*
G01*
X344171D02*
G03*
X344171Y-60728I-2700J0D01*
G01*
X344571D02*
G03*
X344571Y-60728I-3100J0D01*
G01*
X462471Y-69728D02*
G03*
X462471Y-69728I-12400J0D01*
G01*
X455971D02*
G03*
X455971Y-69728I-6000J0D01*
G01*
X415971Y-77028D02*
G03*
X418971Y-76928I-92J47813D01*
G01*
D02*
G03*
X422371Y-76228I-1420J15504D01*
G01*
D02*
G03*
X424271Y-75028I-2138J5489D01*
G01*
D02*
G03*
X425471Y-73228I-4771J4481D01*
G01*
D02*
G03*
X426171Y-70828I-9081J3951D01*
G01*
X426171D02*
G03*
X425971Y-68028I-12278J530D01*
G01*
X425971D02*
G03*
X425271Y-65928I-8147J-1549D01*
G01*
D02*
G03*
X423571Y-63728I-6248J-3071D01*
G01*
D02*
G03*
X421071Y-62728I-2788J-3344D01*
G01*
Y-62728D02*
G03*
X415771Y-62528I-4939J-60548D01*
G01*
X421571Y-81778D02*
G03*
X426171Y-81128I-110J17380D01*
G01*
Y-81128D02*
G03*
X428171Y-80128I-4821J12141D01*
G01*
Y-80128D02*
G03*
X430371Y-78428I-11510J17169D01*
G01*
D02*
G03*
X432071Y-75928I-7834J7155D01*
G01*
X432071D02*
G03*
X432971Y-72828I-10301J4671D01*
G01*
X432971D02*
G03*
X433171Y-70028I-19572J2805D01*
G01*
X433171D02*
G03*
X433071Y-67728I-23001J152D01*
G01*
X433071D02*
G03*
X431871Y-63928I-12908J-1987D01*
G01*
D02*
G03*
X429871Y-61328I-16150J-10354D01*
G01*
Y-61328D02*
G03*
X425471Y-58628I-7709J-7627D01*
G01*
Y-58628D02*
G03*
X421271Y-57928I-4200J-12252D01*
G01*
X371471Y-80828D02*
G03*
X373471Y-80228I-168364J564846D01*
G01*
X367771Y-81908D02*
G03*
X371471Y-80828I-3584J19159D01*
G01*
X363071Y-82069D02*
G03*
X367771Y-81908I845J44213D01*
G01*
X357771Y-81328D02*
G03*
X363071Y-82069I6434J26726D01*
G01*
X354371Y-79528D02*
G03*
X357771Y-81328I5831J6903D01*
G01*
X352571Y-78128D02*
G03*
X354371Y-79528I9198J9969D01*
G01*
X349471Y-72328D02*
G03*
X352571Y-78128I11760J2557D01*
G01*
X349371Y-70028D02*
G03*
X349471Y-72328I24430J-90D01*
G01*
X350071Y-65328D02*
G03*
X349371Y-70028I22626J-5772D01*
G01*
X352271Y-61528D02*
G03*
X350071Y-65328I8644J-7541D01*
G01*
X357071Y-58228D02*
G03*
X352271Y-61528I3729J-10565D01*
G01*
X363571Y-57328D02*
G03*
X357071Y-58228I50J-24286D01*
G01*
X369671Y-58128D02*
G03*
X363571Y-57328I-6247J-23979D01*
G01*
X364871Y-76628D02*
G03*
X367671Y-76028I-2812J19954D01*
G01*
X361271Y-75928D02*
G03*
X364871Y-76628I3448J8125D01*
G01*
X359571Y-75028D02*
G03*
X361271Y-75928I7067J11293D01*
G01*
X356971Y-71128D02*
G03*
X359571Y-75028I5525J867D01*
G01*
X356971Y-69228D02*
G03*
X356971Y-71128I5886J-950D01*
G01*
X365471Y-62428D02*
G03*
X360471Y-63528I-111J-11411D01*
G01*
D02*
G03*
X356971Y-69228I3181J-5878D01*
G01*
X371371Y-63628D02*
G03*
X368571Y-62728I-9612J-25099D01*
G01*
D02*
G03*
X366771Y-62428I-2604J-10073D01*
G01*
Y-62428D02*
G03*
X365471Y-62428I-650J-9558D01*
G01*
X321871Y-62428D02*
G03*
X317671Y-62428I-2100J-99539D01*
G01*
X323271Y-62928D02*
G03*
X321871Y-62428I-1594J-2253D01*
G01*
X324271Y-63928D02*
G03*
X323271Y-62928I-2637J-1637D01*
G01*
X324671Y-65828D02*
G03*
X324271Y-63928I-3152J329D01*
G01*
X323171Y-67728D02*
G03*
X324671Y-65828I-945J2288D01*
G01*
X320671Y-68228D02*
G03*
X323171Y-67728I186J5573D01*
G01*
X324371Y-77028D02*
G03*
X326271Y-81428I63053J24617D01*
G01*
X324371Y-77028D02*
G03*
X322371Y-73828I-11094J-4709D01*
G01*
D02*
G03*
X321171Y-72728I-4025J-3186D01*
G01*
X334371Y-81428D02*
G03*
X332471Y-76628I-41800J-13770D01*
G01*
D02*
G03*
X330471Y-73228I-29344J-14973D01*
G01*
D02*
G03*
X328771Y-71628I-3709J-2237D01*
G01*
X324971Y-72028D02*
G03*
X332071Y-64628I-150J7250D01*
G01*
Y-64528D02*
G03*
X325371Y-57928I-6650J-50D01*
G01*
X877000Y600200D02*
Y662200D01*
X810000Y600200D02*
Y662200D01*
X615000Y600200D02*
Y662200D01*
X579000D02*
X922976D01*
X579000Y630200D02*
X922976D01*
X579000Y645200D02*
X923000D01*
X579000Y615200D02*
X922976D01*
X579000Y600200D02*
X923000D01*
X579000D02*
Y685200D01*
X-157000Y-144800D02*
X943000D01*
X622976Y-65064D02*
Y-50664D01*
X472976D02*
X622976D01*
X304000D02*
X472976D01*
X922976Y67436D02*
X942976D01*
X922976Y279936D02*
X942976D01*
X922976Y492436D02*
X942976D01*
X922976Y-125064D02*
Y684936D01*
X943000Y-144800D02*
Y705200D01*
X-157000D02*
X943000D01*
X667976Y684936D02*
Y704936D01*
X392976Y684936D02*
Y704936D01*
X117976Y684936D02*
Y704936D01*
X-137024Y684936D02*
X922976D01*
X667976Y-145064D02*
Y-125064D01*
X622976D02*
Y-65064D01*
X832976Y-125064D02*
Y-73964D01*
X472976Y-125064D02*
Y-50664D01*
X922976Y-125064D02*
Y-50664D01*
X622976D02*
X922976D01*
X472976Y-73664D02*
X922976D01*
X472976Y-98564D02*
X922976D01*
X472976Y-125064D02*
X922976D01*
X304000D02*
Y-50664D01*
Y-125064D02*
X472976D01*
X392976Y-145064D02*
Y-125064D01*
X117976Y-145064D02*
Y-125064D01*
X-157024Y67436D02*
X-137024D01*
X-157024Y279936D02*
X-137024D01*
X-157024Y492436D02*
X-137024D01*
X-157000Y-144800D02*
Y705200D01*
X-137024Y-125064D02*
Y684936D01*
Y-125064D02*
X922976D01*
X436171Y-63328D02*
X438471Y-65628D01*
X436171Y-63328D02*
X436971Y-61628D01*
X440171Y-62428D01*
X442171Y-56428D02*
X444871Y-58528D01*
X440671Y-57428D02*
X442171Y-56428D01*
X440671Y-57428D02*
X441571Y-60728D01*
X446771Y-57928D02*
X447271Y-54528D01*
X449271Y-54228D01*
X450671Y-57428D01*
X452671Y-57728D02*
X454771Y-55028D01*
X456471Y-55528D01*
X456371Y-59228D02*
X456471Y-55528D01*
X460371Y-63128D02*
X462371Y-60128D01*
X461171Y-58728D02*
X462371Y-60128D01*
X457871Y-60328D02*
X461171Y-58728D01*
X461271Y-64928D02*
X465071Y-65228D01*
X465471Y-67028D01*
X462271Y-68728D02*
X465471Y-67028D01*
X462271Y-70728D02*
X465471Y-72728D01*
X464971Y-74528D02*
X465471Y-72728D01*
X461471Y-74528D02*
X464971D01*
X460371Y-76328D02*
X462271Y-79528D01*
X461171Y-80828D02*
X462271Y-79528D01*
X457871Y-79228D02*
X461171Y-80828D01*
X456271Y-80328D02*
X456371Y-84098D01*
X454671Y-84708D02*
X456371Y-84098D01*
X452571Y-81878D02*
X454671Y-84708D01*
X449071Y-85318D02*
X450271Y-82158D01*
X447271Y-85089D02*
X449071Y-85318D01*
X446871Y-81808D02*
X447271Y-85089D01*
X441971Y-82998D02*
X444871Y-80928D01*
X440471Y-81968D02*
X441971Y-82998D01*
X440471Y-81968D02*
X441771Y-78828D01*
X436771Y-77628D02*
X440171Y-77228D01*
X436071Y-76128D02*
X436771Y-77628D01*
X436071Y-76128D02*
X438271Y-73728D01*
X434671Y-70728D02*
X437771Y-71428D01*
X434671Y-70728D02*
Y-68828D01*
X437771Y-67828D01*
X390571Y-63528D02*
X394471Y-72928D01*
X387271Y-72728D02*
X390640Y-64259D01*
X383371Y-81778D02*
X386071Y-75828D01*
X385250Y-76807D02*
X397271Y-76728D01*
X395771Y-76628D02*
X397871Y-81769D01*
X394971Y-57928D02*
X405371Y-81769D01*
X375971Y-81778D02*
X386571Y-57928D01*
X369671Y-58128D02*
X373071Y-59028D01*
X371371Y-63628D02*
X373071Y-64628D01*
X318271Y-68228D02*
X320671D01*
X319971Y-72028D02*
X321171Y-72728D01*
X328171Y-71428D02*
X328771Y-71628D01*
X325271Y-57928D02*
X325371D01*
X436171Y-63328D02*
X438471Y-65628D01*
X436171Y-63328D02*
X436971Y-61628D01*
X440171Y-62428D01*
X442171Y-56428D02*
X444871Y-58528D01*
X440671Y-57428D02*
X442171Y-56428D01*
X440671Y-57428D02*
X441571Y-60728D01*
X446771Y-57928D02*
X447271Y-54528D01*
X449271Y-54228D01*
X450671Y-57428D01*
X452671Y-57728D02*
X454771Y-55028D01*
X456471Y-55528D01*
X456371Y-59228D02*
X456471Y-55528D01*
X460371Y-63128D02*
X462371Y-60128D01*
X461171Y-58728D02*
X462371Y-60128D01*
X457871Y-60328D02*
X461171Y-58728D01*
X461271Y-64928D02*
X465071Y-65228D01*
X465471Y-67028D01*
X462271Y-68728D02*
X465471Y-67028D01*
X462271Y-70728D02*
X465471Y-72728D01*
X464971Y-74528D02*
X465471Y-72728D01*
X461471Y-74528D02*
X464971D01*
X460371Y-76328D02*
X462271Y-79528D01*
X461171Y-80828D02*
X462271Y-79528D01*
X457871Y-79228D02*
X461171Y-80828D01*
X456271Y-80328D02*
X456371Y-84098D01*
X454671Y-84708D02*
X456371Y-84098D01*
X452571Y-81878D02*
X454671Y-84708D01*
X449071Y-85318D02*
X450271Y-82158D01*
X447271Y-85089D02*
X449071Y-85318D01*
X446871Y-81808D02*
X447271Y-85089D01*
X441971Y-82998D02*
X444871Y-80928D01*
X440471Y-81968D02*
X441971Y-82998D01*
X440471Y-81968D02*
X441771Y-78828D01*
X436771Y-77628D02*
X440171Y-77228D01*
X436071Y-76128D02*
X436771Y-77628D01*
X436071Y-76128D02*
X438271Y-73728D01*
X434671Y-70728D02*
X437771Y-71428D01*
X434671Y-70728D02*
Y-68828D01*
X437771Y-67828D01*
X390571Y-63528D02*
X394471Y-72928D01*
X387271Y-72728D02*
X390640Y-64259D01*
X383371Y-81778D02*
X386071Y-75828D01*
X385250Y-76807D02*
X397350D01*
X395771Y-76628D02*
X397871Y-81769D01*
X394971Y-57928D02*
X405371Y-81769D01*
X375971Y-81778D02*
X386571Y-57928D01*
X369671Y-58128D02*
X373071Y-59028D01*
X371371Y-63628D02*
X373071Y-64628D01*
X318271Y-68228D02*
X320671D01*
X319971Y-72028D02*
X321171Y-72728D01*
X328171Y-71428D02*
X328771Y-71628D01*
X325271Y-57928D02*
X325371D01*
X625276Y-81564D02*
Y-76565D01*
X627776D01*
X628609Y-77399D01*
Y-79065D01*
X627776Y-79898D01*
X625276D01*
X633607Y-77399D02*
X632774Y-76565D01*
X631108D01*
X630275Y-77399D01*
Y-80731D01*
X631108Y-81564D01*
X632774D01*
X633607Y-80731D01*
X635273Y-76565D02*
Y-81564D01*
X637772D01*
X638605Y-80731D01*
Y-79898D01*
X637772Y-79065D01*
X635273D01*
X637772D01*
X638605Y-78232D01*
Y-77399D01*
X637772Y-76565D01*
X635273D01*
X645270Y-81564D02*
Y-76565D01*
X648602Y-81564D01*
Y-76565D01*
X650268Y-81564D02*
Y-78232D01*
X651934Y-76565D01*
X653601Y-78232D01*
Y-81564D01*
Y-79065D01*
X650268D01*
X655267Y-81564D02*
Y-76565D01*
X656933Y-78232D01*
X658599Y-76565D01*
Y-81564D01*
X663597Y-76565D02*
X660265D01*
Y-81564D01*
X663597D01*
X660265Y-79065D02*
X661931D01*
X665263Y-78232D02*
X666096D01*
Y-79065D01*
X665263D01*
Y-78232D01*
Y-80731D02*
X666096D01*
Y-81564D01*
X665263D01*
Y-80731D01*
X838009Y-103399D02*
X837176Y-102565D01*
X835509D01*
X834676Y-103399D01*
Y-104232D01*
X835509Y-105065D01*
X837176D01*
X838009Y-105898D01*
Y-106731D01*
X837176Y-107564D01*
X835509D01*
X834676Y-106731D01*
X843007Y-103399D02*
X842174Y-102565D01*
X840508D01*
X839675Y-103399D01*
Y-106731D01*
X840508Y-107564D01*
X842174D01*
X843007Y-106731D01*
X844673Y-107564D02*
Y-104232D01*
X846339Y-102565D01*
X848005Y-104232D01*
Y-107564D01*
Y-105065D01*
X844673D01*
X849671Y-102565D02*
Y-107564D01*
X853004D01*
X858002Y-102565D02*
X854670D01*
Y-107564D01*
X858002D01*
X854670Y-105065D02*
X856336D01*
X859668Y-104232D02*
X860501D01*
Y-105065D01*
X859668D01*
Y-104232D01*
Y-106731D02*
X860501D01*
Y-107564D01*
X859668D01*
Y-106731D01*
X628332Y-101802D02*
X625000D01*
Y-104301D01*
X626666D01*
X625000D01*
Y-106800D01*
X629998Y-101802D02*
X631665D01*
X630831D01*
Y-106800D01*
X629998D01*
X631665D01*
X634164Y-101802D02*
Y-106800D01*
X637496D01*
X642494Y-101802D02*
X639162D01*
Y-106800D01*
X642494D01*
X639162Y-104301D02*
X640828D01*
X649159Y-106800D02*
Y-101802D01*
X652491Y-106800D01*
Y-101802D01*
X654157Y-106800D02*
Y-103468D01*
X655823Y-101802D01*
X657489Y-103468D01*
Y-106800D01*
Y-104301D01*
X654157D01*
X659156Y-106800D02*
Y-101802D01*
X660822Y-103468D01*
X662488Y-101802D01*
Y-106800D01*
X667486Y-101802D02*
X664154D01*
Y-106800D01*
X667486D01*
X664154Y-104301D02*
X665820D01*
X669152Y-103468D02*
X669985D01*
Y-104301D01*
X669152D01*
Y-103468D01*
Y-105967D02*
X669985D01*
Y-106800D01*
X669152D01*
Y-105967D01*
X625776Y-60164D02*
Y-55165D01*
X628276D01*
X629109Y-55998D01*
Y-57665D01*
X628276Y-58498D01*
X625776D01*
X630775Y-60164D02*
Y-55165D01*
X633274D01*
X634107Y-55998D01*
Y-57665D01*
X633274Y-58498D01*
X630775D01*
X632441D02*
X634107Y-60164D01*
X638272Y-55165D02*
X636606D01*
X635773Y-55998D01*
Y-59331D01*
X636606Y-60164D01*
X638272D01*
X639105Y-59331D01*
Y-55998D01*
X638272Y-55165D01*
X644104D02*
X642438D01*
X643271D01*
Y-59331D01*
X642438Y-60164D01*
X641605D01*
X640771Y-59331D01*
X649102Y-55165D02*
X645770D01*
Y-60164D01*
X649102D01*
X645770Y-57665D02*
X647436D01*
X654101Y-55998D02*
X653267Y-55165D01*
X651601D01*
X650768Y-55998D01*
Y-59331D01*
X651601Y-60164D01*
X653267D01*
X654101Y-59331D01*
X655767Y-55165D02*
X659099D01*
X657433D01*
Y-60164D01*
X660765Y-56832D02*
X661598D01*
Y-57665D01*
X660765D01*
Y-56832D01*
Y-59331D02*
X661598D01*
Y-60164D01*
X660765D01*
Y-59331D01*
X477509Y-55265D02*
X474176D01*
Y-60264D01*
X477509D01*
X474176Y-57765D02*
X475843D01*
X479175Y-60264D02*
Y-55265D01*
X482507Y-60264D01*
Y-55265D01*
X487505Y-56099D02*
X486672Y-55265D01*
X485006D01*
X484173Y-56099D01*
Y-59431D01*
X485006Y-60264D01*
X486672D01*
X487505Y-59431D01*
Y-57765D01*
X485839D01*
X489172Y-55265D02*
X490838D01*
X490005D01*
Y-60264D01*
X489172D01*
X490838D01*
X493337D02*
Y-55265D01*
X496669Y-60264D01*
Y-55265D01*
X501667D02*
X498335D01*
Y-60264D01*
X501667D01*
X498335Y-57765D02*
X500001D01*
X506666Y-55265D02*
X503334D01*
Y-60264D01*
X506666D01*
X503334Y-57765D02*
X505000D01*
X508332Y-60264D02*
Y-55265D01*
X510831D01*
X511664Y-56099D01*
Y-57765D01*
X510831Y-58598D01*
X508332D01*
X509998D02*
X511664Y-60264D01*
X513330Y-56932D02*
X514163D01*
Y-57765D01*
X513330D01*
Y-56932D01*
Y-59431D02*
X514163D01*
Y-60264D01*
X513330D01*
Y-59431D01*
X475000Y-101802D02*
Y-106800D01*
X477499D01*
X478332Y-105967D01*
Y-102635D01*
X477499Y-101802D01*
X475000D01*
X479998D02*
Y-106800D01*
X481665Y-105134D01*
X483331Y-106800D01*
Y-101802D01*
X488329Y-102635D02*
X487496Y-101802D01*
X485830D01*
X484997Y-102635D01*
Y-105967D01*
X485830Y-106800D01*
X487496D01*
X488329Y-105967D01*
Y-104301D01*
X486663D01*
X494993Y-106800D02*
Y-101802D01*
X498326Y-106800D01*
Y-101802D01*
X502491D02*
X500825D01*
X499992Y-102635D01*
Y-105967D01*
X500825Y-106800D01*
X502491D01*
X503324Y-105967D01*
Y-102635D01*
X502491Y-101802D01*
X504990Y-103468D02*
X505823D01*
Y-104301D01*
X504990D01*
Y-103468D01*
Y-105967D02*
X505823D01*
Y-106800D01*
X504990D01*
Y-105967D01*
X835176Y-82864D02*
Y-77865D01*
X837676D01*
X838509Y-78698D01*
Y-80365D01*
X837676Y-81198D01*
X835176D01*
X836843D02*
X838509Y-82864D01*
X843507Y-77865D02*
X840175D01*
Y-82864D01*
X843507D01*
X840175Y-80365D02*
X841841D01*
X845173Y-77865D02*
Y-81198D01*
X846839Y-82864D01*
X848505Y-81198D01*
Y-77865D01*
X850171Y-79532D02*
X851005D01*
Y-80365D01*
X850171D01*
Y-79532D01*
Y-82031D02*
X851005D01*
Y-82864D01*
X850171D01*
Y-82031D01*
X474476Y-76965D02*
Y-81964D01*
X476976D01*
X477809Y-81131D01*
Y-77798D01*
X476976Y-76965D01*
X474476D01*
X479475Y-81964D02*
Y-78632D01*
X481141Y-76965D01*
X482807Y-78632D01*
Y-81964D01*
Y-79465D01*
X479475D01*
X484473Y-76965D02*
X487805D01*
X486139D01*
Y-81964D01*
X492804Y-76965D02*
X489471D01*
Y-81964D01*
X492804D01*
X489471Y-79465D02*
X491138D01*
X494470Y-78632D02*
X495303D01*
Y-79465D01*
X494470D01*
Y-78632D01*
Y-81131D02*
X495303D01*
Y-81964D01*
X494470D01*
Y-81131D01*
D52*
X814671Y124698D02*
D03*
Y230950D02*
D03*
D53*
X332500Y170700D02*
Y215000D01*
X327500Y220000D02*
X332500Y215000D01*
Y35000D02*
X345000Y47500D01*
Y158200D01*
X332500Y170700D02*
X345000Y158200D01*
X5000Y220000D02*
X327500D01*
X0Y5000D02*
Y215000D01*
X5000Y0D02*
X327500D01*
X332500Y5000D02*
Y35000D01*
X327500Y0D02*
X332500Y5000D01*
X0Y215000D02*
X5000Y220000D01*
X0Y5000D02*
X5000Y0D01*
D54*
X810171Y249246D02*
Y241248D01*
X814741D01*
X821711D02*
X818664Y249246D01*
X815617Y241248D01*
X816760Y243914D02*
X820569D01*
X823578Y249246D02*
X826624Y245437D01*
Y241248D01*
X829671Y249246D02*
X826624Y245437D01*
X835651Y249246D02*
X830700D01*
Y241248D01*
X835651D01*
X830700Y245437D02*
X833747D01*
X836984Y249246D02*
Y241248D01*
Y249246D02*
X840412D01*
X841555Y248865D01*
X841936Y248484D01*
X842316Y247722D01*
Y246961D01*
X841936Y246199D01*
X841555Y245818D01*
X840412Y245437D01*
X836984D01*
X839650D02*
X842316Y241248D01*
X850391Y249246D02*
Y243533D01*
X850772Y242390D01*
X851534Y241629D01*
X852676Y241248D01*
X853438D01*
X854580Y241629D01*
X855342Y242390D01*
X855723Y243533D01*
Y249246D01*
X863264Y248103D02*
X862502Y248865D01*
X861360Y249246D01*
X859836D01*
X858694Y248865D01*
X857932Y248103D01*
Y247342D01*
X858313Y246580D01*
X858694Y246199D01*
X859456Y245818D01*
X861741Y245056D01*
X862502Y244675D01*
X862883Y244295D01*
X863264Y243533D01*
Y242390D01*
X862502Y241629D01*
X861360Y241248D01*
X859836D01*
X858694Y241629D01*
X857932Y242390D01*
X871148Y241248D02*
X868101Y249246D01*
X865054Y241248D01*
X866197Y243914D02*
X870006D01*
X878728Y247342D02*
X878347Y248103D01*
X877585Y248865D01*
X876823Y249246D01*
X875300D01*
X874538Y248865D01*
X873776Y248103D01*
X873395Y247342D01*
X873015Y246199D01*
Y244295D01*
X873395Y243152D01*
X873776Y242390D01*
X874538Y241629D01*
X875300Y241248D01*
X876823D01*
X877585Y241629D01*
X878347Y242390D01*
X878728Y243152D01*
Y244295D01*
X876823D02*
X878728D01*
X885507Y249246D02*
X880556D01*
Y241248D01*
X885507D01*
X880556Y245437D02*
X883603D01*
D55*
X868976Y-118264D02*
X870642D01*
X869809D01*
Y-113265D01*
X868976Y-114099D01*
X873142Y-114931D02*
X873975D01*
Y-115765D01*
X873142D01*
Y-114931D01*
Y-117431D02*
X873975D01*
Y-118264D01*
X873142D01*
Y-117431D01*
X877307Y-118264D02*
X878973D01*
X878140D01*
Y-113265D01*
X877307Y-114099D01*
X930476Y-40365D02*
Y-47364D01*
Y-40365D02*
X932809D01*
X933809Y-40699D01*
X934476Y-41365D01*
X934809Y-42032D01*
X935142Y-43031D01*
Y-44698D01*
X934809Y-45698D01*
X934476Y-46364D01*
X933809Y-47030D01*
X932809Y-47364D01*
X930476D01*
X935475Y169968D02*
X935142Y170635D01*
X934476Y171301D01*
X933809Y171635D01*
X932476D01*
X931809Y171301D01*
X931143Y170635D01*
X930810Y169968D01*
X930476Y168969D01*
Y167302D01*
X930810Y166303D01*
X931143Y165636D01*
X931809Y164970D01*
X932476Y164636D01*
X933809D01*
X934476Y164970D01*
X935142Y165636D01*
X935475Y166303D01*
X930476Y384135D02*
Y377136D01*
Y384135D02*
X933476D01*
X934476Y383802D01*
X934809Y383468D01*
X935142Y382802D01*
Y382135D01*
X934809Y381469D01*
X934476Y381135D01*
X933476Y380802D01*
X930476D02*
X933476D01*
X934476Y380469D01*
X934809Y380136D01*
X935142Y379469D01*
Y378469D01*
X934809Y377803D01*
X934476Y377469D01*
X933476Y377136D01*
X930476D01*
X935809Y589636D02*
X933142Y596635D01*
X930476Y589636D01*
X931476Y591969D02*
X934809D01*
X806110Y698435D02*
X802777Y693769D01*
X807776D01*
X806110Y698435D02*
Y691436D01*
X528343Y698435D02*
X532009D01*
X530009Y695769D01*
X531009D01*
X531675Y695435D01*
X532009Y695102D01*
X532342Y694102D01*
Y693436D01*
X532009Y692436D01*
X531342Y691770D01*
X530342Y691436D01*
X529343D01*
X528343Y691770D01*
X528010Y692103D01*
X527676Y692769D01*
X253510Y696768D02*
Y697102D01*
X253843Y697768D01*
X254176Y698102D01*
X254843Y698435D01*
X256176D01*
X256842Y698102D01*
X257175Y697768D01*
X257509Y697102D01*
Y696435D01*
X257175Y695769D01*
X256509Y694769D01*
X253176Y691436D01*
X257842D01*
X-21890Y697102D02*
X-21223Y697435D01*
X-20224Y698435D01*
Y691436D01*
X806110Y-131565D02*
X802777Y-136231D01*
X807776D01*
X806110Y-131565D02*
Y-138564D01*
X528343Y-131565D02*
X532009D01*
X530009Y-134231D01*
X531009D01*
X531675Y-134565D01*
X532009Y-134898D01*
X532342Y-135898D01*
Y-136564D01*
X532009Y-137564D01*
X531342Y-138231D01*
X530342Y-138564D01*
X529343D01*
X528343Y-138231D01*
X528010Y-137897D01*
X527676Y-137231D01*
X253510Y-133232D02*
Y-132898D01*
X253843Y-132232D01*
X254176Y-131898D01*
X254843Y-131565D01*
X256176D01*
X256842Y-131898D01*
X257175Y-132232D01*
X257509Y-132898D01*
Y-133565D01*
X257175Y-134231D01*
X256509Y-135231D01*
X253176Y-138564D01*
X257842D01*
X-21890Y-132898D02*
X-21223Y-132565D01*
X-20224Y-131565D01*
Y-138564D01*
X-149524Y-40365D02*
Y-47364D01*
Y-40365D02*
X-147191D01*
X-146191Y-40699D01*
X-145525Y-41365D01*
X-145191Y-42032D01*
X-144858Y-43031D01*
Y-44698D01*
X-145191Y-45698D01*
X-145525Y-46364D01*
X-146191Y-47030D01*
X-147191Y-47364D01*
X-149524D01*
X-144525Y169968D02*
X-144858Y170635D01*
X-145525Y171301D01*
X-146191Y171635D01*
X-147524D01*
X-148191Y171301D01*
X-148857Y170635D01*
X-149190Y169968D01*
X-149524Y168969D01*
Y167302D01*
X-149190Y166303D01*
X-148857Y165636D01*
X-148191Y164970D01*
X-147524Y164636D01*
X-146191D01*
X-145525Y164970D01*
X-144858Y165636D01*
X-144525Y166303D01*
X-149524Y384135D02*
Y377136D01*
Y384135D02*
X-146524D01*
X-145525Y383802D01*
X-145191Y383468D01*
X-144858Y382802D01*
Y382135D01*
X-145191Y381469D01*
X-145525Y381135D01*
X-146524Y380802D01*
X-149524D02*
X-146524D01*
X-145525Y380469D01*
X-145191Y380136D01*
X-144858Y379469D01*
Y378469D01*
X-145191Y377803D01*
X-145525Y377469D01*
X-146524Y377136D01*
X-149524D01*
X-144191Y589636D02*
X-146858Y596635D01*
X-149524Y589636D01*
X-148524Y591969D02*
X-145191D01*
D56*
X341471Y-67478D02*
D03*
D03*
D57*
X417921Y-59178D02*
D03*
D03*
D58*
X419471Y-61178D02*
D03*
X418871Y-79478D02*
D03*
X419471Y-61178D02*
D03*
X418871Y-79478D02*
D03*
D59*
X412321Y-69828D02*
D03*
D03*
D60*
X363421Y-78778D02*
D03*
D03*
D61*
X437771Y-77478D02*
D03*
X462071Y-74478D02*
D03*
X463071Y-65178D02*
D03*
X366171Y-57478D02*
D03*
X373171Y-64478D02*
D03*
X462071Y-65178D02*
D03*
X437771Y-77478D02*
D03*
X462071Y-74478D02*
D03*
X463071Y-65178D02*
D03*
X366171Y-57478D02*
D03*
X373171Y-64478D02*
D03*
X462071Y-65178D02*
D03*
D62*
X439921Y-77178D02*
D03*
X463221Y-74478D02*
D03*
X450921Y-57478D02*
D03*
X361021D02*
D03*
X463921Y-74478D02*
D03*
X439921Y-77178D02*
D03*
X463221Y-74478D02*
D03*
X450921Y-57478D02*
D03*
X361021D02*
D03*
X463921Y-74478D02*
D03*
D63*
X455771Y-84189D02*
D03*
D03*
D64*
X461421Y-80128D02*
D03*
X393821Y-76828D02*
D03*
X461421Y-80128D02*
D03*
X393821Y-76828D02*
D03*
D65*
X462721Y-74478D02*
D03*
X461721D02*
D03*
X463421Y-65178D02*
D03*
X462421D02*
D03*
X461721D02*
D03*
X366521Y-57478D02*
D03*
X463721Y-65178D02*
D03*
X462721D02*
D03*
X462421Y-74478D02*
D03*
X462721D02*
D03*
X461721D02*
D03*
X463421Y-65178D02*
D03*
X462421D02*
D03*
X461721D02*
D03*
X366521Y-57478D02*
D03*
X463721Y-65178D02*
D03*
X462721D02*
D03*
X462421Y-74478D02*
D03*
D66*
X379671Y-81827D02*
D03*
D03*
D67*
X401621Y-81823D02*
D03*
D03*
D68*
X415171Y-81827D02*
D03*
D03*
D69*
X448571Y-54478D02*
D03*
D03*
D70*
X448421Y-54828D02*
D03*
X387521Y-76828D02*
D03*
X448421Y-54828D02*
D03*
X387521Y-76828D02*
D03*
D71*
X448421Y-55178D02*
D03*
X455121Y-56178D02*
D03*
X448421Y-55178D02*
D03*
X455121Y-56178D02*
D03*
D72*
X455171Y-55378D02*
D03*
D03*
D73*
X448521Y-55478D02*
D03*
X442221Y-57478D02*
D03*
X448521Y-55478D02*
D03*
X442221Y-57478D02*
D03*
D74*
X455421Y-55778D02*
D03*
D03*
D75*
X448471Y-55828D02*
D03*
X442471Y-57828D02*
D03*
X448471Y-55828D02*
D03*
X442471Y-57828D02*
D03*
D76*
X448721Y-56228D02*
D03*
X438121Y-77228D02*
D03*
X448721Y-56228D02*
D03*
X438121Y-77228D02*
D03*
D77*
X455071Y-56478D02*
D03*
X448771Y-57178D02*
D03*
X455071Y-56478D02*
D03*
X448771Y-57178D02*
D03*
D78*
X448721Y-56428D02*
D03*
D03*
D79*
X454871Y-56878D02*
D03*
D03*
D80*
X448771Y-57278D02*
D03*
D03*
D81*
X442121Y-56828D02*
D03*
D03*
D82*
X454921Y-57178D02*
D03*
X454621Y-57478D02*
D03*
X442621Y-58178D02*
D03*
X454921Y-57178D02*
D03*
X454621Y-57478D02*
D03*
X442621Y-58178D02*
D03*
D83*
X442121Y-57178D02*
D03*
D03*
D84*
X448771Y-57478D02*
D03*
D03*
D85*
X363671D02*
D03*
D03*
D86*
X451621Y-57828D02*
D03*
X390621Y-58828D02*
D03*
X439621Y-68828D02*
D03*
X427621Y-75828D02*
D03*
X451621Y-57828D02*
D03*
X390621Y-58828D02*
D03*
X427621Y-75828D02*
D03*
D87*
X415271Y-57828D02*
D03*
D03*
D88*
X390821D02*
D03*
X457421Y-64828D02*
D03*
X459721Y-67828D02*
D03*
X354221Y-73828D02*
D03*
X326521D02*
D03*
X390821Y-57828D02*
D03*
X457421Y-64828D02*
D03*
X459721Y-67828D02*
D03*
X354221Y-73828D02*
D03*
D89*
X363771Y-57828D02*
D03*
X390671Y-59828D02*
D03*
X426271Y-62828D02*
D03*
X460271Y-66828D02*
D03*
X355871Y-75828D02*
D03*
X363771Y-57828D02*
D03*
X390671Y-59828D02*
D03*
X426271Y-62828D02*
D03*
X460271Y-66828D02*
D03*
X355871Y-75828D02*
D03*
X451271Y-81528D02*
D03*
D90*
X318571Y-57828D02*
D03*
D03*
D91*
X451121Y-58178D02*
D03*
X390821Y-60178D02*
D03*
X460121Y-66478D02*
D03*
Y-73178D02*
D03*
X426421Y-76478D02*
D03*
X451121Y-58178D02*
D03*
X390821Y-60178D02*
D03*
X460121Y-66478D02*
D03*
Y-73178D02*
D03*
X426421Y-76478D02*
D03*
D92*
X416271Y-58178D02*
D03*
D03*
D93*
X390721D02*
D03*
X427021Y-63178D02*
D03*
X326121Y-73178D02*
D03*
X390721Y-58178D02*
D03*
X427021Y-63178D02*
D03*
X326121Y-73178D02*
D03*
D94*
X363671Y-58178D02*
D03*
X357671Y-62478D02*
D03*
X363671Y-58178D02*
D03*
X357671Y-62478D02*
D03*
D95*
X319171Y-58178D02*
D03*
D03*
D96*
X450671Y-58528D02*
D03*
D03*
D97*
X442721Y-58478D02*
D03*
D03*
D98*
X416971D02*
D03*
X449571Y-79478D02*
D03*
X449271Y-79778D02*
D03*
X416671Y-81478D02*
D03*
X416971Y-58478D02*
D03*
X449571Y-79478D02*
D03*
X449271Y-79778D02*
D03*
X416671Y-81478D02*
D03*
D99*
X390821Y-58478D02*
D03*
D03*
D100*
X364021D02*
D03*
D03*
D101*
X319621Y-58528D02*
D03*
X319921Y-71128D02*
D03*
X319621Y-58528D02*
D03*
X319921Y-71128D02*
D03*
D102*
X448671Y-58828D02*
D03*
D03*
D103*
X417571D02*
D03*
D03*
D104*
X364171D02*
D03*
D03*
D105*
X320021Y-58878D02*
D03*
X320321Y-71878D02*
D03*
X320021Y-58878D02*
D03*
X320321Y-71878D02*
D03*
D106*
X460871Y-59228D02*
D03*
D03*
D107*
X448771Y-59178D02*
D03*
X363971Y-80878D02*
D03*
X448771Y-59178D02*
D03*
X363871Y-80778D02*
D03*
D108*
X390621Y-59178D02*
D03*
D03*
D109*
X364371D02*
D03*
D110*
X320271Y-59228D02*
D03*
D03*
D111*
X460821Y-59528D02*
D03*
D03*
D112*
X449121Y-59478D02*
D03*
D03*
D113*
X418371D02*
D03*
X363971Y-79778D02*
D03*
X418371Y-59478D02*
D03*
X363971Y-79778D02*
D03*
D114*
X390821Y-59478D02*
D03*
X427121Y-76178D02*
D03*
X390821Y-59478D02*
D03*
X427121Y-76178D02*
D03*
D115*
X364021Y-59478D02*
D03*
D03*
D116*
X320421Y-59428D02*
D03*
X364221Y-80128D02*
D03*
X320421Y-59428D02*
D03*
X364221Y-80128D02*
D03*
D117*
X460471Y-59828D02*
D03*
D118*
X449321D02*
D03*
D119*
X418471D02*
D03*
D03*
D120*
X363721D02*
D03*
D03*
D121*
X320771Y-59878D02*
D03*
X321671Y-68378D02*
D03*
X320771Y-59878D02*
D03*
X321671Y-68378D02*
D03*
D122*
X460321Y-60228D02*
D03*
D03*
D123*
X449771Y-60178D02*
D03*
D03*
D124*
X418771D02*
D03*
D03*
D125*
X363521D02*
D03*
X321221Y-61178D02*
D03*
X363521Y-60178D02*
D03*
X321221Y-61178D02*
D03*
D126*
X320871Y-60178D02*
D03*
X321171Y-69178D02*
D03*
X418171Y-80478D02*
D03*
X320871Y-60178D02*
D03*
X321171Y-69178D02*
D03*
X418171Y-80478D02*
D03*
D127*
X451921Y-60478D02*
D03*
X450621Y-62178D02*
D03*
Y-62478D02*
D03*
X363021Y-78178D02*
D03*
X451921Y-60478D02*
D03*
X450621Y-62178D02*
D03*
Y-62478D02*
D03*
X363021Y-78178D02*
D03*
D128*
X418921Y-60478D02*
D03*
D03*
D129*
X390671D02*
D03*
X459571Y-65478D02*
D03*
X459871Y-73478D02*
D03*
X442271Y-75178D02*
D03*
X356371Y-76178D02*
D03*
X390671Y-60478D02*
D03*
X459871Y-73478D02*
D03*
X442271Y-75178D02*
D03*
X356371Y-76178D02*
D03*
D130*
X363371Y-60478D02*
D03*
D03*
D131*
X320971D02*
D03*
D03*
D132*
X451721Y-60828D02*
D03*
X419121D02*
D03*
X451721D02*
D03*
X419121D02*
D03*
D133*
X390821D02*
D03*
X459721Y-73828D02*
D03*
X390821Y-60828D02*
D03*
X459721Y-73828D02*
D03*
D134*
X363121Y-60828D02*
D03*
D03*
D135*
X321121D02*
D03*
D03*
D136*
X451571Y-61178D02*
D03*
X451271Y-61478D02*
D03*
Y-78178D02*
D03*
X451571Y-61178D02*
D03*
X451271Y-61478D02*
D03*
Y-78178D02*
D03*
D137*
X390721Y-61178D02*
D03*
D03*
D138*
X362971D02*
D03*
X419071Y-79078D02*
D03*
X362971Y-61178D02*
D03*
X419171Y-79178D02*
D03*
D139*
X419471Y-61478D02*
D03*
D03*
D140*
X390621D02*
D03*
D03*
D141*
X362821D02*
D03*
X419721Y-78478D02*
D03*
X419421Y-78778D02*
D03*
X362821Y-61478D02*
D03*
X419721Y-78478D02*
D03*
X419421Y-78778D02*
D03*
D142*
X321271Y-61478D02*
D03*
D03*
D143*
X450921Y-61828D02*
D03*
X450621Y-77228D02*
D03*
X450921Y-61828D02*
D03*
X450621Y-77228D02*
D03*
D144*
X437271Y-61828D02*
D03*
D03*
D145*
X419571D02*
D03*
D03*
D146*
X390821D02*
D03*
D03*
D147*
X362721D02*
D03*
X390621Y-72828D02*
D03*
X362721Y-61828D02*
D03*
D148*
X321421D02*
D03*
D03*
D149*
X437871Y-62228D02*
D03*
D03*
D150*
X419721Y-62178D02*
D03*
X362521D02*
D03*
X390821Y-73178D02*
D03*
X419721Y-62178D02*
D03*
X362521D02*
D03*
X390821Y-73178D02*
D03*
D151*
X390671Y-62178D02*
D03*
X442571Y-75478D02*
D03*
X390671Y-62178D02*
D03*
X442571Y-75478D02*
D03*
D152*
X321471Y-62178D02*
D03*
D03*
D153*
X438271Y-62478D02*
D03*
X442271Y-81478D02*
D03*
X438271Y-62478D02*
D03*
X442271Y-81478D02*
D03*
D154*
X424621Y-62478D02*
D03*
D03*
D155*
X390821D02*
D03*
X357521Y-76478D02*
D03*
X390821Y-62478D02*
D03*
X357521Y-76478D02*
D03*
D156*
X370421Y-62528D02*
D03*
D03*
D157*
X326721Y-62478D02*
D03*
X355721Y-63478D02*
D03*
X326721Y-62478D02*
D03*
X355721Y-63478D02*
D03*
D158*
X448371Y-62828D02*
D03*
X390771Y-75828D02*
D03*
X448371Y-62828D02*
D03*
X390771Y-75828D02*
D03*
D159*
X390671Y-62828D02*
D03*
X425271Y-76828D02*
D03*
X390671Y-62828D02*
D03*
X425271Y-76828D02*
D03*
D160*
X371321Y-62878D02*
D03*
D03*
D161*
X356771Y-62828D02*
D03*
D03*
D162*
X327371D02*
D03*
D03*
D163*
X448421Y-63178D02*
D03*
Y-76178D02*
D03*
Y-63178D02*
D03*
Y-76178D02*
D03*
D164*
X390821Y-63178D02*
D03*
D03*
D165*
X371771D02*
D03*
D03*
D166*
X356071D02*
D03*
X442271Y-64478D02*
D03*
X460271Y-67178D02*
D03*
X451271Y-81478D02*
D03*
X356071Y-63178D02*
D03*
X442271Y-64478D02*
D03*
X460271Y-67178D02*
D03*
D167*
X327721Y-63178D02*
D03*
X369321Y-76478D02*
D03*
X328721Y-77478D02*
D03*
X329721Y-79778D02*
D03*
X369321Y-76478D02*
D03*
X328721Y-77478D02*
D03*
X329721Y-79778D02*
D03*
D168*
X448521Y-63478D02*
D03*
X390721Y-76178D02*
D03*
X448521Y-63478D02*
D03*
X390721Y-76178D02*
D03*
D169*
X427421Y-63478D02*
D03*
X442121Y-65178D02*
D03*
X354221Y-65478D02*
D03*
Y-74178D02*
D03*
X326921D02*
D03*
X354521Y-74478D02*
D03*
X327521Y-75178D02*
D03*
X328521Y-77178D02*
D03*
X329221Y-78478D02*
D03*
X427421Y-63478D02*
D03*
X442121Y-65178D02*
D03*
X354221Y-65478D02*
D03*
Y-74178D02*
D03*
X326921D02*
D03*
X327521Y-75178D02*
D03*
X328521Y-77178D02*
D03*
X329221Y-78478D02*
D03*
D170*
X390621Y-63478D02*
D03*
D03*
D171*
X372271Y-63578D02*
D03*
D03*
D172*
X327971Y-63478D02*
D03*
X457671Y-65178D02*
D03*
X428671Y-74478D02*
D03*
X327971Y-63478D02*
D03*
X457671Y-65178D02*
D03*
X428671Y-74478D02*
D03*
D173*
X455771Y-63828D02*
D03*
D03*
D174*
X443071D02*
D03*
D03*
D175*
X427771D02*
D03*
X326371Y-73528D02*
D03*
X427771Y-63828D02*
D03*
X326371Y-73528D02*
D03*
D176*
X390821Y-63828D02*
D03*
D03*
D177*
X372721D02*
D03*
X460621Y-80128D02*
D03*
X372721Y-63828D02*
D03*
X460621Y-80128D02*
D03*
D178*
X355371Y-63828D02*
D03*
D03*
D179*
X328021D02*
D03*
X327721Y-67428D02*
D03*
X442021Y-74228D02*
D03*
X328021Y-63828D02*
D03*
X327721Y-67428D02*
D03*
X442021Y-74228D02*
D03*
D180*
X456521Y-64128D02*
D03*
X442121Y-64828D02*
D03*
X456521Y-64128D02*
D03*
X442121Y-64828D02*
D03*
D181*
X442471Y-64178D02*
D03*
X363871Y-81478D02*
D03*
X442471Y-64178D02*
D03*
X363971Y-81578D02*
D03*
D182*
X427971Y-64178D02*
D03*
X428271Y-64478D02*
D03*
X354071Y-66178D02*
D03*
X353671Y-66478D02*
D03*
Y-73178D02*
D03*
X457571Y-74478D02*
D03*
X328071Y-76178D02*
D03*
X329571Y-79478D02*
D03*
X330071Y-80778D02*
D03*
X330371Y-81478D02*
D03*
X427971Y-64178D02*
D03*
X428271Y-64478D02*
D03*
X354071Y-66178D02*
D03*
X353671Y-66478D02*
D03*
Y-73178D02*
D03*
X457571Y-74478D02*
D03*
X328071Y-76178D02*
D03*
X330071Y-80778D02*
D03*
X330371Y-81478D02*
D03*
D183*
X390771Y-64178D02*
D03*
D03*
D184*
X372821D02*
D03*
D03*
D185*
X355171D02*
D03*
X354871Y-64478D02*
D03*
X460071Y-67478D02*
D03*
X442071Y-74478D02*
D03*
X355171Y-64178D02*
D03*
X354871Y-64478D02*
D03*
X460071Y-67478D02*
D03*
X442071Y-74478D02*
D03*
D186*
X328171Y-64178D02*
D03*
X428771Y-65478D02*
D03*
X429171Y-66478D02*
D03*
X327871Y-67178D02*
D03*
X459471Y-68178D02*
D03*
X381171Y-78478D02*
D03*
X380771Y-79478D02*
D03*
X401471Y-81478D02*
D03*
X328171Y-64178D02*
D03*
X428771Y-65478D02*
D03*
X429171Y-66478D02*
D03*
X327871Y-67178D02*
D03*
X459471Y-68178D02*
D03*
X381171Y-78478D02*
D03*
X380771Y-79478D02*
D03*
X401471Y-81478D02*
D03*
D187*
X457071Y-64478D02*
D03*
X428171Y-75178D02*
D03*
X457071Y-64478D02*
D03*
X428171Y-75178D02*
D03*
D188*
X394321Y-64478D02*
D03*
X440921Y-71478D02*
D03*
X394321Y-64478D02*
D03*
X440921Y-71478D02*
D03*
D189*
X387171Y-64478D02*
D03*
X386871Y-65178D02*
D03*
Y-65478D02*
D03*
X441771Y-66178D02*
D03*
X395171D02*
D03*
X386471D02*
D03*
X395171Y-66478D02*
D03*
X386171D02*
D03*
X395471Y-67178D02*
D03*
X385871Y-67478D02*
D03*
X385471Y-68178D02*
D03*
X396171Y-68478D02*
D03*
X385471D02*
D03*
X396471Y-69178D02*
D03*
X385171D02*
D03*
X396471Y-69478D02*
D03*
X384871Y-70178D02*
D03*
X384471Y-70478D02*
D03*
X459371Y-71178D02*
D03*
X397171D02*
D03*
X384171Y-71478D02*
D03*
X441771Y-73178D02*
D03*
X387171Y-64478D02*
D03*
X386871Y-65178D02*
D03*
Y-65478D02*
D03*
X441771Y-66178D02*
D03*
X395171D02*
D03*
X386471D02*
D03*
X395171Y-66478D02*
D03*
X386171D02*
D03*
X395471Y-67178D02*
D03*
X385871Y-67478D02*
D03*
X385471Y-68178D02*
D03*
X396171Y-68478D02*
D03*
X385471D02*
D03*
X396471Y-69178D02*
D03*
X385171D02*
D03*
X396471Y-69478D02*
D03*
X384871Y-70178D02*
D03*
X384471Y-70478D02*
D03*
X459371Y-71178D02*
D03*
X397171D02*
D03*
X384171Y-71478D02*
D03*
X441771Y-73178D02*
D03*
D190*
X328221Y-64478D02*
D03*
X442121Y-65478D02*
D03*
X353521Y-67178D02*
D03*
Y-67478D02*
D03*
X353221Y-68478D02*
D03*
Y-69478D02*
D03*
Y-70178D02*
D03*
Y-70478D02*
D03*
X440421Y-71178D02*
D03*
X353221D02*
D03*
X459421Y-71478D02*
D03*
X353221D02*
D03*
X353521Y-72178D02*
D03*
Y-72478D02*
D03*
X429121Y-73478D02*
D03*
X428821Y-74178D02*
D03*
X400821Y-79778D02*
D03*
X401121Y-80478D02*
D03*
X328221Y-64478D02*
D03*
X442121Y-65478D02*
D03*
X353521Y-67178D02*
D03*
Y-67478D02*
D03*
X353221Y-68478D02*
D03*
Y-69478D02*
D03*
Y-70178D02*
D03*
Y-70478D02*
D03*
X440421Y-71178D02*
D03*
X353221D02*
D03*
X459421Y-71478D02*
D03*
X353221D02*
D03*
X353521Y-72178D02*
D03*
Y-72478D02*
D03*
X429121Y-73478D02*
D03*
X428821Y-74178D02*
D03*
X400821Y-79778D02*
D03*
X401121Y-80478D02*
D03*
D191*
X428421Y-64828D02*
D03*
X328221D02*
D03*
X353221Y-68828D02*
D03*
X428421Y-64828D02*
D03*
X328221D02*
D03*
X353221Y-68828D02*
D03*
D192*
X394471Y-64828D02*
D03*
X386471Y-65828D02*
D03*
X395471Y-66828D02*
D03*
X386171D02*
D03*
X396171Y-68828D02*
D03*
X384871Y-69828D02*
D03*
X397171Y-70828D02*
D03*
X384471D02*
D03*
X397471Y-71828D02*
D03*
X394471Y-64828D02*
D03*
X386471Y-65828D02*
D03*
X395471Y-66828D02*
D03*
X386171D02*
D03*
X396171Y-68828D02*
D03*
X384871Y-69828D02*
D03*
X397171Y-70828D02*
D03*
X384471D02*
D03*
X397471Y-71828D02*
D03*
D193*
X387021Y-64828D02*
D03*
X441621Y-72828D02*
D03*
X387021Y-64828D02*
D03*
X441621Y-72828D02*
D03*
D194*
X354721Y-64828D02*
D03*
X325821Y-72828D02*
D03*
X354721Y-64828D02*
D03*
X325821Y-72828D02*
D03*
D195*
X428521Y-65178D02*
D03*
X328321D02*
D03*
X353321Y-69178D02*
D03*
X429221Y-73178D02*
D03*
X400021Y-78178D02*
D03*
X428521Y-65178D02*
D03*
X328321D02*
D03*
X353321Y-69178D02*
D03*
X429221Y-73178D02*
D03*
X400021Y-78178D02*
D03*
D196*
X394671Y-65178D02*
D03*
X441271Y-67178D02*
D03*
Y-67478D02*
D03*
X395671D02*
D03*
X441271Y-72178D02*
D03*
X394671Y-65178D02*
D03*
X441271Y-67178D02*
D03*
Y-67478D02*
D03*
X395671D02*
D03*
X441271Y-72178D02*
D03*
D197*
X354371Y-65178D02*
D03*
X427971Y-75478D02*
D03*
X354371Y-65178D02*
D03*
X427971Y-75478D02*
D03*
D198*
X394821Y-65478D02*
D03*
X395821Y-68178D02*
D03*
X396821Y-70178D02*
D03*
Y-70478D02*
D03*
X397821Y-72478D02*
D03*
X394821Y-65478D02*
D03*
X395821Y-68178D02*
D03*
X396821Y-70178D02*
D03*
Y-70478D02*
D03*
X397821Y-72478D02*
D03*
D199*
X328371Y-65478D02*
D03*
X440571Y-68178D02*
D03*
X429571D02*
D03*
X353371D02*
D03*
X429471Y-72178D02*
D03*
X429371Y-72478D02*
D03*
X383671D02*
D03*
X381671Y-77178D02*
D03*
Y-77478D02*
D03*
X380671Y-79778D02*
D03*
X380071Y-80778D02*
D03*
X328371Y-65478D02*
D03*
X440571Y-68178D02*
D03*
X429571D02*
D03*
X353371D02*
D03*
X429471Y-72178D02*
D03*
X429371Y-72478D02*
D03*
X383671D02*
D03*
X381671Y-77178D02*
D03*
Y-77478D02*
D03*
X380671Y-79778D02*
D03*
X380071Y-80778D02*
D03*
D200*
X459871Y-65828D02*
D03*
D03*
D201*
X442021D02*
D03*
X328321D02*
D03*
X429721Y-69828D02*
D03*
X396521D02*
D03*
X442021Y-73828D02*
D03*
Y-65828D02*
D03*
X328321D02*
D03*
X429721Y-69828D02*
D03*
X396521D02*
D03*
X442021Y-73828D02*
D03*
D202*
X428921Y-65828D02*
D03*
X429321Y-66828D02*
D03*
X429621Y-68828D02*
D03*
Y-70828D02*
D03*
X400621Y-79128D02*
D03*
X380021Y-81128D02*
D03*
X428921Y-65828D02*
D03*
X429321Y-66828D02*
D03*
X429621Y-68828D02*
D03*
Y-70828D02*
D03*
X400621Y-79128D02*
D03*
X380021Y-81128D02*
D03*
D203*
X394971Y-65828D02*
D03*
D03*
D204*
X354071D02*
D03*
X353671Y-66828D02*
D03*
Y-72828D02*
D03*
X329371Y-79128D02*
D03*
X354071Y-65828D02*
D03*
X353671Y-66828D02*
D03*
Y-72828D02*
D03*
X329371Y-79128D02*
D03*
D205*
X459971Y-66178D02*
D03*
D03*
D206*
X428971D02*
D03*
X328071D02*
D03*
X429371Y-67478D02*
D03*
X429671Y-70178D02*
D03*
Y-70478D02*
D03*
X441871Y-73478D02*
D03*
X428971Y-66178D02*
D03*
X429371Y-67478D02*
D03*
X429671Y-70178D02*
D03*
Y-70478D02*
D03*
X441871Y-73478D02*
D03*
D207*
X441671Y-66478D02*
D03*
D03*
D208*
X328021D02*
D03*
X429321Y-67178D02*
D03*
X429621Y-68478D02*
D03*
Y-69178D02*
D03*
Y-69478D02*
D03*
X385021D02*
D03*
X429621Y-71178D02*
D03*
X384321D02*
D03*
X429621Y-71478D02*
D03*
X397321D02*
D03*
X397621Y-72178D02*
D03*
X384021D02*
D03*
X399621Y-77178D02*
D03*
X399921Y-77478D02*
D03*
X381321Y-78178D02*
D03*
X400321Y-78478D02*
D03*
Y-78778D02*
D03*
X381021D02*
D03*
X400621Y-79478D02*
D03*
X380321Y-80478D02*
D03*
X401321Y-80778D02*
D03*
X328021Y-66478D02*
D03*
X429321Y-67178D02*
D03*
X429621Y-68478D02*
D03*
Y-69178D02*
D03*
Y-69478D02*
D03*
X385021D02*
D03*
X429621Y-71178D02*
D03*
X384321D02*
D03*
X429621Y-71478D02*
D03*
X397321D02*
D03*
X397621Y-72178D02*
D03*
X384021D02*
D03*
X399621Y-77178D02*
D03*
X399921Y-77478D02*
D03*
X381321Y-78178D02*
D03*
X400321Y-78478D02*
D03*
Y-78778D02*
D03*
X381021D02*
D03*
X400621Y-79478D02*
D03*
X380321Y-80478D02*
D03*
X401321Y-80778D02*
D03*
D209*
X441521Y-66828D02*
D03*
X395821Y-67828D02*
D03*
X441521Y-66828D02*
D03*
X395821Y-67828D02*
D03*
D210*
X327971Y-66828D02*
D03*
X429571Y-67828D02*
D03*
X385671D02*
D03*
X353371D02*
D03*
X429471Y-71828D02*
D03*
X429371Y-72828D02*
D03*
X399971Y-77828D02*
D03*
X400971Y-80128D02*
D03*
X327971Y-66828D02*
D03*
X429571Y-67828D02*
D03*
X385671D02*
D03*
X353371D02*
D03*
X429471Y-71828D02*
D03*
X429371Y-72828D02*
D03*
X399971Y-77828D02*
D03*
X400971Y-80128D02*
D03*
D211*
X386121Y-67178D02*
D03*
D03*
D212*
X441121Y-67828D02*
D03*
X459121Y-68828D02*
D03*
Y-70828D02*
D03*
X441121Y-67828D02*
D03*
X459121Y-68828D02*
D03*
Y-70828D02*
D03*
D213*
X327321Y-67828D02*
D03*
X457221Y-74828D02*
D03*
X428521D02*
D03*
X328121Y-76428D02*
D03*
X328421Y-76828D02*
D03*
X329821Y-80128D02*
D03*
X457221Y-74828D02*
D03*
X428521D02*
D03*
X328421Y-76828D02*
D03*
X329821Y-80128D02*
D03*
D214*
X325571Y-68178D02*
D03*
D03*
D215*
X459171Y-68478D02*
D03*
Y-69178D02*
D03*
Y-69478D02*
D03*
Y-70178D02*
D03*
Y-70478D02*
D03*
Y-68478D02*
D03*
Y-69178D02*
D03*
Y-69478D02*
D03*
Y-70178D02*
D03*
Y-70478D02*
D03*
D216*
X439921Y-68478D02*
D03*
X456721Y-75178D02*
D03*
X439921Y-68478D02*
D03*
X456721Y-75178D02*
D03*
D217*
X385371Y-68828D02*
D03*
X384071Y-71828D02*
D03*
X385371Y-68828D02*
D03*
X384071Y-71828D02*
D03*
D218*
X368821Y-70978D02*
D03*
D03*
D219*
X321221Y-68828D02*
D03*
D03*
D220*
X439271Y-69178D02*
D03*
Y-70178D02*
D03*
X456271Y-75478D02*
D03*
X439271Y-69178D02*
D03*
Y-70178D02*
D03*
X456271Y-75478D02*
D03*
D221*
X439371Y-69478D02*
D03*
X439571Y-70478D02*
D03*
X439371Y-69478D02*
D03*
D222*
X320971D02*
D03*
D03*
D223*
X459171Y-69828D02*
D03*
D03*
D224*
X439321D02*
D03*
D03*
D225*
X353171D02*
D03*
X353471Y-71828D02*
D03*
X429071Y-73828D02*
D03*
X353171Y-69828D02*
D03*
X353471Y-71828D02*
D03*
X429071Y-73828D02*
D03*
D226*
X320671Y-69828D02*
D03*
D03*
D227*
X320571Y-70228D02*
D03*
D03*
D228*
X320221Y-70478D02*
D03*
D03*
D229*
X439771Y-70828D02*
D03*
X354871Y-74828D02*
D03*
X439771Y-70828D02*
D03*
X354871Y-74828D02*
D03*
D230*
X353321Y-70828D02*
D03*
X381421Y-77828D02*
D03*
X380421Y-80128D02*
D03*
X401421Y-81128D02*
D03*
X353321Y-70828D02*
D03*
X381421Y-77828D02*
D03*
X380421Y-80128D02*
D03*
X401421Y-81128D02*
D03*
D231*
X320071Y-70878D02*
D03*
D03*
D232*
X319921Y-71528D02*
D03*
D03*
D233*
X459771Y-71778D02*
D03*
D03*
D234*
X441221Y-71828D02*
D03*
D03*
D235*
X460021Y-72178D02*
D03*
X355121Y-75178D02*
D03*
X460021Y-72178D02*
D03*
X355121Y-75178D02*
D03*
D236*
X320521Y-72178D02*
D03*
D03*
D237*
X460071Y-72478D02*
D03*
X355471Y-75478D02*
D03*
X460071Y-72478D02*
D03*
X355471Y-75478D02*
D03*
D238*
X441500Y-72478D02*
D03*
D239*
X325371Y-72578D02*
D03*
D03*
D240*
X460221Y-72828D02*
D03*
D03*
D241*
X390671Y-73478D02*
D03*
X420271Y-77178D02*
D03*
X390671Y-73478D02*
D03*
X420271Y-77178D02*
D03*
D242*
X370521Y-76828D02*
D03*
D03*
D243*
X354021Y-73478D02*
D03*
X327121Y-74478D02*
D03*
X327821Y-75478D02*
D03*
X329121Y-78178D02*
D03*
X329221Y-78778D02*
D03*
X354021Y-73478D02*
D03*
X327121Y-74478D02*
D03*
X327821Y-75478D02*
D03*
X329121Y-78178D02*
D03*
X329221Y-78778D02*
D03*
D244*
X390821Y-73828D02*
D03*
D03*
D245*
X459421Y-74178D02*
D03*
D03*
D246*
X390671D02*
D03*
D03*
D247*
X390821Y-74478D02*
D03*
D03*
D248*
X442121Y-74828D02*
D03*
D03*
D249*
X390621D02*
D03*
D03*
D250*
X327371D02*
D03*
X327871Y-75828D02*
D03*
X387871Y-76828D02*
D03*
X327371Y-74828D02*
D03*
X327871Y-75828D02*
D03*
X387871Y-76828D02*
D03*
D251*
X390721Y-75178D02*
D03*
D03*
D252*
X390771Y-75578D02*
D03*
D03*
D253*
X448521Y-75828D02*
D03*
D03*
D254*
X448371Y-76528D02*
D03*
X448571Y-76828D02*
D03*
X448371Y-76528D02*
D03*
X448571Y-76828D02*
D03*
D255*
X390671Y-76478D02*
D03*
D03*
D256*
X398821Y-76828D02*
D03*
D03*
D257*
X392871D02*
D03*
X389471D02*
D03*
X392871D02*
D03*
X389471D02*
D03*
D258*
X382171D02*
D03*
D03*
D259*
X362421D02*
D03*
D03*
D260*
X362471Y-77178D02*
D03*
D03*
D261*
X450821Y-77478D02*
D03*
D03*
D262*
X437271D02*
D03*
D03*
D263*
X420021D02*
D03*
D03*
D264*
X362621Y-77528D02*
D03*
D03*
D265*
X451071Y-77828D02*
D03*
D266*
X419971D02*
D03*
D03*
D267*
X362871D02*
D03*
D03*
D268*
X328821Y-77928D02*
D03*
D269*
X419821Y-78178D02*
D03*
D03*
D270*
X451471Y-78428D02*
D03*
D03*
D271*
X363221Y-78478D02*
D03*
X451721Y-78778D02*
D03*
X363221Y-78478D02*
D03*
X451721Y-78778D02*
D03*
D272*
Y-79178D02*
D03*
D03*
D273*
X380921D02*
D03*
D03*
D274*
X363471Y-79128D02*
D03*
X418471Y-80128D02*
D03*
X363471Y-79128D02*
D03*
X418471Y-80128D02*
D03*
D275*
X460421Y-79478D02*
D03*
D03*
D276*
X363671D02*
D03*
D03*
D277*
X460571Y-79778D02*
D03*
D278*
X418621D02*
D03*
D03*
D279*
X448971Y-80128D02*
D03*
D03*
D280*
X460971Y-80478D02*
D03*
D03*
D281*
X448621D02*
D03*
D03*
D282*
X364171D02*
D03*
D03*
D283*
X329971D02*
D03*
D03*
D284*
X448621Y-80828D02*
D03*
D03*
D285*
X417821Y-80778D02*
D03*
D03*
D286*
X450771Y-81128D02*
D03*
D03*
D287*
X442621D02*
D03*
D03*
D288*
X417471D02*
D03*
D03*
D289*
X364021D02*
D03*
D03*
D290*
X330221Y-81178D02*
D03*
D03*
D291*
X379771Y-81543D02*
D03*
D03*
D292*
X314721Y-69628D02*
D03*
D03*
D293*
X454421Y-81827D02*
D03*
D03*
D294*
X449621D02*
D03*
D03*
D295*
X442071D02*
D03*
D03*
D296*
X364321Y-81707D02*
D03*
D03*
D297*
X454621Y-82191D02*
D03*
X448621D02*
D03*
Y-82524D02*
D03*
X454621Y-82191D02*
D03*
X448621D02*
D03*
Y-82524D02*
D03*
D298*
X441971Y-82191D02*
D03*
X448271Y-84522D02*
D03*
X441971Y-82191D02*
D03*
X448271Y-84522D02*
D03*
D299*
X454721Y-82524D02*
D03*
D03*
D300*
X441971D02*
D03*
D03*
D301*
X454821Y-82858D02*
D03*
D03*
D302*
X448471Y-82895D02*
D03*
D03*
D303*
X454921Y-83191D02*
D03*
D03*
D304*
X448471D02*
D03*
D03*
D305*
X455121Y-83523D02*
D03*
D03*
D306*
X448471D02*
D03*
D03*
D307*
X455171Y-83856D02*
D03*
D03*
D308*
X448521D02*
D03*
D03*
D309*
X454921Y-84236D02*
D03*
D03*
D310*
X448421Y-84189D02*
D03*
D03*
D311*
X448271Y-84924D02*
D03*
D03*
D312*
X364317Y-59178D02*
D03*
D313*
X460562Y-59828D02*
D03*
D314*
X449498D02*
D03*
D315*
X327804Y-63178D02*
D03*
D316*
X459688Y-65478D02*
D03*
D317*
X328154Y-66178D02*
D03*
D318*
X327224Y-67828D02*
D03*
D319*
X439579Y-68828D02*
D03*
D320*
X439530Y-70478D02*
D03*
D321*
X441451Y-72478D02*
D03*
D322*
X390697Y-72828D02*
D03*
D323*
X326612Y-73828D02*
D03*
D324*
X354457Y-74478D02*
D03*
D325*
X328151Y-76428D02*
D03*
D326*
X451032Y-77828D02*
D03*
D327*
X328895Y-77928D02*
D03*
D328*
X329571Y-79544D02*
D03*
D329*
X460571Y-79842D02*
D03*
D342*
X129200Y51500D02*
D03*
X129300Y45500D02*
D03*
X129200Y57500D02*
D03*
X42500Y65000D02*
D03*
X129000Y92500D02*
D03*
Y86500D02*
D03*
X129200Y63500D02*
D03*
X169575Y119500D02*
D03*
Y107500D02*
D03*
Y113500D02*
D03*
Y101500D02*
D03*
D343*
X222500Y90500D02*
D03*
X279400Y134100D02*
D03*
X42500Y55000D02*
D03*
X47500Y60000D02*
D03*
Y50000D02*
D03*
X42500Y45000D02*
D03*
M02*
