G04 Layer_Color=32768*
%FSLAX25Y25*%
%MOIN*%
G70*
G01*
G75*
%ADD10C,0.00600*%
%ADD46C,0.01000*%
%ADD50C,0.00787*%
%ADD51C,0.00500*%
%ADD52R,0.19000X0.09500*%
%ADD53C,0.00200*%
%ADD54C,0.01180*%
%ADD55C,0.00700*%
%ADD56R,0.02000X0.07500*%
%ADD57R,0.17300X0.00300*%
%ADD58R,0.20400X0.00300*%
%ADD59R,0.07400X0.24300*%
%ADD60R,0.19900X0.00500*%
%ADD61R,0.00400X0.00300*%
%ADD62R,0.00700X0.00300*%
%ADD63R,0.00400X0.00333*%
%ADD64R,0.00300X0.00400*%
%ADD65R,0.00300X0.00300*%
%ADD66R,0.07400X0.00397*%
%ADD67R,0.07500X0.00390*%
%ADD68R,0.13000X0.00397*%
%ADD69R,0.01400X0.00300*%
%ADD70R,0.02300X0.00400*%
%ADD71R,0.02300X0.00300*%
%ADD72R,0.01600X0.00500*%
%ADD73R,0.02500X0.00300*%
%ADD74R,0.02300X0.00500*%
%ADD75R,0.03000X0.00400*%
%ADD76R,0.02900X0.00400*%
%ADD77R,0.03000X0.00300*%
%ADD78R,0.03100X0.00400*%
%ADD79R,0.02800X0.00500*%
%ADD80R,0.03600X0.01300*%
%ADD81R,0.00900X0.00400*%
%ADD82R,0.03300X0.00300*%
%ADD83R,0.01700X0.00300*%
%ADD84R,0.03600X0.00300*%
%ADD85R,0.04600X0.00300*%
%ADD86R,0.09300X0.00400*%
%ADD87R,0.12800X0.00400*%
%ADD88R,0.08300X0.00400*%
%ADD89R,0.10000X0.00400*%
%ADD90R,0.14400X0.00400*%
%ADD91R,0.10300X0.00300*%
%ADD92R,0.14800X0.00300*%
%ADD93R,0.08500X0.00300*%
%ADD94R,0.12600X0.00300*%
%ADD95R,0.15800X0.00300*%
%ADD96R,0.11200X0.00400*%
%ADD97R,0.03500X0.00300*%
%ADD98R,0.16000X0.00300*%
%ADD99R,0.08900X0.00300*%
%ADD100R,0.14700X0.00300*%
%ADD101R,0.16700X0.00400*%
%ADD102R,0.15200X0.00400*%
%ADD103R,0.16800X0.00400*%
%ADD104R,0.17000X0.00400*%
%ADD105R,0.17500X0.00500*%
%ADD106R,0.01200X0.00400*%
%ADD107R,0.15000X0.00300*%
%ADD108R,0.09300X0.00300*%
%ADD109R,0.18000X0.00300*%
%ADD110R,0.17800X0.00400*%
%ADD111R,0.01700X0.00400*%
%ADD112R,0.15700X0.00300*%
%ADD113R,0.18600X0.00300*%
%ADD114R,0.09700X0.00300*%
%ADD115R,0.18700X0.00300*%
%ADD116R,0.18300X0.00400*%
%ADD117R,0.02800X0.00600*%
%ADD118R,0.15700X0.00400*%
%ADD119R,0.19000X0.00400*%
%ADD120R,0.19300X0.00400*%
%ADD121R,0.18800X0.00500*%
%ADD122R,0.03900X0.00400*%
%ADD123R,0.16400X0.00300*%
%ADD124R,0.19600X0.00300*%
%ADD125R,0.19700X0.00300*%
%ADD126R,0.19000X0.00300*%
%ADD127R,0.20700X0.00300*%
%ADD128R,0.20100X0.00300*%
%ADD129R,0.10600X0.00300*%
%ADD130R,0.20000X0.00300*%
%ADD131R,0.19400X0.00300*%
%ADD132R,0.20300X0.00400*%
%ADD133R,0.10900X0.00400*%
%ADD134R,0.20500X0.00400*%
%ADD135R,0.19500X0.00400*%
%ADD136R,0.20600X0.00300*%
%ADD137R,0.11100X0.00300*%
%ADD138R,0.20800X0.00300*%
%ADD139R,0.21000X0.00300*%
%ADD140R,0.11300X0.00300*%
%ADD141R,0.21100X0.00300*%
%ADD142R,0.19800X0.00300*%
%ADD143R,0.20700X0.00400*%
%ADD144R,0.00600X0.00400*%
%ADD145R,0.21400X0.00400*%
%ADD146R,0.11700X0.00400*%
%ADD147R,0.21300X0.00400*%
%ADD148R,0.20100X0.00400*%
%ADD149R,0.02200X0.00400*%
%ADD150R,0.21700X0.00300*%
%ADD151R,0.12000X0.00300*%
%ADD152R,0.20200X0.00300*%
%ADD153R,0.03400X0.00300*%
%ADD154R,0.12700X0.00300*%
%ADD155R,0.12300X0.00300*%
%ADD156R,0.05900X0.00400*%
%ADD157R,0.09900X0.00300*%
%ADD158R,0.24200X0.00400*%
%ADD159R,0.12600X0.00400*%
%ADD160R,0.04100X0.00500*%
%ADD161R,0.10800X0.00400*%
%ADD162R,0.08600X0.00400*%
%ADD163R,0.24300X0.00300*%
%ADD164R,0.12900X0.00300*%
%ADD165R,0.03200X0.00300*%
%ADD166R,0.10000X0.00300*%
%ADD167R,0.07900X0.00300*%
%ADD168R,0.24500X0.00300*%
%ADD169R,0.08300X0.00300*%
%ADD170R,0.13300X0.00300*%
%ADD171R,0.02200X0.00500*%
%ADD172R,0.07800X0.00300*%
%ADD173R,0.10400X0.00400*%
%ADD174R,0.13000X0.00400*%
%ADD175R,0.08400X0.00400*%
%ADD176R,0.13700X0.00400*%
%ADD177R,0.01300X0.00400*%
%ADD178R,0.09400X0.00400*%
%ADD179R,0.07900X0.00400*%
%ADD180R,0.09100X0.00400*%
%ADD181R,0.11000X0.00300*%
%ADD182R,0.08000X0.00300*%
%ADD183R,0.13800X0.00300*%
%ADD184R,0.01100X0.00300*%
%ADD185R,0.09000X0.00300*%
%ADD186R,0.07600X0.00300*%
%ADD187R,0.08400X0.00300*%
%ADD188R,0.06700X0.00300*%
%ADD189R,0.07000X0.00300*%
%ADD190R,0.07700X0.00300*%
%ADD191R,0.07700X0.00400*%
%ADD192R,0.07000X0.00400*%
%ADD193R,0.06700X0.00400*%
%ADD194R,0.08700X0.00400*%
%ADD195R,0.07500X0.00300*%
%ADD196R,0.06600X0.00300*%
%ADD197R,0.08600X0.00300*%
%ADD198R,0.06900X0.00300*%
%ADD199R,0.07400X0.00300*%
%ADD200R,0.10600X0.00400*%
%ADD201R,0.07100X0.00400*%
%ADD202R,0.07300X0.00400*%
%ADD203R,0.06600X0.00400*%
%ADD204R,0.08000X0.00400*%
%ADD205R,0.10400X0.00300*%
%ADD206R,0.07200X0.00300*%
%ADD207R,0.06800X0.00300*%
%ADD208R,0.07300X0.00300*%
%ADD209R,0.06900X0.00400*%
%ADD210R,0.07400X0.00400*%
%ADD211R,0.07100X0.00300*%
%ADD212R,0.06300X0.00400*%
%ADD213R,0.08100X0.00400*%
%ADD214R,0.11600X0.00300*%
%ADD215R,0.06400X0.00300*%
%ADD216R,0.08700X0.00300*%
%ADD217R,0.07200X0.00400*%
%ADD218R,0.09700X0.04700*%
%ADD219R,0.18900X0.00600*%
%ADD220R,0.09400X0.00300*%
%ADD221R,0.09200X0.00300*%
%ADD222R,0.18800X0.00300*%
%ADD223R,0.06400X0.00400*%
%ADD224R,0.09500X0.00400*%
%ADD225R,0.07800X0.00400*%
%ADD226R,0.18800X0.00400*%
%ADD227R,0.18200X0.00400*%
%ADD228R,0.17700X0.00300*%
%ADD229R,0.09000X0.00400*%
%ADD230R,0.07500X0.00400*%
%ADD231R,0.17200X0.00500*%
%ADD232R,0.16900X0.00600*%
%ADD233R,0.08400X0.00500*%
%ADD234R,0.06500X0.00400*%
%ADD235R,0.09100X0.00300*%
%ADD236R,0.17900X0.00300*%
%ADD237R,0.09600X0.00300*%
%ADD238R,0.06658X0.00300*%
%ADD239R,0.08800X0.00500*%
%ADD240R,0.10100X0.00400*%
%ADD241R,0.22000X0.00300*%
%ADD242R,0.06300X0.07000*%
%ADD243R,0.08100X0.00300*%
%ADD244R,0.22300X0.00400*%
%ADD245R,0.10900X0.00300*%
%ADD246R,0.22600X0.00300*%
%ADD247R,0.22900X0.00300*%
%ADD248R,0.09700X0.00400*%
%ADD249R,0.23300X0.00400*%
%ADD250R,0.08200X0.00400*%
%ADD251R,0.23500X0.00300*%
%ADD252R,0.23800X0.00500*%
%ADD253R,0.24500X0.00400*%
%ADD254R,0.24000X0.00400*%
%ADD255R,0.24600X0.00300*%
%ADD256R,0.08900X0.00400*%
%ADD257R,0.01000X0.00400*%
%ADD258R,0.07600X0.00400*%
%ADD259R,0.21700X0.00400*%
%ADD260R,0.21600X0.00300*%
%ADD261R,0.20500X0.00300*%
%ADD262R,0.00600X0.00300*%
%ADD263R,0.21900X0.00300*%
%ADD264R,0.21100X0.00400*%
%ADD265R,0.20400X0.00400*%
%ADD266R,0.22000X0.00400*%
%ADD267R,0.21000X0.00400*%
%ADD268R,0.07900X0.00600*%
%ADD269R,0.21500X0.00300*%
%ADD270R,0.20200X0.00400*%
%ADD271R,0.20300X0.00300*%
%ADD272R,0.20300X0.00500*%
%ADD273R,0.07500X0.00500*%
%ADD274R,0.19600X0.00400*%
%ADD275R,0.03700X0.00300*%
%ADD276R,0.19200X0.00300*%
%ADD277R,0.02600X0.00300*%
%ADD278R,0.19900X0.00300*%
%ADD279R,0.15400X0.00400*%
%ADD280R,0.00800X0.00300*%
%ADD281R,0.15300X0.00300*%
%ADD282R,0.17000X0.00300*%
%ADD283R,0.08200X0.00300*%
%ADD284R,0.15300X0.00400*%
%ADD285R,0.18300X0.00300*%
%ADD286R,0.11000X0.00400*%
%ADD287R,0.03300X0.00400*%
%ADD288R,0.17600X0.00400*%
%ADD289R,0.13300X0.00400*%
%ADD290R,0.07900X0.00500*%
%ADD291R,0.07400X0.00430*%
%ADD292R,0.07300X0.24000*%
%ADD293R,0.03700X0.00397*%
%ADD294R,0.05300X0.00397*%
%ADD295R,0.03000X0.00397*%
%ADD296R,0.06700X0.00356*%
%ADD297R,0.03300X0.00333*%
%ADD298R,0.02000X0.00333*%
%ADD299R,0.03100X0.00333*%
%ADD300R,0.01200X0.00333*%
%ADD301R,0.02900X0.00333*%
%ADD302R,0.03000X0.00408*%
%ADD303R,0.02700X0.00333*%
%ADD304R,0.03000X0.00333*%
%ADD305R,0.02300X0.00333*%
%ADD306R,0.03000X0.00333*%
%ADD307R,0.02200X0.00333*%
%ADD308R,0.02500X0.00333*%
%ADD309R,0.01300X0.00426*%
%ADD310R,0.02300X0.00333*%
%ADD311R,0.02000X0.00469*%
%ADD312R,0.18109X0.00300*%
%ADD313R,0.02983X0.00600*%
%ADD314R,0.16055X0.00400*%
%ADD315R,0.08066X0.00300*%
%ADD316R,0.10834X0.00300*%
%ADD317R,0.07366X0.00300*%
%ADD318R,0.08294X0.00400*%
%ADD319R,0.09383X0.00400*%
%ADD320R,0.09283X0.00300*%
%ADD321R,0.06560X0.00300*%
%ADD322R,0.21453X0.00400*%
%ADD323R,0.08482X0.00400*%
%ADD324R,0.08428X0.00300*%
%ADD325R,0.08160X0.00400*%
%ADD326R,0.20477X0.00400*%
%ADD327R,0.08049X0.00600*%
%ADD328R,0.08000X0.00432*%
%ADD329R,0.02600X0.00427*%
%ADD387C,0.01500*%
%ADD388C,0.00100*%
G36*
X345861Y-71286D02*
X346192Y-71507D01*
X346413Y-71838D01*
X346491Y-72228D01*
X346471D01*
X346491Y-80728D01*
X346413Y-81119D01*
X346192Y-81449D01*
X345861Y-81670D01*
X345471Y-81748D01*
Y-81728D01*
X337471Y-81748D01*
X337081Y-81670D01*
X336750Y-81449D01*
X336529Y-81119D01*
X336451Y-80728D01*
X336471D01*
X336451Y-72228D01*
X336529Y-71838D01*
X336750Y-71507D01*
X337081Y-71286D01*
X337471Y-71209D01*
Y-71228D01*
X345471Y-71209D01*
X345861Y-71286D01*
D02*
G37*
D10*
X148907Y247899D02*
X149907Y248899D01*
X151906D01*
X152906Y247899D01*
Y246900D01*
X151906Y245900D01*
X150907D01*
X151906D01*
X152906Y244900D01*
Y243901D01*
X151906Y242901D01*
X149907D01*
X148907Y243901D01*
X157904Y242901D02*
Y248899D01*
X154905Y245900D01*
X158904D01*
X164902Y248899D02*
X160903D01*
Y245900D01*
X162903Y246900D01*
X163902D01*
X164902Y245900D01*
Y243901D01*
X163902Y242901D01*
X161903D01*
X160903Y243901D01*
X166901Y247899D02*
X167901Y248899D01*
X169900D01*
X170900Y247899D01*
Y243901D01*
X169900Y242901D01*
X167901D01*
X166901Y243901D01*
Y247899D01*
X172899Y242901D02*
Y246900D01*
X173899D01*
X174899Y245900D01*
Y242901D01*
Y245900D01*
X175898Y246900D01*
X176898Y245900D01*
Y242901D01*
X178897D02*
X180897D01*
X179897D01*
Y246900D01*
X178897D01*
X183896Y242901D02*
X185895D01*
X184896D01*
Y248899D01*
X183896D01*
X188894Y242901D02*
X191893D01*
X192893Y243901D01*
X191893Y244900D01*
X189894D01*
X188894Y245900D01*
X189894Y246900D01*
X192893D01*
X-24801Y90406D02*
Y86407D01*
X-28800Y90406D01*
X-29799D01*
X-30799Y89406D01*
Y87407D01*
X-29799Y86407D01*
X-24801Y96404D02*
Y92405D01*
X-28800Y96404D01*
X-29799D01*
X-30799Y95404D01*
Y93405D01*
X-29799Y92405D01*
Y98403D02*
X-30799Y99403D01*
Y101402D01*
X-29799Y102402D01*
X-25801D01*
X-24801Y101402D01*
Y99403D01*
X-25801Y98403D01*
X-29799D01*
Y104401D02*
X-30799Y105401D01*
Y107400D01*
X-29799Y108400D01*
X-25801D01*
X-24801Y107400D01*
Y105401D01*
X-25801Y104401D01*
X-29799D01*
X-24801Y110399D02*
X-28800D01*
Y111399D01*
X-27800Y112399D01*
X-24801D01*
X-27800D01*
X-28800Y113398D01*
X-27800Y114398D01*
X-24801D01*
Y116397D02*
Y118397D01*
Y117397D01*
X-28800D01*
Y116397D01*
X-24801Y121396D02*
Y123395D01*
Y122396D01*
X-30799D01*
Y121396D01*
X-24801Y126394D02*
Y129393D01*
X-25801Y130393D01*
X-26800Y129393D01*
Y127394D01*
X-27800Y126394D01*
X-28800Y127394D01*
Y130393D01*
D46*
X345000Y159300D02*
Y247500D01*
X0Y216100D02*
Y247500D01*
X194493Y246500D02*
X345000D01*
X0D02*
X147307D01*
X339000Y248500D02*
X345000Y246500D01*
X339000Y244500D02*
X345000Y246500D01*
X0D02*
X6000Y244500D01*
X0Y246500D02*
X6000Y248500D01*
X-29400Y220000D02*
X3900D01*
X-29400Y0D02*
X3900D01*
X-28400Y131993D02*
Y220000D01*
Y0D02*
Y84807D01*
X-30400Y214000D02*
X-28400Y220000D01*
X-26400Y214000D01*
X-28400Y0D02*
X-26400Y6000D01*
X-30400D02*
X-28400Y0D01*
X-122000Y539365D02*
X-121167Y540198D01*
X-119501D01*
X-118668Y539365D01*
Y538532D01*
X-119501Y537699D01*
X-118668Y536866D01*
Y536033D01*
X-119501Y535200D01*
X-121167D01*
X-122000Y536033D01*
Y536866D01*
X-121167Y537699D01*
X-122000Y538532D01*
Y539365D01*
X-121167Y537699D02*
X-119501D01*
X-117002Y535200D02*
Y536033D01*
X-116169D01*
Y535200D01*
X-117002D01*
X-107838Y540198D02*
Y535200D01*
X-105339D01*
X-104506Y536033D01*
Y536866D01*
X-105339Y537699D01*
X-107838D01*
X-105339D01*
X-104506Y538532D01*
Y539365D01*
X-105339Y540198D01*
X-107838D01*
X-102006Y535200D02*
X-100340D01*
X-99507Y536033D01*
Y537699D01*
X-100340Y538532D01*
X-102006D01*
X-102840Y537699D01*
Y536033D01*
X-102006Y535200D01*
X-97008Y538532D02*
X-95342D01*
X-94509Y537699D01*
Y535200D01*
X-97008D01*
X-97841Y536033D01*
X-97008Y536866D01*
X-94509D01*
X-92843Y538532D02*
Y535200D01*
Y536866D01*
X-92010Y537699D01*
X-91177Y538532D01*
X-90344D01*
X-84512Y540198D02*
Y535200D01*
X-87011D01*
X-87844Y536033D01*
Y537699D01*
X-87011Y538532D01*
X-84512D01*
X-77848Y535200D02*
X-75349D01*
X-74515Y536033D01*
X-75349Y536866D01*
X-77015D01*
X-77848Y537699D01*
X-77015Y538532D01*
X-74515D01*
X-72849Y540198D02*
Y535200D01*
Y537699D01*
X-72016Y538532D01*
X-70350D01*
X-69517Y537699D01*
Y535200D01*
X-67018D02*
X-65352D01*
X-64519Y536033D01*
Y537699D01*
X-65352Y538532D01*
X-67018D01*
X-67851Y537699D01*
Y536033D01*
X-67018Y535200D01*
X-62853Y538532D02*
Y536033D01*
X-62019Y535200D01*
X-59520D01*
Y538532D01*
X-57854Y535200D02*
X-56188D01*
X-57021D01*
Y540198D01*
X-57854D01*
X-50357D02*
Y535200D01*
X-52856D01*
X-53689Y536033D01*
Y537699D01*
X-52856Y538532D01*
X-50357D01*
X-43692Y540198D02*
Y535200D01*
X-41193D01*
X-40360Y536033D01*
Y536866D01*
Y537699D01*
X-41193Y538532D01*
X-43692D01*
X-36195Y535200D02*
X-37861D01*
X-38694Y536033D01*
Y537699D01*
X-37861Y538532D01*
X-36195D01*
X-35361Y537699D01*
Y536866D01*
X-38694D01*
X-28697Y533534D02*
Y538532D01*
X-26198D01*
X-25365Y537699D01*
Y536033D01*
X-26198Y535200D01*
X-28697D01*
X-22865Y538532D02*
X-21199D01*
X-20366Y537699D01*
Y535200D01*
X-22865D01*
X-23698Y536033D01*
X-22865Y536866D01*
X-20366D01*
X-18700Y535200D02*
Y538532D01*
X-16201D01*
X-15368Y537699D01*
Y535200D01*
X-11203D02*
X-12869D01*
X-13702Y536033D01*
Y537699D01*
X-12869Y538532D01*
X-11203D01*
X-10369Y537699D01*
Y536866D01*
X-13702D01*
X-8703Y535200D02*
X-7037D01*
X-7870D01*
Y540198D01*
X-8703D01*
X-4538Y535200D02*
X-2872D01*
X-3705D01*
Y538532D01*
X-4538D01*
X-373D02*
X2960D01*
X-373Y535200D01*
X2960D01*
X7125D02*
X5459D01*
X4626Y536033D01*
Y537699D01*
X5459Y538532D01*
X7125D01*
X7958Y537699D01*
Y536866D01*
X4626D01*
X12956Y540198D02*
Y535200D01*
X10457D01*
X9624Y536033D01*
Y537699D01*
X10457Y538532D01*
X12956D01*
X19621Y535200D02*
X21287D01*
X20454D01*
Y538532D01*
X19621D01*
X23786Y535200D02*
Y538532D01*
X26285D01*
X27118Y537699D01*
Y535200D01*
X29618Y539365D02*
Y538532D01*
X28784D01*
X30451D01*
X29618D01*
Y536033D01*
X30451Y535200D01*
X33783D02*
X35449D01*
X36282Y536033D01*
Y537699D01*
X35449Y538532D01*
X33783D01*
X32950Y537699D01*
Y536033D01*
X33783Y535200D01*
X46279D02*
X42947D01*
X46279Y538532D01*
Y539365D01*
X45446Y540198D01*
X43780D01*
X42947Y539365D01*
X52943Y538532D02*
X56276Y535200D01*
X54610Y536866D01*
X56276Y538532D01*
X52943Y535200D01*
X66272D02*
X62940D01*
X66272Y538532D01*
Y539365D01*
X65439Y540198D01*
X63773D01*
X62940Y539365D01*
X73770Y538532D02*
X75436D01*
X76269Y537699D01*
Y535200D01*
X73770D01*
X72937Y536033D01*
X73770Y536866D01*
X76269D01*
X77935Y538532D02*
Y535200D01*
Y536866D01*
X78768Y537699D01*
X79601Y538532D01*
X80434D01*
X82934D02*
Y535200D01*
Y536866D01*
X83767Y537699D01*
X84600Y538532D01*
X85433D01*
X88765D02*
X90431D01*
X91264Y537699D01*
Y535200D01*
X88765D01*
X87932Y536033D01*
X88765Y536866D01*
X91264D01*
X92930Y538532D02*
Y536033D01*
X93763Y535200D01*
X96263D01*
Y534367D01*
X95429Y533534D01*
X94596D01*
X96263Y535200D02*
Y538532D01*
X97929Y535200D02*
Y536033D01*
X98762D01*
Y535200D01*
X97929D01*
X107092D02*
Y540198D01*
X109592D01*
X110425Y539365D01*
Y537699D01*
X109592Y536866D01*
X107092D01*
X108759D02*
X110425Y535200D01*
X112924D02*
X114590D01*
X115423Y536033D01*
Y537699D01*
X114590Y538532D01*
X112924D01*
X112091Y537699D01*
Y536033D01*
X112924Y535200D01*
X117089Y538532D02*
Y536033D01*
X117922Y535200D01*
X120422D01*
Y538532D01*
X122921Y539365D02*
Y538532D01*
X122088D01*
X123754D01*
X122921D01*
Y536033D01*
X123754Y535200D01*
X128752D02*
X127086D01*
X126253Y536033D01*
Y537699D01*
X127086Y538532D01*
X128752D01*
X129585Y537699D01*
Y536866D01*
X126253D01*
X134583Y540198D02*
Y535200D01*
X132084D01*
X131251Y536033D01*
Y537699D01*
X132084Y538532D01*
X134583D01*
X141248D02*
Y536033D01*
X142081Y535200D01*
X142914Y536033D01*
X143747Y535200D01*
X144580Y536033D01*
Y538532D01*
X146246Y535200D02*
X147913D01*
X147080D01*
Y538532D01*
X146246D01*
X151245Y539365D02*
Y538532D01*
X150412D01*
X152078D01*
X151245D01*
Y536033D01*
X152078Y535200D01*
X154577Y540198D02*
Y535200D01*
Y537699D01*
X155410Y538532D01*
X157076D01*
X157909Y537699D01*
Y535200D01*
X164574D02*
Y538532D01*
X165407D01*
X166240Y537699D01*
Y535200D01*
Y537699D01*
X167073Y538532D01*
X167906Y537699D01*
Y535200D01*
X170405D02*
X172071D01*
X172905Y536033D01*
Y537699D01*
X172071Y538532D01*
X170405D01*
X169572Y537699D01*
Y536033D01*
X170405Y535200D01*
X174571Y538532D02*
Y536033D01*
X175404Y535200D01*
X177903D01*
Y538532D01*
X179569Y535200D02*
X182068D01*
X182901Y536033D01*
X182068Y536866D01*
X180402D01*
X179569Y537699D01*
X180402Y538532D01*
X182901D01*
X187066Y535200D02*
X185400D01*
X184567Y536033D01*
Y537699D01*
X185400Y538532D01*
X187066D01*
X187900Y537699D01*
Y536866D01*
X184567D01*
X189566Y537699D02*
X192898D01*
X194564Y540198D02*
Y535200D01*
X197063D01*
X197896Y536033D01*
Y536866D01*
Y537699D01*
X197063Y538532D01*
X194564D01*
X199563Y535200D02*
X201229D01*
X200395D01*
Y538532D01*
X199563D01*
X204561Y539365D02*
Y538532D01*
X203728D01*
X205394D01*
X204561D01*
Y536033D01*
X205394Y535200D01*
X210392D02*
X208726D01*
X207893Y536033D01*
Y537699D01*
X208726Y538532D01*
X210392D01*
X211225Y537699D01*
Y536866D01*
X207893D01*
X212892Y535200D02*
X215391D01*
X216224Y536033D01*
X215391Y536866D01*
X213725D01*
X212892Y537699D01*
X213725Y538532D01*
X216224D01*
X739908Y550198D02*
Y544200D01*
X742907D01*
X743906Y545200D01*
Y546199D01*
X742907Y547199D01*
X739908D01*
X742907D01*
X743906Y548199D01*
Y549198D01*
X742907Y550198D01*
X739908D01*
X746906Y544200D02*
X748905D01*
X749905Y545200D01*
Y547199D01*
X748905Y548199D01*
X746906D01*
X745906Y547199D01*
Y545200D01*
X746906Y544200D01*
X752904Y548199D02*
X754903D01*
X755903Y547199D01*
Y544200D01*
X752904D01*
X751904Y545200D01*
X752904Y546199D01*
X755903D01*
X757902Y548199D02*
Y544200D01*
Y546199D01*
X758902Y547199D01*
X759901Y548199D01*
X760901D01*
X767899Y550198D02*
Y544200D01*
X764900D01*
X763900Y545200D01*
Y547199D01*
X764900Y548199D01*
X767899D01*
X775896Y550198D02*
Y544200D01*
X779895D01*
X782894Y548199D02*
X784893D01*
X785893Y547199D01*
Y544200D01*
X782894D01*
X781894Y545200D01*
X782894Y546199D01*
X785893D01*
X787892Y548199D02*
Y545200D01*
X788892Y544200D01*
X791891D01*
Y543200D01*
X790891Y542201D01*
X789892D01*
X791891Y544200D02*
Y548199D01*
X796889Y544200D02*
X794890D01*
X793890Y545200D01*
Y547199D01*
X794890Y548199D01*
X796889D01*
X797889Y547199D01*
Y546199D01*
X793890D01*
X799888Y548199D02*
Y544200D01*
Y546199D01*
X800888Y547199D01*
X801888Y548199D01*
X802887D01*
X815883Y549198D02*
X814884Y550198D01*
X812884D01*
X811884Y549198D01*
Y548199D01*
X812884Y547199D01*
X814884D01*
X815883Y546199D01*
Y545200D01*
X814884Y544200D01*
X812884D01*
X811884Y545200D01*
X818882Y549198D02*
Y548199D01*
X817883D01*
X819882D01*
X818882D01*
Y545200D01*
X819882Y544200D01*
X823881Y548199D02*
X825880D01*
X826880Y547199D01*
Y544200D01*
X823881D01*
X822881Y545200D01*
X823881Y546199D01*
X826880D01*
X832878Y548199D02*
X829879D01*
X828879Y547199D01*
Y545200D01*
X829879Y544200D01*
X832878D01*
X834877D02*
Y550198D01*
Y546199D02*
X837876Y548199D01*
X834877Y546199D02*
X837876Y544200D01*
X682922Y525198D02*
X683921Y526198D01*
X685921D01*
X686920Y525198D01*
Y524199D01*
X685921Y523199D01*
X684921D01*
X685921D01*
X686920Y522199D01*
Y521200D01*
X685921Y520200D01*
X683921D01*
X682922Y521200D01*
X688920Y520200D02*
Y521200D01*
X689920D01*
Y520200D01*
X688920D01*
X697917Y526198D02*
X693918D01*
Y523199D01*
X695918Y524199D01*
X696917D01*
X697917Y523199D01*
Y521200D01*
X696917Y520200D01*
X694918D01*
X693918Y521200D01*
X685921Y496200D02*
Y502198D01*
X682922Y499199D01*
X686920D01*
X688920Y496200D02*
Y497200D01*
X689920D01*
Y496200D01*
X688920D01*
X697917D02*
X693918D01*
X697917Y500199D01*
Y501198D01*
X696917Y502198D01*
X694918D01*
X693918Y501198D01*
X685921Y472200D02*
Y478198D01*
X682922Y475199D01*
X686920D01*
X688920Y472200D02*
Y473200D01*
X689920D01*
Y472200D01*
X688920D01*
X697917D02*
X693918D01*
X697917Y476199D01*
Y477198D01*
X696917Y478198D01*
X694918D01*
X693918Y477198D01*
X685921Y448200D02*
Y454198D01*
X682922Y451199D01*
X686920D01*
X688920Y448200D02*
Y449200D01*
X689920D01*
Y448200D01*
X688920D01*
X697917D02*
X693918D01*
X697917Y452199D01*
Y453198D01*
X696917Y454198D01*
X694918D01*
X693918Y453198D01*
X682922Y429198D02*
X683921Y430198D01*
X685921D01*
X686920Y429198D01*
Y428199D01*
X685921Y427199D01*
X684921D01*
X685921D01*
X686920Y426199D01*
Y425200D01*
X685921Y424200D01*
X683921D01*
X682922Y425200D01*
X688920Y424200D02*
Y425200D01*
X689920D01*
Y424200D01*
X688920D01*
X697917Y430198D02*
X693918D01*
Y427199D01*
X695918Y428199D01*
X696917D01*
X697917Y427199D01*
Y425200D01*
X696917Y424200D01*
X694918D01*
X693918Y425200D01*
X686920Y549198D02*
X685921Y550198D01*
X683921D01*
X682922Y549198D01*
Y545200D01*
X683921Y544200D01*
X685921D01*
X686920Y545200D01*
X689920Y544200D02*
X691919D01*
X692918Y545200D01*
Y547199D01*
X691919Y548199D01*
X689920D01*
X688920Y547199D01*
Y545200D01*
X689920Y544200D01*
X694918D02*
Y548199D01*
X697917D01*
X698917Y547199D01*
Y544200D01*
X700916D02*
X703915D01*
X704915Y545200D01*
X703915Y546199D01*
X701916D01*
X700916Y547199D01*
X701916Y548199D01*
X704915D01*
X707914Y549198D02*
Y548199D01*
X706914D01*
X708913D01*
X707914D01*
Y545200D01*
X708913Y544200D01*
X712912Y548199D02*
X714911D01*
X715911Y547199D01*
Y544200D01*
X712912D01*
X711912Y545200D01*
X712912Y546199D01*
X715911D01*
X717910Y544200D02*
Y548199D01*
X720909D01*
X721909Y547199D01*
Y544200D01*
X724908Y549198D02*
Y548199D01*
X723909D01*
X725908D01*
X724908D01*
Y545200D01*
X725908Y544200D01*
X617938Y525198D02*
X618938Y526198D01*
X620937D01*
X621937Y525198D01*
Y521200D01*
X620937Y520200D01*
X618938D01*
X617938Y521200D01*
Y525198D01*
X623936Y520200D02*
Y521200D01*
X624936D01*
Y520200D01*
X623936D01*
X632933Y526198D02*
X628935D01*
Y523199D01*
X630934Y524199D01*
X631934D01*
X632933Y523199D01*
Y521200D01*
X631934Y520200D01*
X629934D01*
X628935Y521200D01*
X634933Y525198D02*
X635932Y526198D01*
X637932D01*
X638931Y525198D01*
Y521200D01*
X637932Y520200D01*
X635932D01*
X634933Y521200D01*
Y525198D01*
X640931Y520200D02*
Y524199D01*
X641930D01*
X642930Y523199D01*
Y520200D01*
Y523199D01*
X643930Y524199D01*
X644930Y523199D01*
Y520200D01*
X646929D02*
X648928D01*
X647928D01*
Y524199D01*
X646929D01*
X651927Y520200D02*
X653927D01*
X652927D01*
Y526198D01*
X651927D01*
X617938Y508200D02*
X619938D01*
X618938D01*
Y514198D01*
X617938Y513198D01*
X622937Y508200D02*
Y509200D01*
X623936D01*
Y508200D01*
X622937D01*
X627935Y514198D02*
X631934D01*
Y513198D01*
X627935Y509200D01*
Y508200D01*
X633933Y513198D02*
X634933Y514198D01*
X636932D01*
X637932Y513198D01*
Y509200D01*
X636932Y508200D01*
X634933D01*
X633933Y509200D01*
Y513198D01*
X639931Y508200D02*
Y512199D01*
X640931D01*
X641930Y511199D01*
Y508200D01*
Y511199D01*
X642930Y512199D01*
X643930Y511199D01*
Y508200D01*
X645929D02*
X647928D01*
X646929D01*
Y512199D01*
X645929D01*
X650927Y508200D02*
X652927D01*
X651927D01*
Y514198D01*
X650927D01*
X620937Y496200D02*
Y502198D01*
X617938Y499199D01*
X621937D01*
X623936Y496200D02*
Y497200D01*
X624936D01*
Y496200D01*
X623936D01*
X632933Y502198D02*
X628935D01*
Y499199D01*
X630934Y500199D01*
X631934D01*
X632933Y499199D01*
Y497200D01*
X631934Y496200D01*
X629934D01*
X628935Y497200D01*
X634933Y501198D02*
X635932Y502198D01*
X637932D01*
X638931Y501198D01*
Y497200D01*
X637932Y496200D01*
X635932D01*
X634933Y497200D01*
Y501198D01*
X640931Y496200D02*
Y500199D01*
X641930D01*
X642930Y499199D01*
Y496200D01*
Y499199D01*
X643930Y500199D01*
X644930Y499199D01*
Y496200D01*
X646929D02*
X648928D01*
X647928D01*
Y500199D01*
X646929D01*
X651927Y496200D02*
X653927D01*
X652927D01*
Y502198D01*
X651927D01*
X617938Y484200D02*
X619938D01*
X618938D01*
Y490198D01*
X617938Y489198D01*
X622937Y484200D02*
Y485200D01*
X623936D01*
Y484200D01*
X622937D01*
X630934D02*
Y490198D01*
X627935Y487199D01*
X631934D01*
X633933Y489198D02*
X634933Y490198D01*
X636932D01*
X637932Y489198D01*
Y485200D01*
X636932Y484200D01*
X634933D01*
X633933Y485200D01*
Y489198D01*
X639931Y484200D02*
Y488199D01*
X640931D01*
X641930Y487199D01*
Y484200D01*
Y487199D01*
X642930Y488199D01*
X643930Y487199D01*
Y484200D01*
X645929D02*
X647928D01*
X646929D01*
Y488199D01*
X645929D01*
X650927Y484200D02*
X652927D01*
X651927D01*
Y490198D01*
X650927D01*
X620937Y472200D02*
Y478198D01*
X617938Y475199D01*
X621937D01*
X623936Y478198D02*
X627935D01*
Y477198D01*
X623936Y473200D01*
Y472200D01*
X629934D02*
Y473200D01*
X630934D01*
Y472200D01*
X629934D01*
X634933Y477198D02*
X635932Y478198D01*
X637932D01*
X638931Y477198D01*
Y473200D01*
X637932Y472200D01*
X635932D01*
X634933Y473200D01*
Y477198D01*
X640931D02*
X641930Y478198D01*
X643930D01*
X644930Y477198D01*
Y473200D01*
X643930Y472200D01*
X641930D01*
X640931Y473200D01*
Y477198D01*
X646929Y472200D02*
Y476199D01*
X647928D01*
X648928Y475199D01*
Y472200D01*
Y475199D01*
X649928Y476199D01*
X650927Y475199D01*
Y472200D01*
X652927D02*
X654926D01*
X653927D01*
Y476199D01*
X652927D01*
X657925Y472200D02*
X659925D01*
X658925D01*
Y478198D01*
X657925D01*
X617938Y460200D02*
X619938D01*
X618938D01*
Y466198D01*
X617938Y465198D01*
X622937Y460200D02*
Y461200D01*
X623936D01*
Y460200D01*
X622937D01*
X630934D02*
Y466198D01*
X627935Y463199D01*
X631934D01*
X633933Y465198D02*
X634933Y466198D01*
X636932D01*
X637932Y465198D01*
Y461200D01*
X636932Y460200D01*
X634933D01*
X633933Y461200D01*
Y465198D01*
X639931Y460200D02*
Y464199D01*
X640931D01*
X641930Y463199D01*
Y460200D01*
Y463199D01*
X642930Y464199D01*
X643930Y463199D01*
Y460200D01*
X645929D02*
X647928D01*
X646929D01*
Y464199D01*
X645929D01*
X650927Y460200D02*
X652927D01*
X651927D01*
Y466198D01*
X650927D01*
X620937Y448200D02*
Y454198D01*
X617938Y451199D01*
X621937D01*
X623936Y448200D02*
Y449200D01*
X624936D01*
Y448200D01*
X623936D01*
X632933Y454198D02*
X628935D01*
Y451199D01*
X630934Y452199D01*
X631934D01*
X632933Y451199D01*
Y449200D01*
X631934Y448200D01*
X629934D01*
X628935Y449200D01*
X634933Y453198D02*
X635932Y454198D01*
X637932D01*
X638931Y453198D01*
Y449200D01*
X637932Y448200D01*
X635932D01*
X634933Y449200D01*
Y453198D01*
X640931Y448200D02*
Y452199D01*
X641930D01*
X642930Y451199D01*
Y448200D01*
Y451199D01*
X643930Y452199D01*
X644930Y451199D01*
Y448200D01*
X646929D02*
X648928D01*
X647928D01*
Y452199D01*
X646929D01*
X651927Y448200D02*
X653927D01*
X652927D01*
Y454198D01*
X651927D01*
X617938Y436200D02*
X619938D01*
X618938D01*
Y442198D01*
X617938Y441198D01*
X622937Y436200D02*
Y437200D01*
X623936D01*
Y436200D01*
X622937D01*
X627935Y442198D02*
X631934D01*
Y441198D01*
X627935Y437200D01*
Y436200D01*
X633933Y441198D02*
X634933Y442198D01*
X636932D01*
X637932Y441198D01*
Y437200D01*
X636932Y436200D01*
X634933D01*
X633933Y437200D01*
Y441198D01*
X639931Y436200D02*
Y440199D01*
X640931D01*
X641930Y439199D01*
Y436200D01*
Y439199D01*
X642930Y440199D01*
X643930Y439199D01*
Y436200D01*
X645929D02*
X647928D01*
X646929D01*
Y440199D01*
X645929D01*
X650927Y436200D02*
X652927D01*
X651927D01*
Y442198D01*
X650927D01*
X617938Y429198D02*
X618938Y430198D01*
X620937D01*
X621937Y429198D01*
Y425200D01*
X620937Y424200D01*
X618938D01*
X617938Y425200D01*
Y429198D01*
X623936Y424200D02*
Y425200D01*
X624936D01*
Y424200D01*
X623936D01*
X632933Y430198D02*
X628935D01*
Y427199D01*
X630934Y428199D01*
X631934D01*
X632933Y427199D01*
Y425200D01*
X631934Y424200D01*
X629934D01*
X628935Y425200D01*
X634933Y429198D02*
X635932Y430198D01*
X637932D01*
X638931Y429198D01*
Y425200D01*
X637932Y424200D01*
X635932D01*
X634933Y425200D01*
Y429198D01*
X640931Y424200D02*
Y428199D01*
X641930D01*
X642930Y427199D01*
Y424200D01*
Y427199D01*
X643930Y428199D01*
X644930Y427199D01*
Y424200D01*
X646929D02*
X648928D01*
X647928D01*
Y428199D01*
X646929D01*
X651927Y424200D02*
X653927D01*
X652927D01*
Y430198D01*
X651927D01*
X617938Y550198D02*
X621937D01*
X619938D01*
Y544200D01*
X623936Y550198D02*
Y544200D01*
Y547199D01*
X624936Y548199D01*
X626935D01*
X627935Y547199D01*
Y544200D01*
X629934D02*
X631934D01*
X630934D01*
Y548199D01*
X629934D01*
X638931D02*
X635932D01*
X634933Y547199D01*
Y545200D01*
X635932Y544200D01*
X638931D01*
X640931D02*
Y550198D01*
Y546199D02*
X643930Y548199D01*
X640931Y546199D02*
X643930Y544200D01*
X646929D02*
Y548199D01*
X649928D01*
X650927Y547199D01*
Y544200D01*
X655926D02*
X653927D01*
X652927Y545200D01*
Y547199D01*
X653927Y548199D01*
X655926D01*
X656926Y547199D01*
Y546199D01*
X652927D01*
X658925Y544200D02*
X661924D01*
X662924Y545200D01*
X661924Y546199D01*
X659925D01*
X658925Y547199D01*
X659925Y548199D01*
X662924D01*
X664923Y544200D02*
X667922D01*
X668922Y545200D01*
X667922Y546199D01*
X665923D01*
X664923Y547199D01*
X665923Y548199D01*
X668922D01*
X495973Y525198D02*
X494974Y526198D01*
X492974D01*
X491974Y525198D01*
Y524199D01*
X492974Y523199D01*
X494974D01*
X495973Y522199D01*
Y521200D01*
X494974Y520200D01*
X492974D01*
X491974Y521200D01*
X498972Y520200D02*
X500972D01*
X501971Y521200D01*
Y523199D01*
X500972Y524199D01*
X498972D01*
X497972Y523199D01*
Y521200D01*
X498972Y520200D01*
X503971D02*
X505970D01*
X504970D01*
Y526198D01*
X503971D01*
X512968D02*
Y520200D01*
X509969D01*
X508969Y521200D01*
Y523199D01*
X509969Y524199D01*
X512968D01*
X517966Y520200D02*
X515967D01*
X514967Y521200D01*
Y523199D01*
X515967Y524199D01*
X517966D01*
X518966Y523199D01*
Y522199D01*
X514967D01*
X520965Y524199D02*
Y520200D01*
Y522199D01*
X521965Y523199D01*
X522964Y524199D01*
X523964D01*
X532961Y520200D02*
Y526198D01*
X535960D01*
X536960Y525198D01*
Y523199D01*
X535960Y522199D01*
X532961D01*
X534961D02*
X536960Y520200D01*
X541958D02*
X539959D01*
X538959Y521200D01*
Y523199D01*
X539959Y524199D01*
X541958D01*
X542958Y523199D01*
Y522199D01*
X538959D01*
X544957Y520200D02*
X547956D01*
X548956Y521200D01*
X547956Y522199D01*
X545957D01*
X544957Y523199D01*
X545957Y524199D01*
X548956D01*
X550955Y520200D02*
X552955D01*
X551955D01*
Y524199D01*
X550955D01*
X555954Y520200D02*
X558953D01*
X559952Y521200D01*
X558953Y522199D01*
X556953D01*
X555954Y523199D01*
X556953Y524199D01*
X559952D01*
X562952Y525198D02*
Y524199D01*
X561952D01*
X563951D01*
X562952D01*
Y521200D01*
X563951Y520200D01*
X495973Y513198D02*
X494974Y514198D01*
X492974D01*
X491974Y513198D01*
Y509200D01*
X492974Y508200D01*
X494974D01*
X495973Y509200D01*
X498972Y508200D02*
X500972D01*
X501971Y509200D01*
Y511199D01*
X500972Y512199D01*
X498972D01*
X497972Y511199D01*
Y509200D01*
X498972Y508200D01*
X503971Y506201D02*
Y512199D01*
X506970D01*
X507969Y511199D01*
Y509200D01*
X506970Y508200D01*
X503971D01*
X509969Y506201D02*
Y512199D01*
X512968D01*
X513967Y511199D01*
Y509200D01*
X512968Y508200D01*
X509969D01*
X518966D02*
X516966D01*
X515967Y509200D01*
Y511199D01*
X516966Y512199D01*
X518966D01*
X519965Y511199D01*
Y510199D01*
X515967D01*
X521965Y512199D02*
Y508200D01*
Y510199D01*
X522964Y511199D01*
X523964Y512199D01*
X524964D01*
X495973Y501198D02*
X494974Y502198D01*
X492974D01*
X491974Y501198D01*
Y497200D01*
X492974Y496200D01*
X494974D01*
X495973Y497200D01*
X498972Y496200D02*
X500972D01*
X501971Y497200D01*
Y499199D01*
X500972Y500199D01*
X498972D01*
X497972Y499199D01*
Y497200D01*
X498972Y496200D01*
X503971D02*
Y500199D01*
X504970D01*
X505970Y499199D01*
Y496200D01*
Y499199D01*
X506970Y500199D01*
X507969Y499199D01*
Y496200D01*
X509969Y494201D02*
Y500199D01*
X512968D01*
X513967Y499199D01*
Y497200D01*
X512968Y496200D01*
X509969D01*
X516966D02*
X518966D01*
X519965Y497200D01*
Y499199D01*
X518966Y500199D01*
X516966D01*
X515967Y499199D01*
Y497200D01*
X516966Y496200D01*
X521965D02*
X524964D01*
X525963Y497200D01*
X524964Y498199D01*
X522964D01*
X521965Y499199D01*
X522964Y500199D01*
X525963D01*
X527963Y496200D02*
X529962D01*
X528963D01*
Y500199D01*
X527963D01*
X533961Y501198D02*
Y500199D01*
X532961D01*
X534961D01*
X533961D01*
Y497200D01*
X534961Y496200D01*
X540959D02*
X538959D01*
X537960Y497200D01*
Y499199D01*
X538959Y500199D01*
X540959D01*
X541958Y499199D01*
Y498199D01*
X537960D01*
X553954Y502198D02*
Y496200D01*
X550955D01*
X549956Y497200D01*
Y499199D01*
X550955Y500199D01*
X553954D01*
X555954Y496200D02*
X557953D01*
X556953D01*
Y500199D01*
X555954D01*
X563951Y496200D02*
X561952D01*
X560952Y497200D01*
Y499199D01*
X561952Y500199D01*
X563951D01*
X564951Y499199D01*
Y498199D01*
X560952D01*
X566950Y496200D02*
X568950D01*
X567950D01*
Y502198D01*
X566950D01*
X574948Y496200D02*
X572948D01*
X571949Y497200D01*
Y499199D01*
X572948Y500199D01*
X574948D01*
X575947Y499199D01*
Y498199D01*
X571949D01*
X581945Y500199D02*
X578946D01*
X577947Y499199D01*
Y497200D01*
X578946Y496200D01*
X581945D01*
X584944Y501198D02*
Y500199D01*
X583945D01*
X585944D01*
X584944D01*
Y497200D01*
X585944Y496200D01*
X588943Y500199D02*
Y496200D01*
Y498199D01*
X589943Y499199D01*
X590942Y500199D01*
X591942D01*
X594941Y496200D02*
X596941D01*
X595941D01*
Y500199D01*
X594941D01*
X603938D02*
X600939D01*
X599939Y499199D01*
Y497200D01*
X600939Y496200D01*
X603938D01*
X495973Y489198D02*
X494974Y490198D01*
X492974D01*
X491974Y489198D01*
Y485200D01*
X492974Y484200D01*
X494974D01*
X495973Y485200D01*
X498972Y484200D02*
X500972D01*
X501971Y485200D01*
Y487199D01*
X500972Y488199D01*
X498972D01*
X497972Y487199D01*
Y485200D01*
X498972Y484200D01*
X503971Y482201D02*
Y488199D01*
X506970D01*
X507969Y487199D01*
Y485200D01*
X506970Y484200D01*
X503971D01*
X509969Y482201D02*
Y488199D01*
X512968D01*
X513967Y487199D01*
Y485200D01*
X512968Y484200D01*
X509969D01*
X518966D02*
X516966D01*
X515967Y485200D01*
Y487199D01*
X516966Y488199D01*
X518966D01*
X519965Y487199D01*
Y486199D01*
X515967D01*
X521965Y488199D02*
Y484200D01*
Y486199D01*
X522964Y487199D01*
X523964Y488199D01*
X524964D01*
X495973Y477198D02*
X494974Y478198D01*
X492974D01*
X491974Y477198D01*
Y473200D01*
X492974Y472200D01*
X494974D01*
X495973Y473200D01*
X498972Y472200D02*
X500972D01*
X501971Y473200D01*
Y475199D01*
X500972Y476199D01*
X498972D01*
X497972Y475199D01*
Y473200D01*
X498972Y472200D01*
X503971D02*
Y476199D01*
X504970D01*
X505970Y475199D01*
Y472200D01*
Y475199D01*
X506970Y476199D01*
X507969Y475199D01*
Y472200D01*
X509969Y470201D02*
Y476199D01*
X512968D01*
X513967Y475199D01*
Y473200D01*
X512968Y472200D01*
X509969D01*
X516966D02*
X518966D01*
X519965Y473200D01*
Y475199D01*
X518966Y476199D01*
X516966D01*
X515967Y475199D01*
Y473200D01*
X516966Y472200D01*
X521965D02*
X524964D01*
X525963Y473200D01*
X524964Y474199D01*
X522964D01*
X521965Y475199D01*
X522964Y476199D01*
X525963D01*
X527963Y472200D02*
X529962D01*
X528963D01*
Y476199D01*
X527963D01*
X533961Y477198D02*
Y476199D01*
X532961D01*
X534961D01*
X533961D01*
Y473200D01*
X534961Y472200D01*
X540959D02*
X538959D01*
X537960Y473200D01*
Y475199D01*
X538959Y476199D01*
X540959D01*
X541958Y475199D01*
Y474199D01*
X537960D01*
X553954Y478198D02*
Y472200D01*
X550955D01*
X549956Y473200D01*
Y475199D01*
X550955Y476199D01*
X553954D01*
X555954Y472200D02*
X557953D01*
X556953D01*
Y476199D01*
X555954D01*
X563951Y472200D02*
X561952D01*
X560952Y473200D01*
Y475199D01*
X561952Y476199D01*
X563951D01*
X564951Y475199D01*
Y474199D01*
X560952D01*
X566950Y472200D02*
X568950D01*
X567950D01*
Y478198D01*
X566950D01*
X574948Y472200D02*
X572948D01*
X571949Y473200D01*
Y475199D01*
X572948Y476199D01*
X574948D01*
X575947Y475199D01*
Y474199D01*
X571949D01*
X581945Y476199D02*
X578946D01*
X577947Y475199D01*
Y473200D01*
X578946Y472200D01*
X581945D01*
X584944Y477198D02*
Y476199D01*
X583945D01*
X585944D01*
X584944D01*
Y473200D01*
X585944Y472200D01*
X588943Y476199D02*
Y472200D01*
Y474199D01*
X589943Y475199D01*
X590942Y476199D01*
X591942D01*
X594941Y472200D02*
X596941D01*
X595941D01*
Y476199D01*
X594941D01*
X603938D02*
X600939D01*
X599939Y475199D01*
Y473200D01*
X600939Y472200D01*
X603938D01*
X495973Y465198D02*
X494974Y466198D01*
X492974D01*
X491974Y465198D01*
Y461200D01*
X492974Y460200D01*
X494974D01*
X495973Y461200D01*
X498972Y460200D02*
X500972D01*
X501971Y461200D01*
Y463199D01*
X500972Y464199D01*
X498972D01*
X497972Y463199D01*
Y461200D01*
X498972Y460200D01*
X503971Y458201D02*
Y464199D01*
X506970D01*
X507969Y463199D01*
Y461200D01*
X506970Y460200D01*
X503971D01*
X509969Y458201D02*
Y464199D01*
X512968D01*
X513967Y463199D01*
Y461200D01*
X512968Y460200D01*
X509969D01*
X518966D02*
X516966D01*
X515967Y461200D01*
Y463199D01*
X516966Y464199D01*
X518966D01*
X519965Y463199D01*
Y462199D01*
X515967D01*
X521965Y464199D02*
Y460200D01*
Y462199D01*
X522964Y463199D01*
X523964Y464199D01*
X524964D01*
X495973Y453198D02*
X494974Y454198D01*
X492974D01*
X491974Y453198D01*
Y449200D01*
X492974Y448200D01*
X494974D01*
X495973Y449200D01*
X498972Y448200D02*
X500972D01*
X501971Y449200D01*
Y451199D01*
X500972Y452199D01*
X498972D01*
X497972Y451199D01*
Y449200D01*
X498972Y448200D01*
X503971D02*
Y452199D01*
X504970D01*
X505970Y451199D01*
Y448200D01*
Y451199D01*
X506970Y452199D01*
X507969Y451199D01*
Y448200D01*
X509969Y446201D02*
Y452199D01*
X512968D01*
X513967Y451199D01*
Y449200D01*
X512968Y448200D01*
X509969D01*
X516966D02*
X518966D01*
X519965Y449200D01*
Y451199D01*
X518966Y452199D01*
X516966D01*
X515967Y451199D01*
Y449200D01*
X516966Y448200D01*
X521965D02*
X524964D01*
X525963Y449200D01*
X524964Y450199D01*
X522964D01*
X521965Y451199D01*
X522964Y452199D01*
X525963D01*
X527963Y448200D02*
X529962D01*
X528963D01*
Y452199D01*
X527963D01*
X533961Y453198D02*
Y452199D01*
X532961D01*
X534961D01*
X533961D01*
Y449200D01*
X534961Y448200D01*
X540959D02*
X538959D01*
X537960Y449200D01*
Y451199D01*
X538959Y452199D01*
X540959D01*
X541958Y451199D01*
Y450199D01*
X537960D01*
X553954Y454198D02*
Y448200D01*
X550955D01*
X549956Y449200D01*
Y451199D01*
X550955Y452199D01*
X553954D01*
X555954Y448200D02*
X557953D01*
X556953D01*
Y452199D01*
X555954D01*
X563951Y448200D02*
X561952D01*
X560952Y449200D01*
Y451199D01*
X561952Y452199D01*
X563951D01*
X564951Y451199D01*
Y450199D01*
X560952D01*
X566950Y448200D02*
X568950D01*
X567950D01*
Y454198D01*
X566950D01*
X574948Y448200D02*
X572948D01*
X571949Y449200D01*
Y451199D01*
X572948Y452199D01*
X574948D01*
X575947Y451199D01*
Y450199D01*
X571949D01*
X581945Y452199D02*
X578946D01*
X577947Y451199D01*
Y449200D01*
X578946Y448200D01*
X581945D01*
X584944Y453198D02*
Y452199D01*
X583945D01*
X585944D01*
X584944D01*
Y449200D01*
X585944Y448200D01*
X588943Y452199D02*
Y448200D01*
Y450199D01*
X589943Y451199D01*
X590942Y452199D01*
X591942D01*
X594941Y448200D02*
X596941D01*
X595941D01*
Y452199D01*
X594941D01*
X603938D02*
X600939D01*
X599939Y451199D01*
Y449200D01*
X600939Y448200D01*
X603938D01*
X495973Y441198D02*
X494974Y442198D01*
X492974D01*
X491974Y441198D01*
Y437200D01*
X492974Y436200D01*
X494974D01*
X495973Y437200D01*
X498972Y436200D02*
X500972D01*
X501971Y437200D01*
Y439199D01*
X500972Y440199D01*
X498972D01*
X497972Y439199D01*
Y437200D01*
X498972Y436200D01*
X503971Y434201D02*
Y440199D01*
X506970D01*
X507969Y439199D01*
Y437200D01*
X506970Y436200D01*
X503971D01*
X509969Y434201D02*
Y440199D01*
X512968D01*
X513967Y439199D01*
Y437200D01*
X512968Y436200D01*
X509969D01*
X518966D02*
X516966D01*
X515967Y437200D01*
Y439199D01*
X516966Y440199D01*
X518966D01*
X519965Y439199D01*
Y438199D01*
X515967D01*
X521965Y440199D02*
Y436200D01*
Y438199D01*
X522964Y439199D01*
X523964Y440199D01*
X524964D01*
X495973Y429198D02*
X494974Y430198D01*
X492974D01*
X491974Y429198D01*
Y428199D01*
X492974Y427199D01*
X494974D01*
X495973Y426199D01*
Y425200D01*
X494974Y424200D01*
X492974D01*
X491974Y425200D01*
X498972Y424200D02*
X500972D01*
X501971Y425200D01*
Y427199D01*
X500972Y428199D01*
X498972D01*
X497972Y427199D01*
Y425200D01*
X498972Y424200D01*
X503971D02*
X505970D01*
X504970D01*
Y430198D01*
X503971D01*
X512968D02*
Y424200D01*
X509969D01*
X508969Y425200D01*
Y427199D01*
X509969Y428199D01*
X512968D01*
X517966Y424200D02*
X515967D01*
X514967Y425200D01*
Y427199D01*
X515967Y428199D01*
X517966D01*
X518966Y427199D01*
Y426199D01*
X514967D01*
X520965Y428199D02*
Y424200D01*
Y426199D01*
X521965Y427199D01*
X522964Y428199D01*
X523964D01*
X532961Y424200D02*
Y430198D01*
X535960D01*
X536960Y429198D01*
Y427199D01*
X535960Y426199D01*
X532961D01*
X534961D02*
X536960Y424200D01*
X541958D02*
X539959D01*
X538959Y425200D01*
Y427199D01*
X539959Y428199D01*
X541958D01*
X542958Y427199D01*
Y426199D01*
X538959D01*
X544957Y424200D02*
X547956D01*
X548956Y425200D01*
X547956Y426199D01*
X545957D01*
X544957Y427199D01*
X545957Y428199D01*
X548956D01*
X550955Y424200D02*
X552955D01*
X551955D01*
Y428199D01*
X550955D01*
X555954Y424200D02*
X558953D01*
X559952Y425200D01*
X558953Y426199D01*
X556953D01*
X555954Y427199D01*
X556953Y428199D01*
X559952D01*
X562952Y429198D02*
Y428199D01*
X561952D01*
X563951D01*
X562952D01*
Y425200D01*
X563951Y424200D01*
X491974Y544200D02*
Y550198D01*
X493974Y548199D01*
X495973Y550198D01*
Y544200D01*
X498972Y548199D02*
X500972D01*
X501971Y547199D01*
Y544200D01*
X498972D01*
X497972Y545200D01*
X498972Y546199D01*
X501971D01*
X504970Y549198D02*
Y548199D01*
X503971D01*
X505970D01*
X504970D01*
Y545200D01*
X505970Y544200D01*
X511968D02*
X509969D01*
X508969Y545200D01*
Y547199D01*
X509969Y548199D01*
X511968D01*
X512968Y547199D01*
Y546199D01*
X508969D01*
X514967Y548199D02*
Y544200D01*
Y546199D01*
X515967Y547199D01*
X516966Y548199D01*
X517966D01*
X520965Y544200D02*
X522964D01*
X521965D01*
Y548199D01*
X520965D01*
X526963D02*
X528963D01*
X529962Y547199D01*
Y544200D01*
X526963D01*
X525963Y545200D01*
X526963Y546199D01*
X529962D01*
X531961Y544200D02*
X533961D01*
X532961D01*
Y550198D01*
X531961D01*
X399000Y538198D02*
X402999D01*
X400999D01*
Y532200D01*
X405998D02*
X407997D01*
X408997Y533200D01*
Y535199D01*
X407997Y536199D01*
X405998D01*
X404998Y535199D01*
Y533200D01*
X405998Y532200D01*
X410996Y530201D02*
Y536199D01*
X413995D01*
X414995Y535199D01*
Y533200D01*
X413995Y532200D01*
X410996D01*
X425991Y538198D02*
X423992D01*
X422992Y537198D01*
Y533200D01*
X423992Y532200D01*
X425991D01*
X426991Y533200D01*
Y537198D01*
X425991Y538198D01*
X428990Y536199D02*
X430990Y532200D01*
X432989Y536199D01*
X437987Y532200D02*
X435988D01*
X434988Y533200D01*
Y535199D01*
X435988Y536199D01*
X437987D01*
X438987Y535199D01*
Y534199D01*
X434988D01*
X440986Y536199D02*
Y532200D01*
Y534199D01*
X441986Y535199D01*
X442986Y536199D01*
X443986D01*
X446984Y532200D02*
X448984D01*
X447984D01*
Y538198D01*
X446984D01*
X452983Y536199D02*
X454982D01*
X455982Y535199D01*
Y532200D01*
X452983D01*
X451983Y533200D01*
X452983Y534199D01*
X455982D01*
X457981Y536199D02*
Y533200D01*
X458981Y532200D01*
X461980D01*
Y531200D01*
X460980Y530201D01*
X459980D01*
X461980Y532200D02*
Y536199D01*
X399000Y526198D02*
X402999D01*
X400999D01*
Y520200D01*
X405998D02*
X407997D01*
X408997Y521200D01*
Y523199D01*
X407997Y524199D01*
X405998D01*
X404998Y523199D01*
Y521200D01*
X405998Y520200D01*
X410996Y518201D02*
Y524199D01*
X413995D01*
X414995Y523199D01*
Y521200D01*
X413995Y520200D01*
X410996D01*
X426991Y525198D02*
X425991Y526198D01*
X423992D01*
X422992Y525198D01*
Y524199D01*
X423992Y523199D01*
X425991D01*
X426991Y522199D01*
Y521200D01*
X425991Y520200D01*
X423992D01*
X422992Y521200D01*
X429990Y520200D02*
X431989D01*
X432989Y521200D01*
Y523199D01*
X431989Y524199D01*
X429990D01*
X428990Y523199D01*
Y521200D01*
X429990Y520200D01*
X434988D02*
X436988D01*
X435988D01*
Y526198D01*
X434988D01*
X443986D02*
Y520200D01*
X440986D01*
X439987Y521200D01*
Y523199D01*
X440986Y524199D01*
X443986D01*
X448984Y520200D02*
X446984D01*
X445985Y521200D01*
Y523199D01*
X446984Y524199D01*
X448984D01*
X449984Y523199D01*
Y522199D01*
X445985D01*
X451983Y524199D02*
Y520200D01*
Y522199D01*
X452983Y523199D01*
X453982Y524199D01*
X454982D01*
X399000Y514198D02*
X402999D01*
X400999D01*
Y508200D01*
X405998D02*
X407997D01*
X408997Y509200D01*
Y511199D01*
X407997Y512199D01*
X405998D01*
X404998Y511199D01*
Y509200D01*
X405998Y508200D01*
X410996Y506201D02*
Y512199D01*
X413995D01*
X414995Y511199D01*
Y509200D01*
X413995Y508200D01*
X410996D01*
X399000Y502198D02*
Y496200D01*
X401999D01*
X402999Y497200D01*
Y501198D01*
X401999Y502198D01*
X399000D01*
X404998Y496200D02*
X406997D01*
X405998D01*
Y500199D01*
X404998D01*
X412995Y496200D02*
X410996D01*
X409996Y497200D01*
Y499199D01*
X410996Y500199D01*
X412995D01*
X413995Y499199D01*
Y498199D01*
X409996D01*
X415995Y496200D02*
X417994D01*
X416994D01*
Y502198D01*
X415995D01*
X423992Y496200D02*
X421993D01*
X420993Y497200D01*
Y499199D01*
X421993Y500199D01*
X423992D01*
X424992Y499199D01*
Y498199D01*
X420993D01*
X430990Y500199D02*
X427991D01*
X426991Y499199D01*
Y497200D01*
X427991Y496200D01*
X430990D01*
X433989Y501198D02*
Y500199D01*
X432989D01*
X434988D01*
X433989D01*
Y497200D01*
X434988Y496200D01*
X437987Y500199D02*
Y496200D01*
Y498199D01*
X438987Y499199D01*
X439987Y500199D01*
X440986D01*
X443985Y496200D02*
X445985D01*
X444985D01*
Y500199D01*
X443985D01*
X452983D02*
X449984D01*
X448984Y499199D01*
Y497200D01*
X449984Y496200D01*
X452983D01*
X460980D02*
X462979D01*
X461980D01*
Y502198D01*
X460980Y501198D01*
X399000Y490198D02*
Y484200D01*
X402999D01*
X405998Y488199D02*
X407997D01*
X408997Y487199D01*
Y484200D01*
X405998D01*
X404998Y485200D01*
X405998Y486199D01*
X408997D01*
X410996Y488199D02*
Y485200D01*
X411996Y484200D01*
X414995D01*
Y483200D01*
X413995Y482201D01*
X412995D01*
X414995Y484200D02*
Y488199D01*
X419993Y484200D02*
X417994D01*
X416994Y485200D01*
Y487199D01*
X417994Y488199D01*
X419993D01*
X420993Y487199D01*
Y486199D01*
X416994D01*
X422992Y488199D02*
Y484200D01*
Y486199D01*
X423992Y487199D01*
X424992Y488199D01*
X425991D01*
X438987Y484200D02*
X434988D01*
X438987Y488199D01*
Y489198D01*
X437987Y490198D01*
X435988D01*
X434988Y489198D01*
X402999Y477198D02*
X401999Y478198D01*
X400000D01*
X399000Y477198D01*
Y473200D01*
X400000Y472200D01*
X401999D01*
X402999Y473200D01*
X405998Y472200D02*
X407997D01*
X408997Y473200D01*
Y475199D01*
X407997Y476199D01*
X405998D01*
X404998Y475199D01*
Y473200D01*
X405998Y472200D01*
X410996Y476199D02*
Y472200D01*
Y474199D01*
X411996Y475199D01*
X412995Y476199D01*
X413995D01*
X419993Y472200D02*
X417994D01*
X416994Y473200D01*
Y475199D01*
X417994Y476199D01*
X419993D01*
X420993Y475199D01*
Y474199D01*
X416994D01*
X399000Y466198D02*
Y460200D01*
X402999D01*
X405998Y464199D02*
X407997D01*
X408997Y463199D01*
Y460200D01*
X405998D01*
X404998Y461200D01*
X405998Y462199D01*
X408997D01*
X410996Y464199D02*
Y461200D01*
X411996Y460200D01*
X414995D01*
Y459200D01*
X413995Y458201D01*
X412995D01*
X414995Y460200D02*
Y464199D01*
X419993Y460200D02*
X417994D01*
X416994Y461200D01*
Y463199D01*
X417994Y464199D01*
X419993D01*
X420993Y463199D01*
Y462199D01*
X416994D01*
X422992Y464199D02*
Y460200D01*
Y462199D01*
X423992Y463199D01*
X424992Y464199D01*
X425991D01*
X434988Y465198D02*
X435988Y466198D01*
X437987D01*
X438987Y465198D01*
Y464199D01*
X437987Y463199D01*
X436988D01*
X437987D01*
X438987Y462199D01*
Y461200D01*
X437987Y460200D01*
X435988D01*
X434988Y461200D01*
X399000Y454198D02*
Y448200D01*
X401999D01*
X402999Y449200D01*
Y453198D01*
X401999Y454198D01*
X399000D01*
X404998Y448200D02*
X406997D01*
X405998D01*
Y452199D01*
X404998D01*
X412995Y448200D02*
X410996D01*
X409996Y449200D01*
Y451199D01*
X410996Y452199D01*
X412995D01*
X413995Y451199D01*
Y450199D01*
X409996D01*
X415995Y448200D02*
X417994D01*
X416994D01*
Y454198D01*
X415995D01*
X423992Y448200D02*
X421993D01*
X420993Y449200D01*
Y451199D01*
X421993Y452199D01*
X423992D01*
X424992Y451199D01*
Y450199D01*
X420993D01*
X430990Y452199D02*
X427991D01*
X426991Y451199D01*
Y449200D01*
X427991Y448200D01*
X430990D01*
X433989Y453198D02*
Y452199D01*
X432989D01*
X434988D01*
X433989D01*
Y449200D01*
X434988Y448200D01*
X437987Y452199D02*
Y448200D01*
Y450199D01*
X438987Y451199D01*
X439987Y452199D01*
X440986D01*
X443985Y448200D02*
X445985D01*
X444985D01*
Y452199D01*
X443985D01*
X452983D02*
X449984D01*
X448984Y451199D01*
Y449200D01*
X449984Y448200D01*
X452983D01*
X460980Y453198D02*
X461980Y454198D01*
X463979D01*
X464979Y453198D01*
Y452199D01*
X463979Y451199D01*
X462979D01*
X463979D01*
X464979Y450199D01*
Y449200D01*
X463979Y448200D01*
X461980D01*
X460980Y449200D01*
X399000Y442198D02*
Y436200D01*
X401999D01*
X402999Y437200D01*
Y438199D01*
X401999Y439199D01*
X399000D01*
X401999D01*
X402999Y440199D01*
Y441198D01*
X401999Y442198D01*
X399000D01*
X405998Y436200D02*
X407997D01*
X408997Y437200D01*
Y439199D01*
X407997Y440199D01*
X405998D01*
X404998Y439199D01*
Y437200D01*
X405998Y436200D01*
X411996Y441198D02*
Y440199D01*
X410996D01*
X412995D01*
X411996D01*
Y437200D01*
X412995Y436200D01*
X416994Y441198D02*
Y440199D01*
X415995D01*
X417994D01*
X416994D01*
Y437200D01*
X417994Y436200D01*
X421993D02*
X423992D01*
X424992Y437200D01*
Y439199D01*
X423992Y440199D01*
X421993D01*
X420993Y439199D01*
Y437200D01*
X421993Y436200D01*
X426991D02*
Y440199D01*
X427991D01*
X428990Y439199D01*
Y436200D01*
Y439199D01*
X429990Y440199D01*
X430990Y439199D01*
Y436200D01*
X399000Y430198D02*
Y424200D01*
X401999D01*
X402999Y425200D01*
Y426199D01*
X401999Y427199D01*
X399000D01*
X401999D01*
X402999Y428199D01*
Y429198D01*
X401999Y430198D01*
X399000D01*
X405998Y424200D02*
X407997D01*
X408997Y425200D01*
Y427199D01*
X407997Y428199D01*
X405998D01*
X404998Y427199D01*
Y425200D01*
X405998Y424200D01*
X411996Y429198D02*
Y428199D01*
X410996D01*
X412995D01*
X411996D01*
Y425200D01*
X412995Y424200D01*
X416994Y429198D02*
Y428199D01*
X415995D01*
X417994D01*
X416994D01*
Y425200D01*
X417994Y424200D01*
X421993D02*
X423992D01*
X424992Y425200D01*
Y427199D01*
X423992Y428199D01*
X421993D01*
X420993Y427199D01*
Y425200D01*
X421993Y424200D01*
X426991D02*
Y428199D01*
X427991D01*
X428990Y427199D01*
Y424200D01*
Y427199D01*
X429990Y428199D01*
X430990Y427199D01*
Y424200D01*
X442986Y429198D02*
X441986Y430198D01*
X439987D01*
X438987Y429198D01*
Y428199D01*
X439987Y427199D01*
X441986D01*
X442986Y426199D01*
Y425200D01*
X441986Y424200D01*
X439987D01*
X438987Y425200D01*
X445985Y424200D02*
X447984D01*
X448984Y425200D01*
Y427199D01*
X447984Y428199D01*
X445985D01*
X444985Y427199D01*
Y425200D01*
X445985Y424200D01*
X450983D02*
X452983D01*
X451983D01*
Y430198D01*
X450983D01*
X459980D02*
Y424200D01*
X456981D01*
X455982Y425200D01*
Y427199D01*
X456981Y428199D01*
X459980D01*
X464979Y424200D02*
X462979D01*
X461980Y425200D01*
Y427199D01*
X462979Y428199D01*
X464979D01*
X465978Y427199D01*
Y426199D01*
X461980D01*
X467978Y428199D02*
Y424200D01*
Y426199D01*
X468977Y427199D01*
X469977Y428199D01*
X470977D01*
X399000Y418198D02*
Y412200D01*
X401999D01*
X402999Y413200D01*
Y414199D01*
X401999Y415199D01*
X399000D01*
X401999D01*
X402999Y416199D01*
Y417198D01*
X401999Y418198D01*
X399000D01*
X405998Y412200D02*
X407997D01*
X408997Y413200D01*
Y415199D01*
X407997Y416199D01*
X405998D01*
X404998Y415199D01*
Y413200D01*
X405998Y412200D01*
X411996Y417198D02*
Y416199D01*
X410996D01*
X412995D01*
X411996D01*
Y413200D01*
X412995Y412200D01*
X416994Y417198D02*
Y416199D01*
X415995D01*
X417994D01*
X416994D01*
Y413200D01*
X417994Y412200D01*
X421993D02*
X423992D01*
X424992Y413200D01*
Y415199D01*
X423992Y416199D01*
X421993D01*
X420993Y415199D01*
Y413200D01*
X421993Y412200D01*
X426991D02*
Y416199D01*
X427991D01*
X428990Y415199D01*
Y412200D01*
Y415199D01*
X429990Y416199D01*
X430990Y415199D01*
Y412200D01*
X441986Y418198D02*
X439987D01*
X438987Y417198D01*
Y413200D01*
X439987Y412200D01*
X441986D01*
X442986Y413200D01*
Y417198D01*
X441986Y418198D01*
X444985Y416199D02*
X446984Y412200D01*
X448984Y416199D01*
X453982Y412200D02*
X451983D01*
X450983Y413200D01*
Y415199D01*
X451983Y416199D01*
X453982D01*
X454982Y415199D01*
Y414199D01*
X450983D01*
X456981Y416199D02*
Y412200D01*
Y414199D01*
X457981Y415199D01*
X458981Y416199D01*
X459980D01*
X462979Y412200D02*
X464979D01*
X463979D01*
Y418198D01*
X462979D01*
X468977Y416199D02*
X470977D01*
X471976Y415199D01*
Y412200D01*
X468977D01*
X467978Y413200D01*
X468977Y414199D01*
X471976D01*
X473976Y416199D02*
Y413200D01*
X474975Y412200D01*
X477974D01*
Y411200D01*
X476975Y410201D01*
X475975D01*
X477974Y412200D02*
Y416199D01*
X399000Y544200D02*
Y550198D01*
X402999Y544200D01*
Y550198D01*
X405998Y548199D02*
X407997D01*
X408997Y547199D01*
Y544200D01*
X405998D01*
X404998Y545200D01*
X405998Y546199D01*
X408997D01*
X410996Y544200D02*
Y548199D01*
X411996D01*
X412995Y547199D01*
Y544200D01*
Y547199D01*
X413995Y548199D01*
X414995Y547199D01*
Y544200D01*
X419993D02*
X417994D01*
X416994Y545200D01*
Y547199D01*
X417994Y548199D01*
X419993D01*
X420993Y547199D01*
Y546199D01*
X416994D01*
X358009Y532200D02*
X360008D01*
X359008D01*
Y538198D01*
X358009Y537198D01*
X362007Y520200D02*
X358009D01*
X362007Y524199D01*
Y525198D01*
X361008Y526198D01*
X359008D01*
X358009Y525198D01*
Y513198D02*
X359008Y514198D01*
X361008D01*
X362007Y513198D01*
Y512199D01*
X361008Y511199D01*
X360008D01*
X361008D01*
X362007Y510199D01*
Y509200D01*
X361008Y508200D01*
X359008D01*
X358009Y509200D01*
X361008Y496200D02*
Y502198D01*
X358009Y499199D01*
X362007D01*
Y490198D02*
X358009D01*
Y487199D01*
X360008Y488199D01*
X361008D01*
X362007Y487199D01*
Y485200D01*
X361008Y484200D01*
X359008D01*
X358009Y485200D01*
X362007Y478198D02*
X360008Y477198D01*
X358009Y475199D01*
Y473200D01*
X359008Y472200D01*
X361008D01*
X362007Y473200D01*
Y474199D01*
X361008Y475199D01*
X358009D01*
Y466198D02*
X362007D01*
Y465198D01*
X358009Y461200D01*
Y460200D01*
Y453198D02*
X359008Y454198D01*
X361008D01*
X362007Y453198D01*
Y452199D01*
X361008Y451199D01*
X362007Y450199D01*
Y449200D01*
X361008Y448200D01*
X359008D01*
X358009Y449200D01*
Y450199D01*
X359008Y451199D01*
X358009Y452199D01*
Y453198D01*
X359008Y451199D02*
X361008D01*
X358009Y437200D02*
X359008Y436200D01*
X361008D01*
X362007Y437200D01*
Y441198D01*
X361008Y442198D01*
X359008D01*
X358009Y441198D01*
Y440199D01*
X359008Y439199D01*
X362007D01*
X358009Y424200D02*
X360008D01*
X359008D01*
Y430198D01*
X358009Y429198D01*
X363007D02*
X364007Y430198D01*
X366006D01*
X367006Y429198D01*
Y425200D01*
X366006Y424200D01*
X364007D01*
X363007Y425200D01*
Y429198D01*
X358009Y412200D02*
X360008D01*
X359008D01*
Y418198D01*
X358009Y417198D01*
X363007Y412200D02*
X365006D01*
X364007D01*
Y418198D01*
X363007Y417198D01*
X358009Y550198D02*
Y544200D01*
X362007D01*
X365006Y548199D02*
X367006D01*
X368005Y547199D01*
Y544200D01*
X365006D01*
X364007Y545200D01*
X365006Y546199D01*
X368005D01*
X370005Y548199D02*
Y545200D01*
X371005Y544200D01*
X374004D01*
Y543200D01*
X373004Y542201D01*
X372004D01*
X374004Y544200D02*
Y548199D01*
X379002Y544200D02*
X377003D01*
X376003Y545200D01*
Y547199D01*
X377003Y548199D01*
X379002D01*
X380002Y547199D01*
Y546199D01*
X376003D01*
X382001Y548199D02*
Y544200D01*
Y546199D01*
X383001Y547199D01*
X384000Y548199D01*
X385000D01*
X-122000Y521033D02*
X-121167Y520200D01*
X-119501D01*
X-118668Y521033D01*
Y524365D01*
X-119501Y525198D01*
X-121167D01*
X-122000Y524365D01*
Y523532D01*
X-121167Y522699D01*
X-118668D01*
X-117002Y520200D02*
Y521033D01*
X-116169D01*
Y520200D01*
X-117002D01*
X-107838Y525198D02*
X-104506D01*
X-106172D01*
Y520200D01*
X-102840Y525198D02*
Y520200D01*
Y522699D01*
X-102006Y523532D01*
X-100340D01*
X-99507Y522699D01*
Y520200D01*
X-95342D02*
X-97008D01*
X-97841Y521033D01*
Y522699D01*
X-97008Y523532D01*
X-95342D01*
X-94509Y522699D01*
Y521866D01*
X-97841D01*
X-87011Y520200D02*
Y524365D01*
Y522699D01*
X-87844D01*
X-86178D01*
X-87011D01*
Y524365D01*
X-86178Y525198D01*
X-82846Y523532D02*
X-81180D01*
X-80347Y522699D01*
Y520200D01*
X-82846D01*
X-83679Y521033D01*
X-82846Y521866D01*
X-80347D01*
X-78681Y525198D02*
Y520200D01*
X-76182D01*
X-75348Y521033D01*
Y521866D01*
Y522699D01*
X-76182Y523532D01*
X-78681D01*
X-73682D02*
Y520200D01*
Y521866D01*
X-72849Y522699D01*
X-72016Y523532D01*
X-71183D01*
X-68684Y520200D02*
X-67018D01*
X-67851D01*
Y523532D01*
X-68684D01*
X-61186D02*
X-63686D01*
X-64519Y522699D01*
Y521033D01*
X-63686Y520200D01*
X-61186D01*
X-58687Y523532D02*
X-57021D01*
X-56188Y522699D01*
Y520200D01*
X-58687D01*
X-59520Y521033D01*
X-58687Y521866D01*
X-56188D01*
X-53689Y524365D02*
Y523532D01*
X-54522D01*
X-52856D01*
X-53689D01*
Y521033D01*
X-52856Y520200D01*
X-47857D02*
X-49523D01*
X-50357Y521033D01*
Y522699D01*
X-49523Y523532D01*
X-47857D01*
X-47024Y522699D01*
Y521866D01*
X-50357D01*
X-42026Y525198D02*
Y520200D01*
X-44525D01*
X-45358Y521033D01*
Y522699D01*
X-44525Y523532D01*
X-42026D01*
X-35361Y525198D02*
Y520200D01*
X-32862D01*
X-32029Y521033D01*
Y521866D01*
Y522699D01*
X-32862Y523532D01*
X-35361D01*
X-29530Y520200D02*
X-27864D01*
X-27031Y521033D01*
Y522699D01*
X-27864Y523532D01*
X-29530D01*
X-30363Y522699D01*
Y521033D01*
X-29530Y520200D01*
X-24532Y523532D02*
X-22865D01*
X-22032Y522699D01*
Y520200D01*
X-24532D01*
X-25365Y521033D01*
X-24532Y521866D01*
X-22032D01*
X-20366Y523532D02*
Y520200D01*
Y521866D01*
X-19533Y522699D01*
X-18700Y523532D01*
X-17867D01*
X-12036Y525198D02*
Y520200D01*
X-14535D01*
X-15368Y521033D01*
Y522699D01*
X-14535Y523532D01*
X-12036D01*
X-5371Y520200D02*
X-2872D01*
X-2039Y521033D01*
X-2872Y521866D01*
X-4538D01*
X-5371Y522699D01*
X-4538Y523532D01*
X-2039D01*
X-373Y525198D02*
Y520200D01*
Y522699D01*
X460Y523532D01*
X2127D01*
X2960Y522699D01*
Y520200D01*
X5459Y523532D02*
X7125D01*
X7958Y522699D01*
Y520200D01*
X5459D01*
X4626Y521033D01*
X5459Y521866D01*
X7958D01*
X9624Y520200D02*
X11290D01*
X10457D01*
Y525198D01*
X9624D01*
X13789Y520200D02*
X15455D01*
X14622D01*
Y525198D01*
X13789D01*
X22953D02*
Y520200D01*
X25452D01*
X26285Y521033D01*
Y521866D01*
Y522699D01*
X25452Y523532D01*
X22953D01*
X30451Y520200D02*
X28784D01*
X27951Y521033D01*
Y522699D01*
X28784Y523532D01*
X30451D01*
X31284Y522699D01*
Y521866D01*
X27951D01*
X37948Y520200D02*
Y525198D01*
X40447D01*
X41280Y524365D01*
Y522699D01*
X40447Y521866D01*
X37948D01*
X39614D02*
X41280Y520200D01*
X43780D02*
X45446D01*
X46279Y521033D01*
Y522699D01*
X45446Y523532D01*
X43780D01*
X42947Y522699D01*
Y521033D01*
X43780Y520200D01*
X47945Y525198D02*
Y520200D01*
Y522699D01*
X51277D01*
Y525198D01*
Y520200D01*
X56276Y524365D02*
X55443Y525198D01*
X53776D01*
X52943Y524365D01*
Y523532D01*
X53776Y522699D01*
X55443D01*
X56276Y521866D01*
Y521033D01*
X55443Y520200D01*
X53776D01*
X52943Y521033D01*
X66272Y523532D02*
X63773D01*
X62940Y522699D01*
Y521033D01*
X63773Y520200D01*
X66272D01*
X68771D02*
X70438D01*
X71271Y521033D01*
Y522699D01*
X70438Y523532D01*
X68771D01*
X67939Y522699D01*
Y521033D01*
X68771Y520200D01*
X72937D02*
Y523532D01*
X73770D01*
X74603Y522699D01*
Y520200D01*
Y522699D01*
X75436Y523532D01*
X76269Y522699D01*
Y520200D01*
X77935Y518534D02*
Y523532D01*
X80434D01*
X81267Y522699D01*
Y521033D01*
X80434Y520200D01*
X77935D01*
X82934D02*
X84600D01*
X83767D01*
Y525198D01*
X82934D01*
X87099Y520200D02*
X88765D01*
X87932D01*
Y523532D01*
X87099D01*
X92097D02*
X93763D01*
X94596Y522699D01*
Y520200D01*
X92097D01*
X91264Y521033D01*
X92097Y521866D01*
X94596D01*
X96263Y520200D02*
Y523532D01*
X98762D01*
X99595Y522699D01*
Y520200D01*
X102094Y524365D02*
Y523532D01*
X101261D01*
X102927D01*
X102094D01*
Y521033D01*
X102927Y520200D01*
X-117335Y672198D02*
X-122000D01*
Y668699D01*
X-119667D01*
X-122000D01*
Y665200D01*
X-113836Y669865D02*
X-111503D01*
X-110337Y668699D01*
Y665200D01*
X-113836D01*
X-115002Y666366D01*
X-113836Y667533D01*
X-110337D01*
X-108004Y672198D02*
Y665200D01*
X-104506D01*
X-103339Y666366D01*
Y667533D01*
Y668699D01*
X-104506Y669865D01*
X-108004D01*
X-101007D02*
Y665200D01*
Y667533D01*
X-99840Y668699D01*
X-98674Y669865D01*
X-97508D01*
X-94009Y665200D02*
X-91676D01*
X-92843D01*
Y669865D01*
X-94009D01*
X-83512D02*
X-87011D01*
X-88178Y668699D01*
Y666366D01*
X-87011Y665200D01*
X-83512D01*
X-80014Y669865D02*
X-77681D01*
X-76515Y668699D01*
Y665200D01*
X-80014D01*
X-81180Y666366D01*
X-80014Y667533D01*
X-76515D01*
X-73016Y671032D02*
Y669865D01*
X-74182D01*
X-71850D01*
X-73016D01*
Y666366D01*
X-71850Y665200D01*
X-68351D02*
X-66018D01*
X-67184D01*
Y669865D01*
X-68351D01*
X-61353Y665200D02*
X-59020D01*
X-57854Y666366D01*
Y668699D01*
X-59020Y669865D01*
X-61353D01*
X-62519Y668699D01*
Y666366D01*
X-61353Y665200D01*
X-55522D02*
Y669865D01*
X-52023D01*
X-50856Y668699D01*
Y665200D01*
X-41526D02*
Y672198D01*
X-36861Y665200D01*
Y672198D01*
X-33362Y665200D02*
X-31029D01*
X-29863Y666366D01*
Y668699D01*
X-31029Y669865D01*
X-33362D01*
X-34528Y668699D01*
Y666366D01*
X-33362Y665200D01*
X-26364Y671032D02*
Y669865D01*
X-27531D01*
X-25198D01*
X-26364D01*
Y666366D01*
X-25198Y665200D01*
X-18200D02*
X-20533D01*
X-21699Y666366D01*
Y668699D01*
X-20533Y669865D01*
X-18200D01*
X-17034Y668699D01*
Y667533D01*
X-21699D01*
X-14701Y665200D02*
X-11203D01*
X-10036Y666366D01*
X-11203Y667533D01*
X-13535D01*
X-14701Y668699D01*
X-13535Y669865D01*
X-10036D01*
X-7704D02*
X-6537D01*
Y668699D01*
X-7704D01*
Y669865D01*
Y666366D02*
X-6537D01*
Y665200D01*
X-7704D01*
Y666366D01*
X-118668Y580198D02*
X-120334Y579365D01*
X-122000Y577699D01*
Y576033D01*
X-121167Y575200D01*
X-119501D01*
X-118668Y576033D01*
Y576866D01*
X-119501Y577699D01*
X-122000D01*
X-117002Y575200D02*
Y576033D01*
X-116169D01*
Y575200D01*
X-117002D01*
X-107838D02*
Y578532D01*
X-106172Y580198D01*
X-104506Y578532D01*
Y575200D01*
Y577699D01*
X-107838D01*
X-102840Y573534D02*
Y578532D01*
X-100340D01*
X-99507Y577699D01*
Y576033D01*
X-100340Y575200D01*
X-102840D01*
X-97841Y573534D02*
Y578532D01*
X-95342D01*
X-94509Y577699D01*
Y576033D01*
X-95342Y575200D01*
X-97841D01*
X-92843D02*
X-91177D01*
X-92010D01*
Y580198D01*
X-92843D01*
X-88678Y578532D02*
Y576033D01*
X-87844Y575200D01*
X-85345D01*
Y574367D01*
X-86178Y573534D01*
X-87011D01*
X-85345Y575200D02*
Y578532D01*
X-78681Y580198D02*
Y575200D01*
X-75348D01*
X-73682D02*
Y580198D01*
X-71183D01*
X-70350Y579365D01*
Y577699D01*
X-71183Y576866D01*
X-73682D01*
X-68684Y580198D02*
X-67018D01*
X-67851D01*
Y575200D01*
X-68684D01*
X-67018D01*
X-56188Y579365D02*
X-57021Y580198D01*
X-58687D01*
X-59520Y579365D01*
Y578532D01*
X-58687Y577699D01*
X-57021D01*
X-56188Y576866D01*
Y576033D01*
X-57021Y575200D01*
X-58687D01*
X-59520Y576033D01*
X-53689Y575200D02*
X-52023D01*
X-51190Y576033D01*
Y577699D01*
X-52023Y578532D01*
X-53689D01*
X-54522Y577699D01*
Y576033D01*
X-53689Y575200D01*
X-49523D02*
X-47857D01*
X-48690D01*
Y580198D01*
X-49523D01*
X-42026D02*
Y575200D01*
X-44525D01*
X-45358Y576033D01*
Y577699D01*
X-44525Y578532D01*
X-42026D01*
X-37861Y575200D02*
X-39527D01*
X-40360Y576033D01*
Y577699D01*
X-39527Y578532D01*
X-37861D01*
X-37027Y577699D01*
Y576866D01*
X-40360D01*
X-35361Y578532D02*
Y575200D01*
Y576866D01*
X-34528Y577699D01*
X-33695Y578532D01*
X-32862D01*
X-30363Y575200D02*
Y578532D01*
X-29530D01*
X-28697Y577699D01*
Y575200D01*
Y577699D01*
X-27864Y578532D01*
X-27031Y577699D01*
Y575200D01*
X-24532Y578532D02*
X-22865D01*
X-22032Y577699D01*
Y575200D01*
X-24532D01*
X-25365Y576033D01*
X-24532Y576866D01*
X-22032D01*
X-20366Y575200D02*
X-17867D01*
X-17034Y576033D01*
X-17867Y576866D01*
X-19533D01*
X-20366Y577699D01*
X-19533Y578532D01*
X-17034D01*
X-15368Y575200D02*
Y580198D01*
Y576866D02*
X-12869Y578532D01*
X-15368Y576866D02*
X-12869Y575200D01*
X-3705D02*
X-5371Y576866D01*
Y578532D01*
X-3705Y580198D01*
X-1206D02*
Y575200D01*
X1293D01*
X2127Y576033D01*
Y576866D01*
X1293Y577699D01*
X-1206D01*
X1293D01*
X2127Y578532D01*
Y579365D01*
X1293Y580198D01*
X-1206D01*
X3793Y575200D02*
X5459D01*
X4626D01*
Y580198D01*
X3793D01*
X7958Y578532D02*
Y576033D01*
X8791Y575200D01*
X11290D01*
Y578532D01*
X15455Y575200D02*
X13789D01*
X12956Y576033D01*
Y577699D01*
X13789Y578532D01*
X15455D01*
X16288Y577699D01*
Y576866D01*
X12956D01*
X17955Y575200D02*
X19621Y576866D01*
Y578532D01*
X17955Y580198D01*
X27951Y575200D02*
X29618D01*
X30451Y576033D01*
Y577699D01*
X29618Y578532D01*
X27951D01*
X27118Y577699D01*
Y576033D01*
X27951Y575200D01*
X32117D02*
Y578532D01*
X34616D01*
X35449Y577699D01*
Y575200D01*
X42114Y580198D02*
Y575200D01*
X44613D01*
X45446Y576033D01*
Y576866D01*
Y577699D01*
X44613Y578532D01*
X42114D01*
X47945Y575200D02*
X49611D01*
X50444Y576033D01*
Y577699D01*
X49611Y578532D01*
X47945D01*
X47112Y577699D01*
Y576033D01*
X47945Y575200D01*
X52943Y579365D02*
Y578532D01*
X52110D01*
X53776D01*
X52943D01*
Y576033D01*
X53776Y575200D01*
X56276Y580198D02*
Y575200D01*
Y577699D01*
X57109Y578532D01*
X58775D01*
X59608Y577699D01*
Y575200D01*
X66272D02*
X68771D01*
X69605Y576033D01*
X68771Y576866D01*
X67105D01*
X66272Y577699D01*
X67105Y578532D01*
X69605D01*
X71271Y575200D02*
X72937D01*
X72104D01*
Y578532D01*
X71271D01*
X78768Y580198D02*
Y575200D01*
X76269D01*
X75436Y576033D01*
Y577699D01*
X76269Y578532D01*
X78768D01*
X82934Y575200D02*
X81267D01*
X80434Y576033D01*
Y577699D01*
X81267Y578532D01*
X82934D01*
X83767Y577699D01*
Y576866D01*
X80434D01*
X85433Y575200D02*
X87932D01*
X88765Y576033D01*
X87932Y576866D01*
X86266D01*
X85433Y577699D01*
X86266Y578532D01*
X88765D01*
X-118668Y595198D02*
X-122000D01*
Y592699D01*
X-120334Y593532D01*
X-119501D01*
X-118668Y592699D01*
Y591033D01*
X-119501Y590200D01*
X-121167D01*
X-122000Y591033D01*
X-117002Y590200D02*
Y591033D01*
X-116169D01*
Y590200D01*
X-117002D01*
X-104506Y595198D02*
X-107838D01*
Y592699D01*
X-106172D01*
X-107838D01*
Y590200D01*
X-102840D02*
X-101173D01*
X-102006D01*
Y595198D01*
X-102840D01*
X-97841Y593532D02*
X-96175D01*
X-95342Y592699D01*
Y590200D01*
X-97841D01*
X-98674Y591033D01*
X-97841Y591866D01*
X-95342D01*
X-93676Y590200D02*
Y593532D01*
X-92843D01*
X-92010Y592699D01*
Y590200D01*
Y592699D01*
X-91177Y593532D01*
X-90344Y592699D01*
Y590200D01*
X-88678D02*
Y593532D01*
X-87844D01*
X-87011Y592699D01*
Y590200D01*
Y592699D01*
X-86178Y593532D01*
X-85345Y592699D01*
Y590200D01*
X-82846Y593532D02*
X-81180D01*
X-80347Y592699D01*
Y590200D01*
X-82846D01*
X-83679Y591033D01*
X-82846Y591866D01*
X-80347D01*
X-78681Y595198D02*
Y590200D01*
X-76182D01*
X-75348Y591033D01*
Y591866D01*
Y592699D01*
X-76182Y593532D01*
X-78681D01*
X-73682Y590200D02*
X-72016D01*
X-72849D01*
Y593532D01*
X-73682D01*
X-69517Y590200D02*
X-67851D01*
X-68684D01*
Y595198D01*
X-69517D01*
X-65352Y590200D02*
X-63686D01*
X-64519D01*
Y593532D01*
X-65352D01*
X-60353Y594365D02*
Y593532D01*
X-61186D01*
X-59520D01*
X-60353D01*
Y591033D01*
X-59520Y590200D01*
X-57021Y593532D02*
Y591033D01*
X-56188Y590200D01*
X-53689D01*
Y589367D01*
X-54522Y588534D01*
X-55355D01*
X-53689Y590200D02*
Y593532D01*
X-52023D02*
X-51190D01*
Y592699D01*
X-52023D01*
Y593532D01*
Y591033D02*
X-51190D01*
Y590200D01*
X-52023D01*
Y591033D01*
X-42859Y590200D02*
Y595198D01*
X-41193Y593532D01*
X-39527Y595198D01*
Y590200D01*
X-37027Y593532D02*
X-35361D01*
X-34528Y592699D01*
Y590200D01*
X-37027D01*
X-37861Y591033D01*
X-37027Y591866D01*
X-34528D01*
X-32029Y594365D02*
Y593532D01*
X-32862D01*
X-31196D01*
X-32029D01*
Y591033D01*
X-31196Y590200D01*
X-26198D02*
X-27864D01*
X-28697Y591033D01*
Y592699D01*
X-27864Y593532D01*
X-26198D01*
X-25365Y592699D01*
Y591866D01*
X-28697D01*
X-23698Y593532D02*
Y590200D01*
Y591866D01*
X-22865Y592699D01*
X-22032Y593532D01*
X-21199D01*
X-18700Y590200D02*
X-17034D01*
X-17867D01*
Y593532D01*
X-18700D01*
X-13702D02*
X-12036D01*
X-11203Y592699D01*
Y590200D01*
X-13702D01*
X-14535Y591033D01*
X-13702Y591866D01*
X-11203D01*
X-9536Y590200D02*
X-7870D01*
X-8703D01*
Y595198D01*
X-9536D01*
X-5371Y590200D02*
X-2872D01*
X-2039Y591033D01*
X-2872Y591866D01*
X-4538D01*
X-5371Y592699D01*
X-4538Y593532D01*
X-2039D01*
X5459Y594365D02*
Y593532D01*
X4626D01*
X6292D01*
X5459D01*
Y591033D01*
X6292Y590200D01*
X9624D02*
X11290D01*
X12123Y591033D01*
Y592699D01*
X11290Y593532D01*
X9624D01*
X8791Y592699D01*
Y591033D01*
X9624Y590200D01*
X18788D02*
Y593532D01*
X19621D01*
X20454Y592699D01*
Y590200D01*
Y592699D01*
X21287Y593532D01*
X22120Y592699D01*
Y590200D01*
X26285D02*
X24619D01*
X23786Y591033D01*
Y592699D01*
X24619Y593532D01*
X26285D01*
X27118Y592699D01*
Y591866D01*
X23786D01*
X31284Y590200D02*
X29618D01*
X28784Y591033D01*
Y592699D01*
X29618Y593532D01*
X31284D01*
X32117Y592699D01*
Y591866D01*
X28784D01*
X34616Y594365D02*
Y593532D01*
X33783D01*
X35449D01*
X34616D01*
Y591033D01*
X35449Y590200D01*
X42947Y595198D02*
Y591033D01*
X43780Y590200D01*
X45446D01*
X46279Y591033D01*
Y595198D01*
X47945D02*
Y590200D01*
X51277D01*
X52943Y591033D02*
X53776Y590200D01*
X55443D01*
X56276Y591033D01*
Y594365D01*
X55443Y595198D01*
X53776D01*
X52943Y594365D01*
Y593532D01*
X53776Y592699D01*
X56276D01*
X60441Y590200D02*
Y595198D01*
X57942Y592699D01*
X61274D01*
X62940Y595198D02*
Y591866D01*
X64606Y590200D01*
X66272Y591866D01*
Y595198D01*
X67939Y592699D02*
X71271D01*
X72937Y594365D02*
X73770Y595198D01*
X75436D01*
X76269Y594365D01*
Y591033D01*
X75436Y590200D01*
X73770D01*
X72937Y591033D01*
Y594365D01*
X82934Y590200D02*
X85433D01*
X86266Y591033D01*
X85433Y591866D01*
X83767D01*
X82934Y592699D01*
X83767Y593532D01*
X86266D01*
X87932Y588534D02*
Y593532D01*
X90431D01*
X91264Y592699D01*
Y591033D01*
X90431Y590200D01*
X87932D01*
X95430D02*
X93763D01*
X92930Y591033D01*
Y592699D01*
X93763Y593532D01*
X95430D01*
X96263Y592699D01*
Y591866D01*
X92930D01*
X101261Y593532D02*
X98762D01*
X97929Y592699D01*
Y591033D01*
X98762Y590200D01*
X101261D01*
X102927D02*
X104593D01*
X103760D01*
Y593532D01*
X102927D01*
X107925Y590200D02*
Y594365D01*
Y592699D01*
X107092D01*
X108759D01*
X107925D01*
Y594365D01*
X108759Y595198D01*
X111258Y590200D02*
X112924D01*
X112091D01*
Y593532D01*
X111258D01*
X118755D02*
X116256D01*
X115423Y592699D01*
Y591033D01*
X116256Y590200D01*
X118755D01*
X121255Y593532D02*
X122921D01*
X123754Y592699D01*
Y590200D01*
X121255D01*
X120422Y591033D01*
X121255Y591866D01*
X123754D01*
X126253Y594365D02*
Y593532D01*
X125420D01*
X127086D01*
X126253D01*
Y591033D01*
X127086Y590200D01*
X129585D02*
X131251D01*
X130418D01*
Y593532D01*
X129585D01*
X134584Y590200D02*
X136250D01*
X137083Y591033D01*
Y592699D01*
X136250Y593532D01*
X134584D01*
X133750Y592699D01*
Y591033D01*
X134584Y590200D01*
X138749D02*
Y593532D01*
X141248D01*
X142081Y592699D01*
Y590200D01*
X-119501Y605200D02*
Y610198D01*
X-122000Y607699D01*
X-118668D01*
X-117002Y605200D02*
Y606033D01*
X-116169D01*
Y605200D01*
X-117002D01*
X-107838Y610198D02*
Y605200D01*
X-105339D01*
X-104506Y606033D01*
Y606866D01*
X-105339Y607699D01*
X-107838D01*
X-105339D01*
X-104506Y608532D01*
Y609365D01*
X-105339Y610198D01*
X-107838D01*
X-102006Y605200D02*
X-100340D01*
X-99507Y606033D01*
Y607699D01*
X-100340Y608532D01*
X-102006D01*
X-102840Y607699D01*
Y606033D01*
X-102006Y605200D01*
X-97008Y608532D02*
X-95342D01*
X-94509Y607699D01*
Y605200D01*
X-97008D01*
X-97841Y606033D01*
X-97008Y606866D01*
X-94509D01*
X-92843Y608532D02*
Y605200D01*
Y606866D01*
X-92010Y607699D01*
X-91177Y608532D01*
X-90344D01*
X-84512Y610198D02*
Y605200D01*
X-87011D01*
X-87844Y606033D01*
Y607699D01*
X-87011Y608532D01*
X-84512D01*
X-77015Y605200D02*
Y609365D01*
Y607699D01*
X-77848D01*
X-76182D01*
X-77015D01*
Y609365D01*
X-76182Y610198D01*
X-73682Y605200D02*
X-72016D01*
X-72849D01*
Y608532D01*
X-73682D01*
X-69517Y605200D02*
Y608532D01*
X-67018D01*
X-66185Y607699D01*
Y605200D01*
X-64519D02*
X-62853D01*
X-63686D01*
Y608532D01*
X-64519D01*
X-60353Y605200D02*
X-57854D01*
X-57021Y606033D01*
X-57854Y606866D01*
X-59520D01*
X-60353Y607699D01*
X-59520Y608532D01*
X-57021D01*
X-55355Y610198D02*
Y605200D01*
Y607699D01*
X-54522Y608532D01*
X-52856D01*
X-52023Y607699D01*
Y605200D01*
X-50357Y608532D02*
X-49523D01*
Y607699D01*
X-50357D01*
Y608532D01*
Y606033D02*
X-49523D01*
Y605200D01*
X-50357D01*
Y606033D01*
X-37861Y610198D02*
X-41193D01*
Y605200D01*
X-37861D01*
X-41193Y607699D02*
X-39527D01*
X-36195Y605200D02*
X-34528D01*
X-35361D01*
Y610198D01*
X-36195D01*
X-29530Y605200D02*
X-31196D01*
X-32029Y606033D01*
Y607699D01*
X-31196Y608532D01*
X-29530D01*
X-28697Y607699D01*
Y606866D01*
X-32029D01*
X-23698Y608532D02*
X-26198D01*
X-27031Y607699D01*
Y606033D01*
X-26198Y605200D01*
X-23698D01*
X-21199Y609365D02*
Y608532D01*
X-22032D01*
X-20366D01*
X-21199D01*
Y606033D01*
X-20366Y605200D01*
X-17867Y608532D02*
Y605200D01*
Y606866D01*
X-17034Y607699D01*
X-16201Y608532D01*
X-15368D01*
X-12036Y605200D02*
X-10369D01*
X-9536Y606033D01*
Y607699D01*
X-10369Y608532D01*
X-12036D01*
X-12869Y607699D01*
Y606033D01*
X-12036Y605200D01*
X-7870D02*
X-6204D01*
X-7037D01*
Y610198D01*
X-7870D01*
X-1206Y605200D02*
X-2872D01*
X-3705Y606033D01*
Y607699D01*
X-2872Y608532D01*
X-1206D01*
X-373Y607699D01*
Y606866D01*
X-3705D01*
X1293Y605200D02*
X3793D01*
X4626Y606033D01*
X3793Y606866D01*
X2127D01*
X1293Y607699D01*
X2127Y608532D01*
X4626D01*
X6292Y605200D02*
X8791D01*
X9624Y606033D01*
X8791Y606866D01*
X7125D01*
X6292Y607699D01*
X7125Y608532D01*
X9624D01*
X16288Y605200D02*
Y610198D01*
X19621Y605200D01*
Y610198D01*
X21287Y605200D02*
X22953D01*
X22120D01*
Y608532D01*
X21287D01*
X28784D02*
X26285D01*
X25452Y607699D01*
Y606033D01*
X26285Y605200D01*
X28784D01*
X30451D02*
Y610198D01*
Y606866D02*
X32950Y608532D01*
X30451Y606866D02*
X32950Y605200D01*
X37948D02*
X36282D01*
X35449Y606033D01*
Y607699D01*
X36282Y608532D01*
X37948D01*
X38781Y607699D01*
Y606866D01*
X35449D01*
X40447Y605200D02*
X42114D01*
X41280D01*
Y610198D01*
X40447D01*
X45446Y604367D02*
X46279Y605200D01*
Y606033D01*
X45446D01*
Y605200D01*
X46279D01*
X45446Y604367D01*
X44613Y603534D01*
X54610Y610198D02*
X56276D01*
X55443D01*
Y605200D01*
X54610D01*
X56276D01*
X58775D02*
Y608532D01*
X59608D01*
X60441Y607699D01*
Y605200D01*
Y607699D01*
X61274Y608532D01*
X62107Y607699D01*
Y605200D01*
X63773D02*
Y608532D01*
X64606D01*
X65439Y607699D01*
Y605200D01*
Y607699D01*
X66272Y608532D01*
X67105Y607699D01*
Y605200D01*
X71271D02*
X69605D01*
X68771Y606033D01*
Y607699D01*
X69605Y608532D01*
X71271D01*
X72104Y607699D01*
Y606866D01*
X68771D01*
X73770Y608532D02*
Y605200D01*
Y606866D01*
X74603Y607699D01*
X75436Y608532D01*
X76269D01*
X78768Y605200D02*
X81267D01*
X82101Y606033D01*
X81267Y606866D01*
X79601D01*
X78768Y607699D01*
X79601Y608532D01*
X82101D01*
X83767Y605200D02*
X85433D01*
X84600D01*
Y608532D01*
X83767D01*
X88765Y605200D02*
X90431D01*
X91264Y606033D01*
Y607699D01*
X90431Y608532D01*
X88765D01*
X87932Y607699D01*
Y606033D01*
X88765Y605200D01*
X92930D02*
Y608532D01*
X95430D01*
X96263Y607699D01*
Y605200D01*
X106259Y609365D02*
X105426Y610198D01*
X103760D01*
X102927Y609365D01*
Y606033D01*
X103760Y605200D01*
X105426D01*
X106259Y606033D01*
Y607699D01*
X104593D01*
X108759Y605200D02*
X110425D01*
X111258Y606033D01*
Y607699D01*
X110425Y608532D01*
X108759D01*
X107925Y607699D01*
Y606033D01*
X108759Y605200D01*
X112924D02*
X114590D01*
X113757D01*
Y610198D01*
X112924D01*
X120422D02*
Y605200D01*
X117922D01*
X117089Y606033D01*
Y607699D01*
X117922Y608532D01*
X120422D01*
X128752Y605200D02*
X127086Y606866D01*
Y608532D01*
X128752Y610198D01*
X134584D02*
X131251D01*
Y605200D01*
X134584D01*
X131251Y607699D02*
X132917D01*
X136250Y605200D02*
Y610198D01*
X139582Y605200D01*
Y610198D01*
X141248D02*
X142914D01*
X142081D01*
Y605200D01*
X141248D01*
X142914D01*
X148746Y609365D02*
X147913Y610198D01*
X146246D01*
X145413Y609365D01*
Y606033D01*
X146246Y605200D01*
X147913D01*
X148746Y606033D01*
Y607699D01*
X147080D01*
X150412Y605200D02*
X152078Y606866D01*
Y608532D01*
X150412Y610198D01*
X-122000Y624365D02*
X-121167Y625198D01*
X-119501D01*
X-118668Y624365D01*
Y623532D01*
X-119501Y622699D01*
X-120334D01*
X-119501D01*
X-118668Y621866D01*
Y621033D01*
X-119501Y620200D01*
X-121167D01*
X-122000Y621033D01*
X-117002Y620200D02*
Y621033D01*
X-116169D01*
Y620200D01*
X-117002D01*
X-107838D02*
Y625198D01*
X-106172Y623532D01*
X-104506Y625198D01*
Y620200D01*
X-102840D02*
X-101173D01*
X-102006D01*
Y623532D01*
X-102840D01*
X-98674Y620200D02*
Y623532D01*
X-96175D01*
X-95342Y622699D01*
Y620200D01*
X-93676D02*
X-92010D01*
X-92843D01*
Y623532D01*
X-93676D01*
X-89511Y620200D02*
Y623532D01*
X-88678D01*
X-87844Y622699D01*
Y620200D01*
Y622699D01*
X-87011Y623532D01*
X-86178Y622699D01*
Y620200D01*
X-84512Y623532D02*
Y621033D01*
X-83679Y620200D01*
X-81180D01*
Y623532D01*
X-79514Y620200D02*
Y623532D01*
X-78681D01*
X-77848Y622699D01*
Y620200D01*
Y622699D01*
X-77015Y623532D01*
X-76182Y622699D01*
Y620200D01*
X-68684Y624365D02*
Y623532D01*
X-69517D01*
X-67851D01*
X-68684D01*
Y621033D01*
X-67851Y620200D01*
X-65352Y623532D02*
Y620200D01*
Y621866D01*
X-64519Y622699D01*
X-63686Y623532D01*
X-62853D01*
X-59520D02*
X-57854D01*
X-57021Y622699D01*
Y620200D01*
X-59520D01*
X-60353Y621033D01*
X-59520Y621866D01*
X-57021D01*
X-52023Y623532D02*
X-54522D01*
X-55355Y622699D01*
Y621033D01*
X-54522Y620200D01*
X-52023D01*
X-47857D02*
X-49523D01*
X-50357Y621033D01*
Y622699D01*
X-49523Y623532D01*
X-47857D01*
X-47024Y622699D01*
Y621866D01*
X-50357D01*
X-40360Y623532D02*
Y621033D01*
X-39527Y620200D01*
X-38694Y621033D01*
X-37861Y620200D01*
X-37027Y621033D01*
Y623532D01*
X-35361Y620200D02*
X-33695D01*
X-34528D01*
Y623532D01*
X-35361D01*
X-27864Y625198D02*
Y620200D01*
X-30363D01*
X-31196Y621033D01*
Y622699D01*
X-30363Y623532D01*
X-27864D01*
X-25365Y624365D02*
Y623532D01*
X-26198D01*
X-24532D01*
X-25365D01*
Y621033D01*
X-24532Y620200D01*
X-22032Y625198D02*
Y620200D01*
Y622699D01*
X-21199Y623532D01*
X-19533D01*
X-18700Y622699D01*
Y620200D01*
X-12036D02*
X-10369D01*
X-11203D01*
Y623532D01*
X-12036D01*
X-7870Y620200D02*
X-5371D01*
X-4538Y621033D01*
X-5371Y621866D01*
X-7037D01*
X-7870Y622699D01*
X-7037Y623532D01*
X-4538D01*
X5459Y625198D02*
X3793Y624365D01*
X2127Y622699D01*
Y621033D01*
X2960Y620200D01*
X4626D01*
X5459Y621033D01*
Y621866D01*
X4626Y622699D01*
X2127D01*
X7125Y620200D02*
Y623532D01*
X7958D01*
X8791Y622699D01*
Y620200D01*
Y622699D01*
X9624Y623532D01*
X10457Y622699D01*
Y620200D01*
X12123D02*
X13789D01*
X12956D01*
Y623532D01*
X12123D01*
X16288Y620200D02*
X17955D01*
X17122D01*
Y625198D01*
X16288D01*
X21287Y619367D02*
X22120Y620200D01*
Y621033D01*
X21287D01*
Y620200D01*
X22120D01*
X21287Y619367D01*
X20454Y618534D01*
X30451Y620200D02*
Y623532D01*
X31284D01*
X32117Y622699D01*
Y620200D01*
Y622699D01*
X32950Y623532D01*
X33783Y622699D01*
Y620200D01*
X35449D02*
X37115D01*
X36282D01*
Y623532D01*
X35449D01*
X39614Y620200D02*
Y623532D01*
X42114D01*
X42947Y622699D01*
Y620200D01*
X44613D02*
X46279D01*
X45446D01*
Y623532D01*
X44613D01*
X48778Y620200D02*
Y623532D01*
X49611D01*
X50444Y622699D01*
Y620200D01*
Y622699D01*
X51277Y623532D01*
X52110Y622699D01*
Y620200D01*
X53776Y623532D02*
Y621033D01*
X54610Y620200D01*
X57109D01*
Y623532D01*
X58775Y620200D02*
Y623532D01*
X59608D01*
X60441Y622699D01*
Y620200D01*
Y622699D01*
X61274Y623532D01*
X62107Y622699D01*
Y620200D01*
X68771D02*
X71271D01*
X72104Y621033D01*
X71271Y621866D01*
X69605D01*
X68771Y622699D01*
X69605Y623532D01*
X72104D01*
X73770Y618534D02*
Y623532D01*
X76269D01*
X77102Y622699D01*
Y621033D01*
X76269Y620200D01*
X73770D01*
X79601Y623532D02*
X81267D01*
X82101Y622699D01*
Y620200D01*
X79601D01*
X78768Y621033D01*
X79601Y621866D01*
X82101D01*
X87099Y623532D02*
X84600D01*
X83767Y622699D01*
Y621033D01*
X84600Y620200D01*
X87099D01*
X88765D02*
X90431D01*
X89598D01*
Y623532D01*
X88765D01*
X92930Y620200D02*
Y623532D01*
X95430D01*
X96263Y622699D01*
Y620200D01*
X99595Y618534D02*
X100428D01*
X101261Y619367D01*
Y623532D01*
X98762D01*
X97929Y622699D01*
Y621033D01*
X98762Y620200D01*
X101261D01*
X107925D02*
X109592D01*
X108759D01*
Y623532D01*
X107925D01*
X112091Y620200D02*
X114590D01*
X115423Y621033D01*
X114590Y621866D01*
X112924D01*
X112091Y622699D01*
X112924Y623532D01*
X115423D01*
X125420Y625198D02*
X123754Y624365D01*
X122088Y622699D01*
Y621033D01*
X122921Y620200D01*
X124587D01*
X125420Y621033D01*
Y621866D01*
X124587Y622699D01*
X122088D01*
X127086Y620200D02*
Y623532D01*
X127919D01*
X128752Y622699D01*
Y620200D01*
Y622699D01*
X129585Y623532D01*
X130418Y622699D01*
Y620200D01*
X132084D02*
X133750D01*
X132917D01*
Y623532D01*
X132084D01*
X136250Y620200D02*
X137916D01*
X137083D01*
Y625198D01*
X136250D01*
X-122000Y650200D02*
X-120334D01*
X-121167D01*
Y655198D01*
X-122000Y654365D01*
X-117835Y650200D02*
Y651033D01*
X-117002D01*
Y650200D01*
X-117835D01*
X-105339Y655198D02*
X-108671D01*
Y652699D01*
X-107005D01*
X-108671D01*
Y650200D01*
X-102840Y653532D02*
X-101173D01*
X-100340Y652699D01*
Y650200D01*
X-102840D01*
X-103673Y651033D01*
X-102840Y651866D01*
X-100340D01*
X-98674Y655198D02*
Y650200D01*
X-96175D01*
X-95342Y651033D01*
Y651866D01*
Y652699D01*
X-96175Y653532D01*
X-98674D01*
X-93676D02*
Y650200D01*
Y651866D01*
X-92843Y652699D01*
X-92010Y653532D01*
X-91177D01*
X-88678Y650200D02*
X-87011D01*
X-87844D01*
Y653532D01*
X-88678D01*
X-81180D02*
X-83679D01*
X-84512Y652699D01*
Y651033D01*
X-83679Y650200D01*
X-81180D01*
X-78681Y653532D02*
X-77015D01*
X-76182Y652699D01*
Y650200D01*
X-78681D01*
X-79514Y651033D01*
X-78681Y651866D01*
X-76182D01*
X-73682Y654365D02*
Y653532D01*
X-74515D01*
X-72849D01*
X-73682D01*
Y651033D01*
X-72849Y650200D01*
X-67851D02*
X-69517D01*
X-70350Y651033D01*
Y652699D01*
X-69517Y653532D01*
X-67851D01*
X-67018Y652699D01*
Y651866D01*
X-70350D01*
X-59520Y654365D02*
Y653532D01*
X-60353D01*
X-58687D01*
X-59520D01*
Y651033D01*
X-58687Y650200D01*
X-55355D02*
X-53689D01*
X-52856Y651033D01*
Y652699D01*
X-53689Y653532D01*
X-55355D01*
X-56188Y652699D01*
Y651033D01*
X-55355Y650200D01*
X-46191D02*
Y653532D01*
X-45358D01*
X-44525Y652699D01*
Y650200D01*
Y652699D01*
X-43692Y653532D01*
X-42859Y652699D01*
Y650200D01*
X-38694D02*
X-40360D01*
X-41193Y651033D01*
Y652699D01*
X-40360Y653532D01*
X-38694D01*
X-37861Y652699D01*
Y651866D01*
X-41193D01*
X-33695Y650200D02*
X-35361D01*
X-36195Y651033D01*
Y652699D01*
X-35361Y653532D01*
X-33695D01*
X-32862Y652699D01*
Y651866D01*
X-36195D01*
X-30363Y654365D02*
Y653532D01*
X-31196D01*
X-29530D01*
X-30363D01*
Y651033D01*
X-29530Y650200D01*
X-21199D02*
X-19533D01*
X-18700Y651033D01*
Y652699D01*
X-19533Y653532D01*
X-21199D01*
X-22032Y652699D01*
Y651033D01*
X-21199Y650200D01*
X-17034Y653532D02*
Y650200D01*
Y651866D01*
X-16201Y652699D01*
X-15368Y653532D01*
X-14535D01*
X-4538Y650200D02*
X-6204D01*
X-7037Y651033D01*
Y652699D01*
X-6204Y653532D01*
X-4538D01*
X-3705Y652699D01*
Y651866D01*
X-7037D01*
X-2039Y653532D02*
X1293Y650200D01*
X-373Y651866D01*
X1293Y653532D01*
X-2039Y650200D01*
X6292Y653532D02*
X3793D01*
X2960Y652699D01*
Y651033D01*
X3793Y650200D01*
X6292D01*
X10457D02*
X8791D01*
X7958Y651033D01*
Y652699D01*
X8791Y653532D01*
X10457D01*
X11290Y652699D01*
Y651866D01*
X7958D01*
X15455Y650200D02*
X13789D01*
X12956Y651033D01*
Y652699D01*
X13789Y653532D01*
X15455D01*
X16288Y652699D01*
Y651866D01*
X12956D01*
X21287Y655198D02*
Y650200D01*
X18788D01*
X17955Y651033D01*
Y652699D01*
X18788Y653532D01*
X21287D01*
X27951Y655198D02*
X29618D01*
X28784D01*
Y650200D01*
X27951D01*
X29618D01*
X32117D02*
Y655198D01*
X34616D01*
X35449Y654365D01*
Y652699D01*
X34616Y651866D01*
X32117D01*
X40447Y654365D02*
X39614Y655198D01*
X37948D01*
X37115Y654365D01*
Y651033D01*
X37948Y650200D01*
X39614D01*
X40447Y651033D01*
X50444Y655198D02*
X48778Y654365D01*
X47112Y652699D01*
Y651033D01*
X47945Y650200D01*
X49611D01*
X50444Y651033D01*
Y651866D01*
X49611Y652699D01*
X47112D01*
X52110Y654365D02*
X52943Y655198D01*
X54610D01*
X55443Y654365D01*
Y651033D01*
X54610Y650200D01*
X52943D01*
X52110Y651033D01*
Y654365D01*
X57109Y650200D02*
X58775D01*
X57942D01*
Y655198D01*
X57109Y654365D01*
X61274Y650200D02*
X62940D01*
X62107D01*
Y655198D01*
X61274Y654365D01*
X65439Y650200D02*
X68771Y653532D01*
X73770Y655198D02*
X72104Y654365D01*
X70438Y652699D01*
Y651033D01*
X71271Y650200D01*
X72937D01*
X73770Y651033D01*
Y651866D01*
X72937Y652699D01*
X70438D01*
X75436Y654365D02*
X76269Y655198D01*
X77935D01*
X78768Y654365D01*
Y651033D01*
X77935Y650200D01*
X76269D01*
X75436Y651033D01*
Y654365D01*
X80434Y650200D02*
X82100D01*
X81267D01*
Y655198D01*
X80434Y654365D01*
X87932Y650200D02*
X84600D01*
X87932Y653532D01*
Y654365D01*
X87099Y655198D01*
X85433D01*
X84600Y654365D01*
X97929D02*
X97096Y655198D01*
X95430D01*
X94596Y654365D01*
Y651033D01*
X95430Y650200D01*
X97096D01*
X97929Y651033D01*
X99595Y650200D02*
X101261D01*
X100428D01*
Y655198D01*
X99595D01*
X104593Y653532D02*
X106259D01*
X107092Y652699D01*
Y650200D01*
X104593D01*
X103760Y651033D01*
X104593Y651866D01*
X107092D01*
X108759Y650200D02*
X111258D01*
X112091Y651033D01*
X111258Y651866D01*
X109592D01*
X108759Y652699D01*
X109592Y653532D01*
X112091D01*
X113757Y650200D02*
X116256D01*
X117089Y651033D01*
X116256Y651866D01*
X114590D01*
X113757Y652699D01*
X114590Y653532D01*
X117089D01*
X127086Y650200D02*
X123754D01*
X127086Y653532D01*
Y654365D01*
X126253Y655198D01*
X124587D01*
X123754Y654365D01*
X129585Y649367D02*
X130418Y650200D01*
Y651033D01*
X129585D01*
Y650200D01*
X130418D01*
X129585Y649367D01*
X128752Y648534D01*
X139582Y653532D02*
X141248D01*
X142081Y652699D01*
Y650200D01*
X139582D01*
X138749Y651033D01*
X139582Y651866D01*
X142081D01*
X143747Y650200D02*
X146246D01*
X147080Y651033D01*
X146246Y651866D01*
X144580D01*
X143747Y652699D01*
X144580Y653532D01*
X147080D01*
X157076Y655198D02*
Y650200D01*
X154577D01*
X153744Y651033D01*
Y652699D01*
X154577Y653532D01*
X157076D01*
X161242Y650200D02*
X159575D01*
X158742Y651033D01*
Y652699D01*
X159575Y653532D01*
X161242D01*
X162075Y652699D01*
Y651866D01*
X158742D01*
X164574Y650200D02*
Y654365D01*
Y652699D01*
X163741D01*
X165407D01*
X164574D01*
Y654365D01*
X165407Y655198D01*
X167906Y650200D02*
X169572D01*
X168739D01*
Y653532D01*
X167906D01*
X172071Y650200D02*
Y653532D01*
X174571D01*
X175404Y652699D01*
Y650200D01*
X177070D02*
X178736D01*
X177903D01*
Y653532D01*
X177070D01*
X183734Y650200D02*
X182068D01*
X181235Y651033D01*
Y652699D01*
X182068Y653532D01*
X183734D01*
X184567Y652699D01*
Y651866D01*
X181235D01*
X189566Y655198D02*
Y650200D01*
X187066D01*
X186233Y651033D01*
Y652699D01*
X187066Y653532D01*
X189566D01*
X196230Y650200D02*
X197896D01*
X197063D01*
Y653532D01*
X196230D01*
X200396Y650200D02*
Y653532D01*
X202895D01*
X203728Y652699D01*
Y650200D01*
X210392Y655198D02*
X212058D01*
X211225D01*
Y650200D01*
X210392D01*
X212058D01*
X214558D02*
Y655198D01*
X217057D01*
X217890Y654365D01*
Y652699D01*
X217057Y651866D01*
X214558D01*
X222888Y654365D02*
X222055Y655198D01*
X220389D01*
X219556Y654365D01*
Y651033D01*
X220389Y650200D01*
X222055D01*
X222888Y651033D01*
X224554Y652699D02*
X227887D01*
X232885Y650200D02*
X229553D01*
X232885Y653532D01*
Y654365D01*
X232052Y655198D01*
X230386D01*
X229553Y654365D01*
X237883Y650200D02*
X234551D01*
X237883Y653532D01*
Y654365D01*
X237050Y655198D01*
X235384D01*
X234551Y654365D01*
X242882Y650200D02*
X239549D01*
X242882Y653532D01*
Y654365D01*
X242049Y655198D01*
X240383D01*
X239549Y654365D01*
X244548Y650200D02*
X246214D01*
X245381D01*
Y655198D01*
X244548Y654365D01*
X-122000Y565198D02*
X-118668D01*
Y564365D01*
X-122000Y561033D01*
Y560200D01*
X-117002D02*
Y561033D01*
X-116169D01*
Y560200D01*
X-117002D01*
X-104506Y564365D02*
X-105339Y565198D01*
X-107005D01*
X-107838Y564365D01*
Y563532D01*
X-107005Y562699D01*
X-105339D01*
X-104506Y561866D01*
Y561033D01*
X-105339Y560200D01*
X-107005D01*
X-107838Y561033D01*
X-102840Y560200D02*
X-101173D01*
X-102006D01*
Y563532D01*
X-102840D01*
X-98674Y560200D02*
X-97008D01*
X-97841D01*
Y565198D01*
X-98674D01*
X-94509Y560200D02*
Y565198D01*
Y561866D02*
X-92010Y563532D01*
X-94509Y561866D02*
X-92010Y560200D01*
X-89511D02*
X-87011D01*
X-86178Y561033D01*
X-87011Y561866D01*
X-88678D01*
X-89511Y562699D01*
X-88678Y563532D01*
X-86178D01*
X-81180D02*
X-83679D01*
X-84512Y562699D01*
Y561033D01*
X-83679Y560200D01*
X-81180D01*
X-79514Y563532D02*
Y560200D01*
Y561866D01*
X-78681Y562699D01*
X-77848Y563532D01*
X-77015D01*
X-72016Y560200D02*
X-73682D01*
X-74515Y561033D01*
Y562699D01*
X-73682Y563532D01*
X-72016D01*
X-71183Y562699D01*
Y561866D01*
X-74515D01*
X-67018Y560200D02*
X-68684D01*
X-69517Y561033D01*
Y562699D01*
X-68684Y563532D01*
X-67018D01*
X-66185Y562699D01*
Y561866D01*
X-69517D01*
X-64519Y560200D02*
Y563532D01*
X-62019D01*
X-61186Y562699D01*
Y560200D01*
X-53689D02*
X-52023D01*
X-51190Y561033D01*
Y562699D01*
X-52023Y563532D01*
X-53689D01*
X-54522Y562699D01*
Y561033D01*
X-53689Y560200D01*
X-49523D02*
Y563532D01*
X-47024D01*
X-46191Y562699D01*
Y560200D01*
X-39527Y565198D02*
Y560200D01*
X-37027D01*
X-36195Y561033D01*
Y561866D01*
Y562699D01*
X-37027Y563532D01*
X-39527D01*
X-33695Y560200D02*
X-32029D01*
X-31196Y561033D01*
Y562699D01*
X-32029Y563532D01*
X-33695D01*
X-34528Y562699D01*
Y561033D01*
X-33695Y560200D01*
X-28697Y564365D02*
Y563532D01*
X-29530D01*
X-27864D01*
X-28697D01*
Y561033D01*
X-27864Y560200D01*
X-25365Y565198D02*
Y560200D01*
Y562699D01*
X-24532Y563532D01*
X-22865D01*
X-22032Y562699D01*
Y560200D01*
X-15368D02*
X-12869D01*
X-12036Y561033D01*
X-12869Y561866D01*
X-14535D01*
X-15368Y562699D01*
X-14535Y563532D01*
X-12036D01*
X-10369Y560200D02*
X-8703D01*
X-9536D01*
Y563532D01*
X-10369D01*
X-2872Y565198D02*
Y560200D01*
X-5371D01*
X-6204Y561033D01*
Y562699D01*
X-5371Y563532D01*
X-2872D01*
X1293Y560200D02*
X-373D01*
X-1206Y561033D01*
Y562699D01*
X-373Y563532D01*
X1293D01*
X2127Y562699D01*
Y561866D01*
X-1206D01*
X3793Y560200D02*
X6292D01*
X7125Y561033D01*
X6292Y561866D01*
X4626D01*
X3793Y562699D01*
X4626Y563532D01*
X7125D01*
X13789D02*
Y561033D01*
X14622Y560200D01*
X17122D01*
Y563532D01*
X18788Y560200D02*
X21287D01*
X22120Y561033D01*
X21287Y561866D01*
X19621D01*
X18788Y562699D01*
X19621Y563532D01*
X22120D01*
X23786Y560200D02*
X25452D01*
X24619D01*
Y563532D01*
X23786D01*
X27951Y560200D02*
Y563532D01*
X30451D01*
X31284Y562699D01*
Y560200D01*
X34616Y558534D02*
X35449D01*
X36282Y559367D01*
Y563532D01*
X33783D01*
X32950Y562699D01*
Y561033D01*
X33783Y560200D01*
X36282D01*
X42947Y563532D02*
Y561033D01*
X43780Y560200D01*
X44613Y561033D01*
X45446Y560200D01*
X46279Y561033D01*
Y563532D01*
X47945Y565198D02*
Y560200D01*
Y562699D01*
X48778Y563532D01*
X50444D01*
X51277Y562699D01*
Y560200D01*
X52943D02*
X54610D01*
X53776D01*
Y563532D01*
X52943D01*
X57942Y564365D02*
Y563532D01*
X57109D01*
X58775D01*
X57942D01*
Y561033D01*
X58775Y560200D01*
X63773D02*
X62107D01*
X61274Y561033D01*
Y562699D01*
X62107Y563532D01*
X63773D01*
X64606Y562699D01*
Y561866D01*
X61274D01*
X73770Y560200D02*
X72104D01*
X71271Y561033D01*
Y562699D01*
X72104Y563532D01*
X73770D01*
X74603Y562699D01*
Y561866D01*
X71271D01*
X76269Y558534D02*
Y563532D01*
X78768D01*
X79601Y562699D01*
Y561033D01*
X78768Y560200D01*
X76269D01*
X82100D02*
X83767D01*
X84600Y561033D01*
Y562699D01*
X83767Y563532D01*
X82100D01*
X81267Y562699D01*
Y561033D01*
X82100Y560200D01*
X86266Y563532D02*
X89598Y560200D01*
X87932Y561866D01*
X89598Y563532D01*
X86266Y560200D01*
X91264Y563532D02*
Y561033D01*
X92097Y560200D01*
X94596D01*
Y559367D01*
X93763Y558534D01*
X92930D01*
X94596Y560200D02*
Y563532D01*
X101261Y560200D02*
X102927D01*
X102094D01*
Y563532D01*
X101261D01*
X105426Y560200D02*
Y563532D01*
X107925D01*
X108759Y562699D01*
Y560200D01*
X110425D02*
Y565198D01*
Y561866D02*
X112924Y563532D01*
X110425Y561866D02*
X112924Y560200D01*
X121255D02*
X122921D01*
X123754Y561033D01*
Y562699D01*
X122921Y563532D01*
X121255D01*
X120422Y562699D01*
Y561033D01*
X121255Y560200D01*
X125420Y563532D02*
Y560200D01*
Y561866D01*
X126253Y562699D01*
X127086Y563532D01*
X127919D01*
X137916Y560200D02*
X136250D01*
X135417Y561033D01*
Y562699D01*
X136250Y563532D01*
X137916D01*
X138749Y562699D01*
Y561866D01*
X135417D01*
X143747Y558534D02*
Y563532D01*
X141248D01*
X140415Y562699D01*
Y561033D01*
X141248Y560200D01*
X143747D01*
X145413Y563532D02*
Y561033D01*
X146246Y560200D01*
X148746D01*
Y563532D01*
X150412Y560200D02*
X152078D01*
X151245D01*
Y563532D01*
X150412D01*
X154577D02*
X156243Y560200D01*
X157909Y563532D01*
X160408D02*
X162075D01*
X162908Y562699D01*
Y560200D01*
X160408D01*
X159575Y561033D01*
X160408Y561866D01*
X162908D01*
X164574Y560200D02*
X166240D01*
X165407D01*
Y565198D01*
X164574D01*
X171238Y560200D02*
X169572D01*
X168739Y561033D01*
Y562699D01*
X169572Y563532D01*
X171238D01*
X172071Y562699D01*
Y561866D01*
X168739D01*
X173738Y560200D02*
Y563532D01*
X176237D01*
X177070Y562699D01*
Y560200D01*
X179569Y564365D02*
Y563532D01*
X178736D01*
X180402D01*
X179569D01*
Y561033D01*
X180402Y560200D01*
X183734Y559367D02*
X184567Y560200D01*
Y561033D01*
X183734D01*
Y560200D01*
X184567D01*
X183734Y559367D01*
X182901Y558534D01*
X-118668Y635200D02*
X-122000D01*
X-118668Y638532D01*
Y639365D01*
X-119501Y640198D01*
X-121167D01*
X-122000Y639365D01*
X-117002Y635200D02*
Y636033D01*
X-116169D01*
Y635200D01*
X-117002D01*
X-107838D02*
Y640198D01*
X-105339D01*
X-104506Y639365D01*
Y637699D01*
X-105339Y636866D01*
X-107838D01*
X-102840Y638532D02*
Y635200D01*
Y636866D01*
X-102006Y637699D01*
X-101173Y638532D01*
X-100340D01*
X-95342Y635200D02*
X-97008D01*
X-97841Y636033D01*
Y637699D01*
X-97008Y638532D01*
X-95342D01*
X-94509Y637699D01*
Y636866D01*
X-97841D01*
X-92843Y633534D02*
Y638532D01*
X-90344D01*
X-89511Y637699D01*
Y636033D01*
X-90344Y635200D01*
X-92843D01*
X-87844Y638532D02*
Y635200D01*
Y636866D01*
X-87011Y637699D01*
X-86178Y638532D01*
X-85345D01*
X-80347Y635200D02*
X-82013D01*
X-82846Y636033D01*
Y637699D01*
X-82013Y638532D01*
X-80347D01*
X-79514Y637699D01*
Y636866D01*
X-82846D01*
X-76182Y633534D02*
X-75349D01*
X-74515Y634367D01*
Y638532D01*
X-77015D01*
X-77848Y637699D01*
Y636033D01*
X-77015Y635200D01*
X-74515D01*
X-67851D02*
Y640198D01*
X-66185Y638532D01*
X-64519Y640198D01*
Y635200D01*
X-62019Y638532D02*
X-60353D01*
X-59520Y637699D01*
Y635200D01*
X-62019D01*
X-62853Y636033D01*
X-62019Y636866D01*
X-59520D01*
X-57021Y639365D02*
Y638532D01*
X-57854D01*
X-56188D01*
X-57021D01*
Y636033D01*
X-56188Y635200D01*
X-51190D02*
X-52856D01*
X-53689Y636033D01*
Y637699D01*
X-52856Y638532D01*
X-51190D01*
X-50357Y637699D01*
Y636866D01*
X-53689D01*
X-48690Y638532D02*
Y635200D01*
Y636866D01*
X-47857Y637699D01*
X-47024Y638532D01*
X-46191D01*
X-43692Y635200D02*
X-42026D01*
X-42859D01*
Y638532D01*
X-43692D01*
X-38694D02*
X-37027D01*
X-36195Y637699D01*
Y635200D01*
X-38694D01*
X-39527Y636033D01*
X-38694Y636866D01*
X-36195D01*
X-34528Y635200D02*
X-32862D01*
X-33695D01*
Y640198D01*
X-34528D01*
X-30363Y638532D02*
X-29530D01*
Y637699D01*
X-30363D01*
Y638532D01*
Y636033D02*
X-29530D01*
Y635200D01*
X-30363D01*
Y636033D01*
X-21199Y639365D02*
X-20366Y640198D01*
X-18700D01*
X-17867Y639365D01*
Y638532D01*
X-18700Y637699D01*
X-19533D01*
X-18700D01*
X-17867Y636866D01*
Y636033D01*
X-18700Y635200D01*
X-20366D01*
X-21199Y636033D01*
X-16201Y640198D02*
X-12869D01*
Y639365D01*
X-16201Y636033D01*
Y635200D01*
X-11203Y639365D02*
X-10369Y640198D01*
X-8703D01*
X-7870Y639365D01*
Y636033D01*
X-8703Y635200D01*
X-10369D01*
X-11203Y636033D01*
Y639365D01*
X-6204Y640198D02*
Y635200D01*
Y637699D01*
X-2872D01*
Y640198D01*
Y635200D01*
X-1206D02*
Y640198D01*
X1293D01*
X2127Y639365D01*
Y637699D01*
X1293Y636866D01*
X-1206D01*
X460D02*
X2127Y635200D01*
X9624D02*
X11290D01*
X12123Y636033D01*
Y637699D01*
X11290Y638532D01*
X9624D01*
X8791Y637699D01*
Y636033D01*
X9624Y635200D01*
X13789Y638532D02*
Y635200D01*
Y636866D01*
X14622Y637699D01*
X15455Y638532D01*
X16288D01*
X23786Y635200D02*
Y638532D01*
X24619D01*
X25452Y637699D01*
Y635200D01*
Y637699D01*
X26285Y638532D01*
X27118Y637699D01*
Y635200D01*
X29618Y638532D02*
X31284D01*
X32117Y637699D01*
Y635200D01*
X29618D01*
X28784Y636033D01*
X29618Y636866D01*
X32117D01*
X34616Y639365D02*
Y638532D01*
X33783D01*
X35449D01*
X34616D01*
Y636033D01*
X35449Y635200D01*
X40447D02*
X38781D01*
X37948Y636033D01*
Y637699D01*
X38781Y638532D01*
X40447D01*
X41280Y637699D01*
Y636866D01*
X37948D01*
X42947Y638532D02*
Y635200D01*
Y636866D01*
X43780Y637699D01*
X44613Y638532D01*
X45446D01*
X47945Y635200D02*
X49611D01*
X48778D01*
Y638532D01*
X47945D01*
X52943D02*
X54610D01*
X55443Y637699D01*
Y635200D01*
X52943D01*
X52110Y636033D01*
X52943Y636866D01*
X55443D01*
X57109Y635200D02*
X58775D01*
X57942D01*
Y640198D01*
X57109D01*
X66272Y638532D02*
Y636033D01*
X67105Y635200D01*
X67939Y636033D01*
X68771Y635200D01*
X69605Y636033D01*
Y638532D01*
X71271Y635200D02*
X72937D01*
X72104D01*
Y638532D01*
X71271D01*
X76269Y639365D02*
Y638532D01*
X75436D01*
X77102D01*
X76269D01*
Y636033D01*
X77102Y635200D01*
X79601Y640198D02*
Y635200D01*
Y637699D01*
X80434Y638532D01*
X82100D01*
X82934Y637699D01*
Y635200D01*
X89598Y640198D02*
X92930D01*
X91264D01*
Y635200D01*
X97929Y639365D02*
X97096Y640198D01*
X95430D01*
X94596Y639365D01*
Y636033D01*
X95430Y635200D01*
X97096D01*
X97929Y636033D01*
Y637699D01*
X96263D01*
X104593Y635200D02*
X107092Y637699D01*
X104593Y640198D01*
X108759Y636866D02*
X112091D01*
X108759Y638532D02*
X112091D01*
X118755Y635200D02*
X120422D01*
X119588D01*
Y640198D01*
X118755Y639365D01*
X122921Y640198D02*
X126253D01*
Y639365D01*
X122921Y636033D01*
Y635200D01*
X127919Y639365D02*
X128752Y640198D01*
X130418D01*
X131251Y639365D01*
Y636033D01*
X130418Y635200D01*
X128752D01*
X127919Y636033D01*
Y639365D01*
X133750Y634367D02*
X134583Y635200D01*
Y636033D01*
X133750D01*
Y635200D01*
X134583D01*
X133750Y634367D01*
X132917Y633534D01*
X142914Y640198D02*
X146246D01*
X144580D01*
Y635200D01*
X147913Y640198D02*
Y635200D01*
X150412D01*
X151245Y636033D01*
Y639365D01*
X150412Y640198D01*
X147913D01*
X157909Y635200D02*
X160408Y637699D01*
X157909Y640198D01*
X162075Y636866D02*
X165407D01*
X162075Y638532D02*
X165407D01*
X172071Y639365D02*
X172905Y640198D01*
X174571D01*
X175404Y639365D01*
Y638532D01*
X174571Y637699D01*
X173738D01*
X174571D01*
X175404Y636866D01*
Y636033D01*
X174571Y635200D01*
X172905D01*
X172071Y636033D01*
X179569Y635200D02*
Y640198D01*
X177070Y637699D01*
X180402D01*
X182068Y639365D02*
X182901Y640198D01*
X184567D01*
X185400Y639365D01*
Y636033D01*
X184567Y635200D01*
X182901D01*
X182068Y636033D01*
Y639365D01*
X-107000Y553532D02*
Y550200D01*
Y551866D01*
X-106167Y552699D01*
X-105334Y553532D01*
X-104501D01*
X-99502Y550200D02*
X-101169D01*
X-102002Y551033D01*
Y552699D01*
X-101169Y553532D01*
X-99502D01*
X-98669Y552699D01*
Y551866D01*
X-102002D01*
X-95337Y548534D02*
X-94504D01*
X-93671Y549367D01*
Y553532D01*
X-96170D01*
X-97003Y552699D01*
Y551033D01*
X-96170Y550200D01*
X-93671D01*
X-92005D02*
X-90339D01*
X-91172D01*
Y553532D01*
X-92005D01*
X-87840Y550200D02*
X-85340D01*
X-84507Y551033D01*
X-85340Y551866D01*
X-87006D01*
X-87840Y552699D01*
X-87006Y553532D01*
X-84507D01*
X-82008Y554365D02*
Y553532D01*
X-82841D01*
X-81175D01*
X-82008D01*
Y551033D01*
X-81175Y550200D01*
X-78676Y553532D02*
Y550200D01*
Y551866D01*
X-77843Y552699D01*
X-77010Y553532D01*
X-76177D01*
X-72844D02*
X-71178D01*
X-70345Y552699D01*
Y550200D01*
X-72844D01*
X-73677Y551033D01*
X-72844Y551866D01*
X-70345D01*
X-67846Y554365D02*
Y553532D01*
X-68679D01*
X-67013D01*
X-67846D01*
Y551033D01*
X-67013Y550200D01*
X-64514D02*
X-62848D01*
X-63681D01*
Y553532D01*
X-64514D01*
X-59515Y550200D02*
X-57849D01*
X-57016Y551033D01*
Y552699D01*
X-57849Y553532D01*
X-59515D01*
X-60348Y552699D01*
Y551033D01*
X-59515Y550200D01*
X-55350D02*
Y553532D01*
X-52851D01*
X-52018Y552699D01*
Y550200D01*
X-44520Y554365D02*
Y553532D01*
X-45353D01*
X-43687D01*
X-44520D01*
Y551033D01*
X-43687Y550200D01*
X-40355D02*
X-38689D01*
X-37856Y551033D01*
Y552699D01*
X-38689Y553532D01*
X-40355D01*
X-41188Y552699D01*
Y551033D01*
X-40355Y550200D01*
X-31191Y555198D02*
Y550200D01*
X-28692D01*
X-27859Y551033D01*
Y551866D01*
Y552699D01*
X-28692Y553532D01*
X-31191D01*
X-23694Y550200D02*
X-25360D01*
X-26193Y551033D01*
Y552699D01*
X-25360Y553532D01*
X-23694D01*
X-22861Y552699D01*
Y551866D01*
X-26193D01*
X-16196Y550200D02*
X-14530D01*
X-15363D01*
Y555198D01*
X-16196Y554365D01*
X-12031D02*
X-11198Y555198D01*
X-9532D01*
X-8698Y554365D01*
Y551033D01*
X-9532Y550200D01*
X-11198D01*
X-12031Y551033D01*
Y554365D01*
X-7032Y550200D02*
Y553532D01*
X-6199D01*
X-5366Y552699D01*
Y550200D01*
Y552699D01*
X-4533Y553532D01*
X-3700Y552699D01*
Y550200D01*
X-2034D02*
X-368D01*
X-1201D01*
Y553532D01*
X-2034D01*
X2131Y550200D02*
X3797D01*
X2964D01*
Y555198D01*
X2131D01*
X7130Y549367D02*
X7963Y550200D01*
Y551033D01*
X7130D01*
Y550200D01*
X7963D01*
X7130Y549367D01*
X6297Y548534D01*
X19626Y553532D02*
X17127D01*
X16293Y552699D01*
Y551033D01*
X17127Y550200D01*
X19626D01*
X21292D02*
X22958D01*
X22125D01*
Y555198D01*
X21292D01*
X27956Y550200D02*
X26290D01*
X25457Y551033D01*
Y552699D01*
X26290Y553532D01*
X27956D01*
X28789Y552699D01*
Y551866D01*
X25457D01*
X31288Y553532D02*
X32955D01*
X33788Y552699D01*
Y550200D01*
X31288D01*
X30455Y551033D01*
X31288Y551866D01*
X33788D01*
X35454Y553532D02*
Y550200D01*
Y551866D01*
X36287Y552699D01*
X37120Y553532D01*
X37953D01*
X45451Y550200D02*
X47950D01*
X48783Y551033D01*
X47950Y551866D01*
X46284D01*
X45451Y552699D01*
X46284Y553532D01*
X48783D01*
X50449Y550200D02*
X52115D01*
X51282D01*
Y553532D01*
X50449D01*
X54614Y550200D02*
X56280D01*
X55447D01*
Y555198D01*
X54614D01*
X58780Y550200D02*
Y555198D01*
Y551866D02*
X61279Y553532D01*
X58780Y551866D02*
X61279Y550200D01*
X63778D02*
X66277D01*
X67110Y551033D01*
X66277Y551866D01*
X64611D01*
X63778Y552699D01*
X64611Y553532D01*
X67110D01*
X72109D02*
X69609D01*
X68776Y552699D01*
Y551033D01*
X69609Y550200D01*
X72109D01*
X73775Y553532D02*
Y550200D01*
Y551866D01*
X74608Y552699D01*
X75441Y553532D01*
X76274D01*
X81272Y550200D02*
X79606D01*
X78773Y551033D01*
Y552699D01*
X79606Y553532D01*
X81272D01*
X82105Y552699D01*
Y551866D01*
X78773D01*
X86271Y550200D02*
X84605D01*
X83772Y551033D01*
Y552699D01*
X84605Y553532D01*
X86271D01*
X87104Y552699D01*
Y551866D01*
X83772D01*
X88770Y550200D02*
Y553532D01*
X91269D01*
X92102Y552699D01*
Y550200D01*
X99600D02*
Y554365D01*
Y552699D01*
X98767D01*
X100433D01*
X99600D01*
Y554365D01*
X100433Y555198D01*
X102932Y553532D02*
Y550200D01*
Y551866D01*
X103765Y552699D01*
X104598Y553532D01*
X105431D01*
X108763Y550200D02*
X110430D01*
X111263Y551033D01*
Y552699D01*
X110430Y553532D01*
X108763D01*
X107930Y552699D01*
Y551033D01*
X108763Y550200D01*
X112929D02*
Y553532D01*
X113762D01*
X114595Y552699D01*
Y550200D01*
Y552699D01*
X115428Y553532D01*
X116261Y552699D01*
Y550200D01*
X123759Y553532D02*
X125425D01*
X126258Y552699D01*
Y550200D01*
X123759D01*
X122925Y551033D01*
X123759Y551866D01*
X126258D01*
X127924Y550200D02*
X129590D01*
X128757D01*
Y555198D01*
X127924D01*
X132089Y550200D02*
X133755D01*
X132922D01*
Y555198D01*
X132089D01*
X143752Y550200D02*
X142086D01*
X141253Y551033D01*
Y552699D01*
X142086Y553532D01*
X143752D01*
X144585Y552699D01*
Y551866D01*
X141253D01*
X146251Y553532D02*
X149584Y550200D01*
X147917Y551866D01*
X149584Y553532D01*
X146251Y550200D01*
X151250Y548534D02*
Y553532D01*
X153749D01*
X154582Y552699D01*
Y551033D01*
X153749Y550200D01*
X151250D01*
X157081D02*
X158747D01*
X159580Y551033D01*
Y552699D01*
X158747Y553532D01*
X157081D01*
X156248Y552699D01*
Y551033D01*
X157081Y550200D01*
X161246D02*
X163746D01*
X164579Y551033D01*
X163746Y551866D01*
X162080D01*
X161246Y552699D01*
X162080Y553532D01*
X164579D01*
X168744Y550200D02*
X167078D01*
X166245Y551033D01*
Y552699D01*
X167078Y553532D01*
X168744D01*
X169577Y552699D01*
Y551866D01*
X166245D01*
X174575Y555198D02*
Y550200D01*
X172076D01*
X171243Y551033D01*
Y552699D01*
X172076Y553532D01*
X174575D01*
X181240Y548534D02*
Y553532D01*
X183739D01*
X184572Y552699D01*
Y551033D01*
X183739Y550200D01*
X181240D01*
X187071Y553532D02*
X188737D01*
X189571Y552699D01*
Y550200D01*
X187071D01*
X186238Y551033D01*
X187071Y551866D01*
X189571D01*
X194569Y555198D02*
Y550200D01*
X192070D01*
X191237Y551033D01*
Y552699D01*
X192070Y553532D01*
X194569D01*
X196235Y550200D02*
X198734D01*
X199567Y551033D01*
X198734Y551866D01*
X197068D01*
X196235Y552699D01*
X197068Y553532D01*
X199567D01*
X355999Y575200D02*
Y581198D01*
X353000Y578199D01*
X356999D01*
X364996Y581198D02*
Y575200D01*
X368995D01*
X371994Y579199D02*
X373993D01*
X374993Y578199D01*
Y575200D01*
X371994D01*
X370994Y576200D01*
X371994Y577199D01*
X374993D01*
X376992Y579199D02*
Y576200D01*
X377992Y575200D01*
X380991D01*
Y574200D01*
X379991Y573201D01*
X378992D01*
X380991Y575200D02*
Y579199D01*
X385989Y575200D02*
X383990D01*
X382990Y576200D01*
Y578199D01*
X383990Y579199D01*
X385989D01*
X386989Y578199D01*
Y577199D01*
X382990D01*
X388988Y579199D02*
Y575200D01*
Y577199D01*
X389988Y578199D01*
X390988Y579199D01*
X391987D01*
X400984Y575200D02*
Y581198D01*
X403983D01*
X404983Y580198D01*
Y578199D01*
X403983Y577199D01*
X400984D01*
X410981Y580198D02*
X409982Y581198D01*
X407982D01*
X406983Y580198D01*
Y576200D01*
X407982Y575200D01*
X409982D01*
X410981Y576200D01*
X412981Y581198D02*
Y575200D01*
X415980D01*
X416979Y576200D01*
Y577199D01*
X415980Y578199D01*
X412981D01*
X415980D01*
X416979Y579199D01*
Y580198D01*
X415980Y581198D01*
X412981D01*
X428975D02*
X426976Y580198D01*
X424977Y578199D01*
Y576200D01*
X425976Y575200D01*
X427976D01*
X428975Y576200D01*
Y577199D01*
X427976Y578199D01*
X424977D01*
X430975Y580198D02*
X431975Y581198D01*
X433974D01*
X434973Y580198D01*
Y579199D01*
X433974Y578199D01*
X432974D01*
X433974D01*
X434973Y577199D01*
Y576200D01*
X433974Y575200D01*
X431975D01*
X430975Y576200D01*
X436973Y575200D02*
Y579199D01*
X437972D01*
X438972Y578199D01*
Y575200D01*
Y578199D01*
X439972Y579199D01*
X440972Y578199D01*
Y575200D01*
X442971D02*
X444970D01*
X443971D01*
Y579199D01*
X442971D01*
X447969Y575200D02*
X449969D01*
X448969D01*
Y581198D01*
X447969D01*
X458966Y578199D02*
X462964D01*
X460965Y580198D02*
Y576200D01*
X464964Y575200D02*
X468962Y579199D01*
X470962Y578199D02*
X474961D01*
X482958Y575200D02*
X484957D01*
X483958D01*
Y581198D01*
X482958Y580198D01*
X487956D02*
X488956Y581198D01*
X490955D01*
X491955Y580198D01*
Y576200D01*
X490955Y575200D01*
X488956D01*
X487956Y576200D01*
Y580198D01*
X493954Y576200D02*
X498953Y581198D01*
X493954D02*
Y582198D01*
X494954D01*
Y581198D01*
X493954D01*
X497953Y575200D02*
Y576200D01*
X498953D01*
Y575200D01*
X497953D01*
X510949Y581198D02*
X506950D01*
Y578199D01*
X508950D01*
X506950D01*
Y575200D01*
X512948D02*
X514948D01*
X513948D01*
Y579199D01*
X512948D01*
X517947Y575200D02*
Y579199D01*
X520946D01*
X521945Y578199D01*
Y575200D01*
X523945D02*
X525944D01*
X524944D01*
Y579199D01*
X523945D01*
X528943Y575200D02*
X531942D01*
X532942Y576200D01*
X531942Y577199D01*
X529943D01*
X528943Y578199D01*
X529943Y579199D01*
X532942D01*
X534941Y581198D02*
Y575200D01*
Y578199D01*
X535941Y579199D01*
X537940D01*
X538940Y578199D01*
Y575200D01*
X543938D02*
X541939D01*
X540939Y576200D01*
Y578199D01*
X541939Y579199D01*
X543938D01*
X544938Y578199D01*
Y577199D01*
X540939D01*
X550936Y581198D02*
Y575200D01*
X547937D01*
X546937Y576200D01*
Y578199D01*
X547937Y579199D01*
X550936D01*
X558933Y581198D02*
X562932D01*
X560933D01*
Y575200D01*
X564931Y581198D02*
Y575200D01*
Y578199D01*
X565931Y579199D01*
X567931D01*
X568930Y578199D01*
Y575200D01*
X570929D02*
X572929D01*
X571929D01*
Y579199D01*
X570929D01*
X579927D02*
X576928D01*
X575928Y578199D01*
Y576200D01*
X576928Y575200D01*
X579927D01*
X581926D02*
Y581198D01*
Y577199D02*
X584925Y579199D01*
X581926Y577199D02*
X584925Y575200D01*
X587924D02*
Y579199D01*
X590923D01*
X591923Y578199D01*
Y575200D01*
X596921D02*
X594922D01*
X593922Y576200D01*
Y578199D01*
X594922Y579199D01*
X596921D01*
X597921Y578199D01*
Y577199D01*
X593922D01*
X599920Y575200D02*
X602919D01*
X603919Y576200D01*
X602919Y577199D01*
X600920D01*
X599920Y578199D01*
X600920Y579199D01*
X603919D01*
X605918Y575200D02*
X608917D01*
X609917Y576200D01*
X608917Y577199D01*
X606918D01*
X605918Y578199D01*
X606918Y579199D01*
X609917D01*
X353000Y560200D02*
Y564199D01*
X354999Y566198D01*
X356999Y564199D01*
Y560200D01*
Y563199D01*
X353000D01*
X358998Y560200D02*
X360997D01*
X359998D01*
Y566198D01*
X358998D01*
X363996Y560200D02*
X365996D01*
X364996D01*
Y566198D01*
X363996D01*
X374993Y560200D02*
X376992D01*
X375993D01*
Y566198D01*
X374993D01*
X380991Y564199D02*
X382990D01*
X383990Y563199D01*
Y560200D01*
X380991D01*
X379991Y561200D01*
X380991Y562199D01*
X383990D01*
X385989Y564199D02*
Y561200D01*
X386989Y560200D01*
X389988D01*
Y559200D01*
X388988Y558201D01*
X387989D01*
X389988Y560200D02*
Y564199D01*
X394986Y560200D02*
X392987D01*
X391987Y561200D01*
Y563199D01*
X392987Y564199D01*
X394986D01*
X395986Y563199D01*
Y562199D01*
X391987D01*
X397985Y564199D02*
Y560200D01*
Y562199D01*
X398985Y563199D01*
X399985Y564199D01*
X400984D01*
X410981Y565198D02*
Y564199D01*
X409982D01*
X411981D01*
X410981D01*
Y561200D01*
X411981Y560200D01*
X414980Y566198D02*
Y560200D01*
Y563199D01*
X415980Y564199D01*
X417979D01*
X418979Y563199D01*
Y560200D01*
X420978D02*
X422977D01*
X421978D01*
Y564199D01*
X420978D01*
X429975D02*
X426976D01*
X425976Y563199D01*
Y561200D01*
X426976Y560200D01*
X429975D01*
X431974D02*
Y566198D01*
Y562199D02*
X434973Y564199D01*
X431974Y562199D02*
X434973Y560200D01*
X437972D02*
Y564199D01*
X440972D01*
X441971Y563199D01*
Y560200D01*
X446970D02*
X444970D01*
X443971Y561200D01*
Y563199D01*
X444970Y564199D01*
X446970D01*
X447969Y563199D01*
Y562199D01*
X443971D01*
X449969Y560200D02*
X452968D01*
X453967Y561200D01*
X452968Y562199D01*
X450968D01*
X449969Y563199D01*
X450968Y564199D01*
X453967D01*
X455967Y560200D02*
X458966D01*
X459965Y561200D01*
X458966Y562199D01*
X456966D01*
X455967Y563199D01*
X456966Y564199D01*
X459965D01*
X468962D02*
X470962D01*
X471961Y563199D01*
Y560200D01*
X468962D01*
X467963Y561200D01*
X468962Y562199D01*
X471961D01*
X473961Y560200D02*
Y564199D01*
X476960D01*
X477960Y563199D01*
Y560200D01*
X483958Y566198D02*
Y560200D01*
X480959D01*
X479959Y561200D01*
Y563199D01*
X480959Y564199D01*
X483958D01*
X495954Y566198D02*
Y560200D01*
X492955D01*
X491955Y561200D01*
Y563199D01*
X492955Y564199D01*
X495954D01*
X497953Y560200D02*
X499953D01*
X498953D01*
Y564199D01*
X497953D01*
X505950Y560200D02*
X503951D01*
X502951Y561200D01*
Y563199D01*
X503951Y564199D01*
X505950D01*
X506950Y563199D01*
Y562199D01*
X502951D01*
X508950Y560200D02*
X510949D01*
X509949D01*
Y566198D01*
X508950D01*
X516947Y560200D02*
X514948D01*
X513948Y561200D01*
Y563199D01*
X514948Y564199D01*
X516947D01*
X517947Y563199D01*
Y562199D01*
X513948D01*
X523945Y564199D02*
X520946D01*
X519946Y563199D01*
Y561200D01*
X520946Y560200D01*
X523945D01*
X526944Y565198D02*
Y564199D01*
X525944D01*
X527943D01*
X526944D01*
Y561200D01*
X527943Y560200D01*
X530942Y564199D02*
Y560200D01*
Y562199D01*
X531942Y563199D01*
X532942Y564199D01*
X533941D01*
X536940Y560200D02*
X538940D01*
X537940D01*
Y564199D01*
X536940D01*
X545938D02*
X542939D01*
X541939Y563199D01*
Y561200D01*
X542939Y560200D01*
X545938D01*
X553935Y564199D02*
X555934Y560200D01*
X557934Y564199D01*
X560933D02*
X562932D01*
X563932Y563199D01*
Y560200D01*
X560933D01*
X559933Y561200D01*
X560933Y562199D01*
X563932D01*
X565931Y560200D02*
X567931D01*
X566931D01*
Y566198D01*
X565931D01*
X570929Y564199D02*
Y561200D01*
X571929Y560200D01*
X574928D01*
Y564199D01*
X579927Y560200D02*
X577927D01*
X576928Y561200D01*
Y563199D01*
X577927Y564199D01*
X579927D01*
X580926Y563199D01*
Y562199D01*
X576928D01*
X582926Y560200D02*
X585925D01*
X586924Y561200D01*
X585925Y562199D01*
X583925D01*
X582926Y563199D01*
X583925Y564199D01*
X586924D01*
X595921D02*
X597921D01*
X598920Y563199D01*
Y560200D01*
X595921D01*
X594922Y561200D01*
X595921Y562199D01*
X598920D01*
X600920Y564199D02*
Y560200D01*
Y562199D01*
X601920Y563199D01*
X602919Y564199D01*
X603919D01*
X609917Y560200D02*
X607917D01*
X606918Y561200D01*
Y563199D01*
X607917Y564199D01*
X609917D01*
X610917Y563199D01*
Y562199D01*
X606918D01*
X618914Y563199D02*
X622913D01*
X620913Y565198D02*
Y561200D01*
X624912Y560200D02*
X628911Y564199D01*
X630910Y563199D02*
X634909D01*
X642906Y560200D02*
X644906D01*
X643906D01*
Y566198D01*
X642906Y565198D01*
X647905D02*
X648904Y566198D01*
X650904D01*
X651903Y565198D01*
Y561200D01*
X650904Y560200D01*
X648904D01*
X647905Y561200D01*
Y565198D01*
X653903Y561200D02*
X658901Y566198D01*
X653903D02*
Y567198D01*
X654902D01*
Y566198D01*
X653903D01*
X657901Y560200D02*
Y561200D01*
X658901D01*
Y560200D01*
X657901D01*
X667898Y565198D02*
Y564199D01*
X666898D01*
X668898D01*
X667898D01*
Y561200D01*
X668898Y560200D01*
X672896D02*
X674896D01*
X675896Y561200D01*
Y563199D01*
X674896Y564199D01*
X672896D01*
X671897Y563199D01*
Y561200D01*
X672896Y560200D01*
X677895D02*
X679894D01*
X678895D01*
Y566198D01*
X677895D01*
X685892Y560200D02*
X683893D01*
X682893Y561200D01*
Y563199D01*
X683893Y564199D01*
X685892D01*
X686892Y563199D01*
Y562199D01*
X682893D01*
X688891Y564199D02*
Y560200D01*
Y562199D01*
X689891Y563199D01*
X690891Y564199D01*
X691890D01*
X695889D02*
X697888D01*
X698888Y563199D01*
Y560200D01*
X695889D01*
X694889Y561200D01*
X695889Y562199D01*
X698888D01*
X700887Y560200D02*
Y564199D01*
X703887D01*
X704886Y563199D01*
Y560200D01*
X710884Y564199D02*
X707885D01*
X706885Y563199D01*
Y561200D01*
X707885Y560200D01*
X710884D01*
X715883D02*
X713883D01*
X712884Y561200D01*
Y563199D01*
X713883Y564199D01*
X715883D01*
X716882Y563199D01*
Y562199D01*
X712884D01*
X794171Y-40800D02*
Y253200D01*
X907171D01*
Y-40800D02*
Y253200D01*
X794171Y-40800D02*
X907171D01*
X810171Y238448D02*
X887171D01*
X344332Y-111135D02*
X342999Y-109803D01*
X340333D01*
X339000Y-111135D01*
Y-116467D01*
X340333Y-117800D01*
X342999D01*
X344332Y-116467D01*
X350996Y-109803D02*
X348330D01*
X346997Y-111135D01*
Y-116467D01*
X348330Y-117800D01*
X350996D01*
X352329Y-116467D01*
Y-111135D01*
X350996Y-109803D01*
X354995Y-117800D02*
Y-109803D01*
X360326Y-117800D01*
Y-109803D01*
X368324D02*
X362992D01*
Y-113801D01*
X365658D01*
X362992D01*
Y-117800D01*
X370990Y-109803D02*
X373655D01*
X372323D01*
Y-117800D01*
X370990D01*
X373655D01*
X377654Y-109803D02*
Y-117800D01*
X381653D01*
X382986Y-116467D01*
Y-111135D01*
X381653Y-109803D01*
X377654D01*
X390983D02*
X385652D01*
Y-117800D01*
X390983D01*
X385652Y-113801D02*
X388317D01*
X393649Y-117800D02*
Y-109803D01*
X398981Y-117800D01*
Y-109803D01*
X401646D02*
X406978D01*
X404312D01*
Y-117800D01*
X409644Y-109803D02*
X412310D01*
X410977D01*
Y-117800D01*
X409644D01*
X412310D01*
X416308D02*
Y-112468D01*
X418974Y-109803D01*
X421640Y-112468D01*
Y-117800D01*
Y-113801D01*
X416308D01*
X424306Y-109803D02*
Y-117800D01*
X429637D01*
X884000Y606200D02*
Y611198D01*
X886499D01*
X887332Y610365D01*
Y608699D01*
X886499Y607866D01*
X884000D01*
X892331Y611198D02*
X890664D01*
X891498D01*
Y607033D01*
X890664Y606200D01*
X889831D01*
X888998Y607033D01*
X893997Y611198D02*
Y606200D01*
X896496D01*
X897329Y607033D01*
Y607866D01*
X896496Y608699D01*
X893997D01*
X896496D01*
X897329Y609532D01*
Y610365D01*
X896496Y611198D01*
X893997D01*
X818000Y610365D02*
X818833Y611198D01*
X820499D01*
X821332Y610365D01*
Y609532D01*
X820499Y608699D01*
X819666D01*
X820499D01*
X821332Y607866D01*
Y607033D01*
X820499Y606200D01*
X818833D01*
X818000Y607033D01*
X822998Y606200D02*
X826331Y609532D01*
X827997Y610365D02*
X828830Y611198D01*
X830496D01*
X831329Y610365D01*
Y609532D01*
X830496Y608699D01*
X829663D01*
X830496D01*
X831329Y607866D01*
Y607033D01*
X830496Y606200D01*
X828830D01*
X827997Y607033D01*
X832995Y606200D02*
X834661D01*
X833828D01*
Y611198D01*
X832995Y610365D01*
X837160Y606200D02*
X840493Y609532D01*
X845491Y606200D02*
X842159D01*
X845491Y609532D01*
Y610365D01*
X844658Y611198D01*
X842992D01*
X842159Y610365D01*
X847157D02*
X847990Y611198D01*
X849656D01*
X850490Y610365D01*
Y607033D01*
X849656Y606200D01*
X847990D01*
X847157Y607033D01*
Y610365D01*
X852156Y606200D02*
X853822D01*
X852989D01*
Y611198D01*
X852156Y610365D01*
X859653Y611198D02*
X857987Y610365D01*
X856321Y608699D01*
Y607033D01*
X857154Y606200D01*
X858820D01*
X859653Y607033D01*
Y607866D01*
X858820Y608699D01*
X856321D01*
X630000Y611198D02*
Y607033D01*
X630833Y606200D01*
X632499D01*
X633332Y607033D01*
Y611198D01*
X634998Y604534D02*
Y609532D01*
X637498D01*
X638331Y608699D01*
Y607033D01*
X637498Y606200D01*
X634998D01*
X643329Y611198D02*
Y606200D01*
X640830D01*
X639997Y607033D01*
Y608699D01*
X640830Y609532D01*
X643329D01*
X645828D02*
X647494D01*
X648327Y608699D01*
Y606200D01*
X645828D01*
X644995Y607033D01*
X645828Y607866D01*
X648327D01*
X650827Y610365D02*
Y609532D01*
X649994D01*
X651660D01*
X650827D01*
Y607033D01*
X651660Y606200D01*
X656658D02*
X654992D01*
X654159Y607033D01*
Y608699D01*
X654992Y609532D01*
X656658D01*
X657491Y608699D01*
Y607866D01*
X654159D01*
X662490Y611198D02*
Y606200D01*
X659990D01*
X659157Y607033D01*
Y608699D01*
X659990Y609532D01*
X662490D01*
X664989Y605367D02*
X665822Y606200D01*
Y607033D01*
X664989D01*
Y606200D01*
X665822D01*
X664989Y605367D01*
X664156Y604534D01*
X674985Y606200D02*
Y610365D01*
Y608699D01*
X674152D01*
X675818D01*
X674985D01*
Y610365D01*
X675818Y611198D01*
X678318Y606200D02*
X679984D01*
X679151D01*
Y609532D01*
X678318D01*
X682483D02*
X685815Y606200D01*
X684149Y607866D01*
X685815Y609532D01*
X682483Y606200D01*
X689981D02*
X688314D01*
X687481Y607033D01*
Y608699D01*
X688314Y609532D01*
X689981D01*
X690814Y608699D01*
Y607866D01*
X687481D01*
X695812Y611198D02*
Y606200D01*
X693313D01*
X692480Y607033D01*
Y608699D01*
X693313Y609532D01*
X695812D01*
X705809Y607033D02*
Y610365D01*
X704976Y611198D01*
X703310D01*
X702477Y610365D01*
Y607033D01*
X703310Y606200D01*
X704976D01*
X704143Y607866D02*
X705809Y606200D01*
X704976D02*
X705809Y607033D01*
X707475Y606200D02*
X709141D01*
X708308D01*
Y611198D01*
X707475Y610365D01*
X712473Y605367D02*
X713306Y606200D01*
Y607033D01*
X712473D01*
Y606200D01*
X713306D01*
X712473Y605367D01*
X711640Y604534D01*
X721637Y611198D02*
Y607033D01*
X722470Y606200D01*
X724136D01*
X724969Y607033D01*
Y611198D01*
X729968Y606200D02*
X726635D01*
X729968Y609532D01*
Y610365D01*
X729135Y611198D01*
X727468D01*
X726635Y610365D01*
X731634Y606200D02*
Y607033D01*
X732467D01*
Y606200D01*
X731634D01*
X735799Y607033D02*
X736632Y606200D01*
X738298D01*
X739131Y607033D01*
Y610365D01*
X738298Y611198D01*
X736632D01*
X735799Y610365D01*
Y609532D01*
X736632Y608699D01*
X739131D01*
X740797Y611198D02*
X744130D01*
Y610365D01*
X740797Y607033D01*
Y606200D01*
X751627Y610365D02*
Y609532D01*
X750794D01*
X752460D01*
X751627D01*
Y607033D01*
X752460Y606200D01*
X755793D02*
X757459D01*
X758292Y607033D01*
Y608699D01*
X757459Y609532D01*
X755793D01*
X754959Y608699D01*
Y607033D01*
X755793Y606200D01*
X768289Y610365D02*
X767455Y611198D01*
X765789D01*
X764956Y610365D01*
Y607033D01*
X765789Y606200D01*
X767455D01*
X768289Y607033D01*
Y608699D01*
X766622D01*
X769955Y606200D02*
Y611198D01*
X773287Y606200D01*
Y611198D01*
X774953D02*
Y606200D01*
X777452D01*
X778285Y607033D01*
Y610365D01*
X777452Y611198D01*
X774953D01*
X587000Y609532D02*
X588666Y606200D01*
X590332Y609532D01*
X591998Y611198D02*
Y606200D01*
X594498D01*
X595331Y607033D01*
Y607866D01*
X594498Y608699D01*
X591998D01*
X594498D01*
X595331Y609532D01*
Y610365D01*
X594498Y611198D01*
X591998D01*
X587000Y624532D02*
X588666Y621200D01*
X590332Y624532D01*
X591998Y621200D02*
Y624532D01*
X593665Y626198D01*
X595331Y624532D01*
Y621200D01*
Y623699D01*
X591998D01*
X630000Y626198D02*
Y622033D01*
X630833Y621200D01*
X632499D01*
X633332Y622033D01*
Y626198D01*
X634998Y619534D02*
Y624532D01*
X637498D01*
X638331Y623699D01*
Y622033D01*
X637498Y621200D01*
X634998D01*
X643329Y626198D02*
Y621200D01*
X640830D01*
X639997Y622033D01*
Y623699D01*
X640830Y624532D01*
X643329D01*
X645828D02*
X647494D01*
X648327Y623699D01*
Y621200D01*
X645828D01*
X644995Y622033D01*
X645828Y622866D01*
X648327D01*
X650827Y625365D02*
Y624532D01*
X649994D01*
X651660D01*
X650827D01*
Y622033D01*
X651660Y621200D01*
X656658D02*
X654992D01*
X654159Y622033D01*
Y623699D01*
X654992Y624532D01*
X656658D01*
X657491Y623699D01*
Y622866D01*
X654159D01*
X662490Y626198D02*
Y621200D01*
X659990D01*
X659157Y622033D01*
Y623699D01*
X659990Y624532D01*
X662490D01*
X664989Y620367D02*
X665822Y621200D01*
Y622033D01*
X664989D01*
Y621200D01*
X665822D01*
X664989Y620367D01*
X664156Y619534D01*
X674152Y621200D02*
X675818D01*
X674985D01*
Y624532D01*
X674152D01*
X678318Y621200D02*
Y624532D01*
X680817D01*
X681650Y623699D01*
Y621200D01*
X683316Y624532D02*
X684982Y621200D01*
X686648Y624532D01*
X690814Y621200D02*
X689148D01*
X688314Y622033D01*
Y623699D01*
X689148Y624532D01*
X690814D01*
X691647Y623699D01*
Y622866D01*
X688314D01*
X693313Y624532D02*
Y621200D01*
Y622866D01*
X694146Y623699D01*
X694979Y624532D01*
X695812D01*
X699144Y625365D02*
Y624532D01*
X698311D01*
X699977D01*
X699144D01*
Y622033D01*
X699977Y621200D01*
X704976D02*
X703310D01*
X702477Y622033D01*
Y623699D01*
X703310Y624532D01*
X704976D01*
X705809Y623699D01*
Y622866D01*
X702477D01*
X710807Y626198D02*
Y621200D01*
X708308D01*
X707475Y622033D01*
Y623699D01*
X708308Y624532D01*
X710807D01*
X717472Y626198D02*
Y621200D01*
X720804D01*
X725802Y626198D02*
X722470D01*
Y621200D01*
X725802D01*
X722470Y623699D02*
X724136D01*
X727468Y626198D02*
Y621200D01*
X729968D01*
X730801Y622033D01*
Y625365D01*
X729968Y626198D01*
X727468D01*
X737465Y619534D02*
Y624532D01*
X739964D01*
X740797Y623699D01*
Y622033D01*
X739964Y621200D01*
X737465D01*
X743297D02*
X744963D01*
X745796Y622033D01*
Y623699D01*
X744963Y624532D01*
X743297D01*
X742464Y623699D01*
Y622033D01*
X743297Y621200D01*
X747462D02*
X749128D01*
X748295D01*
Y626198D01*
X747462D01*
X752460Y624532D02*
X754127D01*
X754959Y623699D01*
Y621200D01*
X752460D01*
X751627Y622033D01*
X752460Y622866D01*
X754959D01*
X756626Y624532D02*
Y621200D01*
Y622866D01*
X757459Y623699D01*
X758292Y624532D01*
X759125D01*
X761624Y621200D02*
X763290D01*
X762457D01*
Y624532D01*
X761624D01*
X766622Y625365D02*
Y624532D01*
X765789D01*
X767455D01*
X766622D01*
Y622033D01*
X767455Y621200D01*
X769955Y624532D02*
Y622033D01*
X770788Y621200D01*
X773287D01*
Y620367D01*
X772454Y619534D01*
X771621D01*
X773287Y621200D02*
Y624532D01*
X821332Y621200D02*
X818000D01*
X821332Y624532D01*
Y625365D01*
X820499Y626198D01*
X818833D01*
X818000Y625365D01*
X822998Y621200D02*
X826331Y624532D01*
X827997Y621200D02*
X829663D01*
X828830D01*
Y626198D01*
X827997Y625365D01*
X832162D02*
X832995Y626198D01*
X834661D01*
X835494Y625365D01*
Y622033D01*
X834661Y621200D01*
X832995D01*
X832162Y622033D01*
Y625365D01*
X837160Y621200D02*
X840493Y624532D01*
X845491Y621200D02*
X842159D01*
X845491Y624532D01*
Y625365D01*
X844658Y626198D01*
X842992D01*
X842159Y625365D01*
X847157D02*
X847990Y626198D01*
X849656D01*
X850490Y625365D01*
Y622033D01*
X849656Y621200D01*
X847990D01*
X847157Y622033D01*
Y625365D01*
X852156Y621200D02*
X853822D01*
X852989D01*
Y626198D01*
X852156Y625365D01*
X859653Y626198D02*
X857987Y625365D01*
X856321Y623699D01*
Y622033D01*
X857154Y621200D01*
X858820D01*
X859653Y622033D01*
Y622866D01*
X858820Y623699D01*
X856321D01*
X884000Y626198D02*
Y621200D01*
X886499D01*
X887332Y622033D01*
Y625365D01*
X886499Y626198D01*
X884000D01*
X892331Y625365D02*
X891498Y626198D01*
X889831D01*
X888998Y625365D01*
Y622033D01*
X889831Y621200D01*
X891498D01*
X892331Y622033D01*
X893997Y621200D02*
Y626198D01*
X897329Y621200D01*
Y626198D01*
X884000Y636200D02*
Y641198D01*
X886499D01*
X887332Y640365D01*
Y638699D01*
X886499Y637866D01*
X884000D01*
X892331Y641198D02*
X890664D01*
X891498D01*
Y637033D01*
X890664Y636200D01*
X889831D01*
X888998Y637033D01*
X893997Y641198D02*
Y636200D01*
X896496D01*
X897329Y637033D01*
Y637866D01*
X896496Y638699D01*
X893997D01*
X896496D01*
X897329Y639532D01*
Y640365D01*
X896496Y641198D01*
X893997D01*
X818000Y635200D02*
X819666D01*
X818833D01*
Y640198D01*
X818000Y639365D01*
X825498Y635200D02*
X822165D01*
X825498Y638532D01*
Y639365D01*
X824664Y640198D01*
X822998D01*
X822165Y639365D01*
X827164Y635200D02*
X830496Y638532D01*
X832162Y635200D02*
X833828D01*
X832995D01*
Y640198D01*
X832162Y639365D01*
X836327Y635200D02*
X837994D01*
X837160D01*
Y640198D01*
X836327Y639365D01*
X840493Y635200D02*
X843825Y638532D01*
X848823Y635200D02*
X845491D01*
X848823Y638532D01*
Y639365D01*
X847990Y640198D01*
X846324D01*
X845491Y639365D01*
X850490D02*
X851322Y640198D01*
X852989D01*
X853822Y639365D01*
Y636033D01*
X852989Y635200D01*
X851322D01*
X850490Y636033D01*
Y639365D01*
X855488Y635200D02*
X857154D01*
X856321D01*
Y640198D01*
X855488Y639365D01*
X862985Y640198D02*
X859653D01*
Y637699D01*
X861319Y638532D01*
X862152D01*
X862985Y637699D01*
Y636033D01*
X862152Y635200D01*
X860486D01*
X859653Y636033D01*
X630000Y636200D02*
Y639532D01*
X631666Y641198D01*
X633332Y639532D01*
Y636200D01*
Y638699D01*
X630000D01*
X638331Y641198D02*
Y636200D01*
X635831D01*
X634998Y637033D01*
Y638699D01*
X635831Y639532D01*
X638331D01*
X643329Y641198D02*
Y636200D01*
X640830D01*
X639997Y637033D01*
Y638699D01*
X640830Y639532D01*
X643329D01*
X647494Y636200D02*
X645828D01*
X644995Y637033D01*
Y638699D01*
X645828Y639532D01*
X647494D01*
X648327Y638699D01*
Y637866D01*
X644995D01*
X653326Y641198D02*
Y636200D01*
X650827D01*
X649994Y637033D01*
Y638699D01*
X650827Y639532D01*
X653326D01*
X663322D02*
X660823D01*
X659990Y638699D01*
Y637033D01*
X660823Y636200D01*
X663322D01*
X665822D02*
X667488D01*
X668321Y637033D01*
Y638699D01*
X667488Y639532D01*
X665822D01*
X664989Y638699D01*
Y637033D01*
X665822Y636200D01*
X669987D02*
Y639532D01*
X672486D01*
X673319Y638699D01*
Y636200D01*
X674985D02*
Y639532D01*
X677485D01*
X678318Y638699D01*
Y636200D01*
X682483D02*
X680817D01*
X679984Y637033D01*
Y638699D01*
X680817Y639532D01*
X682483D01*
X683316Y638699D01*
Y637866D01*
X679984D01*
X688314Y639532D02*
X685815D01*
X684982Y638699D01*
Y637033D01*
X685815Y636200D01*
X688314D01*
X690814Y640365D02*
Y639532D01*
X689981D01*
X691647D01*
X690814D01*
Y637033D01*
X691647Y636200D01*
X694146D02*
X695812D01*
X694979D01*
Y639532D01*
X694146D01*
X698311D02*
X699977Y636200D01*
X701644Y639532D01*
X703310Y636200D02*
X704976D01*
X704143D01*
Y639532D01*
X703310D01*
X708308Y640365D02*
Y639532D01*
X707475D01*
X709141D01*
X708308D01*
Y637033D01*
X709141Y636200D01*
X711640Y639532D02*
Y637033D01*
X712473Y636200D01*
X714972D01*
Y635367D01*
X714139Y634534D01*
X713306D01*
X714972Y636200D02*
Y639532D01*
X722470D02*
X724136D01*
X724969Y638699D01*
Y636200D01*
X722470D01*
X721637Y637033D01*
X722470Y637866D01*
X724969D01*
X726635Y636200D02*
Y639532D01*
X729135D01*
X729968Y638699D01*
Y636200D01*
X734966Y641198D02*
Y636200D01*
X732467D01*
X731634Y637033D01*
Y638699D01*
X732467Y639532D01*
X734966D01*
X741631Y636200D02*
Y639532D01*
X743297Y641198D01*
X744963Y639532D01*
Y636200D01*
Y638699D01*
X741631D01*
X747462Y640365D02*
Y639532D01*
X746629D01*
X748295D01*
X747462D01*
Y637033D01*
X748295Y636200D01*
X750794D02*
Y639532D01*
X751627D01*
X752460Y638699D01*
Y636200D01*
Y638699D01*
X753293Y639532D01*
X754127Y638699D01*
Y636200D01*
X758292D02*
X756626D01*
X755793Y637033D01*
Y638699D01*
X756626Y639532D01*
X758292D01*
X759125Y638699D01*
Y637866D01*
X755793D01*
X760791Y636200D02*
X762457D01*
X761624D01*
Y641198D01*
X760791D01*
X769955Y634534D02*
Y639532D01*
X772454D01*
X773287Y638699D01*
Y637033D01*
X772454Y636200D01*
X769955D01*
X774953Y639532D02*
Y636200D01*
Y637866D01*
X775786Y638699D01*
X776619Y639532D01*
X777452D01*
X780785Y636200D02*
X782451D01*
X783284Y637033D01*
Y638699D01*
X782451Y639532D01*
X780785D01*
X779951Y638699D01*
Y637033D01*
X780785Y636200D01*
X786616Y634534D02*
X787449D01*
X788282Y635367D01*
Y639532D01*
X785783D01*
X784950Y638699D01*
Y637033D01*
X785783Y636200D01*
X788282D01*
X587000Y639532D02*
X588666Y636200D01*
X590332Y639532D01*
X595331Y636200D02*
X591998D01*
X595331Y639532D01*
Y640365D01*
X594498Y641198D01*
X592831D01*
X591998Y640365D01*
X501000Y-113802D02*
X502000Y-112802D01*
X503999D01*
X504999Y-113802D01*
Y-114801D01*
X503999Y-115801D01*
X502999D01*
X503999D01*
X504999Y-116801D01*
Y-117800D01*
X503999Y-118800D01*
X502000D01*
X501000Y-117800D01*
X510997Y-118800D02*
X506998D01*
X510997Y-114801D01*
Y-113802D01*
X509997Y-112802D01*
X507998D01*
X506998Y-113802D01*
X512996D02*
X513996Y-112802D01*
X515995D01*
X516995Y-113802D01*
Y-117800D01*
X515995Y-118800D01*
X513996D01*
X512996Y-117800D01*
Y-113802D01*
X518994Y-115801D02*
X522993D01*
X524992Y-113802D02*
X525992Y-112802D01*
X527991D01*
X528991Y-113802D01*
Y-117800D01*
X527991Y-118800D01*
X525992D01*
X524992Y-117800D01*
Y-113802D01*
X530990D02*
X531990Y-112802D01*
X533989D01*
X534989Y-113802D01*
Y-117800D01*
X533989Y-118800D01*
X531990D01*
X530990Y-117800D01*
Y-113802D01*
X536988D02*
X537988Y-112802D01*
X539987D01*
X540987Y-113802D01*
Y-117800D01*
X539987Y-118800D01*
X537988D01*
X536988Y-117800D01*
Y-113802D01*
X546985Y-112802D02*
X542986D01*
Y-115801D01*
X544986Y-114801D01*
X545986D01*
X546985Y-115801D01*
Y-117800D01*
X545986Y-118800D01*
X543986D01*
X542986Y-117800D01*
X548984Y-113802D02*
X549984Y-112802D01*
X551983D01*
X552983Y-113802D01*
Y-117800D01*
X551983Y-118800D01*
X549984D01*
X548984Y-117800D01*
Y-113802D01*
X889000Y657198D02*
Y651200D01*
X891999D01*
X892999Y652200D01*
Y653199D01*
X891999Y654199D01*
X889000D01*
X891999D01*
X892999Y655199D01*
Y656198D01*
X891999Y657198D01*
X889000D01*
X894998D02*
Y656198D01*
X896997Y654199D01*
X898997Y656198D01*
Y657198D01*
X896997Y654199D02*
Y651200D01*
X826000Y657198D02*
Y651200D01*
X828999D01*
X829999Y652200D01*
Y656198D01*
X828999Y657198D01*
X826000D01*
X831998Y651200D02*
Y655199D01*
X833997Y657198D01*
X835997Y655199D01*
Y651200D01*
Y654199D01*
X831998D01*
X837996Y657198D02*
X841995D01*
X839995D01*
Y651200D01*
X847993Y657198D02*
X843994D01*
Y651200D01*
X847993D01*
X843994Y654199D02*
X845994D01*
X630000Y657198D02*
Y651200D01*
X632999D01*
X633999Y652200D01*
Y656198D01*
X632999Y657198D01*
X630000D01*
X639997D02*
X635998D01*
Y651200D01*
X639997D01*
X635998Y654199D02*
X637997D01*
X645995Y656198D02*
X644995Y657198D01*
X642996D01*
X641996Y656198D01*
Y655199D01*
X642996Y654199D01*
X644995D01*
X645995Y653199D01*
Y652200D01*
X644995Y651200D01*
X642996D01*
X641996Y652200D01*
X651993Y656198D02*
X650993Y657198D01*
X648994D01*
X647994Y656198D01*
Y652200D01*
X648994Y651200D01*
X650993D01*
X651993Y652200D01*
X653992Y651200D02*
Y657198D01*
X656991D01*
X657991Y656198D01*
Y654199D01*
X656991Y653199D01*
X653992D01*
X655992D02*
X657991Y651200D01*
X659990Y657198D02*
X661990D01*
X660990D01*
Y651200D01*
X659990D01*
X661990D01*
X664989D02*
Y657198D01*
X667988D01*
X668987Y656198D01*
Y654199D01*
X667988Y653199D01*
X664989D01*
X670987Y657198D02*
X674986D01*
X672986D01*
Y651200D01*
X676985Y657198D02*
X678984D01*
X677985D01*
Y651200D01*
X676985D01*
X678984D01*
X684982Y657198D02*
X682983D01*
X681983Y656198D01*
Y652200D01*
X682983Y651200D01*
X684982D01*
X685982Y652200D01*
Y656198D01*
X684982Y657198D01*
X687981Y651200D02*
Y657198D01*
X691980Y651200D01*
Y657198D01*
X587000Y651200D02*
Y657198D01*
X589999D01*
X590999Y656198D01*
Y654199D01*
X589999Y653199D01*
X587000D01*
X588999D02*
X590999Y651200D01*
X596997Y657198D02*
X592998D01*
Y651200D01*
X596997D01*
X592998Y654199D02*
X594997D01*
X598996Y657198D02*
Y653199D01*
X600995Y651200D01*
X602995Y653199D01*
Y657198D01*
X728000Y668200D02*
Y676197D01*
X731999D01*
X733332Y674864D01*
Y672199D01*
X731999Y670866D01*
X728000D01*
X730666D02*
X733332Y668200D01*
X741329Y676197D02*
X735997D01*
Y668200D01*
X741329D01*
X735997Y672199D02*
X738663D01*
X743995Y676197D02*
Y670866D01*
X746661Y668200D01*
X749326Y670866D01*
Y676197D01*
X751992D02*
X754658D01*
X753325D01*
Y668200D01*
X751992D01*
X754658D01*
X763988Y674864D02*
X762655Y676197D01*
X759990D01*
X758657Y674864D01*
Y673532D01*
X759990Y672199D01*
X762655D01*
X763988Y670866D01*
Y669533D01*
X762655Y668200D01*
X759990D01*
X758657Y669533D01*
X766654Y676197D02*
X769320D01*
X767987D01*
Y668200D01*
X766654D01*
X769320D01*
X777317Y676197D02*
X774652D01*
X773319Y674864D01*
Y669533D01*
X774652Y668200D01*
X777317D01*
X778650Y669533D01*
Y674864D01*
X777317Y676197D01*
X781316Y668200D02*
Y676197D01*
X786648Y668200D01*
Y676197D01*
X669000Y-82803D02*
Y-90800D01*
X672999D01*
X674332Y-89467D01*
Y-88134D01*
X672999Y-86801D01*
X669000D01*
X672999D01*
X674332Y-85468D01*
Y-84136D01*
X672999Y-82803D01*
X669000D01*
X676997Y-90800D02*
Y-82803D01*
X679663Y-85468D01*
X682329Y-82803D01*
Y-90800D01*
X684995Y-82803D02*
Y-90800D01*
X688994D01*
X690326Y-89467D01*
Y-84136D01*
X688994Y-82803D01*
X684995D01*
X692992Y-86801D02*
X698324D01*
X700990Y-84136D02*
X702322Y-82803D01*
X704988D01*
X706321Y-84136D01*
Y-85468D01*
X704988Y-86801D01*
X703655D01*
X704988D01*
X706321Y-88134D01*
Y-89467D01*
X704988Y-90800D01*
X702322D01*
X700990Y-89467D01*
X708987Y-84136D02*
X710320Y-82803D01*
X712986D01*
X714319Y-84136D01*
Y-89467D01*
X712986Y-90800D01*
X710320D01*
X708987Y-89467D01*
Y-84136D01*
X716985D02*
X718317Y-82803D01*
X720983D01*
X722316Y-84136D01*
Y-89467D01*
X720983Y-90800D01*
X718317D01*
X716985Y-89467D01*
Y-84136D01*
X724982Y-86801D02*
X730313D01*
X738311Y-82803D02*
X732979D01*
Y-90800D01*
X738311D01*
X732979Y-86801D02*
X735645D01*
X740977Y-85468D02*
X743643Y-90800D01*
X746308Y-85468D01*
X750307D02*
X752973D01*
X754306Y-86801D01*
Y-90800D01*
X750307D01*
X748974Y-89467D01*
X750307Y-88134D01*
X754306D01*
X756972Y-90800D02*
X759637D01*
X758304D01*
Y-82803D01*
X756972D01*
X863717Y-84992D02*
X866382Y-90324D01*
X869048Y-84992D01*
X871714Y-82326D02*
Y-90324D01*
X875713D01*
X877046Y-88991D01*
Y-87658D01*
X875713Y-86325D01*
X871714D01*
X875713D01*
X877046Y-84992D01*
Y-83659D01*
X875713Y-82326D01*
X871714D01*
X669000Y-58803D02*
Y-66800D01*
X672999D01*
X674332Y-65467D01*
Y-64134D01*
X672999Y-62801D01*
X669000D01*
X672999D01*
X674332Y-61468D01*
Y-60136D01*
X672999Y-58803D01*
X669000D01*
X676997Y-66800D02*
Y-58803D01*
X679663Y-61468D01*
X682329Y-58803D01*
Y-66800D01*
X684995Y-58803D02*
Y-66800D01*
X688994D01*
X690326Y-65467D01*
Y-60136D01*
X688994Y-58803D01*
X684995D01*
X692992Y-62801D02*
X698324D01*
X700990Y-60136D02*
X702322Y-58803D01*
X704988D01*
X706321Y-60136D01*
Y-61468D01*
X704988Y-62801D01*
X703655D01*
X704988D01*
X706321Y-64134D01*
Y-65467D01*
X704988Y-66800D01*
X702322D01*
X700990Y-65467D01*
X708987Y-60136D02*
X710320Y-58803D01*
X712986D01*
X714319Y-60136D01*
Y-65467D01*
X712986Y-66800D01*
X710320D01*
X708987Y-65467D01*
Y-60136D01*
X716985D02*
X718317Y-58803D01*
X720983D01*
X722316Y-60136D01*
Y-65467D01*
X720983Y-66800D01*
X718317D01*
X716985Y-65467D01*
Y-60136D01*
X724982Y-62801D02*
X730313D01*
X738311Y-58803D02*
X732979D01*
Y-66800D01*
X738311D01*
X732979Y-62801D02*
X735645D01*
X740977Y-61468D02*
X743643Y-66800D01*
X746308Y-61468D01*
X750307D02*
X752973D01*
X754306Y-62801D01*
Y-66800D01*
X750307D01*
X748974Y-65467D01*
X750307Y-64134D01*
X754306D01*
X756972Y-66800D02*
X759637D01*
X758304D01*
Y-58803D01*
X756972D01*
X376000Y-92802D02*
Y-100800D01*
Y-92802D02*
X379428D01*
X380570Y-93183D01*
X380951Y-93563D01*
X381332Y-94325D01*
Y-95087D01*
X380951Y-95849D01*
X380570Y-96229D01*
X379428Y-96610D01*
X376000D01*
X378666D02*
X381332Y-100800D01*
X383884Y-92802D02*
X384265Y-93183D01*
X384646Y-92802D01*
X384265Y-92421D01*
X383884Y-92802D01*
X384265Y-95468D02*
Y-100800D01*
X390625Y-95468D02*
Y-101562D01*
X390245Y-102704D01*
X389864Y-103085D01*
X389102Y-103466D01*
X387959D01*
X387198Y-103085D01*
X390625Y-96610D02*
X389864Y-95849D01*
X389102Y-95468D01*
X387959D01*
X387198Y-95849D01*
X386436Y-96610D01*
X386055Y-97753D01*
Y-98515D01*
X386436Y-99657D01*
X387198Y-100419D01*
X387959Y-100800D01*
X389102D01*
X389864Y-100419D01*
X390625Y-99657D01*
X397329Y-95468D02*
Y-100800D01*
Y-96610D02*
X396567Y-95849D01*
X395805Y-95468D01*
X394663D01*
X393901Y-95849D01*
X393139Y-96610D01*
X392758Y-97753D01*
Y-98515D01*
X393139Y-99657D01*
X393901Y-100419D01*
X394663Y-100800D01*
X395805D01*
X396567Y-100419D01*
X397329Y-99657D01*
X404032Y-92802D02*
Y-100800D01*
Y-96610D02*
X403270Y-95849D01*
X402509Y-95468D01*
X401366D01*
X400604Y-95849D01*
X399843Y-96610D01*
X399462Y-97753D01*
Y-98515D01*
X399843Y-99657D01*
X400604Y-100419D01*
X401366Y-100800D01*
X402509D01*
X403270Y-100419D01*
X404032Y-99657D01*
X408069Y-95468D02*
X407308Y-95849D01*
X406546Y-96610D01*
X406165Y-97753D01*
Y-98515D01*
X406546Y-99657D01*
X407308Y-100419D01*
X408069Y-100800D01*
X409212D01*
X409974Y-100419D01*
X410735Y-99657D01*
X411116Y-98515D01*
Y-97753D01*
X410735Y-96610D01*
X409974Y-95849D01*
X409212Y-95468D01*
X408069D01*
X350000Y-93801D02*
Y-100800D01*
Y-93801D02*
X354332D01*
X350000Y-97134D02*
X352666D01*
X356799Y-96134D02*
X356132Y-96468D01*
X355466Y-97134D01*
X355132Y-98134D01*
Y-98800D01*
X355466Y-99800D01*
X356132Y-100467D01*
X356799Y-100800D01*
X357798D01*
X358465Y-100467D01*
X359131Y-99800D01*
X359465Y-98800D01*
Y-98134D01*
X359131Y-97134D01*
X358465Y-96468D01*
X357798Y-96134D01*
X356799D01*
X360998D02*
Y-100800D01*
Y-98134D02*
X361331Y-97134D01*
X361997Y-96468D01*
X362664Y-96134D01*
X363664D01*
X520000Y-59802D02*
Y-66800D01*
X523499D01*
X524665Y-65634D01*
Y-60969D01*
X523499Y-59802D01*
X520000D01*
X531663Y-60969D02*
X530497Y-59802D01*
X528164D01*
X526998Y-60969D01*
Y-65634D01*
X528164Y-66800D01*
X530497D01*
X531663Y-65634D01*
X533995Y-66800D02*
Y-59802D01*
X538661Y-66800D01*
Y-59802D01*
X503000Y-84969D02*
X504166Y-83802D01*
X506499D01*
X507665Y-84969D01*
Y-86135D01*
X506499Y-87301D01*
X505333D01*
X506499D01*
X507665Y-88467D01*
Y-89634D01*
X506499Y-90800D01*
X504166D01*
X503000Y-89634D01*
X509998Y-90800D02*
X514663Y-86135D01*
X516995Y-84969D02*
X518162Y-83802D01*
X520494D01*
X521661Y-84969D01*
Y-86135D01*
X520494Y-87301D01*
X519328D01*
X520494D01*
X521661Y-88467D01*
Y-89634D01*
X520494Y-90800D01*
X518162D01*
X516995Y-89634D01*
X523993Y-90800D02*
X526326D01*
X525160D01*
Y-83802D01*
X523993Y-84969D01*
X529825Y-90800D02*
X534490Y-86135D01*
X541488Y-90800D02*
X536822D01*
X541488Y-86135D01*
Y-84969D01*
X540321Y-83802D01*
X537989D01*
X536822Y-84969D01*
X543820D02*
X544986Y-83802D01*
X547319D01*
X548485Y-84969D01*
Y-89634D01*
X547319Y-90800D01*
X544986D01*
X543820Y-89634D01*
Y-84969D01*
X550818Y-90800D02*
X553151D01*
X551984D01*
Y-83802D01*
X550818Y-84969D01*
X561314Y-83802D02*
X558982Y-84969D01*
X556649Y-87301D01*
Y-89634D01*
X557816Y-90800D01*
X560148D01*
X561314Y-89634D01*
Y-88467D01*
X560148Y-87301D01*
X556649D01*
X634000Y-111802D02*
Y-117800D01*
X636999D01*
X637999Y-116800D01*
Y-115801D01*
X636999Y-114801D01*
X634000D01*
X636999D01*
X637999Y-113801D01*
Y-112802D01*
X636999Y-111802D01*
X634000D01*
X639998Y-117800D02*
Y-111802D01*
X641997Y-113801D01*
X643997Y-111802D01*
Y-117800D01*
X645996Y-111802D02*
Y-117800D01*
X648995D01*
X649995Y-116800D01*
Y-112802D01*
X648995Y-111802D01*
X645996D01*
X651994Y-114801D02*
X655993D01*
X657992Y-112802D02*
X658992Y-111802D01*
X660991D01*
X661991Y-112802D01*
Y-113801D01*
X660991Y-114801D01*
X659992D01*
X660991D01*
X661991Y-115801D01*
Y-116800D01*
X660991Y-117800D01*
X658992D01*
X657992Y-116800D01*
X663990Y-112802D02*
X664990Y-111802D01*
X666989D01*
X667989Y-112802D01*
Y-116800D01*
X666989Y-117800D01*
X664990D01*
X663990Y-116800D01*
Y-112802D01*
X669988D02*
X670988Y-111802D01*
X672987D01*
X673987Y-112802D01*
Y-116800D01*
X672987Y-117800D01*
X670988D01*
X669988Y-116800D01*
Y-112802D01*
X675986Y-114801D02*
X679985D01*
X685983Y-111802D02*
X681985D01*
Y-117800D01*
X685983D01*
X681985Y-114801D02*
X683984D01*
X687983Y-113801D02*
X689982Y-117800D01*
X691981Y-113801D01*
X694980D02*
X696980D01*
X697979Y-114801D01*
Y-117800D01*
X694980D01*
X693981Y-116800D01*
X694980Y-115801D01*
X697979D01*
X699979Y-117800D02*
X701978D01*
X700978D01*
Y-111802D01*
X699979D01*
X704977Y-117800D02*
Y-116800D01*
X705977D01*
Y-117800D01*
X704977D01*
X709975D02*
Y-111802D01*
X712974D01*
X713974Y-112802D01*
Y-114801D01*
X712974Y-115801D01*
X709975D01*
X719972Y-113801D02*
X716973D01*
X715974Y-114801D01*
Y-116800D01*
X716973Y-117800D01*
X719972D01*
X721972Y-111802D02*
Y-117800D01*
X724971D01*
X725970Y-116800D01*
Y-115801D01*
Y-114801D01*
X724971Y-113801D01*
X721972D01*
X727970Y-111802D02*
Y-117800D01*
X730969D01*
X731968Y-116800D01*
Y-112802D01*
X730969Y-111802D01*
X727970D01*
X734967Y-117800D02*
X736967D01*
X737966Y-116800D01*
Y-114801D01*
X736967Y-113801D01*
X734967D01*
X733968Y-114801D01*
Y-116800D01*
X734967Y-117800D01*
X743964Y-113801D02*
X740965D01*
X739966Y-114801D01*
Y-116800D01*
X740965Y-117800D01*
X743964D01*
D50*
X805171Y224348D02*
X897171D01*
Y214848D02*
Y224348D01*
X805171Y214848D02*
Y224348D01*
Y214848D02*
X897171D01*
X805171Y226200D02*
Y235700D01*
X897171D01*
Y226200D02*
Y235700D01*
X805171Y226200D02*
X897171D01*
D51*
X-137024Y492400D02*
X315122D01*
Y684936D01*
X831171Y221547D02*
Y217548D01*
Y221547D02*
X833646D01*
X831171Y219642D02*
X832694D01*
X836389Y220214D02*
Y217548D01*
Y219642D02*
X836008Y220023D01*
X835627Y220214D01*
X835056D01*
X834675Y220023D01*
X834294Y219642D01*
X834104Y219071D01*
Y218690D01*
X834294Y218119D01*
X834675Y217738D01*
X835056Y217548D01*
X835627D01*
X836008Y217738D01*
X836389Y218119D01*
X837455Y221547D02*
Y217548D01*
Y219642D02*
X837836Y220023D01*
X838217Y220214D01*
X838788D01*
X839169Y220023D01*
X839550Y219642D01*
X839740Y219071D01*
Y218690D01*
X839550Y218119D01*
X839169Y217738D01*
X838788Y217548D01*
X838217D01*
X837836Y217738D01*
X837455Y218119D01*
X840597Y220214D02*
Y217548D01*
Y219071D02*
X840788Y219642D01*
X841169Y220023D01*
X841550Y220214D01*
X842121D01*
X842864Y221547D02*
X843054Y221356D01*
X843244Y221547D01*
X843054Y221737D01*
X842864Y221547D01*
X843054Y220214D02*
Y217548D01*
X846234Y219642D02*
X845853Y220023D01*
X845473Y220214D01*
X844901D01*
X844520Y220023D01*
X844139Y219642D01*
X843949Y219071D01*
Y218690D01*
X844139Y218119D01*
X844520Y217738D01*
X844901Y217548D01*
X845473D01*
X845853Y217738D01*
X846234Y218119D01*
X849376Y220214D02*
Y217548D01*
Y219642D02*
X848996Y220023D01*
X848615Y220214D01*
X848043D01*
X847663Y220023D01*
X847282Y219642D01*
X847091Y219071D01*
Y218690D01*
X847282Y218119D01*
X847663Y217738D01*
X848043Y217548D01*
X848615D01*
X848996Y217738D01*
X849376Y218119D01*
X851014Y221547D02*
Y218309D01*
X851205Y217738D01*
X851585Y217548D01*
X851966D01*
X850443Y220214D02*
X851776D01*
X852919Y221547D02*
X853109Y221356D01*
X853300Y221547D01*
X853109Y221737D01*
X852919Y221547D01*
X853109Y220214D02*
Y217548D01*
X854956Y220214D02*
X854575Y220023D01*
X854195Y219642D01*
X854004Y219071D01*
Y218690D01*
X854195Y218119D01*
X854575Y217738D01*
X854956Y217548D01*
X855527D01*
X855908Y217738D01*
X856289Y218119D01*
X856480Y218690D01*
Y219071D01*
X856289Y219642D01*
X855908Y220023D01*
X855527Y220214D01*
X854956D01*
X857356D02*
Y217548D01*
Y219452D02*
X857927Y220023D01*
X858308Y220214D01*
X858879D01*
X859260Y220023D01*
X859451Y219452D01*
Y217548D01*
X863640Y221547D02*
Y217548D01*
Y221547D02*
X866306Y217548D01*
Y221547D02*
Y217548D01*
X868363Y220214D02*
X867982Y220023D01*
X867601Y219642D01*
X867411Y219071D01*
Y218690D01*
X867601Y218119D01*
X867982Y217738D01*
X868363Y217548D01*
X868934D01*
X869315Y217738D01*
X869696Y218119D01*
X869886Y218690D01*
Y219071D01*
X869696Y219642D01*
X869315Y220023D01*
X868934Y220214D01*
X868363D01*
X871334Y221547D02*
Y218309D01*
X871524Y217738D01*
X871905Y217548D01*
X872286D01*
X870762Y220214D02*
X872095D01*
X872857Y219071D02*
X875142D01*
Y219452D01*
X874952Y219833D01*
X874761Y220023D01*
X874381Y220214D01*
X873809D01*
X873429Y220023D01*
X873048Y219642D01*
X872857Y219071D01*
Y218690D01*
X873048Y218119D01*
X873429Y217738D01*
X873809Y217548D01*
X874381D01*
X874761Y217738D01*
X875142Y218119D01*
X878094Y219642D02*
X877904Y220023D01*
X877332Y220214D01*
X876761D01*
X876190Y220023D01*
X875999Y219642D01*
X876190Y219262D01*
X876571Y219071D01*
X877523Y218881D01*
X877904Y218690D01*
X878094Y218309D01*
Y218119D01*
X877904Y217738D01*
X877332Y217548D01*
X876761D01*
X876190Y217738D01*
X875999Y218119D01*
X831171Y232899D02*
Y228900D01*
Y232899D02*
X832885D01*
X833456Y232709D01*
X833647Y232518D01*
X833837Y232137D01*
Y231756D01*
X833647Y231376D01*
X833456Y231185D01*
X832885Y230995D01*
X831171D02*
X832885D01*
X833456Y230804D01*
X833647Y230614D01*
X833837Y230233D01*
Y229662D01*
X833647Y229281D01*
X833456Y229090D01*
X832885Y228900D01*
X831171D01*
X835684Y231566D02*
X835303Y231376D01*
X834923Y230995D01*
X834732Y230423D01*
Y230043D01*
X834923Y229471D01*
X835303Y229090D01*
X835684Y228900D01*
X836255D01*
X836636Y229090D01*
X837017Y229471D01*
X837208Y230043D01*
Y230423D01*
X837017Y230995D01*
X836636Y231376D01*
X836255Y231566D01*
X835684D01*
X840369D02*
Y228900D01*
Y230995D02*
X839988Y231376D01*
X839607Y231566D01*
X839036D01*
X838655Y231376D01*
X838274Y230995D01*
X838084Y230423D01*
Y230043D01*
X838274Y229471D01*
X838655Y229090D01*
X839036Y228900D01*
X839607D01*
X839988Y229090D01*
X840369Y229471D01*
X841435Y231566D02*
Y228900D01*
Y230423D02*
X841626Y230995D01*
X842007Y231376D01*
X842388Y231566D01*
X842959D01*
X845606Y232899D02*
Y228900D01*
Y230995D02*
X845225Y231376D01*
X844844Y231566D01*
X844273D01*
X843892Y231376D01*
X843511Y230995D01*
X843321Y230423D01*
Y230043D01*
X843511Y229471D01*
X843892Y229090D01*
X844273Y228900D01*
X844844D01*
X845225Y229090D01*
X845606Y229471D01*
X850957Y232899D02*
X850576Y232709D01*
X850195Y232328D01*
X850005Y231947D01*
X849815Y231376D01*
Y230423D01*
X850005Y229852D01*
X850195Y229471D01*
X850576Y229090D01*
X850957Y228900D01*
X851719D01*
X852100Y229090D01*
X852481Y229471D01*
X852671Y229852D01*
X852861Y230423D01*
Y231376D01*
X852671Y231947D01*
X852481Y232328D01*
X852100Y232709D01*
X851719Y232899D01*
X850957D01*
X853795Y231566D02*
Y229662D01*
X853985Y229090D01*
X854366Y228900D01*
X854937D01*
X855318Y229090D01*
X855889Y229662D01*
Y231566D02*
Y228900D01*
X857508Y232899D02*
Y229662D01*
X857699Y229090D01*
X858079Y228900D01*
X858460D01*
X856937Y231566D02*
X858270D01*
X859032Y232899D02*
Y228900D01*
X860250Y232899D02*
X860441Y232709D01*
X860631Y232899D01*
X860441Y233090D01*
X860250Y232899D01*
X860441Y231566D02*
Y228900D01*
X861336Y231566D02*
Y228900D01*
Y230804D02*
X861907Y231376D01*
X862288Y231566D01*
X862859D01*
X863240Y231376D01*
X863431Y230804D01*
Y228900D01*
X864478Y230423D02*
X866763D01*
Y230804D01*
X866573Y231185D01*
X866382Y231376D01*
X866002Y231566D01*
X865430D01*
X865049Y231376D01*
X864668Y230995D01*
X864478Y230423D01*
Y230043D01*
X864668Y229471D01*
X865049Y229090D01*
X865430Y228900D01*
X866002D01*
X866382Y229090D01*
X866763Y229471D01*
X343371Y-60728D02*
G03*
X343371Y-60728I-1900J0D01*
G01*
X343771D02*
G03*
X343771Y-60728I-2300J0D01*
G01*
X344171D02*
G03*
X344171Y-60728I-2700J0D01*
G01*
X344571D02*
G03*
X344571Y-60728I-3100J0D01*
G01*
X462471Y-69728D02*
G03*
X462471Y-69728I-12400J0D01*
G01*
X455971D02*
G03*
X455971Y-69728I-6000J0D01*
G01*
X415971Y-77028D02*
G03*
X418971Y-76928I-92J47813D01*
G01*
D02*
G03*
X422371Y-76228I-1420J15504D01*
G01*
D02*
G03*
X424271Y-75028I-2138J5489D01*
G01*
D02*
G03*
X425471Y-73228I-4771J4481D01*
G01*
D02*
G03*
X426171Y-70828I-9081J3951D01*
G01*
X426171D02*
G03*
X425971Y-68028I-12278J530D01*
G01*
X425971D02*
G03*
X425271Y-65928I-8147J-1549D01*
G01*
D02*
G03*
X423571Y-63728I-6248J-3071D01*
G01*
D02*
G03*
X421071Y-62728I-2788J-3344D01*
G01*
Y-62728D02*
G03*
X415771Y-62528I-4939J-60548D01*
G01*
X421571Y-81778D02*
G03*
X426171Y-81128I-110J17380D01*
G01*
Y-81128D02*
G03*
X428171Y-80128I-4821J12141D01*
G01*
Y-80128D02*
G03*
X430371Y-78428I-11510J17169D01*
G01*
D02*
G03*
X432071Y-75928I-7834J7155D01*
G01*
X432071D02*
G03*
X432971Y-72828I-10301J4671D01*
G01*
X432971D02*
G03*
X433171Y-70028I-19572J2805D01*
G01*
X433171D02*
G03*
X433071Y-67728I-23001J152D01*
G01*
X433071D02*
G03*
X431871Y-63928I-12908J-1987D01*
G01*
D02*
G03*
X429871Y-61328I-16150J-10354D01*
G01*
Y-61328D02*
G03*
X425471Y-58628I-7709J-7627D01*
G01*
Y-58628D02*
G03*
X421271Y-57928I-4200J-12252D01*
G01*
X371471Y-80828D02*
G03*
X373471Y-80228I-168364J564846D01*
G01*
X367771Y-81908D02*
G03*
X371471Y-80828I-3584J19159D01*
G01*
X363071Y-82069D02*
G03*
X367771Y-81908I845J44213D01*
G01*
X357771Y-81328D02*
G03*
X363071Y-82069I6434J26726D01*
G01*
X354371Y-79528D02*
G03*
X357771Y-81328I5831J6903D01*
G01*
X352571Y-78128D02*
G03*
X354371Y-79528I9198J9969D01*
G01*
X349471Y-72328D02*
G03*
X352571Y-78128I11760J2557D01*
G01*
X349371Y-70028D02*
G03*
X349471Y-72328I24430J-90D01*
G01*
X350071Y-65328D02*
G03*
X349371Y-70028I22626J-5772D01*
G01*
X352271Y-61528D02*
G03*
X350071Y-65328I8644J-7541D01*
G01*
X357071Y-58228D02*
G03*
X352271Y-61528I3729J-10565D01*
G01*
X363571Y-57328D02*
G03*
X357071Y-58228I50J-24286D01*
G01*
X369671Y-58128D02*
G03*
X363571Y-57328I-6247J-23979D01*
G01*
X364871Y-76628D02*
G03*
X367671Y-76028I-2812J19954D01*
G01*
X361271Y-75928D02*
G03*
X364871Y-76628I3448J8125D01*
G01*
X359571Y-75028D02*
G03*
X361271Y-75928I7067J11293D01*
G01*
X356971Y-71128D02*
G03*
X359571Y-75028I5525J867D01*
G01*
X356971Y-69228D02*
G03*
X356971Y-71128I5886J-950D01*
G01*
X365471Y-62428D02*
G03*
X360471Y-63528I-111J-11411D01*
G01*
D02*
G03*
X356971Y-69228I3181J-5878D01*
G01*
X371371Y-63628D02*
G03*
X368571Y-62728I-9612J-25099D01*
G01*
D02*
G03*
X366771Y-62428I-2604J-10073D01*
G01*
Y-62428D02*
G03*
X365471Y-62428I-650J-9558D01*
G01*
X321871Y-62428D02*
G03*
X317671Y-62428I-2100J-99539D01*
G01*
X323271Y-62928D02*
G03*
X321871Y-62428I-1594J-2253D01*
G01*
X324271Y-63928D02*
G03*
X323271Y-62928I-2637J-1637D01*
G01*
X324671Y-65828D02*
G03*
X324271Y-63928I-3152J329D01*
G01*
X323171Y-67728D02*
G03*
X324671Y-65828I-945J2288D01*
G01*
X320671Y-68228D02*
G03*
X323171Y-67728I186J5573D01*
G01*
X324371Y-77028D02*
G03*
X326271Y-81428I63053J24617D01*
G01*
X324371Y-77028D02*
G03*
X322371Y-73828I-11094J-4709D01*
G01*
D02*
G03*
X321171Y-72728I-4025J-3186D01*
G01*
X334371Y-81428D02*
G03*
X332471Y-76628I-41800J-13770D01*
G01*
D02*
G03*
X330471Y-73228I-29344J-14973D01*
G01*
D02*
G03*
X328771Y-71628I-3709J-2237D01*
G01*
X324971Y-72028D02*
G03*
X332071Y-64628I-150J7250D01*
G01*
Y-64528D02*
G03*
X325371Y-57928I-6650J-50D01*
G01*
X343371Y-60728D02*
G03*
X343371Y-60728I-1900J0D01*
G01*
X343771D02*
G03*
X343771Y-60728I-2300J0D01*
G01*
X344171D02*
G03*
X344171Y-60728I-2700J0D01*
G01*
X344571D02*
G03*
X344571Y-60728I-3100J0D01*
G01*
X462471Y-69728D02*
G03*
X462471Y-69728I-12400J0D01*
G01*
X455971D02*
G03*
X455971Y-69728I-6000J0D01*
G01*
X415971Y-77028D02*
G03*
X418971Y-76928I-92J47813D01*
G01*
D02*
G03*
X422371Y-76228I-1420J15504D01*
G01*
D02*
G03*
X424271Y-75028I-2138J5489D01*
G01*
D02*
G03*
X425471Y-73228I-4771J4481D01*
G01*
D02*
G03*
X426171Y-70828I-9081J3951D01*
G01*
X426171D02*
G03*
X425971Y-68028I-12278J530D01*
G01*
X425971D02*
G03*
X425271Y-65928I-8147J-1549D01*
G01*
D02*
G03*
X423571Y-63728I-6248J-3071D01*
G01*
D02*
G03*
X421071Y-62728I-2788J-3344D01*
G01*
Y-62728D02*
G03*
X415771Y-62528I-4939J-60548D01*
G01*
X421571Y-81778D02*
G03*
X426171Y-81128I-110J17380D01*
G01*
Y-81128D02*
G03*
X428171Y-80128I-4821J12141D01*
G01*
Y-80128D02*
G03*
X430371Y-78428I-11510J17169D01*
G01*
D02*
G03*
X432071Y-75928I-7834J7155D01*
G01*
X432071D02*
G03*
X432971Y-72828I-10301J4671D01*
G01*
X432971D02*
G03*
X433171Y-70028I-19572J2805D01*
G01*
X433171D02*
G03*
X433071Y-67728I-23001J152D01*
G01*
X433071D02*
G03*
X431871Y-63928I-12908J-1987D01*
G01*
D02*
G03*
X429871Y-61328I-16150J-10354D01*
G01*
Y-61328D02*
G03*
X425471Y-58628I-7709J-7627D01*
G01*
Y-58628D02*
G03*
X421271Y-57928I-4200J-12252D01*
G01*
X371471Y-80828D02*
G03*
X373471Y-80228I-168364J564846D01*
G01*
X367771Y-81908D02*
G03*
X371471Y-80828I-3584J19159D01*
G01*
X363071Y-82069D02*
G03*
X367771Y-81908I845J44213D01*
G01*
X357771Y-81328D02*
G03*
X363071Y-82069I6434J26726D01*
G01*
X354371Y-79528D02*
G03*
X357771Y-81328I5831J6903D01*
G01*
X352571Y-78128D02*
G03*
X354371Y-79528I9198J9969D01*
G01*
X349471Y-72328D02*
G03*
X352571Y-78128I11760J2557D01*
G01*
X349371Y-70028D02*
G03*
X349471Y-72328I24430J-90D01*
G01*
X350071Y-65328D02*
G03*
X349371Y-70028I22626J-5772D01*
G01*
X352271Y-61528D02*
G03*
X350071Y-65328I8644J-7541D01*
G01*
X357071Y-58228D02*
G03*
X352271Y-61528I3729J-10565D01*
G01*
X363571Y-57328D02*
G03*
X357071Y-58228I50J-24286D01*
G01*
X369671Y-58128D02*
G03*
X363571Y-57328I-6247J-23979D01*
G01*
X364871Y-76628D02*
G03*
X367671Y-76028I-2812J19954D01*
G01*
X361271Y-75928D02*
G03*
X364871Y-76628I3448J8125D01*
G01*
X359571Y-75028D02*
G03*
X361271Y-75928I7067J11293D01*
G01*
X356971Y-71128D02*
G03*
X359571Y-75028I5525J867D01*
G01*
X356971Y-69228D02*
G03*
X356971Y-71128I5886J-950D01*
G01*
X365471Y-62428D02*
G03*
X360471Y-63528I-111J-11411D01*
G01*
D02*
G03*
X356971Y-69228I3181J-5878D01*
G01*
X371371Y-63628D02*
G03*
X368571Y-62728I-9612J-25099D01*
G01*
D02*
G03*
X366771Y-62428I-2604J-10073D01*
G01*
Y-62428D02*
G03*
X365471Y-62428I-650J-9558D01*
G01*
X321871Y-62428D02*
G03*
X317671Y-62428I-2100J-99539D01*
G01*
X323271Y-62928D02*
G03*
X321871Y-62428I-1594J-2253D01*
G01*
X324271Y-63928D02*
G03*
X323271Y-62928I-2637J-1637D01*
G01*
X324671Y-65828D02*
G03*
X324271Y-63928I-3152J329D01*
G01*
X323171Y-67728D02*
G03*
X324671Y-65828I-945J2288D01*
G01*
X320671Y-68228D02*
G03*
X323171Y-67728I186J5573D01*
G01*
X324371Y-77028D02*
G03*
X326271Y-81428I63053J24617D01*
G01*
X324371Y-77028D02*
G03*
X322371Y-73828I-11094J-4709D01*
G01*
D02*
G03*
X321171Y-72728I-4025J-3186D01*
G01*
X334371Y-81428D02*
G03*
X332471Y-76628I-41800J-13770D01*
G01*
D02*
G03*
X330471Y-73228I-29344J-14973D01*
G01*
D02*
G03*
X328771Y-71628I-3709J-2237D01*
G01*
X324971Y-72028D02*
G03*
X332071Y-64628I-150J7250D01*
G01*
Y-64528D02*
G03*
X325371Y-57928I-6650J-50D01*
G01*
X877000Y600200D02*
Y662200D01*
X810000Y600200D02*
Y662200D01*
X615000Y600200D02*
Y662200D01*
X579000D02*
X922976D01*
X579000Y630200D02*
X922976D01*
X579000Y645200D02*
X923000D01*
X579000Y615200D02*
X922976D01*
X579000Y600200D02*
X923000D01*
X579000D02*
Y685200D01*
X-157000Y-144800D02*
X943000D01*
X622976Y-65064D02*
Y-50664D01*
X472976D02*
X622976D01*
X304000D02*
X472976D01*
X922976Y67436D02*
X942976D01*
X922976Y279936D02*
X942976D01*
X922976Y492436D02*
X942976D01*
X922976Y-125064D02*
Y684936D01*
X943000Y-144800D02*
Y705200D01*
X-157000D02*
X943000D01*
X667976Y684936D02*
Y704936D01*
X392976Y684936D02*
Y704936D01*
X117976Y684936D02*
Y704936D01*
X-137024Y684936D02*
X922976D01*
X667976Y-145064D02*
Y-125064D01*
X622976D02*
Y-65064D01*
X832976Y-125064D02*
Y-73964D01*
X472976Y-125064D02*
Y-50664D01*
X922976Y-125064D02*
Y-50664D01*
X622976D02*
X922976D01*
X472976Y-73664D02*
X922976D01*
X472976Y-98564D02*
X922976D01*
X472976Y-125064D02*
X922976D01*
X304000D02*
Y-50664D01*
Y-125064D02*
X472976D01*
X392976Y-145064D02*
Y-125064D01*
X117976Y-145064D02*
Y-125064D01*
X-157024Y67436D02*
X-137024D01*
X-157024Y279936D02*
X-137024D01*
X-157024Y492436D02*
X-137024D01*
X-157000Y-144800D02*
Y705200D01*
X-137024Y-125064D02*
Y684936D01*
Y-125064D02*
X922976D01*
X436171Y-63328D02*
X438471Y-65628D01*
X436171Y-63328D02*
X436971Y-61628D01*
X440171Y-62428D01*
X442171Y-56428D02*
X444871Y-58528D01*
X440671Y-57428D02*
X442171Y-56428D01*
X440671Y-57428D02*
X441571Y-60728D01*
X446771Y-57928D02*
X447271Y-54528D01*
X449271Y-54228D01*
X450671Y-57428D01*
X452671Y-57728D02*
X454771Y-55028D01*
X456471Y-55528D01*
X456371Y-59228D02*
X456471Y-55528D01*
X460371Y-63128D02*
X462371Y-60128D01*
X461171Y-58728D02*
X462371Y-60128D01*
X457871Y-60328D02*
X461171Y-58728D01*
X461271Y-64928D02*
X465071Y-65228D01*
X465471Y-67028D01*
X462271Y-68728D02*
X465471Y-67028D01*
X462271Y-70728D02*
X465471Y-72728D01*
X464971Y-74528D02*
X465471Y-72728D01*
X461471Y-74528D02*
X464971D01*
X460371Y-76328D02*
X462271Y-79528D01*
X461171Y-80828D02*
X462271Y-79528D01*
X457871Y-79228D02*
X461171Y-80828D01*
X456271Y-80328D02*
X456371Y-84098D01*
X454671Y-84708D02*
X456371Y-84098D01*
X452571Y-81878D02*
X454671Y-84708D01*
X449071Y-85318D02*
X450271Y-82158D01*
X447271Y-85089D02*
X449071Y-85318D01*
X446871Y-81808D02*
X447271Y-85089D01*
X441971Y-82998D02*
X444871Y-80928D01*
X440471Y-81968D02*
X441971Y-82998D01*
X440471Y-81968D02*
X441771Y-78828D01*
X436771Y-77628D02*
X440171Y-77228D01*
X436071Y-76128D02*
X436771Y-77628D01*
X436071Y-76128D02*
X438271Y-73728D01*
X434671Y-70728D02*
X437771Y-71428D01*
X434671Y-70728D02*
Y-68828D01*
X437771Y-67828D01*
X390571Y-63528D02*
X394471Y-72928D01*
X387271Y-72728D02*
X390640Y-64259D01*
X383371Y-81778D02*
X386071Y-75828D01*
X385250Y-76807D02*
X397271Y-76728D01*
X395771Y-76628D02*
X397871Y-81769D01*
X394971Y-57928D02*
X405371Y-81769D01*
X375971Y-81778D02*
X386571Y-57928D01*
X369671Y-58128D02*
X373071Y-59028D01*
X371371Y-63628D02*
X373071Y-64628D01*
X318271Y-68228D02*
X320671D01*
X319971Y-72028D02*
X321171Y-72728D01*
X328171Y-71428D02*
X328771Y-71628D01*
X325271Y-57928D02*
X325371D01*
X436171Y-63328D02*
X438471Y-65628D01*
X436171Y-63328D02*
X436971Y-61628D01*
X440171Y-62428D01*
X442171Y-56428D02*
X444871Y-58528D01*
X440671Y-57428D02*
X442171Y-56428D01*
X440671Y-57428D02*
X441571Y-60728D01*
X446771Y-57928D02*
X447271Y-54528D01*
X449271Y-54228D01*
X450671Y-57428D01*
X452671Y-57728D02*
X454771Y-55028D01*
X456471Y-55528D01*
X456371Y-59228D02*
X456471Y-55528D01*
X460371Y-63128D02*
X462371Y-60128D01*
X461171Y-58728D02*
X462371Y-60128D01*
X457871Y-60328D02*
X461171Y-58728D01*
X461271Y-64928D02*
X465071Y-65228D01*
X465471Y-67028D01*
X462271Y-68728D02*
X465471Y-67028D01*
X462271Y-70728D02*
X465471Y-72728D01*
X464971Y-74528D02*
X465471Y-72728D01*
X461471Y-74528D02*
X464971D01*
X460371Y-76328D02*
X462271Y-79528D01*
X461171Y-80828D02*
X462271Y-79528D01*
X457871Y-79228D02*
X461171Y-80828D01*
X456271Y-80328D02*
X456371Y-84098D01*
X454671Y-84708D02*
X456371Y-84098D01*
X452571Y-81878D02*
X454671Y-84708D01*
X449071Y-85318D02*
X450271Y-82158D01*
X447271Y-85089D02*
X449071Y-85318D01*
X446871Y-81808D02*
X447271Y-85089D01*
X441971Y-82998D02*
X444871Y-80928D01*
X440471Y-81968D02*
X441971Y-82998D01*
X440471Y-81968D02*
X441771Y-78828D01*
X436771Y-77628D02*
X440171Y-77228D01*
X436071Y-76128D02*
X436771Y-77628D01*
X436071Y-76128D02*
X438271Y-73728D01*
X434671Y-70728D02*
X437771Y-71428D01*
X434671Y-70728D02*
Y-68828D01*
X437771Y-67828D01*
X390571Y-63528D02*
X394471Y-72928D01*
X387271Y-72728D02*
X390640Y-64259D01*
X383371Y-81778D02*
X386071Y-75828D01*
X385250Y-76807D02*
X397350D01*
X395771Y-76628D02*
X397871Y-81769D01*
X394971Y-57928D02*
X405371Y-81769D01*
X375971Y-81778D02*
X386571Y-57928D01*
X369671Y-58128D02*
X373071Y-59028D01*
X371371Y-63628D02*
X373071Y-64628D01*
X318271Y-68228D02*
X320671D01*
X319971Y-72028D02*
X321171Y-72728D01*
X328171Y-71428D02*
X328771Y-71628D01*
X325271Y-57928D02*
X325371D01*
X625276Y-81564D02*
Y-76565D01*
X627776D01*
X628609Y-77399D01*
Y-79065D01*
X627776Y-79898D01*
X625276D01*
X633607Y-77399D02*
X632774Y-76565D01*
X631108D01*
X630275Y-77399D01*
Y-80731D01*
X631108Y-81564D01*
X632774D01*
X633607Y-80731D01*
X635273Y-76565D02*
Y-81564D01*
X637772D01*
X638605Y-80731D01*
Y-79898D01*
X637772Y-79065D01*
X635273D01*
X637772D01*
X638605Y-78232D01*
Y-77399D01*
X637772Y-76565D01*
X635273D01*
X645270Y-81564D02*
Y-76565D01*
X648602Y-81564D01*
Y-76565D01*
X650268Y-81564D02*
Y-78232D01*
X651934Y-76565D01*
X653601Y-78232D01*
Y-81564D01*
Y-79065D01*
X650268D01*
X655267Y-81564D02*
Y-76565D01*
X656933Y-78232D01*
X658599Y-76565D01*
Y-81564D01*
X663597Y-76565D02*
X660265D01*
Y-81564D01*
X663597D01*
X660265Y-79065D02*
X661931D01*
X665263Y-78232D02*
X666096D01*
Y-79065D01*
X665263D01*
Y-78232D01*
Y-80731D02*
X666096D01*
Y-81564D01*
X665263D01*
Y-80731D01*
X838009Y-103399D02*
X837176Y-102565D01*
X835509D01*
X834676Y-103399D01*
Y-104232D01*
X835509Y-105065D01*
X837176D01*
X838009Y-105898D01*
Y-106731D01*
X837176Y-107564D01*
X835509D01*
X834676Y-106731D01*
X843007Y-103399D02*
X842174Y-102565D01*
X840508D01*
X839675Y-103399D01*
Y-106731D01*
X840508Y-107564D01*
X842174D01*
X843007Y-106731D01*
X844673Y-107564D02*
Y-104232D01*
X846339Y-102565D01*
X848005Y-104232D01*
Y-107564D01*
Y-105065D01*
X844673D01*
X849671Y-102565D02*
Y-107564D01*
X853004D01*
X858002Y-102565D02*
X854670D01*
Y-107564D01*
X858002D01*
X854670Y-105065D02*
X856336D01*
X859668Y-104232D02*
X860501D01*
Y-105065D01*
X859668D01*
Y-104232D01*
Y-106731D02*
X860501D01*
Y-107564D01*
X859668D01*
Y-106731D01*
X628332Y-101802D02*
X625000D01*
Y-104301D01*
X626666D01*
X625000D01*
Y-106800D01*
X629998Y-101802D02*
X631665D01*
X630831D01*
Y-106800D01*
X629998D01*
X631665D01*
X634164Y-101802D02*
Y-106800D01*
X637496D01*
X642494Y-101802D02*
X639162D01*
Y-106800D01*
X642494D01*
X639162Y-104301D02*
X640828D01*
X649159Y-106800D02*
Y-101802D01*
X652491Y-106800D01*
Y-101802D01*
X654157Y-106800D02*
Y-103468D01*
X655823Y-101802D01*
X657489Y-103468D01*
Y-106800D01*
Y-104301D01*
X654157D01*
X659156Y-106800D02*
Y-101802D01*
X660822Y-103468D01*
X662488Y-101802D01*
Y-106800D01*
X667486Y-101802D02*
X664154D01*
Y-106800D01*
X667486D01*
X664154Y-104301D02*
X665820D01*
X669152Y-103468D02*
X669985D01*
Y-104301D01*
X669152D01*
Y-103468D01*
Y-105967D02*
X669985D01*
Y-106800D01*
X669152D01*
Y-105967D01*
X625776Y-60164D02*
Y-55165D01*
X628276D01*
X629109Y-55998D01*
Y-57665D01*
X628276Y-58498D01*
X625776D01*
X630775Y-60164D02*
Y-55165D01*
X633274D01*
X634107Y-55998D01*
Y-57665D01*
X633274Y-58498D01*
X630775D01*
X632441D02*
X634107Y-60164D01*
X638272Y-55165D02*
X636606D01*
X635773Y-55998D01*
Y-59331D01*
X636606Y-60164D01*
X638272D01*
X639105Y-59331D01*
Y-55998D01*
X638272Y-55165D01*
X644104D02*
X642438D01*
X643271D01*
Y-59331D01*
X642438Y-60164D01*
X641605D01*
X640771Y-59331D01*
X649102Y-55165D02*
X645770D01*
Y-60164D01*
X649102D01*
X645770Y-57665D02*
X647436D01*
X654101Y-55998D02*
X653267Y-55165D01*
X651601D01*
X650768Y-55998D01*
Y-59331D01*
X651601Y-60164D01*
X653267D01*
X654101Y-59331D01*
X655767Y-55165D02*
X659099D01*
X657433D01*
Y-60164D01*
X660765Y-56832D02*
X661598D01*
Y-57665D01*
X660765D01*
Y-56832D01*
Y-59331D02*
X661598D01*
Y-60164D01*
X660765D01*
Y-59331D01*
X477509Y-55265D02*
X474176D01*
Y-60264D01*
X477509D01*
X474176Y-57765D02*
X475843D01*
X479175Y-60264D02*
Y-55265D01*
X482507Y-60264D01*
Y-55265D01*
X487505Y-56099D02*
X486672Y-55265D01*
X485006D01*
X484173Y-56099D01*
Y-59431D01*
X485006Y-60264D01*
X486672D01*
X487505Y-59431D01*
Y-57765D01*
X485839D01*
X489172Y-55265D02*
X490838D01*
X490005D01*
Y-60264D01*
X489172D01*
X490838D01*
X493337D02*
Y-55265D01*
X496669Y-60264D01*
Y-55265D01*
X501667D02*
X498335D01*
Y-60264D01*
X501667D01*
X498335Y-57765D02*
X500001D01*
X506666Y-55265D02*
X503334D01*
Y-60264D01*
X506666D01*
X503334Y-57765D02*
X505000D01*
X508332Y-60264D02*
Y-55265D01*
X510831D01*
X511664Y-56099D01*
Y-57765D01*
X510831Y-58598D01*
X508332D01*
X509998D02*
X511664Y-60264D01*
X513330Y-56932D02*
X514163D01*
Y-57765D01*
X513330D01*
Y-56932D01*
Y-59431D02*
X514163D01*
Y-60264D01*
X513330D01*
Y-59431D01*
X475000Y-101802D02*
Y-106800D01*
X477499D01*
X478332Y-105967D01*
Y-102635D01*
X477499Y-101802D01*
X475000D01*
X479998D02*
Y-106800D01*
X481665Y-105134D01*
X483331Y-106800D01*
Y-101802D01*
X488329Y-102635D02*
X487496Y-101802D01*
X485830D01*
X484997Y-102635D01*
Y-105967D01*
X485830Y-106800D01*
X487496D01*
X488329Y-105967D01*
Y-104301D01*
X486663D01*
X494993Y-106800D02*
Y-101802D01*
X498326Y-106800D01*
Y-101802D01*
X502491D02*
X500825D01*
X499992Y-102635D01*
Y-105967D01*
X500825Y-106800D01*
X502491D01*
X503324Y-105967D01*
Y-102635D01*
X502491Y-101802D01*
X504990Y-103468D02*
X505823D01*
Y-104301D01*
X504990D01*
Y-103468D01*
Y-105967D02*
X505823D01*
Y-106800D01*
X504990D01*
Y-105967D01*
X835176Y-82864D02*
Y-77865D01*
X837676D01*
X838509Y-78698D01*
Y-80365D01*
X837676Y-81198D01*
X835176D01*
X836843D02*
X838509Y-82864D01*
X843507Y-77865D02*
X840175D01*
Y-82864D01*
X843507D01*
X840175Y-80365D02*
X841841D01*
X845173Y-77865D02*
Y-81198D01*
X846839Y-82864D01*
X848505Y-81198D01*
Y-77865D01*
X850171Y-79532D02*
X851005D01*
Y-80365D01*
X850171D01*
Y-79532D01*
Y-82031D02*
X851005D01*
Y-82864D01*
X850171D01*
Y-82031D01*
X474476Y-76965D02*
Y-81964D01*
X476976D01*
X477809Y-81131D01*
Y-77798D01*
X476976Y-76965D01*
X474476D01*
X479475Y-81964D02*
Y-78632D01*
X481141Y-76965D01*
X482807Y-78632D01*
Y-81964D01*
Y-79465D01*
X479475D01*
X484473Y-76965D02*
X487805D01*
X486139D01*
Y-81964D01*
X492804Y-76965D02*
X489471D01*
Y-81964D01*
X492804D01*
X489471Y-79465D02*
X491138D01*
X494470Y-78632D02*
X495303D01*
Y-79465D01*
X494470D01*
Y-78632D01*
Y-81131D02*
X495303D01*
Y-81964D01*
X494470D01*
Y-81131D01*
D52*
X814671Y219598D02*
D03*
Y230950D02*
D03*
D53*
X332500Y170700D02*
Y215000D01*
X327500Y220000D02*
X332500Y215000D01*
Y35000D02*
X345000Y47500D01*
Y158200D01*
X332500Y170700D02*
X345000Y158200D01*
X5000Y220000D02*
X327500D01*
X0Y5000D02*
Y215000D01*
X5000Y0D02*
X327500D01*
X332500Y5000D02*
Y35000D01*
X327500Y0D02*
X332500Y5000D01*
X0Y215000D02*
X5000Y220000D01*
X0Y5000D02*
X5000Y0D01*
D54*
X810171Y249246D02*
Y241248D01*
X814741D01*
X821711D02*
X818664Y249246D01*
X815617Y241248D01*
X816760Y243914D02*
X820569D01*
X823578Y249246D02*
X826624Y245437D01*
Y241248D01*
X829671Y249246D02*
X826624Y245437D01*
X835651Y249246D02*
X830700D01*
Y241248D01*
X835651D01*
X830700Y245437D02*
X833747D01*
X836984Y249246D02*
Y241248D01*
Y249246D02*
X840412D01*
X841555Y248865D01*
X841936Y248484D01*
X842316Y247722D01*
Y246961D01*
X841936Y246199D01*
X841555Y245818D01*
X840412Y245437D01*
X836984D01*
X839650D02*
X842316Y241248D01*
X850391Y249246D02*
Y243533D01*
X850772Y242390D01*
X851534Y241629D01*
X852676Y241248D01*
X853438D01*
X854580Y241629D01*
X855342Y242390D01*
X855723Y243533D01*
Y249246D01*
X863264Y248103D02*
X862502Y248865D01*
X861360Y249246D01*
X859836D01*
X858694Y248865D01*
X857932Y248103D01*
Y247342D01*
X858313Y246580D01*
X858694Y246199D01*
X859456Y245818D01*
X861741Y245056D01*
X862502Y244675D01*
X862883Y244295D01*
X863264Y243533D01*
Y242390D01*
X862502Y241629D01*
X861360Y241248D01*
X859836D01*
X858694Y241629D01*
X857932Y242390D01*
X871148Y241248D02*
X868101Y249246D01*
X865054Y241248D01*
X866197Y243914D02*
X870006D01*
X878728Y247342D02*
X878347Y248103D01*
X877585Y248865D01*
X876823Y249246D01*
X875300D01*
X874538Y248865D01*
X873776Y248103D01*
X873395Y247342D01*
X873015Y246199D01*
Y244295D01*
X873395Y243152D01*
X873776Y242390D01*
X874538Y241629D01*
X875300Y241248D01*
X876823D01*
X877585Y241629D01*
X878347Y242390D01*
X878728Y243152D01*
Y244295D01*
X876823D02*
X878728D01*
X885507Y249246D02*
X880556D01*
Y241248D01*
X885507D01*
X880556Y245437D02*
X883603D01*
D55*
X868976Y-118264D02*
X870642D01*
X869809D01*
Y-113265D01*
X868976Y-114099D01*
X873142Y-114931D02*
X873975D01*
Y-115765D01*
X873142D01*
Y-114931D01*
Y-117431D02*
X873975D01*
Y-118264D01*
X873142D01*
Y-117431D01*
X877307Y-118264D02*
X878973D01*
X878140D01*
Y-113265D01*
X877307Y-114099D01*
X930476Y-40365D02*
Y-47364D01*
Y-40365D02*
X932809D01*
X933809Y-40699D01*
X934476Y-41365D01*
X934809Y-42032D01*
X935142Y-43031D01*
Y-44698D01*
X934809Y-45698D01*
X934476Y-46364D01*
X933809Y-47030D01*
X932809Y-47364D01*
X930476D01*
X935475Y169968D02*
X935142Y170635D01*
X934476Y171301D01*
X933809Y171635D01*
X932476D01*
X931809Y171301D01*
X931143Y170635D01*
X930810Y169968D01*
X930476Y168969D01*
Y167302D01*
X930810Y166303D01*
X931143Y165636D01*
X931809Y164970D01*
X932476Y164636D01*
X933809D01*
X934476Y164970D01*
X935142Y165636D01*
X935475Y166303D01*
X930476Y384135D02*
Y377136D01*
Y384135D02*
X933476D01*
X934476Y383802D01*
X934809Y383468D01*
X935142Y382802D01*
Y382135D01*
X934809Y381469D01*
X934476Y381135D01*
X933476Y380802D01*
X930476D02*
X933476D01*
X934476Y380469D01*
X934809Y380136D01*
X935142Y379469D01*
Y378469D01*
X934809Y377803D01*
X934476Y377469D01*
X933476Y377136D01*
X930476D01*
X935809Y589636D02*
X933142Y596635D01*
X930476Y589636D01*
X931476Y591969D02*
X934809D01*
X806110Y698435D02*
X802777Y693769D01*
X807776D01*
X806110Y698435D02*
Y691436D01*
X528343Y698435D02*
X532009D01*
X530009Y695769D01*
X531009D01*
X531675Y695435D01*
X532009Y695102D01*
X532342Y694102D01*
Y693436D01*
X532009Y692436D01*
X531342Y691770D01*
X530342Y691436D01*
X529343D01*
X528343Y691770D01*
X528010Y692103D01*
X527676Y692769D01*
X253510Y696768D02*
Y697102D01*
X253843Y697768D01*
X254176Y698102D01*
X254843Y698435D01*
X256176D01*
X256842Y698102D01*
X257175Y697768D01*
X257509Y697102D01*
Y696435D01*
X257175Y695769D01*
X256509Y694769D01*
X253176Y691436D01*
X257842D01*
X-21890Y697102D02*
X-21223Y697435D01*
X-20224Y698435D01*
Y691436D01*
X806110Y-131565D02*
X802777Y-136231D01*
X807776D01*
X806110Y-131565D02*
Y-138564D01*
X528343Y-131565D02*
X532009D01*
X530009Y-134231D01*
X531009D01*
X531675Y-134565D01*
X532009Y-134898D01*
X532342Y-135898D01*
Y-136564D01*
X532009Y-137564D01*
X531342Y-138231D01*
X530342Y-138564D01*
X529343D01*
X528343Y-138231D01*
X528010Y-137897D01*
X527676Y-137231D01*
X253510Y-133232D02*
Y-132898D01*
X253843Y-132232D01*
X254176Y-131898D01*
X254843Y-131565D01*
X256176D01*
X256842Y-131898D01*
X257175Y-132232D01*
X257509Y-132898D01*
Y-133565D01*
X257175Y-134231D01*
X256509Y-135231D01*
X253176Y-138564D01*
X257842D01*
X-21890Y-132898D02*
X-21223Y-132565D01*
X-20224Y-131565D01*
Y-138564D01*
X-149524Y-40365D02*
Y-47364D01*
Y-40365D02*
X-147191D01*
X-146191Y-40699D01*
X-145525Y-41365D01*
X-145191Y-42032D01*
X-144858Y-43031D01*
Y-44698D01*
X-145191Y-45698D01*
X-145525Y-46364D01*
X-146191Y-47030D01*
X-147191Y-47364D01*
X-149524D01*
X-144525Y169968D02*
X-144858Y170635D01*
X-145525Y171301D01*
X-146191Y171635D01*
X-147524D01*
X-148191Y171301D01*
X-148857Y170635D01*
X-149190Y169968D01*
X-149524Y168969D01*
Y167302D01*
X-149190Y166303D01*
X-148857Y165636D01*
X-148191Y164970D01*
X-147524Y164636D01*
X-146191D01*
X-145525Y164970D01*
X-144858Y165636D01*
X-144525Y166303D01*
X-149524Y384135D02*
Y377136D01*
Y384135D02*
X-146524D01*
X-145525Y383802D01*
X-145191Y383468D01*
X-144858Y382802D01*
Y382135D01*
X-145191Y381469D01*
X-145525Y381135D01*
X-146524Y380802D01*
X-149524D02*
X-146524D01*
X-145525Y380469D01*
X-145191Y380136D01*
X-144858Y379469D01*
Y378469D01*
X-145191Y377803D01*
X-145525Y377469D01*
X-146524Y377136D01*
X-149524D01*
X-144191Y589636D02*
X-146858Y596635D01*
X-149524Y589636D01*
X-148524Y591969D02*
X-145191D01*
D56*
X341471Y-67478D02*
D03*
D03*
D57*
X417921Y-59178D02*
D03*
D03*
D58*
X419471Y-61178D02*
D03*
X418871Y-79478D02*
D03*
X419471Y-61178D02*
D03*
X418871Y-79478D02*
D03*
D59*
X412321Y-69828D02*
D03*
D03*
D60*
X363421Y-78778D02*
D03*
D03*
D61*
X437771Y-77478D02*
D03*
X462071Y-74478D02*
D03*
X463071Y-65178D02*
D03*
X366171Y-57478D02*
D03*
X373171Y-64478D02*
D03*
X462071Y-65178D02*
D03*
X437771Y-77478D02*
D03*
X462071Y-74478D02*
D03*
X463071Y-65178D02*
D03*
X366171Y-57478D02*
D03*
X373171Y-64478D02*
D03*
X462071Y-65178D02*
D03*
D62*
X439921Y-77178D02*
D03*
X463221Y-74478D02*
D03*
X450921Y-57478D02*
D03*
X361021D02*
D03*
X463921Y-74478D02*
D03*
X439921Y-77178D02*
D03*
X463221Y-74478D02*
D03*
X450921Y-57478D02*
D03*
X361021D02*
D03*
X463921Y-74478D02*
D03*
D63*
X455771Y-84189D02*
D03*
D03*
D64*
X461421Y-80128D02*
D03*
X393821Y-76828D02*
D03*
X461421Y-80128D02*
D03*
X393821Y-76828D02*
D03*
D65*
X462721Y-74478D02*
D03*
X461721D02*
D03*
X463421Y-65178D02*
D03*
X462421D02*
D03*
X461721D02*
D03*
X366521Y-57478D02*
D03*
X463721Y-65178D02*
D03*
X462721D02*
D03*
X462421Y-74478D02*
D03*
X462721D02*
D03*
X461721D02*
D03*
X463421Y-65178D02*
D03*
X462421D02*
D03*
X461721D02*
D03*
X366521Y-57478D02*
D03*
X463721Y-65178D02*
D03*
X462721D02*
D03*
X462421Y-74478D02*
D03*
D66*
X379671Y-81827D02*
D03*
D03*
D67*
X401621Y-81823D02*
D03*
D03*
D68*
X415171Y-81827D02*
D03*
D03*
D69*
X448571Y-54478D02*
D03*
D03*
D70*
X448421Y-54828D02*
D03*
X387521Y-76828D02*
D03*
X448421Y-54828D02*
D03*
X387521Y-76828D02*
D03*
D71*
X448421Y-55178D02*
D03*
X455121Y-56178D02*
D03*
X448421Y-55178D02*
D03*
X455121Y-56178D02*
D03*
D72*
X455171Y-55378D02*
D03*
D03*
D73*
X448521Y-55478D02*
D03*
X442221Y-57478D02*
D03*
X448521Y-55478D02*
D03*
X442221Y-57478D02*
D03*
D74*
X455421Y-55778D02*
D03*
D03*
D75*
X448471Y-55828D02*
D03*
X442471Y-57828D02*
D03*
X448471Y-55828D02*
D03*
X442471Y-57828D02*
D03*
D76*
X448721Y-56228D02*
D03*
X438121Y-77228D02*
D03*
X448721Y-56228D02*
D03*
X438121Y-77228D02*
D03*
D77*
X455071Y-56478D02*
D03*
X448771Y-57178D02*
D03*
X455071Y-56478D02*
D03*
X448771Y-57178D02*
D03*
D78*
X448721Y-56428D02*
D03*
D03*
D79*
X454871Y-56878D02*
D03*
D03*
D80*
X448771Y-57278D02*
D03*
D03*
D81*
X442121Y-56828D02*
D03*
D03*
D82*
X454921Y-57178D02*
D03*
X454621Y-57478D02*
D03*
X442621Y-58178D02*
D03*
X454921Y-57178D02*
D03*
X454621Y-57478D02*
D03*
X442621Y-58178D02*
D03*
D83*
X442121Y-57178D02*
D03*
D03*
D84*
X448771Y-57478D02*
D03*
D03*
D85*
X363671D02*
D03*
D03*
D86*
X451621Y-57828D02*
D03*
X390621Y-58828D02*
D03*
X439621Y-68828D02*
D03*
X427621Y-75828D02*
D03*
X451621Y-57828D02*
D03*
X390621Y-58828D02*
D03*
X427621Y-75828D02*
D03*
D87*
X415271Y-57828D02*
D03*
D03*
D88*
X390821D02*
D03*
X457421Y-64828D02*
D03*
X459721Y-67828D02*
D03*
X354221Y-73828D02*
D03*
X326521D02*
D03*
X390821Y-57828D02*
D03*
X457421Y-64828D02*
D03*
X459721Y-67828D02*
D03*
X354221Y-73828D02*
D03*
D89*
X363771Y-57828D02*
D03*
X390671Y-59828D02*
D03*
X426271Y-62828D02*
D03*
X460271Y-66828D02*
D03*
X355871Y-75828D02*
D03*
X363771Y-57828D02*
D03*
X390671Y-59828D02*
D03*
X426271Y-62828D02*
D03*
X460271Y-66828D02*
D03*
X355871Y-75828D02*
D03*
X451271Y-81528D02*
D03*
D90*
X318571Y-57828D02*
D03*
D03*
D91*
X451121Y-58178D02*
D03*
X390821Y-60178D02*
D03*
X460121Y-66478D02*
D03*
Y-73178D02*
D03*
X426421Y-76478D02*
D03*
X451121Y-58178D02*
D03*
X390821Y-60178D02*
D03*
X460121Y-66478D02*
D03*
Y-73178D02*
D03*
X426421Y-76478D02*
D03*
D92*
X416271Y-58178D02*
D03*
D03*
D93*
X390721D02*
D03*
X427021Y-63178D02*
D03*
X326121Y-73178D02*
D03*
X390721Y-58178D02*
D03*
X427021Y-63178D02*
D03*
X326121Y-73178D02*
D03*
D94*
X363671Y-58178D02*
D03*
X357671Y-62478D02*
D03*
X363671Y-58178D02*
D03*
X357671Y-62478D02*
D03*
D95*
X319171Y-58178D02*
D03*
D03*
D96*
X450671Y-58528D02*
D03*
D03*
D97*
X442721Y-58478D02*
D03*
D03*
D98*
X416971D02*
D03*
X449571Y-79478D02*
D03*
X449271Y-79778D02*
D03*
X416671Y-81478D02*
D03*
X416971Y-58478D02*
D03*
X449571Y-79478D02*
D03*
X449271Y-79778D02*
D03*
X416671Y-81478D02*
D03*
D99*
X390821Y-58478D02*
D03*
D03*
D100*
X364021D02*
D03*
D03*
D101*
X319621Y-58528D02*
D03*
X319921Y-71128D02*
D03*
X319621Y-58528D02*
D03*
X319921Y-71128D02*
D03*
D102*
X448671Y-58828D02*
D03*
D03*
D103*
X417571D02*
D03*
D03*
D104*
X364171D02*
D03*
D03*
D105*
X320021Y-58878D02*
D03*
X320321Y-71878D02*
D03*
X320021Y-58878D02*
D03*
X320321Y-71878D02*
D03*
D106*
X460871Y-59228D02*
D03*
D03*
D107*
X448771Y-59178D02*
D03*
X363971Y-80878D02*
D03*
X448771Y-59178D02*
D03*
X363871Y-80778D02*
D03*
D108*
X390621Y-59178D02*
D03*
D03*
D109*
X364371D02*
D03*
D110*
X320271Y-59228D02*
D03*
D03*
D111*
X460821Y-59528D02*
D03*
D03*
D112*
X449121Y-59478D02*
D03*
D03*
D113*
X418371D02*
D03*
X363971Y-79778D02*
D03*
X418371Y-59478D02*
D03*
X363971Y-79778D02*
D03*
D114*
X390821Y-59478D02*
D03*
X427121Y-76178D02*
D03*
X390821Y-59478D02*
D03*
X427121Y-76178D02*
D03*
D115*
X364021Y-59478D02*
D03*
D03*
D116*
X320421Y-59428D02*
D03*
X364221Y-80128D02*
D03*
X320421Y-59428D02*
D03*
X364221Y-80128D02*
D03*
D117*
X460471Y-59828D02*
D03*
D118*
X449321D02*
D03*
D119*
X418471D02*
D03*
D03*
D120*
X363721D02*
D03*
D03*
D121*
X320771Y-59878D02*
D03*
X321671Y-68378D02*
D03*
X320771Y-59878D02*
D03*
X321671Y-68378D02*
D03*
D122*
X460321Y-60228D02*
D03*
D03*
D123*
X449771Y-60178D02*
D03*
D03*
D124*
X418771D02*
D03*
D03*
D125*
X363521D02*
D03*
X321221Y-61178D02*
D03*
X363521Y-60178D02*
D03*
X321221Y-61178D02*
D03*
D126*
X320871Y-60178D02*
D03*
X321171Y-69178D02*
D03*
X418171Y-80478D02*
D03*
X320871Y-60178D02*
D03*
X321171Y-69178D02*
D03*
X418171Y-80478D02*
D03*
D127*
X451921Y-60478D02*
D03*
X450621Y-62178D02*
D03*
Y-62478D02*
D03*
X363021Y-78178D02*
D03*
X451921Y-60478D02*
D03*
X450621Y-62178D02*
D03*
Y-62478D02*
D03*
X363021Y-78178D02*
D03*
D128*
X418921Y-60478D02*
D03*
D03*
D129*
X390671D02*
D03*
X459571Y-65478D02*
D03*
X459871Y-73478D02*
D03*
X442271Y-75178D02*
D03*
X356371Y-76178D02*
D03*
X390671Y-60478D02*
D03*
X459871Y-73478D02*
D03*
X442271Y-75178D02*
D03*
X356371Y-76178D02*
D03*
D130*
X363371Y-60478D02*
D03*
D03*
D131*
X320971D02*
D03*
D03*
D132*
X451721Y-60828D02*
D03*
X419121D02*
D03*
X451721D02*
D03*
X419121D02*
D03*
D133*
X390821D02*
D03*
X459721Y-73828D02*
D03*
X390821Y-60828D02*
D03*
X459721Y-73828D02*
D03*
D134*
X363121Y-60828D02*
D03*
D03*
D135*
X321121D02*
D03*
D03*
D136*
X451571Y-61178D02*
D03*
X451271Y-61478D02*
D03*
Y-78178D02*
D03*
X451571Y-61178D02*
D03*
X451271Y-61478D02*
D03*
Y-78178D02*
D03*
D137*
X390721Y-61178D02*
D03*
D03*
D138*
X362971D02*
D03*
X419071Y-79078D02*
D03*
X362971Y-61178D02*
D03*
X419171Y-79178D02*
D03*
D139*
X419471Y-61478D02*
D03*
D03*
D140*
X390621D02*
D03*
D03*
D141*
X362821D02*
D03*
X419721Y-78478D02*
D03*
X419421Y-78778D02*
D03*
X362821Y-61478D02*
D03*
X419721Y-78478D02*
D03*
X419421Y-78778D02*
D03*
D142*
X321271Y-61478D02*
D03*
D03*
D143*
X450921Y-61828D02*
D03*
X450621Y-77228D02*
D03*
X450921Y-61828D02*
D03*
X450621Y-77228D02*
D03*
D144*
X437271Y-61828D02*
D03*
D03*
D145*
X419571D02*
D03*
D03*
D146*
X390821D02*
D03*
D03*
D147*
X362721D02*
D03*
X390621Y-72828D02*
D03*
X362721Y-61828D02*
D03*
D148*
X321421D02*
D03*
D03*
D149*
X437871Y-62228D02*
D03*
D03*
D150*
X419721Y-62178D02*
D03*
X362521D02*
D03*
X390821Y-73178D02*
D03*
X419721Y-62178D02*
D03*
X362521D02*
D03*
X390821Y-73178D02*
D03*
D151*
X390671Y-62178D02*
D03*
X442571Y-75478D02*
D03*
X390671Y-62178D02*
D03*
X442571Y-75478D02*
D03*
D152*
X321471Y-62178D02*
D03*
D03*
D153*
X438271Y-62478D02*
D03*
X442271Y-81478D02*
D03*
X438271Y-62478D02*
D03*
X442271Y-81478D02*
D03*
D154*
X424621Y-62478D02*
D03*
D03*
D155*
X390821D02*
D03*
X357521Y-76478D02*
D03*
X390821Y-62478D02*
D03*
X357521Y-76478D02*
D03*
D156*
X370421Y-62528D02*
D03*
D03*
D157*
X326721Y-62478D02*
D03*
X355721Y-63478D02*
D03*
X326721Y-62478D02*
D03*
X355721Y-63478D02*
D03*
D158*
X448371Y-62828D02*
D03*
X390771Y-75828D02*
D03*
X448371Y-62828D02*
D03*
X390771Y-75828D02*
D03*
D159*
X390671Y-62828D02*
D03*
X425271Y-76828D02*
D03*
X390671Y-62828D02*
D03*
X425271Y-76828D02*
D03*
D160*
X371321Y-62878D02*
D03*
D03*
D161*
X356771Y-62828D02*
D03*
D03*
D162*
X327371D02*
D03*
D03*
D163*
X448421Y-63178D02*
D03*
Y-76178D02*
D03*
Y-63178D02*
D03*
Y-76178D02*
D03*
D164*
X390821Y-63178D02*
D03*
D03*
D165*
X371771D02*
D03*
D03*
D166*
X356071D02*
D03*
X442271Y-64478D02*
D03*
X460271Y-67178D02*
D03*
X451271Y-81478D02*
D03*
X356071Y-63178D02*
D03*
X442271Y-64478D02*
D03*
X460271Y-67178D02*
D03*
D167*
X327721Y-63178D02*
D03*
X369321Y-76478D02*
D03*
X328721Y-77478D02*
D03*
X329721Y-79778D02*
D03*
X369321Y-76478D02*
D03*
X328721Y-77478D02*
D03*
X329721Y-79778D02*
D03*
D168*
X448521Y-63478D02*
D03*
X390721Y-76178D02*
D03*
X448521Y-63478D02*
D03*
X390721Y-76178D02*
D03*
D169*
X427421Y-63478D02*
D03*
X442121Y-65178D02*
D03*
X354221Y-65478D02*
D03*
Y-74178D02*
D03*
X326921D02*
D03*
X354521Y-74478D02*
D03*
X327521Y-75178D02*
D03*
X328521Y-77178D02*
D03*
X329221Y-78478D02*
D03*
X427421Y-63478D02*
D03*
X442121Y-65178D02*
D03*
X354221Y-65478D02*
D03*
Y-74178D02*
D03*
X326921D02*
D03*
X327521Y-75178D02*
D03*
X328521Y-77178D02*
D03*
X329221Y-78478D02*
D03*
D170*
X390621Y-63478D02*
D03*
D03*
D171*
X372271Y-63578D02*
D03*
D03*
D172*
X327971Y-63478D02*
D03*
X457671Y-65178D02*
D03*
X428671Y-74478D02*
D03*
X327971Y-63478D02*
D03*
X457671Y-65178D02*
D03*
X428671Y-74478D02*
D03*
D173*
X455771Y-63828D02*
D03*
D03*
D174*
X443071D02*
D03*
D03*
D175*
X427771D02*
D03*
X326371Y-73528D02*
D03*
X427771Y-63828D02*
D03*
X326371Y-73528D02*
D03*
D176*
X390821Y-63828D02*
D03*
D03*
D177*
X372721D02*
D03*
X460621Y-80128D02*
D03*
X372721Y-63828D02*
D03*
X460621Y-80128D02*
D03*
D178*
X355371Y-63828D02*
D03*
D03*
D179*
X328021D02*
D03*
X327721Y-67428D02*
D03*
X442021Y-74228D02*
D03*
X328021Y-63828D02*
D03*
X327721Y-67428D02*
D03*
X442021Y-74228D02*
D03*
D180*
X456521Y-64128D02*
D03*
X442121Y-64828D02*
D03*
X456521Y-64128D02*
D03*
X442121Y-64828D02*
D03*
D181*
X442471Y-64178D02*
D03*
X363871Y-81478D02*
D03*
X442471Y-64178D02*
D03*
X363971Y-81578D02*
D03*
D182*
X427971Y-64178D02*
D03*
X428271Y-64478D02*
D03*
X354071Y-66178D02*
D03*
X353671Y-66478D02*
D03*
Y-73178D02*
D03*
X457571Y-74478D02*
D03*
X328071Y-76178D02*
D03*
X329571Y-79478D02*
D03*
X330071Y-80778D02*
D03*
X330371Y-81478D02*
D03*
X427971Y-64178D02*
D03*
X428271Y-64478D02*
D03*
X354071Y-66178D02*
D03*
X353671Y-66478D02*
D03*
Y-73178D02*
D03*
X457571Y-74478D02*
D03*
X328071Y-76178D02*
D03*
X330071Y-80778D02*
D03*
X330371Y-81478D02*
D03*
D183*
X390771Y-64178D02*
D03*
D03*
D184*
X372821D02*
D03*
D03*
D185*
X355171D02*
D03*
X354871Y-64478D02*
D03*
X460071Y-67478D02*
D03*
X442071Y-74478D02*
D03*
X355171Y-64178D02*
D03*
X354871Y-64478D02*
D03*
X460071Y-67478D02*
D03*
X442071Y-74478D02*
D03*
D186*
X328171Y-64178D02*
D03*
X428771Y-65478D02*
D03*
X429171Y-66478D02*
D03*
X327871Y-67178D02*
D03*
X459471Y-68178D02*
D03*
X381171Y-78478D02*
D03*
X380771Y-79478D02*
D03*
X401471Y-81478D02*
D03*
X328171Y-64178D02*
D03*
X428771Y-65478D02*
D03*
X429171Y-66478D02*
D03*
X327871Y-67178D02*
D03*
X459471Y-68178D02*
D03*
X381171Y-78478D02*
D03*
X380771Y-79478D02*
D03*
X401471Y-81478D02*
D03*
D187*
X457071Y-64478D02*
D03*
X428171Y-75178D02*
D03*
X457071Y-64478D02*
D03*
X428171Y-75178D02*
D03*
D188*
X394321Y-64478D02*
D03*
X440921Y-71478D02*
D03*
X394321Y-64478D02*
D03*
X440921Y-71478D02*
D03*
D189*
X387171Y-64478D02*
D03*
X386871Y-65178D02*
D03*
Y-65478D02*
D03*
X441771Y-66178D02*
D03*
X395171D02*
D03*
X386471D02*
D03*
X395171Y-66478D02*
D03*
X386171D02*
D03*
X395471Y-67178D02*
D03*
X385871Y-67478D02*
D03*
X385471Y-68178D02*
D03*
X396171Y-68478D02*
D03*
X385471D02*
D03*
X396471Y-69178D02*
D03*
X385171D02*
D03*
X396471Y-69478D02*
D03*
X384871Y-70178D02*
D03*
X384471Y-70478D02*
D03*
X459371Y-71178D02*
D03*
X397171D02*
D03*
X384171Y-71478D02*
D03*
X441771Y-73178D02*
D03*
X387171Y-64478D02*
D03*
X386871Y-65178D02*
D03*
Y-65478D02*
D03*
X441771Y-66178D02*
D03*
X395171D02*
D03*
X386471D02*
D03*
X395171Y-66478D02*
D03*
X386171D02*
D03*
X395471Y-67178D02*
D03*
X385871Y-67478D02*
D03*
X385471Y-68178D02*
D03*
X396171Y-68478D02*
D03*
X385471D02*
D03*
X396471Y-69178D02*
D03*
X385171D02*
D03*
X396471Y-69478D02*
D03*
X384871Y-70178D02*
D03*
X384471Y-70478D02*
D03*
X459371Y-71178D02*
D03*
X397171D02*
D03*
X384171Y-71478D02*
D03*
X441771Y-73178D02*
D03*
D190*
X328221Y-64478D02*
D03*
X442121Y-65478D02*
D03*
X353521Y-67178D02*
D03*
Y-67478D02*
D03*
X353221Y-68478D02*
D03*
Y-69478D02*
D03*
Y-70178D02*
D03*
Y-70478D02*
D03*
X440421Y-71178D02*
D03*
X353221D02*
D03*
X459421Y-71478D02*
D03*
X353221D02*
D03*
X353521Y-72178D02*
D03*
Y-72478D02*
D03*
X429121Y-73478D02*
D03*
X428821Y-74178D02*
D03*
X400821Y-79778D02*
D03*
X401121Y-80478D02*
D03*
X328221Y-64478D02*
D03*
X442121Y-65478D02*
D03*
X353521Y-67178D02*
D03*
Y-67478D02*
D03*
X353221Y-68478D02*
D03*
Y-69478D02*
D03*
Y-70178D02*
D03*
Y-70478D02*
D03*
X440421Y-71178D02*
D03*
X353221D02*
D03*
X459421Y-71478D02*
D03*
X353221D02*
D03*
X353521Y-72178D02*
D03*
Y-72478D02*
D03*
X429121Y-73478D02*
D03*
X428821Y-74178D02*
D03*
X400821Y-79778D02*
D03*
X401121Y-80478D02*
D03*
D191*
X428421Y-64828D02*
D03*
X328221D02*
D03*
X353221Y-68828D02*
D03*
X428421Y-64828D02*
D03*
X328221D02*
D03*
X353221Y-68828D02*
D03*
D192*
X394471Y-64828D02*
D03*
X386471Y-65828D02*
D03*
X395471Y-66828D02*
D03*
X386171D02*
D03*
X396171Y-68828D02*
D03*
X384871Y-69828D02*
D03*
X397171Y-70828D02*
D03*
X384471D02*
D03*
X397471Y-71828D02*
D03*
X394471Y-64828D02*
D03*
X386471Y-65828D02*
D03*
X395471Y-66828D02*
D03*
X386171D02*
D03*
X396171Y-68828D02*
D03*
X384871Y-69828D02*
D03*
X397171Y-70828D02*
D03*
X384471D02*
D03*
X397471Y-71828D02*
D03*
D193*
X387021Y-64828D02*
D03*
X441621Y-72828D02*
D03*
X387021Y-64828D02*
D03*
X441621Y-72828D02*
D03*
D194*
X354721Y-64828D02*
D03*
X325821Y-72828D02*
D03*
X354721Y-64828D02*
D03*
X325821Y-72828D02*
D03*
D195*
X428521Y-65178D02*
D03*
X328321D02*
D03*
X353321Y-69178D02*
D03*
X429221Y-73178D02*
D03*
X400021Y-78178D02*
D03*
X428521Y-65178D02*
D03*
X328321D02*
D03*
X353321Y-69178D02*
D03*
X429221Y-73178D02*
D03*
X400021Y-78178D02*
D03*
D196*
X394671Y-65178D02*
D03*
X441271Y-67178D02*
D03*
Y-67478D02*
D03*
X395671D02*
D03*
X441271Y-72178D02*
D03*
X394671Y-65178D02*
D03*
X441271Y-67178D02*
D03*
Y-67478D02*
D03*
X395671D02*
D03*
X441271Y-72178D02*
D03*
D197*
X354371Y-65178D02*
D03*
X427971Y-75478D02*
D03*
X354371Y-65178D02*
D03*
X427971Y-75478D02*
D03*
D198*
X394821Y-65478D02*
D03*
X395821Y-68178D02*
D03*
X396821Y-70178D02*
D03*
Y-70478D02*
D03*
X397821Y-72478D02*
D03*
X394821Y-65478D02*
D03*
X395821Y-68178D02*
D03*
X396821Y-70178D02*
D03*
Y-70478D02*
D03*
X397821Y-72478D02*
D03*
D199*
X328371Y-65478D02*
D03*
X440571Y-68178D02*
D03*
X429571D02*
D03*
X353371D02*
D03*
X429471Y-72178D02*
D03*
X429371Y-72478D02*
D03*
X383671D02*
D03*
X381671Y-77178D02*
D03*
Y-77478D02*
D03*
X380671Y-79778D02*
D03*
X380071Y-80778D02*
D03*
X328371Y-65478D02*
D03*
X440571Y-68178D02*
D03*
X429571D02*
D03*
X353371D02*
D03*
X429471Y-72178D02*
D03*
X429371Y-72478D02*
D03*
X383671D02*
D03*
X381671Y-77178D02*
D03*
Y-77478D02*
D03*
X380671Y-79778D02*
D03*
X380071Y-80778D02*
D03*
D200*
X459871Y-65828D02*
D03*
D03*
D201*
X442021D02*
D03*
X328321D02*
D03*
X429721Y-69828D02*
D03*
X396521D02*
D03*
X442021Y-73828D02*
D03*
Y-65828D02*
D03*
X328321D02*
D03*
X429721Y-69828D02*
D03*
X396521D02*
D03*
X442021Y-73828D02*
D03*
D202*
X428921Y-65828D02*
D03*
X429321Y-66828D02*
D03*
X429621Y-68828D02*
D03*
Y-70828D02*
D03*
X400621Y-79128D02*
D03*
X380021Y-81128D02*
D03*
X428921Y-65828D02*
D03*
X429321Y-66828D02*
D03*
X429621Y-68828D02*
D03*
Y-70828D02*
D03*
X400621Y-79128D02*
D03*
X380021Y-81128D02*
D03*
D203*
X394971Y-65828D02*
D03*
D03*
D204*
X354071D02*
D03*
X353671Y-66828D02*
D03*
Y-72828D02*
D03*
X329371Y-79128D02*
D03*
X354071Y-65828D02*
D03*
X353671Y-66828D02*
D03*
Y-72828D02*
D03*
X329371Y-79128D02*
D03*
D205*
X459971Y-66178D02*
D03*
D03*
D206*
X428971D02*
D03*
X328071D02*
D03*
X429371Y-67478D02*
D03*
X429671Y-70178D02*
D03*
Y-70478D02*
D03*
X441871Y-73478D02*
D03*
X428971Y-66178D02*
D03*
X429371Y-67478D02*
D03*
X429671Y-70178D02*
D03*
Y-70478D02*
D03*
X441871Y-73478D02*
D03*
D207*
X441671Y-66478D02*
D03*
D03*
D208*
X328021D02*
D03*
X429321Y-67178D02*
D03*
X429621Y-68478D02*
D03*
Y-69178D02*
D03*
Y-69478D02*
D03*
X385021D02*
D03*
X429621Y-71178D02*
D03*
X384321D02*
D03*
X429621Y-71478D02*
D03*
X397321D02*
D03*
X397621Y-72178D02*
D03*
X384021D02*
D03*
X399621Y-77178D02*
D03*
X399921Y-77478D02*
D03*
X381321Y-78178D02*
D03*
X400321Y-78478D02*
D03*
Y-78778D02*
D03*
X381021D02*
D03*
X400621Y-79478D02*
D03*
X380321Y-80478D02*
D03*
X401321Y-80778D02*
D03*
X328021Y-66478D02*
D03*
X429321Y-67178D02*
D03*
X429621Y-68478D02*
D03*
Y-69178D02*
D03*
Y-69478D02*
D03*
X385021D02*
D03*
X429621Y-71178D02*
D03*
X384321D02*
D03*
X429621Y-71478D02*
D03*
X397321D02*
D03*
X397621Y-72178D02*
D03*
X384021D02*
D03*
X399621Y-77178D02*
D03*
X399921Y-77478D02*
D03*
X381321Y-78178D02*
D03*
X400321Y-78478D02*
D03*
Y-78778D02*
D03*
X381021D02*
D03*
X400621Y-79478D02*
D03*
X380321Y-80478D02*
D03*
X401321Y-80778D02*
D03*
D209*
X441521Y-66828D02*
D03*
X395821Y-67828D02*
D03*
X441521Y-66828D02*
D03*
X395821Y-67828D02*
D03*
D210*
X327971Y-66828D02*
D03*
X429571Y-67828D02*
D03*
X385671D02*
D03*
X353371D02*
D03*
X429471Y-71828D02*
D03*
X429371Y-72828D02*
D03*
X399971Y-77828D02*
D03*
X400971Y-80128D02*
D03*
X327971Y-66828D02*
D03*
X429571Y-67828D02*
D03*
X385671D02*
D03*
X353371D02*
D03*
X429471Y-71828D02*
D03*
X429371Y-72828D02*
D03*
X399971Y-77828D02*
D03*
X400971Y-80128D02*
D03*
D211*
X386121Y-67178D02*
D03*
D03*
D212*
X441121Y-67828D02*
D03*
X459121Y-68828D02*
D03*
Y-70828D02*
D03*
X441121Y-67828D02*
D03*
X459121Y-68828D02*
D03*
Y-70828D02*
D03*
D213*
X327321Y-67828D02*
D03*
X457221Y-74828D02*
D03*
X428521D02*
D03*
X328121Y-76428D02*
D03*
X328421Y-76828D02*
D03*
X329821Y-80128D02*
D03*
X457221Y-74828D02*
D03*
X428521D02*
D03*
X328421Y-76828D02*
D03*
X329821Y-80128D02*
D03*
D214*
X325571Y-68178D02*
D03*
D03*
D215*
X459171Y-68478D02*
D03*
Y-69178D02*
D03*
Y-69478D02*
D03*
Y-70178D02*
D03*
Y-70478D02*
D03*
Y-68478D02*
D03*
Y-69178D02*
D03*
Y-69478D02*
D03*
Y-70178D02*
D03*
Y-70478D02*
D03*
D216*
X439921Y-68478D02*
D03*
X456721Y-75178D02*
D03*
X439921Y-68478D02*
D03*
X456721Y-75178D02*
D03*
D217*
X385371Y-68828D02*
D03*
X384071Y-71828D02*
D03*
X385371Y-68828D02*
D03*
X384071Y-71828D02*
D03*
D218*
X368821Y-70978D02*
D03*
D03*
D219*
X321221Y-68828D02*
D03*
D03*
D220*
X439271Y-69178D02*
D03*
Y-70178D02*
D03*
X456271Y-75478D02*
D03*
X439271Y-69178D02*
D03*
Y-70178D02*
D03*
X456271Y-75478D02*
D03*
D221*
X439371Y-69478D02*
D03*
X439571Y-70478D02*
D03*
X439371Y-69478D02*
D03*
D222*
X320971D02*
D03*
D03*
D223*
X459171Y-69828D02*
D03*
D03*
D224*
X439321D02*
D03*
D03*
D225*
X353171D02*
D03*
X353471Y-71828D02*
D03*
X429071Y-73828D02*
D03*
X353171Y-69828D02*
D03*
X353471Y-71828D02*
D03*
X429071Y-73828D02*
D03*
D226*
X320671Y-69828D02*
D03*
D03*
D227*
X320571Y-70228D02*
D03*
D03*
D228*
X320221Y-70478D02*
D03*
D03*
D229*
X439771Y-70828D02*
D03*
X354871Y-74828D02*
D03*
X439771Y-70828D02*
D03*
X354871Y-74828D02*
D03*
D230*
X353321Y-70828D02*
D03*
X381421Y-77828D02*
D03*
X380421Y-80128D02*
D03*
X401421Y-81128D02*
D03*
X353321Y-70828D02*
D03*
X381421Y-77828D02*
D03*
X380421Y-80128D02*
D03*
X401421Y-81128D02*
D03*
D231*
X320071Y-70878D02*
D03*
D03*
D232*
X319921Y-71528D02*
D03*
D03*
D233*
X459771Y-71778D02*
D03*
D03*
D234*
X441221Y-71828D02*
D03*
D03*
D235*
X460021Y-72178D02*
D03*
X355121Y-75178D02*
D03*
X460021Y-72178D02*
D03*
X355121Y-75178D02*
D03*
D236*
X320521Y-72178D02*
D03*
D03*
D237*
X460071Y-72478D02*
D03*
X355471Y-75478D02*
D03*
X460071Y-72478D02*
D03*
X355471Y-75478D02*
D03*
D238*
X441500Y-72478D02*
D03*
D239*
X325371Y-72578D02*
D03*
D03*
D240*
X460221Y-72828D02*
D03*
D03*
D241*
X390671Y-73478D02*
D03*
X420271Y-77178D02*
D03*
X390671Y-73478D02*
D03*
X420271Y-77178D02*
D03*
D242*
X370521Y-76828D02*
D03*
D03*
D243*
X354021Y-73478D02*
D03*
X327121Y-74478D02*
D03*
X327821Y-75478D02*
D03*
X329121Y-78178D02*
D03*
X329221Y-78778D02*
D03*
X354021Y-73478D02*
D03*
X327121Y-74478D02*
D03*
X327821Y-75478D02*
D03*
X329121Y-78178D02*
D03*
X329221Y-78778D02*
D03*
D244*
X390821Y-73828D02*
D03*
D03*
D245*
X459421Y-74178D02*
D03*
D03*
D246*
X390671D02*
D03*
D03*
D247*
X390821Y-74478D02*
D03*
D03*
D248*
X442121Y-74828D02*
D03*
D03*
D249*
X390621D02*
D03*
D03*
D250*
X327371D02*
D03*
X327871Y-75828D02*
D03*
X387871Y-76828D02*
D03*
X327371Y-74828D02*
D03*
X327871Y-75828D02*
D03*
X387871Y-76828D02*
D03*
D251*
X390721Y-75178D02*
D03*
D03*
D252*
X390771Y-75578D02*
D03*
D03*
D253*
X448521Y-75828D02*
D03*
D03*
D254*
X448371Y-76528D02*
D03*
X448571Y-76828D02*
D03*
X448371Y-76528D02*
D03*
X448571Y-76828D02*
D03*
D255*
X390671Y-76478D02*
D03*
D03*
D256*
X398821Y-76828D02*
D03*
D03*
D257*
X392871D02*
D03*
X389471D02*
D03*
X392871D02*
D03*
X389471D02*
D03*
D258*
X382171D02*
D03*
D03*
D259*
X362421D02*
D03*
D03*
D260*
X362471Y-77178D02*
D03*
D03*
D261*
X450821Y-77478D02*
D03*
D03*
D262*
X437271D02*
D03*
D03*
D263*
X420021D02*
D03*
D03*
D264*
X362621Y-77528D02*
D03*
D03*
D265*
X451071Y-77828D02*
D03*
D266*
X419971D02*
D03*
D03*
D267*
X362871D02*
D03*
D03*
D268*
X328821Y-77928D02*
D03*
D269*
X419821Y-78178D02*
D03*
D03*
D270*
X451471Y-78428D02*
D03*
D03*
D271*
X363221Y-78478D02*
D03*
X451721Y-78778D02*
D03*
X363221Y-78478D02*
D03*
X451721Y-78778D02*
D03*
D272*
Y-79178D02*
D03*
D03*
D273*
X380921D02*
D03*
D03*
D274*
X363471Y-79128D02*
D03*
X418471Y-80128D02*
D03*
X363471Y-79128D02*
D03*
X418471Y-80128D02*
D03*
D275*
X460421Y-79478D02*
D03*
D03*
D276*
X363671D02*
D03*
D03*
D277*
X460571Y-79778D02*
D03*
D278*
X418621D02*
D03*
D03*
D279*
X448971Y-80128D02*
D03*
D03*
D280*
X460971Y-80478D02*
D03*
D03*
D281*
X448621D02*
D03*
D03*
D282*
X364171D02*
D03*
D03*
D283*
X329971D02*
D03*
D03*
D284*
X448621Y-80828D02*
D03*
D03*
D285*
X417821Y-80778D02*
D03*
D03*
D286*
X450771Y-81128D02*
D03*
D03*
D287*
X442621D02*
D03*
D03*
D288*
X417471D02*
D03*
D03*
D289*
X364021D02*
D03*
D03*
D290*
X330221Y-81178D02*
D03*
D03*
D291*
X379771Y-81543D02*
D03*
D03*
D292*
X314721Y-69628D02*
D03*
D03*
D293*
X454421Y-81827D02*
D03*
D03*
D294*
X449621D02*
D03*
D03*
D295*
X442071D02*
D03*
D03*
D296*
X364321Y-81707D02*
D03*
D03*
D297*
X454621Y-82191D02*
D03*
X448621D02*
D03*
Y-82524D02*
D03*
X454621Y-82191D02*
D03*
X448621D02*
D03*
Y-82524D02*
D03*
D298*
X441971Y-82191D02*
D03*
X448271Y-84522D02*
D03*
X441971Y-82191D02*
D03*
X448271Y-84522D02*
D03*
D299*
X454721Y-82524D02*
D03*
D03*
D300*
X441971D02*
D03*
D03*
D301*
X454821Y-82858D02*
D03*
D03*
D302*
X448471Y-82895D02*
D03*
D03*
D303*
X454921Y-83191D02*
D03*
D03*
D304*
X448471D02*
D03*
D03*
D305*
X455121Y-83523D02*
D03*
D03*
D306*
X448471D02*
D03*
D03*
D307*
X455171Y-83856D02*
D03*
D03*
D308*
X448521D02*
D03*
D03*
D309*
X454921Y-84236D02*
D03*
D03*
D310*
X448421Y-84189D02*
D03*
D03*
D311*
X448271Y-84924D02*
D03*
D03*
D312*
X364317Y-59178D02*
D03*
D313*
X460562Y-59828D02*
D03*
D314*
X449498D02*
D03*
D315*
X327804Y-63178D02*
D03*
D316*
X459688Y-65478D02*
D03*
D317*
X328154Y-66178D02*
D03*
D318*
X327224Y-67828D02*
D03*
D319*
X439579Y-68828D02*
D03*
D320*
X439530Y-70478D02*
D03*
D321*
X441451Y-72478D02*
D03*
D322*
X390697Y-72828D02*
D03*
D323*
X326612Y-73828D02*
D03*
D324*
X354457Y-74478D02*
D03*
D325*
X328151Y-76428D02*
D03*
D326*
X451032Y-77828D02*
D03*
D327*
X328895Y-77928D02*
D03*
D328*
X329571Y-79544D02*
D03*
D329*
X460571Y-79842D02*
D03*
D387*
X845876Y409200D02*
Y553200D01*
X733908Y529200D02*
X845876D01*
X733908Y517200D02*
X845876D01*
X733908Y505200D02*
X845876D01*
X733908Y493200D02*
X845876D01*
X733908Y481200D02*
X845876D01*
X733908Y469200D02*
X845876D01*
X733908Y457200D02*
X845876D01*
X733908Y445200D02*
X845876D01*
X733908Y433200D02*
X845876D01*
X733908Y421200D02*
X845876D01*
X733908Y409200D02*
X845876D01*
X733908D02*
Y553200D01*
X676922Y529200D02*
X733908D01*
X676922Y517200D02*
X733908D01*
X676922Y505200D02*
X733908D01*
X676922Y493200D02*
X733908D01*
X676922Y481200D02*
X733908D01*
X676922Y469200D02*
X733908D01*
X676922Y457200D02*
X733908D01*
X676922Y445200D02*
X733908D01*
X676922Y433200D02*
X733908D01*
X676922Y421200D02*
X733908D01*
X676922Y409200D02*
X733908D01*
X676922D02*
Y553200D01*
X611938Y529200D02*
X676922D01*
X611938Y517200D02*
X676922D01*
X611938Y505200D02*
X676922D01*
X611938Y493200D02*
X676922D01*
X611938Y481200D02*
X676922D01*
X611938Y469200D02*
X676922D01*
X611938Y457200D02*
X676922D01*
X611938Y445200D02*
X676922D01*
X611938Y433200D02*
X676922D01*
X611938Y421200D02*
X676922D01*
X611938Y409200D02*
X676922D01*
X611938D02*
Y553200D01*
X485974Y529200D02*
X611938D01*
X485974Y517200D02*
X611938D01*
X485974Y505200D02*
X611938D01*
X485974Y493200D02*
X611938D01*
X485974Y481200D02*
X611938D01*
X485974Y469200D02*
X611938D01*
X485974Y457200D02*
X611938D01*
X485974Y445200D02*
X611938D01*
X485974Y433200D02*
X611938D01*
X485974Y421200D02*
X611938D01*
X485974Y409200D02*
X611938D01*
X485974D02*
Y553200D01*
X393000Y529200D02*
X485974D01*
X393000Y517200D02*
X485974D01*
X393000Y505200D02*
X485974D01*
X393000Y493200D02*
X485974D01*
X393000Y481200D02*
X485974D01*
X393000Y469200D02*
X485974D01*
X393000Y457200D02*
X485974D01*
X393000Y445200D02*
X485974D01*
X393000Y433200D02*
X485974D01*
X393000Y421200D02*
X485974D01*
X393000Y409200D02*
X485974D01*
X393000D02*
Y553200D01*
X352009Y529200D02*
X393000D01*
X352009Y517200D02*
X393000D01*
X352009Y505200D02*
X393000D01*
X352009Y493200D02*
X393000D01*
X352009Y481200D02*
X393000D01*
X352009Y469200D02*
X393000D01*
X352009Y457200D02*
X393000D01*
X352009Y445200D02*
X393000D01*
X352009Y433200D02*
X393000D01*
X352009Y421200D02*
X393000D01*
X352009Y409200D02*
X393000D01*
X352009D02*
Y553200D01*
X845876D01*
X352009Y541200D02*
X845876D01*
D388*
X733908Y537232D02*
X737876Y541200D01*
X733908Y531232D02*
X743876Y541200D01*
X737876Y529200D02*
X749876Y541200D01*
X743876Y529200D02*
X755876Y541200D01*
X749876Y529200D02*
X761876Y541200D01*
X755876Y529200D02*
X767876Y541200D01*
X761876Y529200D02*
X773876Y541200D01*
X767876Y529200D02*
X779876Y541200D01*
X773876Y529200D02*
X785876Y541200D01*
X779876Y529200D02*
X791876Y541200D01*
X785876Y529200D02*
X797876Y541200D01*
X791876Y529200D02*
X803876Y541200D01*
X797876Y529200D02*
X809876Y541200D01*
X803876Y529200D02*
X815876Y541200D01*
X809876Y529200D02*
X821876Y541200D01*
X815876Y529200D02*
X827876Y541200D01*
X821876Y529200D02*
X833876Y541200D01*
X827876Y529200D02*
X839876Y541200D01*
X833876Y529200D02*
X845876Y541200D01*
X839876Y529200D02*
X845876Y535200D01*
X733908Y525232D02*
X737876Y529200D01*
X733908Y519232D02*
X743876Y529200D01*
X737876Y517200D02*
X749876Y529200D01*
X743876Y517200D02*
X755876Y529200D01*
X749876Y517200D02*
X761876Y529200D01*
X755876Y517200D02*
X767876Y529200D01*
X761876Y517200D02*
X773876Y529200D01*
X767876Y517200D02*
X779876Y529200D01*
X773876Y517200D02*
X785876Y529200D01*
X779876Y517200D02*
X791876Y529200D01*
X785876Y517200D02*
X797876Y529200D01*
X791876Y517200D02*
X803876Y529200D01*
X797876Y517200D02*
X809876Y529200D01*
X803876Y517200D02*
X815876Y529200D01*
X809876Y517200D02*
X821876Y529200D01*
X815876Y517200D02*
X827876Y529200D01*
X821876Y517200D02*
X833876Y529200D01*
X827876Y517200D02*
X839876Y529200D01*
X833876Y517200D02*
X845876Y529200D01*
X839876Y517200D02*
X845876Y523200D01*
X733908Y513232D02*
X737876Y517200D01*
X733908Y507232D02*
X743876Y517200D01*
X737876Y505200D02*
X749876Y517200D01*
X743876Y505200D02*
X755876Y517200D01*
X749876Y505200D02*
X761876Y517200D01*
X755876Y505200D02*
X767876Y517200D01*
X761876Y505200D02*
X773876Y517200D01*
X767876Y505200D02*
X779876Y517200D01*
X773876Y505200D02*
X785876Y517200D01*
X779876Y505200D02*
X791876Y517200D01*
X785876Y505200D02*
X797876Y517200D01*
X791876Y505200D02*
X803876Y517200D01*
X797876Y505200D02*
X809876Y517200D01*
X803876Y505200D02*
X815876Y517200D01*
X809876Y505200D02*
X821876Y517200D01*
X815876Y505200D02*
X827876Y517200D01*
X821876Y505200D02*
X833876Y517200D01*
X827876Y505200D02*
X839876Y517200D01*
X833876Y505200D02*
X845876Y517200D01*
X839876Y505200D02*
X845876Y511200D01*
X733908Y501232D02*
X737876Y505200D01*
X733908Y495232D02*
X743876Y505200D01*
X737876Y493200D02*
X749876Y505200D01*
X743876Y493200D02*
X755876Y505200D01*
X749876Y493200D02*
X761876Y505200D01*
X755876Y493200D02*
X767876Y505200D01*
X761876Y493200D02*
X773876Y505200D01*
X767876Y493200D02*
X779876Y505200D01*
X773876Y493200D02*
X785876Y505200D01*
X779876Y493200D02*
X791876Y505200D01*
X785876Y493200D02*
X797876Y505200D01*
X791876Y493200D02*
X803876Y505200D01*
X797876Y493200D02*
X809876Y505200D01*
X803876Y493200D02*
X815876Y505200D01*
X809876Y493200D02*
X821876Y505200D01*
X815876Y493200D02*
X827876Y505200D01*
X821876Y493200D02*
X833876Y505200D01*
X827876Y493200D02*
X839876Y505200D01*
X833876Y493200D02*
X845876Y505200D01*
X839876Y493200D02*
X845876Y499200D01*
X733908Y489232D02*
X737876Y493200D01*
X733908Y483232D02*
X743876Y493200D01*
X737876Y481200D02*
X749876Y493200D01*
X743876Y481200D02*
X755876Y493200D01*
X749876Y481200D02*
X761876Y493200D01*
X755876Y481200D02*
X767876Y493200D01*
X761876Y481200D02*
X773876Y493200D01*
X767876Y481200D02*
X779876Y493200D01*
X773876Y481200D02*
X785876Y493200D01*
X779876Y481200D02*
X791876Y493200D01*
X785876Y481200D02*
X797876Y493200D01*
X791876Y481200D02*
X803876Y493200D01*
X797876Y481200D02*
X809876Y493200D01*
X803876Y481200D02*
X815876Y493200D01*
X809876Y481200D02*
X821876Y493200D01*
X815876Y481200D02*
X827876Y493200D01*
X821876Y481200D02*
X833876Y493200D01*
X827876Y481200D02*
X839876Y493200D01*
X833876Y481200D02*
X845876Y493200D01*
X839876Y481200D02*
X845876Y487200D01*
X733908Y477232D02*
X737876Y481200D01*
X733908Y471232D02*
X743876Y481200D01*
X737876Y469200D02*
X749876Y481200D01*
X743876Y469200D02*
X755876Y481200D01*
X749876Y469200D02*
X761876Y481200D01*
X755876Y469200D02*
X767876Y481200D01*
X761876Y469200D02*
X773876Y481200D01*
X767876Y469200D02*
X779876Y481200D01*
X773876Y469200D02*
X785876Y481200D01*
X779876Y469200D02*
X791876Y481200D01*
X785876Y469200D02*
X797876Y481200D01*
X791876Y469200D02*
X803876Y481200D01*
X797876Y469200D02*
X809876Y481200D01*
X803876Y469200D02*
X815876Y481200D01*
X809876Y469200D02*
X821876Y481200D01*
X815876Y469200D02*
X827876Y481200D01*
X821876Y469200D02*
X833876Y481200D01*
X827876Y469200D02*
X839876Y481200D01*
X833876Y469200D02*
X845876Y481200D01*
X839876Y469200D02*
X845876Y475200D01*
X733908Y465232D02*
X737876Y469200D01*
X733908Y459232D02*
X743876Y469200D01*
X737876Y457200D02*
X749876Y469200D01*
X743876Y457200D02*
X755876Y469200D01*
X749876Y457200D02*
X761876Y469200D01*
X755876Y457200D02*
X767876Y469200D01*
X761876Y457200D02*
X773876Y469200D01*
X767876Y457200D02*
X779876Y469200D01*
X773876Y457200D02*
X785876Y469200D01*
X779876Y457200D02*
X791876Y469200D01*
X785876Y457200D02*
X797876Y469200D01*
X791876Y457200D02*
X803876Y469200D01*
X797876Y457200D02*
X809876Y469200D01*
X803876Y457200D02*
X815876Y469200D01*
X809876Y457200D02*
X821876Y469200D01*
X815876Y457200D02*
X827876Y469200D01*
X821876Y457200D02*
X833876Y469200D01*
X827876Y457200D02*
X839876Y469200D01*
X833876Y457200D02*
X845876Y469200D01*
X839876Y457200D02*
X845876Y463200D01*
X733908Y453232D02*
X737876Y457200D01*
X733908Y447232D02*
X743876Y457200D01*
X737876Y445200D02*
X749876Y457200D01*
X743876Y445200D02*
X755876Y457200D01*
X749876Y445200D02*
X761876Y457200D01*
X755876Y445200D02*
X767876Y457200D01*
X761876Y445200D02*
X773876Y457200D01*
X767876Y445200D02*
X779876Y457200D01*
X773876Y445200D02*
X785876Y457200D01*
X779876Y445200D02*
X791876Y457200D01*
X785876Y445200D02*
X797876Y457200D01*
X791876Y445200D02*
X803876Y457200D01*
X797876Y445200D02*
X809876Y457200D01*
X803876Y445200D02*
X815876Y457200D01*
X809876Y445200D02*
X821876Y457200D01*
X815876Y445200D02*
X827876Y457200D01*
X821876Y445200D02*
X833876Y457200D01*
X827876Y445200D02*
X839876Y457200D01*
X833876Y445200D02*
X845876Y457200D01*
X839876Y445200D02*
X845876Y451200D01*
X733908Y441232D02*
X737876Y445200D01*
X733908Y435232D02*
X743876Y445200D01*
X737876Y433200D02*
X749876Y445200D01*
X743876Y433200D02*
X755876Y445200D01*
X749876Y433200D02*
X761876Y445200D01*
X755876Y433200D02*
X767876Y445200D01*
X761876Y433200D02*
X773876Y445200D01*
X767876Y433200D02*
X779876Y445200D01*
X773876Y433200D02*
X785876Y445200D01*
X779876Y433200D02*
X791876Y445200D01*
X785876Y433200D02*
X797876Y445200D01*
X791876Y433200D02*
X803876Y445200D01*
X797876Y433200D02*
X809876Y445200D01*
X803876Y433200D02*
X815876Y445200D01*
X809876Y433200D02*
X821876Y445200D01*
X815876Y433200D02*
X827876Y445200D01*
X821876Y433200D02*
X833876Y445200D01*
X827876Y433200D02*
X839876Y445200D01*
X833876Y433200D02*
X845876Y445200D01*
X839876Y433200D02*
X845876Y439200D01*
X733908Y429232D02*
X737876Y433200D01*
X733908Y423232D02*
X743876Y433200D01*
X737876Y421200D02*
X749876Y433200D01*
X743876Y421200D02*
X755876Y433200D01*
X749876Y421200D02*
X761876Y433200D01*
X755876Y421200D02*
X767876Y433200D01*
X761876Y421200D02*
X773876Y433200D01*
X767876Y421200D02*
X779876Y433200D01*
X773876Y421200D02*
X785876Y433200D01*
X779876Y421200D02*
X791876Y433200D01*
X785876Y421200D02*
X797876Y433200D01*
X791876Y421200D02*
X803876Y433200D01*
X797876Y421200D02*
X809876Y433200D01*
X803876Y421200D02*
X815876Y433200D01*
X809876Y421200D02*
X821876Y433200D01*
X815876Y421200D02*
X827876Y433200D01*
X821876Y421200D02*
X833876Y433200D01*
X827876Y421200D02*
X839876Y433200D01*
X833876Y421200D02*
X845876Y433200D01*
X839876Y421200D02*
X845876Y427200D01*
X733908Y417232D02*
X737876Y421200D01*
X733908Y411232D02*
X743876Y421200D01*
X737876Y409200D02*
X749876Y421200D01*
X743876Y409200D02*
X755876Y421200D01*
X749876Y409200D02*
X761876Y421200D01*
X755876Y409200D02*
X767876Y421200D01*
X761876Y409200D02*
X773876Y421200D01*
X767876Y409200D02*
X779876Y421200D01*
X773876Y409200D02*
X785876Y421200D01*
X779876Y409200D02*
X791876Y421200D01*
X785876Y409200D02*
X797876Y421200D01*
X791876Y409200D02*
X803876Y421200D01*
X797876Y409200D02*
X809876Y421200D01*
X803876Y409200D02*
X815876Y421200D01*
X809876Y409200D02*
X821876Y421200D01*
X815876Y409200D02*
X827876Y421200D01*
X821876Y409200D02*
X833876Y421200D01*
X827876Y409200D02*
X839876Y421200D01*
X833876Y409200D02*
X845876Y421200D01*
X839876Y409200D02*
X845876Y415200D01*
M02*
