G04 Layer_Physical_Order=2*
G04 Layer_Color=36540*
%FSLAX25Y25*%
%MOIN*%
G70*
G01*
G75*
%ADD13C,0.03937*%
%ADD46C,0.01000*%
%ADD50C,0.00787*%
%ADD51C,0.00500*%
%ADD52R,0.19000X0.09500*%
%ADD53C,0.00200*%
%ADD54C,0.01180*%
%ADD55C,0.00700*%
%ADD56R,0.02000X0.07500*%
%ADD57R,0.17300X0.00300*%
%ADD58R,0.20400X0.00300*%
%ADD59R,0.07400X0.24300*%
%ADD60R,0.19900X0.00500*%
%ADD61R,0.00400X0.00300*%
%ADD62R,0.00700X0.00300*%
%ADD63R,0.00400X0.00333*%
%ADD64R,0.00300X0.00400*%
%ADD65R,0.00300X0.00300*%
%ADD66R,0.07400X0.00397*%
%ADD67R,0.07500X0.00390*%
%ADD68R,0.13000X0.00397*%
%ADD69R,0.01400X0.00300*%
%ADD70R,0.02300X0.00400*%
%ADD71R,0.02300X0.00300*%
%ADD72R,0.01600X0.00500*%
%ADD73R,0.02500X0.00300*%
%ADD74R,0.02300X0.00500*%
%ADD75R,0.03000X0.00400*%
%ADD76R,0.02900X0.00400*%
%ADD77R,0.03000X0.00300*%
%ADD78R,0.03100X0.00400*%
%ADD79R,0.02800X0.00500*%
%ADD80R,0.03600X0.01300*%
%ADD81R,0.00900X0.00400*%
%ADD82R,0.03300X0.00300*%
%ADD83R,0.01700X0.00300*%
%ADD84R,0.03600X0.00300*%
%ADD85R,0.04600X0.00300*%
%ADD86R,0.09300X0.00400*%
%ADD87R,0.12800X0.00400*%
%ADD88R,0.08300X0.00400*%
%ADD89R,0.10000X0.00400*%
%ADD90R,0.14400X0.00400*%
%ADD91R,0.10300X0.00300*%
%ADD92R,0.14800X0.00300*%
%ADD93R,0.08500X0.00300*%
%ADD94R,0.12600X0.00300*%
%ADD95R,0.15800X0.00300*%
%ADD96R,0.11200X0.00400*%
%ADD97R,0.03500X0.00300*%
%ADD98R,0.16000X0.00300*%
%ADD99R,0.08900X0.00300*%
%ADD100R,0.14700X0.00300*%
%ADD101R,0.16700X0.00400*%
%ADD102R,0.15200X0.00400*%
%ADD103R,0.16800X0.00400*%
%ADD104R,0.17000X0.00400*%
%ADD105R,0.17500X0.00500*%
%ADD106R,0.01200X0.00400*%
%ADD107R,0.15000X0.00300*%
%ADD108R,0.09300X0.00300*%
%ADD109R,0.18000X0.00300*%
%ADD110R,0.17800X0.00400*%
%ADD111R,0.01700X0.00400*%
%ADD112R,0.15700X0.00300*%
%ADD113R,0.18600X0.00300*%
%ADD114R,0.09700X0.00300*%
%ADD115R,0.18700X0.00300*%
%ADD116R,0.18300X0.00400*%
%ADD117R,0.02800X0.00600*%
%ADD118R,0.15700X0.00400*%
%ADD119R,0.19000X0.00400*%
%ADD120R,0.19300X0.00400*%
%ADD121R,0.18800X0.00500*%
%ADD122R,0.03900X0.00400*%
%ADD123R,0.16400X0.00300*%
%ADD124R,0.19600X0.00300*%
%ADD125R,0.19700X0.00300*%
%ADD126R,0.19000X0.00300*%
%ADD127R,0.20700X0.00300*%
%ADD128R,0.20100X0.00300*%
%ADD129R,0.10600X0.00300*%
%ADD130R,0.20000X0.00300*%
%ADD131R,0.19400X0.00300*%
%ADD132R,0.20300X0.00400*%
%ADD133R,0.10900X0.00400*%
%ADD134R,0.20500X0.00400*%
%ADD135R,0.19500X0.00400*%
%ADD136R,0.20600X0.00300*%
%ADD137R,0.11100X0.00300*%
%ADD138R,0.20800X0.00300*%
%ADD139R,0.21000X0.00300*%
%ADD140R,0.11300X0.00300*%
%ADD141R,0.21100X0.00300*%
%ADD142R,0.19800X0.00300*%
%ADD143R,0.20700X0.00400*%
%ADD144R,0.00600X0.00400*%
%ADD145R,0.21400X0.00400*%
%ADD146R,0.11700X0.00400*%
%ADD147R,0.21300X0.00400*%
%ADD148R,0.20100X0.00400*%
%ADD149R,0.02200X0.00400*%
%ADD150R,0.21700X0.00300*%
%ADD151R,0.12000X0.00300*%
%ADD152R,0.20200X0.00300*%
%ADD153R,0.03400X0.00300*%
%ADD154R,0.12700X0.00300*%
%ADD155R,0.12300X0.00300*%
%ADD156R,0.05900X0.00400*%
%ADD157R,0.09900X0.00300*%
%ADD158R,0.24200X0.00400*%
%ADD159R,0.12600X0.00400*%
%ADD160R,0.04100X0.00500*%
%ADD161R,0.10800X0.00400*%
%ADD162R,0.08600X0.00400*%
%ADD163R,0.24300X0.00300*%
%ADD164R,0.12900X0.00300*%
%ADD165R,0.03200X0.00300*%
%ADD166R,0.10000X0.00300*%
%ADD167R,0.07900X0.00300*%
%ADD168R,0.24500X0.00300*%
%ADD169R,0.08300X0.00300*%
%ADD170R,0.13300X0.00300*%
%ADD171R,0.02200X0.00500*%
%ADD172R,0.07800X0.00300*%
%ADD173R,0.10400X0.00400*%
%ADD174R,0.13000X0.00400*%
%ADD175R,0.08400X0.00400*%
%ADD176R,0.13700X0.00400*%
%ADD177R,0.01300X0.00400*%
%ADD178R,0.09400X0.00400*%
%ADD179R,0.07900X0.00400*%
%ADD180R,0.09100X0.00400*%
%ADD181R,0.11000X0.00300*%
%ADD182R,0.08000X0.00300*%
%ADD183R,0.13800X0.00300*%
%ADD184R,0.01100X0.00300*%
%ADD185R,0.09000X0.00300*%
%ADD186R,0.07600X0.00300*%
%ADD187R,0.08400X0.00300*%
%ADD188R,0.06700X0.00300*%
%ADD189R,0.07000X0.00300*%
%ADD190R,0.07700X0.00300*%
%ADD191R,0.07700X0.00400*%
%ADD192R,0.07000X0.00400*%
%ADD193R,0.06700X0.00400*%
%ADD194R,0.08700X0.00400*%
%ADD195R,0.07500X0.00300*%
%ADD196R,0.06600X0.00300*%
%ADD197R,0.08600X0.00300*%
%ADD198R,0.06900X0.00300*%
%ADD199R,0.07400X0.00300*%
%ADD200R,0.10600X0.00400*%
%ADD201R,0.07100X0.00400*%
%ADD202R,0.07300X0.00400*%
%ADD203R,0.06600X0.00400*%
%ADD204R,0.08000X0.00400*%
%ADD205R,0.10400X0.00300*%
%ADD206R,0.07200X0.00300*%
%ADD207R,0.06800X0.00300*%
%ADD208R,0.07300X0.00300*%
%ADD209R,0.06900X0.00400*%
%ADD210R,0.07400X0.00400*%
%ADD211R,0.07100X0.00300*%
%ADD212R,0.06300X0.00400*%
%ADD213R,0.08100X0.00400*%
%ADD214R,0.11600X0.00300*%
%ADD215R,0.06400X0.00300*%
%ADD216R,0.08700X0.00300*%
%ADD217R,0.07200X0.00400*%
%ADD218R,0.09700X0.04700*%
%ADD219R,0.18900X0.00600*%
%ADD220R,0.09400X0.00300*%
%ADD221R,0.09200X0.00300*%
%ADD222R,0.18800X0.00300*%
%ADD223R,0.06400X0.00400*%
%ADD224R,0.09500X0.00400*%
%ADD225R,0.07800X0.00400*%
%ADD226R,0.18800X0.00400*%
%ADD227R,0.18200X0.00400*%
%ADD228R,0.17700X0.00300*%
%ADD229R,0.09000X0.00400*%
%ADD230R,0.07500X0.00400*%
%ADD231R,0.17200X0.00500*%
%ADD232R,0.16900X0.00600*%
%ADD233R,0.08400X0.00500*%
%ADD234R,0.06500X0.00400*%
%ADD235R,0.09100X0.00300*%
%ADD236R,0.17900X0.00300*%
%ADD237R,0.09600X0.00300*%
%ADD238R,0.06658X0.00300*%
%ADD239R,0.08800X0.00500*%
%ADD240R,0.10100X0.00400*%
%ADD241R,0.22000X0.00300*%
%ADD242R,0.06300X0.07000*%
%ADD243R,0.08100X0.00300*%
%ADD244R,0.22300X0.00400*%
%ADD245R,0.10900X0.00300*%
%ADD246R,0.22600X0.00300*%
%ADD247R,0.22900X0.00300*%
%ADD248R,0.09700X0.00400*%
%ADD249R,0.23300X0.00400*%
%ADD250R,0.08200X0.00400*%
%ADD251R,0.23500X0.00300*%
%ADD252R,0.23800X0.00500*%
%ADD253R,0.24500X0.00400*%
%ADD254R,0.24000X0.00400*%
%ADD255R,0.24600X0.00300*%
%ADD256R,0.08900X0.00400*%
%ADD257R,0.01000X0.00400*%
%ADD258R,0.07600X0.00400*%
%ADD259R,0.21700X0.00400*%
%ADD260R,0.21600X0.00300*%
%ADD261R,0.20500X0.00300*%
%ADD262R,0.00600X0.00300*%
%ADD263R,0.21900X0.00300*%
%ADD264R,0.21100X0.00400*%
%ADD265R,0.20400X0.00400*%
%ADD266R,0.22000X0.00400*%
%ADD267R,0.21000X0.00400*%
%ADD268R,0.07900X0.00600*%
%ADD269R,0.21500X0.00300*%
%ADD270R,0.20200X0.00400*%
%ADD271R,0.20300X0.00300*%
%ADD272R,0.20300X0.00500*%
%ADD273R,0.07500X0.00500*%
%ADD274R,0.19600X0.00400*%
%ADD275R,0.03700X0.00300*%
%ADD276R,0.19200X0.00300*%
%ADD277R,0.02600X0.00300*%
%ADD278R,0.19900X0.00300*%
%ADD279R,0.15400X0.00400*%
%ADD280R,0.00800X0.00300*%
%ADD281R,0.15300X0.00300*%
%ADD282R,0.17000X0.00300*%
%ADD283R,0.08200X0.00300*%
%ADD284R,0.15300X0.00400*%
%ADD285R,0.18300X0.00300*%
%ADD286R,0.11000X0.00400*%
%ADD287R,0.03300X0.00400*%
%ADD288R,0.17600X0.00400*%
%ADD289R,0.13300X0.00400*%
%ADD290R,0.07900X0.00500*%
%ADD291R,0.07400X0.00430*%
%ADD292R,0.07300X0.24000*%
%ADD293R,0.03700X0.00397*%
%ADD294R,0.05300X0.00397*%
%ADD295R,0.03000X0.00397*%
%ADD296R,0.06700X0.00356*%
%ADD297R,0.03300X0.00333*%
%ADD298R,0.02000X0.00333*%
%ADD299R,0.03100X0.00333*%
%ADD300R,0.01200X0.00333*%
%ADD301R,0.02900X0.00333*%
%ADD302R,0.03000X0.00408*%
%ADD303R,0.02700X0.00333*%
%ADD304R,0.03000X0.00333*%
%ADD305R,0.02300X0.00333*%
%ADD306R,0.03000X0.00333*%
%ADD307R,0.02200X0.00333*%
%ADD308R,0.02500X0.00333*%
%ADD309R,0.01300X0.00426*%
%ADD310R,0.02300X0.00333*%
%ADD311R,0.02000X0.00469*%
%ADD312R,0.18109X0.00300*%
%ADD313R,0.02983X0.00600*%
%ADD314R,0.16055X0.00400*%
%ADD315R,0.08066X0.00300*%
%ADD316R,0.10834X0.00300*%
%ADD317R,0.07366X0.00300*%
%ADD318R,0.08294X0.00400*%
%ADD319R,0.09383X0.00400*%
%ADD320R,0.09283X0.00300*%
%ADD321R,0.06560X0.00300*%
%ADD322R,0.21453X0.00400*%
%ADD323R,0.08482X0.00400*%
%ADD324R,0.08428X0.00300*%
%ADD325R,0.08160X0.00400*%
%ADD326R,0.20477X0.00400*%
%ADD327R,0.08049X0.00600*%
%ADD328R,0.08000X0.00432*%
%ADD329R,0.02600X0.00427*%
%ADD330C,0.07400*%
%ADD331R,0.07400X0.07400*%
%ADD332O,0.09055X0.05118*%
%ADD333C,0.12598*%
%ADD334C,0.02000*%
G36*
X326654Y121831D02*
X326634Y121811D01*
X326634D01*
Y83228D01*
X326654D01*
Y2039D01*
X5845D01*
X2039Y5845D01*
Y74273D01*
X2639Y74477D01*
X3133Y73833D01*
X4031Y73144D01*
X5077Y72711D01*
X5900Y72602D01*
Y76900D01*
Y81198D01*
X5077Y81089D01*
X4031Y80656D01*
X3133Y79967D01*
X2639Y79323D01*
X2039Y79527D01*
Y82600D01*
X10500D01*
Y91200D01*
X2039D01*
Y99374D01*
X2577Y99640D01*
X2600Y99622D01*
X3368Y99304D01*
X4193Y99196D01*
X8130D01*
X8955Y99304D01*
X9723Y99622D01*
X10383Y100129D01*
X10889Y100789D01*
X11208Y101557D01*
X11316Y102382D01*
X11208Y103207D01*
X10889Y103975D01*
X10383Y104635D01*
X9723Y105141D01*
X8955Y105460D01*
X8130Y105568D01*
X4193D01*
X3368Y105460D01*
X2600Y105141D01*
X2577Y105124D01*
X2039Y105389D01*
Y125357D01*
X2577Y125622D01*
X2598Y125607D01*
X3366Y125288D01*
X4191Y125180D01*
X8128D01*
X8953Y125288D01*
X9721Y125607D01*
X10381Y126113D01*
X10887Y126773D01*
X11206Y127541D01*
X11314Y128366D01*
X11206Y129191D01*
X10887Y129959D01*
X10381Y130619D01*
X9721Y131126D01*
X8953Y131444D01*
X8128Y131553D01*
X4191D01*
X3366Y131444D01*
X2598Y131126D01*
X2577Y131110D01*
X2039Y131375D01*
Y214155D01*
X5845Y217961D01*
X326654D01*
Y121831D01*
D02*
G37*
G36*
X345861Y-71286D02*
X346192Y-71507D01*
X346413Y-71838D01*
X346491Y-72228D01*
X346471D01*
X346491Y-80728D01*
X346413Y-81119D01*
X346192Y-81449D01*
X345861Y-81670D01*
X345471Y-81748D01*
Y-81728D01*
X337471Y-81748D01*
X337081Y-81670D01*
X336750Y-81449D01*
X336529Y-81119D01*
X336451Y-80728D01*
X336471D01*
X336451Y-72228D01*
X336529Y-71838D01*
X336750Y-71507D01*
X337081Y-71286D01*
X337471Y-71209D01*
Y-71228D01*
X345471Y-71209D01*
X345861Y-71286D01*
D02*
G37*
%LPC*%
G36*
X300000Y206631D02*
X299376Y206507D01*
X298847Y206153D01*
X298493Y205624D01*
X298369Y205000D01*
X298493Y204376D01*
X298847Y203847D01*
X299376Y203493D01*
X300000Y203369D01*
X300624Y203493D01*
X301153Y203847D01*
X301507Y204376D01*
X301631Y205000D01*
X301507Y205624D01*
X301153Y206153D01*
X300624Y206507D01*
X300000Y206631D01*
D02*
G37*
G36*
X290000D02*
X289376Y206507D01*
X288846Y206153D01*
X288493Y205624D01*
X288369Y205000D01*
X288493Y204376D01*
X288846Y203847D01*
X289376Y203493D01*
X290000Y203369D01*
X290624Y203493D01*
X291154Y203847D01*
X291507Y204376D01*
X291631Y205000D01*
X291507Y205624D01*
X291154Y206153D01*
X290624Y206507D01*
X290000Y206631D01*
D02*
G37*
G36*
X180000D02*
X179376Y206507D01*
X178847Y206153D01*
X178493Y205624D01*
X178369Y205000D01*
X178493Y204376D01*
X178847Y203847D01*
X179376Y203493D01*
X180000Y203369D01*
X180624Y203493D01*
X181154Y203847D01*
X181507Y204376D01*
X181631Y205000D01*
X181507Y205624D01*
X181154Y206153D01*
X180624Y206507D01*
X180000Y206631D01*
D02*
G37*
G36*
X160000D02*
X159376Y206507D01*
X158846Y206153D01*
X158493Y205624D01*
X158369Y205000D01*
X158493Y204376D01*
X158846Y203847D01*
X159376Y203493D01*
X160000Y203369D01*
X160624Y203493D01*
X161153Y203847D01*
X161507Y204376D01*
X161631Y205000D01*
X161507Y205624D01*
X161153Y206153D01*
X160624Y206507D01*
X160000Y206631D01*
D02*
G37*
G36*
X140000D02*
X139376Y206507D01*
X138847Y206153D01*
X138493Y205624D01*
X138369Y205000D01*
X138493Y204376D01*
X138847Y203847D01*
X139376Y203493D01*
X140000Y203369D01*
X140624Y203493D01*
X141154Y203847D01*
X141507Y204376D01*
X141631Y205000D01*
X141507Y205624D01*
X141154Y206153D01*
X140624Y206507D01*
X140000Y206631D01*
D02*
G37*
G36*
X104000D02*
X103376Y206507D01*
X102847Y206153D01*
X102493Y205624D01*
X102369Y205000D01*
X102493Y204376D01*
X102847Y203847D01*
X103376Y203493D01*
X104000Y203369D01*
X104624Y203493D01*
X105154Y203847D01*
X105507Y204376D01*
X105631Y205000D01*
X105507Y205624D01*
X105154Y206153D01*
X104624Y206507D01*
X104000Y206631D01*
D02*
G37*
G36*
X94000D02*
X93376Y206507D01*
X92847Y206153D01*
X92493Y205624D01*
X92369Y205000D01*
X92493Y204376D01*
X92847Y203847D01*
X93376Y203493D01*
X94000Y203369D01*
X94624Y203493D01*
X95153Y203847D01*
X95507Y204376D01*
X95631Y205000D01*
X95507Y205624D01*
X95153Y206153D01*
X94624Y206507D01*
X94000Y206631D01*
D02*
G37*
G36*
X310000Y206631D02*
X309376Y206507D01*
X308846Y206153D01*
X308493Y205624D01*
X308369Y205000D01*
X308493Y204376D01*
X308846Y203847D01*
X309376Y203493D01*
X310000Y203369D01*
X310624Y203493D01*
X311154Y203847D01*
X311507Y204376D01*
X311631Y205000D01*
X311507Y205624D01*
X311154Y206153D01*
X310624Y206507D01*
X310000Y206631D01*
D02*
G37*
G36*
X280000D02*
X279376Y206507D01*
X278847Y206153D01*
X278493Y205624D01*
X278369Y205000D01*
X278493Y204376D01*
X278847Y203847D01*
X279376Y203493D01*
X280000Y203369D01*
X280624Y203493D01*
X281153Y203847D01*
X281507Y204376D01*
X281631Y205000D01*
X281507Y205624D01*
X281153Y206153D01*
X280624Y206507D01*
X280000Y206631D01*
D02*
G37*
G36*
X270000D02*
X269376Y206507D01*
X268847Y206153D01*
X268493Y205624D01*
X268369Y205000D01*
X268493Y204376D01*
X268847Y203847D01*
X269376Y203493D01*
X270000Y203369D01*
X270624Y203493D01*
X271153Y203847D01*
X271507Y204376D01*
X271631Y205000D01*
X271507Y205624D01*
X271153Y206153D01*
X270624Y206507D01*
X270000Y206631D01*
D02*
G37*
G36*
X250000D02*
X249376Y206507D01*
X248847Y206153D01*
X248493Y205624D01*
X248369Y205000D01*
X248493Y204376D01*
X248847Y203847D01*
X249376Y203493D01*
X250000Y203369D01*
X250624Y203493D01*
X251153Y203847D01*
X251507Y204376D01*
X251631Y205000D01*
X251507Y205624D01*
X251153Y206153D01*
X250624Y206507D01*
X250000Y206631D01*
D02*
G37*
G36*
X230000D02*
X229376Y206507D01*
X228847Y206153D01*
X228493Y205624D01*
X228369Y205000D01*
X228493Y204376D01*
X228847Y203847D01*
X229376Y203493D01*
X230000Y203369D01*
X230624Y203493D01*
X231153Y203847D01*
X231507Y204376D01*
X231631Y205000D01*
X231507Y205624D01*
X231153Y206153D01*
X230624Y206507D01*
X230000Y206631D01*
D02*
G37*
G36*
X210000D02*
X209376Y206507D01*
X208846Y206153D01*
X208493Y205624D01*
X208369Y205000D01*
X208493Y204376D01*
X208846Y203847D01*
X209376Y203493D01*
X210000Y203369D01*
X210624Y203493D01*
X211154Y203847D01*
X211507Y204376D01*
X211631Y205000D01*
X211507Y205624D01*
X211154Y206153D01*
X210624Y206507D01*
X210000Y206631D01*
D02*
G37*
G36*
X200000D02*
X199376Y206507D01*
X198846Y206153D01*
X198493Y205624D01*
X198369Y205000D01*
X198493Y204376D01*
X198846Y203847D01*
X199376Y203493D01*
X200000Y203369D01*
X200624Y203493D01*
X201153Y203847D01*
X201507Y204376D01*
X201631Y205000D01*
X201507Y205624D01*
X201153Y206153D01*
X200624Y206507D01*
X200000Y206631D01*
D02*
G37*
G36*
X190000D02*
X189376Y206507D01*
X188847Y206153D01*
X188493Y205624D01*
X188369Y205000D01*
X188493Y204376D01*
X188847Y203847D01*
X189376Y203493D01*
X190000Y203369D01*
X190624Y203493D01*
X191154Y203847D01*
X191507Y204376D01*
X191631Y205000D01*
X191507Y205624D01*
X191154Y206153D01*
X190624Y206507D01*
X190000Y206631D01*
D02*
G37*
G36*
X170000D02*
X169376Y206507D01*
X168846Y206153D01*
X168493Y205624D01*
X168369Y205000D01*
X168493Y204376D01*
X168846Y203847D01*
X169376Y203493D01*
X170000Y203369D01*
X170624Y203493D01*
X171153Y203847D01*
X171507Y204376D01*
X171631Y205000D01*
X171507Y205624D01*
X171153Y206153D01*
X170624Y206507D01*
X170000Y206631D01*
D02*
G37*
G36*
X150000D02*
X149376Y206507D01*
X148846Y206153D01*
X148493Y205624D01*
X148369Y205000D01*
X148493Y204376D01*
X148846Y203847D01*
X149376Y203493D01*
X150000Y203369D01*
X150624Y203493D01*
X151154Y203847D01*
X151507Y204376D01*
X151631Y205000D01*
X151507Y205624D01*
X151154Y206153D01*
X150624Y206507D01*
X150000Y206631D01*
D02*
G37*
G36*
X124000D02*
X123376Y206507D01*
X122846Y206153D01*
X122493Y205624D01*
X122369Y205000D01*
X122493Y204376D01*
X122846Y203847D01*
X123376Y203493D01*
X124000Y203369D01*
X124624Y203493D01*
X125154Y203847D01*
X125507Y204376D01*
X125631Y205000D01*
X125507Y205624D01*
X125154Y206153D01*
X124624Y206507D01*
X124000Y206631D01*
D02*
G37*
G36*
X114000D02*
X113376Y206507D01*
X112847Y206153D01*
X112493Y205624D01*
X112369Y205000D01*
X112493Y204376D01*
X112847Y203847D01*
X113376Y203493D01*
X114000Y203369D01*
X114624Y203493D01*
X115154Y203847D01*
X115507Y204376D01*
X115631Y205000D01*
X115507Y205624D01*
X115154Y206153D01*
X114624Y206507D01*
X114000Y206631D01*
D02*
G37*
G36*
X84000D02*
X83376Y206507D01*
X82846Y206153D01*
X82493Y205624D01*
X82369Y205000D01*
X82493Y204376D01*
X82846Y203847D01*
X83376Y203493D01*
X84000Y203369D01*
X84624Y203493D01*
X85154Y203847D01*
X85507Y204376D01*
X85631Y205000D01*
X85507Y205624D01*
X85154Y206153D01*
X84624Y206507D01*
X84000Y206631D01*
D02*
G37*
G36*
X74000D02*
X73376Y206507D01*
X72847Y206153D01*
X72493Y205624D01*
X72369Y205000D01*
X72493Y204376D01*
X72847Y203847D01*
X73376Y203493D01*
X74000Y203369D01*
X74624Y203493D01*
X75153Y203847D01*
X75507Y204376D01*
X75631Y205000D01*
X75507Y205624D01*
X75153Y206153D01*
X74624Y206507D01*
X74000Y206631D01*
D02*
G37*
G36*
X54000D02*
X53376Y206507D01*
X52846Y206153D01*
X52493Y205624D01*
X52369Y205000D01*
X52493Y204376D01*
X52846Y203847D01*
X53376Y203493D01*
X54000Y203369D01*
X54624Y203493D01*
X55154Y203847D01*
X55507Y204376D01*
X55631Y205000D01*
X55507Y205624D01*
X55154Y206153D01*
X54624Y206507D01*
X54000Y206631D01*
D02*
G37*
G36*
X34000D02*
X33376Y206507D01*
X32846Y206153D01*
X32493Y205624D01*
X32369Y205000D01*
X32493Y204376D01*
X32846Y203847D01*
X33376Y203493D01*
X34000Y203369D01*
X34624Y203493D01*
X35153Y203847D01*
X35507Y204376D01*
X35631Y205000D01*
X35507Y205624D01*
X35153Y206153D01*
X34624Y206507D01*
X34000Y206631D01*
D02*
G37*
G36*
X260000Y206631D02*
X259376Y206507D01*
X258846Y206153D01*
X258493Y205624D01*
X258369Y205000D01*
X258493Y204376D01*
X258846Y203846D01*
X259376Y203493D01*
X260000Y203369D01*
X260624Y203493D01*
X261154Y203846D01*
X261507Y204376D01*
X261631Y205000D01*
X261507Y205624D01*
X261154Y206153D01*
X260624Y206507D01*
X260000Y206631D01*
D02*
G37*
G36*
X240000D02*
X239376Y206507D01*
X238846Y206153D01*
X238493Y205624D01*
X238369Y205000D01*
X238493Y204376D01*
X238846Y203846D01*
X239376Y203493D01*
X240000Y203369D01*
X240624Y203493D01*
X241154Y203846D01*
X241507Y204376D01*
X241631Y205000D01*
X241507Y205624D01*
X241154Y206153D01*
X240624Y206507D01*
X240000Y206631D01*
D02*
G37*
G36*
X44000D02*
X43376Y206507D01*
X42846Y206153D01*
X42493Y205624D01*
X42369Y205000D01*
X42493Y204376D01*
X42846Y203846D01*
X43376Y203493D01*
X44000Y203369D01*
X44624Y203493D01*
X45153Y203846D01*
X45507Y204376D01*
X45631Y205000D01*
X45507Y205624D01*
X45153Y206153D01*
X44624Y206507D01*
X44000Y206631D01*
D02*
G37*
G36*
X20000Y212837D02*
X18471Y212686D01*
X17001Y212240D01*
X15646Y211516D01*
X14458Y210542D01*
X13484Y209354D01*
X12760Y207999D01*
X12314Y206529D01*
X12163Y205000D01*
X12314Y203471D01*
X12760Y202001D01*
X13484Y200646D01*
X14458Y199458D01*
X15646Y198484D01*
X17001Y197760D01*
X18471Y197314D01*
X20000Y197163D01*
X21529Y197314D01*
X22999Y197760D01*
X24354Y198484D01*
X25542Y199458D01*
X26516Y200646D01*
X27240Y202001D01*
X27686Y203471D01*
X27837Y205000D01*
X27686Y206529D01*
X27240Y207999D01*
X26516Y209354D01*
X25542Y210542D01*
X24354Y211516D01*
X22999Y212240D01*
X21529Y212686D01*
X20000Y212837D01*
D02*
G37*
G36*
X215256Y194249D02*
X214632Y194125D01*
X214102Y193772D01*
X213749Y193242D01*
X213625Y192618D01*
X213749Y191994D01*
X214102Y191465D01*
X214632Y191111D01*
X215256Y190987D01*
X215880Y191111D01*
X216409Y191465D01*
X216763Y191994D01*
X216887Y192618D01*
X216763Y193242D01*
X216409Y193772D01*
X215880Y194125D01*
X215256Y194249D01*
D02*
G37*
G36*
X155000Y187231D02*
X154376Y187107D01*
X153847Y186753D01*
X153493Y186224D01*
X153369Y185600D01*
X153493Y184976D01*
X153847Y184447D01*
X154376Y184093D01*
X155000Y183969D01*
X155624Y184093D01*
X156154Y184447D01*
X156507Y184976D01*
X156631Y185600D01*
X156507Y186224D01*
X156154Y186753D01*
X155624Y187107D01*
X155000Y187231D01*
D02*
G37*
G36*
X57900Y186431D02*
X57276Y186307D01*
X56747Y185953D01*
X56393Y185424D01*
X56269Y184800D01*
X56393Y184176D01*
X56747Y183647D01*
X57276Y183293D01*
X57900Y183169D01*
X58524Y183293D01*
X59053Y183647D01*
X59407Y184176D01*
X59531Y184800D01*
X59407Y185424D01*
X59053Y185953D01*
X58524Y186307D01*
X57900Y186431D01*
D02*
G37*
G36*
X140000Y185531D02*
X139376Y185407D01*
X138847Y185054D01*
X138493Y184524D01*
X138369Y183900D01*
X138493Y183276D01*
X138847Y182747D01*
X139376Y182393D01*
X140000Y182269D01*
X140624Y182393D01*
X141154Y182747D01*
X141507Y183276D01*
X141631Y183900D01*
X141507Y184524D01*
X141154Y185054D01*
X140624Y185407D01*
X140000Y185531D01*
D02*
G37*
G36*
X127400Y184931D02*
X126776Y184807D01*
X126247Y184453D01*
X125893Y183924D01*
X125769Y183300D01*
X125893Y182676D01*
X126247Y182147D01*
X126776Y181793D01*
X127400Y181669D01*
X128024Y181793D01*
X128553Y182147D01*
X128907Y182676D01*
X129031Y183300D01*
X128907Y183924D01*
X128553Y184453D01*
X128024Y184807D01*
X127400Y184931D01*
D02*
G37*
G36*
X275100Y186731D02*
X274476Y186607D01*
X273946Y186253D01*
X273593Y185724D01*
X273469Y185100D01*
X273593Y184476D01*
X273946Y183947D01*
X274476Y183593D01*
X275100Y183469D01*
X275102Y183469D01*
X275463Y182929D01*
X275393Y182824D01*
X275269Y182200D01*
X275393Y181576D01*
X275746Y181046D01*
X276276Y180693D01*
X276900Y180569D01*
X277524Y180693D01*
X278053Y181046D01*
X278407Y181576D01*
X278531Y182200D01*
X278407Y182824D01*
X278053Y183353D01*
X277524Y183707D01*
X276900Y183831D01*
X276898Y183831D01*
X276537Y184371D01*
X276607Y184476D01*
X276731Y185100D01*
X276607Y185724D01*
X276254Y186253D01*
X275724Y186607D01*
X275100Y186731D01*
D02*
G37*
G36*
X89100Y183631D02*
X88476Y183507D01*
X87946Y183153D01*
X87593Y182624D01*
X87469Y182000D01*
X87593Y181376D01*
X87946Y180847D01*
X88476Y180493D01*
X89100Y180369D01*
X89724Y180493D01*
X90254Y180847D01*
X90607Y181376D01*
X90731Y182000D01*
X90607Y182624D01*
X90254Y183153D01*
X89724Y183507D01*
X89100Y183631D01*
D02*
G37*
G36*
X273400Y181631D02*
X272776Y181507D01*
X272247Y181154D01*
X271893Y180624D01*
X271769Y180000D01*
X271893Y179376D01*
X272247Y178847D01*
X272776Y178493D01*
X273400Y178369D01*
X274024Y178493D01*
X274553Y178847D01*
X274907Y179376D01*
X275031Y180000D01*
X274907Y180624D01*
X274553Y181154D01*
X274024Y181507D01*
X273400Y181631D01*
D02*
G37*
G36*
X98400Y180381D02*
X97776Y180257D01*
X97246Y179903D01*
X96893Y179374D01*
X96769Y178750D01*
X96893Y178126D01*
X97246Y177596D01*
X97776Y177243D01*
X98400Y177119D01*
X99024Y177243D01*
X99554Y177596D01*
X99907Y178126D01*
X100031Y178750D01*
X99907Y179374D01*
X99554Y179903D01*
X99024Y180257D01*
X98400Y180381D01*
D02*
G37*
G36*
X118700Y180031D02*
X118076Y179907D01*
X117546Y179553D01*
X117193Y179024D01*
X117069Y178400D01*
X117193Y177776D01*
X117546Y177246D01*
X118076Y176893D01*
X118700Y176769D01*
X119324Y176893D01*
X119853Y177246D01*
X120207Y177776D01*
X120331Y178400D01*
X120207Y179024D01*
X119853Y179553D01*
X119324Y179907D01*
X118700Y180031D01*
D02*
G37*
G36*
X210050Y178931D02*
X209426Y178807D01*
X208896Y178454D01*
X208543Y177924D01*
X208419Y177300D01*
X208543Y176676D01*
X208896Y176146D01*
X209426Y175793D01*
X210050Y175669D01*
X210674Y175793D01*
X211204Y176146D01*
X211557Y176676D01*
X211681Y177300D01*
X211557Y177924D01*
X211204Y178454D01*
X210674Y178807D01*
X210050Y178931D01*
D02*
G37*
G36*
X201900Y177631D02*
X201276Y177507D01*
X200746Y177154D01*
X200393Y176624D01*
X200269Y176000D01*
X200393Y175376D01*
X200746Y174846D01*
X201276Y174493D01*
X201900Y174369D01*
X202524Y174493D01*
X203053Y174846D01*
X203407Y175376D01*
X203531Y176000D01*
X203407Y176624D01*
X203053Y177154D01*
X202524Y177507D01*
X201900Y177631D01*
D02*
G37*
G36*
X273000Y177331D02*
X272376Y177207D01*
X271847Y176854D01*
X271493Y176324D01*
X271369Y175700D01*
X271493Y175076D01*
X271847Y174547D01*
X272376Y174193D01*
X273000Y174069D01*
X273624Y174193D01*
X274153Y174547D01*
X274507Y175076D01*
X274631Y175700D01*
X274507Y176324D01*
X274153Y176854D01*
X273624Y177207D01*
X273000Y177331D01*
D02*
G37*
G36*
X196600D02*
X195976Y177207D01*
X195447Y176854D01*
X195093Y176324D01*
X194969Y175700D01*
X195093Y175076D01*
X195447Y174547D01*
X195976Y174193D01*
X196600Y174069D01*
X197224Y174193D01*
X197754Y174547D01*
X198107Y175076D01*
X198231Y175700D01*
X198107Y176324D01*
X197754Y176854D01*
X197224Y177207D01*
X196600Y177331D01*
D02*
G37*
G36*
X190800Y176831D02*
X190176Y176707D01*
X189646Y176354D01*
X189293Y175824D01*
X189169Y175200D01*
X189293Y174576D01*
X189646Y174047D01*
X190176Y173693D01*
X190800Y173569D01*
X191424Y173693D01*
X191954Y174047D01*
X192307Y174576D01*
X192431Y175200D01*
X192307Y175824D01*
X191954Y176354D01*
X191424Y176707D01*
X190800Y176831D01*
D02*
G37*
G36*
X183300Y176331D02*
X182676Y176207D01*
X182147Y175854D01*
X181793Y175324D01*
X181669Y174700D01*
X181793Y174076D01*
X182147Y173547D01*
X182676Y173193D01*
X183300Y173069D01*
X183924Y173193D01*
X184453Y173547D01*
X184807Y174076D01*
X184931Y174700D01*
X184807Y175324D01*
X184453Y175854D01*
X183924Y176207D01*
X183300Y176331D01*
D02*
G37*
G36*
X296700Y175931D02*
X296076Y175807D01*
X295547Y175453D01*
X295193Y174924D01*
X295069Y174300D01*
X295193Y173676D01*
X295547Y173146D01*
X296076Y172793D01*
X296700Y172669D01*
X297324Y172793D01*
X297853Y173146D01*
X298207Y173676D01*
X298331Y174300D01*
X298207Y174924D01*
X297853Y175453D01*
X297324Y175807D01*
X296700Y175931D01*
D02*
G37*
G36*
X174700D02*
X174076Y175807D01*
X173547Y175453D01*
X173193Y174924D01*
X173069Y174300D01*
X173193Y173676D01*
X173547Y173146D01*
X174076Y172793D01*
X174700Y172669D01*
X175324Y172793D01*
X175854Y173146D01*
X176207Y173676D01*
X176331Y174300D01*
X176207Y174924D01*
X175854Y175453D01*
X175324Y175807D01*
X174700Y175931D01*
D02*
G37*
G36*
X304784Y178816D02*
X304159Y178692D01*
X303630Y178339D01*
X303276Y177809D01*
X303152Y177185D01*
X303276Y176561D01*
X303630Y176031D01*
X304159Y175678D01*
X304783Y175554D01*
X305274Y175040D01*
X305343Y174691D01*
X305697Y174161D01*
X306226Y173808D01*
X306850Y173684D01*
X307492Y173199D01*
X307509Y173116D01*
X307862Y172587D01*
X308391Y172233D01*
X309016Y172109D01*
X309640Y172233D01*
X310169Y172587D01*
X310523Y173116D01*
X310647Y173740D01*
X310523Y174364D01*
X310169Y174894D01*
X309640Y175247D01*
X309016Y175372D01*
X308374Y175856D01*
X308358Y175939D01*
X308004Y176469D01*
X307475Y176822D01*
X306850Y176946D01*
X306360Y177461D01*
X306291Y177809D01*
X305937Y178339D01*
X305408Y178692D01*
X304784Y178816D01*
D02*
G37*
G36*
X102000Y176591D02*
X101330Y176502D01*
X100705Y176244D01*
X100168Y175832D01*
X99756Y175295D01*
X99498Y174671D01*
X99409Y174000D01*
X99498Y173329D01*
X99756Y172705D01*
X100168Y172168D01*
X100705Y171756D01*
X101330Y171498D01*
X102000Y171409D01*
X102671Y171498D01*
X103295Y171756D01*
X103832Y172168D01*
X104244Y172705D01*
X104502Y173329D01*
X104591Y174000D01*
X104502Y174671D01*
X104244Y175295D01*
X103832Y175832D01*
X103295Y176244D01*
X102671Y176502D01*
X102000Y176591D01*
D02*
G37*
G36*
X300000Y173831D02*
X299376Y173707D01*
X298847Y173354D01*
X298493Y172824D01*
X298369Y172200D01*
X298493Y171576D01*
X298847Y171046D01*
X299376Y170693D01*
X300000Y170569D01*
X300624Y170693D01*
X301153Y171046D01*
X301507Y171576D01*
X301631Y172200D01*
X301507Y172824D01*
X301153Y173354D01*
X300624Y173707D01*
X300000Y173831D01*
D02*
G37*
G36*
X72000Y172591D02*
X71329Y172502D01*
X70705Y172244D01*
X70168Y171832D01*
X69756Y171295D01*
X69498Y170670D01*
X69409Y170000D01*
X69498Y169330D01*
X69756Y168705D01*
X70168Y168168D01*
X70705Y167756D01*
X71329Y167498D01*
X72000Y167409D01*
X72671Y167498D01*
X73295Y167756D01*
X73832Y168168D01*
X74244Y168705D01*
X74502Y169330D01*
X74591Y170000D01*
X74502Y170670D01*
X74244Y171295D01*
X73832Y171832D01*
X73295Y172244D01*
X72671Y172502D01*
X72000Y172591D01*
D02*
G37*
G36*
X38768Y170316D02*
X38143Y170191D01*
X37614Y169838D01*
X37261Y169308D01*
X37136Y168684D01*
X37261Y168060D01*
X37614Y167531D01*
X38143Y167177D01*
X38768Y167053D01*
X39392Y167177D01*
X39921Y167531D01*
X40275Y168060D01*
X40399Y168684D01*
X40275Y169308D01*
X39921Y169838D01*
X39392Y170191D01*
X38768Y170316D01*
D02*
G37*
G36*
X102000Y168591D02*
X101330Y168502D01*
X100705Y168244D01*
X100168Y167832D01*
X99756Y167295D01*
X99498Y166671D01*
X99409Y166000D01*
X99498Y165330D01*
X99756Y164705D01*
X100168Y164168D01*
X100705Y163756D01*
X101330Y163498D01*
X102000Y163409D01*
X102671Y163498D01*
X103295Y163756D01*
X103832Y164168D01*
X104244Y164705D01*
X104502Y165330D01*
X104591Y166000D01*
X104502Y166671D01*
X104244Y167295D01*
X103832Y167832D01*
X103295Y168244D01*
X102671Y168502D01*
X102000Y168591D01*
D02*
G37*
G36*
X74200Y166331D02*
X73576Y166207D01*
X73046Y165854D01*
X72693Y165324D01*
X72569Y164700D01*
X72693Y164076D01*
X73046Y163547D01*
X73576Y163193D01*
X74200Y163069D01*
X74824Y163193D01*
X75353Y163547D01*
X75707Y164076D01*
X75831Y164700D01*
X75707Y165324D01*
X75353Y165854D01*
X74824Y166207D01*
X74200Y166331D01*
D02*
G37*
G36*
X124900Y166031D02*
X124276Y165907D01*
X123747Y165553D01*
X123393Y165024D01*
X123269Y164400D01*
X123393Y163776D01*
X123747Y163247D01*
X124276Y162893D01*
X124900Y162769D01*
X125524Y162893D01*
X126054Y163247D01*
X126407Y163776D01*
X126531Y164400D01*
X126407Y165024D01*
X126054Y165553D01*
X125524Y165907D01*
X124900Y166031D01*
D02*
G37*
G36*
X34240Y165394D02*
X33616Y165270D01*
X33087Y164917D01*
X32733Y164387D01*
X32609Y163763D01*
X32733Y163139D01*
X33087Y162609D01*
X33616Y162256D01*
X34240Y162132D01*
X34864Y162256D01*
X35394Y162609D01*
X35747Y163139D01*
X35871Y163763D01*
X35747Y164387D01*
X35394Y164917D01*
X34864Y165270D01*
X34240Y165394D01*
D02*
G37*
G36*
X252000Y159531D02*
X251376Y159407D01*
X250847Y159054D01*
X250493Y158524D01*
X250369Y157900D01*
X250493Y157276D01*
X250847Y156746D01*
X251376Y156393D01*
X252000Y156269D01*
X252624Y156393D01*
X253153Y156746D01*
X253507Y157276D01*
X253631Y157900D01*
X253507Y158524D01*
X253153Y159054D01*
X252624Y159407D01*
X252000Y159531D01*
D02*
G37*
G36*
X234300D02*
X233676Y159407D01*
X233147Y159054D01*
X232793Y158524D01*
X232669Y157900D01*
X232793Y157276D01*
X233147Y156746D01*
X233676Y156393D01*
X234300Y156269D01*
X234924Y156393D01*
X235454Y156746D01*
X235807Y157276D01*
X235931Y157900D01*
X235807Y158524D01*
X235454Y159054D01*
X234924Y159407D01*
X234300Y159531D01*
D02*
G37*
G36*
X282047Y158934D02*
X281423Y158810D01*
X280894Y158457D01*
X280540Y157927D01*
X280416Y157303D01*
X280540Y156679D01*
X280894Y156150D01*
X281423Y155796D01*
X282047Y155672D01*
X282671Y155796D01*
X283201Y156150D01*
X283554Y156679D01*
X283679Y157303D01*
X283554Y157927D01*
X283201Y158457D01*
X282671Y158810D01*
X282047Y158934D01*
D02*
G37*
G36*
X77000Y155431D02*
X76376Y155307D01*
X75846Y154954D01*
X75493Y154424D01*
X75369Y153800D01*
X75493Y153176D01*
X75846Y152647D01*
X76376Y152293D01*
X77000Y152169D01*
X77624Y152293D01*
X78154Y152647D01*
X78507Y153176D01*
X78631Y153800D01*
X78507Y154424D01*
X78154Y154954D01*
X77624Y155307D01*
X77000Y155431D01*
D02*
G37*
G36*
X82000D02*
X81376Y155307D01*
X80847Y154954D01*
X80493Y154424D01*
X80369Y153800D01*
X80493Y153176D01*
X80847Y152647D01*
X81376Y152293D01*
X82000Y152169D01*
X82624Y152293D01*
X83066Y151866D01*
X83346Y151446D01*
X83876Y151093D01*
X84500Y150969D01*
X85124Y151093D01*
X85654Y151446D01*
X86007Y151976D01*
X86131Y152600D01*
X86007Y153224D01*
X85654Y153753D01*
X85124Y154107D01*
X84500Y154231D01*
X84170Y154166D01*
X83507Y154424D01*
X83153Y154954D01*
X82624Y155307D01*
X82000Y155431D01*
D02*
G37*
G36*
X98500Y154131D02*
X97876Y154007D01*
X97347Y153654D01*
X96993Y153124D01*
X96869Y152500D01*
X96993Y151876D01*
X97347Y151347D01*
X97876Y150993D01*
X98500Y150869D01*
X99124Y150993D01*
X99654Y151347D01*
X100007Y151876D01*
X100131Y152500D01*
X100007Y153124D01*
X99654Y153654D01*
X99124Y154007D01*
X98500Y154131D01*
D02*
G37*
G36*
X92000Y155331D02*
X91376Y155207D01*
X90847Y154853D01*
X90493Y154324D01*
X90369Y153700D01*
X90493Y153076D01*
X90847Y152547D01*
X91376Y152193D01*
X92000Y152069D01*
X92302Y152129D01*
X92766Y151941D01*
X92911Y151685D01*
X92993Y151276D01*
X93347Y150747D01*
X93876Y150393D01*
X94500Y150269D01*
X95124Y150393D01*
X95653Y150747D01*
X96007Y151276D01*
X96131Y151900D01*
X96007Y152524D01*
X95653Y153053D01*
X95124Y153407D01*
X94500Y153531D01*
X94198Y153471D01*
X93734Y153659D01*
X93589Y153915D01*
X93507Y154324D01*
X93154Y154853D01*
X92624Y155207D01*
X92000Y155331D01*
D02*
G37*
G36*
X237700Y151631D02*
X237076Y151507D01*
X236546Y151154D01*
X236193Y150624D01*
X236069Y150000D01*
X236193Y149376D01*
X236546Y148846D01*
X237076Y148493D01*
X237700Y148369D01*
X238324Y148493D01*
X238854Y148846D01*
X239207Y149376D01*
X239331Y150000D01*
X239207Y150624D01*
X238854Y151154D01*
X238324Y151507D01*
X237700Y151631D01*
D02*
G37*
G36*
X29300Y150231D02*
X28676Y150107D01*
X28146Y149753D01*
X27793Y149224D01*
X27669Y148600D01*
X27793Y147976D01*
X28146Y147447D01*
X28676Y147093D01*
X29300Y146969D01*
X29924Y147093D01*
X30454Y147447D01*
X30807Y147976D01*
X30931Y148600D01*
X30807Y149224D01*
X30454Y149753D01*
X29924Y150107D01*
X29300Y150231D01*
D02*
G37*
G36*
X129400Y148931D02*
X128776Y148807D01*
X128246Y148453D01*
X127893Y147924D01*
X127769Y147300D01*
X127893Y146676D01*
X128246Y146147D01*
X128776Y145793D01*
X129400Y145669D01*
X130024Y145793D01*
X130553Y146147D01*
X130907Y146676D01*
X131031Y147300D01*
X130907Y147924D01*
X130553Y148453D01*
X130024Y148807D01*
X129400Y148931D01*
D02*
G37*
G36*
X83839Y146907D02*
X83214Y146783D01*
X82685Y146429D01*
X82331Y145900D01*
X82207Y145276D01*
X82331Y144651D01*
X82685Y144122D01*
X83214Y143768D01*
X83839Y143644D01*
X84463Y143768D01*
X84992Y144122D01*
X85346Y144651D01*
X85470Y145276D01*
X85346Y145900D01*
X84992Y146429D01*
X84463Y146783D01*
X83839Y146907D01*
D02*
G37*
G36*
X37400Y146831D02*
X36776Y146707D01*
X36246Y146353D01*
X35893Y145824D01*
X35769Y145200D01*
X35893Y144576D01*
X36246Y144046D01*
X36776Y143693D01*
X37400Y143569D01*
X38024Y143693D01*
X38554Y144046D01*
X38907Y144576D01*
X39031Y145200D01*
X38907Y145824D01*
X38554Y146353D01*
X38024Y146707D01*
X37400Y146831D01*
D02*
G37*
G36*
X292874Y145647D02*
X292250Y145523D01*
X291721Y145169D01*
X291367Y144640D01*
X291243Y144016D01*
X291367Y143392D01*
X291721Y142862D01*
X292250Y142509D01*
X292874Y142384D01*
X293498Y142509D01*
X294028Y142862D01*
X294381Y143392D01*
X294505Y144016D01*
X294381Y144640D01*
X294028Y145169D01*
X293498Y145523D01*
X292874Y145647D01*
D02*
G37*
G36*
X249400Y145131D02*
X248776Y145007D01*
X248247Y144653D01*
X247893Y144124D01*
X247769Y143500D01*
X247893Y142876D01*
X248247Y142347D01*
X248776Y141993D01*
X249400Y141869D01*
X250024Y141993D01*
X250553Y142347D01*
X250907Y142876D01*
X251031Y143500D01*
X250907Y144124D01*
X250553Y144653D01*
X250024Y145007D01*
X249400Y145131D01*
D02*
G37*
G36*
X264000Y143131D02*
X263376Y143007D01*
X262846Y142654D01*
X262493Y142124D01*
X262369Y141500D01*
X262493Y140876D01*
X262846Y140347D01*
X263376Y139993D01*
X264000Y139869D01*
X264624Y139993D01*
X265154Y140347D01*
X265507Y140876D01*
X265631Y141500D01*
X265507Y142124D01*
X265154Y142654D01*
X264624Y143007D01*
X264000Y143131D01*
D02*
G37*
G36*
X108650Y141379D02*
X108025Y141254D01*
X107496Y140901D01*
X107142Y140372D01*
X107018Y139747D01*
X107142Y139123D01*
X107496Y138594D01*
X108025Y138240D01*
X108650Y138116D01*
X109274Y138240D01*
X109803Y138594D01*
X110157Y139123D01*
X110281Y139747D01*
X110157Y140372D01*
X109803Y140901D01*
X109274Y141254D01*
X108650Y141379D01*
D02*
G37*
G36*
X220000Y152837D02*
X218471Y152686D01*
X217001Y152240D01*
X215646Y151516D01*
X214458Y150542D01*
X213484Y149354D01*
X212760Y147999D01*
X212314Y146529D01*
X212163Y145000D01*
X212314Y143471D01*
X212760Y142001D01*
X213484Y140646D01*
X214458Y139458D01*
X215646Y138484D01*
X217001Y137760D01*
X218471Y137314D01*
X220000Y137163D01*
X221529Y137314D01*
X222999Y137760D01*
X224354Y138484D01*
X225542Y139458D01*
X226516Y140646D01*
X227240Y142001D01*
X227686Y143471D01*
X227837Y145000D01*
X227686Y146529D01*
X227240Y147999D01*
X226516Y149354D01*
X225542Y150542D01*
X224354Y151516D01*
X222999Y152240D01*
X221529Y152686D01*
X220000Y152837D01*
D02*
G37*
G36*
X283000Y139931D02*
X282376Y139807D01*
X281846Y139453D01*
X281493Y138924D01*
X281369Y138300D01*
X281493Y137676D01*
X281846Y137146D01*
X282376Y136793D01*
X283000Y136669D01*
X283624Y136793D01*
X284154Y137146D01*
X284507Y137676D01*
X284631Y138300D01*
X284507Y138924D01*
X284154Y139453D01*
X283624Y139807D01*
X283000Y139931D01*
D02*
G37*
G36*
X238800Y134931D02*
X238176Y134807D01*
X237647Y134453D01*
X237444Y134151D01*
X236792Y134095D01*
X236750Y134109D01*
X236653Y134254D01*
X236124Y134607D01*
X235500Y134731D01*
X234876Y134607D01*
X234347Y134254D01*
X233993Y133724D01*
X233869Y133100D01*
X233993Y132476D01*
X234347Y131947D01*
X234876Y131593D01*
X235500Y131469D01*
X236124Y131593D01*
X236653Y131947D01*
X236856Y132249D01*
X237508Y132305D01*
X237550Y132291D01*
X237647Y132147D01*
X238176Y131793D01*
X238800Y131669D01*
X239424Y131793D01*
X239953Y132147D01*
X240050Y132291D01*
X240092Y132305D01*
X240744Y132249D01*
X240947Y131947D01*
X241476Y131593D01*
X242100Y131469D01*
X242724Y131593D01*
X243253Y131947D01*
X243607Y132476D01*
X243731Y133100D01*
X243607Y133724D01*
X243253Y134254D01*
X242724Y134607D01*
X242100Y134731D01*
X241476Y134607D01*
X240947Y134254D01*
X240850Y134109D01*
X240808Y134095D01*
X240156Y134151D01*
X239953Y134453D01*
X239424Y134807D01*
X238800Y134931D01*
D02*
G37*
G36*
X287300Y137031D02*
X286676Y136907D01*
X286146Y136554D01*
X285793Y136024D01*
X285669Y135400D01*
X285793Y134776D01*
X286146Y134247D01*
X286676Y133893D01*
X287300Y133769D01*
X287924Y133893D01*
X288454Y134247D01*
X288807Y134776D01*
X288931Y135400D01*
X288807Y136024D01*
X288454Y136554D01*
X287924Y136907D01*
X287300Y137031D01*
D02*
G37*
G36*
X314173Y136868D02*
X313549Y136743D01*
X313020Y136390D01*
X312666Y135861D01*
X312542Y135236D01*
X312666Y134612D01*
X313020Y134083D01*
X313549Y133729D01*
X314173Y133605D01*
X314797Y133729D01*
X315327Y134083D01*
X315680Y134612D01*
X315805Y135236D01*
X315680Y135861D01*
X315327Y136390D01*
X314797Y136743D01*
X314173Y136868D01*
D02*
G37*
G36*
X23700Y136331D02*
X23076Y136207D01*
X22546Y135854D01*
X22193Y135324D01*
X22069Y134700D01*
X22193Y134076D01*
X22546Y133546D01*
X23076Y133193D01*
X23700Y133069D01*
X24324Y133193D01*
X24854Y133546D01*
X25207Y134076D01*
X25331Y134700D01*
X25207Y135324D01*
X24854Y135854D01*
X24324Y136207D01*
X23700Y136331D01*
D02*
G37*
G36*
X101071Y135079D02*
X100447Y134955D01*
X99917Y134602D01*
X99564Y134072D01*
X99440Y133448D01*
X99564Y132824D01*
X99917Y132294D01*
X100447Y131941D01*
X101071Y131817D01*
X101695Y131941D01*
X102224Y132294D01*
X102578Y132824D01*
X102702Y133448D01*
X102578Y134072D01*
X102224Y134602D01*
X101695Y134955D01*
X101071Y135079D01*
D02*
G37*
G36*
X289500Y133631D02*
X288876Y133507D01*
X288347Y133153D01*
X287993Y132624D01*
X287869Y132000D01*
X287993Y131376D01*
X288347Y130847D01*
X288876Y130493D01*
X289500Y130369D01*
X290124Y130493D01*
X290653Y130847D01*
X291007Y131376D01*
X291131Y132000D01*
X291007Y132624D01*
X290653Y133153D01*
X290124Y133507D01*
X289500Y133631D01*
D02*
G37*
G36*
X124800Y133431D02*
X124176Y133307D01*
X123646Y132954D01*
X123293Y132424D01*
X123169Y131800D01*
X123293Y131176D01*
X123646Y130647D01*
X124176Y130293D01*
X124800Y130169D01*
X125424Y130293D01*
X125953Y130647D01*
X126307Y131176D01*
X126431Y131800D01*
X126307Y132424D01*
X125953Y132954D01*
X125424Y133307D01*
X124800Y133431D01*
D02*
G37*
G36*
X230600Y133031D02*
X229976Y132907D01*
X229447Y132554D01*
X229093Y132024D01*
X228969Y131400D01*
X229093Y130776D01*
X229447Y130246D01*
X229976Y129893D01*
X230600Y129769D01*
X231224Y129893D01*
X231753Y130246D01*
X232107Y130776D01*
X232231Y131400D01*
X232107Y132024D01*
X231753Y132554D01*
X231224Y132907D01*
X230600Y133031D01*
D02*
G37*
G36*
X283100Y132931D02*
X282476Y132807D01*
X281946Y132454D01*
X281593Y131924D01*
X281469Y131300D01*
X281593Y130676D01*
X281946Y130147D01*
X282476Y129793D01*
X283100Y129669D01*
X283724Y129793D01*
X284254Y130147D01*
X284607Y130676D01*
X284731Y131300D01*
X284607Y131924D01*
X284254Y132454D01*
X283724Y132807D01*
X283100Y132931D01*
D02*
G37*
G36*
X313800Y132631D02*
X313176Y132507D01*
X312647Y132153D01*
X312293Y131624D01*
X312169Y131000D01*
X312293Y130376D01*
X312647Y129847D01*
X313176Y129493D01*
X313800Y129369D01*
X314424Y129493D01*
X314953Y129847D01*
X315307Y130376D01*
X315431Y131000D01*
X315307Y131624D01*
X314953Y132153D01*
X314424Y132507D01*
X313800Y132631D01*
D02*
G37*
G36*
X208400Y131931D02*
X207776Y131807D01*
X207246Y131454D01*
X206893Y130924D01*
X206769Y130300D01*
X206893Y129676D01*
X207246Y129147D01*
X207776Y128793D01*
X208400Y128669D01*
X209024Y128793D01*
X209554Y129147D01*
X209907Y129676D01*
X210031Y130300D01*
X209907Y130924D01*
X209554Y131454D01*
X209024Y131807D01*
X208400Y131931D01*
D02*
G37*
G36*
X224240Y131191D02*
X223616Y131067D01*
X223087Y130713D01*
X222733Y130184D01*
X222609Y129560D01*
X222733Y128936D01*
X223087Y128406D01*
X223616Y128053D01*
X224240Y127928D01*
X224864Y128053D01*
X225394Y128406D01*
X225747Y128936D01*
X225871Y129560D01*
X225747Y130184D01*
X225394Y130713D01*
X224864Y131067D01*
X224240Y131191D01*
D02*
G37*
G36*
X88600Y130631D02*
X87976Y130507D01*
X87446Y130154D01*
X87093Y129624D01*
X86969Y129000D01*
X87093Y128376D01*
X87446Y127847D01*
X87976Y127493D01*
X88600Y127369D01*
X89224Y127493D01*
X89754Y127847D01*
X90107Y128376D01*
X90231Y129000D01*
X90107Y129624D01*
X89754Y130154D01*
X89224Y130507D01*
X88600Y130631D01*
D02*
G37*
G36*
X246700Y127231D02*
X246076Y127107D01*
X245547Y126753D01*
X245193Y126224D01*
X245069Y125600D01*
X245193Y124976D01*
X245547Y124446D01*
X246076Y124093D01*
X246700Y123969D01*
X247324Y124093D01*
X247853Y124446D01*
X248207Y124976D01*
X248331Y125600D01*
X248207Y126224D01*
X247853Y126753D01*
X247324Y127107D01*
X246700Y127231D01*
D02*
G37*
G36*
X129400Y124931D02*
X128776Y124807D01*
X128246Y124453D01*
X127893Y123924D01*
X127769Y123300D01*
X127893Y122676D01*
X128246Y122146D01*
X128776Y121793D01*
X129400Y121669D01*
X130024Y121793D01*
X130553Y122146D01*
X130907Y122676D01*
X131031Y123300D01*
X130907Y123924D01*
X130553Y124453D01*
X130024Y124807D01*
X129400Y124931D01*
D02*
G37*
G36*
X107600Y124331D02*
X106976Y124207D01*
X106447Y123854D01*
X106093Y123324D01*
X105969Y122700D01*
X106093Y122076D01*
X106447Y121546D01*
X106976Y121193D01*
X107600Y121069D01*
X108224Y121193D01*
X108754Y121546D01*
X109107Y122076D01*
X109231Y122700D01*
X109107Y123324D01*
X108754Y123854D01*
X108224Y124207D01*
X107600Y124331D01*
D02*
G37*
G36*
X236500Y121431D02*
X235876Y121307D01*
X235347Y120954D01*
X234993Y120424D01*
X234985Y120387D01*
X234324Y120107D01*
X233700Y120231D01*
X233076Y120107D01*
X232546Y119754D01*
X232193Y119224D01*
X232069Y118600D01*
X232193Y117976D01*
X232546Y117446D01*
X233076Y117093D01*
X233700Y116969D01*
X234324Y117093D01*
X234854Y117446D01*
X235207Y117976D01*
X235215Y118013D01*
X235876Y118293D01*
X236500Y118169D01*
X237124Y118293D01*
X237653Y118647D01*
X238007Y119176D01*
X238131Y119800D01*
X238007Y120424D01*
X237653Y120954D01*
X237124Y121307D01*
X236500Y121431D01*
D02*
G37*
G36*
X107500Y118331D02*
X106876Y118207D01*
X106346Y117853D01*
X105993Y117324D01*
X105869Y116700D01*
X105993Y116076D01*
X106346Y115547D01*
X106876Y115193D01*
X107500Y115069D01*
X108124Y115193D01*
X108653Y115547D01*
X109007Y116076D01*
X109131Y116700D01*
X109007Y117324D01*
X108653Y117853D01*
X108124Y118207D01*
X107500Y118331D01*
D02*
G37*
G36*
X181200Y115431D02*
X180576Y115307D01*
X180046Y114953D01*
X179693Y114424D01*
X179569Y113800D01*
X179693Y113176D01*
X180046Y112646D01*
X180576Y112293D01*
X181200Y112169D01*
X181824Y112293D01*
X182353Y112646D01*
X182707Y113176D01*
X182831Y113800D01*
X182707Y114424D01*
X182353Y114953D01*
X181824Y115307D01*
X181200Y115431D01*
D02*
G37*
G36*
X310591Y114348D02*
X309966Y114224D01*
X309437Y113870D01*
X309083Y113341D01*
X308959Y112716D01*
X309083Y112092D01*
X309437Y111563D01*
X309966Y111209D01*
X310591Y111085D01*
X311215Y111209D01*
X311744Y111563D01*
X312098Y112092D01*
X312222Y112716D01*
X312098Y113341D01*
X311744Y113870D01*
X311215Y114224D01*
X310591Y114348D01*
D02*
G37*
G36*
X316595Y111986D02*
X315970Y111862D01*
X315441Y111508D01*
X315087Y110979D01*
X314963Y110354D01*
X315087Y109730D01*
X315441Y109201D01*
X315970Y108847D01*
X316595Y108723D01*
X317219Y108847D01*
X317748Y109201D01*
X318102Y109730D01*
X318226Y110354D01*
X318102Y110979D01*
X317748Y111508D01*
X317219Y111862D01*
X316595Y111986D01*
D02*
G37*
G36*
X299764Y111100D02*
X299139Y110976D01*
X298610Y110622D01*
X298257Y110093D01*
X298132Y109468D01*
X298257Y108844D01*
X298610Y108315D01*
X299139Y107961D01*
X299764Y107837D01*
X300388Y107961D01*
X300917Y108315D01*
X301271Y108844D01*
X301395Y109468D01*
X301271Y110093D01*
X300917Y110622D01*
X300388Y110976D01*
X299764Y111100D01*
D02*
G37*
G36*
X184600Y111031D02*
X183976Y110907D01*
X183447Y110554D01*
X183093Y110024D01*
X182969Y109400D01*
X183093Y108776D01*
X183447Y108247D01*
X183976Y107893D01*
X184600Y107769D01*
X185224Y107893D01*
X185754Y108247D01*
X186107Y108776D01*
X186231Y109400D01*
X186107Y110024D01*
X185754Y110554D01*
X185224Y110907D01*
X184600Y111031D01*
D02*
G37*
G36*
X176400D02*
X175776Y110907D01*
X175247Y110554D01*
X174893Y110024D01*
X174769Y109400D01*
X174893Y108776D01*
X175247Y108247D01*
X175776Y107893D01*
X176400Y107769D01*
X177024Y107893D01*
X177553Y108247D01*
X177907Y108776D01*
X178031Y109400D01*
X177907Y110024D01*
X177553Y110554D01*
X177024Y110907D01*
X176400Y111031D01*
D02*
G37*
G36*
X321260Y110785D02*
X320636Y110661D01*
X320106Y110307D01*
X319753Y109778D01*
X319629Y109153D01*
X319753Y108529D01*
X320106Y108000D01*
X320636Y107646D01*
X321260Y107522D01*
X321884Y107646D01*
X322413Y108000D01*
X322767Y108529D01*
X322891Y109153D01*
X322767Y109778D01*
X322413Y110307D01*
X321884Y110661D01*
X321260Y110785D01*
D02*
G37*
G36*
X312992Y110096D02*
X312368Y109972D01*
X311839Y109618D01*
X311485Y109089D01*
X311361Y108465D01*
X311485Y107840D01*
X311839Y107311D01*
X312368Y106957D01*
X312992Y106833D01*
X313616Y106957D01*
X314146Y107311D01*
X314499Y107840D01*
X314623Y108465D01*
X314499Y109089D01*
X314146Y109618D01*
X313616Y109972D01*
X312992Y110096D01*
D02*
G37*
G36*
X301870Y107832D02*
X301246Y107708D01*
X300716Y107354D01*
X300363Y106825D01*
X300239Y106201D01*
X300331Y105739D01*
X299807Y105524D01*
X299453Y106053D01*
X298924Y106407D01*
X298300Y106531D01*
X297676Y106407D01*
X297147Y106053D01*
X296793Y105524D01*
X296669Y104900D01*
X296793Y104276D01*
X297147Y103746D01*
X297676Y103393D01*
X298300Y103269D01*
X298924Y103393D01*
X299453Y103746D01*
X299807Y104276D01*
X299931Y104900D01*
X299839Y105362D01*
X300363Y105577D01*
X300716Y105047D01*
X301246Y104694D01*
X301870Y104569D01*
X302494Y104694D01*
X303024Y105047D01*
X303377Y105577D01*
X303501Y106201D01*
X303377Y106825D01*
X303024Y107354D01*
X302494Y107708D01*
X301870Y107832D01*
D02*
G37*
G36*
X180100Y108431D02*
X179476Y108307D01*
X178946Y107954D01*
X178593Y107424D01*
X178469Y106800D01*
X178593Y106176D01*
X178946Y105647D01*
X179476Y105293D01*
X180100Y105169D01*
X180724Y105293D01*
X181254Y105647D01*
X181607Y106176D01*
X181731Y106800D01*
X181607Y107424D01*
X181254Y107954D01*
X180724Y108307D01*
X180100Y108431D01*
D02*
G37*
G36*
X319094Y106848D02*
X318470Y106724D01*
X317941Y106370D01*
X317587Y105841D01*
X317463Y105217D01*
X317587Y104592D01*
X317941Y104063D01*
X318470Y103709D01*
X319094Y103585D01*
X319719Y103709D01*
X320248Y104063D01*
X320602Y104592D01*
X320726Y105217D01*
X320602Y105841D01*
X320248Y106370D01*
X319719Y106724D01*
X319094Y106848D01*
D02*
G37*
G36*
X107300Y106531D02*
X106676Y106407D01*
X106147Y106053D01*
X105793Y105524D01*
X105669Y104900D01*
X105793Y104276D01*
X106147Y103746D01*
X106676Y103393D01*
X107300Y103269D01*
X107924Y103393D01*
X108454Y103746D01*
X108807Y104276D01*
X108931Y104900D01*
X108807Y105524D01*
X108454Y106053D01*
X107924Y106407D01*
X107300Y106531D01*
D02*
G37*
G36*
X314429Y103620D02*
X313805Y103495D01*
X313276Y103142D01*
X312922Y102612D01*
X312798Y101988D01*
X312922Y101364D01*
X313276Y100835D01*
X313805Y100481D01*
X314429Y100357D01*
X315053Y100481D01*
X315583Y100835D01*
X315936Y101364D01*
X316060Y101988D01*
X315936Y102612D01*
X315583Y103142D01*
X315053Y103495D01*
X314429Y103620D01*
D02*
G37*
G36*
X234000Y103231D02*
X233376Y103107D01*
X232846Y102753D01*
X232493Y102224D01*
X232369Y101600D01*
X232493Y100976D01*
X232846Y100446D01*
X233376Y100093D01*
X234000Y99969D01*
X234624Y100093D01*
X235154Y100446D01*
X235507Y100976D01*
X235631Y101600D01*
X235507Y102224D01*
X235154Y102753D01*
X234624Y103107D01*
X234000Y103231D01*
D02*
G37*
G36*
X302165Y103009D02*
X301541Y102885D01*
X301012Y102532D01*
X300658Y102002D01*
X300534Y101378D01*
X300658Y100754D01*
X301012Y100224D01*
X301541Y99871D01*
X302165Y99747D01*
X302790Y99871D01*
X303319Y100224D01*
X303673Y100754D01*
X303797Y101378D01*
X303673Y102002D01*
X303319Y102532D01*
X302790Y102885D01*
X302165Y103009D01*
D02*
G37*
G36*
X301600Y98831D02*
X300976Y98707D01*
X300447Y98353D01*
X300093Y97824D01*
X299969Y97200D01*
X300093Y96576D01*
X300447Y96047D01*
X300976Y95693D01*
X301600Y95569D01*
X302224Y95693D01*
X302753Y96047D01*
X303107Y96576D01*
X303231Y97200D01*
X303107Y97824D01*
X302753Y98353D01*
X302224Y98707D01*
X301600Y98831D01*
D02*
G37*
G36*
X226500Y96131D02*
X225876Y96007D01*
X225346Y95653D01*
X224993Y95124D01*
X224869Y94500D01*
X224993Y93876D01*
X225346Y93347D01*
X225876Y92993D01*
X226500Y92869D01*
X227124Y92993D01*
X227654Y93347D01*
X228007Y93876D01*
X228131Y94500D01*
X228007Y95124D01*
X227654Y95653D01*
X227124Y96007D01*
X226500Y96131D01*
D02*
G37*
G36*
X182000D02*
X181376Y96007D01*
X180847Y95653D01*
X180493Y95124D01*
X180369Y94500D01*
X180493Y93876D01*
X180847Y93347D01*
X181376Y92993D01*
X182000Y92869D01*
X182624Y92993D01*
X183153Y93347D01*
X183507Y93876D01*
X183631Y94500D01*
X183507Y95124D01*
X183153Y95653D01*
X182624Y96007D01*
X182000Y96131D01*
D02*
G37*
G36*
X320600Y95831D02*
X319976Y95707D01*
X319446Y95354D01*
X319093Y94824D01*
X318969Y94200D01*
X319093Y93576D01*
X319446Y93046D01*
X319976Y92693D01*
X320600Y92569D01*
X321224Y92693D01*
X321754Y93046D01*
X322107Y93576D01*
X322231Y94200D01*
X322107Y94824D01*
X321754Y95354D01*
X321224Y95707D01*
X320600Y95831D01*
D02*
G37*
G36*
X299800Y94231D02*
X299176Y94107D01*
X298646Y93753D01*
X298293Y93224D01*
X298169Y92600D01*
X298293Y91976D01*
X298646Y91447D01*
X299176Y91093D01*
X299800Y90969D01*
X300424Y91093D01*
X300954Y91447D01*
X301307Y91976D01*
X301431Y92600D01*
X301307Y93224D01*
X300954Y93753D01*
X300424Y94107D01*
X299800Y94231D01*
D02*
G37*
G36*
X283500Y95431D02*
X282876Y95307D01*
X282347Y94954D01*
X281993Y94424D01*
X281890Y93905D01*
X281847Y93777D01*
X281363Y93264D01*
X281076Y93207D01*
X280546Y92853D01*
X280193Y92324D01*
X280069Y91700D01*
X280193Y91076D01*
X280546Y90547D01*
X281076Y90193D01*
X281700Y90069D01*
X282324Y90193D01*
X282854Y90547D01*
X283207Y91076D01*
X283310Y91595D01*
X283353Y91723D01*
X283837Y92236D01*
X284124Y92293D01*
X284653Y92646D01*
X285007Y93176D01*
X285131Y93800D01*
X285007Y94424D01*
X284653Y94954D01*
X284124Y95307D01*
X283500Y95431D01*
D02*
G37*
G36*
X317000Y92831D02*
X316376Y92707D01*
X315846Y92353D01*
X315493Y91824D01*
X315369Y91200D01*
X315493Y90576D01*
X315846Y90047D01*
X316376Y89693D01*
X317000Y89569D01*
X317624Y89693D01*
X318154Y90047D01*
X318507Y90576D01*
X318631Y91200D01*
X318507Y91824D01*
X318154Y92353D01*
X317624Y92707D01*
X317000Y92831D01*
D02*
G37*
G36*
X134800Y90431D02*
X134176Y90307D01*
X133647Y89954D01*
X133293Y89424D01*
X133169Y88800D01*
X133293Y88176D01*
X133647Y87647D01*
X134176Y87293D01*
X134800Y87169D01*
X135424Y87293D01*
X135953Y87647D01*
X136307Y88176D01*
X136431Y88800D01*
X136307Y89424D01*
X135953Y89954D01*
X135424Y90307D01*
X134800Y90431D01*
D02*
G37*
G36*
X247559Y89072D02*
X246935Y88948D01*
X246406Y88595D01*
X246052Y88065D01*
X245928Y87441D01*
X246052Y86817D01*
X246406Y86287D01*
X246935Y85934D01*
X247559Y85810D01*
X248183Y85934D01*
X248713Y86287D01*
X249066Y86817D01*
X249190Y87441D01*
X249066Y88065D01*
X248713Y88595D01*
X248183Y88948D01*
X247559Y89072D01*
D02*
G37*
G36*
X27300Y87631D02*
X26676Y87507D01*
X26147Y87154D01*
X25793Y86624D01*
X25669Y86000D01*
X25793Y85376D01*
X26147Y84847D01*
X26676Y84493D01*
X27300Y84369D01*
X27924Y84493D01*
X28453Y84847D01*
X28807Y85376D01*
X28931Y86000D01*
X28807Y86624D01*
X28453Y87154D01*
X27924Y87507D01*
X27300Y87631D01*
D02*
G37*
G36*
X299600Y82331D02*
X298976Y82207D01*
X298446Y81853D01*
X298093Y81324D01*
X297467Y81251D01*
X297374Y81390D01*
X296845Y81743D01*
X296220Y81868D01*
X295596Y81743D01*
X295067Y81390D01*
X294713Y80861D01*
X294589Y80236D01*
X294713Y79612D01*
X295067Y79083D01*
X295596Y78729D01*
X296220Y78605D01*
X296845Y78729D01*
X297374Y79083D01*
X297728Y79612D01*
X298354Y79685D01*
X298446Y79546D01*
X298976Y79193D01*
X299600Y79069D01*
X300224Y79193D01*
X300753Y79546D01*
X301107Y80076D01*
X301231Y80700D01*
X301107Y81324D01*
X300753Y81853D01*
X300224Y82207D01*
X299600Y82331D01*
D02*
G37*
G36*
X283000Y81431D02*
X282376Y81307D01*
X281846Y80954D01*
X281493Y80424D01*
X281369Y79800D01*
X281493Y79176D01*
X281846Y78646D01*
X282376Y78293D01*
X283000Y78169D01*
X283624Y78293D01*
X284154Y78646D01*
X284507Y79176D01*
X284631Y79800D01*
X284507Y80424D01*
X284154Y80954D01*
X283624Y81307D01*
X283000Y81431D01*
D02*
G37*
G36*
X289800Y81231D02*
X289176Y81107D01*
X288647Y80753D01*
X288293Y80224D01*
X288169Y79600D01*
X288293Y78976D01*
X288647Y78447D01*
X289176Y78093D01*
X289800Y77969D01*
X290424Y78093D01*
X290953Y78447D01*
X291307Y78976D01*
X291431Y79600D01*
X291307Y80224D01*
X290953Y80753D01*
X290424Y81107D01*
X289800Y81231D01*
D02*
G37*
G36*
X6500Y81198D02*
Y77200D01*
X10498D01*
X10389Y78022D01*
X9956Y79069D01*
X9267Y79967D01*
X8369Y80656D01*
X7322Y81089D01*
X6500Y81198D01*
D02*
G37*
G36*
X10498Y76600D02*
X6500D01*
Y72602D01*
X7322Y72711D01*
X8369Y73144D01*
X9267Y73833D01*
X9956Y74731D01*
X10389Y75778D01*
X10498Y76600D01*
D02*
G37*
G36*
X93200Y75531D02*
X92576Y75407D01*
X92046Y75054D01*
X91693Y74524D01*
X91569Y73900D01*
X91693Y73276D01*
X92046Y72746D01*
X92576Y72393D01*
X93200Y72269D01*
X93824Y72393D01*
X94353Y72746D01*
X94707Y73276D01*
X94831Y73900D01*
X94707Y74524D01*
X94353Y75054D01*
X93824Y75407D01*
X93200Y75531D01*
D02*
G37*
G36*
X64600Y74431D02*
X63976Y74307D01*
X63446Y73953D01*
X63093Y73424D01*
X62969Y72800D01*
X63093Y72176D01*
X63446Y71646D01*
X63976Y71293D01*
X64600Y71169D01*
X65224Y71293D01*
X65754Y71646D01*
X66107Y72176D01*
X66231Y72800D01*
X66107Y73424D01*
X65754Y73953D01*
X65224Y74307D01*
X64600Y74431D01*
D02*
G37*
G36*
X56253Y74282D02*
X55629Y74158D01*
X55099Y73804D01*
X54746Y73275D01*
X54621Y72650D01*
X54746Y72026D01*
X55099Y71497D01*
X55629Y71143D01*
X56253Y71019D01*
X56877Y71143D01*
X57406Y71497D01*
X57760Y72026D01*
X57884Y72650D01*
X57760Y73275D01*
X57406Y73804D01*
X56877Y74158D01*
X56253Y74282D01*
D02*
G37*
G36*
X96300Y73231D02*
X95676Y73107D01*
X95147Y72754D01*
X94793Y72224D01*
X94669Y71600D01*
X94793Y70976D01*
X95147Y70446D01*
X95676Y70093D01*
X96300Y69969D01*
X96924Y70093D01*
X97453Y70446D01*
X97807Y70976D01*
X97931Y71600D01*
X97807Y72224D01*
X97453Y72754D01*
X96924Y73107D01*
X96300Y73231D01*
D02*
G37*
G36*
X109000Y71131D02*
X108376Y71007D01*
X107846Y70653D01*
X107493Y70124D01*
X107369Y69500D01*
X107493Y68876D01*
X107846Y68347D01*
X108376Y67993D01*
X109000Y67869D01*
X109624Y67993D01*
X110153Y68347D01*
X110507Y68876D01*
X110631Y69500D01*
X110507Y70124D01*
X110153Y70653D01*
X109624Y71007D01*
X109000Y71131D01*
D02*
G37*
G36*
X134800Y70631D02*
X134176Y70507D01*
X133647Y70153D01*
X133293Y69624D01*
X133169Y69000D01*
X133293Y68376D01*
X133647Y67847D01*
X134176Y67493D01*
X134800Y67369D01*
X135424Y67493D01*
X135953Y67847D01*
X136307Y68376D01*
X136431Y69000D01*
X136307Y69624D01*
X135953Y70153D01*
X135424Y70507D01*
X134800Y70631D01*
D02*
G37*
G36*
X86100Y70331D02*
X85476Y70207D01*
X84947Y69854D01*
X84593Y69324D01*
X84469Y68700D01*
X84593Y68076D01*
X84947Y67546D01*
X85476Y67193D01*
X86100Y67069D01*
X86724Y67193D01*
X87253Y67546D01*
X87607Y68076D01*
X87731Y68700D01*
X87607Y69324D01*
X87253Y69854D01*
X86724Y70207D01*
X86100Y70331D01*
D02*
G37*
G36*
X106000Y68331D02*
X105376Y68207D01*
X104847Y67853D01*
X104493Y67324D01*
X104369Y66700D01*
X104493Y66076D01*
X104847Y65547D01*
X105376Y65193D01*
X106000Y65069D01*
X106624Y65193D01*
X107153Y65547D01*
X107507Y66076D01*
X107631Y66700D01*
X107507Y67324D01*
X107153Y67853D01*
X106624Y68207D01*
X106000Y68331D01*
D02*
G37*
G36*
X233000Y67231D02*
X232376Y67107D01*
X231846Y66754D01*
X231493Y66224D01*
X231369Y65600D01*
X231493Y64976D01*
X231846Y64447D01*
X232376Y64093D01*
X233000Y63969D01*
X233624Y64093D01*
X234154Y64447D01*
X234507Y64976D01*
X234631Y65600D01*
X234507Y66224D01*
X234154Y66754D01*
X233624Y67107D01*
X233000Y67231D01*
D02*
G37*
G36*
X78500D02*
X77876Y67107D01*
X77346Y66754D01*
X76993Y66224D01*
X76869Y65600D01*
X76993Y64976D01*
X77346Y64447D01*
X77876Y64093D01*
X78500Y63969D01*
X79124Y64093D01*
X79654Y64447D01*
X80007Y64976D01*
X80131Y65600D01*
X80007Y66224D01*
X79654Y66754D01*
X79124Y67107D01*
X78500Y67231D01*
D02*
G37*
G36*
X32100Y65531D02*
X31476Y65407D01*
X30946Y65053D01*
X30593Y64524D01*
X30469Y63900D01*
X30593Y63276D01*
X30946Y62747D01*
X31476Y62393D01*
X32100Y62269D01*
X32724Y62393D01*
X33253Y62747D01*
X33607Y63276D01*
X33731Y63900D01*
X33607Y64524D01*
X33253Y65053D01*
X32724Y65407D01*
X32100Y65531D01*
D02*
G37*
G36*
X124700Y65131D02*
X124076Y65007D01*
X123547Y64653D01*
X123193Y64124D01*
X123069Y63500D01*
X123193Y62876D01*
X123547Y62347D01*
X124076Y61993D01*
X124700Y61869D01*
X125324Y61993D01*
X125854Y62347D01*
X126207Y62876D01*
X126331Y63500D01*
X126207Y64124D01*
X125854Y64653D01*
X125324Y65007D01*
X124700Y65131D01*
D02*
G37*
G36*
X104600Y63931D02*
X103976Y63807D01*
X103446Y63454D01*
X103093Y62924D01*
X102969Y62300D01*
X103093Y61676D01*
X103446Y61146D01*
X103976Y60793D01*
X104600Y60669D01*
X105224Y60793D01*
X105754Y61146D01*
X106107Y61676D01*
X106231Y62300D01*
X106107Y62924D01*
X105754Y63454D01*
X105224Y63807D01*
X104600Y63931D01*
D02*
G37*
G36*
X132200Y62131D02*
X131576Y62007D01*
X131046Y61654D01*
X130693Y61124D01*
X130569Y60500D01*
X130693Y59876D01*
X131046Y59346D01*
X131576Y58993D01*
X132200Y58869D01*
X132824Y58993D01*
X133353Y59346D01*
X133707Y59876D01*
X133831Y60500D01*
X133707Y61124D01*
X133353Y61654D01*
X132824Y62007D01*
X132200Y62131D01*
D02*
G37*
G36*
X73000Y64231D02*
X72376Y64107D01*
X71846Y63753D01*
X71493Y63224D01*
X71369Y62600D01*
X71493Y61976D01*
X71846Y61446D01*
X72376Y61093D01*
X73000Y60969D01*
X73578Y61084D01*
X73718Y60973D01*
X73937Y60695D01*
X73991Y60616D01*
X73869Y60000D01*
X73993Y59376D01*
X74347Y58846D01*
X74876Y58493D01*
X75500Y58369D01*
X76124Y58493D01*
X76653Y58846D01*
X77007Y59376D01*
X77131Y60000D01*
X77007Y60624D01*
X76653Y61154D01*
X76124Y61507D01*
X75500Y61631D01*
X74922Y61516D01*
X74782Y61627D01*
X74563Y61905D01*
X74509Y61984D01*
X74631Y62600D01*
X74507Y63224D01*
X74154Y63753D01*
X73624Y64107D01*
X73000Y64231D01*
D02*
G37*
G36*
X83600Y58231D02*
X82976Y58107D01*
X82446Y57753D01*
X82093Y57224D01*
X81969Y56600D01*
X82093Y55976D01*
X82446Y55446D01*
X82976Y55093D01*
X83600Y54969D01*
X84224Y55093D01*
X84754Y55446D01*
X85107Y55976D01*
X85231Y56600D01*
X85107Y57224D01*
X84754Y57753D01*
X84224Y58107D01*
X83600Y58231D01*
D02*
G37*
G36*
X140500Y54131D02*
X139876Y54007D01*
X139347Y53654D01*
X138993Y53124D01*
X138869Y52500D01*
X138993Y51876D01*
X139347Y51346D01*
X139876Y50993D01*
X140500Y50869D01*
X141124Y50993D01*
X141654Y51346D01*
X142007Y51876D01*
X142131Y52500D01*
X142007Y53124D01*
X141654Y53654D01*
X141124Y54007D01*
X140500Y54131D01*
D02*
G37*
G36*
X299075Y51848D02*
X298450Y51724D01*
X297921Y51370D01*
X297568Y50841D01*
X297443Y50217D01*
X297568Y49592D01*
X297921Y49063D01*
X298450Y48709D01*
X299075Y48585D01*
X299699Y48709D01*
X300228Y49063D01*
X300582Y49592D01*
X300706Y50217D01*
X300582Y50841D01*
X300228Y51370D01*
X299699Y51724D01*
X299075Y51848D01*
D02*
G37*
G36*
X29700Y51631D02*
X29076Y51507D01*
X28547Y51153D01*
X28193Y50624D01*
X28069Y50000D01*
X28193Y49376D01*
X28547Y48847D01*
X29076Y48493D01*
X29700Y48369D01*
X30324Y48493D01*
X30854Y48847D01*
X31207Y49376D01*
X31331Y50000D01*
X31207Y50624D01*
X30854Y51153D01*
X30324Y51507D01*
X29700Y51631D01*
D02*
G37*
G36*
X104600Y50131D02*
X103976Y50007D01*
X103446Y49654D01*
X103093Y49124D01*
X102969Y48500D01*
X103093Y47876D01*
X103446Y47346D01*
X103976Y46993D01*
X104600Y46869D01*
X105224Y46993D01*
X105754Y47346D01*
X106107Y47876D01*
X106231Y48500D01*
X106107Y49124D01*
X105754Y49654D01*
X105224Y50007D01*
X104600Y50131D01*
D02*
G37*
G36*
X217900Y47031D02*
X217276Y46907D01*
X216746Y46554D01*
X216393Y46024D01*
X216269Y45400D01*
X216393Y44776D01*
X216746Y44247D01*
X217276Y43893D01*
X217900Y43769D01*
X218524Y43893D01*
X219054Y44247D01*
X219407Y44776D01*
X219531Y45400D01*
X219407Y46024D01*
X219054Y46554D01*
X218524Y46907D01*
X217900Y47031D01*
D02*
G37*
G36*
X52800Y43131D02*
X52176Y43007D01*
X51647Y42654D01*
X51293Y42124D01*
X51169Y41500D01*
X51293Y40876D01*
X51647Y40347D01*
X52176Y39993D01*
X52800Y39869D01*
X53424Y39993D01*
X53953Y40347D01*
X54307Y40876D01*
X54431Y41500D01*
X54307Y42124D01*
X53953Y42654D01*
X53424Y43007D01*
X52800Y43131D01*
D02*
G37*
G36*
X100400Y41831D02*
X99776Y41707D01*
X99247Y41353D01*
X98893Y40824D01*
X98769Y40200D01*
X98893Y39576D01*
X99247Y39046D01*
X99776Y38693D01*
X100400Y38569D01*
X101024Y38693D01*
X101553Y39046D01*
X101907Y39576D01*
X102031Y40200D01*
X101907Y40824D01*
X101553Y41353D01*
X101024Y41707D01*
X100400Y41831D01*
D02*
G37*
G36*
X94700Y38731D02*
X94076Y38607D01*
X93546Y38254D01*
X93193Y37724D01*
X93069Y37100D01*
X93193Y36476D01*
X93546Y35947D01*
X94076Y35593D01*
X94700Y35469D01*
X95324Y35593D01*
X95854Y35947D01*
X96207Y36476D01*
X96331Y37100D01*
X96207Y37724D01*
X95854Y38254D01*
X95324Y38607D01*
X94700Y38731D01*
D02*
G37*
G36*
X94100Y34231D02*
X93476Y34107D01*
X92946Y33753D01*
X92593Y33224D01*
X92469Y32600D01*
X92593Y31976D01*
X92946Y31446D01*
X93476Y31093D01*
X94100Y30969D01*
X94724Y31093D01*
X95253Y31446D01*
X95607Y31976D01*
X95731Y32600D01*
X95607Y33224D01*
X95253Y33753D01*
X94724Y34107D01*
X94100Y34231D01*
D02*
G37*
G36*
X104500Y32631D02*
X103876Y32507D01*
X103347Y32153D01*
X102993Y31624D01*
X102869Y31000D01*
X102993Y30376D01*
X103347Y29847D01*
X103876Y29493D01*
X104500Y29369D01*
X105124Y29493D01*
X105654Y29847D01*
X106007Y30376D01*
X106131Y31000D01*
X106007Y31624D01*
X105654Y32153D01*
X105124Y32507D01*
X104500Y32631D01*
D02*
G37*
G36*
X220000Y42837D02*
X218471Y42686D01*
X217001Y42240D01*
X215646Y41516D01*
X214458Y40542D01*
X213484Y39354D01*
X212760Y37999D01*
X212314Y36529D01*
X212163Y35000D01*
X212314Y33471D01*
X212760Y32001D01*
X213484Y30646D01*
X214458Y29458D01*
X215646Y28484D01*
X217001Y27760D01*
X218471Y27314D01*
X220000Y27163D01*
X221529Y27314D01*
X222999Y27760D01*
X224354Y28484D01*
X225542Y29458D01*
X226516Y30646D01*
X227240Y32001D01*
X227686Y33471D01*
X227837Y35000D01*
X227686Y36529D01*
X227240Y37999D01*
X226516Y39354D01*
X225542Y40542D01*
X224354Y41516D01*
X222999Y42240D01*
X221529Y42686D01*
X220000Y42837D01*
D02*
G37*
G36*
X216700Y26731D02*
X216076Y26607D01*
X215546Y26254D01*
X215193Y25724D01*
X215069Y25100D01*
X215193Y24476D01*
X215546Y23946D01*
X216076Y23593D01*
X216111Y23586D01*
Y22974D01*
X215776Y22907D01*
X215247Y22554D01*
X214893Y22024D01*
X214769Y21400D01*
X214893Y20776D01*
X215247Y20246D01*
X215776Y19893D01*
X216400Y19769D01*
X217024Y19893D01*
X217553Y20246D01*
X217907Y20776D01*
X218031Y21400D01*
X217907Y22024D01*
X217553Y22554D01*
X217024Y22907D01*
X216988Y22914D01*
Y23526D01*
X217324Y23593D01*
X217853Y23946D01*
X218207Y24476D01*
X218331Y25100D01*
X218207Y25724D01*
X217853Y26254D01*
X217324Y26607D01*
X216700Y26731D01*
D02*
G37*
G36*
X249000Y17431D02*
X248376Y17307D01*
X247847Y16953D01*
X247493Y16424D01*
X247369Y15800D01*
X247493Y15176D01*
X247847Y14647D01*
X248376Y14293D01*
X249000Y14169D01*
X249624Y14293D01*
X250153Y14647D01*
X250507Y15176D01*
X250631Y15800D01*
X250507Y16424D01*
X250153Y16953D01*
X249624Y17307D01*
X249000Y17431D01*
D02*
G37*
G36*
X210000Y16631D02*
X209376Y16507D01*
X208846Y16153D01*
X208493Y15624D01*
X208369Y15000D01*
X208493Y14376D01*
X208846Y13847D01*
X209376Y13493D01*
X210000Y13369D01*
X210624Y13493D01*
X211154Y13847D01*
X211507Y14376D01*
X211631Y15000D01*
X211507Y15624D01*
X211154Y16153D01*
X210624Y16507D01*
X210000Y16631D01*
D02*
G37*
G36*
X200000D02*
X199376Y16507D01*
X198846Y16153D01*
X198493Y15624D01*
X198369Y15000D01*
X198493Y14376D01*
X198846Y13847D01*
X199376Y13493D01*
X200000Y13369D01*
X200624Y13493D01*
X201153Y13847D01*
X201507Y14376D01*
X201631Y15000D01*
X201507Y15624D01*
X201153Y16153D01*
X200624Y16507D01*
X200000Y16631D01*
D02*
G37*
G36*
X190000D02*
X189376Y16507D01*
X188847Y16153D01*
X188493Y15624D01*
X188369Y15000D01*
X188493Y14376D01*
X188847Y13847D01*
X189376Y13493D01*
X190000Y13369D01*
X190624Y13493D01*
X191154Y13847D01*
X191507Y14376D01*
X191631Y15000D01*
X191507Y15624D01*
X191154Y16153D01*
X190624Y16507D01*
X190000Y16631D01*
D02*
G37*
G36*
X180000D02*
X179376Y16507D01*
X178847Y16153D01*
X178493Y15624D01*
X178369Y15000D01*
X178493Y14376D01*
X178847Y13847D01*
X179376Y13493D01*
X180000Y13369D01*
X180624Y13493D01*
X181154Y13847D01*
X181507Y14376D01*
X181631Y15000D01*
X181507Y15624D01*
X181154Y16153D01*
X180624Y16507D01*
X180000Y16631D01*
D02*
G37*
G36*
X170000D02*
X169376Y16507D01*
X168846Y16153D01*
X168493Y15624D01*
X168369Y15000D01*
X168493Y14376D01*
X168846Y13847D01*
X169376Y13493D01*
X170000Y13369D01*
X170624Y13493D01*
X171153Y13847D01*
X171507Y14376D01*
X171631Y15000D01*
X171507Y15624D01*
X171153Y16153D01*
X170624Y16507D01*
X170000Y16631D01*
D02*
G37*
G36*
X160000D02*
X159376Y16507D01*
X158846Y16153D01*
X158493Y15624D01*
X158369Y15000D01*
X158493Y14376D01*
X158846Y13847D01*
X159376Y13493D01*
X160000Y13369D01*
X160624Y13493D01*
X161153Y13847D01*
X161507Y14376D01*
X161631Y15000D01*
X161507Y15624D01*
X161153Y16153D01*
X160624Y16507D01*
X160000Y16631D01*
D02*
G37*
G36*
X110000D02*
X109376Y16507D01*
X108846Y16153D01*
X108493Y15624D01*
X108369Y15000D01*
X108493Y14376D01*
X108846Y13847D01*
X109376Y13493D01*
X110000Y13369D01*
X110624Y13493D01*
X111153Y13847D01*
X111507Y14376D01*
X111631Y15000D01*
X111507Y15624D01*
X111153Y16153D01*
X110624Y16507D01*
X110000Y16631D01*
D02*
G37*
G36*
X100000Y16631D02*
X99376Y16507D01*
X98847Y16153D01*
X98493Y15624D01*
X98369Y15000D01*
X98493Y14376D01*
X98847Y13846D01*
X99376Y13493D01*
X100000Y13369D01*
X100624Y13493D01*
X101154Y13846D01*
X101507Y14376D01*
X101631Y15000D01*
X101507Y15624D01*
X101154Y16153D01*
X100624Y16507D01*
X100000Y16631D01*
D02*
G37*
G36*
X240413Y14053D02*
X239789Y13928D01*
X239260Y13575D01*
X238906Y13046D01*
X238782Y12421D01*
X238906Y11797D01*
X239260Y11268D01*
X239789Y10914D01*
X240413Y10790D01*
X241038Y10914D01*
X241567Y11268D01*
X241921Y11797D01*
X242045Y12421D01*
X241921Y13046D01*
X241567Y13575D01*
X241038Y13928D01*
X240413Y14053D01*
D02*
G37*
G36*
X15000Y22837D02*
X13471Y22686D01*
X12001Y22240D01*
X10646Y21516D01*
X9458Y20542D01*
X8484Y19354D01*
X7760Y17999D01*
X7314Y16529D01*
X7163Y15000D01*
X7314Y13471D01*
X7760Y12001D01*
X8484Y10646D01*
X9458Y9458D01*
X10646Y8484D01*
X12001Y7760D01*
X13471Y7314D01*
X15000Y7163D01*
X16529Y7314D01*
X17999Y7760D01*
X19354Y8484D01*
X20542Y9458D01*
X21516Y10646D01*
X22240Y12001D01*
X22686Y13471D01*
X22837Y15000D01*
X22686Y16529D01*
X22240Y17999D01*
X21516Y19354D01*
X20542Y20542D01*
X19354Y21516D01*
X17999Y22240D01*
X16529Y22686D01*
X15000Y22837D01*
D02*
G37*
%LPD*%
D13*
X102000Y174000D02*
D03*
Y166000D02*
D03*
X72000Y170000D02*
D03*
D46*
X794171Y-40800D02*
Y253200D01*
X907171D01*
Y-40800D02*
Y253200D01*
X794171Y-40800D02*
X907171D01*
X810171Y238448D02*
X887171D01*
X344332Y-111135D02*
X342999Y-109803D01*
X340333D01*
X339000Y-111135D01*
Y-116467D01*
X340333Y-117800D01*
X342999D01*
X344332Y-116467D01*
X350996Y-109803D02*
X348330D01*
X346997Y-111135D01*
Y-116467D01*
X348330Y-117800D01*
X350996D01*
X352329Y-116467D01*
Y-111135D01*
X350996Y-109803D01*
X354995Y-117800D02*
Y-109803D01*
X360326Y-117800D01*
Y-109803D01*
X368324D02*
X362992D01*
Y-113801D01*
X365658D01*
X362992D01*
Y-117800D01*
X370990Y-109803D02*
X373655D01*
X372323D01*
Y-117800D01*
X370990D01*
X373655D01*
X377654Y-109803D02*
Y-117800D01*
X381653D01*
X382986Y-116467D01*
Y-111135D01*
X381653Y-109803D01*
X377654D01*
X390983D02*
X385652D01*
Y-117800D01*
X390983D01*
X385652Y-113801D02*
X388317D01*
X393649Y-117800D02*
Y-109803D01*
X398981Y-117800D01*
Y-109803D01*
X401646D02*
X406978D01*
X404312D01*
Y-117800D01*
X409644Y-109803D02*
X412310D01*
X410977D01*
Y-117800D01*
X409644D01*
X412310D01*
X416308D02*
Y-112468D01*
X418974Y-109803D01*
X421640Y-112468D01*
Y-117800D01*
Y-113801D01*
X416308D01*
X424306Y-109803D02*
Y-117800D01*
X429637D01*
X884000Y606200D02*
Y611198D01*
X886499D01*
X887332Y610365D01*
Y608699D01*
X886499Y607866D01*
X884000D01*
X892331Y611198D02*
X890664D01*
X891498D01*
Y607033D01*
X890664Y606200D01*
X889831D01*
X888998Y607033D01*
X893997Y611198D02*
Y606200D01*
X896496D01*
X897329Y607033D01*
Y607866D01*
X896496Y608699D01*
X893997D01*
X896496D01*
X897329Y609532D01*
Y610365D01*
X896496Y611198D01*
X893997D01*
X818000Y610365D02*
X818833Y611198D01*
X820499D01*
X821332Y610365D01*
Y609532D01*
X820499Y608699D01*
X819666D01*
X820499D01*
X821332Y607866D01*
Y607033D01*
X820499Y606200D01*
X818833D01*
X818000Y607033D01*
X822998Y606200D02*
X826331Y609532D01*
X827997Y610365D02*
X828830Y611198D01*
X830496D01*
X831329Y610365D01*
Y609532D01*
X830496Y608699D01*
X829663D01*
X830496D01*
X831329Y607866D01*
Y607033D01*
X830496Y606200D01*
X828830D01*
X827997Y607033D01*
X832995Y606200D02*
X834661D01*
X833828D01*
Y611198D01*
X832995Y610365D01*
X837160Y606200D02*
X840493Y609532D01*
X845491Y606200D02*
X842159D01*
X845491Y609532D01*
Y610365D01*
X844658Y611198D01*
X842992D01*
X842159Y610365D01*
X847157D02*
X847990Y611198D01*
X849656D01*
X850490Y610365D01*
Y607033D01*
X849656Y606200D01*
X847990D01*
X847157Y607033D01*
Y610365D01*
X852156Y606200D02*
X853822D01*
X852989D01*
Y611198D01*
X852156Y610365D01*
X859653Y611198D02*
X857987Y610365D01*
X856321Y608699D01*
Y607033D01*
X857154Y606200D01*
X858820D01*
X859653Y607033D01*
Y607866D01*
X858820Y608699D01*
X856321D01*
X630000Y611198D02*
Y607033D01*
X630833Y606200D01*
X632499D01*
X633332Y607033D01*
Y611198D01*
X634998Y604534D02*
Y609532D01*
X637498D01*
X638331Y608699D01*
Y607033D01*
X637498Y606200D01*
X634998D01*
X643329Y611198D02*
Y606200D01*
X640830D01*
X639997Y607033D01*
Y608699D01*
X640830Y609532D01*
X643329D01*
X645828D02*
X647494D01*
X648327Y608699D01*
Y606200D01*
X645828D01*
X644995Y607033D01*
X645828Y607866D01*
X648327D01*
X650827Y610365D02*
Y609532D01*
X649994D01*
X651660D01*
X650827D01*
Y607033D01*
X651660Y606200D01*
X656658D02*
X654992D01*
X654159Y607033D01*
Y608699D01*
X654992Y609532D01*
X656658D01*
X657491Y608699D01*
Y607866D01*
X654159D01*
X662490Y611198D02*
Y606200D01*
X659990D01*
X659157Y607033D01*
Y608699D01*
X659990Y609532D01*
X662490D01*
X664989Y605367D02*
X665822Y606200D01*
Y607033D01*
X664989D01*
Y606200D01*
X665822D01*
X664989Y605367D01*
X664156Y604534D01*
X674985Y606200D02*
Y610365D01*
Y608699D01*
X674152D01*
X675818D01*
X674985D01*
Y610365D01*
X675818Y611198D01*
X678318Y606200D02*
X679984D01*
X679151D01*
Y609532D01*
X678318D01*
X682483D02*
X685815Y606200D01*
X684149Y607866D01*
X685815Y609532D01*
X682483Y606200D01*
X689981D02*
X688314D01*
X687481Y607033D01*
Y608699D01*
X688314Y609532D01*
X689981D01*
X690814Y608699D01*
Y607866D01*
X687481D01*
X695812Y611198D02*
Y606200D01*
X693313D01*
X692480Y607033D01*
Y608699D01*
X693313Y609532D01*
X695812D01*
X705809Y607033D02*
Y610365D01*
X704976Y611198D01*
X703310D01*
X702477Y610365D01*
Y607033D01*
X703310Y606200D01*
X704976D01*
X704143Y607866D02*
X705809Y606200D01*
X704976D02*
X705809Y607033D01*
X707475Y606200D02*
X709141D01*
X708308D01*
Y611198D01*
X707475Y610365D01*
X712473Y605367D02*
X713306Y606200D01*
Y607033D01*
X712473D01*
Y606200D01*
X713306D01*
X712473Y605367D01*
X711640Y604534D01*
X721637Y611198D02*
Y607033D01*
X722470Y606200D01*
X724136D01*
X724969Y607033D01*
Y611198D01*
X729968Y606200D02*
X726635D01*
X729968Y609532D01*
Y610365D01*
X729135Y611198D01*
X727468D01*
X726635Y610365D01*
X731634Y606200D02*
Y607033D01*
X732467D01*
Y606200D01*
X731634D01*
X735799Y607033D02*
X736632Y606200D01*
X738298D01*
X739131Y607033D01*
Y610365D01*
X738298Y611198D01*
X736632D01*
X735799Y610365D01*
Y609532D01*
X736632Y608699D01*
X739131D01*
X740797Y611198D02*
X744130D01*
Y610365D01*
X740797Y607033D01*
Y606200D01*
X751627Y610365D02*
Y609532D01*
X750794D01*
X752460D01*
X751627D01*
Y607033D01*
X752460Y606200D01*
X755793D02*
X757459D01*
X758292Y607033D01*
Y608699D01*
X757459Y609532D01*
X755793D01*
X754959Y608699D01*
Y607033D01*
X755793Y606200D01*
X768289Y610365D02*
X767455Y611198D01*
X765789D01*
X764956Y610365D01*
Y607033D01*
X765789Y606200D01*
X767455D01*
X768289Y607033D01*
Y608699D01*
X766622D01*
X769955Y606200D02*
Y611198D01*
X773287Y606200D01*
Y611198D01*
X774953D02*
Y606200D01*
X777452D01*
X778285Y607033D01*
Y610365D01*
X777452Y611198D01*
X774953D01*
X587000Y609532D02*
X588666Y606200D01*
X590332Y609532D01*
X591998Y611198D02*
Y606200D01*
X594498D01*
X595331Y607033D01*
Y607866D01*
X594498Y608699D01*
X591998D01*
X594498D01*
X595331Y609532D01*
Y610365D01*
X594498Y611198D01*
X591998D01*
X587000Y624532D02*
X588666Y621200D01*
X590332Y624532D01*
X591998Y621200D02*
Y624532D01*
X593665Y626198D01*
X595331Y624532D01*
Y621200D01*
Y623699D01*
X591998D01*
X630000Y626198D02*
Y622033D01*
X630833Y621200D01*
X632499D01*
X633332Y622033D01*
Y626198D01*
X634998Y619534D02*
Y624532D01*
X637498D01*
X638331Y623699D01*
Y622033D01*
X637498Y621200D01*
X634998D01*
X643329Y626198D02*
Y621200D01*
X640830D01*
X639997Y622033D01*
Y623699D01*
X640830Y624532D01*
X643329D01*
X645828D02*
X647494D01*
X648327Y623699D01*
Y621200D01*
X645828D01*
X644995Y622033D01*
X645828Y622866D01*
X648327D01*
X650827Y625365D02*
Y624532D01*
X649994D01*
X651660D01*
X650827D01*
Y622033D01*
X651660Y621200D01*
X656658D02*
X654992D01*
X654159Y622033D01*
Y623699D01*
X654992Y624532D01*
X656658D01*
X657491Y623699D01*
Y622866D01*
X654159D01*
X662490Y626198D02*
Y621200D01*
X659990D01*
X659157Y622033D01*
Y623699D01*
X659990Y624532D01*
X662490D01*
X664989Y620367D02*
X665822Y621200D01*
Y622033D01*
X664989D01*
Y621200D01*
X665822D01*
X664989Y620367D01*
X664156Y619534D01*
X674152Y621200D02*
X675818D01*
X674985D01*
Y624532D01*
X674152D01*
X678318Y621200D02*
Y624532D01*
X680817D01*
X681650Y623699D01*
Y621200D01*
X683316Y624532D02*
X684982Y621200D01*
X686648Y624532D01*
X690814Y621200D02*
X689148D01*
X688314Y622033D01*
Y623699D01*
X689148Y624532D01*
X690814D01*
X691647Y623699D01*
Y622866D01*
X688314D01*
X693313Y624532D02*
Y621200D01*
Y622866D01*
X694146Y623699D01*
X694979Y624532D01*
X695812D01*
X699144Y625365D02*
Y624532D01*
X698311D01*
X699977D01*
X699144D01*
Y622033D01*
X699977Y621200D01*
X704976D02*
X703310D01*
X702477Y622033D01*
Y623699D01*
X703310Y624532D01*
X704976D01*
X705809Y623699D01*
Y622866D01*
X702477D01*
X710807Y626198D02*
Y621200D01*
X708308D01*
X707475Y622033D01*
Y623699D01*
X708308Y624532D01*
X710807D01*
X717472Y626198D02*
Y621200D01*
X720804D01*
X725802Y626198D02*
X722470D01*
Y621200D01*
X725802D01*
X722470Y623699D02*
X724136D01*
X727468Y626198D02*
Y621200D01*
X729968D01*
X730801Y622033D01*
Y625365D01*
X729968Y626198D01*
X727468D01*
X737465Y619534D02*
Y624532D01*
X739964D01*
X740797Y623699D01*
Y622033D01*
X739964Y621200D01*
X737465D01*
X743297D02*
X744963D01*
X745796Y622033D01*
Y623699D01*
X744963Y624532D01*
X743297D01*
X742464Y623699D01*
Y622033D01*
X743297Y621200D01*
X747462D02*
X749128D01*
X748295D01*
Y626198D01*
X747462D01*
X752460Y624532D02*
X754127D01*
X754959Y623699D01*
Y621200D01*
X752460D01*
X751627Y622033D01*
X752460Y622866D01*
X754959D01*
X756626Y624532D02*
Y621200D01*
Y622866D01*
X757459Y623699D01*
X758292Y624532D01*
X759125D01*
X761624Y621200D02*
X763290D01*
X762457D01*
Y624532D01*
X761624D01*
X766622Y625365D02*
Y624532D01*
X765789D01*
X767455D01*
X766622D01*
Y622033D01*
X767455Y621200D01*
X769955Y624532D02*
Y622033D01*
X770788Y621200D01*
X773287D01*
Y620367D01*
X772454Y619534D01*
X771621D01*
X773287Y621200D02*
Y624532D01*
X821332Y621200D02*
X818000D01*
X821332Y624532D01*
Y625365D01*
X820499Y626198D01*
X818833D01*
X818000Y625365D01*
X822998Y621200D02*
X826331Y624532D01*
X827997Y621200D02*
X829663D01*
X828830D01*
Y626198D01*
X827997Y625365D01*
X832162D02*
X832995Y626198D01*
X834661D01*
X835494Y625365D01*
Y622033D01*
X834661Y621200D01*
X832995D01*
X832162Y622033D01*
Y625365D01*
X837160Y621200D02*
X840493Y624532D01*
X845491Y621200D02*
X842159D01*
X845491Y624532D01*
Y625365D01*
X844658Y626198D01*
X842992D01*
X842159Y625365D01*
X847157D02*
X847990Y626198D01*
X849656D01*
X850490Y625365D01*
Y622033D01*
X849656Y621200D01*
X847990D01*
X847157Y622033D01*
Y625365D01*
X852156Y621200D02*
X853822D01*
X852989D01*
Y626198D01*
X852156Y625365D01*
X859653Y626198D02*
X857987Y625365D01*
X856321Y623699D01*
Y622033D01*
X857154Y621200D01*
X858820D01*
X859653Y622033D01*
Y622866D01*
X858820Y623699D01*
X856321D01*
X884000Y626198D02*
Y621200D01*
X886499D01*
X887332Y622033D01*
Y625365D01*
X886499Y626198D01*
X884000D01*
X892331Y625365D02*
X891498Y626198D01*
X889831D01*
X888998Y625365D01*
Y622033D01*
X889831Y621200D01*
X891498D01*
X892331Y622033D01*
X893997Y621200D02*
Y626198D01*
X897329Y621200D01*
Y626198D01*
X884000Y636200D02*
Y641198D01*
X886499D01*
X887332Y640365D01*
Y638699D01*
X886499Y637866D01*
X884000D01*
X892331Y641198D02*
X890664D01*
X891498D01*
Y637033D01*
X890664Y636200D01*
X889831D01*
X888998Y637033D01*
X893997Y641198D02*
Y636200D01*
X896496D01*
X897329Y637033D01*
Y637866D01*
X896496Y638699D01*
X893997D01*
X896496D01*
X897329Y639532D01*
Y640365D01*
X896496Y641198D01*
X893997D01*
X818000Y635200D02*
X819666D01*
X818833D01*
Y640198D01*
X818000Y639365D01*
X825498Y635200D02*
X822165D01*
X825498Y638532D01*
Y639365D01*
X824664Y640198D01*
X822998D01*
X822165Y639365D01*
X827164Y635200D02*
X830496Y638532D01*
X832162Y635200D02*
X833828D01*
X832995D01*
Y640198D01*
X832162Y639365D01*
X836327Y635200D02*
X837994D01*
X837160D01*
Y640198D01*
X836327Y639365D01*
X840493Y635200D02*
X843825Y638532D01*
X848823Y635200D02*
X845491D01*
X848823Y638532D01*
Y639365D01*
X847990Y640198D01*
X846324D01*
X845491Y639365D01*
X850490D02*
X851322Y640198D01*
X852989D01*
X853822Y639365D01*
Y636033D01*
X852989Y635200D01*
X851322D01*
X850490Y636033D01*
Y639365D01*
X855488Y635200D02*
X857154D01*
X856321D01*
Y640198D01*
X855488Y639365D01*
X862985Y640198D02*
X859653D01*
Y637699D01*
X861319Y638532D01*
X862152D01*
X862985Y637699D01*
Y636033D01*
X862152Y635200D01*
X860486D01*
X859653Y636033D01*
X630000Y636200D02*
Y639532D01*
X631666Y641198D01*
X633332Y639532D01*
Y636200D01*
Y638699D01*
X630000D01*
X638331Y641198D02*
Y636200D01*
X635831D01*
X634998Y637033D01*
Y638699D01*
X635831Y639532D01*
X638331D01*
X643329Y641198D02*
Y636200D01*
X640830D01*
X639997Y637033D01*
Y638699D01*
X640830Y639532D01*
X643329D01*
X647494Y636200D02*
X645828D01*
X644995Y637033D01*
Y638699D01*
X645828Y639532D01*
X647494D01*
X648327Y638699D01*
Y637866D01*
X644995D01*
X653326Y641198D02*
Y636200D01*
X650827D01*
X649994Y637033D01*
Y638699D01*
X650827Y639532D01*
X653326D01*
X663322D02*
X660823D01*
X659990Y638699D01*
Y637033D01*
X660823Y636200D01*
X663322D01*
X665822D02*
X667488D01*
X668321Y637033D01*
Y638699D01*
X667488Y639532D01*
X665822D01*
X664989Y638699D01*
Y637033D01*
X665822Y636200D01*
X669987D02*
Y639532D01*
X672486D01*
X673319Y638699D01*
Y636200D01*
X674985D02*
Y639532D01*
X677485D01*
X678318Y638699D01*
Y636200D01*
X682483D02*
X680817D01*
X679984Y637033D01*
Y638699D01*
X680817Y639532D01*
X682483D01*
X683316Y638699D01*
Y637866D01*
X679984D01*
X688314Y639532D02*
X685815D01*
X684982Y638699D01*
Y637033D01*
X685815Y636200D01*
X688314D01*
X690814Y640365D02*
Y639532D01*
X689981D01*
X691647D01*
X690814D01*
Y637033D01*
X691647Y636200D01*
X694146D02*
X695812D01*
X694979D01*
Y639532D01*
X694146D01*
X698311D02*
X699977Y636200D01*
X701644Y639532D01*
X703310Y636200D02*
X704976D01*
X704143D01*
Y639532D01*
X703310D01*
X708308Y640365D02*
Y639532D01*
X707475D01*
X709141D01*
X708308D01*
Y637033D01*
X709141Y636200D01*
X711640Y639532D02*
Y637033D01*
X712473Y636200D01*
X714972D01*
Y635367D01*
X714139Y634534D01*
X713306D01*
X714972Y636200D02*
Y639532D01*
X722470D02*
X724136D01*
X724969Y638699D01*
Y636200D01*
X722470D01*
X721637Y637033D01*
X722470Y637866D01*
X724969D01*
X726635Y636200D02*
Y639532D01*
X729135D01*
X729968Y638699D01*
Y636200D01*
X734966Y641198D02*
Y636200D01*
X732467D01*
X731634Y637033D01*
Y638699D01*
X732467Y639532D01*
X734966D01*
X741631Y636200D02*
Y639532D01*
X743297Y641198D01*
X744963Y639532D01*
Y636200D01*
Y638699D01*
X741631D01*
X747462Y640365D02*
Y639532D01*
X746629D01*
X748295D01*
X747462D01*
Y637033D01*
X748295Y636200D01*
X750794D02*
Y639532D01*
X751627D01*
X752460Y638699D01*
Y636200D01*
Y638699D01*
X753293Y639532D01*
X754127Y638699D01*
Y636200D01*
X758292D02*
X756626D01*
X755793Y637033D01*
Y638699D01*
X756626Y639532D01*
X758292D01*
X759125Y638699D01*
Y637866D01*
X755793D01*
X760791Y636200D02*
X762457D01*
X761624D01*
Y641198D01*
X760791D01*
X769955Y634534D02*
Y639532D01*
X772454D01*
X773287Y638699D01*
Y637033D01*
X772454Y636200D01*
X769955D01*
X774953Y639532D02*
Y636200D01*
Y637866D01*
X775786Y638699D01*
X776619Y639532D01*
X777452D01*
X780785Y636200D02*
X782451D01*
X783284Y637033D01*
Y638699D01*
X782451Y639532D01*
X780785D01*
X779951Y638699D01*
Y637033D01*
X780785Y636200D01*
X786616Y634534D02*
X787449D01*
X788282Y635367D01*
Y639532D01*
X785783D01*
X784950Y638699D01*
Y637033D01*
X785783Y636200D01*
X788282D01*
X587000Y639532D02*
X588666Y636200D01*
X590332Y639532D01*
X595331Y636200D02*
X591998D01*
X595331Y639532D01*
Y640365D01*
X594498Y641198D01*
X592831D01*
X591998Y640365D01*
X501000Y-113802D02*
X502000Y-112802D01*
X503999D01*
X504999Y-113802D01*
Y-114801D01*
X503999Y-115801D01*
X502999D01*
X503999D01*
X504999Y-116801D01*
Y-117800D01*
X503999Y-118800D01*
X502000D01*
X501000Y-117800D01*
X510997Y-118800D02*
X506998D01*
X510997Y-114801D01*
Y-113802D01*
X509997Y-112802D01*
X507998D01*
X506998Y-113802D01*
X512996D02*
X513996Y-112802D01*
X515995D01*
X516995Y-113802D01*
Y-117800D01*
X515995Y-118800D01*
X513996D01*
X512996Y-117800D01*
Y-113802D01*
X518994Y-115801D02*
X522993D01*
X524992Y-113802D02*
X525992Y-112802D01*
X527991D01*
X528991Y-113802D01*
Y-117800D01*
X527991Y-118800D01*
X525992D01*
X524992Y-117800D01*
Y-113802D01*
X530990D02*
X531990Y-112802D01*
X533989D01*
X534989Y-113802D01*
Y-117800D01*
X533989Y-118800D01*
X531990D01*
X530990Y-117800D01*
Y-113802D01*
X536988D02*
X537988Y-112802D01*
X539987D01*
X540987Y-113802D01*
Y-117800D01*
X539987Y-118800D01*
X537988D01*
X536988Y-117800D01*
Y-113802D01*
X546985Y-112802D02*
X542986D01*
Y-115801D01*
X544986Y-114801D01*
X545986D01*
X546985Y-115801D01*
Y-117800D01*
X545986Y-118800D01*
X543986D01*
X542986Y-117800D01*
X548984Y-113802D02*
X549984Y-112802D01*
X551983D01*
X552983Y-113802D01*
Y-117800D01*
X551983Y-118800D01*
X549984D01*
X548984Y-117800D01*
Y-113802D01*
X889000Y657198D02*
Y651200D01*
X891999D01*
X892999Y652200D01*
Y653199D01*
X891999Y654199D01*
X889000D01*
X891999D01*
X892999Y655199D01*
Y656198D01*
X891999Y657198D01*
X889000D01*
X894998D02*
Y656198D01*
X896997Y654199D01*
X898997Y656198D01*
Y657198D01*
X896997Y654199D02*
Y651200D01*
X826000Y657198D02*
Y651200D01*
X828999D01*
X829999Y652200D01*
Y656198D01*
X828999Y657198D01*
X826000D01*
X831998Y651200D02*
Y655199D01*
X833997Y657198D01*
X835997Y655199D01*
Y651200D01*
Y654199D01*
X831998D01*
X837996Y657198D02*
X841995D01*
X839995D01*
Y651200D01*
X847993Y657198D02*
X843994D01*
Y651200D01*
X847993D01*
X843994Y654199D02*
X845994D01*
X630000Y657198D02*
Y651200D01*
X632999D01*
X633999Y652200D01*
Y656198D01*
X632999Y657198D01*
X630000D01*
X639997D02*
X635998D01*
Y651200D01*
X639997D01*
X635998Y654199D02*
X637997D01*
X645995Y656198D02*
X644995Y657198D01*
X642996D01*
X641996Y656198D01*
Y655199D01*
X642996Y654199D01*
X644995D01*
X645995Y653199D01*
Y652200D01*
X644995Y651200D01*
X642996D01*
X641996Y652200D01*
X651993Y656198D02*
X650993Y657198D01*
X648994D01*
X647994Y656198D01*
Y652200D01*
X648994Y651200D01*
X650993D01*
X651993Y652200D01*
X653992Y651200D02*
Y657198D01*
X656991D01*
X657991Y656198D01*
Y654199D01*
X656991Y653199D01*
X653992D01*
X655992D02*
X657991Y651200D01*
X659990Y657198D02*
X661990D01*
X660990D01*
Y651200D01*
X659990D01*
X661990D01*
X664989D02*
Y657198D01*
X667988D01*
X668987Y656198D01*
Y654199D01*
X667988Y653199D01*
X664989D01*
X670987Y657198D02*
X674986D01*
X672986D01*
Y651200D01*
X676985Y657198D02*
X678984D01*
X677985D01*
Y651200D01*
X676985D01*
X678984D01*
X684982Y657198D02*
X682983D01*
X681983Y656198D01*
Y652200D01*
X682983Y651200D01*
X684982D01*
X685982Y652200D01*
Y656198D01*
X684982Y657198D01*
X687981Y651200D02*
Y657198D01*
X691980Y651200D01*
Y657198D01*
X587000Y651200D02*
Y657198D01*
X589999D01*
X590999Y656198D01*
Y654199D01*
X589999Y653199D01*
X587000D01*
X588999D02*
X590999Y651200D01*
X596997Y657198D02*
X592998D01*
Y651200D01*
X596997D01*
X592998Y654199D02*
X594997D01*
X598996Y657198D02*
Y653199D01*
X600995Y651200D01*
X602995Y653199D01*
Y657198D01*
X728000Y668200D02*
Y676197D01*
X731999D01*
X733332Y674864D01*
Y672199D01*
X731999Y670866D01*
X728000D01*
X730666D02*
X733332Y668200D01*
X741329Y676197D02*
X735997D01*
Y668200D01*
X741329D01*
X735997Y672199D02*
X738663D01*
X743995Y676197D02*
Y670866D01*
X746661Y668200D01*
X749326Y670866D01*
Y676197D01*
X751992D02*
X754658D01*
X753325D01*
Y668200D01*
X751992D01*
X754658D01*
X763988Y674864D02*
X762655Y676197D01*
X759990D01*
X758657Y674864D01*
Y673532D01*
X759990Y672199D01*
X762655D01*
X763988Y670866D01*
Y669533D01*
X762655Y668200D01*
X759990D01*
X758657Y669533D01*
X766654Y676197D02*
X769320D01*
X767987D01*
Y668200D01*
X766654D01*
X769320D01*
X777317Y676197D02*
X774652D01*
X773319Y674864D01*
Y669533D01*
X774652Y668200D01*
X777317D01*
X778650Y669533D01*
Y674864D01*
X777317Y676197D01*
X781316Y668200D02*
Y676197D01*
X786648Y668200D01*
Y676197D01*
X669000Y-82803D02*
Y-90800D01*
X672999D01*
X674332Y-89467D01*
Y-88134D01*
X672999Y-86801D01*
X669000D01*
X672999D01*
X674332Y-85468D01*
Y-84136D01*
X672999Y-82803D01*
X669000D01*
X676997Y-90800D02*
Y-82803D01*
X679663Y-85468D01*
X682329Y-82803D01*
Y-90800D01*
X684995Y-82803D02*
Y-90800D01*
X688994D01*
X690326Y-89467D01*
Y-84136D01*
X688994Y-82803D01*
X684995D01*
X692992Y-86801D02*
X698324D01*
X700990Y-84136D02*
X702322Y-82803D01*
X704988D01*
X706321Y-84136D01*
Y-85468D01*
X704988Y-86801D01*
X703655D01*
X704988D01*
X706321Y-88134D01*
Y-89467D01*
X704988Y-90800D01*
X702322D01*
X700990Y-89467D01*
X708987Y-84136D02*
X710320Y-82803D01*
X712986D01*
X714319Y-84136D01*
Y-89467D01*
X712986Y-90800D01*
X710320D01*
X708987Y-89467D01*
Y-84136D01*
X716985D02*
X718317Y-82803D01*
X720983D01*
X722316Y-84136D01*
Y-89467D01*
X720983Y-90800D01*
X718317D01*
X716985Y-89467D01*
Y-84136D01*
X724982Y-86801D02*
X730313D01*
X738311Y-82803D02*
X732979D01*
Y-90800D01*
X738311D01*
X732979Y-86801D02*
X735645D01*
X740977Y-85468D02*
X743643Y-90800D01*
X746308Y-85468D01*
X750307D02*
X752973D01*
X754306Y-86801D01*
Y-90800D01*
X750307D01*
X748974Y-89467D01*
X750307Y-88134D01*
X754306D01*
X756972Y-90800D02*
X759637D01*
X758304D01*
Y-82803D01*
X756972D01*
X863717Y-84992D02*
X866382Y-90324D01*
X869048Y-84992D01*
X871714Y-82326D02*
Y-90324D01*
X875713D01*
X877046Y-88991D01*
Y-87658D01*
X875713Y-86325D01*
X871714D01*
X875713D01*
X877046Y-84992D01*
Y-83659D01*
X875713Y-82326D01*
X871714D01*
X669000Y-58803D02*
Y-66800D01*
X672999D01*
X674332Y-65467D01*
Y-64134D01*
X672999Y-62801D01*
X669000D01*
X672999D01*
X674332Y-61468D01*
Y-60136D01*
X672999Y-58803D01*
X669000D01*
X676997Y-66800D02*
Y-58803D01*
X679663Y-61468D01*
X682329Y-58803D01*
Y-66800D01*
X684995Y-58803D02*
Y-66800D01*
X688994D01*
X690326Y-65467D01*
Y-60136D01*
X688994Y-58803D01*
X684995D01*
X692992Y-62801D02*
X698324D01*
X700990Y-60136D02*
X702322Y-58803D01*
X704988D01*
X706321Y-60136D01*
Y-61468D01*
X704988Y-62801D01*
X703655D01*
X704988D01*
X706321Y-64134D01*
Y-65467D01*
X704988Y-66800D01*
X702322D01*
X700990Y-65467D01*
X708987Y-60136D02*
X710320Y-58803D01*
X712986D01*
X714319Y-60136D01*
Y-65467D01*
X712986Y-66800D01*
X710320D01*
X708987Y-65467D01*
Y-60136D01*
X716985D02*
X718317Y-58803D01*
X720983D01*
X722316Y-60136D01*
Y-65467D01*
X720983Y-66800D01*
X718317D01*
X716985Y-65467D01*
Y-60136D01*
X724982Y-62801D02*
X730313D01*
X738311Y-58803D02*
X732979D01*
Y-66800D01*
X738311D01*
X732979Y-62801D02*
X735645D01*
X740977Y-61468D02*
X743643Y-66800D01*
X746308Y-61468D01*
X750307D02*
X752973D01*
X754306Y-62801D01*
Y-66800D01*
X750307D01*
X748974Y-65467D01*
X750307Y-64134D01*
X754306D01*
X756972Y-66800D02*
X759637D01*
X758304D01*
Y-58803D01*
X756972D01*
X376000Y-92802D02*
Y-100800D01*
Y-92802D02*
X379428D01*
X380570Y-93183D01*
X380951Y-93563D01*
X381332Y-94325D01*
Y-95087D01*
X380951Y-95849D01*
X380570Y-96229D01*
X379428Y-96610D01*
X376000D01*
X378666D02*
X381332Y-100800D01*
X383884Y-92802D02*
X384265Y-93183D01*
X384646Y-92802D01*
X384265Y-92421D01*
X383884Y-92802D01*
X384265Y-95468D02*
Y-100800D01*
X390625Y-95468D02*
Y-101562D01*
X390245Y-102704D01*
X389864Y-103085D01*
X389102Y-103466D01*
X387959D01*
X387198Y-103085D01*
X390625Y-96610D02*
X389864Y-95849D01*
X389102Y-95468D01*
X387959D01*
X387198Y-95849D01*
X386436Y-96610D01*
X386055Y-97753D01*
Y-98515D01*
X386436Y-99657D01*
X387198Y-100419D01*
X387959Y-100800D01*
X389102D01*
X389864Y-100419D01*
X390625Y-99657D01*
X397329Y-95468D02*
Y-100800D01*
Y-96610D02*
X396567Y-95849D01*
X395805Y-95468D01*
X394663D01*
X393901Y-95849D01*
X393139Y-96610D01*
X392758Y-97753D01*
Y-98515D01*
X393139Y-99657D01*
X393901Y-100419D01*
X394663Y-100800D01*
X395805D01*
X396567Y-100419D01*
X397329Y-99657D01*
X404032Y-92802D02*
Y-100800D01*
Y-96610D02*
X403270Y-95849D01*
X402509Y-95468D01*
X401366D01*
X400604Y-95849D01*
X399843Y-96610D01*
X399462Y-97753D01*
Y-98515D01*
X399843Y-99657D01*
X400604Y-100419D01*
X401366Y-100800D01*
X402509D01*
X403270Y-100419D01*
X404032Y-99657D01*
X408069Y-95468D02*
X407308Y-95849D01*
X406546Y-96610D01*
X406165Y-97753D01*
Y-98515D01*
X406546Y-99657D01*
X407308Y-100419D01*
X408069Y-100800D01*
X409212D01*
X409974Y-100419D01*
X410735Y-99657D01*
X411116Y-98515D01*
Y-97753D01*
X410735Y-96610D01*
X409974Y-95849D01*
X409212Y-95468D01*
X408069D01*
X350000Y-93801D02*
Y-100800D01*
Y-93801D02*
X354332D01*
X350000Y-97134D02*
X352666D01*
X356799Y-96134D02*
X356132Y-96468D01*
X355466Y-97134D01*
X355132Y-98134D01*
Y-98800D01*
X355466Y-99800D01*
X356132Y-100467D01*
X356799Y-100800D01*
X357798D01*
X358465Y-100467D01*
X359131Y-99800D01*
X359465Y-98800D01*
Y-98134D01*
X359131Y-97134D01*
X358465Y-96468D01*
X357798Y-96134D01*
X356799D01*
X360998D02*
Y-100800D01*
Y-98134D02*
X361331Y-97134D01*
X361997Y-96468D01*
X362664Y-96134D01*
X363664D01*
X520000Y-59802D02*
Y-66800D01*
X523499D01*
X524665Y-65634D01*
Y-60969D01*
X523499Y-59802D01*
X520000D01*
X531663Y-60969D02*
X530497Y-59802D01*
X528164D01*
X526998Y-60969D01*
Y-65634D01*
X528164Y-66800D01*
X530497D01*
X531663Y-65634D01*
X533995Y-66800D02*
Y-59802D01*
X538661Y-66800D01*
Y-59802D01*
X503000Y-84969D02*
X504166Y-83802D01*
X506499D01*
X507665Y-84969D01*
Y-86135D01*
X506499Y-87301D01*
X505333D01*
X506499D01*
X507665Y-88467D01*
Y-89634D01*
X506499Y-90800D01*
X504166D01*
X503000Y-89634D01*
X509998Y-90800D02*
X514663Y-86135D01*
X516995Y-84969D02*
X518162Y-83802D01*
X520494D01*
X521661Y-84969D01*
Y-86135D01*
X520494Y-87301D01*
X519328D01*
X520494D01*
X521661Y-88467D01*
Y-89634D01*
X520494Y-90800D01*
X518162D01*
X516995Y-89634D01*
X523993Y-90800D02*
X526326D01*
X525160D01*
Y-83802D01*
X523993Y-84969D01*
X529825Y-90800D02*
X534490Y-86135D01*
X541488Y-90800D02*
X536822D01*
X541488Y-86135D01*
Y-84969D01*
X540321Y-83802D01*
X537989D01*
X536822Y-84969D01*
X543820D02*
X544986Y-83802D01*
X547319D01*
X548485Y-84969D01*
Y-89634D01*
X547319Y-90800D01*
X544986D01*
X543820Y-89634D01*
Y-84969D01*
X550818Y-90800D02*
X553151D01*
X551984D01*
Y-83802D01*
X550818Y-84969D01*
X561314Y-83802D02*
X558982Y-84969D01*
X556649Y-87301D01*
Y-89634D01*
X557816Y-90800D01*
X560148D01*
X561314Y-89634D01*
Y-88467D01*
X560148Y-87301D01*
X556649D01*
X634000Y-111802D02*
Y-117800D01*
X636999D01*
X637999Y-116800D01*
Y-115801D01*
X636999Y-114801D01*
X634000D01*
X636999D01*
X637999Y-113801D01*
Y-112802D01*
X636999Y-111802D01*
X634000D01*
X639998Y-117800D02*
Y-111802D01*
X641997Y-113801D01*
X643997Y-111802D01*
Y-117800D01*
X645996Y-111802D02*
Y-117800D01*
X648995D01*
X649995Y-116800D01*
Y-112802D01*
X648995Y-111802D01*
X645996D01*
X651994Y-114801D02*
X655993D01*
X657992Y-112802D02*
X658992Y-111802D01*
X660991D01*
X661991Y-112802D01*
Y-113801D01*
X660991Y-114801D01*
X659992D01*
X660991D01*
X661991Y-115801D01*
Y-116800D01*
X660991Y-117800D01*
X658992D01*
X657992Y-116800D01*
X663990Y-112802D02*
X664990Y-111802D01*
X666989D01*
X667989Y-112802D01*
Y-116800D01*
X666989Y-117800D01*
X664990D01*
X663990Y-116800D01*
Y-112802D01*
X669988D02*
X670988Y-111802D01*
X672987D01*
X673987Y-112802D01*
Y-116800D01*
X672987Y-117800D01*
X670988D01*
X669988Y-116800D01*
Y-112802D01*
X675986Y-114801D02*
X679985D01*
X685983Y-111802D02*
X681985D01*
Y-117800D01*
X685983D01*
X681985Y-114801D02*
X683984D01*
X687983Y-113801D02*
X689982Y-117800D01*
X691981Y-113801D01*
X694980D02*
X696980D01*
X697979Y-114801D01*
Y-117800D01*
X694980D01*
X693981Y-116800D01*
X694980Y-115801D01*
X697979D01*
X699979Y-117800D02*
X701978D01*
X700978D01*
Y-111802D01*
X699979D01*
X704977Y-117800D02*
Y-116800D01*
X705977D01*
Y-117800D01*
X704977D01*
X709975D02*
Y-111802D01*
X712974D01*
X713974Y-112802D01*
Y-114801D01*
X712974Y-115801D01*
X709975D01*
X719972Y-113801D02*
X716973D01*
X715974Y-114801D01*
Y-116800D01*
X716973Y-117800D01*
X719972D01*
X721972Y-111802D02*
Y-117800D01*
X724971D01*
X725970Y-116800D01*
Y-115801D01*
Y-114801D01*
X724971Y-113801D01*
X721972D01*
X727970Y-111802D02*
Y-117800D01*
X730969D01*
X731968Y-116800D01*
Y-112802D01*
X730969Y-111802D01*
X727970D01*
X734967Y-117800D02*
X736967D01*
X737966Y-116800D01*
Y-114801D01*
X736967Y-113801D01*
X734967D01*
X733968Y-114801D01*
Y-116800D01*
X734967Y-117800D01*
X743964Y-113801D02*
X740965D01*
X739966Y-114801D01*
Y-116800D01*
X740965Y-117800D01*
X743964D01*
D50*
X897171Y72548D02*
Y82048D01*
X805171Y72548D02*
X897171D01*
X805171D02*
Y82048D01*
X897171D01*
X805171Y226200D02*
Y235700D01*
X897171D01*
Y226200D02*
Y235700D01*
X805171Y226200D02*
X897171D01*
X896171Y-34552D02*
Y-25052D01*
X804171Y-34552D02*
X896171D01*
X804171D02*
Y-25052D01*
X896171D01*
D51*
X831171Y79247D02*
Y75248D01*
X833456D01*
X836179Y77914D02*
Y75248D01*
Y77342D02*
X835798Y77723D01*
X835418Y77914D01*
X834846D01*
X834466Y77723D01*
X834085Y77342D01*
X833894Y76771D01*
Y76390D01*
X834085Y75819D01*
X834466Y75438D01*
X834846Y75248D01*
X835418D01*
X835798Y75438D01*
X836179Y75819D01*
X837436Y77914D02*
X838579Y75248D01*
X839721Y77914D02*
X838579Y75248D01*
X838198Y74486D01*
X837817Y74105D01*
X837436Y73915D01*
X837246D01*
X840388Y76771D02*
X842673D01*
Y77152D01*
X842483Y77533D01*
X842292Y77723D01*
X841912Y77914D01*
X841340D01*
X840959Y77723D01*
X840578Y77342D01*
X840388Y76771D01*
Y76390D01*
X840578Y75819D01*
X840959Y75438D01*
X841340Y75248D01*
X841912D01*
X842292Y75438D01*
X842673Y75819D01*
X843530Y77914D02*
Y75248D01*
Y76771D02*
X843721Y77342D01*
X844102Y77723D01*
X844482Y77914D01*
X845054D01*
X848748Y78295D02*
Y78485D01*
X848938Y78866D01*
X849129Y79056D01*
X849510Y79247D01*
X850272D01*
X850652Y79056D01*
X850843Y78866D01*
X851033Y78485D01*
Y78104D01*
X850843Y77723D01*
X850462Y77152D01*
X848558Y75248D01*
X851224D01*
X831171Y232899D02*
Y228900D01*
Y232899D02*
X832885D01*
X833456Y232709D01*
X833647Y232518D01*
X833837Y232137D01*
Y231756D01*
X833647Y231376D01*
X833456Y231185D01*
X832885Y230995D01*
X831171D02*
X832885D01*
X833456Y230804D01*
X833647Y230614D01*
X833837Y230233D01*
Y229662D01*
X833647Y229281D01*
X833456Y229090D01*
X832885Y228900D01*
X831171D01*
X835684Y231566D02*
X835303Y231376D01*
X834923Y230995D01*
X834732Y230423D01*
Y230043D01*
X834923Y229471D01*
X835303Y229090D01*
X835684Y228900D01*
X836255D01*
X836636Y229090D01*
X837017Y229471D01*
X837208Y230043D01*
Y230423D01*
X837017Y230995D01*
X836636Y231376D01*
X836255Y231566D01*
X835684D01*
X840369D02*
Y228900D01*
Y230995D02*
X839988Y231376D01*
X839607Y231566D01*
X839036D01*
X838655Y231376D01*
X838274Y230995D01*
X838084Y230423D01*
Y230043D01*
X838274Y229471D01*
X838655Y229090D01*
X839036Y228900D01*
X839607D01*
X839988Y229090D01*
X840369Y229471D01*
X841435Y231566D02*
Y228900D01*
Y230423D02*
X841626Y230995D01*
X842007Y231376D01*
X842388Y231566D01*
X842959D01*
X845606Y232899D02*
Y228900D01*
Y230995D02*
X845225Y231376D01*
X844844Y231566D01*
X844273D01*
X843892Y231376D01*
X843511Y230995D01*
X843321Y230423D01*
Y230043D01*
X843511Y229471D01*
X843892Y229090D01*
X844273Y228900D01*
X844844D01*
X845225Y229090D01*
X845606Y229471D01*
X850957Y232899D02*
X850576Y232709D01*
X850195Y232328D01*
X850005Y231947D01*
X849815Y231376D01*
Y230423D01*
X850005Y229852D01*
X850195Y229471D01*
X850576Y229090D01*
X850957Y228900D01*
X851719D01*
X852100Y229090D01*
X852481Y229471D01*
X852671Y229852D01*
X852861Y230423D01*
Y231376D01*
X852671Y231947D01*
X852481Y232328D01*
X852100Y232709D01*
X851719Y232899D01*
X850957D01*
X853795Y231566D02*
Y229662D01*
X853985Y229090D01*
X854366Y228900D01*
X854937D01*
X855318Y229090D01*
X855889Y229662D01*
Y231566D02*
Y228900D01*
X857508Y232899D02*
Y229662D01*
X857699Y229090D01*
X858079Y228900D01*
X858460D01*
X856937Y231566D02*
X858270D01*
X859032Y232899D02*
Y228900D01*
X860250Y232899D02*
X860441Y232709D01*
X860631Y232899D01*
X860441Y233090D01*
X860250Y232899D01*
X860441Y231566D02*
Y228900D01*
X861336Y231566D02*
Y228900D01*
Y230804D02*
X861907Y231376D01*
X862288Y231566D01*
X862859D01*
X863240Y231376D01*
X863431Y230804D01*
Y228900D01*
X864478Y230423D02*
X866763D01*
Y230804D01*
X866573Y231185D01*
X866382Y231376D01*
X866002Y231566D01*
X865430D01*
X865049Y231376D01*
X864668Y230995D01*
X864478Y230423D01*
Y230043D01*
X864668Y229471D01*
X865049Y229090D01*
X865430Y228900D01*
X866002D01*
X866382Y229090D01*
X866763Y229471D01*
X343371Y-60728D02*
G03*
X343371Y-60728I-1900J0D01*
G01*
X343771D02*
G03*
X343771Y-60728I-2300J0D01*
G01*
X344171D02*
G03*
X344171Y-60728I-2700J0D01*
G01*
X344571D02*
G03*
X344571Y-60728I-3100J0D01*
G01*
X462471Y-69728D02*
G03*
X462471Y-69728I-12400J0D01*
G01*
X455971D02*
G03*
X455971Y-69728I-6000J0D01*
G01*
X415971Y-77028D02*
G03*
X418971Y-76928I-92J47813D01*
G01*
D02*
G03*
X422371Y-76228I-1420J15504D01*
G01*
D02*
G03*
X424271Y-75028I-2138J5489D01*
G01*
D02*
G03*
X425471Y-73228I-4771J4481D01*
G01*
D02*
G03*
X426171Y-70828I-9081J3951D01*
G01*
X426171D02*
G03*
X425971Y-68028I-12278J530D01*
G01*
X425971D02*
G03*
X425271Y-65928I-8147J-1549D01*
G01*
D02*
G03*
X423571Y-63728I-6248J-3071D01*
G01*
D02*
G03*
X421071Y-62728I-2788J-3344D01*
G01*
Y-62728D02*
G03*
X415771Y-62528I-4939J-60548D01*
G01*
X421571Y-81778D02*
G03*
X426171Y-81128I-110J17380D01*
G01*
Y-81128D02*
G03*
X428171Y-80128I-4821J12141D01*
G01*
Y-80128D02*
G03*
X430371Y-78428I-11510J17169D01*
G01*
D02*
G03*
X432071Y-75928I-7834J7155D01*
G01*
X432071D02*
G03*
X432971Y-72828I-10301J4671D01*
G01*
X432971D02*
G03*
X433171Y-70028I-19572J2805D01*
G01*
X433171D02*
G03*
X433071Y-67728I-23001J152D01*
G01*
X433071D02*
G03*
X431871Y-63928I-12908J-1987D01*
G01*
D02*
G03*
X429871Y-61328I-16150J-10354D01*
G01*
Y-61328D02*
G03*
X425471Y-58628I-7709J-7627D01*
G01*
Y-58628D02*
G03*
X421271Y-57928I-4200J-12252D01*
G01*
X371471Y-80828D02*
G03*
X373471Y-80228I-168364J564846D01*
G01*
X367771Y-81908D02*
G03*
X371471Y-80828I-3584J19159D01*
G01*
X363071Y-82069D02*
G03*
X367771Y-81908I845J44213D01*
G01*
X357771Y-81328D02*
G03*
X363071Y-82069I6434J26726D01*
G01*
X354371Y-79528D02*
G03*
X357771Y-81328I5831J6903D01*
G01*
X352571Y-78128D02*
G03*
X354371Y-79528I9198J9969D01*
G01*
X349471Y-72328D02*
G03*
X352571Y-78128I11760J2557D01*
G01*
X349371Y-70028D02*
G03*
X349471Y-72328I24430J-90D01*
G01*
X350071Y-65328D02*
G03*
X349371Y-70028I22626J-5772D01*
G01*
X352271Y-61528D02*
G03*
X350071Y-65328I8644J-7541D01*
G01*
X357071Y-58228D02*
G03*
X352271Y-61528I3729J-10565D01*
G01*
X363571Y-57328D02*
G03*
X357071Y-58228I50J-24286D01*
G01*
X369671Y-58128D02*
G03*
X363571Y-57328I-6247J-23979D01*
G01*
X364871Y-76628D02*
G03*
X367671Y-76028I-2812J19954D01*
G01*
X361271Y-75928D02*
G03*
X364871Y-76628I3448J8125D01*
G01*
X359571Y-75028D02*
G03*
X361271Y-75928I7067J11293D01*
G01*
X356971Y-71128D02*
G03*
X359571Y-75028I5525J867D01*
G01*
X356971Y-69228D02*
G03*
X356971Y-71128I5886J-950D01*
G01*
X365471Y-62428D02*
G03*
X360471Y-63528I-111J-11411D01*
G01*
D02*
G03*
X356971Y-69228I3181J-5878D01*
G01*
X371371Y-63628D02*
G03*
X368571Y-62728I-9612J-25099D01*
G01*
D02*
G03*
X366771Y-62428I-2604J-10073D01*
G01*
Y-62428D02*
G03*
X365471Y-62428I-650J-9558D01*
G01*
X321871Y-62428D02*
G03*
X317671Y-62428I-2100J-99539D01*
G01*
X323271Y-62928D02*
G03*
X321871Y-62428I-1594J-2253D01*
G01*
X324271Y-63928D02*
G03*
X323271Y-62928I-2637J-1637D01*
G01*
X324671Y-65828D02*
G03*
X324271Y-63928I-3152J329D01*
G01*
X323171Y-67728D02*
G03*
X324671Y-65828I-945J2288D01*
G01*
X320671Y-68228D02*
G03*
X323171Y-67728I186J5573D01*
G01*
X324371Y-77028D02*
G03*
X326271Y-81428I63053J24617D01*
G01*
X324371Y-77028D02*
G03*
X322371Y-73828I-11094J-4709D01*
G01*
D02*
G03*
X321171Y-72728I-4025J-3186D01*
G01*
X334371Y-81428D02*
G03*
X332471Y-76628I-41800J-13770D01*
G01*
D02*
G03*
X330471Y-73228I-29344J-14973D01*
G01*
D02*
G03*
X328771Y-71628I-3709J-2237D01*
G01*
X324971Y-72028D02*
G03*
X332071Y-64628I-150J7250D01*
G01*
Y-64528D02*
G03*
X325371Y-57928I-6650J-50D01*
G01*
X343371Y-60728D02*
G03*
X343371Y-60728I-1900J0D01*
G01*
X343771D02*
G03*
X343771Y-60728I-2300J0D01*
G01*
X344171D02*
G03*
X344171Y-60728I-2700J0D01*
G01*
X344571D02*
G03*
X344571Y-60728I-3100J0D01*
G01*
X462471Y-69728D02*
G03*
X462471Y-69728I-12400J0D01*
G01*
X455971D02*
G03*
X455971Y-69728I-6000J0D01*
G01*
X415971Y-77028D02*
G03*
X418971Y-76928I-92J47813D01*
G01*
D02*
G03*
X422371Y-76228I-1420J15504D01*
G01*
D02*
G03*
X424271Y-75028I-2138J5489D01*
G01*
D02*
G03*
X425471Y-73228I-4771J4481D01*
G01*
D02*
G03*
X426171Y-70828I-9081J3951D01*
G01*
X426171D02*
G03*
X425971Y-68028I-12278J530D01*
G01*
X425971D02*
G03*
X425271Y-65928I-8147J-1549D01*
G01*
D02*
G03*
X423571Y-63728I-6248J-3071D01*
G01*
D02*
G03*
X421071Y-62728I-2788J-3344D01*
G01*
Y-62728D02*
G03*
X415771Y-62528I-4939J-60548D01*
G01*
X421571Y-81778D02*
G03*
X426171Y-81128I-110J17380D01*
G01*
Y-81128D02*
G03*
X428171Y-80128I-4821J12141D01*
G01*
Y-80128D02*
G03*
X430371Y-78428I-11510J17169D01*
G01*
D02*
G03*
X432071Y-75928I-7834J7155D01*
G01*
X432071D02*
G03*
X432971Y-72828I-10301J4671D01*
G01*
X432971D02*
G03*
X433171Y-70028I-19572J2805D01*
G01*
X433171D02*
G03*
X433071Y-67728I-23001J152D01*
G01*
X433071D02*
G03*
X431871Y-63928I-12908J-1987D01*
G01*
D02*
G03*
X429871Y-61328I-16150J-10354D01*
G01*
Y-61328D02*
G03*
X425471Y-58628I-7709J-7627D01*
G01*
Y-58628D02*
G03*
X421271Y-57928I-4200J-12252D01*
G01*
X371471Y-80828D02*
G03*
X373471Y-80228I-168364J564846D01*
G01*
X367771Y-81908D02*
G03*
X371471Y-80828I-3584J19159D01*
G01*
X363071Y-82069D02*
G03*
X367771Y-81908I845J44213D01*
G01*
X357771Y-81328D02*
G03*
X363071Y-82069I6434J26726D01*
G01*
X354371Y-79528D02*
G03*
X357771Y-81328I5831J6903D01*
G01*
X352571Y-78128D02*
G03*
X354371Y-79528I9198J9969D01*
G01*
X349471Y-72328D02*
G03*
X352571Y-78128I11760J2557D01*
G01*
X349371Y-70028D02*
G03*
X349471Y-72328I24430J-90D01*
G01*
X350071Y-65328D02*
G03*
X349371Y-70028I22626J-5772D01*
G01*
X352271Y-61528D02*
G03*
X350071Y-65328I8644J-7541D01*
G01*
X357071Y-58228D02*
G03*
X352271Y-61528I3729J-10565D01*
G01*
X363571Y-57328D02*
G03*
X357071Y-58228I50J-24286D01*
G01*
X369671Y-58128D02*
G03*
X363571Y-57328I-6247J-23979D01*
G01*
X364871Y-76628D02*
G03*
X367671Y-76028I-2812J19954D01*
G01*
X361271Y-75928D02*
G03*
X364871Y-76628I3448J8125D01*
G01*
X359571Y-75028D02*
G03*
X361271Y-75928I7067J11293D01*
G01*
X356971Y-71128D02*
G03*
X359571Y-75028I5525J867D01*
G01*
X356971Y-69228D02*
G03*
X356971Y-71128I5886J-950D01*
G01*
X365471Y-62428D02*
G03*
X360471Y-63528I-111J-11411D01*
G01*
D02*
G03*
X356971Y-69228I3181J-5878D01*
G01*
X371371Y-63628D02*
G03*
X368571Y-62728I-9612J-25099D01*
G01*
D02*
G03*
X366771Y-62428I-2604J-10073D01*
G01*
Y-62428D02*
G03*
X365471Y-62428I-650J-9558D01*
G01*
X321871Y-62428D02*
G03*
X317671Y-62428I-2100J-99539D01*
G01*
X323271Y-62928D02*
G03*
X321871Y-62428I-1594J-2253D01*
G01*
X324271Y-63928D02*
G03*
X323271Y-62928I-2637J-1637D01*
G01*
X324671Y-65828D02*
G03*
X324271Y-63928I-3152J329D01*
G01*
X323171Y-67728D02*
G03*
X324671Y-65828I-945J2288D01*
G01*
X320671Y-68228D02*
G03*
X323171Y-67728I186J5573D01*
G01*
X324371Y-77028D02*
G03*
X326271Y-81428I63053J24617D01*
G01*
X324371Y-77028D02*
G03*
X322371Y-73828I-11094J-4709D01*
G01*
D02*
G03*
X321171Y-72728I-4025J-3186D01*
G01*
X334371Y-81428D02*
G03*
X332471Y-76628I-41800J-13770D01*
G01*
D02*
G03*
X330471Y-73228I-29344J-14973D01*
G01*
D02*
G03*
X328771Y-71628I-3709J-2237D01*
G01*
X324971Y-72028D02*
G03*
X332071Y-64628I-150J7250D01*
G01*
Y-64528D02*
G03*
X325371Y-57928I-6650J-50D01*
G01*
X877000Y600200D02*
Y662200D01*
X810000Y600200D02*
Y662200D01*
X615000Y600200D02*
Y662200D01*
X579000D02*
X922976D01*
X579000Y630200D02*
X922976D01*
X579000Y645200D02*
X923000D01*
X579000Y615200D02*
X922976D01*
X579000Y600200D02*
X923000D01*
X579000D02*
Y685200D01*
X-157000Y-144800D02*
X943000D01*
X622976Y-65064D02*
Y-50664D01*
X472976D02*
X622976D01*
X304000D02*
X472976D01*
X922976Y67436D02*
X942976D01*
X922976Y279936D02*
X942976D01*
X922976Y492436D02*
X942976D01*
X922976Y-125064D02*
Y684936D01*
X943000Y-144800D02*
Y705200D01*
X-157000D02*
X943000D01*
X667976Y684936D02*
Y704936D01*
X392976Y684936D02*
Y704936D01*
X117976Y684936D02*
Y704936D01*
X-137024Y684936D02*
X922976D01*
X667976Y-145064D02*
Y-125064D01*
X622976D02*
Y-65064D01*
X832976Y-125064D02*
Y-73964D01*
X472976Y-125064D02*
Y-50664D01*
X922976Y-125064D02*
Y-50664D01*
X622976D02*
X922976D01*
X472976Y-73664D02*
X922976D01*
X472976Y-98564D02*
X922976D01*
X472976Y-125064D02*
X922976D01*
X304000D02*
Y-50664D01*
Y-125064D02*
X472976D01*
X392976Y-145064D02*
Y-125064D01*
X117976Y-145064D02*
Y-125064D01*
X-157024Y67436D02*
X-137024D01*
X-157024Y279936D02*
X-137024D01*
X-157024Y492436D02*
X-137024D01*
X-157000Y-144800D02*
Y705200D01*
X-137024Y-125064D02*
Y684936D01*
Y-125064D02*
X922976D01*
X436171Y-63328D02*
X438471Y-65628D01*
X436171Y-63328D02*
X436971Y-61628D01*
X440171Y-62428D01*
X442171Y-56428D02*
X444871Y-58528D01*
X440671Y-57428D02*
X442171Y-56428D01*
X440671Y-57428D02*
X441571Y-60728D01*
X446771Y-57928D02*
X447271Y-54528D01*
X449271Y-54228D01*
X450671Y-57428D01*
X452671Y-57728D02*
X454771Y-55028D01*
X456471Y-55528D01*
X456371Y-59228D02*
X456471Y-55528D01*
X460371Y-63128D02*
X462371Y-60128D01*
X461171Y-58728D02*
X462371Y-60128D01*
X457871Y-60328D02*
X461171Y-58728D01*
X461271Y-64928D02*
X465071Y-65228D01*
X465471Y-67028D01*
X462271Y-68728D02*
X465471Y-67028D01*
X462271Y-70728D02*
X465471Y-72728D01*
X464971Y-74528D02*
X465471Y-72728D01*
X461471Y-74528D02*
X464971D01*
X460371Y-76328D02*
X462271Y-79528D01*
X461171Y-80828D02*
X462271Y-79528D01*
X457871Y-79228D02*
X461171Y-80828D01*
X456271Y-80328D02*
X456371Y-84098D01*
X454671Y-84708D02*
X456371Y-84098D01*
X452571Y-81878D02*
X454671Y-84708D01*
X449071Y-85318D02*
X450271Y-82158D01*
X447271Y-85089D02*
X449071Y-85318D01*
X446871Y-81808D02*
X447271Y-85089D01*
X441971Y-82998D02*
X444871Y-80928D01*
X440471Y-81968D02*
X441971Y-82998D01*
X440471Y-81968D02*
X441771Y-78828D01*
X436771Y-77628D02*
X440171Y-77228D01*
X436071Y-76128D02*
X436771Y-77628D01*
X436071Y-76128D02*
X438271Y-73728D01*
X434671Y-70728D02*
X437771Y-71428D01*
X434671Y-70728D02*
Y-68828D01*
X437771Y-67828D01*
X390571Y-63528D02*
X394471Y-72928D01*
X387271Y-72728D02*
X390640Y-64259D01*
X383371Y-81778D02*
X386071Y-75828D01*
X385250Y-76807D02*
X397271Y-76728D01*
X395771Y-76628D02*
X397871Y-81769D01*
X394971Y-57928D02*
X405371Y-81769D01*
X375971Y-81778D02*
X386571Y-57928D01*
X369671Y-58128D02*
X373071Y-59028D01*
X371371Y-63628D02*
X373071Y-64628D01*
X318271Y-68228D02*
X320671D01*
X319971Y-72028D02*
X321171Y-72728D01*
X328171Y-71428D02*
X328771Y-71628D01*
X325271Y-57928D02*
X325371D01*
X436171Y-63328D02*
X438471Y-65628D01*
X436171Y-63328D02*
X436971Y-61628D01*
X440171Y-62428D01*
X442171Y-56428D02*
X444871Y-58528D01*
X440671Y-57428D02*
X442171Y-56428D01*
X440671Y-57428D02*
X441571Y-60728D01*
X446771Y-57928D02*
X447271Y-54528D01*
X449271Y-54228D01*
X450671Y-57428D01*
X452671Y-57728D02*
X454771Y-55028D01*
X456471Y-55528D01*
X456371Y-59228D02*
X456471Y-55528D01*
X460371Y-63128D02*
X462371Y-60128D01*
X461171Y-58728D02*
X462371Y-60128D01*
X457871Y-60328D02*
X461171Y-58728D01*
X461271Y-64928D02*
X465071Y-65228D01*
X465471Y-67028D01*
X462271Y-68728D02*
X465471Y-67028D01*
X462271Y-70728D02*
X465471Y-72728D01*
X464971Y-74528D02*
X465471Y-72728D01*
X461471Y-74528D02*
X464971D01*
X460371Y-76328D02*
X462271Y-79528D01*
X461171Y-80828D02*
X462271Y-79528D01*
X457871Y-79228D02*
X461171Y-80828D01*
X456271Y-80328D02*
X456371Y-84098D01*
X454671Y-84708D02*
X456371Y-84098D01*
X452571Y-81878D02*
X454671Y-84708D01*
X449071Y-85318D02*
X450271Y-82158D01*
X447271Y-85089D02*
X449071Y-85318D01*
X446871Y-81808D02*
X447271Y-85089D01*
X441971Y-82998D02*
X444871Y-80928D01*
X440471Y-81968D02*
X441971Y-82998D01*
X440471Y-81968D02*
X441771Y-78828D01*
X436771Y-77628D02*
X440171Y-77228D01*
X436071Y-76128D02*
X436771Y-77628D01*
X436071Y-76128D02*
X438271Y-73728D01*
X434671Y-70728D02*
X437771Y-71428D01*
X434671Y-70728D02*
Y-68828D01*
X437771Y-67828D01*
X390571Y-63528D02*
X394471Y-72928D01*
X387271Y-72728D02*
X390640Y-64259D01*
X383371Y-81778D02*
X386071Y-75828D01*
X385250Y-76807D02*
X397350D01*
X395771Y-76628D02*
X397871Y-81769D01*
X394971Y-57928D02*
X405371Y-81769D01*
X375971Y-81778D02*
X386571Y-57928D01*
X369671Y-58128D02*
X373071Y-59028D01*
X371371Y-63628D02*
X373071Y-64628D01*
X318271Y-68228D02*
X320671D01*
X319971Y-72028D02*
X321171Y-72728D01*
X328171Y-71428D02*
X328771Y-71628D01*
X325271Y-57928D02*
X325371D01*
X625276Y-81564D02*
Y-76565D01*
X627776D01*
X628609Y-77399D01*
Y-79065D01*
X627776Y-79898D01*
X625276D01*
X633607Y-77399D02*
X632774Y-76565D01*
X631108D01*
X630275Y-77399D01*
Y-80731D01*
X631108Y-81564D01*
X632774D01*
X633607Y-80731D01*
X635273Y-76565D02*
Y-81564D01*
X637772D01*
X638605Y-80731D01*
Y-79898D01*
X637772Y-79065D01*
X635273D01*
X637772D01*
X638605Y-78232D01*
Y-77399D01*
X637772Y-76565D01*
X635273D01*
X645270Y-81564D02*
Y-76565D01*
X648602Y-81564D01*
Y-76565D01*
X650268Y-81564D02*
Y-78232D01*
X651934Y-76565D01*
X653601Y-78232D01*
Y-81564D01*
Y-79065D01*
X650268D01*
X655267Y-81564D02*
Y-76565D01*
X656933Y-78232D01*
X658599Y-76565D01*
Y-81564D01*
X663597Y-76565D02*
X660265D01*
Y-81564D01*
X663597D01*
X660265Y-79065D02*
X661931D01*
X665263Y-78232D02*
X666096D01*
Y-79065D01*
X665263D01*
Y-78232D01*
Y-80731D02*
X666096D01*
Y-81564D01*
X665263D01*
Y-80731D01*
X838009Y-103399D02*
X837176Y-102565D01*
X835509D01*
X834676Y-103399D01*
Y-104232D01*
X835509Y-105065D01*
X837176D01*
X838009Y-105898D01*
Y-106731D01*
X837176Y-107564D01*
X835509D01*
X834676Y-106731D01*
X843007Y-103399D02*
X842174Y-102565D01*
X840508D01*
X839675Y-103399D01*
Y-106731D01*
X840508Y-107564D01*
X842174D01*
X843007Y-106731D01*
X844673Y-107564D02*
Y-104232D01*
X846339Y-102565D01*
X848005Y-104232D01*
Y-107564D01*
Y-105065D01*
X844673D01*
X849671Y-102565D02*
Y-107564D01*
X853004D01*
X858002Y-102565D02*
X854670D01*
Y-107564D01*
X858002D01*
X854670Y-105065D02*
X856336D01*
X859668Y-104232D02*
X860501D01*
Y-105065D01*
X859668D01*
Y-104232D01*
Y-106731D02*
X860501D01*
Y-107564D01*
X859668D01*
Y-106731D01*
X628332Y-101802D02*
X625000D01*
Y-104301D01*
X626666D01*
X625000D01*
Y-106800D01*
X629998Y-101802D02*
X631665D01*
X630831D01*
Y-106800D01*
X629998D01*
X631665D01*
X634164Y-101802D02*
Y-106800D01*
X637496D01*
X642494Y-101802D02*
X639162D01*
Y-106800D01*
X642494D01*
X639162Y-104301D02*
X640828D01*
X649159Y-106800D02*
Y-101802D01*
X652491Y-106800D01*
Y-101802D01*
X654157Y-106800D02*
Y-103468D01*
X655823Y-101802D01*
X657489Y-103468D01*
Y-106800D01*
Y-104301D01*
X654157D01*
X659156Y-106800D02*
Y-101802D01*
X660822Y-103468D01*
X662488Y-101802D01*
Y-106800D01*
X667486Y-101802D02*
X664154D01*
Y-106800D01*
X667486D01*
X664154Y-104301D02*
X665820D01*
X669152Y-103468D02*
X669985D01*
Y-104301D01*
X669152D01*
Y-103468D01*
Y-105967D02*
X669985D01*
Y-106800D01*
X669152D01*
Y-105967D01*
X625776Y-60164D02*
Y-55165D01*
X628276D01*
X629109Y-55998D01*
Y-57665D01*
X628276Y-58498D01*
X625776D01*
X630775Y-60164D02*
Y-55165D01*
X633274D01*
X634107Y-55998D01*
Y-57665D01*
X633274Y-58498D01*
X630775D01*
X632441D02*
X634107Y-60164D01*
X638272Y-55165D02*
X636606D01*
X635773Y-55998D01*
Y-59331D01*
X636606Y-60164D01*
X638272D01*
X639105Y-59331D01*
Y-55998D01*
X638272Y-55165D01*
X644104D02*
X642438D01*
X643271D01*
Y-59331D01*
X642438Y-60164D01*
X641605D01*
X640771Y-59331D01*
X649102Y-55165D02*
X645770D01*
Y-60164D01*
X649102D01*
X645770Y-57665D02*
X647436D01*
X654101Y-55998D02*
X653267Y-55165D01*
X651601D01*
X650768Y-55998D01*
Y-59331D01*
X651601Y-60164D01*
X653267D01*
X654101Y-59331D01*
X655767Y-55165D02*
X659099D01*
X657433D01*
Y-60164D01*
X660765Y-56832D02*
X661598D01*
Y-57665D01*
X660765D01*
Y-56832D01*
Y-59331D02*
X661598D01*
Y-60164D01*
X660765D01*
Y-59331D01*
X477509Y-55265D02*
X474176D01*
Y-60264D01*
X477509D01*
X474176Y-57765D02*
X475843D01*
X479175Y-60264D02*
Y-55265D01*
X482507Y-60264D01*
Y-55265D01*
X487505Y-56099D02*
X486672Y-55265D01*
X485006D01*
X484173Y-56099D01*
Y-59431D01*
X485006Y-60264D01*
X486672D01*
X487505Y-59431D01*
Y-57765D01*
X485839D01*
X489172Y-55265D02*
X490838D01*
X490005D01*
Y-60264D01*
X489172D01*
X490838D01*
X493337D02*
Y-55265D01*
X496669Y-60264D01*
Y-55265D01*
X501667D02*
X498335D01*
Y-60264D01*
X501667D01*
X498335Y-57765D02*
X500001D01*
X506666Y-55265D02*
X503334D01*
Y-60264D01*
X506666D01*
X503334Y-57765D02*
X505000D01*
X508332Y-60264D02*
Y-55265D01*
X510831D01*
X511664Y-56099D01*
Y-57765D01*
X510831Y-58598D01*
X508332D01*
X509998D02*
X511664Y-60264D01*
X513330Y-56932D02*
X514163D01*
Y-57765D01*
X513330D01*
Y-56932D01*
Y-59431D02*
X514163D01*
Y-60264D01*
X513330D01*
Y-59431D01*
X475000Y-101802D02*
Y-106800D01*
X477499D01*
X478332Y-105967D01*
Y-102635D01*
X477499Y-101802D01*
X475000D01*
X479998D02*
Y-106800D01*
X481665Y-105134D01*
X483331Y-106800D01*
Y-101802D01*
X488329Y-102635D02*
X487496Y-101802D01*
X485830D01*
X484997Y-102635D01*
Y-105967D01*
X485830Y-106800D01*
X487496D01*
X488329Y-105967D01*
Y-104301D01*
X486663D01*
X494993Y-106800D02*
Y-101802D01*
X498326Y-106800D01*
Y-101802D01*
X502491D02*
X500825D01*
X499992Y-102635D01*
Y-105967D01*
X500825Y-106800D01*
X502491D01*
X503324Y-105967D01*
Y-102635D01*
X502491Y-101802D01*
X504990Y-103468D02*
X505823D01*
Y-104301D01*
X504990D01*
Y-103468D01*
Y-105967D02*
X505823D01*
Y-106800D01*
X504990D01*
Y-105967D01*
X835176Y-82864D02*
Y-77865D01*
X837676D01*
X838509Y-78698D01*
Y-80365D01*
X837676Y-81198D01*
X835176D01*
X836843D02*
X838509Y-82864D01*
X843507Y-77865D02*
X840175D01*
Y-82864D01*
X843507D01*
X840175Y-80365D02*
X841841D01*
X845173Y-77865D02*
Y-81198D01*
X846839Y-82864D01*
X848505Y-81198D01*
Y-77865D01*
X850171Y-79532D02*
X851005D01*
Y-80365D01*
X850171D01*
Y-79532D01*
Y-82031D02*
X851005D01*
Y-82864D01*
X850171D01*
Y-82031D01*
X474476Y-76965D02*
Y-81964D01*
X476976D01*
X477809Y-81131D01*
Y-77798D01*
X476976Y-76965D01*
X474476D01*
X479475Y-81964D02*
Y-78632D01*
X481141Y-76965D01*
X482807Y-78632D01*
Y-81964D01*
Y-79465D01*
X479475D01*
X484473Y-76965D02*
X487805D01*
X486139D01*
Y-81964D01*
X492804Y-76965D02*
X489471D01*
Y-81964D01*
X492804D01*
X489471Y-79465D02*
X491138D01*
X494470Y-78632D02*
X495303D01*
Y-79465D01*
X494470D01*
Y-78632D01*
Y-81131D02*
X495303D01*
Y-81964D01*
X494470D01*
Y-81131D01*
X830171Y-27853D02*
Y-31852D01*
Y-27853D02*
X831694Y-31852D01*
X833218Y-27853D02*
X831694Y-31852D01*
X833218Y-27853D02*
Y-31852D01*
X834361Y-29186D02*
Y-31091D01*
X834551Y-31662D01*
X834932Y-31852D01*
X835503D01*
X835884Y-31662D01*
X836455Y-31091D01*
Y-29186D02*
Y-31852D01*
X837503Y-27853D02*
Y-31852D01*
X838912Y-27853D02*
Y-31091D01*
X839102Y-31662D01*
X839483Y-31852D01*
X839864D01*
X838341Y-29186D02*
X839674D01*
X840816Y-27853D02*
X841007Y-28044D01*
X841197Y-27853D01*
X841007Y-27663D01*
X840816Y-27853D01*
X841007Y-29186D02*
Y-31852D01*
X841902Y-27853D02*
Y-31852D01*
X845025Y-29186D02*
Y-31852D01*
Y-29758D02*
X844644Y-29377D01*
X844263Y-29186D01*
X843692D01*
X843311Y-29377D01*
X842930Y-29758D01*
X842740Y-30329D01*
Y-30710D01*
X842930Y-31281D01*
X843311Y-31662D01*
X843692Y-31852D01*
X844263D01*
X844644Y-31662D01*
X845025Y-31281D01*
X846282Y-29186D02*
X847424Y-31852D01*
X848567Y-29186D02*
X847424Y-31852D01*
X847044Y-32614D01*
X846663Y-32995D01*
X846282Y-33185D01*
X846091D01*
X849234Y-30329D02*
X851519D01*
Y-29948D01*
X851328Y-29567D01*
X851138Y-29377D01*
X850757Y-29186D01*
X850186D01*
X849805Y-29377D01*
X849424Y-29758D01*
X849234Y-30329D01*
Y-30710D01*
X849424Y-31281D01*
X849805Y-31662D01*
X850186Y-31852D01*
X850757D01*
X851138Y-31662D01*
X851519Y-31281D01*
X852376Y-29186D02*
Y-31852D01*
Y-30329D02*
X852566Y-29758D01*
X852947Y-29377D01*
X853328Y-29186D01*
X853899D01*
D52*
X814671Y77298D02*
D03*
Y230950D02*
D03*
X813671Y-29802D02*
D03*
D53*
X332500Y170700D02*
Y215000D01*
X327500Y220000D02*
X332500Y215000D01*
Y35000D02*
X345000Y47500D01*
Y158200D01*
X332500Y170700D02*
X345000Y158200D01*
X5000Y220000D02*
X327500D01*
X0Y5000D02*
Y215000D01*
X5000Y0D02*
X327500D01*
X332500Y5000D02*
Y35000D01*
X327500Y0D02*
X332500Y5000D01*
X0Y215000D02*
X5000Y220000D01*
X0Y5000D02*
X5000Y0D01*
D54*
X810171Y249246D02*
Y241248D01*
X814741D01*
X821711D02*
X818664Y249246D01*
X815617Y241248D01*
X816760Y243914D02*
X820569D01*
X823578Y249246D02*
X826624Y245437D01*
Y241248D01*
X829671Y249246D02*
X826624Y245437D01*
X835651Y249246D02*
X830700D01*
Y241248D01*
X835651D01*
X830700Y245437D02*
X833747D01*
X836984Y249246D02*
Y241248D01*
Y249246D02*
X840412D01*
X841555Y248865D01*
X841936Y248484D01*
X842316Y247722D01*
Y246961D01*
X841936Y246199D01*
X841555Y245818D01*
X840412Y245437D01*
X836984D01*
X839650D02*
X842316Y241248D01*
X850391Y249246D02*
Y243533D01*
X850772Y242390D01*
X851534Y241629D01*
X852676Y241248D01*
X853438D01*
X854580Y241629D01*
X855342Y242390D01*
X855723Y243533D01*
Y249246D01*
X863264Y248103D02*
X862502Y248865D01*
X861360Y249246D01*
X859836D01*
X858694Y248865D01*
X857932Y248103D01*
Y247342D01*
X858313Y246580D01*
X858694Y246199D01*
X859456Y245818D01*
X861741Y245056D01*
X862502Y244675D01*
X862883Y244295D01*
X863264Y243533D01*
Y242390D01*
X862502Y241629D01*
X861360Y241248D01*
X859836D01*
X858694Y241629D01*
X857932Y242390D01*
X871148Y241248D02*
X868101Y249246D01*
X865054Y241248D01*
X866197Y243914D02*
X870006D01*
X878728Y247342D02*
X878347Y248103D01*
X877585Y248865D01*
X876823Y249246D01*
X875300D01*
X874538Y248865D01*
X873776Y248103D01*
X873395Y247342D01*
X873015Y246199D01*
Y244295D01*
X873395Y243152D01*
X873776Y242390D01*
X874538Y241629D01*
X875300Y241248D01*
X876823D01*
X877585Y241629D01*
X878347Y242390D01*
X878728Y243152D01*
Y244295D01*
X876823D02*
X878728D01*
X885507Y249246D02*
X880556D01*
Y241248D01*
X885507D01*
X880556Y245437D02*
X883603D01*
D55*
X868976Y-118264D02*
X870642D01*
X869809D01*
Y-113265D01*
X868976Y-114099D01*
X873142Y-114931D02*
X873975D01*
Y-115765D01*
X873142D01*
Y-114931D01*
Y-117431D02*
X873975D01*
Y-118264D01*
X873142D01*
Y-117431D01*
X877307Y-118264D02*
X878973D01*
X878140D01*
Y-113265D01*
X877307Y-114099D01*
X930476Y-40365D02*
Y-47364D01*
Y-40365D02*
X932809D01*
X933809Y-40699D01*
X934476Y-41365D01*
X934809Y-42032D01*
X935142Y-43031D01*
Y-44698D01*
X934809Y-45698D01*
X934476Y-46364D01*
X933809Y-47030D01*
X932809Y-47364D01*
X930476D01*
X935475Y169968D02*
X935142Y170635D01*
X934476Y171301D01*
X933809Y171635D01*
X932476D01*
X931809Y171301D01*
X931143Y170635D01*
X930810Y169968D01*
X930476Y168969D01*
Y167302D01*
X930810Y166303D01*
X931143Y165636D01*
X931809Y164970D01*
X932476Y164636D01*
X933809D01*
X934476Y164970D01*
X935142Y165636D01*
X935475Y166303D01*
X930476Y384135D02*
Y377136D01*
Y384135D02*
X933476D01*
X934476Y383802D01*
X934809Y383468D01*
X935142Y382802D01*
Y382135D01*
X934809Y381469D01*
X934476Y381135D01*
X933476Y380802D01*
X930476D02*
X933476D01*
X934476Y380469D01*
X934809Y380136D01*
X935142Y379469D01*
Y378469D01*
X934809Y377803D01*
X934476Y377469D01*
X933476Y377136D01*
X930476D01*
X935809Y589636D02*
X933142Y596635D01*
X930476Y589636D01*
X931476Y591969D02*
X934809D01*
X806110Y698435D02*
X802777Y693769D01*
X807776D01*
X806110Y698435D02*
Y691436D01*
X528343Y698435D02*
X532009D01*
X530009Y695769D01*
X531009D01*
X531675Y695435D01*
X532009Y695102D01*
X532342Y694102D01*
Y693436D01*
X532009Y692436D01*
X531342Y691770D01*
X530342Y691436D01*
X529343D01*
X528343Y691770D01*
X528010Y692103D01*
X527676Y692769D01*
X253510Y696768D02*
Y697102D01*
X253843Y697768D01*
X254176Y698102D01*
X254843Y698435D01*
X256176D01*
X256842Y698102D01*
X257175Y697768D01*
X257509Y697102D01*
Y696435D01*
X257175Y695769D01*
X256509Y694769D01*
X253176Y691436D01*
X257842D01*
X-21890Y697102D02*
X-21223Y697435D01*
X-20224Y698435D01*
Y691436D01*
X806110Y-131565D02*
X802777Y-136231D01*
X807776D01*
X806110Y-131565D02*
Y-138564D01*
X528343Y-131565D02*
X532009D01*
X530009Y-134231D01*
X531009D01*
X531675Y-134565D01*
X532009Y-134898D01*
X532342Y-135898D01*
Y-136564D01*
X532009Y-137564D01*
X531342Y-138231D01*
X530342Y-138564D01*
X529343D01*
X528343Y-138231D01*
X528010Y-137897D01*
X527676Y-137231D01*
X253510Y-133232D02*
Y-132898D01*
X253843Y-132232D01*
X254176Y-131898D01*
X254843Y-131565D01*
X256176D01*
X256842Y-131898D01*
X257175Y-132232D01*
X257509Y-132898D01*
Y-133565D01*
X257175Y-134231D01*
X256509Y-135231D01*
X253176Y-138564D01*
X257842D01*
X-21890Y-132898D02*
X-21223Y-132565D01*
X-20224Y-131565D01*
Y-138564D01*
X-149524Y-40365D02*
Y-47364D01*
Y-40365D02*
X-147191D01*
X-146191Y-40699D01*
X-145525Y-41365D01*
X-145191Y-42032D01*
X-144858Y-43031D01*
Y-44698D01*
X-145191Y-45698D01*
X-145525Y-46364D01*
X-146191Y-47030D01*
X-147191Y-47364D01*
X-149524D01*
X-144525Y169968D02*
X-144858Y170635D01*
X-145525Y171301D01*
X-146191Y171635D01*
X-147524D01*
X-148191Y171301D01*
X-148857Y170635D01*
X-149190Y169968D01*
X-149524Y168969D01*
Y167302D01*
X-149190Y166303D01*
X-148857Y165636D01*
X-148191Y164970D01*
X-147524Y164636D01*
X-146191D01*
X-145525Y164970D01*
X-144858Y165636D01*
X-144525Y166303D01*
X-149524Y384135D02*
Y377136D01*
Y384135D02*
X-146524D01*
X-145525Y383802D01*
X-145191Y383468D01*
X-144858Y382802D01*
Y382135D01*
X-145191Y381469D01*
X-145525Y381135D01*
X-146524Y380802D01*
X-149524D02*
X-146524D01*
X-145525Y380469D01*
X-145191Y380136D01*
X-144858Y379469D01*
Y378469D01*
X-145191Y377803D01*
X-145525Y377469D01*
X-146524Y377136D01*
X-149524D01*
X-144191Y589636D02*
X-146858Y596635D01*
X-149524Y589636D01*
X-148524Y591969D02*
X-145191D01*
D56*
X341471Y-67478D02*
D03*
D03*
D57*
X417921Y-59178D02*
D03*
D03*
D58*
X419471Y-61178D02*
D03*
X418871Y-79478D02*
D03*
X419471Y-61178D02*
D03*
X418871Y-79478D02*
D03*
D59*
X412321Y-69828D02*
D03*
D03*
D60*
X363421Y-78778D02*
D03*
D03*
D61*
X437771Y-77478D02*
D03*
X462071Y-74478D02*
D03*
X463071Y-65178D02*
D03*
X366171Y-57478D02*
D03*
X373171Y-64478D02*
D03*
X462071Y-65178D02*
D03*
X437771Y-77478D02*
D03*
X462071Y-74478D02*
D03*
X463071Y-65178D02*
D03*
X366171Y-57478D02*
D03*
X373171Y-64478D02*
D03*
X462071Y-65178D02*
D03*
D62*
X439921Y-77178D02*
D03*
X463221Y-74478D02*
D03*
X450921Y-57478D02*
D03*
X361021D02*
D03*
X463921Y-74478D02*
D03*
X439921Y-77178D02*
D03*
X463221Y-74478D02*
D03*
X450921Y-57478D02*
D03*
X361021D02*
D03*
X463921Y-74478D02*
D03*
D63*
X455771Y-84189D02*
D03*
D03*
D64*
X461421Y-80128D02*
D03*
X393821Y-76828D02*
D03*
X461421Y-80128D02*
D03*
X393821Y-76828D02*
D03*
D65*
X462721Y-74478D02*
D03*
X461721D02*
D03*
X463421Y-65178D02*
D03*
X462421D02*
D03*
X461721D02*
D03*
X366521Y-57478D02*
D03*
X463721Y-65178D02*
D03*
X462721D02*
D03*
X462421Y-74478D02*
D03*
X462721D02*
D03*
X461721D02*
D03*
X463421Y-65178D02*
D03*
X462421D02*
D03*
X461721D02*
D03*
X366521Y-57478D02*
D03*
X463721Y-65178D02*
D03*
X462721D02*
D03*
X462421Y-74478D02*
D03*
D66*
X379671Y-81827D02*
D03*
D03*
D67*
X401621Y-81823D02*
D03*
D03*
D68*
X415171Y-81827D02*
D03*
D03*
D69*
X448571Y-54478D02*
D03*
D03*
D70*
X448421Y-54828D02*
D03*
X387521Y-76828D02*
D03*
X448421Y-54828D02*
D03*
X387521Y-76828D02*
D03*
D71*
X448421Y-55178D02*
D03*
X455121Y-56178D02*
D03*
X448421Y-55178D02*
D03*
X455121Y-56178D02*
D03*
D72*
X455171Y-55378D02*
D03*
D03*
D73*
X448521Y-55478D02*
D03*
X442221Y-57478D02*
D03*
X448521Y-55478D02*
D03*
X442221Y-57478D02*
D03*
D74*
X455421Y-55778D02*
D03*
D03*
D75*
X448471Y-55828D02*
D03*
X442471Y-57828D02*
D03*
X448471Y-55828D02*
D03*
X442471Y-57828D02*
D03*
D76*
X448721Y-56228D02*
D03*
X438121Y-77228D02*
D03*
X448721Y-56228D02*
D03*
X438121Y-77228D02*
D03*
D77*
X455071Y-56478D02*
D03*
X448771Y-57178D02*
D03*
X455071Y-56478D02*
D03*
X448771Y-57178D02*
D03*
D78*
X448721Y-56428D02*
D03*
D03*
D79*
X454871Y-56878D02*
D03*
D03*
D80*
X448771Y-57278D02*
D03*
D03*
D81*
X442121Y-56828D02*
D03*
D03*
D82*
X454921Y-57178D02*
D03*
X454621Y-57478D02*
D03*
X442621Y-58178D02*
D03*
X454921Y-57178D02*
D03*
X454621Y-57478D02*
D03*
X442621Y-58178D02*
D03*
D83*
X442121Y-57178D02*
D03*
D03*
D84*
X448771Y-57478D02*
D03*
D03*
D85*
X363671D02*
D03*
D03*
D86*
X451621Y-57828D02*
D03*
X390621Y-58828D02*
D03*
X439621Y-68828D02*
D03*
X427621Y-75828D02*
D03*
X451621Y-57828D02*
D03*
X390621Y-58828D02*
D03*
X427621Y-75828D02*
D03*
D87*
X415271Y-57828D02*
D03*
D03*
D88*
X390821D02*
D03*
X457421Y-64828D02*
D03*
X459721Y-67828D02*
D03*
X354221Y-73828D02*
D03*
X326521D02*
D03*
X390821Y-57828D02*
D03*
X457421Y-64828D02*
D03*
X459721Y-67828D02*
D03*
X354221Y-73828D02*
D03*
D89*
X363771Y-57828D02*
D03*
X390671Y-59828D02*
D03*
X426271Y-62828D02*
D03*
X460271Y-66828D02*
D03*
X355871Y-75828D02*
D03*
X363771Y-57828D02*
D03*
X390671Y-59828D02*
D03*
X426271Y-62828D02*
D03*
X460271Y-66828D02*
D03*
X355871Y-75828D02*
D03*
X451271Y-81528D02*
D03*
D90*
X318571Y-57828D02*
D03*
D03*
D91*
X451121Y-58178D02*
D03*
X390821Y-60178D02*
D03*
X460121Y-66478D02*
D03*
Y-73178D02*
D03*
X426421Y-76478D02*
D03*
X451121Y-58178D02*
D03*
X390821Y-60178D02*
D03*
X460121Y-66478D02*
D03*
Y-73178D02*
D03*
X426421Y-76478D02*
D03*
D92*
X416271Y-58178D02*
D03*
D03*
D93*
X390721D02*
D03*
X427021Y-63178D02*
D03*
X326121Y-73178D02*
D03*
X390721Y-58178D02*
D03*
X427021Y-63178D02*
D03*
X326121Y-73178D02*
D03*
D94*
X363671Y-58178D02*
D03*
X357671Y-62478D02*
D03*
X363671Y-58178D02*
D03*
X357671Y-62478D02*
D03*
D95*
X319171Y-58178D02*
D03*
D03*
D96*
X450671Y-58528D02*
D03*
D03*
D97*
X442721Y-58478D02*
D03*
D03*
D98*
X416971D02*
D03*
X449571Y-79478D02*
D03*
X449271Y-79778D02*
D03*
X416671Y-81478D02*
D03*
X416971Y-58478D02*
D03*
X449571Y-79478D02*
D03*
X449271Y-79778D02*
D03*
X416671Y-81478D02*
D03*
D99*
X390821Y-58478D02*
D03*
D03*
D100*
X364021D02*
D03*
D03*
D101*
X319621Y-58528D02*
D03*
X319921Y-71128D02*
D03*
X319621Y-58528D02*
D03*
X319921Y-71128D02*
D03*
D102*
X448671Y-58828D02*
D03*
D03*
D103*
X417571D02*
D03*
D03*
D104*
X364171D02*
D03*
D03*
D105*
X320021Y-58878D02*
D03*
X320321Y-71878D02*
D03*
X320021Y-58878D02*
D03*
X320321Y-71878D02*
D03*
D106*
X460871Y-59228D02*
D03*
D03*
D107*
X448771Y-59178D02*
D03*
X363971Y-80878D02*
D03*
X448771Y-59178D02*
D03*
X363871Y-80778D02*
D03*
D108*
X390621Y-59178D02*
D03*
D03*
D109*
X364371D02*
D03*
D110*
X320271Y-59228D02*
D03*
D03*
D111*
X460821Y-59528D02*
D03*
D03*
D112*
X449121Y-59478D02*
D03*
D03*
D113*
X418371D02*
D03*
X363971Y-79778D02*
D03*
X418371Y-59478D02*
D03*
X363971Y-79778D02*
D03*
D114*
X390821Y-59478D02*
D03*
X427121Y-76178D02*
D03*
X390821Y-59478D02*
D03*
X427121Y-76178D02*
D03*
D115*
X364021Y-59478D02*
D03*
D03*
D116*
X320421Y-59428D02*
D03*
X364221Y-80128D02*
D03*
X320421Y-59428D02*
D03*
X364221Y-80128D02*
D03*
D117*
X460471Y-59828D02*
D03*
D118*
X449321D02*
D03*
D119*
X418471D02*
D03*
D03*
D120*
X363721D02*
D03*
D03*
D121*
X320771Y-59878D02*
D03*
X321671Y-68378D02*
D03*
X320771Y-59878D02*
D03*
X321671Y-68378D02*
D03*
D122*
X460321Y-60228D02*
D03*
D03*
D123*
X449771Y-60178D02*
D03*
D03*
D124*
X418771D02*
D03*
D03*
D125*
X363521D02*
D03*
X321221Y-61178D02*
D03*
X363521Y-60178D02*
D03*
X321221Y-61178D02*
D03*
D126*
X320871Y-60178D02*
D03*
X321171Y-69178D02*
D03*
X418171Y-80478D02*
D03*
X320871Y-60178D02*
D03*
X321171Y-69178D02*
D03*
X418171Y-80478D02*
D03*
D127*
X451921Y-60478D02*
D03*
X450621Y-62178D02*
D03*
Y-62478D02*
D03*
X363021Y-78178D02*
D03*
X451921Y-60478D02*
D03*
X450621Y-62178D02*
D03*
Y-62478D02*
D03*
X363021Y-78178D02*
D03*
D128*
X418921Y-60478D02*
D03*
D03*
D129*
X390671D02*
D03*
X459571Y-65478D02*
D03*
X459871Y-73478D02*
D03*
X442271Y-75178D02*
D03*
X356371Y-76178D02*
D03*
X390671Y-60478D02*
D03*
X459871Y-73478D02*
D03*
X442271Y-75178D02*
D03*
X356371Y-76178D02*
D03*
D130*
X363371Y-60478D02*
D03*
D03*
D131*
X320971D02*
D03*
D03*
D132*
X451721Y-60828D02*
D03*
X419121D02*
D03*
X451721D02*
D03*
X419121D02*
D03*
D133*
X390821D02*
D03*
X459721Y-73828D02*
D03*
X390821Y-60828D02*
D03*
X459721Y-73828D02*
D03*
D134*
X363121Y-60828D02*
D03*
D03*
D135*
X321121D02*
D03*
D03*
D136*
X451571Y-61178D02*
D03*
X451271Y-61478D02*
D03*
Y-78178D02*
D03*
X451571Y-61178D02*
D03*
X451271Y-61478D02*
D03*
Y-78178D02*
D03*
D137*
X390721Y-61178D02*
D03*
D03*
D138*
X362971D02*
D03*
X419071Y-79078D02*
D03*
X362971Y-61178D02*
D03*
X419171Y-79178D02*
D03*
D139*
X419471Y-61478D02*
D03*
D03*
D140*
X390621D02*
D03*
D03*
D141*
X362821D02*
D03*
X419721Y-78478D02*
D03*
X419421Y-78778D02*
D03*
X362821Y-61478D02*
D03*
X419721Y-78478D02*
D03*
X419421Y-78778D02*
D03*
D142*
X321271Y-61478D02*
D03*
D03*
D143*
X450921Y-61828D02*
D03*
X450621Y-77228D02*
D03*
X450921Y-61828D02*
D03*
X450621Y-77228D02*
D03*
D144*
X437271Y-61828D02*
D03*
D03*
D145*
X419571D02*
D03*
D03*
D146*
X390821D02*
D03*
D03*
D147*
X362721D02*
D03*
X390621Y-72828D02*
D03*
X362721Y-61828D02*
D03*
D148*
X321421D02*
D03*
D03*
D149*
X437871Y-62228D02*
D03*
D03*
D150*
X419721Y-62178D02*
D03*
X362521D02*
D03*
X390821Y-73178D02*
D03*
X419721Y-62178D02*
D03*
X362521D02*
D03*
X390821Y-73178D02*
D03*
D151*
X390671Y-62178D02*
D03*
X442571Y-75478D02*
D03*
X390671Y-62178D02*
D03*
X442571Y-75478D02*
D03*
D152*
X321471Y-62178D02*
D03*
D03*
D153*
X438271Y-62478D02*
D03*
X442271Y-81478D02*
D03*
X438271Y-62478D02*
D03*
X442271Y-81478D02*
D03*
D154*
X424621Y-62478D02*
D03*
D03*
D155*
X390821D02*
D03*
X357521Y-76478D02*
D03*
X390821Y-62478D02*
D03*
X357521Y-76478D02*
D03*
D156*
X370421Y-62528D02*
D03*
D03*
D157*
X326721Y-62478D02*
D03*
X355721Y-63478D02*
D03*
X326721Y-62478D02*
D03*
X355721Y-63478D02*
D03*
D158*
X448371Y-62828D02*
D03*
X390771Y-75828D02*
D03*
X448371Y-62828D02*
D03*
X390771Y-75828D02*
D03*
D159*
X390671Y-62828D02*
D03*
X425271Y-76828D02*
D03*
X390671Y-62828D02*
D03*
X425271Y-76828D02*
D03*
D160*
X371321Y-62878D02*
D03*
D03*
D161*
X356771Y-62828D02*
D03*
D03*
D162*
X327371D02*
D03*
D03*
D163*
X448421Y-63178D02*
D03*
Y-76178D02*
D03*
Y-63178D02*
D03*
Y-76178D02*
D03*
D164*
X390821Y-63178D02*
D03*
D03*
D165*
X371771D02*
D03*
D03*
D166*
X356071D02*
D03*
X442271Y-64478D02*
D03*
X460271Y-67178D02*
D03*
X451271Y-81478D02*
D03*
X356071Y-63178D02*
D03*
X442271Y-64478D02*
D03*
X460271Y-67178D02*
D03*
D167*
X327721Y-63178D02*
D03*
X369321Y-76478D02*
D03*
X328721Y-77478D02*
D03*
X329721Y-79778D02*
D03*
X369321Y-76478D02*
D03*
X328721Y-77478D02*
D03*
X329721Y-79778D02*
D03*
D168*
X448521Y-63478D02*
D03*
X390721Y-76178D02*
D03*
X448521Y-63478D02*
D03*
X390721Y-76178D02*
D03*
D169*
X427421Y-63478D02*
D03*
X442121Y-65178D02*
D03*
X354221Y-65478D02*
D03*
Y-74178D02*
D03*
X326921D02*
D03*
X354521Y-74478D02*
D03*
X327521Y-75178D02*
D03*
X328521Y-77178D02*
D03*
X329221Y-78478D02*
D03*
X427421Y-63478D02*
D03*
X442121Y-65178D02*
D03*
X354221Y-65478D02*
D03*
Y-74178D02*
D03*
X326921D02*
D03*
X327521Y-75178D02*
D03*
X328521Y-77178D02*
D03*
X329221Y-78478D02*
D03*
D170*
X390621Y-63478D02*
D03*
D03*
D171*
X372271Y-63578D02*
D03*
D03*
D172*
X327971Y-63478D02*
D03*
X457671Y-65178D02*
D03*
X428671Y-74478D02*
D03*
X327971Y-63478D02*
D03*
X457671Y-65178D02*
D03*
X428671Y-74478D02*
D03*
D173*
X455771Y-63828D02*
D03*
D03*
D174*
X443071D02*
D03*
D03*
D175*
X427771D02*
D03*
X326371Y-73528D02*
D03*
X427771Y-63828D02*
D03*
X326371Y-73528D02*
D03*
D176*
X390821Y-63828D02*
D03*
D03*
D177*
X372721D02*
D03*
X460621Y-80128D02*
D03*
X372721Y-63828D02*
D03*
X460621Y-80128D02*
D03*
D178*
X355371Y-63828D02*
D03*
D03*
D179*
X328021D02*
D03*
X327721Y-67428D02*
D03*
X442021Y-74228D02*
D03*
X328021Y-63828D02*
D03*
X327721Y-67428D02*
D03*
X442021Y-74228D02*
D03*
D180*
X456521Y-64128D02*
D03*
X442121Y-64828D02*
D03*
X456521Y-64128D02*
D03*
X442121Y-64828D02*
D03*
D181*
X442471Y-64178D02*
D03*
X363871Y-81478D02*
D03*
X442471Y-64178D02*
D03*
X363971Y-81578D02*
D03*
D182*
X427971Y-64178D02*
D03*
X428271Y-64478D02*
D03*
X354071Y-66178D02*
D03*
X353671Y-66478D02*
D03*
Y-73178D02*
D03*
X457571Y-74478D02*
D03*
X328071Y-76178D02*
D03*
X329571Y-79478D02*
D03*
X330071Y-80778D02*
D03*
X330371Y-81478D02*
D03*
X427971Y-64178D02*
D03*
X428271Y-64478D02*
D03*
X354071Y-66178D02*
D03*
X353671Y-66478D02*
D03*
Y-73178D02*
D03*
X457571Y-74478D02*
D03*
X328071Y-76178D02*
D03*
X330071Y-80778D02*
D03*
X330371Y-81478D02*
D03*
D183*
X390771Y-64178D02*
D03*
D03*
D184*
X372821D02*
D03*
D03*
D185*
X355171D02*
D03*
X354871Y-64478D02*
D03*
X460071Y-67478D02*
D03*
X442071Y-74478D02*
D03*
X355171Y-64178D02*
D03*
X354871Y-64478D02*
D03*
X460071Y-67478D02*
D03*
X442071Y-74478D02*
D03*
D186*
X328171Y-64178D02*
D03*
X428771Y-65478D02*
D03*
X429171Y-66478D02*
D03*
X327871Y-67178D02*
D03*
X459471Y-68178D02*
D03*
X381171Y-78478D02*
D03*
X380771Y-79478D02*
D03*
X401471Y-81478D02*
D03*
X328171Y-64178D02*
D03*
X428771Y-65478D02*
D03*
X429171Y-66478D02*
D03*
X327871Y-67178D02*
D03*
X459471Y-68178D02*
D03*
X381171Y-78478D02*
D03*
X380771Y-79478D02*
D03*
X401471Y-81478D02*
D03*
D187*
X457071Y-64478D02*
D03*
X428171Y-75178D02*
D03*
X457071Y-64478D02*
D03*
X428171Y-75178D02*
D03*
D188*
X394321Y-64478D02*
D03*
X440921Y-71478D02*
D03*
X394321Y-64478D02*
D03*
X440921Y-71478D02*
D03*
D189*
X387171Y-64478D02*
D03*
X386871Y-65178D02*
D03*
Y-65478D02*
D03*
X441771Y-66178D02*
D03*
X395171D02*
D03*
X386471D02*
D03*
X395171Y-66478D02*
D03*
X386171D02*
D03*
X395471Y-67178D02*
D03*
X385871Y-67478D02*
D03*
X385471Y-68178D02*
D03*
X396171Y-68478D02*
D03*
X385471D02*
D03*
X396471Y-69178D02*
D03*
X385171D02*
D03*
X396471Y-69478D02*
D03*
X384871Y-70178D02*
D03*
X384471Y-70478D02*
D03*
X459371Y-71178D02*
D03*
X397171D02*
D03*
X384171Y-71478D02*
D03*
X441771Y-73178D02*
D03*
X387171Y-64478D02*
D03*
X386871Y-65178D02*
D03*
Y-65478D02*
D03*
X441771Y-66178D02*
D03*
X395171D02*
D03*
X386471D02*
D03*
X395171Y-66478D02*
D03*
X386171D02*
D03*
X395471Y-67178D02*
D03*
X385871Y-67478D02*
D03*
X385471Y-68178D02*
D03*
X396171Y-68478D02*
D03*
X385471D02*
D03*
X396471Y-69178D02*
D03*
X385171D02*
D03*
X396471Y-69478D02*
D03*
X384871Y-70178D02*
D03*
X384471Y-70478D02*
D03*
X459371Y-71178D02*
D03*
X397171D02*
D03*
X384171Y-71478D02*
D03*
X441771Y-73178D02*
D03*
D190*
X328221Y-64478D02*
D03*
X442121Y-65478D02*
D03*
X353521Y-67178D02*
D03*
Y-67478D02*
D03*
X353221Y-68478D02*
D03*
Y-69478D02*
D03*
Y-70178D02*
D03*
Y-70478D02*
D03*
X440421Y-71178D02*
D03*
X353221D02*
D03*
X459421Y-71478D02*
D03*
X353221D02*
D03*
X353521Y-72178D02*
D03*
Y-72478D02*
D03*
X429121Y-73478D02*
D03*
X428821Y-74178D02*
D03*
X400821Y-79778D02*
D03*
X401121Y-80478D02*
D03*
X328221Y-64478D02*
D03*
X442121Y-65478D02*
D03*
X353521Y-67178D02*
D03*
Y-67478D02*
D03*
X353221Y-68478D02*
D03*
Y-69478D02*
D03*
Y-70178D02*
D03*
Y-70478D02*
D03*
X440421Y-71178D02*
D03*
X353221D02*
D03*
X459421Y-71478D02*
D03*
X353221D02*
D03*
X353521Y-72178D02*
D03*
Y-72478D02*
D03*
X429121Y-73478D02*
D03*
X428821Y-74178D02*
D03*
X400821Y-79778D02*
D03*
X401121Y-80478D02*
D03*
D191*
X428421Y-64828D02*
D03*
X328221D02*
D03*
X353221Y-68828D02*
D03*
X428421Y-64828D02*
D03*
X328221D02*
D03*
X353221Y-68828D02*
D03*
D192*
X394471Y-64828D02*
D03*
X386471Y-65828D02*
D03*
X395471Y-66828D02*
D03*
X386171D02*
D03*
X396171Y-68828D02*
D03*
X384871Y-69828D02*
D03*
X397171Y-70828D02*
D03*
X384471D02*
D03*
X397471Y-71828D02*
D03*
X394471Y-64828D02*
D03*
X386471Y-65828D02*
D03*
X395471Y-66828D02*
D03*
X386171D02*
D03*
X396171Y-68828D02*
D03*
X384871Y-69828D02*
D03*
X397171Y-70828D02*
D03*
X384471D02*
D03*
X397471Y-71828D02*
D03*
D193*
X387021Y-64828D02*
D03*
X441621Y-72828D02*
D03*
X387021Y-64828D02*
D03*
X441621Y-72828D02*
D03*
D194*
X354721Y-64828D02*
D03*
X325821Y-72828D02*
D03*
X354721Y-64828D02*
D03*
X325821Y-72828D02*
D03*
D195*
X428521Y-65178D02*
D03*
X328321D02*
D03*
X353321Y-69178D02*
D03*
X429221Y-73178D02*
D03*
X400021Y-78178D02*
D03*
X428521Y-65178D02*
D03*
X328321D02*
D03*
X353321Y-69178D02*
D03*
X429221Y-73178D02*
D03*
X400021Y-78178D02*
D03*
D196*
X394671Y-65178D02*
D03*
X441271Y-67178D02*
D03*
Y-67478D02*
D03*
X395671D02*
D03*
X441271Y-72178D02*
D03*
X394671Y-65178D02*
D03*
X441271Y-67178D02*
D03*
Y-67478D02*
D03*
X395671D02*
D03*
X441271Y-72178D02*
D03*
D197*
X354371Y-65178D02*
D03*
X427971Y-75478D02*
D03*
X354371Y-65178D02*
D03*
X427971Y-75478D02*
D03*
D198*
X394821Y-65478D02*
D03*
X395821Y-68178D02*
D03*
X396821Y-70178D02*
D03*
Y-70478D02*
D03*
X397821Y-72478D02*
D03*
X394821Y-65478D02*
D03*
X395821Y-68178D02*
D03*
X396821Y-70178D02*
D03*
Y-70478D02*
D03*
X397821Y-72478D02*
D03*
D199*
X328371Y-65478D02*
D03*
X440571Y-68178D02*
D03*
X429571D02*
D03*
X353371D02*
D03*
X429471Y-72178D02*
D03*
X429371Y-72478D02*
D03*
X383671D02*
D03*
X381671Y-77178D02*
D03*
Y-77478D02*
D03*
X380671Y-79778D02*
D03*
X380071Y-80778D02*
D03*
X328371Y-65478D02*
D03*
X440571Y-68178D02*
D03*
X429571D02*
D03*
X353371D02*
D03*
X429471Y-72178D02*
D03*
X429371Y-72478D02*
D03*
X383671D02*
D03*
X381671Y-77178D02*
D03*
Y-77478D02*
D03*
X380671Y-79778D02*
D03*
X380071Y-80778D02*
D03*
D200*
X459871Y-65828D02*
D03*
D03*
D201*
X442021D02*
D03*
X328321D02*
D03*
X429721Y-69828D02*
D03*
X396521D02*
D03*
X442021Y-73828D02*
D03*
Y-65828D02*
D03*
X328321D02*
D03*
X429721Y-69828D02*
D03*
X396521D02*
D03*
X442021Y-73828D02*
D03*
D202*
X428921Y-65828D02*
D03*
X429321Y-66828D02*
D03*
X429621Y-68828D02*
D03*
Y-70828D02*
D03*
X400621Y-79128D02*
D03*
X380021Y-81128D02*
D03*
X428921Y-65828D02*
D03*
X429321Y-66828D02*
D03*
X429621Y-68828D02*
D03*
Y-70828D02*
D03*
X400621Y-79128D02*
D03*
X380021Y-81128D02*
D03*
D203*
X394971Y-65828D02*
D03*
D03*
D204*
X354071D02*
D03*
X353671Y-66828D02*
D03*
Y-72828D02*
D03*
X329371Y-79128D02*
D03*
X354071Y-65828D02*
D03*
X353671Y-66828D02*
D03*
Y-72828D02*
D03*
X329371Y-79128D02*
D03*
D205*
X459971Y-66178D02*
D03*
D03*
D206*
X428971D02*
D03*
X328071D02*
D03*
X429371Y-67478D02*
D03*
X429671Y-70178D02*
D03*
Y-70478D02*
D03*
X441871Y-73478D02*
D03*
X428971Y-66178D02*
D03*
X429371Y-67478D02*
D03*
X429671Y-70178D02*
D03*
Y-70478D02*
D03*
X441871Y-73478D02*
D03*
D207*
X441671Y-66478D02*
D03*
D03*
D208*
X328021D02*
D03*
X429321Y-67178D02*
D03*
X429621Y-68478D02*
D03*
Y-69178D02*
D03*
Y-69478D02*
D03*
X385021D02*
D03*
X429621Y-71178D02*
D03*
X384321D02*
D03*
X429621Y-71478D02*
D03*
X397321D02*
D03*
X397621Y-72178D02*
D03*
X384021D02*
D03*
X399621Y-77178D02*
D03*
X399921Y-77478D02*
D03*
X381321Y-78178D02*
D03*
X400321Y-78478D02*
D03*
Y-78778D02*
D03*
X381021D02*
D03*
X400621Y-79478D02*
D03*
X380321Y-80478D02*
D03*
X401321Y-80778D02*
D03*
X328021Y-66478D02*
D03*
X429321Y-67178D02*
D03*
X429621Y-68478D02*
D03*
Y-69178D02*
D03*
Y-69478D02*
D03*
X385021D02*
D03*
X429621Y-71178D02*
D03*
X384321D02*
D03*
X429621Y-71478D02*
D03*
X397321D02*
D03*
X397621Y-72178D02*
D03*
X384021D02*
D03*
X399621Y-77178D02*
D03*
X399921Y-77478D02*
D03*
X381321Y-78178D02*
D03*
X400321Y-78478D02*
D03*
Y-78778D02*
D03*
X381021D02*
D03*
X400621Y-79478D02*
D03*
X380321Y-80478D02*
D03*
X401321Y-80778D02*
D03*
D209*
X441521Y-66828D02*
D03*
X395821Y-67828D02*
D03*
X441521Y-66828D02*
D03*
X395821Y-67828D02*
D03*
D210*
X327971Y-66828D02*
D03*
X429571Y-67828D02*
D03*
X385671D02*
D03*
X353371D02*
D03*
X429471Y-71828D02*
D03*
X429371Y-72828D02*
D03*
X399971Y-77828D02*
D03*
X400971Y-80128D02*
D03*
X327971Y-66828D02*
D03*
X429571Y-67828D02*
D03*
X385671D02*
D03*
X353371D02*
D03*
X429471Y-71828D02*
D03*
X429371Y-72828D02*
D03*
X399971Y-77828D02*
D03*
X400971Y-80128D02*
D03*
D211*
X386121Y-67178D02*
D03*
D03*
D212*
X441121Y-67828D02*
D03*
X459121Y-68828D02*
D03*
Y-70828D02*
D03*
X441121Y-67828D02*
D03*
X459121Y-68828D02*
D03*
Y-70828D02*
D03*
D213*
X327321Y-67828D02*
D03*
X457221Y-74828D02*
D03*
X428521D02*
D03*
X328121Y-76428D02*
D03*
X328421Y-76828D02*
D03*
X329821Y-80128D02*
D03*
X457221Y-74828D02*
D03*
X428521D02*
D03*
X328421Y-76828D02*
D03*
X329821Y-80128D02*
D03*
D214*
X325571Y-68178D02*
D03*
D03*
D215*
X459171Y-68478D02*
D03*
Y-69178D02*
D03*
Y-69478D02*
D03*
Y-70178D02*
D03*
Y-70478D02*
D03*
Y-68478D02*
D03*
Y-69178D02*
D03*
Y-69478D02*
D03*
Y-70178D02*
D03*
Y-70478D02*
D03*
D216*
X439921Y-68478D02*
D03*
X456721Y-75178D02*
D03*
X439921Y-68478D02*
D03*
X456721Y-75178D02*
D03*
D217*
X385371Y-68828D02*
D03*
X384071Y-71828D02*
D03*
X385371Y-68828D02*
D03*
X384071Y-71828D02*
D03*
D218*
X368821Y-70978D02*
D03*
D03*
D219*
X321221Y-68828D02*
D03*
D03*
D220*
X439271Y-69178D02*
D03*
Y-70178D02*
D03*
X456271Y-75478D02*
D03*
X439271Y-69178D02*
D03*
Y-70178D02*
D03*
X456271Y-75478D02*
D03*
D221*
X439371Y-69478D02*
D03*
X439571Y-70478D02*
D03*
X439371Y-69478D02*
D03*
D222*
X320971D02*
D03*
D03*
D223*
X459171Y-69828D02*
D03*
D03*
D224*
X439321D02*
D03*
D03*
D225*
X353171D02*
D03*
X353471Y-71828D02*
D03*
X429071Y-73828D02*
D03*
X353171Y-69828D02*
D03*
X353471Y-71828D02*
D03*
X429071Y-73828D02*
D03*
D226*
X320671Y-69828D02*
D03*
D03*
D227*
X320571Y-70228D02*
D03*
D03*
D228*
X320221Y-70478D02*
D03*
D03*
D229*
X439771Y-70828D02*
D03*
X354871Y-74828D02*
D03*
X439771Y-70828D02*
D03*
X354871Y-74828D02*
D03*
D230*
X353321Y-70828D02*
D03*
X381421Y-77828D02*
D03*
X380421Y-80128D02*
D03*
X401421Y-81128D02*
D03*
X353321Y-70828D02*
D03*
X381421Y-77828D02*
D03*
X380421Y-80128D02*
D03*
X401421Y-81128D02*
D03*
D231*
X320071Y-70878D02*
D03*
D03*
D232*
X319921Y-71528D02*
D03*
D03*
D233*
X459771Y-71778D02*
D03*
D03*
D234*
X441221Y-71828D02*
D03*
D03*
D235*
X460021Y-72178D02*
D03*
X355121Y-75178D02*
D03*
X460021Y-72178D02*
D03*
X355121Y-75178D02*
D03*
D236*
X320521Y-72178D02*
D03*
D03*
D237*
X460071Y-72478D02*
D03*
X355471Y-75478D02*
D03*
X460071Y-72478D02*
D03*
X355471Y-75478D02*
D03*
D238*
X441500Y-72478D02*
D03*
D239*
X325371Y-72578D02*
D03*
D03*
D240*
X460221Y-72828D02*
D03*
D03*
D241*
X390671Y-73478D02*
D03*
X420271Y-77178D02*
D03*
X390671Y-73478D02*
D03*
X420271Y-77178D02*
D03*
D242*
X370521Y-76828D02*
D03*
D03*
D243*
X354021Y-73478D02*
D03*
X327121Y-74478D02*
D03*
X327821Y-75478D02*
D03*
X329121Y-78178D02*
D03*
X329221Y-78778D02*
D03*
X354021Y-73478D02*
D03*
X327121Y-74478D02*
D03*
X327821Y-75478D02*
D03*
X329121Y-78178D02*
D03*
X329221Y-78778D02*
D03*
D244*
X390821Y-73828D02*
D03*
D03*
D245*
X459421Y-74178D02*
D03*
D03*
D246*
X390671D02*
D03*
D03*
D247*
X390821Y-74478D02*
D03*
D03*
D248*
X442121Y-74828D02*
D03*
D03*
D249*
X390621D02*
D03*
D03*
D250*
X327371D02*
D03*
X327871Y-75828D02*
D03*
X387871Y-76828D02*
D03*
X327371Y-74828D02*
D03*
X327871Y-75828D02*
D03*
X387871Y-76828D02*
D03*
D251*
X390721Y-75178D02*
D03*
D03*
D252*
X390771Y-75578D02*
D03*
D03*
D253*
X448521Y-75828D02*
D03*
D03*
D254*
X448371Y-76528D02*
D03*
X448571Y-76828D02*
D03*
X448371Y-76528D02*
D03*
X448571Y-76828D02*
D03*
D255*
X390671Y-76478D02*
D03*
D03*
D256*
X398821Y-76828D02*
D03*
D03*
D257*
X392871D02*
D03*
X389471D02*
D03*
X392871D02*
D03*
X389471D02*
D03*
D258*
X382171D02*
D03*
D03*
D259*
X362421D02*
D03*
D03*
D260*
X362471Y-77178D02*
D03*
D03*
D261*
X450821Y-77478D02*
D03*
D03*
D262*
X437271D02*
D03*
D03*
D263*
X420021D02*
D03*
D03*
D264*
X362621Y-77528D02*
D03*
D03*
D265*
X451071Y-77828D02*
D03*
D266*
X419971D02*
D03*
D03*
D267*
X362871D02*
D03*
D03*
D268*
X328821Y-77928D02*
D03*
D269*
X419821Y-78178D02*
D03*
D03*
D270*
X451471Y-78428D02*
D03*
D03*
D271*
X363221Y-78478D02*
D03*
X451721Y-78778D02*
D03*
X363221Y-78478D02*
D03*
X451721Y-78778D02*
D03*
D272*
Y-79178D02*
D03*
D03*
D273*
X380921D02*
D03*
D03*
D274*
X363471Y-79128D02*
D03*
X418471Y-80128D02*
D03*
X363471Y-79128D02*
D03*
X418471Y-80128D02*
D03*
D275*
X460421Y-79478D02*
D03*
D03*
D276*
X363671D02*
D03*
D03*
D277*
X460571Y-79778D02*
D03*
D278*
X418621D02*
D03*
D03*
D279*
X448971Y-80128D02*
D03*
D03*
D280*
X460971Y-80478D02*
D03*
D03*
D281*
X448621D02*
D03*
D03*
D282*
X364171D02*
D03*
D03*
D283*
X329971D02*
D03*
D03*
D284*
X448621Y-80828D02*
D03*
D03*
D285*
X417821Y-80778D02*
D03*
D03*
D286*
X450771Y-81128D02*
D03*
D03*
D287*
X442621D02*
D03*
D03*
D288*
X417471D02*
D03*
D03*
D289*
X364021D02*
D03*
D03*
D290*
X330221Y-81178D02*
D03*
D03*
D291*
X379771Y-81543D02*
D03*
D03*
D292*
X314721Y-69628D02*
D03*
D03*
D293*
X454421Y-81827D02*
D03*
D03*
D294*
X449621D02*
D03*
D03*
D295*
X442071D02*
D03*
D03*
D296*
X364321Y-81707D02*
D03*
D03*
D297*
X454621Y-82191D02*
D03*
X448621D02*
D03*
Y-82524D02*
D03*
X454621Y-82191D02*
D03*
X448621D02*
D03*
Y-82524D02*
D03*
D298*
X441971Y-82191D02*
D03*
X448271Y-84522D02*
D03*
X441971Y-82191D02*
D03*
X448271Y-84522D02*
D03*
D299*
X454721Y-82524D02*
D03*
D03*
D300*
X441971D02*
D03*
D03*
D301*
X454821Y-82858D02*
D03*
D03*
D302*
X448471Y-82895D02*
D03*
D03*
D303*
X454921Y-83191D02*
D03*
D03*
D304*
X448471D02*
D03*
D03*
D305*
X455121Y-83523D02*
D03*
D03*
D306*
X448471D02*
D03*
D03*
D307*
X455171Y-83856D02*
D03*
D03*
D308*
X448521D02*
D03*
D03*
D309*
X454921Y-84236D02*
D03*
D03*
D310*
X448421Y-84189D02*
D03*
D03*
D311*
X448271Y-84924D02*
D03*
D03*
D312*
X364317Y-59178D02*
D03*
D313*
X460562Y-59828D02*
D03*
D314*
X449498D02*
D03*
D315*
X327804Y-63178D02*
D03*
D316*
X459688Y-65478D02*
D03*
D317*
X328154Y-66178D02*
D03*
D318*
X327224Y-67828D02*
D03*
D319*
X439579Y-68828D02*
D03*
D320*
X439530Y-70478D02*
D03*
D321*
X441451Y-72478D02*
D03*
D322*
X390697Y-72828D02*
D03*
D323*
X326612Y-73828D02*
D03*
D324*
X354457Y-74478D02*
D03*
D325*
X328151Y-76428D02*
D03*
D326*
X451032Y-77828D02*
D03*
D327*
X328895Y-77928D02*
D03*
D328*
X329571Y-79544D02*
D03*
D329*
X460571Y-79842D02*
D03*
D330*
X6200Y76900D02*
D03*
D331*
Y86900D02*
D03*
D332*
X6159Y128366D02*
D03*
X6161Y102382D02*
D03*
D333*
X20000Y205000D02*
D03*
X15000Y15000D02*
D03*
X220000Y145000D02*
D03*
Y35000D02*
D03*
D334*
X20900Y130500D02*
D03*
X23000Y139300D02*
D03*
X23700Y134700D02*
D03*
X31300Y139400D02*
D03*
X286500Y111700D02*
D03*
X293700Y116100D02*
D03*
X81100Y133600D02*
D03*
X79900Y147100D02*
D03*
X183200Y170600D02*
D03*
X86100Y68700D02*
D03*
X73000Y62600D02*
D03*
X83900Y59300D02*
D03*
X134800Y69000D02*
D03*
X39900Y106800D02*
D03*
X304400Y136972D02*
D03*
X287300Y135400D02*
D03*
X289500Y132000D02*
D03*
X39300Y134700D02*
D03*
X62800Y70400D02*
D03*
X71700Y69500D02*
D03*
X210050Y177300D02*
D03*
X155000Y185600D02*
D03*
X317100Y123000D02*
D03*
X236500Y119800D02*
D03*
X233700Y118600D02*
D03*
X106000Y66700D02*
D03*
X96300Y71600D02*
D03*
X93200Y73900D02*
D03*
X64600Y72800D02*
D03*
X47000Y105100D02*
D03*
X57400Y106600D02*
D03*
X57600Y120900D02*
D03*
X84500Y152600D02*
D03*
X94500Y151900D02*
D03*
X92000Y153700D02*
D03*
X44900Y160900D02*
D03*
X47400Y148500D02*
D03*
X62300D02*
D03*
X216400Y21400D02*
D03*
X210200Y174100D02*
D03*
X124900Y164400D02*
D03*
X130500Y163900D02*
D03*
X270000Y72600D02*
D03*
X296220Y80236D02*
D03*
X237700Y150000D02*
D03*
X238800Y133300D02*
D03*
X242100Y133100D02*
D03*
X249400Y143500D02*
D03*
X283100Y131300D02*
D03*
X234300Y157900D02*
D03*
X230600Y131400D02*
D03*
X235500Y133100D02*
D03*
X246700Y125600D02*
D03*
X283000Y138300D02*
D03*
X252000Y157900D02*
D03*
X283500Y93800D02*
D03*
X283000Y79800D02*
D03*
X289800Y79600D02*
D03*
X299600Y80700D02*
D03*
X291000Y122500D02*
D03*
X264000Y141500D02*
D03*
X29700Y50000D02*
D03*
X94100Y32600D02*
D03*
X249000Y15800D02*
D03*
X216700Y25100D02*
D03*
X217900Y45400D02*
D03*
X132200Y60500D02*
D03*
X134800Y88800D02*
D03*
X130000Y15000D02*
D03*
X224240Y129560D02*
D03*
X32100Y63900D02*
D03*
X89100Y182000D02*
D03*
X208400Y130300D02*
D03*
X320600Y94200D02*
D03*
X317000Y91200D02*
D03*
X314173Y135236D02*
D03*
X312992Y108465D02*
D03*
X319094Y105217D02*
D03*
X302165Y101378D02*
D03*
X301870Y106201D02*
D03*
X280000Y205000D02*
D03*
X270000D02*
D03*
X260000Y205000D02*
D03*
X250000Y205000D02*
D03*
X240000Y205000D02*
D03*
X230000Y205000D02*
D03*
X309016Y173740D02*
D03*
X306850Y175315D02*
D03*
X304784Y177185D02*
D03*
X321319Y122953D02*
D03*
X321260Y109153D02*
D03*
X215256Y192618D02*
D03*
X34240Y163763D02*
D03*
X38768Y168684D02*
D03*
X108650Y139747D02*
D03*
X176400Y109400D02*
D03*
X56253Y72650D02*
D03*
X40079Y119350D02*
D03*
X92362Y148425D02*
D03*
X102323Y151102D02*
D03*
X111839Y153839D02*
D03*
X106339D02*
D03*
X98500Y152500D02*
D03*
X121575Y103075D02*
D03*
X39953Y126957D02*
D03*
X57185Y144350D02*
D03*
X38567Y156197D02*
D03*
X29307Y158500D02*
D03*
X29256Y153500D02*
D03*
X229291Y100413D02*
D03*
X310000Y205000D02*
D03*
X300000Y205000D02*
D03*
X290000D02*
D03*
X320000Y205000D02*
D03*
X200000D02*
D03*
X190000D02*
D03*
X180000Y205000D02*
D03*
X170000Y205000D02*
D03*
X160000Y205000D02*
D03*
X150000Y205000D02*
D03*
X140000Y205000D02*
D03*
X124000Y205000D02*
D03*
X114000D02*
D03*
X104000Y205000D02*
D03*
X94000D02*
D03*
X84000Y205000D02*
D03*
X74000D02*
D03*
X64000Y205000D02*
D03*
X54000Y205000D02*
D03*
X44000Y205000D02*
D03*
X34000Y205000D02*
D03*
X210000Y15000D02*
D03*
X190000D02*
D03*
X180000D02*
D03*
X170000D02*
D03*
X160000D02*
D03*
X120000Y15000D02*
D03*
X100000D02*
D03*
X200000Y15000D02*
D03*
X287854Y85158D02*
D03*
X287756Y89488D02*
D03*
X325650Y122953D02*
D03*
X319153Y113898D02*
D03*
X325650Y106417D02*
D03*
Y98445D02*
D03*
Y93524D02*
D03*
Y82598D02*
D03*
X282047Y157303D02*
D03*
X301461Y136807D02*
D03*
X285728Y16693D02*
D03*
X241949D02*
D03*
X241803Y53847D02*
D03*
X285524Y53693D02*
D03*
X240413Y12421D02*
D03*
X292874Y144016D02*
D03*
X314429Y101988D02*
D03*
X299075Y50217D02*
D03*
X316595Y110354D02*
D03*
X233000Y65600D02*
D03*
X313800Y131000D02*
D03*
X310591Y112716D02*
D03*
X234000Y101600D02*
D03*
X181200Y113800D02*
D03*
X184600Y109400D02*
D03*
X180100Y106800D02*
D03*
X210000Y205000D02*
D03*
X281700Y91700D02*
D03*
X299800Y92600D02*
D03*
X298300Y104900D02*
D03*
X299764Y109468D02*
D03*
X301600Y97200D02*
D03*
X323484Y113898D02*
D03*
X325650Y111437D02*
D03*
X296700Y174300D02*
D03*
X300000Y172200D02*
D03*
X201900Y176000D02*
D03*
X183300Y174700D02*
D03*
X174700Y174300D02*
D03*
X190800Y175200D02*
D03*
X196600Y175700D02*
D03*
X57900Y184800D02*
D03*
X275100Y185100D02*
D03*
X276900Y182200D02*
D03*
X273400Y180000D02*
D03*
X118700Y178400D02*
D03*
X127400Y183300D02*
D03*
X140000Y183900D02*
D03*
X247559Y87441D02*
D03*
X226500Y94500D02*
D03*
X182000D02*
D03*
X140500Y52500D02*
D03*
X104500Y31000D02*
D03*
X37400Y145200D02*
D03*
X82000Y153800D02*
D03*
X77000D02*
D03*
X87000D02*
D03*
X84600Y163800D02*
D03*
X74200Y164700D02*
D03*
X101071Y133448D02*
D03*
X88600Y129000D02*
D03*
X82500Y66700D02*
D03*
X70500Y83800D02*
D03*
X62700D02*
D03*
X107300Y104900D02*
D03*
X107200Y125500D02*
D03*
X107500Y116700D02*
D03*
X107600Y122700D02*
D03*
X94700Y37100D02*
D03*
X124700Y63500D02*
D03*
X109000Y69500D02*
D03*
X52800Y41500D02*
D03*
X27300Y86000D02*
D03*
X78500Y65600D02*
D03*
X83740Y148425D02*
D03*
X83839Y145276D02*
D03*
X29300Y148600D02*
D03*
X57900Y103490D02*
D03*
X83600Y56600D02*
D03*
X104600Y62300D02*
D03*
X75500Y60000D02*
D03*
X104600Y48500D02*
D03*
X124800Y131800D02*
D03*
X129400Y123300D02*
D03*
X100400Y40200D02*
D03*
X129400Y147300D02*
D03*
X4300Y13300D02*
D03*
X11200Y3900D02*
D03*
X22100Y6800D02*
D03*
X32500Y7100D02*
D03*
X53400Y7500D02*
D03*
X64000Y7200D02*
D03*
X42500Y4500D02*
D03*
X75400Y3300D02*
D03*
X85500Y6000D02*
D03*
X94900D02*
D03*
X100800Y3100D02*
D03*
X120100Y3200D02*
D03*
X130100Y3100D02*
D03*
X144400Y3000D02*
D03*
X164100Y3200D02*
D03*
X184400Y3100D02*
D03*
X199900Y3200D02*
D03*
X217400Y3300D02*
D03*
X229400Y3500D02*
D03*
X221300Y14300D02*
D03*
X237700Y15000D02*
D03*
X251000Y7100D02*
D03*
X271400Y7000D02*
D03*
X283500D02*
D03*
X294900D02*
D03*
X315800Y6700D02*
D03*
X325600Y3100D02*
D03*
X325500Y11900D02*
D03*
X325700Y20200D02*
D03*
X325600Y30300D02*
D03*
X325700Y39500D02*
D03*
X325500Y49600D02*
D03*
X325300Y57400D02*
D03*
X325500Y72500D02*
D03*
X321600Y91500D02*
D03*
X323600Y102400D02*
D03*
X325000Y127700D02*
D03*
X325600Y137300D02*
D03*
X325700Y145800D02*
D03*
X325600Y156800D02*
D03*
X325500Y183400D02*
D03*
X313000Y173000D02*
D03*
X325400Y192600D02*
D03*
X325500Y204400D02*
D03*
Y216800D02*
D03*
X310600D02*
D03*
X295800Y216900D02*
D03*
X276700Y216600D02*
D03*
X265000Y216700D02*
D03*
X251000Y216800D02*
D03*
X238000Y216900D02*
D03*
X225500D02*
D03*
X211300Y216800D02*
D03*
X195000D02*
D03*
X184600Y216700D02*
D03*
X166200D02*
D03*
X152400Y216800D02*
D03*
X142000Y217100D02*
D03*
X126400Y216900D02*
D03*
X110700Y217100D02*
D03*
X96700Y216900D02*
D03*
X80000D02*
D03*
X65100Y217000D02*
D03*
X47400D02*
D03*
X31400Y216800D02*
D03*
X19200Y216900D02*
D03*
X3100Y209700D02*
D03*
X4000Y197800D02*
D03*
X3400Y181500D02*
D03*
X22600Y189000D02*
D03*
X9600Y172700D02*
D03*
X15400Y160900D02*
D03*
X3600Y142300D02*
D03*
X3800Y133300D02*
D03*
X12000Y123000D02*
D03*
X11900Y107900D02*
D03*
X17200Y107700D02*
D03*
X11700Y112500D02*
D03*
X21000Y110600D02*
D03*
X27700Y113500D02*
D03*
X83900Y123700D02*
D03*
X60600Y130000D02*
D03*
X82100Y129000D02*
D03*
X92800Y124500D02*
D03*
X98900Y128100D02*
D03*
X101100Y90900D02*
D03*
X92600Y90100D02*
D03*
X79300Y84600D02*
D03*
X65200Y98100D02*
D03*
X61800Y94300D02*
D03*
X50700Y82600D02*
D03*
X28200Y12400D02*
D03*
X58600Y12000D02*
D03*
X120000Y27000D02*
D03*
X130000D02*
D03*
X116800Y34500D02*
D03*
X95300Y45300D02*
D03*
X101100Y55700D02*
D03*
X106800Y50700D02*
D03*
X132900Y39300D02*
D03*
X125700Y42800D02*
D03*
X143400Y48600D02*
D03*
X137700Y53600D02*
D03*
X150400Y38800D02*
D03*
X160700Y47800D02*
D03*
X165800Y38900D02*
D03*
X175000Y47500D02*
D03*
X180000Y38800D02*
D03*
X192000Y50600D02*
D03*
X197000Y34400D02*
D03*
X202600Y32700D02*
D03*
X207300Y38600D02*
D03*
X201100Y60100D02*
D03*
X233000Y42400D02*
D03*
X224400Y43000D02*
D03*
X218100Y64400D02*
D03*
X218000Y85700D02*
D03*
X208800Y91100D02*
D03*
X222600Y98200D02*
D03*
X224300Y109700D02*
D03*
X237200Y106500D02*
D03*
X255400Y110800D02*
D03*
X263500Y110400D02*
D03*
X255700Y128000D02*
D03*
X255800Y134400D02*
D03*
X263500Y133700D02*
D03*
X299900Y145800D02*
D03*
X294400Y133900D02*
D03*
X294100Y88700D02*
D03*
X275000Y81900D02*
D03*
X283500Y72700D02*
D03*
X317900Y80300D02*
D03*
X310800Y64600D02*
D03*
X303500Y57500D02*
D03*
X311000Y47700D02*
D03*
X298700Y37700D02*
D03*
X308500Y35700D02*
D03*
X291000Y18400D02*
D03*
X277100Y17000D02*
D03*
X247600Y18800D02*
D03*
X247100Y29900D02*
D03*
X290000Y32000D02*
D03*
X267400Y31800D02*
D03*
X271800Y43500D02*
D03*
X251000Y43400D02*
D03*
X291200Y49000D02*
D03*
X316800Y38000D02*
D03*
X306800Y23800D02*
D03*
X297000Y14200D02*
D03*
X259600Y16800D02*
D03*
X260600Y11100D02*
D03*
X284400Y42200D02*
D03*
X234800Y26100D02*
D03*
X226400Y27500D02*
D03*
X222000Y19800D02*
D03*
X236000Y19400D02*
D03*
X228400Y65100D02*
D03*
X229500Y53900D02*
D03*
X214200Y54000D02*
D03*
X144200Y75300D02*
D03*
X160700Y88600D02*
D03*
X117700Y184100D02*
D03*
X134100Y184200D02*
D03*
X147000Y185200D02*
D03*
X202800Y130700D02*
D03*
X98400Y178750D02*
D03*
X201900Y140700D02*
D03*
X197600Y144600D02*
D03*
X199300Y149800D02*
D03*
X209200Y142300D02*
D03*
X230100Y146300D02*
D03*
X222300Y158000D02*
D03*
X220900Y193500D02*
D03*
X220000Y199000D02*
D03*
X304600Y192800D02*
D03*
X294600Y199400D02*
D03*
X283700Y199300D02*
D03*
X275100Y198500D02*
D03*
X263700Y198900D02*
D03*
X254800Y199600D02*
D03*
X245300Y199300D02*
D03*
X234900Y198400D02*
D03*
X245900Y193700D02*
D03*
X274100Y193500D02*
D03*
X295500D02*
D03*
X293300Y184400D02*
D03*
X297900Y177600D02*
D03*
X291700Y171500D02*
D03*
X276600Y178500D02*
D03*
X278300Y184900D02*
D03*
X286700Y184800D02*
D03*
X282500Y173500D02*
D03*
X274500Y170700D02*
D03*
X285800Y169100D02*
D03*
X136000Y142600D02*
D03*
X165700D02*
D03*
X187700Y141500D02*
D03*
X177300Y120000D02*
D03*
X164000Y122100D02*
D03*
X144700Y122200D02*
D03*
X154600Y131900D02*
D03*
X174500Y135200D02*
D03*
X150400Y59800D02*
D03*
X171600Y68100D02*
D03*
X186800Y70500D02*
D03*
X201200Y80800D02*
D03*
X202800Y97300D02*
D03*
X187500Y88700D02*
D03*
X185700Y98600D02*
D03*
X176000Y101000D02*
D03*
X138100Y97300D02*
D03*
X5000Y46000D02*
D03*
X4400Y28800D02*
D03*
X3900Y62800D02*
D03*
X3500Y93000D02*
D03*
X10800Y97200D02*
D03*
X20400Y97900D02*
D03*
X56300Y174800D02*
D03*
X70800Y177600D02*
D03*
X40800Y179500D02*
D03*
X24500Y178800D02*
D03*
X107400Y169600D02*
D03*
X128000Y152500D02*
D03*
X109300Y160500D02*
D03*
X115100Y154800D02*
D03*
X65700Y115000D02*
D03*
X68700Y122700D02*
D03*
X79700Y112200D02*
D03*
X81700Y97800D02*
D03*
X92100Y105700D02*
D03*
X273000Y175700D02*
D03*
X218400Y178100D02*
D03*
X99000Y67000D02*
D03*
X244100Y139400D02*
D03*
X325600Y66100D02*
D03*
X316600Y61900D02*
D03*
X316700Y51000D02*
D03*
X16300Y84200D02*
D03*
X110000Y15000D02*
D03*
M02*
