M48
;Layer_Color=9474304
;FILE_FORMAT=2:5
INCH,LZ
;TYPE=PLATED
T1F00S00C0.01000
T3F00S00C0.03937
T4F00S00C0.04000
;TYPE=NON_PLATED
T5F00S00C0.12598
%
T01
X02174Y00033
X02294Y00035
X02213Y00143
X0222Y00198
X02164Y00214
X02167Y00251
X02264Y00275
X02348Y00261
X0236Y00194
X02377Y0015
X0240413Y0012421
X0241949Y0016693
X02476Y00188
X0249Y00158
X0251Y00071
X02606Y00111
X02596Y00168
X02771Y0017
X0285728Y0016693
X0291Y00184
X0297Y00142
X02949Y0007
X02835
X02714
X02674Y00318
X02718Y00435
X02844Y00422
X0285524Y0053693
X02912Y0049
X0299075Y0050217
X03035Y00575
X03108Y00646
X03166Y00619
X03167Y0051
X0311Y00477
X03085Y00357
X03168Y0038
X03257Y00395
X03256Y00303
X03257Y00202
X03255Y00119
X03256Y00031
X03158Y00067
X03068Y00238
X02987Y00377
X029Y0032
X02471Y00299
X0251Y00434
X0233Y00424
X02244Y0043
X02179Y00454
X02142Y0054
X02181Y00644
X02284Y00651
X0233Y00656
X02295Y00539
X0241803Y0053847
X03253Y00574
X03255Y00496
X03256Y00661
X02011Y00601
X0192Y00506
X0175Y00475
X018Y00388
X01658Y00389
X01607Y00478
X01434Y00486
X01405Y00525
X01377Y00536
X01322Y00605
X01247Y00635
X01046Y00623
X0106Y00667
X0099Y0067
X01011Y00557
X01046Y00485
X01068Y00507
X01004Y00402
X00947Y00371
X00941Y00326
X01045Y0031
X01168Y00345
X012Y0027
X013
X013Y0015
X012
X011Y0015
X01Y0015
X01008Y00031
X00949Y0006
X00855
X00754Y00033
X0064Y00072
X00586Y0012
X00755Y006
X0073Y00626
X00785Y00656
X00825Y00667
X00839Y00593
X00836Y00566
X00953Y00453
X01257Y00428
X01329Y00393
X01504Y00388
Y00598
X016Y0015
X017
X018
X019
X02
X021
X01999Y00032
X01844Y00031
X01641Y00032
X01444Y0003
X01301Y00031
X01201Y00032
X0197Y00344
X02026Y00327
X02073Y00386
X00528Y00415
X00297Y005
X00321Y00639
X00039Y00628
X0005Y0046
X00044Y00288
X00043Y00133
X00112Y00039
X00221Y00068
X00325Y00071
X00282Y00124
X00425Y00045
X00534Y00075
X00507Y00826
X0047Y01051
X00399Y01068
X0040079Y011935
X0039953Y0126957
X00393Y01347
X00374Y01452
X00293Y01486
X0029256Y01535
X0029307Y01585
X003424Y0163763
X0038768Y0168684
X0038567Y0156197
X00449Y01609
X00474Y01485
X00313Y01394
X0023Y01393
X00237Y01347
X00209Y01305
X0012Y0123
X00117Y01125
X00119Y01079
X00172Y01077
X0021Y01106
X00277Y01135
X00204Y00979
X00108Y00972
X00035Y0093
X00163Y00842
X00273Y0086
X00038Y01333
X00036Y01423
X00154Y01609
X00096Y01727
X00034Y01815
X0004Y01978
X00031Y02097
X00192Y02169
X00314Y02168
X0034Y0205
X0044Y0205
X0054Y0205
X00474Y0217
X00408Y01795
X00245Y01788
X00226Y0189
X00579Y01848
X00563Y01748
X00708Y01776
X00742Y01647
X00846Y01638
X00845Y01526
X0082Y01538
X0077
X00799Y01471
X008374Y0148425
X0083839Y0145276
X0092362Y0148425
X00945Y01519
X0092Y01537
X0087Y01538
X00985Y01525
X0102323Y0151102
X0106339Y0153839
X0111839
X01151Y01548
X01093Y01605
X01074Y01696
X00984Y017875
X00891Y0182
X0094Y0205
X0104
X0114Y0205
X0124
X01264Y02169
X0142Y02171
X01524Y02168
X01662Y02167
X017Y0205
X016Y0205
X015Y0205
X014Y0205
Y01839
X01341Y01842
X01274Y01833
X01177Y01841
X01187Y01784
X01249Y01644
X01305Y01639
X0128Y01525
X01294Y01473
X0136Y01426
X01248Y01318
X01294Y01233
X01447Y01222
X0164Y01221
X01773Y012
X01812Y01138
X01846Y01094
X01801Y01068
X01764Y01094
X0176Y0101
X01857Y00986
X0182Y00945
X01875Y00887
X01868Y00705
X01716Y00681
X01607Y00886
X01348Y00888
X01381Y00973
X0121575Y0103075
X01073Y01049
X01075Y01167
X01076Y01227
X01072Y01255
X00989Y01281
X0101071Y0133448
X010865Y0139747
X00886Y0129
X00821
X00811Y01336
X00839Y01237
X00928Y01245
X00921Y01057
X00926Y00901
X01011Y00909
X00963Y00716
X00932Y00739
X00861Y00687
X00717Y00695
X00628Y00704
X00646Y00728
X0056253Y007265
X00627Y00838
X00705
X00793Y00846
X00817Y00978
X00797Y01122
X00657Y0115
X00687Y01227
X00576Y01209
X00606Y013
X0057185Y014435
X00623Y01485
X00574Y01066
X00579Y010349
X00652Y00981
X00618Y00943
X0109Y00695
X01348Y0069
X01442Y00753
X02012Y00808
X02088Y00911
X02028Y00973
Y01307
X02084Y01303
X02092Y01423
X02019Y01407
X01976Y01446
X01993Y01498
X01877Y01415
X01745Y01352
X01657Y01426
X01546Y01319
X0155Y01856
X0147Y01852
X01747Y01743
X01833Y01747
X01832Y01706
X01908Y01752
X01966Y01757
X02019Y0176
X021005Y01773
X02102Y01741
X021Y0205
X02
X019
X018Y0205
X01846Y02167
X0195Y02168
X02113
X01107Y02171
X00967Y02169
X008
X00651Y0217
X0064Y0205
X0074Y0205
X0084
X022Y0199
X02209Y01935
X0215256Y0192618
X02184Y01781
X02223Y0158
X02343Y01579
X02377Y015
X02301Y01463
X02306Y01314
X02355Y01331
X02388Y01333
X02421Y01331
X02441Y01394
X02494Y01435
X02558Y01344
X02557Y0128
X02467Y01256
X02365Y01198
X02337Y01186
X02372Y01065
X0234Y01016
X0229291Y0100413
X02265Y00945
X02226Y00982
X02243Y01097
X022424Y012956
X02635Y01337
X0264Y01415
X0283Y01383
X02831Y01313
X02895Y0132
X02873Y01354
X02944Y01339
X0301461Y0136807
X03044Y0136972
X0314173Y0135236
X03138Y0131
X03171Y0123
X0321319Y0122953
X032565
X0325Y01277
X03256Y01373
X03257Y01458
X03256Y01568
X03255Y01834
X03254Y01926
X03255Y02044
X032Y0205
X031
X03Y0205
X029
X028Y0205
X02837Y01993
X02751Y01985
X02741Y01935
X02751Y01851
X02783Y01849
X02769Y01822
X02766Y01785
X02734Y018
X0273Y01757
X02745Y01707
X02825Y01735
X02858Y01691
X02917Y01715
X02967Y01743
X02979Y01776
X0304784Y0177185
X030685Y0175315
X0309016Y017374
X0313Y0173
X03Y01722
X02933Y01844
X02867Y01848
X02955Y01935
X02946Y01994
X03046Y01928
X03106Y02168
X03255
X02958Y02169
X02767Y02166
X0265Y02167
X0251Y02168
X025Y0205
X026Y0205
X02637Y01989
X02548Y01996
X02453Y01993
X02459Y01937
X02349Y01984
X023Y0205
X024Y0205
X0238Y02169
X02255
X027Y0205
X0282047Y0157303
X0292874Y0144016
X02999Y01458
X0291Y01225
X02937Y01161
X02865Y01117
X0299764Y0109468
X030187Y0106201
X02983Y01049
X0302165Y0101378
X03016Y00972
X02998Y00926
X02941Y00887
X0287756Y0089488
X0287854Y0085158
X02898Y00796
X0283Y00798
X02835Y00727
X027Y00726
X0275Y00819
X02817Y00917
X02835Y00938
X029622Y0080236
X02996Y00807
X03179Y00803
X032565Y0082598
X03255Y00725
X032565Y0093524
Y0098445
X03236Y01024
X032565Y0106417
Y0111437
X0323484Y0113898
X0319153Y0113898
X0316595Y0110354
X0312992Y0108465
X0310591Y0112716
X032126Y0109153
X0319094Y0105217
X0314429Y0101988
X0317Y00912
X03216Y00915
X03206Y00942
X02635Y01104
X02554Y01108
X0247559Y0087441
X0218Y00857
X0252Y01579
T03
X0072Y017
X0102Y0174
Y0166
T04
X00062Y00769
Y00869
T05
X022Y0035
X0015Y0015
X002Y0205
X022Y0145
M30
