G04 Layer_Color=8388736*
%FSLAX25Y25*%
%MOIN*%
G70*
G01*
G75*
%ADD27C,0.11811*%
%ADD28R,0.03359X0.03950*%
%ADD29R,0.04816X0.05288*%
%ADD30R,0.01981X0.05288*%
%ADD31R,0.08674X0.02375*%
%ADD32R,0.02375X0.02375*%
%ADD33C,0.09855*%
%ADD34C,0.04761*%
G04:AMPARAMS|DCode=35|XSize=47.59mil|YSize=47.61mil|CornerRadius=0mil|HoleSize=0mil|Usage=FLASHONLY|Rotation=315.000|XOffset=0mil|YOffset=0mil|HoleType=Round|Shape=Rectangle|*
%AMROTATEDRECTD35*
4,1,4,-0.03366,-0.00001,0.00001,0.03366,0.03366,0.00001,-0.00001,-0.03366,-0.03366,-0.00001,0.0*
%
%ADD35ROTATEDRECTD35*%

%ADD36C,0.03500*%
D27*
X-8581Y12255D02*
G03*
X6085Y13668I8581J-12255D01*
G01*
D28*
X4648Y0D02*
D03*
X-4742D02*
D03*
D29*
X-1494D02*
D03*
D30*
X2876D02*
D03*
D31*
X157Y-19098D02*
D03*
D32*
X1000Y19600D02*
D03*
D33*
X40945Y-15905D02*
D03*
Y-3701D02*
D03*
X-40945Y-15905D02*
D03*
Y-3701D02*
D03*
D34*
X34607Y27393D02*
D03*
X31071Y30929D02*
D03*
X38142Y23858D02*
D03*
X27536Y34464D02*
D03*
D35*
X24000Y38000D02*
D03*
D36*
X-26000Y33500D02*
D03*
Y28000D02*
D03*
X1000Y22500D02*
D03*
X32000Y19500D02*
D03*
M02*
