G04 Layer_Physical_Order=2*
G04 Layer_Color=36540*
%FSLAX25Y25*%
%MOIN*%
G70*
G01*
G75*
%ADD17C,0.00600*%
%ADD18C,0.01000*%
%ADD19C,0.09055*%
%ADD20C,0.03961*%
%ADD22C,0.02700*%
G36*
X5702Y48172D02*
X9464Y47576D01*
X13167Y46687D01*
X16790Y45510D01*
X20308Y44052D01*
X23702Y42323D01*
X23961Y42164D01*
X24020Y41668D01*
X20851Y38500D01*
X24499Y34851D01*
X24535Y34887D01*
X25063Y34708D01*
X25132Y34187D01*
X25432Y33461D01*
X25603Y33239D01*
X27682Y35318D01*
X28389Y34611D01*
X26310Y32532D01*
X26533Y32361D01*
X27257Y32061D01*
X28036Y31958D01*
X28543Y32025D01*
X28969Y31655D01*
X28991Y31599D01*
X28969Y31429D01*
X29057Y30755D01*
X29317Y30128D01*
X29731Y29589D01*
X30270Y29175D01*
X30898Y28915D01*
X31571Y28826D01*
X32193Y28908D01*
X32413Y28735D01*
X32586Y28515D01*
X32504Y27893D01*
X32593Y27220D01*
X32853Y26592D01*
X33266Y26053D01*
X33805Y25640D01*
X34433Y25379D01*
X35107Y25291D01*
X35728Y25373D01*
X35949Y25200D01*
X36121Y24980D01*
X36040Y24358D01*
X36128Y23684D01*
X36388Y23057D01*
X36802Y22518D01*
X37341Y22104D01*
X37969Y21844D01*
X38642Y21755D01*
X39316Y21844D01*
X39943Y22104D01*
X40483Y22518D01*
X40896Y23057D01*
X41156Y23684D01*
X41245Y24358D01*
X41220Y24545D01*
X41702Y24716D01*
X42323Y23702D01*
X44052Y20308D01*
X45510Y16790D01*
X46687Y13167D01*
X47576Y9464D01*
X48172Y5702D01*
X48471Y1904D01*
Y-1904D01*
X48172Y-5702D01*
X47576Y-9464D01*
X46687Y-13167D01*
X46517Y-13689D01*
X46018Y-13708D01*
X45773Y-13118D01*
X44887Y-11963D01*
X43733Y-11077D01*
X42388Y-10520D01*
X41445Y-10396D01*
Y-15905D01*
Y-21415D01*
X42388Y-21291D01*
X43152Y-20974D01*
X43514Y-21366D01*
X42323Y-23702D01*
X40333Y-26950D01*
X38094Y-30031D01*
X35620Y-32927D01*
X32927Y-35621D01*
X30031Y-38094D01*
X26950Y-40333D01*
X23702Y-42323D01*
X20308Y-44052D01*
X16790Y-45510D01*
X13167Y-46687D01*
X9464Y-47576D01*
X5702Y-48172D01*
X1904Y-48471D01*
X-1904D01*
X-5702Y-48172D01*
X-9464Y-47576D01*
X-13167Y-46687D01*
X-16790Y-45510D01*
X-20308Y-44052D01*
X-23702Y-42323D01*
X-26950Y-40333D01*
X-30031Y-38094D01*
X-32927Y-35620D01*
X-35621Y-32927D01*
X-38094Y-30031D01*
X-40333Y-26950D01*
X-42323Y-23702D01*
X-43514Y-21366D01*
X-43152Y-20974D01*
X-42388Y-21291D01*
X-41445Y-21415D01*
Y-15905D01*
Y-10396D01*
X-42388Y-10520D01*
X-43733Y-11077D01*
X-44887Y-11963D01*
X-45773Y-13118D01*
X-46018Y-13708D01*
X-46517Y-13689D01*
X-46687Y-13167D01*
X-47576Y-9464D01*
X-48172Y-5702D01*
X-48471Y-1904D01*
Y1904D01*
X-48172Y5702D01*
X-47576Y9464D01*
X-46687Y13167D01*
X-45510Y16790D01*
X-44052Y20308D01*
X-42323Y23702D01*
X-40333Y26950D01*
X-38094Y30031D01*
X-35620Y32927D01*
X-32927Y35621D01*
X-30031Y38094D01*
X-26950Y40333D01*
X-23702Y42323D01*
X-20308Y44052D01*
X-16790Y45510D01*
X-13167Y46687D01*
X-9464Y47576D01*
X-5702Y48172D01*
X-1904Y48471D01*
X1904D01*
X5702Y48172D01*
D02*
G37*
%LPC*%
G36*
X-41445Y-4201D02*
X-46454D01*
X-46330Y-5144D01*
X-45773Y-6488D01*
X-44887Y-7643D01*
X-43733Y-8529D01*
X-42388Y-9086D01*
X-41445Y-9210D01*
Y-4201D01*
D02*
G37*
G36*
X40445D02*
X35435D01*
X35560Y-5144D01*
X36117Y-6488D01*
X37003Y-7643D01*
X38157Y-8529D01*
X39502Y-9086D01*
X40445Y-9210D01*
Y-4201D01*
D02*
G37*
G36*
X-35435D02*
X-40445D01*
Y-9210D01*
X-39502Y-9086D01*
X-38157Y-8529D01*
X-37003Y-7643D01*
X-36117Y-6488D01*
X-35560Y-5144D01*
X-35435Y-4201D01*
D02*
G37*
G36*
X40445Y-16406D02*
X35435D01*
X35560Y-17348D01*
X36117Y-18693D01*
X37003Y-19848D01*
X38157Y-20734D01*
X39502Y-21291D01*
X40445Y-21415D01*
Y-16406D01*
D02*
G37*
G36*
X-35435D02*
X-40445D01*
Y-21415D01*
X-39502Y-21291D01*
X-38157Y-20734D01*
X-37003Y-19848D01*
X-36117Y-18693D01*
X-35560Y-17348D01*
X-35435Y-16406D01*
D02*
G37*
G36*
X40445Y-10396D02*
X39502Y-10520D01*
X38157Y-11077D01*
X37003Y-11963D01*
X36117Y-13118D01*
X35560Y-14462D01*
X35435Y-15405D01*
X40445D01*
Y-10396D01*
D02*
G37*
G36*
X-40445D02*
Y-15405D01*
X-35435D01*
X-35560Y-14462D01*
X-36117Y-13118D01*
X-37003Y-11963D01*
X-38157Y-11077D01*
X-39502Y-10520D01*
X-40445Y-10396D01*
D02*
G37*
G36*
X24383Y1871D02*
X23622Y1720D01*
X22977Y1289D01*
X22546Y644D01*
X22395Y-117D01*
X22546Y-878D01*
X22977Y-1523D01*
X23622Y-1954D01*
X24383Y-2105D01*
X25144Y-1954D01*
X25789Y-1523D01*
X26220Y-878D01*
X26371Y-117D01*
X26220Y644D01*
X25789Y1289D01*
X25144Y1720D01*
X24383Y1871D01*
D02*
G37*
G36*
X41445Y1809D02*
Y-3201D01*
X46454D01*
X46330Y-2258D01*
X45773Y-913D01*
X44887Y241D01*
X43733Y1127D01*
X42388Y1685D01*
X41445Y1809D01*
D02*
G37*
G36*
X-26000Y35488D02*
X-26761Y35337D01*
X-27406Y34906D01*
X-27837Y34261D01*
X-27988Y33500D01*
X-27837Y32739D01*
X-27406Y32094D01*
X-26761Y31663D01*
X-26000Y31512D01*
X-25239Y31663D01*
X-24594Y32094D01*
X-24163Y32739D01*
X-24012Y33500D01*
X-24163Y34261D01*
X-24594Y34906D01*
X-25239Y35337D01*
X-26000Y35488D01*
D02*
G37*
G36*
Y25488D02*
X-26761Y25337D01*
X-27406Y24906D01*
X-27837Y24261D01*
X-27988Y23500D01*
X-27837Y22739D01*
X-27406Y22094D01*
X-26761Y21663D01*
X-26000Y21512D01*
X-25239Y21663D01*
X-24594Y22094D01*
X-24268Y22582D01*
X-17880D01*
X-1874Y6576D01*
X-1988Y6000D01*
X-1837Y5239D01*
X-1406Y4594D01*
X-761Y4163D01*
X0Y4012D01*
X761Y4163D01*
X1406Y4594D01*
X1837Y5239D01*
X1988Y6000D01*
X1837Y6761D01*
X1406Y7406D01*
X761Y7837D01*
X0Y7988D01*
X-576Y7874D01*
X-16851Y24149D01*
X-17149Y24348D01*
X-17500Y24418D01*
X-24268D01*
X-24594Y24906D01*
X-25239Y25337D01*
X-26000Y25488D01*
D02*
G37*
G36*
X-41445Y1809D02*
X-42388Y1685D01*
X-43733Y1127D01*
X-44887Y241D01*
X-45773Y-913D01*
X-46330Y-2258D01*
X-46454Y-3201D01*
X-41445D01*
Y1809D01*
D02*
G37*
G36*
X46454Y-4201D02*
X41445D01*
Y-9210D01*
X42388Y-9086D01*
X43733Y-8529D01*
X44887Y-7643D01*
X45773Y-6488D01*
X46330Y-5144D01*
X46454Y-4201D01*
D02*
G37*
G36*
X40445Y1809D02*
X39502Y1685D01*
X38157Y1127D01*
X37003Y241D01*
X36117Y-913D01*
X35560Y-2258D01*
X35435Y-3201D01*
X40445D01*
Y1809D01*
D02*
G37*
G36*
X-40445D02*
Y-3201D01*
X-35435D01*
X-35560Y-2258D01*
X-36117Y-913D01*
X-37003Y241D01*
X-38157Y1127D01*
X-39502Y1685D01*
X-40445Y1809D01*
D02*
G37*
%LPD*%
D17*
X-26000Y23500D02*
X-17500D01*
X0Y6000D01*
D18*
X40905Y-15905D02*
X41000Y-16000D01*
D19*
X40945Y-15905D02*
D03*
Y-3701D02*
D03*
X-40945Y-15905D02*
D03*
Y-3701D02*
D03*
D20*
X28036Y34964D02*
D03*
D22*
X0Y6000D02*
D03*
X-26000Y23500D02*
D03*
M02*
